<?xml version="1.0" encoding="UTF-8"?>
<svg width="120px" height="132px" viewBox="0 0 120 132" version="1.1" xmlns="http://www.w3.org/2000/svg" xmlns:xlink="http://www.w3.org/1999/xlink">
    <!-- Generator: Sketch 52.4 (67378) - http://www.bohemiancoding.com/sketch -->
    <title>puzzle</title>
    <desc>Created with Sketch.</desc>
    <g id="Elementos" stroke="none" stroke-width="1" fill="none" fill-rule="evenodd">
        <g id="Amazon/Servicios" transform="translate(-68.000000, -594.000000)" fill-rule="nonzero">
            <g id="puzzle" transform="translate(68.000000, 594.000000)">
                <path d="M117.698407,40.7173212 C118.726245,39.6900838 118.726245,38.0459024 117.698407,36.9675037 L90.5129149,9.79687513 C90.1013784,9.38658189 89.3816916,9.38658189 88.9711591,9.79687513 L81.0566112,17.7068033 C80.6450749,18.1180994 80.6450749,18.7340407 80.9532254,19.1453368 C83.6262044,22.5350195 83.0089,27.4143969 79.6172377,30.0848129 C76.7906852,32.2937743 72.8339131,32.2937743 70.0073607,30.0848129 C69.5958244,29.7256809 68.9283325,29.7768422 68.5679872,30.1881383 L60.6534396,38.0980665 C60.2429067,38.5083597 60.2429067,39.2276265 60.6534396,39.6389225 L68.5679872,47.5478479 C68.9795234,47.959144 68.9795234,48.5750852 68.6713732,48.9863813 C65.998394,52.376064 66.6156987,57.2554415 70.0073607,59.9268603 C72.8339131,62.1348189 76.7906852,62.1348189 79.6172377,59.9268603 C80.028774,59.5667255 80.6962661,59.6178868 81.0566112,60.0291829 L88.9711591,67.9391111 C89.3816916,68.3494043 90.1013784,68.3494043 90.5129149,67.9391111 L98.4264588,60.0291829 C98.8379951,59.6178868 99.4542961,59.6178868 99.8658324,59.9268603 C103.257495,62.5972763 108.139722,61.981335 110.812701,58.5906494 C113.021949,55.7657467 113.021949,51.811284 110.812701,48.9863813 C110.452355,48.5750852 110.503547,47.9079827 110.915083,47.5478479 L117.698407,40.7173212 Z" id="Path" fill="#6DCC6D"></path>
                <path d="M92.5163946,75.0264471 L81.1078024,75.0264471 C80.6450749,75.0264471 80.2345424,75.3865819 80.1311563,75.9002006 C79.6684289,80.1626339 75.8140391,83.2443459 71.5491166,82.7828914 C67.9004952,82.3715953 65.0739428,79.4955313 64.6624063,75.9002006 C64.6112151,75.4377432 64.1996788,75.0264471 63.6857602,75.0264471 L51.3005219,75.0264471 L51.3005219,88.3293714 C46.9834047,88.3293714 43.4893603,91.8223796 43.4893603,96.136977 C43.4893603,100.450572 46.9834047,103.94358 51.3005219,103.94358 L51.3005219,117.246504 L64.6112151,117.246504 C64.6112151,121.561102 68.1052597,125.053107 72.4223769,125.053107 C76.739494,125.053107 80.2345424,121.561102 80.2345424,117.246504 L90.8722564,117.246504 C92.3116301,117.246504 93.4930407,116.06478 93.4930407,114.627249 L93.4930407,76.0536845 C93.4930407,75.4377432 93.0303132,75.0264471 92.5163946,75.0264471 Z" id="Path" fill="#FFAE2C"></path>
                <path d="M51.3005219,88.3293714 L51.3005219,75.0264471 L37.9898287,75.0264471 C37.9898287,70.7128525 34.4957843,67.2198444 30.1786669,67.2198444 C25.8615497,67.2198444 22.3665017,70.7128525 22.3665017,75.0264471 L9.10800308,75.0264471 L9.10800308,88.3293714 C4.79088591,88.3293714 1.29583786,91.8223796 1.29583786,96.136977 C1.29583786,100.450572 4.79088591,103.94358 9.10800308,103.94358 L9.10800308,114.575085 C9.10800308,116.013619 10.2894139,117.195343 11.7287874,117.195343 L51.3005219,117.195343 L51.3005219,103.892418 C46.9834047,103.892418 43.4893603,100.39941 43.4893603,96.0848129 C43.4893603,91.7712183 46.9834047,88.2782101 51.3005219,88.3293714 Z" id="Path" fill="#EA4647"></path>
                <path d="M52.122591,46.2126399 C51.6598636,46.1614786 51.2493307,45.7501825 51.2493307,45.288728 L51.2493307,33.8346304 C51.2493307,33.3210117 50.8377944,32.8585543 50.2726846,32.8585543 L11.7287874,32.8585543 C10.2894139,32.8585543 9.10800308,34.0402784 9.10800308,35.477809 L9.10800308,45.288728 C9.10800308,45.7501825 9.41615358,46.1103173 9.87888103,46.1614786 C14.1438036,46.5727747 17.2795102,50.4249148 16.8679737,54.6873481 C16.5086323,58.3860042 13.5786938,61.3132296 9.87888103,61.6723615 C9.41615358,61.7245256 9.10800308,62.0836576 9.10800308,62.546115 L9.10800308,75.0264471 L22.4186965,75.0264471 C22.4186965,70.7128525 25.9127409,67.2198444 30.2298581,67.2198444 C34.5469752,67.2198444 38.0410199,70.7128525 38.0410199,75.0264471 L51.3517131,75.0264471 L51.3517131,62.6484376 C51.3517131,62.1859802 51.7120584,61.7756869 52.225977,61.7245256 C56.4908994,61.2620683 59.5744111,57.4099282 59.1116837,53.146492 C58.6499599,49.4488387 55.7712126,46.5727747 52.122591,46.2126399 Z" id="Path" fill="#55ACD5"></path>
                <g id="Group" transform="translate(0.000000, 8.217899)" fill="#231F20">
                    <path d="M89.742037,61.3132296 C89.1247323,61.3132296 88.5084313,61.0564202 88.0457039,60.5939629 L80.2857333,52.8385214 C76.2767666,55.8690722 70.5724705,55.0474828 67.5913411,50.9896947 C65.1763249,47.7534959 65.1763249,43.3365759 67.5913411,40.1003771 L59.8313704,32.3449356 C58.9069192,31.4210237 58.9069192,29.931329 59.8313704,29.0064142 L67.745918,21.096486 C68.6191783,20.2748967 69.9561698,20.1725741 70.880621,20.8918408 C73.7071734,23.0997994 77.8185225,22.5861808 80.028774,19.761278 C81.8786803,17.3988327 81.8786803,14.1114726 80.028774,11.8001885 C79.3090872,10.8762766 79.3602784,9.48890449 80.2345424,8.66731518 L88.1480863,0.757386981 C89.0735412,-0.166524934 90.5641059,-0.166524934 91.4885573,0.757386981 L118.675054,27.9280156 C120.216809,29.4688716 120.216809,31.9346424 118.675054,33.4754984 L111.994111,40.1525412 C115.026432,44.1581652 114.204363,49.8591319 110.195396,52.8385214 C106.958311,55.252128 102.537808,55.252128 99.3007226,52.8385214 L91.5407522,60.5939629 C90.9746387,61.0564202 90.3583377,61.3132296 89.742037,61.3132296 Z M80.2857333,50.1681054 C80.9020343,50.1681054 81.5193389,50.4249148 81.9810627,50.835208 L89.742037,58.5906494 L97.5020074,50.835208 C98.3752677,50.0136187 99.7112554,49.9112961 100.63671,50.62956 C103.463263,52.8385214 107.574612,52.3249027 109.784864,49.5 C111.63477,47.1375547 111.63477,43.8501946 109.784864,41.5389105 C109.065177,40.6139958 109.116368,39.2276265 109.989628,38.4060371 L116.825147,31.5745076 C117.339066,31.0608889 117.339066,30.1881383 116.825147,29.6745196 L89.7932279,2.65837779 L82.1356397,10.3104938 C85.1679603,14.3171206 84.3458914,20.0180874 80.3369245,22.9974768 C77.0988357,25.4110835 72.6793362,25.4110835 69.4422511,22.9974768 L61.7846626,30.6505957 L69.5446332,38.4060371 C70.3667024,39.2787878 70.4700884,40.6139958 69.7504014,41.5389105 C67.5401499,44.3638132 68.0540685,48.4727626 70.880621,50.6817241 C73.244446,52.5305508 76.5337259,52.5305508 78.8975509,50.6817241 C79.2067051,50.3727506 79.7206237,50.1681054 80.2857333,50.1681054 Z" id="Shape"></path>
                    <path d="M72.3711857,118.016932 C67.8483004,118.016932 64.0461055,114.678411 63.3776097,110.209326 L51.3005219,110.209326 C50.5808351,110.209326 50.0157253,109.644547 50.0157253,108.92528 L50.0157253,96.8552409 C45.0311162,96.136977 41.5872591,91.5655702 42.3069459,86.5828673 C42.8720557,82.5772434 46.0067586,79.44437 50.0157253,78.8785872 L50.0157253,66.8085483 C50.0157253,66.0902844 50.5808351,65.5245016 51.3005219,65.5245016 L63.6857602,65.5245016 C64.8169835,65.5245016 65.7926259,66.398255 65.8960116,67.527815 C66.3065445,71.1231457 69.4934421,73.6912391 73.0908725,73.2809459 C76.1231933,72.9208111 78.5382093,70.5583658 78.8463597,67.527815 C78.9497458,66.398255 79.9253882,65.5245016 81.0566112,65.5245016 L92.4652034,65.5245016 C93.6988088,65.5245016 94.7266461,66.5517389 94.7266461,67.7846243 L94.7266461,106.357186 C94.7266461,108.514987 92.9791221,110.261491 90.8210652,110.261491 L81.3647617,110.261491 C80.748461,114.729572 76.8940713,118.016932 72.3711857,118.016932 Z M52.5853185,107.693397 L64.6112151,107.693397 C65.3309021,107.693397 65.8960116,108.258177 65.8960116,108.977444 C65.8960116,112.572775 68.8249465,115.5 72.4223769,115.5 C76.0198073,115.5 78.9497458,112.572775 78.9497458,108.977444 C78.9497458,108.258177 79.5148553,107.693397 80.2345424,107.693397 L90.8722564,107.693397 C91.6431343,107.693397 92.2082441,107.076453 92.2082441,106.357186 L92.2082441,68.092595 L81.4159529,68.092595 C80.6962661,73.0752978 76.1231933,76.5161418 71.1375803,75.7968751 C67.1296173,75.2320952 63.9939107,72.0992218 63.4288009,68.092595 L52.6365096,68.092595 L52.6365096,80.1114726 C52.6365096,80.8307393 52.0713998,81.3955193 51.3517131,81.3955193 C47.7542827,81.3955193 44.8253478,84.3237474 44.8253478,87.9190782 C44.8253478,91.5144089 47.7542827,94.4416342 51.3517131,94.4416342 C52.0713998,94.4416342 52.6365096,95.0064142 52.6365096,95.7256809 L52.5853185,107.693397 Z" id="Shape"></path>
                    <path d="M51.3005219,110.261491 L11.7287874,110.261491 C9.57073079,110.261491 7.82320651,108.514987 7.82320651,106.357186 L7.82320651,96.907405 C2.83759375,96.1881383 -0.6052597,91.6167315 0.114427066,86.6350315 C0.679536874,82.6284047 3.81423983,79.4955313 7.82320651,78.9307513 L7.82320651,66.8607124 C7.82320651,66.1414457 8.38831632,65.5766657 9.10800308,65.5766657 L21.1850909,65.5766657 C21.9047779,60.5939629 26.4778507,57.1531189 31.4634635,57.8723856 C35.4714267,58.4371655 38.6071334,61.5700389 39.1722429,65.5766657 L51.2493307,65.5766657 C51.9690177,65.5766657 52.5341273,66.1414457 52.5341273,66.8607124 L52.5341273,80.1626339 C52.5341273,80.8819006 51.9690177,81.4466806 51.2493307,81.4466806 C47.6519003,81.4466806 44.7219621,84.3749087 44.7219621,87.9702395 C44.7219621,91.5655702 47.6519003,94.4927955 51.2493307,94.4927955 C51.9690177,94.4927955 52.5341273,95.0575755 52.5341273,95.7768422 L52.5341273,109.079767 C52.5853185,109.644547 52.0202087,110.261491 51.3005219,110.261491 Z M10.3927997,68.092595 L10.3927997,80.1114726 C10.3927997,80.8307393 9.82769011,81.3955193 9.10800308,81.3955193 C5.51057268,81.3955193 2.58063443,84.3237474 2.58063443,87.9190782 C2.58063443,91.5144089 5.51057268,94.4416342 9.10800308,94.4416342 C9.82769011,94.4416342 10.3927997,95.0064142 10.3927997,95.7256809 L10.3927997,106.357186 C10.3927997,107.127614 11.0091006,107.693397 11.7287874,107.693397 L50.0157253,107.693397 L50.0157253,96.907405 C45.0311162,96.1881383 41.5872591,91.6167315 42.3069459,86.6350315 C42.8720557,82.6284047 46.0067586,79.4955313 50.0157253,78.9307513 L50.0157253,68.1447591 L37.9898287,68.1447591 C37.2701419,68.1447591 36.7050321,67.5789763 36.7050321,66.8607124 C36.7050321,63.2653817 33.7760973,60.3371535 30.1786669,60.3371535 C26.5812365,60.3371535 23.6512982,63.2653817 23.6512982,66.8607124 C23.6512982,67.5789763 23.0861884,68.1447591 22.3665017,68.1447591 L10.3927997,68.1447591 L10.3927997,68.092595 Z" id="Shape"></path>
                    <path d="M51.3005219,68.092595 L37.9898287,68.092595 C37.2701419,68.092595 36.7050321,67.527815 36.7050321,66.8085483 C36.7050321,63.2132175 33.7760973,60.2859922 30.1786669,60.2859922 C26.5812365,60.2859922 23.6512982,63.2132175 23.6512982,66.8085483 C23.6512982,67.527815 23.0861884,68.092595 22.3665017,68.092595 L9.10800308,68.092595 C8.38831632,68.092595 7.82320651,67.527815 7.82320651,66.8085483 L7.82320651,54.3282161 C7.82320651,53.1976533 8.64527563,52.2737414 9.77549525,52.170416 C13.3729257,51.811284 15.9425188,48.6272494 15.5831771,45.0319186 C15.2750266,41.9502066 12.859007,39.5355971 9.77549525,39.2276265 C8.69646681,39.1253039 7.82320651,38.2003891 7.82320651,37.0708292 L7.82320651,27.2599101 C7.82320651,25.1031128 9.57073079,23.3566088 11.7287874,23.3566088 L50.3238758,23.3566088 C51.5574812,23.3566088 52.5853185,24.3838461 52.5853185,25.6167315 L52.5853185,36.7106944 C57.5699278,37.4299611 61.0137847,42.0013679 60.2940979,46.9830679 C59.7289881,50.9896947 56.5942854,54.1225681 52.5853185,54.6873481 L52.5853185,66.757387 C52.5853185,67.527815 52.0202087,68.092595 51.3005219,68.092595 Z M39.1722429,65.5245016 L49.9645341,65.5245016 L49.9645341,54.4305387 C49.9645341,53.3009788 50.8377944,52.3249027 51.9690177,52.2225801 C55.5664481,51.811284 58.1360413,48.6272494 57.7245048,45.0319186 C57.3651633,42.0013679 55.0003346,39.5867584 51.9690177,39.2787878 C50.8377944,39.1764652 49.9645341,38.2003891 49.9645341,37.0708292 L49.9645341,25.9247022 L11.7287874,25.9247022 C10.9579095,25.9247022 10.3927997,26.5416463 10.3927997,27.2599101 L10.3927997,36.7106944 C15.377409,37.4299611 18.8212661,42.0013679 18.1015791,46.9830679 C17.5364696,50.9896947 14.4007629,54.1225681 10.3927997,54.6873481 L10.3927997,65.4733403 L21.1850909,65.4733403 C21.9047779,60.4916403 26.4778507,57.0497934 31.4634635,57.7690601 C35.4714267,58.3860042 38.6071334,61.5188776 39.1722429,65.5245016 Z" id="Shape"></path>
                </g>
                <path d="M98.1183084,126.954098 C95.8056745,126.49164 94.0581505,124.745136 93.5964267,122.433852 C93.5964267,122.382691 93.5442319,122.33153 93.4930407,122.33153 C93.4418495,122.33153 93.4418495,122.382691 93.3906583,122.433852 C92.9279309,124.745136 91.1804069,126.49164 88.867773,126.954098 C88.8165818,126.954098 88.7653907,127.005259 88.7653907,127.05642 C88.7653907,127.107582 88.8165818,127.107582 88.867773,127.158743 C91.1804069,127.6212 92.9279309,129.367704 93.3906583,131.678988 C93.3906583,131.73015 93.4418495,131.781311 93.4930407,131.781311 C93.5442319,131.781311 93.5442319,131.73015 93.5964267,131.678988 C94.0581505,129.367704 95.8056745,127.6212 98.1183084,127.158743 C98.1694995,127.158743 98.2216944,127.107582 98.2216944,127.05642 C98.1694995,126.954098 98.1183084,126.954098 98.1183084,126.954098 Z" id="Path" fill="#60BAE2"></path>
                <path d="M101.407588,85.7101167 C101.305206,85.7101167 101.253011,85.7101167 101.150629,85.6589554 C101.048247,85.6589554 100.996052,85.6077941 100.89367,85.6077941 C100.791288,85.55563 100.739093,85.55563 100.687901,85.5044687 C100.63671,85.4533074 100.534328,85.4021461 100.482133,85.3509848 C100.430942,85.2988207 100.379751,85.2476594 100.32856,85.1453368 C100.277369,85.0941755 100.225174,84.99085 100.225174,84.9396887 C100.173983,84.8373661 100.173983,84.785202 100.173983,84.6828794 C100.173983,84.5805568 100.122792,84.5283926 100.122792,84.42607 C100.122792,84.0669381 100.277369,83.7579646 100.482133,83.5011553 C100.534328,83.449994 100.585519,83.3988327 100.687901,83.3476714 C100.739093,83.2965101 100.842478,83.2443459 100.89367,83.2443459 C100.996052,83.1931846 101.048247,83.1931846 101.150629,83.1931846 C101.819125,83.0397007 102.537808,83.5011553 102.641194,84.1692607 C102.641194,84.2715833 102.692385,84.3237474 102.692385,84.42607 C102.692385,84.5283926 102.692385,84.5805568 102.641194,84.6828794 C102.641194,84.785202 102.590003,84.8373661 102.590003,84.9396887 C102.537808,85.0420113 102.537808,85.0941755 102.486617,85.1453368 C102.435426,85.1964981 102.384234,85.2988207 102.333043,85.3509848 C102.076084,85.55563 101.76693,85.7101167 101.407588,85.7101167 Z" id="Path" fill="#60BAE2"></path>
                <path d="M37.4247189,20.7373541 C35.1120851,20.2748967 33.364561,18.5283926 32.9018336,16.2171086 C32.9018336,16.1659473 32.8506424,16.114786 32.7994512,16.114786 C32.74826,16.114786 32.74826,16.1659473 32.6970691,16.2171086 C32.2343414,18.5283926 30.4868174,20.2748967 28.1741836,20.7373541 C28.1229924,20.7373541 28.0718015,20.7885154 28.0718015,20.8396767 C28.0718015,20.8918408 28.1229924,20.8918408 28.1741836,20.9430021 C30.4868174,21.4054595 32.2343414,23.1509607 32.6970691,25.4622448 C32.6970691,25.5144089 32.74826,25.5655702 32.7994512,25.5655702 C32.8506424,25.5655702 32.8506424,25.5144089 32.9018336,25.4622448 C33.364561,23.1509607 35.1120851,21.4054595 37.4247189,20.9430021 C37.4759101,20.9430021 37.5271012,20.8918408 37.5271012,20.8396767 C37.5271012,20.7885154 37.4759101,20.7373541 37.4247189,20.7373541 Z" id="Path" fill="#60BAE2"></path>
                <path d="M64.3542558,11.6978659 L59.8825616,11.6978659 C59.1638785,11.6978659 58.5977651,11.133086 58.5977651,10.4138192 C58.5977651,9.69455253 59.1638785,9.12977255 59.8825616,9.12977255 L64.3542558,9.12977255 C65.0739428,9.12977255 65.6390523,9.69455253 65.6390523,10.4138192 C65.6390523,11.133086 65.0739428,11.6978659 64.3542558,11.6978659 Z" id="Path" fill="#6DCC6D"></path>
                <path d="M62.0928131,13.9058245 C61.3731263,13.9058245 60.8080165,13.3410446 60.8080165,12.6217779 L60.8080165,8.1536965 C60.8080165,7.43442978 61.3731263,6.86964981 62.0928131,6.86964981 C62.8124999,6.86964981 63.3776097,7.43442978 63.3776097,8.1536965 L63.3776097,12.6217779 C63.3776097,13.3410446 62.8124999,13.9058245 62.0928131,13.9058245 Z" id="Path" fill="#6DCC6D"></path>
                <path d="M70.4700884,2.81186169 C70.3667024,2.81186169 70.3155112,2.81186169 70.2131291,2.76070039 C70.109743,2.76070039 70.0585519,2.70953909 69.9561698,2.70953909 C69.8527837,2.65837779 69.8015925,2.65837779 69.7504014,2.60621365 C69.5958244,2.50389105 69.4934421,2.40156845 69.3900563,2.24708171 C69.3388651,2.19592041 69.2876739,2.09259497 69.2876739,2.04143367 C69.2364827,1.93911107 69.2364827,1.88794977 69.2364827,1.78462433 C69.1852918,1.63114044 69.1852918,1.4254924 69.2364827,1.27100566 C69.2364827,1.16868306 69.2876739,1.11752176 69.2876739,1.01419632 C69.3388651,0.91187372 69.3388651,0.86071242 69.3900563,0.80854828 C69.4422511,0.757386981 69.4934421,0.655064381 69.5446332,0.603903082 C69.5958244,0.551738942 69.6470156,0.500577642 69.7504014,0.449416342 C69.8015925,0.398255043 69.9039749,0.347093743 69.9561698,0.347093743 C70.0585519,0.294929603 70.109743,0.294929603 70.2131291,0.294929603 C70.3667024,0.243768252 70.5724705,0.243768252 70.7270477,0.294929603 C70.8294298,0.294929603 70.880621,0.347093743 70.984007,0.347093743 C71.0863891,0.398255043 71.1375803,0.398255043 71.1887715,0.449416342 C71.2409663,0.500577642 71.3433484,0.551738942 71.3945396,0.603903082 C71.4457308,0.655064381 71.4979257,0.706225681 71.5491166,0.80854828 C71.6003078,0.86071242 71.6514989,0.963035019 71.6514989,1.01419632 C71.7026901,1.11752176 71.7026901,1.16868306 71.7026901,1.27100566 C71.7026901,1.3743311 71.7026901,1.4254924 71.754885,1.527815 C71.754885,1.63114044 71.754885,1.68230174 71.7026901,1.78462433 C71.7026901,1.88794977 71.6514989,1.93911107 71.6514989,2.04143367 C71.6003078,2.14475911 71.6003078,2.19592041 71.5491166,2.24708171 C71.4979257,2.29824301 71.4457308,2.40156845 71.3945396,2.45272975 C71.3433484,2.50389105 71.2921573,2.55505235 71.1887715,2.60621365 C71.1375803,2.65837779 71.0351979,2.70953909 70.984007,2.70953909 C70.880621,2.76070039 70.8294298,2.76070039 70.7270477,2.76070039 C70.6236617,2.81186169 70.5724705,2.81186169 70.4700884,2.81186169 Z" id="Path" fill="#FFCD29"></path>
                <path d="M109.732669,114.113631 L105.261978,114.113631 C104.542291,114.113631 103.977181,113.547848 103.977181,112.829584 C103.977181,112.110317 104.542291,111.545537 105.261978,111.545537 L109.732669,111.545537 C110.452355,111.545537 111.017465,112.110317 111.017465,112.829584 C111.017465,113.547848 110.452355,114.113631 109.732669,114.113631 Z" id="Path" fill="#FFCD29"></path>
                <path d="M107.523421,116.372751 C106.803734,116.372751 106.238624,115.807971 106.238624,115.088704 L106.238624,110.620623 C106.238624,109.901356 106.803734,109.336576 107.523421,109.336576 C108.243108,109.336576 108.808217,109.901356 108.808217,110.620623 L108.808217,115.088704 C108.808217,115.756809 108.190913,116.372751 107.523421,116.372751 Z" id="Path" fill="#FFCD29"></path>
                <path d="M115.848501,105.227626 C115.437968,105.227626 115.026432,105.021978 114.769473,104.662846 C114.718281,104.611685 114.667091,104.50836 114.667091,104.457198 C114.614896,104.406037 114.614896,104.302712 114.614896,104.200389 C114.614896,104.098067 114.614896,104.045902 114.563704,103.94358 C114.563704,103.224313 115.128814,102.659533 115.848501,102.659533 L116.10546,102.659533 C116.208846,102.659533 116.260037,102.710694 116.36242,102.710694 C116.413611,102.761856 116.516997,102.761856 116.568188,102.81402 C116.619379,102.865181 116.722765,102.916342 116.773956,102.967504 C117.030915,103.224313 117.133298,103.532284 117.133298,103.892418 L117.133298,104.149228 C117.133298,104.25155 117.082106,104.302712 117.082106,104.406037 C117.030915,104.50836 117.030915,104.559521 116.979724,104.611685 C116.92753,104.662846 116.876338,104.765169 116.825147,104.81633 C116.773956,104.868495 116.722765,104.919656 116.619379,104.970817 C116.568188,105.021978 116.465806,105.07314 116.413611,105.07314 C116.311229,105.125304 116.260037,105.125304 116.156652,105.125304 C116.054269,105.227626 115.951887,105.227626 115.848501,105.227626 Z" id="Path" fill="#F75C64"></path>
            </g>
        </g>
    </g>
</svg>