<?xml version="1.0" encoding="UTF-8"?>
<svg width="165px" height="165px" viewBox="0 0 165 165" version="1.1" xmlns="http://www.w3.org/2000/svg" xmlns:xlink="http://www.w3.org/1999/xlink">
    <!-- Generator: Sketch 52.4 (67378) - http://www.bohemiancoding.com/sketch -->
    <title>video-conference copy</title>
    <desc>Created with Sketch.</desc>
    <g id="Elementos" stroke="none" stroke-width="1" fill="none" fill-rule="evenodd">
        <g id="Amazon/Servicios" transform="translate(-69.000000, -1097.000000)" fill-rule="nonzero">
            <g id="video-conference-copy" transform="translate(69.000000, 1097.000000)">
                <path d="M51,112.56053 C51,106.201988 45.7858611,101 39.4124661,101 L36.1295829,101 C33.8764513,101 31.7515673,102.219275 30.6576919,104.14603 C29.3060644,103.311855 27.6325608,103.054704 26.0873049,103.375829 C23.0609169,104.018081 20.9372899,106.715036 21.0014137,109.798346 L21.0014137,112.816427 C21.0014137,116.284837 21.5810418,119.753246 22.739041,123.028479 L23.0609169,123.927882 C24.542049,128.038543 27.8890561,131.185827 32.0734433,132.405102 L32.3311954,132.47033 C34.7779553,133.176557 37.2888391,133.176557 39.7343421,132.47033 L39.9279704,132.405102 C44.1764814,131.185827 47.5234885,128.038543 48.9404967,123.863908 L49.3264965,122.707353 C50.4203719,119.368146 51,115.963711 51,112.56053 Z" id="Path" fill="#6D6C6B"></path>
                <path d="M97,112.56053 C97,106.201988 91.7848226,101 85.4129513,101 L82.1289487,101 C79.8759114,101 77.7523733,102.219275 76.6572868,104.14603 C75.3057158,103.311855 73.6322823,103.054704 72.0870911,103.375829 C69.0620867,104.018081 66.9372917,106.715036 67.0014128,109.798346 L67.0014128,112.816427 C67.0014128,116.284837 67.5810166,119.753246 68.7402243,123.028479 L69.0620867,123.927882 C70.5418999,128.038543 73.8900237,131.185827 78.0742357,132.405102 L78.3319771,132.47033 C80.7773777,133.176557 83.2881563,133.176557 85.7348137,132.47033 L85.9271771,132.405102 C90.1755103,131.185827 93.523634,128.038543 94.9393261,123.863908 L95.3253097,122.707353 C96.4203962,119.368146 97,115.963711 97,112.56053 Z" id="Path" fill="#6D6C6B"></path>
                <path d="M144,112.56053 C144,106.201988 138.785871,101 132.412487,101 L129.12961,101 C126.876482,101 124.751602,102.219275 123.657729,104.14603 C122.304847,103.311855 120.631346,103.054704 119.086093,103.375829 C116.060968,104.018081 113.936087,106.715036 114.001468,109.798346 L114.001468,112.816427 C114.001468,116.284837 114.579838,119.753246 115.739092,123.028479 L116.060968,123.927882 C117.542097,128.038543 120.889098,131.185827 125.073478,132.405102 L125.331229,132.47033 C127.776728,133.176557 130.287607,133.176557 132.734362,132.47033 L132.926734,132.405102 C137.111113,131.185827 140.523495,128.038543 141.939244,123.863908 L142.3265,122.707353 C143.420373,119.368146 144,115.963711 144,112.56053 Z" id="Path" fill="#6D6C6B"></path>
                <path d="M58.2337142,147.911237 C58.1066227,145.960038 56.7671795,144.267983 54.9168791,143.813211 L46.3045714,141.601598 L41.0738902,139 L30.8019193,139 L25.6347838,141.601598 L17.0224761,143.813211 C15.1721757,144.267983 13.8327326,145.960038 13.705641,147.911237 L13.0041466,161.244429 C12.9393552,162.153973 13.6420953,162.935214 14.534227,163 L14.5990184,163 L57.4051282,163 C58.2985055,163 59,162.284814 59,161.374001 L59,161.309215 L58.2337142,147.911237 Z" id="Path" fill="#E9E9EA"></path>
                <path d="M105.171411,147.911237 C105.043074,145.960038 103.703626,144.267983 101.85332,143.813211 L93.2409852,141.601598 L88.0738333,139 L77.8030755,139 L72.6359236,141.601598 L64.0235886,143.813211 C62.1732824,144.267983 60.8338349,145.960038 60.7054974,147.911237 L60.0040007,161.244429 C59.9404548,162.153973 60.6419515,162.935214 61.5353316,163 L61.5988776,163 L104.405123,163 C105.298503,163 106,162.284814 106,161.374001 L106,161.309215 L105.171411,147.911237 Z" id="Path" fill="#E9E9EA"></path>
                <path d="M151.234957,147.911237 C151.107865,145.960038 149.767172,144.267983 147.918112,143.813211 L139.305777,141.601598 L134.137379,139 L123.866621,139 L118.69947,141.601598 L110.023589,143.813211 C108.173282,144.267983 106.833835,145.960038 106.705497,147.911237 L106.004001,161.244429 C105.940455,162.153973 106.641951,162.935214 107.535332,163 L107.598878,163 L150.405123,163 C151.298503,163 152,162.284814 152,161.374001 L152,161.309215 L151.234957,147.911237 Z" id="Path" fill="#E9E9EA"></path>
                <path d="M39.6025926,132.062462 L39.4091143,132.12472 C36.9642513,132.813225 34.45657,132.813225 32.0117069,132.12472 L31.7541546,132.062462 C29.0529951,131.312919 26.7375362,129.812614 25,127.687284 C25.6432528,130.43764 27.380789,132.749746 29.8243961,134.312309 C30.5317231,134.750559 30.9186795,135.500102 30.9186795,136.313123 L30.9186795,139 L41.2747987,139 C41.2747987,139 41.2747987,137.437436 41.2747987,136.250864 C41.2747987,135.500102 41.6604992,134.750559 42.303752,134.312309 C44.8126892,132.56297 46.4848954,129.937131 47,127 C45.1983897,129.437843 42.5613044,131.187182 39.6025926,132.062462 Z" id="Path" fill="#F9D0B4"></path>
                <path d="M49.9495712,117 C49.4698135,120.128233 48.5089583,123.130604 47,125.946014 L48.2342369,125.946014 C50.9787718,126.322379 53.5182704,124.69472 53.9296827,122.192134 C53.9980281,121.942853 53.9980281,121.75467 53.9980281,121.504167 C54.0663736,119.314404 52.3510392,117.437464 49.9495712,117 Z" id="Path" fill="#F9D0B4"></path>
                <path d="M21.0495977,117 C18.7158177,117.437 17,119.311949 17,121.49939 C17.0683647,123.999322 19.33378,126 22.0790883,126 C22.352547,126 22.5589812,126 22.83378,125.936525 L24,125.936525 C22.4906165,123.124102 21.4611259,120.124915 21.0495977,117 Z" id="Path" fill="#F9D0B4"></path>
                <path d="M85.6877299,132.062462 L85.4931069,132.12472 C83.0350414,132.813225 80.5112594,132.813225 78.0519305,132.12472 L77.7941176,132.062462 C75.0757126,131.312919 72.7465535,129.812614 71,127.687284 C71.6470588,130.43764 73.3936123,132.749746 75.8529412,134.312309 C76.5644532,134.750559 76.9524358,135.500102 76.9524358,136.313123 L76.9524358,139 L87.2409238,139 C87.2409238,139 87.2409238,137.437436 87.2409238,136.250864 C87.2409238,135.500102 87.6289064,134.750559 88.2759652,134.312309 C90.7997473,132.56297 92.4818476,129.937131 93,127 C91.2521831,129.437843 88.6639479,131.187182 85.6877299,132.062462 Z" id="Path" fill="#F9D0B4"></path>
                <path d="M97.0192561,117 C96.5381587,120.128233 95.5773036,123.130604 94,125.946014 L95.2342368,125.946014 C97.9787715,126.322379 100.51827,124.69472 100.929682,122.192134 C100.998028,121.942853 100.998028,121.75467 100.998028,121.504167 C101.066373,119.314404 99.3510389,117.437464 97.0192561,117 Z" id="Path" fill="#F9D0B4"></path>
                <path d="M67.0488226,117 C64.7154892,117.437 63,119.311949 63,121.49939 C63.0683516,123.999322 65.3333333,126 68.0781161,126 C68.3528624,126 68.5579172,126 68.8326634,125.936525 L70,125.936525 C68.421214,123.124102 67.460272,120.124915 67.0488226,117 Z" id="Path" fill="#F9D0B4"></path>
                <path d="M132.60217,132.062462 L132.409937,132.12472 C129.964934,132.813225 127.455854,132.813225 125.012107,132.12472 L124.75454,132.062462 C122.051971,131.312919 119.736379,129.812614 118,127.687284 C118.64329,130.43764 120.379669,132.749746 122.824672,134.312309 C123.532039,134.750559 123.917761,135.500102 123.917761,136.313123 L123.917761,139 L134.274472,139 C134.274472,139 134.274472,137.437436 134.274472,136.250864 C134.274472,135.500102 134.66145,134.750559 135.30474,134.312309 C137.812564,132.56297 139.486122,129.937131 140,127 C138.134209,129.437843 135.561051,131.187182 132.60217,132.062462 Z" id="Path" fill="#F9D0B4"></path>
                <path d="M143.019188,117 C142.538102,120.128233 141.578608,123.130604 140,125.946014 L141.235549,125.946014 C143.980022,126.322379 146.518123,124.69472 146.929526,122.192134 C146.99787,121.942853 146.99787,121.75467 146.99787,121.504167 C147.067554,119.314404 145.420602,117.437464 143.019188,117 Z" id="Path" fill="#F9D0B4"></path>
                <path d="M114.048823,117 C111.715489,117.437 110,119.311949 110,121.49939 C110.069691,123.999322 112.333333,126 115.078116,126 C115.352862,126 115.559257,126 115.832663,125.936525 L117,125.936525 C115.489566,123.124102 114.460272,120.124915 114.048823,117 Z" id="Path" fill="#F9D0B4"></path>
                <path d="M13.8649556,2 L151.135044,2 C153.261273,2 155,3.70600305 155,5.78947368 L155,10.2105263 C155,12.2952301 153.261273,14 151.135044,14 L13.8649556,14 C11.7387269,14 10,12.2952301 10,10.2105263 L10,5.78947368 C10,3.70600305 11.7387269,2 13.8649556,2 Z" id="Path" fill="#E9E9EA"></path>
                <path d="M18.7823278,106 L21.4959741,106 C23.3059127,103.044968 27.2476415,102.081289 30.2200307,103.879404 C31.3837429,101.952045 33.4511627,100.731134 35.7129552,100.731134 L39.0084576,100.731134 C42.9501863,100.731134 46.5700637,102.723741 48.7662241,106 L68.0886462,106 C69.8985849,103.044968 73.8403137,102.081289 76.8127028,103.879404 C77.9764151,101.952045 80.0438349,100.731134 82.3056274,100.731134 L85.6011297,100.731134 C89.5441203,100.731134 93.1627358,102.723741 95.360158,106 L114.681318,106 C116.491257,103.044968 120.432986,102.081289 123.405375,103.879404 C124.569087,101.952045 126.636507,100.731134 128.8983,100.731134 L132.195064,100.731134 C136.136792,100.731134 139.755408,102.723741 141.95283,106 L146.217672,106 C148.866948,106 151,103.879404 151,101.245598 L151,14 L14,14 L14,101.245598 C14,103.879404 16.1317901,106 18.7823278,106 Z" id="Path" fill="#60BAE2"></path>
                <polygon id="Path" fill="#CAECFC" points="21 14 144 14 144 99 21 99"></polygon>
                <path d="M164.868804,115.870064 C161.934084,115.282802 159.717758,113.064968 159.130559,110.129936 C159.130559,110.064968 159.065598,110 158.999363,110 C158.934402,110 158.934402,110.064968 158.869441,110.129936 C158.282242,113.064968 156.064643,115.282802 153.129923,115.870064 C153.064961,115.870064 153,115.935032 153,116 C153,116.064968 153.064961,116.064968 153.129923,116.129936 C156.064643,116.717198 158.282242,118.935032 158.869441,121.870064 C158.869441,121.935032 158.934402,122 158.999363,122 C159.065598,122 159.065598,121.935032 159.130559,121.870064 C159.717758,118.935032 161.934084,116.717198 164.868804,116.129936 C164.935039,116.129936 165,116.064968 165,116 C165,115.870064 164.935039,115.870064 164.868804,115.870064 Z" id="Path" fill="#F75C64"></path>
                <path d="M12.3575706,135 L6.6424294,135 C5.72241239,135 5,134.340234 5,133.5 C5,132.659766 5.72241239,132 6.6424294,132 L12.3575706,132 C13.2775876,132 14,132.659766 14,133.5 C14,134.340234 13.2775876,135 12.3575706,135 Z" id="Path" fill="#60BAE2"></path>
                <path d="M9.5,138 C8.6597657,138 8,137.277691 8,136.357805 L8,130.642195 C8,129.723592 8.6597657,129 9.5,129 C10.3402343,129 11,129.723592 11,130.642195 L11,136.357805 C11,137.210977 10.3402343,138 9.5,138 Z" id="Path" fill="#60BAE2"></path>
                <path d="M1.46950973,110 C1.89756888,110 2.26464748,110.180301 2.57074554,110.420313 C2.6329214,110.480023 2.69390195,110.539733 2.75488249,110.660324 C2.81586304,110.720035 2.87684359,110.839455 2.87684359,110.899165 C2.93901945,111.019756 2.93901945,111.079467 2.93901945,111.198887 C2.93901945,111.319478 3,111.379189 3,111.498609 C3,111.6192 3,111.67891 2.93901945,111.798331 C2.93901945,111.918922 2.87684359,111.978632 2.87684359,112.098053 C2.81586304,112.218644 2.81586304,112.278354 2.75488249,112.338064 C2.69390195,112.397775 2.6329214,112.518366 2.57074554,112.578076 C2.14268638,112.997218 1.46950973,113.117809 0.918294165,112.877798 C0.857313616,112.818087 0.734157206,112.818087 0.673176658,112.758377 C0.61219611,112.697496 0.490235013,112.637786 0.428059152,112.578076 C0.367078603,112.518366 0.306098055,112.458655 0.245117506,112.338064 C0.184136958,112.278354 0.121961097,112.158933 0.121961097,112.098053 C0.0609805484,112.038343 0.0609805484,111.918922 0.0609805484,111.798331 C0.0609805484,111.67891 0.0609805484,111.6192 0,111.498609 C0,111.379189 0,111.319478 0.0609805484,111.198887 C0.0609805484,111.079467 0.121961097,111.019756 0.121961097,110.899165 C0.184136958,110.779745 0.184136958,110.720035 0.245117506,110.660324 C0.306098055,110.599444 0.367078603,110.480023 0.428059152,110.420313 C0.490235013,110.360603 0.551215561,110.299722 0.673176658,110.240012 C0.734157206,110.180301 0.857313616,110.120591 0.918294165,110.120591 C1.04025526,110.060881 1.10243112,110.060881 1.22439222,110.060881 C1.28537277,110.060881 1.34635332,110 1.46950973,110 Z" id="Path" fill="#6DCC6D"></path>
                <path d="M152.46951,132 C152.898764,132 153.265843,132.180333 153.571941,132.419215 C153.632921,132.480106 153.693902,132.539827 153.754882,132.659268 C153.817058,132.718989 153.878039,132.839601 153.878039,132.899321 C153.939019,133.018763 153.939019,133.079654 153.939019,133.199095 C153.939019,133.318536 154,133.379428 154,133.498869 C154,133.61831 154,133.679201 153.939019,133.798643 C153.939019,133.918084 153.878039,133.978975 153.878039,134.098416 C153.817058,134.217858 153.817058,134.278749 153.754882,134.33847 C153.693902,134.39819 153.632921,134.517631 153.571941,134.578523 C153.142686,134.997738 152.46951,135.117179 151.918294,134.878296 C151.857314,134.817405 151.735353,134.817405 151.674372,134.757685 C151.612196,134.697964 151.490235,134.638243 151.429254,134.578523 C151.368274,134.517631 151.306098,134.457911 151.245118,134.33847 C151.184137,134.278749 151.123156,134.158137 151.123156,134.098416 C151.062176,134.038696 151.062176,133.918084 151.062176,133.798643 C151.062176,133.679201 151.062176,133.61831 151,133.498869 C151,133.379428 151,133.318536 151.062176,133.199095 C151.062176,133.079654 151.123156,133.018763 151.123156,132.899321 C151.184137,132.77988 151.184137,132.718989 151.245118,132.659268 C151.306098,132.599548 151.368274,132.480106 151.429254,132.419215 C151.490235,132.359494 151.551216,132.299774 151.674372,132.240053 C151.735353,132.180333 151.857314,132.119441 151.918294,132.119441 C152.041451,132.059721 152.102431,132.059721 152.224392,132.059721 C152.286568,132 152.347549,132 152.46951,132 Z" id="Path" fill="#FCD770"></path>
                <g id="Group" transform="translate(8.000000, 0.000000)" fill="#231F20">
                    <path d="M136.135973,100.933342 L13.0571958,100.933342 C12.1532164,100.933342 11.4411437,100.224609 11.4411437,99.3220139 L11.4411437,13.9858247 C11.4411437,13.0844878 12.1532164,12.3744966 13.0571958,12.3744966 L136.135973,12.3744966 C137.041215,12.3744966 137.752025,13.0844878 137.752025,13.9858247 L137.752025,99.3220139 C137.752025,100.224609 137.041215,100.933342 136.135973,100.933342 Z M14.6732479,97.7106858 L134.519921,97.7106858 L134.519921,15.5971529 L14.6732479,15.5971529 L14.6732479,97.7106858 Z" id="Shape"></path>
                    <path d="M143.441033,15.5971529 L5.75339776,15.5971529 C2.71446261,15.5971529 0.258820757,13.1486892 0.258820757,10.1186372 L0.258820757,5.6069185 C0.258820757,2.578125 2.71446261,0.128402871 5.75339776,0.128402871 L143.505423,0.128402871 C146.543096,0.128402871 149,2.578125 149,5.6069185 L149,10.1186372 C148.93561,13.1486892 146.478706,15.5971529 143.441033,15.5971529 Z M5.75339776,3.35105912 C4.52494577,3.35105912 3.49092488,4.38331588 3.49092488,5.6069185 L3.49092488,10.1186372 C3.49092488,11.3434983 4.52494577,12.3744966 5.75339776,12.3744966 L143.505423,12.3744966 C144.733875,12.3744966 145.767896,11.3434983 145.767896,10.1186372 L145.767896,5.6069185 C145.767896,4.38331588 144.733875,3.35105912 143.505423,3.35105912 L5.75339776,3.35105912 Z" id="Shape"></path>
                    <path d="M41.1765017,165 C40.2725222,165 39.5604496,164.291267 39.5604496,163.388672 L39.5604496,157.007561 C39.5604496,156.104965 40.2725222,155.396233 41.1765017,155.396233 C42.0817432,155.396233 42.7925537,156.104965 42.7925537,157.007561 L42.7925537,163.388672 C42.7925537,164.291267 42.0173536,165 41.1765017,165 Z" id="Path"></path>
                    <path d="M14.4800789,165 C13.5748373,165 12.8640268,164.291267 12.8640268,163.388672 L12.8640268,157.007561 C12.8640268,156.104965 13.5748373,155.396233 14.4800789,155.396233 C15.3853205,155.396233 16.096131,156.104965 16.096131,157.007561 L16.096131,163.388672 C16.096131,164.291267 15.3196687,165 14.4800789,165 Z" id="Path"></path>
                    <path d="M49.6456242,165 L6.26977714,165 C4.46055611,165 3.03767302,163.582535 3.03767302,161.777344 C3.03767302,161.713142 3.03767302,161.648941 3.03767302,161.583481 L3.74974564,148.37059 C3.87852495,145.728264 5.75339776,143.472405 8.33908106,142.827873 L16.9357207,140.701675 L22.0426977,138.187752 C22.2371288,138.05809 22.4959495,137.993889 22.7535082,137.993889 L33.1618931,137.993889 C33.4194518,137.993889 33.6782725,138.05809 33.8727036,138.187752 L38.9796806,140.701675 L47.5763202,142.827873 C50.1620035,143.472405 52.0368764,145.728264 52.1656557,148.37059 L52.8777283,161.583481 C53.0065076,163.388672 51.5848866,164.871597 49.8387931,165 C49.7744035,165 49.7100138,165 49.6456242,165 Z M23.1423704,141.216545 L18.2285624,143.666267 C18.0997831,143.730469 18.0353934,143.730469 17.905352,143.79467 L9.17867085,145.986328 C7.95148099,146.308594 7.11062907,147.339592 7.04623941,148.564453 L6.33542893,161.777344 L49.7100138,161.777344 L48.9992033,148.564453 C48.9335515,147.339592 48.0939618,146.308594 46.8655098,145.986328 L38.1388286,143.79467 C38.0100493,143.79467 37.9443975,143.730469 37.8156182,143.666267 L32.9030724,141.216545 L23.1423704,141.216545 Z" id="Shape"></path>
                    <path d="M33.1618931,141.216545 L22.7535082,141.216545 C21.8495287,141.216545 21.1374561,140.507812 21.1374561,139.605217 L21.1374561,136.834488 C21.1374561,136.576424 21.0086768,136.318359 20.749856,136.124497 C17.9710038,134.320564 16.0317413,131.548576 15.255279,128.32592 C15.0621101,127.488785 15.5784894,126.586189 16.483731,126.392326 C17.0657622,126.263924 17.712183,126.456528 18.0997831,126.972656 C19.6514455,128.90625 21.7194873,130.259514 24.1120016,130.968247 L24.3695602,131.033707 C26.5032538,131.612778 28.7657267,131.612778 30.8994203,131.033707 L31.0925892,130.968247 C33.7426622,130.195312 36.0051351,128.583984 37.5567975,126.328125 C38.074439,125.619392 39.0440702,125.42553 39.8192703,125.941658 C40.3369119,126.328125 40.5957326,126.908455 40.4656912,127.552986 C39.88366,131.033707 37.9443975,134.126701 35.1011556,136.124497 C34.9067245,136.254158 34.7779452,136.512222 34.7779452,136.834488 L34.7779452,139.669418 C34.7779452,140.507812 34.0658726,141.216545 33.1618931,141.216545 Z M24.3695602,137.993889 L31.5458411,137.993889 L31.5458411,136.769028 C31.5458411,135.609627 32.0622205,134.513168 32.9030724,133.740234 C32.579862,133.868637 32.3210412,133.934097 31.9978308,134.0625 L31.8033997,134.126701 C29.0889371,134.900894 26.1800434,134.900894 23.4655808,134.126701 L23.2711497,134.0625 C23.9819602,134.835434 24.435212,135.802231 24.435212,136.898689 L24.3695602,137.993889 Z" id="Shape"></path>
                    <path d="M27.6016643,134.707031 C26.1800434,134.707031 24.8228121,134.513168 23.4655808,134.126701 L23.20676,134.0625 C18.4873831,132.709236 14.7388996,129.164314 13.0571958,124.522934 L12.7339854,123.621597 C11.5067955,120.140877 10.8603747,116.531753 10.8603747,112.85717 L10.8603747,109.828377 C10.8603747,105.961189 13.5104477,102.608872 17.2589312,101.835937 C18.7462039,101.513672 20.2334767,101.642075 21.6550976,102.158203 C23.20676,100.418472 25.4048432,99.4516753 27.6673161,99.4516753 L30.9638099,99.4516753 C38.2676079,99.4516753 44.2154368,105.380859 44.2154368,112.664566 C44.2154368,116.273689 43.6334056,119.882812 42.4049536,123.299332 L42.0173536,124.458733 C40.4013015,129.100113 36.5871662,132.645035 31.8690515,133.998299 L31.6746204,134.0625 C30.4461684,134.513168 29.0245474,134.707031 27.6016643,134.707031 Z M19.0050247,104.864731 C16.3549517,104.864731 14.1568685,106.992187 14.1568685,109.698715 L14.1568685,109.828377 L14.1568685,112.85717 C14.1568685,116.144028 14.7388996,119.432144 15.8373102,122.58934 L16.1605206,123.491936 C17.4533623,127.101059 20.4266456,129.937248 24.1120016,130.968247 L24.3695602,131.033707 C26.5032538,131.612778 28.7657267,131.612778 30.8994203,131.033707 L31.0925892,130.968247 C34.8423349,129.873047 37.8156182,127.101059 39.0440702,123.427734 L39.4316703,122.267075 C40.5300808,119.17408 41.0477223,115.951424 41.0477223,112.664566 C41.0477223,107.12059 36.5871662,102.674332 31.0281996,102.674332 L27.7317058,102.674332 C26.0512641,102.674332 24.435212,103.575668 23.5943601,105.058594 C23.1423704,105.831528 22.1727391,106.089592 21.3962769,105.638924 C20.6854664,105.122795 19.8446145,104.864731 19.0050247,104.864731 Z" id="Shape"></path>
                    <path d="M41.5653639,127.81105 C41.2421534,127.81105 40.9833327,127.81105 40.6601223,127.74559 L39.6261014,127.74559 C38.7208598,127.74559 38.0100493,127.036858 38.0100493,126.134262 C38.0100493,125.877457 38.074439,125.555191 38.2032183,125.361328 C39.5604496,122.6548 40.4013015,119.68895 40.8532912,116.724358 C40.9833327,115.821762 41.8229225,115.242691 42.6637744,115.371094 L42.7281641,115.371094 C45.7014474,115.951424 47.835141,118.59375 47.835141,121.622543 C47.835141,125.039062 44.9906369,127.81105 41.5653639,127.81105 Z M43.6334056,119.302483 C43.2458056,121.107674 42.7281641,122.847405 42.0817432,124.588394 C42.5993847,124.522934 43.1157641,124.266128 43.5046263,123.943863 C44.797468,122.847405 44.9906369,120.913811 43.8922264,119.624748 C43.8278367,119.496345 43.762185,119.366684 43.6334056,119.302483 Z" id="Shape"></path>
                    <path d="M13.7036166,127.81105 C10.2139539,127.81105 7.36944982,124.974861 7.36944982,121.494141 C7.36944982,118.465347 9.50188126,115.887222 12.4764268,115.306892 C13.3804062,115.11303 14.2212581,115.693359 14.4156892,116.531753 L14.4156892,116.660156 C14.8032893,119.68895 15.6428791,122.58934 17.0013725,125.297127 C17.4533623,126.070061 17.1945415,127.036858 16.4193414,127.488785 C16.1605206,127.617188 15.9016999,127.681389 15.6428791,127.681389 L14.6732479,127.681389 C14.2856478,127.81105 14.026827,127.81105 13.7036166,127.81105 Z M11.5711852,119.302483 C10.3427332,120.463142 10.2783435,122.396736 11.5067955,123.621597 C11.5711852,123.685799 11.6999645,123.814201 11.7643541,123.878403 C12.1532164,124.200668 12.6052061,124.458733 13.1228476,124.522934 C12.4764268,122.847405 11.9587852,121.107674 11.5711852,119.302483 Z" id="Shape"></path>
                    <path d="M87.7844528,165 C86.8792112,165 86.1684007,164.291267 86.1684007,163.388672 L86.1684007,157.007561 C86.1684007,156.104965 86.8792112,155.396233 87.7844528,155.396233 C88.6884322,155.396233 89.4005049,156.104965 89.4005049,157.007561 L89.4005049,163.388672 C89.4005049,164.291267 88.6884322,165 87.7844528,165 Z" id="Path"></path>
                    <path d="M61.0867679,165 C60.1815263,165 59.4707158,164.291267 59.4707158,163.388672 L59.4707158,157.007561 C59.4707158,156.104965 60.1815263,155.396233 61.0867679,155.396233 C61.9920095,155.396233 62.70282,156.104965 62.70282,157.007561 L62.70282,163.388672 C62.70282,164.291267 61.9920095,165 61.0867679,165 Z" id="Path"></path>
                    <path d="M96.2523132,165 L52.9421179,165 C51.1316348,165 49.7100138,163.582535 49.7100138,161.777344 C49.7100138,161.713142 49.7100138,161.648941 49.7100138,161.583481 L50.4208243,148.37059 C50.5496036,145.728264 52.4244764,143.472405 55.0101597,142.827873 L63.6080615,140.701675 L68.7150385,138.187752 C68.9082074,138.05809 69.1670282,137.993889 69.425849,137.993889 L79.7685821,137.993889 C80.0274029,137.993889 80.2849615,138.05809 80.4793926,138.187752 L85.5863696,140.701675 L94.1830092,142.827873 C96.7686925,143.472405 98.6435654,145.728264 98.7736068,148.37059 L99.4844173,161.583481 C99.6131966,163.388672 98.1915756,164.871597 96.4454821,165 C96.3810925,165 96.3167028,165 96.2523132,165 Z M69.7490594,141.216545 L64.8365135,143.666267 C64.7064721,143.730469 64.6420824,143.730469 64.5133031,143.79467 L55.786622,145.986328 C54.55817,146.308594 53.7173181,147.339592 53.6529284,148.564453 L52.9421179,161.777344 L96.3167028,161.777344 L95.6058923,148.564453 C95.5415027,147.339592 94.7006508,146.308594 93.4721988,145.986328 L84.7455176,143.79467 C84.6167383,143.79467 84.5523487,143.730469 84.4223072,143.666267 L79.5097614,141.216545 L69.7490594,141.216545 Z" id="Shape"></path>
                    <path d="M79.7685821,141.216545 L69.425849,141.216545 C68.5206074,141.216545 67.8097969,140.507812 67.8097969,139.605217 L67.8097969,136.834488 C67.8097969,136.576424 67.6797554,136.318359 67.4221968,136.124497 C64.6420824,134.320564 62.70282,131.548576 61.9276198,128.32592 C61.7331887,127.488785 62.2508302,126.586189 63.1548097,126.392326 C63.7368408,126.263924 64.3832617,126.456528 64.7708617,126.972656 C66.3225241,128.90625 68.3918281,130.259514 70.7830803,130.968247 L71.041901,131.033707 C73.1743325,131.612778 75.4368053,131.612778 77.5704989,131.033707 L77.76493,130.968247 C80.415003,130.195312 82.6774759,128.583984 84.2291383,126.328125 C84.7455176,125.619392 85.7151489,125.42553 86.4916111,125.941658 C87.0079905,126.328125 87.2668113,126.908455 87.138032,127.552986 C86.5560008,131.033707 84.6167383,134.126701 81.7722343,136.124497 C81.5778032,136.254158 81.4490239,136.512222 81.4490239,136.769028 L81.4490239,139.605217 C81.3846342,140.507812 80.6738237,141.216545 79.7685821,141.216545 Z M71.041901,137.993889 L78.2169197,137.993889 L78.2169197,136.769028 C78.2169197,135.609627 78.7345613,134.513168 79.574151,133.740234 C79.2509406,133.868637 78.9921199,133.934097 78.6689095,134.0625 L78.4757405,134.126701 C75.7600158,134.900894 72.851122,134.900894 70.1366594,134.126701 L69.9422283,134.0625 C70.654301,134.835434 71.1062907,135.802231 71.1062907,136.898689 L71.041901,137.993889 Z" id="Shape"></path>
                    <path d="M74.2740051,134.707031 C72.851122,134.707031 71.4938907,134.513168 70.1366594,134.126701 L69.8778387,134.0625 C65.1597239,132.709236 61.4099783,129.164314 59.7295366,124.522934 L59.4063262,123.621597 C58.1778742,120.140877 57.5314534,116.531753 57.5314534,112.85717 L57.5314534,109.828377 C57.5314534,105.961189 60.1815263,102.608872 63.931272,101.835937 C65.4172826,101.513672 66.9045553,101.642075 68.3261763,102.158203 C69.8778387,100.418472 72.0759219,99.4516753 74.3383948,99.4516753 L77.6348886,99.4516753 C84.9399487,99.4516753 90.8865155,105.380859 90.8865155,112.664566 C90.8865155,116.273689 90.3044843,119.882812 89.0772944,123.299332 L88.6884322,124.458733 C87.0723802,129.100113 83.259507,132.645035 78.5401302,133.998299 L78.345699,134.0625 C77.0528574,134.513168 75.6956261,134.707031 74.2740051,134.707031 Z M65.6117137,104.864731 C62.9616407,104.864731 60.7635575,106.992187 60.7635575,109.698715 L60.7635575,109.828377 L60.7635575,112.85717 C60.7635575,116.144028 61.3455887,119.432144 62.4439992,122.58934 L62.7672096,123.491936 C64.0600513,127.101059 67.0333346,129.937248 70.7186906,130.968247 L70.9775114,131.033707 C73.1099428,131.612778 75.3724157,131.612778 77.5061093,131.033707 L77.6992782,130.968247 C81.4490239,129.873047 84.4223072,127.101059 85.6507592,123.427734 L86.0383593,122.267075 C87.138032,119.17408 87.6544113,115.951424 87.6544113,112.664566 C87.6544113,107.12059 83.1938552,102.674332 77.6348886,102.674332 L74.3383948,102.674332 C72.6579531,102.674332 71.041901,103.575668 70.2010491,105.058594 C69.7490594,105.831528 68.7794281,106.089592 68.0029659,105.638924 C67.2921554,105.122795 66.4525656,104.864731 65.6117137,104.864731 Z" id="Shape"></path>
                    <path d="M88.1720529,127.81105 C87.8488424,127.81105 87.5900217,127.81105 87.2668113,127.74559 L86.2327904,127.74559 C85.3275488,127.74559 84.6167383,127.036858 84.6167383,126.134262 C84.6167383,125.877457 84.681128,125.555191 84.8099073,125.361328 C86.1684007,122.6548 87.0079905,119.68895 87.4612424,116.724358 C87.5900217,115.821762 88.4308736,115.242691 89.2704634,115.371094 L89.3348531,115.371094 C92.3093986,115.951424 94.44183,118.59375 94.44183,121.622543 C94.44183,125.039062 91.6629777,127.81105 88.1720529,127.81105 Z M90.3044843,119.302483 C89.9168842,121.107674 89.4005049,122.847405 88.754084,124.588394 C89.2704634,124.522934 89.7881049,124.266128 90.175705,123.943863 C91.4685466,122.847405 91.6629777,120.913811 90.5633051,119.624748 C90.4989154,119.496345 90.3701361,119.366684 90.3044843,119.302483 Z" id="Shape"></path>
                    <path d="M60.3759574,127.81105 C56.8850325,127.81105 54.0405285,124.974861 54.0405285,121.494141 C54.0405285,118.465347 56.1742221,115.887222 59.1475054,115.306892 C60.052747,115.11303 60.8923368,115.693359 61.0867679,116.531753 L61.0867679,116.660156 C61.474368,119.68895 62.3152199,122.58934 63.6724512,125.297127 C64.1244409,126.070061 63.8668823,127.036858 63.09042,127.488785 C62.8315993,127.617188 62.5740406,127.681389 62.3152199,127.681389 L61.3455887,127.681389 C60.9579886,127.81105 60.6347782,127.81105 60.3759574,127.81105 Z M58.1778742,119.302483 C56.9494222,120.463142 56.8850325,122.396736 58.1134845,123.621597 C58.1778742,123.685799 58.3066535,123.814201 58.3723053,123.878403 C58.7599054,124.200668 59.2118951,124.458733 59.7295366,124.522934 C59.0831158,122.847405 58.5654743,121.107674 58.1778742,119.302483 Z" id="Shape"></path>
                    <path d="M134.391142,165 C133.4859,165 132.77509,164.291267 132.77509,163.388672 L132.77509,157.007561 C132.77509,156.104965 133.4859,155.396233 134.391142,155.396233 C135.296383,155.396233 136.007194,156.104965 136.007194,157.007561 L136.007194,163.388672 C136.007194,164.291267 135.296383,165 134.391142,165 Z" id="Path"></path>
                    <path d="M107.693457,165 C106.788215,165 106.077405,164.291267 106.077405,163.388672 L106.077405,157.007561 C106.077405,156.104965 106.788215,155.396233 107.693457,155.396233 C108.598698,155.396233 109.309509,156.104965 109.309509,157.007561 L109.309509,163.388672 C109.309509,164.291267 108.598698,165 107.693457,165 Z" id="Path"></path>
                    <path d="M142.923392,165 L99.5488069,165 C97.7383238,165 96.3167028,163.582535 96.3167028,161.777344 C96.3167028,161.713142 96.3167028,161.648941 96.3167028,161.583481 L97.0275133,148.37059 C97.1575547,145.728264 99.0311654,143.472405 101.616849,142.827873 L110.214751,140.701675 L115.321727,138.187752 C115.514896,138.05809 115.773717,137.993889 116.032538,137.993889 L126.439661,137.993889 C126.698482,137.993889 126.957302,138.05809 127.150471,138.187752 L132.257448,140.701675 L140.85535,142.827873 C143.441033,143.472405 145.315906,145.728264 145.444685,148.37059 L146.155496,161.583481 C146.285537,163.388672 144.862654,164.871597 143.117823,165 C143.053433,165 142.987781,165 142.923392,165 Z M116.420138,141.216545 L111.507592,143.666267 C111.378813,143.730469 111.313161,143.730469 111.184382,143.79467 L102.457701,145.986328 C101.229249,146.308594 100.389659,147.339592 100.324007,148.564453 L99.6131966,161.777344 L142.987781,161.777344 L142.276971,148.564453 C142.212581,147.339592 141.371729,146.308594 140.14454,145.986328 L131.417858,143.79467 C131.287817,143.79467 131.223427,143.730469 131.094648,143.666267 L126.18084,141.216545 L116.420138,141.216545 Z" id="Shape"></path>
                    <path d="M126.439661,141.216545 L116.032538,141.216545 C115.450507,141.216545 114.416486,140.958481 114.416486,139.21875 L114.416486,136.898689 C114.416486,136.640625 114.287707,136.382561 114.028886,136.189957 C111.248771,134.384766 109.309509,131.612778 108.534309,128.390122 C108.339878,127.552986 108.857519,126.650391 109.762761,126.456528 C110.34353,126.328125 110.989951,126.521988 111.378813,127.036858 C112.929213,128.970451 114.998517,130.323715 117.389769,131.033707 L117.64859,131.097908 C119.782284,131.678238 122.044756,131.678238 124.177188,131.097908 L124.371619,131.033707 C127.021692,130.259514 129.284165,128.648186 130.835827,126.392326 C131.352207,125.683594 132.321838,125.489731 133.0983,126.005859 C133.61468,126.392326 133.8735,126.972656 133.744721,127.617187 C133.16269,131.097908 131.223427,134.190903 128.378923,136.189957 C128.185754,136.318359 128.055713,136.576424 128.055713,136.834488 L128.055713,139.669418 C128.055713,140.507812 127.280513,141.216545 126.439661,141.216545 Z M117.64859,137.993889 L124.823609,137.993889 L124.823609,136.769028 C124.823609,135.609627 125.34125,134.513168 126.18084,133.740234 C125.85763,133.868637 125.600071,133.934097 125.276861,134.0625 L125.08243,134.126701 C122.367967,134.900894 119.459073,134.900894 116.743348,134.126701 L116.550179,134.0625 C117.26099,134.835434 117.71298,135.802231 117.71298,136.898689 L117.64859,137.993889 Z" id="Shape"></path>
                    <path d="M120.880694,134.707031 C119.459073,134.707031 118.10058,134.513168 116.743348,134.126701 L116.484528,134.0625 C111.766413,132.709236 108.016667,129.164314 106.336226,124.522934 L106.013015,123.621597 C104.784563,120.140877 104.138142,116.531753 104.138142,112.85717 L104.138142,109.828377 C104.138142,105.961189 106.788215,102.608872 110.537961,101.835937 C112.025234,101.513672 113.511244,101.642075 114.934127,102.158203 C116.484528,100.418472 118.682611,99.4516753 120.945084,99.4516753 L124.241578,99.4516753 C131.546638,99.4516753 137.493204,105.380859 137.493204,112.664566 C137.493204,116.273689 136.912435,119.882812 135.683983,123.299332 L135.296383,124.458733 C133.680331,129.100113 129.866196,132.645035 125.146819,133.998299 L124.95365,134.0625 C123.725198,134.513168 122.302315,134.707031 120.880694,134.707031 Z M112.218403,104.864731 C109.56833,104.864731 107.370246,106.992187 107.370246,109.698715 L107.370246,109.828377 L107.370246,112.85717 C107.370246,116.144028 107.952278,119.432144 109.050688,122.58934 L109.373899,123.491936 C110.66674,127.101059 113.641286,129.937248 117.32538,130.968247 L117.5842,131.033707 C119.716632,131.612778 121.979105,131.612778 124.112798,131.033707 L124.307229,130.968247 C128.055713,129.873047 131.028996,127.101059 132.257448,123.427734 L132.645048,122.267075 C133.744721,119.17408 134.2611,115.951424 134.2611,112.664566 C134.2611,107.12059 129.801806,102.674332 124.241578,102.674332 L120.945084,102.674332 C119.264642,102.674332 117.64859,103.575668 116.807738,105.058594 C116.355748,105.831528 115.386117,106.089592 114.610917,105.638924 C113.964496,105.122795 113.123644,104.864731 112.218403,104.864731 Z" id="Shape"></path>
                    <path d="M134.843132,127.81105 C134.519921,127.81105 134.2611,127.81105 133.93789,127.74559 L132.903869,127.74559 C131.998627,127.74559 131.287817,127.036858 131.287817,126.134262 C131.287817,125.877457 131.352207,125.555191 131.482248,125.361328 C132.839479,122.6548 133.680331,119.68895 134.132321,116.724358 C134.2611,115.821762 135.101952,115.242691 135.942804,115.371094 L136.007194,115.371094 C138.980477,115.951424 141.114171,118.59375 141.114171,121.622543 C141.114171,125.039062 138.269667,127.81105 134.843132,127.81105 Z M136.912435,119.302483 C136.523573,121.107674 136.007194,122.847405 135.360773,124.588394 C135.877152,124.522934 136.394794,124.266128 136.782394,123.943863 C138.075236,122.847405 138.269667,120.913811 137.169994,119.624748 C137.105604,119.496345 137.041215,119.366684 136.912435,119.302483 Z" id="Shape"></path>
                    <path d="M106.982646,127.81105 C103.491722,127.81105 100.647217,124.974861 100.647217,121.494141 C100.647217,118.465347 102.780911,115.887222 105.754194,115.306892 C106.659436,115.11303 107.500288,115.693359 107.693457,116.531753 L107.693457,116.660156 C108.081057,119.68895 108.921909,122.58934 110.27914,125.297127 C110.732392,126.070061 110.473571,127.036858 109.697109,127.488785 C109.43955,127.617188 109.18073,127.681389 108.921909,127.681389 L107.952278,127.681389 C107.564678,127.81105 107.241467,127.81105 106.982646,127.81105 Z M104.848953,119.302483 C103.621763,120.463142 103.556111,122.396736 104.784563,123.621597 C104.848953,123.685799 104.978994,123.814201 105.043384,123.878403 C105.430984,124.200668 105.884236,124.458733 106.400615,124.522934 C105.689805,122.847405 105.172163,121.107674 104.848953,119.302483 Z" id="Shape"></path>
                    <path d="M138.334056,107.894783 L134.067931,107.894783 C133.55029,107.894783 133.03391,107.636719 132.7107,107.18605 C130.835827,104.349861 127.732502,102.674332 124.307229,102.674332 L121.009473,102.674332 C119.329032,102.674332 117.71298,103.575668 116.87339,105.058594 C116.420138,105.831528 115.450507,106.089592 114.675307,105.638924 C113.641286,104.994392 112.412834,104.80053 111.248771,105.058594 C109.95593,105.316658 108.857519,106.089592 108.211098,107.250252 C107.887888,107.70092 107.370246,108.023186 106.853867,108.023186 L87.525632,108.023186 C87.0079905,108.023186 86.4916111,107.765122 86.1684007,107.314453 C84.2935279,104.478264 81.1902031,102.802734 77.76493,102.802734 L74.4671741,102.802734 C72.7867324,102.802734 71.1706803,103.70533 70.3310905,105.186997 C69.8778387,105.961189 68.9082074,106.219253 68.1330073,105.767326 C67.0989864,105.122795 65.8705344,104.930191 64.7064721,105.186997 C63.4136304,105.445061 62.3152199,106.219253 61.6687991,107.378655 C61.3455887,107.830582 60.8279471,108.152847 60.3115678,108.152847 L40.8532912,108.152847 C40.3369119,108.152847 39.8192703,107.894783 39.4960599,107.442856 C37.6211871,104.607925 34.5191244,102.931137 31.0925892,102.931137 L27.7960954,102.931137 C26.1156537,102.931137 24.4996017,103.833733 23.6587497,105.316658 C23.20676,106.089592 22.2371288,106.347656 21.4606665,105.896988 C20.4266456,105.252457 19.1981936,105.058594 18.0353934,105.316658 C16.7425518,105.574722 15.6428791,106.347656 14.9964583,107.508316 C14.6732479,107.958984 14.1568685,108.28125 13.639227,108.28125 L10.9247644,108.28125 C7.36944982,108.28125 4.52494577,105.445061 4.52494577,101.900139 L4.52494577,13.9858247 C4.52494577,13.0844878 5.23575625,12.3744966 6.14099783,12.3744966 L143.182213,12.3744966 C144.087454,12.3744966 144.798265,13.0844878 144.798265,13.9858247 L144.798265,101.513672 C144.733875,105.058594 141.889371,107.894783 138.334056,107.894783 Z M134.907521,104.672127 L138.334056,104.672127 C140.078888,104.672127 141.501771,103.253403 141.501771,101.513672 L141.501771,15.5971529 L7.69266024,15.5971529 L7.69266024,101.513672 C7.69266024,103.253403 9.1142812,104.672127 10.8603747,104.672127 L12.7339854,104.672127 C13.8980477,103.189201 15.5140998,102.158203 17.3889726,101.835938 C18.8749832,101.513672 20.362256,101.642075 21.7838769,102.158203 C23.3355393,100.418472 25.5336226,99.4516753 27.7960954,99.4516753 L31.0925892,99.4516753 C35.2299349,99.4516753 39.1728495,101.385269 41.6297535,104.736328 L59.2762847,104.736328 C60.4403471,103.253403 62.0563991,102.222405 63.931272,101.900139 C65.4172826,101.577873 66.9045553,101.707535 68.3261763,102.222405 C69.8778387,100.482674 72.0759219,99.5158767 74.3383948,99.5158767 L77.6348886,99.5158767 C81.7722343,99.5158767 85.7151489,101.44947 88.1720529,104.80053 L105.818584,104.80053 C106.982646,103.318863 108.598698,102.286606 110.473571,101.96434 C111.959582,101.642075 113.446855,101.771736 114.868476,102.286606 C116.420138,100.546875 118.618221,99.5800781 120.880694,99.5800781 L124.177188,99.5800781 C128.508965,99.4516753 132.451879,101.385269 134.907521,104.672127 Z" id="Shape"></path>
                </g>
                <path d="M133,34 L68.6605416,34 C68.9825596,34.7684127 69.1762735,35.6642697 69.1762735,36.4951556 L69.1762735,45.1313678 C71.1083818,46.9868039 71.1725339,49.9929856 69.3687298,51.9121439 C68.2743714,53.0641385 66.6642811,53.5764136 65.0541909,53.3202761 C64.7963249,57.2860369 62.4780465,60.8044937 59,62.6599299 L59,67.1379658 L64.4101548,69.8242878 L70.2064797,71.2961421 C72.2668923,71.8084173 74.1348485,73.0228849 75.5512249,74.6871547 L81.4771116,82.6836475 C81.6695679,82.938536 81.991586,83.0035072 82.2494519,82.8110917 L92.1678594,73.9187419 L95.130174,71.23242 C98.9943906,68.0338228 104.662411,71.7434461 103.244777,76.4776196 C102.988169,77.4371988 102.408285,78.2693336 101.634687,78.9090531 L98.7365247,81.2755153 L98.6723726,81.3392374 L87.0155706,91 L129.264088,91 C131.325758,91 133,89.3357303 133,87.2891277 L133,34 Z" id="Path" fill="#E9E9EA"></path>
                <path d="M67,84.8590207 L67,91 L74,91 L68.3755883,84.2126018 C68.063121,83.8893924 67.5004358,83.9537819 67.1879685,84.2769913 C67.0634696,84.4057702 67,84.6002007 67,84.8590207 Z" id="Path" fill="#E9E9EA"></path>
                <path d="M123,54.5006356 C123,61.4038961 117.402625,67 110.499364,67 C103.596104,67 98,61.4038961 98,54.5006356 C98,47.5961039 103.596104,42 110.499364,42 C117.402625,42 123,47.5961039 123,54.5006356 Z" id="Path" fill="#60BAE2"></path>
                <path d="M110,42 L110,54 L122,54 C122,47.374428 116.624352,42 110,42 Z" id="Path" fill="#F75C64"></path>
                <path d="M110,54 L117.187061,64 C120.187367,61.6623541 122,57.9611872 122,54 L110,54 Z" id="Path" fill="#FFAE2C"></path>
                <path d="M101.878894,71.8263789 C100.146009,69.6087158 96.9383558,69.2826263 94.7569007,71.0430001 C94.7569007,71.0430001 94.6929982,71.1092367 94.6929982,71.1092367 L81.8623834,82.913421 C81.6055206,83.1083106 81.2847552,83.1083106 81.0930475,82.8484577 L75.1902132,74.6962209 C73.8432492,72.999537 71.9825595,71.8263789 69.8662596,71.2391632 L64.092483,69.7386422 L58.7033742,67 L56.9065871,72.347358 C56.778782,72.6734475 56.5219192,72.8696105 56.2011538,72.8696105 L50.6203375,72.8696105 C50.2995721,72.8696105 49.9788067,72.6734475 49.9149042,72.347358 L48.1181171,67 L42.7290083,69.7386422 L33.747578,72.0212685 C31.8229858,72.543521 30.4121192,74.2389316 30.2830615,76.2604317 L29,100 L66.8503136,100 L66.8503136,85.1310841 C66.8503136,84.6737948 67.2362341,84.2827421 67.6848046,84.2827421 C67.8777648,84.2827421 68.0694725,84.3477053 68.2624328,84.4789051 L76.7301375,94.456479 C78.2700618,96.0869263 80.7722822,96.2181261 82.5039141,94.7825684 L101.237363,78.9353841 C103.289761,77.1737369 103.610526,73.9778054 101.878894,71.8263789 Z" id="Path" fill="#60BAE2"></path>
                <path d="M40.8881521,43.6155827 C41.1451273,43.6155827 41.4021026,43.6155827 41.6590778,43.6812621 L41.6590778,43.0875725 C41.6590778,42.7578881 41.9160531,42.4282036 42.3008894,42.4282036 L42.4287504,42.4282036 C44.5472299,42.8905343 50.7723008,43.6812621 55.0080066,38.2092722 C55.2010513,37.9452672 55.5858876,37.8795877 55.9067934,38.076626 C55.9067934,38.076626 55.9707239,38.076626 55.9707239,38.1423054 C56.9334413,39.1313588 59.5006875,41.1094657 64.3142743,41.2421119 C64.6351801,41.2421119 64.8921553,41.506117 64.8921553,41.8358015 L64.8921553,42.0328397 L64.8921553,43.6812621 C66.3688232,43.417257 67.9094216,43.9452672 69,45 L69,36.0985191 C69,32.340631 66.0479174,29.3077913 62.3888396,29.3077913 C61.1704001,29.3077913 60.014638,29.6374758 58.9879902,30.2968448 C57.7682976,28.2517711 55.6498181,27 53.3395471,27 L49.9386977,27 C43.3275373,27 38,32.4719899 38,39.2640051 L38,44.7359949 C38.7069952,44.0109466 39.7975736,43.6155827 40.8881521,43.6155827 Z" id="Path" fill="#6D6C6B"></path>
                <path d="M132.853721,25 L59.0823248,25 C57.6703238,25 56.3862308,25.9303452 56,27.2943671 C57.3493006,27.7910356 58.5042322,28.7831617 59.2102326,29.9618411 C60.2385099,29.341611 61.3934415,29.0314959 62.6135807,29.0314959 C65.3096746,29.0314959 67.6859989,30.5820713 68.7130227,33 L132.853721,33 C134.586745,33 136,31.6359781 136,29.9618411 L136,28.1011507 C136,26.3640219 134.586745,25 132.853721,25 Z" id="Path" fill="#6D6C6B"></path>
                <path d="M65.8264076,43 C65.5504899,43 65.2759177,43 65,43.0663731 L65,43.866753 L65,52.1282385 L65,52.9286184 C67.825129,53.3945309 70.5129719,51.5295798 70.9261757,48.7965747 C71.4080225,46.0648705 69.4792897,43.4659125 66.6541607,43.0663731 C66.378243,43.0663731 66.1023253,43 65.8264076,43 Z" id="Path" fill="#F9D0B4"></path>
                <path d="M42,52.0892983 L42,43.8674095 C42,43.6019367 42,43.3364639 42,43.0709911 C39.2061148,42.6073847 36.5505928,44.4643996 36.0729717,47.1825828 C35.5966805,49.900766 37.5031751,52.4868601 40.2970602,52.9504666 C40.841203,53.0165111 41.4545273,53.0165111 42,52.9504666 C42,52.6189493 42,52.3534765 42,52.0892983 Z" id="Path" fill="#F9D0B4"></path>
                <path d="M55.224501,38.2513392 C51.0080838,43.6204349 44.8113606,42.8445758 42.7025283,42.3922019 C42.3830838,42.3264943 42.0636394,42.5210906 42,42.8445758 L42,42.9734646 L42,52.3545342 C42,58.8242374 47.1747505,64 53.5,64 C59.8888889,64 65,58.759793 65,52.3545342 L65,42.0030091 C65,41.9385647 65,41.8741203 65,41.8096759 C65,41.4861908 64.744195,41.22715 64.4247505,41.22715 C59.6330838,41.0982612 57.1411677,39.1573503 56.119195,38.1868948 C55.8633899,37.927854 55.4803061,37.927854 55.224501,38.2513392 Z" id="Path" fill="#F9D0B4"></path>
                <path d="M53.3333333,63.3217046 C51.466146,63.3217046 49.6002603,62.8807271 48,62.1265198 L48,66.3397617 L49.8658857,71.4976045 C50,71.8120622 50.266927,72 50.6002603,72 L56.3997397,72 C56.733073,72 57.0664063,71.8120622 57.1328127,71.4976045 L59,66.3397617 L59,62 C57.266927,62.8807271 55.3333333,63.3217046 53.3333333,63.3217046 Z" id="Path" fill="#F9D0B4"></path>
                <path d="M94.8711865,71.1493833 L92,73.7512047 L98.366597,81 L101.239002,78.6462591 C103.29821,76.910905 103.610322,73.8129224 101.863226,71.7689798 C100.052733,69.6621097 96.9316131,69.4140291 94.8711865,71.1493833 Z" id="Path" fill="#F9D0B4"></path>
                <path d="M65.4160375,54.9352591 C65.0901405,54.9352591 64.6993187,54.9352591 64.3734218,54.8705182 C63.5255807,54.7410363 62.9399843,54.0250791 63.0049092,53.180909 C63.0049092,52.9854173 63.0049092,52.7251845 63.0049092,52.5309618 L63.0049092,44.4066208 C63.0049092,44.1463881 63.0049092,43.9508963 63.0049092,43.7566736 C62.9399843,42.9112345 63.5255807,42.1965463 64.3734218,42.0670645 C64.6993187,42.0010545 65.0901405,42.0010545 65.4160375,42.0010545 C69.0009038,41.9363136 71.998901,44.8610763 71.998901,48.4357863 C72.0650985,52.0104963 69.1320261,55 65.5471598,55 C65.4809623,54.9352591 65.4160375,54.9352591 65.4160375,54.9352591 Z M66.2638786,45.2507909 L66.2638786,51.5560409 C68.0232129,51.1003164 69.0009038,49.2812254 68.5451571,47.5256063 C68.2192602,46.4212036 67.3714191,45.5757645 66.2638786,45.2507909 Z" id="Shape" fill="#231F20"></path>
                <path d="M40.5830273,54.9989455 C36.9986477,55.0636864 34.0010574,52.1389237 34.0010574,48.5642137 C33.9361413,44.9895037 36.8688156,42 40.4531952,42 L40.5830273,42 C40.90888,42 41.3009212,42 41.6267739,42.0647409 C42.4732275,42.1954918 43.0600168,42.91018 42.9951008,43.7556191 L42.9951008,44.4055663 L42.9951008,52.4638973 L42.9951008,53.1138446 C43.0600168,53.9592837 42.4732275,54.6739718 41.6267739,54.8047227 C41.2347327,54.9989455 40.90888,54.9989455 40.5830273,54.9989455 Z M39.6716577,45.3144773 C37.9112897,45.7702018 36.9337316,47.5892928 37.3906889,49.3449118 C37.7165416,50.4493146 38.5629951,51.2947536 39.6716577,51.6197273 L39.6716577,45.3144773 Z" id="Shape" fill="#231F20"></path>
                <path d="M53.4347207,65 C46.0287287,65 40,59.1019564 40,51.8592936 L40,42.5646476 C40,41.3464781 40.9830283,40.3211123 42.2937328,40.3211123 C42.4242914,40.3211123 42.6214089,40.3211123 42.7519675,40.384963 C44.9151417,40.8331694 50.2885182,41.3464781 53.9582347,36.8594076 C54.7454251,35.8978925 56.1866882,35.7050889 57.1697166,36.4750519 C57.2349959,36.5389026 57.3015548,36.6027533 57.3668341,36.6027533 C58.0874656,37.3076141 60.3159191,39.0390922 64.7715465,39.1667936 C65.9516923,39.2306443 66.9347207,40.1283087 67,41.3464781 L67,51.8592936 C66.8694414,59.1019564 60.8394331,65 53.4347207,65 Z M43.2114818,43.7177148 L43.2114818,51.8592936 C43.2114818,57.3717299 47.7989474,61.7949497 53.3694414,61.7949497 C58.9399353,61.7949497 63.5926802,57.3717299 63.5926802,51.8592936 L63.5926802,42.3079932 C60.7741538,42.1790403 58.0221863,41.2175252 55.7937328,39.615 C51.5992226,44.0382198 46.0287287,44.0382198 43.2114818,43.7177148 Z" id="Shape" fill="#231F20"></path>
                <path d="M68.4052767,46 C68.0215467,46 67.5755223,45.8063055 67.3201175,45.5467807 C66.6186883,44.8340364 65.5983145,44.5099467 64.5779406,44.7036412 C63.6846464,44.8340364 62.9184319,44.2504219 62.7278124,43.3427176 C62.7278124,43.2781528 62.7278124,43.1490231 62.7278124,43.0831927 L62.7278124,42.3058837 C59.9843901,42.176754 57.305753,41.2044849 55.1366802,39.5840364 C50.9903995,44.1212922 45.5048003,44.1212922 42.8249177,43.7313721 C42.5707584,44.4453819 41.8045439,44.8340364 41.1031147,44.7036412 C40.2098205,44.5745116 39.3165264,44.7694716 38.6150972,45.3518206 C37.913668,45.9354352 36.8932942,45.8063055 36.3824845,45.0935613 C36.1270797,44.8340364 36,44.4453819 36,44.0554618 L36,38.6763322 C36,31.0918739 42.0599487,25 49.459216,25 L52.8405277,25 C55.20022,25 57.4328327,26.0368339 58.9640162,27.8509769 C59.8573104,27.5268872 60.8141444,27.3331927 61.8345183,27.3331927 C66.3632835,27.3331927 70,31.027309 70,35.6291297 L70,44.3795515 C70,45.222691 69.2973253,46 68.4052767,46 Z M65.9172591,41.3981794 C66.2362038,41.4627442 66.4916086,41.5285746 66.8105533,41.5931394 L66.8105533,35.5645648 C66.8105533,32.7781528 64.5779406,30.5095249 61.8980581,30.5095249 C61.0047639,30.5095249 60.1127152,30.7677842 59.3465007,31.2222691 C58.5815317,31.6754884 57.6246977,31.4159636 57.1774279,30.6386545 C56.2853792,29.0827709 54.6906558,28.1750666 52.9040675,28.1750666 L49.5227558,28.1750666 C43.8465371,28.1750666 39.2529865,32.8427176 39.2529865,38.6117673 L39.2529865,41.4627442 C39.5083914,41.3981794 39.827336,41.3336146 40.0827409,41.3336146 C40.5287652,40.4904751 41.5491391,40.0372558 42.4424332,40.2322158 C44.5479662,40.6854352 49.7781606,41.2044849 53.3500918,36.6672291 C54.1163063,35.69496 55.5191647,35.5 56.4759987,36.277309 C56.5395385,36.3431394 56.6043239,36.4077043 56.6678637,36.4077043 C57.3692929,37.1204485 59.5383657,38.8700266 63.875266,39.0004219 C65.023965,39.0649867 65.980799,39.972691 66.0443388,41.2044849 L65.9172591,41.3981794 Z" id="Shape" fill="#231F20"></path>
                <path d="M53.5,80 C53.0804686,80 52.7207029,79.8221882 52.4207029,79.5866447 C52.3597657,79.5266046 52.3,79.4677187 52.2402343,79.349947 C52.1804686,79.2910612 52.1207029,79.1721352 52.1207029,79.1132493 C52.0597657,78.9954776 52.0597657,78.9354375 52.0597657,78.8176658 C52.0597657,78.699894 52.0597657,78.6398539 52,78.5220822 C52,78.1087269 52.1804686,77.7531032 52.4207029,77.4575197 C52.4804686,77.3986338 52.5402343,77.339748 52.6597657,77.2808621 C52.8402343,77.1619361 53.0207029,77.1030503 53.2,77.0441644 C53.3804686,76.9852785 53.6207029,76.9852785 53.8,77.0441644 C53.9804686,77.1030503 54.1597657,77.1619361 54.3402343,77.2808621 C54.4,77.339748 54.5207029,77.3986338 54.5804686,77.4575197 C54.8804686,77.7531032 55,78.1087269 55,78.5220822 C55,78.6398539 55,78.699894 54.9402343,78.8176658 C54.9402343,78.9354375 54.8804686,78.9954776 54.8804686,79.1132493 C54.8207029,79.231021 54.8207029,79.2910612 54.7597657,79.349947 C54.7,79.4088329 54.6402343,79.5266046 54.5804686,79.5866447 C54.2804686,79.8221882 53.9207029,80 53.5,80 Z" id="Path" fill="#231F20"></path>
                <path d="M53.5308033,87 C53.098349,87 52.7275013,86.8208155 52.4182603,86.580732 C52.355446,86.5210038 52.2938393,86.4601049 52.2322326,86.3406485 C52.170626,86.2809203 52.1090193,86.1602932 52.1090193,86.1005651 C52.046205,85.9811087 52.046205,85.9213805 52.046205,85.8007534 C51.9845983,85.6215689 51.9845983,85.3814854 52.046205,85.2011301 C52.046205,85.0816738 52.1090193,85.0219456 52.1090193,84.9013185 C52.170626,84.8415903 52.170626,84.7221339 52.2322326,84.661235 C52.2938393,84.6015068 52.355446,84.4820505 52.4182603,84.4223223 C52.8507147,84.0018835 53.5308033,83.8824272 54.0876787,84.1225106 C54.210892,84.1822388 54.2737063,84.1822388 54.335313,84.241967 C54.3969197,84.3016952 54.520133,84.3614233 54.5829473,84.4223223 C54.644554,84.4820505 54.7061607,84.5417786 54.7677674,84.661235 C54.829374,84.7221339 54.8921883,84.8415903 54.8921883,84.9013185 C54.953795,85.0219456 54.953795,85.0816738 54.953795,85.2011301 C55.0154017,85.3814854 55.0154017,85.6215689 54.953795,85.8007534 C54.953795,85.9213805 54.8921883,85.9811087 54.8921883,86.1005651 C54.829374,86.2211922 54.829374,86.2809203 54.7677674,86.3406485 C54.7061607,86.4003767 54.644554,86.5210038 54.5829473,86.580732 C54.520133,86.6404602 54.4585263,86.7001884 54.335313,86.7599165 C54.2737063,86.8208155 54.1492853,86.8805436 54.0876787,86.8805436 C53.9644653,86.9402718 53.901651,86.9402718 53.7784377,86.9402718 C53.7784377,87 53.6552243,87 53.5308033,87 Z" id="Path" fill="#231F20"></path>
                <path d="M53.5,93 C53.3804686,93 53.3207029,93 53.2,92.9387578 C53.0804686,92.9387578 53.0207029,92.8786929 52.9,92.8786929 C52.6,92.7585632 52.3597657,92.5771913 52.2402343,92.3357545 C52.1804686,92.2756897 52.1207029,92.15556 52.1207029,92.0954951 C52.0597657,92.0342529 52.0597657,91.9141232 52.0597657,91.7939935 C52.0597657,91.6726864 52.0597657,91.6126216 52,91.4924919 C52,91.3711848 52,91.31112 52.0597657,91.1909903 C52.0597657,91.0696832 52.1207029,91.0096184 52.1207029,90.8894887 C52.1804686,90.8282464 52.1804686,90.7081167 52.2402343,90.6480519 C52.3,90.587987 52.3597657,90.46668 52.4207029,90.4066151 C52.4804686,90.3465503 52.5402343,90.2864854 52.6597657,90.2252432 C52.7207029,90.1651783 52.8402343,90.1051135 52.9,90.1051135 C52.9597657,90.0450486 53.0804686,90.0450486 53.2,90.0450486 C53.3804686,89.9849838 53.6207029,89.9849838 53.8,90.0450486 C53.9804686,90.1051135 54.1597657,90.1651783 54.3402343,90.2864854 C54.4,90.3465503 54.5207029,90.4066151 54.5804686,90.46668 C54.6402343,90.5267448 54.7,90.587987 54.7597657,90.7081167 C54.8207029,90.7681816 54.8804686,90.8894887 54.8804686,90.9495535 C54.9402343,91.0696832 54.9402343,91.1297481 54.9402343,91.2510551 C54.9402343,91.3711848 55,91.4312497 55,91.5525567 C55,91.6726864 55,91.7327513 54.9402343,91.8540584 C54.9402343,91.9741881 54.8804686,92.0342529 54.8804686,92.15556 C54.8207029,92.2756897 54.8207029,92.3357545 54.7597657,92.3969968 C54.7,92.4570616 54.6402343,92.5771913 54.5804686,92.6372562 C54.5207029,92.6984984 54.4597657,92.7585632 54.3402343,92.8186281 C54.2804686,92.8786929 54.1597657,92.9387578 54.1,92.9387578 C53.9804686,93 53.9207029,93 53.8,93 C53.7402343,92.9387578 53.6207029,93 53.5,93 Z" id="Path" fill="#231F20"></path>
                <path d="M39.5,101 C38.6597657,101 38,100.295614 38,99.3985543 L38,84.6014457 C38,83.704386 38.6597657,83 39.5,83 C40.3402343,83 41,83.704386 41,84.6014457 L41,99.3985543 C41,100.295614 40.3402343,101 39.5,101 Z" id="Path" fill="#231F20"></path>
                <path d="M55.7869609,74 L50.1484762,74 C49.110408,74 48.2039967,73.3339651 47.8799167,72.3349128 L46.0645629,66.8739472 C46,66.6736165 46,66.5409297 46,66.3405991 L46,61.8786857 C46,60.9459768 46.7127227,60.2135985 47.6203997,60.2135985 C47.8799167,60.2135985 48.1381682,60.2799419 48.3331224,60.4126287 C49.694005,61.1463074 51.2498418,61.5456683 52.8056786,61.4793249 C54.4906411,61.4793249 56.1110408,61.0786636 57.6023147,60.2135985 C58.3796003,59.7465939 59.3518401,60.0796113 59.8050458,60.8796334 C59.9354371,61.1463074 60,61.411681 60,61.6783551 L60,66.2742557 C60,66.4745863 60,66.6736165 59.9354371,66.8076038 L58.1200833,72.2685694 C57.7314405,73.3339651 56.8237635,74 55.7869609,74 Z M50.7308077,70.6698257 L55.138801,70.6698257 L56.6946378,66.0739251 L56.6946378,64.2098077 C54.2311241,65.0085294 51.6384846,65.0085294 49.1762365,64.3424945 L49.1762365,66.0739251 L50.7308077,70.6698257 Z" id="Shape" fill="#231F20"></path>
                <path d="M133.202592,35 L68.440752,35 C67.7924879,35 67.208797,34.6002603 66.9492382,34 C65.9122688,31.3333333 62.9950802,30.067708 60.4020236,31.1341143 C60.1424648,31.266927 59.948745,31.3333333 59.6891862,31.4674477 C58.9117756,31.9335937 57.9393794,31.6666667 57.484835,30.8671873 C56.9011441,29.8671873 56.0591602,29.1341143 55.0221907,28.6666667 C54.2435143,28.3333333 53.854809,27.533854 54.0497945,26.6666667 C54.6322197,24.4674477 56.5124388,23 58.71679,23 L133.202592,23 C135.860222,23 138,25.2005207 138,27.9335937 L138,29.9335937 C138,32.800781 135.860222,35 133.202592,35 Z M69.4777215,31.6666667 L133.202592,31.6666667 C134.044576,31.6666667 134.758679,30.9335937 134.758679,30.067708 L134.758679,28.067708 C134.758679,27.2005207 134.044576,26.4674477 133.202592,26.4674477 L58.71679,26.4674477 C58.4572312,26.4674477 58.1976724,26.533854 57.9393794,26.6666667 C58.4572312,27.067708 58.9763488,27.533854 59.3650542,28 C63.1900657,26.4674477 67.4037826,28.067708 69.4777215,31.6666667 Z" id="Shape" fill="#231F20"></path>
                <path d="M66.8507986,101 L28.6199512,101 C27.7137907,101 27,100.286239 27,99.37724 L27,99.3125831 L28.1668709,75.7496012 C28.2959609,73.0238714 30.2399023,70.6873505 32.8976344,70.0382465 L41.8390057,67.7663825 L47.1532046,65.1699665 C47.9302751,64.7807576 48.9022458,65.1053096 49.290781,65.8837274 C49.290781,65.9483844 49.3553261,66.0130413 49.3553261,66.0789656 L50.9752772,70.8166643 L55.3820505,70.8166643 L57.0020016,66.0789656 C57.3259918,65.2346234 58.2334175,64.7807576 59.075033,65.1053096 C59.1408432,65.1053096 59.2053882,65.1699665 59.2699332,65.1699665 L64.582867,67.7663825 L70.2856012,69.1939043 C72.748433,69.8430083 74.8860094,71.2058732 76.5059606,73.1531852 L76.5705056,73.2191095 L81.8201595,80.3592534 L93.9368881,69.3891425 C96.7237102,66.9866973 101.000128,67.3112493 103.39715,70.1029034 C103.461695,70.1675603 103.461695,70.2322172 103.527505,70.2322172 C105.795437,73.0885283 105.405636,77.2430473 102.620079,79.6442251 L83.6982907,95.4826161 C81.3012691,97.494585 77.8019215,97.2359573 75.6643451,95.0287502 C75.6643451,95.0287502 75.5985349,94.9640933 75.5985349,94.9640933 L68.4707498,86.7197121 L68.4707498,99.37724 C68.4707498,100.286239 67.7582243,101 66.8507986,101 Z M30.3702575,97.75448 L65.2966576,97.75448 L65.2966576,84.5784294 C65.2966576,83.2142971 66.3977184,82.1113273 67.7582243,82.1113273 C68.3416598,82.1113273 68.9250952,82.3065654 69.3781755,82.6957743 C69.4427205,82.7604313 69.5085307,82.8250882 69.5730757,82.8897451 L78.0613667,92.7568862 C79.0333374,93.7305422 80.5887436,93.7951991 81.6252593,92.950857 L100.545783,77.1783904 C101.972099,75.9448393 102.231544,73.8022892 101.000128,72.3101104 C99.7687123,70.8166643 97.6298707,70.5567692 96.0757297,71.7903203 C96.0757297,71.7903203 96.0099196,71.8549772 96.0099196,71.8549772 L83.0503102,83.6047734 C82.59723,83.9939823 81.9492495,84.1879531 81.3658141,84.1232962 C80.7823786,84.0586392 80.2002083,83.7340872 79.8762181,83.2802214 L73.9785837,75.1664215 C72.812978,73.8022892 71.2575719,72.7639763 69.5085307,72.3101104 L63.6767065,70.8166643 C63.5463513,70.8166643 63.4818063,70.7520074 63.3527162,70.6873505 L59.5293785,68.8046954 L58.2979625,72.3747674 C57.9739723,73.3484234 57.0665466,73.9975273 56.0300309,73.9975273 L50.3931069,73.9975273 C49.3553261,73.9975273 48.4491655,73.3484234 48.1251753,72.3747674 L46.8937594,68.8693523 L43.0704216,70.7520074 C42.9413316,70.8166643 42.8755214,70.8166643 42.7464314,70.8813212 L33.6747049,73.1531852 C32.3787439,73.4777372 31.4713182,74.5819744 31.4067732,75.8801824 L30.3702575,97.75448 Z" id="Shape" fill="#231F20"></path>
                <path d="M98.4442974,83 C97.9800061,83 97.5144184,82.8040065 97.1824113,82.4107388 L90.4099863,74.7362569 C89.8121143,74.080384 89.8782565,73.0312433 90.5422705,72.4407016 L93.5977725,69.6865474 L93.6639146,69.6212162 C96.5858358,67.1937179 100.901927,67.5216544 103.358261,70.4077515 C103.424403,70.4730827 103.424403,70.4730827 103.490545,70.5384139 C105.814594,73.424511 105.416445,77.622354 102.561963,80.0485717 L99.5064606,82.5414012 C99.2418922,82.8693376 98.8424465,83 98.4442974,83 Z M93.9959216,73.8177787 L98.5778781,79.0647623 L100.370197,77.5570228 C101.83051,76.3106081 102.096375,74.1457151 100.834489,72.6379757 C99.5738992,71.1289557 97.3821341,70.8663504 95.7882411,72.1127651 C95.7882411,72.1127651 95.7882411,72.1127651 95.7220989,72.1780963 L93.9959216,73.8177787 Z" id="Shape" fill="#231F20"></path>
                <path d="M128.673666,93 L86.5805828,93 C85.6819989,93 84.9764161,92.2866832 84.9764161,91.3811242 C84.9764161,90.9270803 85.1694172,90.4743008 85.5541667,90.1505257 L100.119499,77.8470693 C100.633333,77.3930255 101.018083,76.8112417 101.211084,76.1636913 C101.723666,74.2855425 100.697249,72.4073937 98.8361655,71.8243455 C97.7458333,71.5005703 96.5264161,71.7598433 95.6278322,72.4718958 L82.7944989,84.192304 C82.3458333,84.5818457 81.7041667,84.7753522 81.1264161,84.71085 C80.5486655,84.6463478 79.970915,84.3225727 79.6500816,83.8685288 L73.8111655,75.7741497 C72.6569172,74.4145468 71.1166667,73.3787192 69.383415,72.9259397 L63.608415,71.4360682 C63.4805828,71.4360682 63.4166667,71.371566 63.2875816,71.3070638 L57.8985839,68.5865938 C57.3208333,68.3273208 57,67.745537 57,67.1624888 L57,62.6941387 C57,62.1110905 57.3208333,61.5280423 57.833415,61.2700337 C60.85,59.6511578 62.8389161,56.5424105 63.0319172,53.109888 C63.0958333,52.204329 63.8653322,51.5567787 64.7639161,51.6212808 L64.8917483,51.6212808 C65.0847494,51.6212808 65.2125816,51.685783 65.4055828,51.685783 C67.2027506,51.685783 68.6139161,50.1959115 68.6139161,48.4480313 C68.6139161,47.541208 68.2291667,46.7001512 67.6514161,46.117103 C67.3305828,45.7933278 67.1375816,45.4050505 67.1375816,44.9510067 L67.1375816,36.2090772 C67.1375816,35.5615268 67.0097494,34.9139765 66.7528322,34.2664262 C66.4319989,33.4253693 66.8167483,32.518546 67.6514161,32.1302687 C67.8444172,32.0645022 68.0361655,32 68.2930828,32 L132.395833,32 C133.294417,32 134,32.7120525 134,33.6188758 L134,87.5603243 C134,90.6033052 131.625082,93 128.673666,93 Z M91.0083333,89.7622483 L128.673666,89.7622483 C129.829167,89.7622483 130.791667,88.7909228 130.791667,87.6248265 L130.791667,35.3022538 L70.345915,35.3022538 C70.4110839,35.626029 70.4110839,35.885302 70.4110839,36.2090772 L70.4110839,44.3679585 C71.3735839,45.5340548 71.8861655,47.0239263 71.8861655,48.5125335 C71.8861655,51.8805538 69.383415,54.6642617 66.1111655,54.9880368 C65.4694989,58.6140658 63.3527506,61.7873153 60.2722494,63.7299663 L60.2722494,66.3201677 L64.6360839,68.5220917 L70.2819989,69.9461967 C72.7208333,70.593747 74.8375816,71.9546142 76.4417483,73.8972652 C76.4417483,73.8972652 76.5069172,73.9617673 76.5069172,73.9617673 L81.7041667,81.084821 L93.7028322,70.1409675 C96.5264161,67.745537 100.697249,68.0693122 103.070915,70.85302 C104.547249,72.6021645 105.061084,74.9330928 104.419417,77.1350168 C104.033415,78.4301175 103.327832,79.5304473 102.301416,80.3727685 L91.0083333,89.7622483 Z" id="Shape" fill="#231F20"></path>
                <path d="M73.4533588,92 L66.5424518,92 C65.6796425,92 65,91.3028433 65,90.4177997 L65,84.4054387 C65,83.0754019 66.04959,82 67.3450086,82 C67.9005322,82 68.4560558,82.1903583 68.8874605,82.5698392 C68.9489176,82.6328801 69.0103748,82.695921 69.0730366,82.7589619 L74.6258632,89.404203 C75.1801821,90.0370831 75.118725,91.0506798 74.4402871,91.6192834 C74.1932539,91.8726826 73.8233063,92 73.4533588,92 Z M68.0849037,88.8355995 L70.0599648,88.8355995 L68.0849037,86.4932016 L68.0849037,88.8355995 Z" id="Shape" fill="#231F20"></path>
                <path d="M90.4142253,53 L76.5857747,53 C75.6974932,53 75,52.3402343 75,51.5 C75,50.6597657 75.6974932,50 76.5857747,50 L90.4142253,50 C91.3012683,50 92,50.6597657 92,51.5 C92,52.3402343 91.3012683,53 90.4142253,53 Z" id="Path" fill="#231F20"></path>
                <path d="M90.4142253,46 L76.5857747,46 C75.6974932,46 75,45.3402343 75,44.5 C75,43.6609372 75.6974932,43 76.5857747,43 L90.4142253,43 C91.3012683,43 92,43.6609372 92,44.5 C92,45.3402343 91.3012683,46 90.4142253,46 Z" id="Path" fill="#231F20"></path>
                <path d="M90.4142253,68 L76.5857747,68 C75.6974932,68 75,67.3402343 75,66.5 C75,65.6597657 75.6974932,65 76.5857747,65 L90.4142253,65 C91.3012683,65 92,65.6597657 92,66.5 C92,67.3402343 91.3012683,68 90.4142253,68 Z" id="Path" fill="#231F20"></path>
                <path d="M90.4142253,61 L76.5857747,61 C75.6974932,61 75,60.3402343 75,59.5 C75,58.6597657 75.6974932,58 76.5857747,58 L90.4142253,58 C91.3012683,58 92,58.6597657 92,59.5 C92,60.3402343 91.3012683,61 90.4142253,61 Z" id="Path" fill="#231F20"></path>
                <path d="M109.99937,68 C102.257504,68 96,61.7424957 96,54.0006298 C96,46.258764 102.257504,40 109.99937,40 C117.741236,40 124,46.258764 124,54.0006298 C124,61.7424957 117.741236,68 109.99937,68 Z M109.99937,43.2257774 C104.064444,43.2257774 99.2257774,48.0644436 99.2257774,54.0006298 C99.2257774,59.9355564 104.064444,64.7742226 109.99937,64.7742226 C115.935556,64.7742226 120.774223,59.9355564 120.774223,54.0006298 C120.774223,48.0644436 115.935556,43.2257774 109.99937,43.2257774 Z" id="Shape" fill="#231F20"></path>
                <path d="M122.347187,56 L109.652813,56 C108.726979,56 108,55.2717298 108,54.3471874 L108,41.6528126 C108,40.7269794 108.726979,40 109.652813,40 C117.586313,40 124,46.4136872 124,54.3471874 C124,55.2717298 123.27173,56 122.347187,56 Z M111.305625,52.6943749 L120.561375,52.6943749 C119.834396,47.9335002 116.0665,44.165604 111.305625,43.4386246 L111.305625,52.6943749 Z" id="Shape" fill="#231F20"></path>
                <path d="M117.251842,66 C117.185949,66 117.120057,66 116.98698,66 C116.524441,65.9365246 116.193687,65.7448541 115.928825,65.3627573 L108.321481,55.5489708 C107.79305,54.8482527 107.924835,53.8289132 108.652235,53.3186214 C108.917097,53.1281951 109.313743,53 109.644498,53 L122.34623,53 C123.271308,53 124,53.7019623 124,54.5931068 C124,58.9268548 121.882399,63.0689324 118.244104,65.6813786 C117.979242,65.9365246 117.648488,66 117.251842,66 Z M112.952038,56.2509332 L117.516703,62.1130684 C119.170474,60.5199616 120.228628,58.4812826 120.559382,56.2509332 L112.952038,56.2509332 Z" id="Shape" fill="#231F20"></path>
            </g>
        </g>
    </g>
</svg>