<svg height="512pt" viewBox="-44 0 512 512.006" width="512pt" xmlns="http://www.w3.org/2000/svg"><path d="m402.402344 393.972656c0 62.425782-50.605469 113.035156-113.035156 113.035156-62.425782 0-113.03125-50.609374-113.03125-113.035156 0-62.425781 50.605468-113.035156 113.03125-113.035156 62.429687 0 113.035156 50.609375 113.035156 113.035156zm0 0" fill="#60bae2"/><path d="m402.402344 393.972656h-113.035156l73.902343 85.53125c24.882813-21.449218 39.167969-52.683594 39.136719-85.53125zm0 0" fill="#ffae2c"/><path d="m176.335938 393.972656c0-62.425781 50.605468-113.035156 113.03125-113.035156v-27.261719h-185.808594v-41.78125c-4.375 3.382813-10.660156 2.578125-14.042969-1.789062-3.378906-4.371094-2.578125-10.660157 1.792969-14.042969l84.402344-66.476562c3.632812-2.863282 8.753906-2.863282 12.386718 0l77.898438 61.339843 23.371094-18.480469v-102.941406c-.007813-3.863281-3.136719-6.988281-7-7h-209.582032c-4.945312 0-9.6875 1.964844-13.183594 5.460938l-49.132812 49.136718c-3.496094 3.496094-5.460938 8.238282-5.460938 13.183594v320.941406c.007813 3.863282 3.136719 6.992188 7 7h184.367188c-13.082031-18.871093-20.074219-41.292968-20.039062-64.253906zm0 0" fill="#e9e9ea"/><path d="m391.167969 95.570312-39.070313-4.070312c-5.496094-.601562-10.441406 3.363281-11.042968 8.859375-.605469 5.496094 3.363281 10.441406 8.859374 11.042969.035157.003906.070313.007812.105469.011718l14.601563 1.523438-98.625 77.988281-77.886719-61.339843c-3.632813-2.863282-8.753906-2.863282-12.386719 0l-84.402344 66.476562c-4.300781 3.476562-4.96875 9.78125-1.492187 14.082031 3.414063 4.222657 9.574219 4.953125 13.882813 1.648438l78.214843-61.597657 77.898438 61.351563c3.636719 2.867187 8.765625 2.863281 12.398437-.011719l105.496094-83.421875-1.609375 15.453125c-.601563 5.496094 3.367187 10.441406 8.863281 11.042969s10.4375-3.367187 11.039063-8.863281c.003906-.035156.007812-.070313.011719-.105469l4.074218-39.074219c.542969-5.492187-3.441406-10.398437-8.929687-10.996094zm0 0" fill="#60bae2"/><path d="m58.066406 122.5625c3.859375-.007812 6.988282-3.136719 7-7v-51.355469c-2.03125.917969-3.882812 2.191407-5.460937 3.761719l-24.574219 24.566406-24.566406 24.566406c-1.570313 1.582032-2.847656 3.429688-3.765625 5.460938zm0 0" fill="#ffae2c"/><path d="m310.332031 181.390625v72.285156h41.355469v-104.984375zm0 0" fill="#fcd770"/><path d="m272.21875 211.53125c-.96875.761719-2.066406 1.339844-3.242188 1.703125v40.441406h41.359376v-72.285156zm0 0" fill="#ffae2c"/><path d="m259.8125 211.546875-32.199219-25.355469v67.484375h41.355469v-40.441406c-3.144531.976563-6.566406.347656-9.15625-1.6875zm0 0" fill="#fcd770"/><path d="m186.265625 153.621094v100.054687h41.359375v-67.484375zm0 0" fill="#ffae2c"/><path d="m181.914062 150.195312-37 29.140626v74.339843h41.351563v-100.054687zm0 0" fill="#fcd770"/><path d="m103.699219 211.792969c-.046875.035156-.097657.066406-.140625.101562v41.777344h41.355468v-74.335937zm0 0" fill="#ffae2c"/><path d="m289.367188 280.9375v113.03125h113.035156c0-62.425781-50.605469-113.03125-113.035156-113.03125zm0 0" fill="#f75c64"/><path d="m363.871094 44.777344c-8.917969-1.710938-15.890625-8.683594-17.601563-17.601563-.046875-.214843-.261719-.351562-.476562-.300781-.148438.03125-.265625.152344-.300781.300781-1.710938 8.917969-8.683594 15.890625-17.601563 17.601563-.214844.046875-.347656.261718-.300781.476562.035156.148438.152344.265625.300781.300782 8.917969 1.710937 15.890625 8.683593 17.601563 17.601562.050781.214844.261718.351562.476562.300781.148438-.03125.265625-.152343.300781-.300781 1.710938-8.917969 8.683594-15.890625 17.601563-17.601562.214844-.046876.351562-.261719.300781-.476563-.035156-.148437-.152344-.269531-.300781-.300781zm0 0" fill="#60bae2"/><path d="m269.734375 18.71875h-17.398437c-2.765626 0-5.007813-2.242188-5.007813-5.007812 0-2.761719 2.242187-5.003907 5.007813-5.003907h17.398437c2.765625 0 5.007813 2.242188 5.007813 5.003907 0 2.765624-2.242188 5.007812-5.007813 5.007812zm0 0" fill="#fcd770"/><path d="m261.035156 27.414062c-2.761718 0-5-2.234374-5-5v-17.40625c0-2.765624 2.242188-5.007812 5.007813-5.007812s5.007812 2.242188 5.007812 5.007812v17.398438c.003907 2.761719-2.230469 5.003906-4.992187 5.007812-.007813 0-.011719 0-.023438 0zm0 0" fill="#fcd770"/><path d="m405.6875 268.527344h-17.398438c-2.765624 0-5.007812-2.242188-5.007812-5.007813 0-2.761719 2.242188-5.003906 5.007812-5.003906h17.398438c2.765625 0 5.007812 2.242187 5.007812 5.003906 0 2.765625-2.242187 5.007813-5.007812 5.007813zm0 0" fill="#f75c64"/><path d="m396.988281 277.226562c-2.761719 0-5-2.238281-5-5v-17.402343c0-2.761719 2.242188-5.003907 5.007813-5.003907 2.761718 0 5.003906 2.242188 5.003906 5.003907v17.402343c0 2.761719-2.238281 5-5 5-.003906 0-.007812 0-.011719 0zm0 0" fill="#f75c64"/><path d="m219.460938 31.53125c1.324218 0 2.601562.523438 3.542968 1.460938.230469.230468.4375.484374.621094.761718.179688.273438.332031.566406.457031.871094.125.300781.21875.609375.28125.929688.066407.324218.101563.652343.101563.984374 0 .328126-.035156.660157-.101563.980469-.0625.320313-.15625.628907-.28125.929688-.121093.304687-.277343.597656-.457031.871093-.183594.277344-.390625.53125-.621094.765626-1.441406 1.417968-3.585937 1.84375-5.457031 1.078124-.300781-.128906-.585937-.28125-.859375-.460937-.277344-.175781-.53125-.386719-.761719-.617187-.230469-.234376-.4375-.488282-.621093-.765626-.179688-.273437-.332032-.566406-.460938-.871093-.125-.300781-.222656-.609375-.289062-.929688-.0625-.324219-.097657-.652343-.101563-.980469.007813-.332031.039063-.660156.101563-.984374.066406-.320313.164062-.628907.289062-.929688.128906-.304688.28125-.597656.460938-.871094.183593-.273437.390624-.53125.621093-.761718.230469-.234376.484375-.441407.761719-.621094.273438-.175782.558594-.332032.859375-.460938.304687-.121094.621094-.214844.941406-.277344.320313-.070312.644531-.101562.972657-.101562zm0 0" fill="#6dcc6d"/><path d="m165.589844 481.617188c1.328125.003906 2.601562.527343 3.542968 1.460937.230469.234375.4375.488281.621094.761719.179688.277344.332032.566406.460938.871094.121094.300781.214844.613281.277344.933593.070312.320313.101562.652344.101562.980469 0 .332031-.03125.660156-.101562.984375-.0625.316406-.15625.628906-.277344.929687-.125.304688-.28125.59375-.460938.871094-.183594.273438-.390625.53125-.621094.761719-1.441406 1.417969-3.582031 1.84375-5.457031 1.082031-.296875-.128906-.585937-.285156-.859375-.460937-.273437-.179688-.53125-.386719-.761718-.621094-.230469-.234375-.4375-.488281-.621094-.761719-.179688-.277344-.332032-.566406-.457032-.871094-.128906-.300781-.226562-.613281-.292968-.929687-.0625-.324219-.097656-.652344-.097656-.984375.003906-.328125.035156-.65625.097656-.980469.066406-.320312.164062-.632812.292968-.933593.125-.304688.277344-.59375.457032-.871094.183594-.273438.390625-.527344.621094-.761719.230468-.230469.488281-.441406.761718-.617187.273438-.179688.5625-.332032.859375-.460938.304688-.125.621094-.21875.941407-.28125.320312-.066406.644531-.101562.972656-.101562zm0 0" fill="#fcd770"/><path d="m418.859375 306.234375c1.328125.003906 2.601563.527344 3.542969 1.464844.234375.230469.4375.484375.621094.757812.179687.277344.332031.570313.460937.871094.121094.300781.214844.613281.277344.933594.070312.324219.101562.652343.101562.980469 0 .332031-.03125.660156-.101562.984374-.0625.316407-.15625.628907-.277344.929688-.125.304688-.28125.597656-.460937.871094-.183594.273437-.386719.53125-.621094.761718-1.4375 1.417969-3.582032 1.84375-5.457032 1.082032-.296874-.128906-.585937-.28125-.859374-.460938-.273438-.179687-.53125-.386718-.761719-.621094-.230469-.234374-.4375-.488281-.621094-.761718-.179687-.273438-.332031-.566406-.457031-.871094-.128906-.300781-.226563-.613281-.292969-.929688-.0625-.324218-.097656-.652343-.097656-.984374.003906-.328126.035156-.65625.097656-.980469.066406-.320313.164063-.632813.292969-.933594.125-.300781.277344-.59375.457031-.871094.183594-.269531.390625-.527343.621094-.757812.234375-.234375.488281-.441407.761719-.621094.273437-.179687.5625-.332031.859374-.460937.304688-.125.621094-.21875.945313-.277344.316406-.070313.640625-.105469.96875-.105469zm0 0" fill="#6dcc6d"/><g fill="#231f20"><path d="m58.0625 127.5625h-51.359375c-2.761719 0-5-2.238281-5-5 0-.714844.15625-1.421875.453125-2.074219 1.164062-2.574219 2.78125-4.917969 4.777344-6.921875l49.132812-49.136718c2.003906-1.992188 4.347656-3.613282 6.921875-4.777344 2.511719-1.144532 5.476563-.035156 6.621094 2.476562.300781.652344.453125 1.359375.453125 2.078125v51.359375c-.007812 6.625-5.375 11.988282-12 11.996094zm-40.988281-10h40.988281c1.101562-.011719 1.988281-.898438 2-2v-40.984375zm0 0"/><path d="m97.523438 218.933594c-8.285157.023437-15.019532-6.671875-15.046876-14.957032-.011718-4.621093 2.105469-8.992187 5.742188-11.84375l84.410156-66.480468c5.441406-4.300782 13.128906-4.300782 18.570313 0l74.792969 58.902344 85.894531-67.921876-2.378907-.246093c-8.234374-.96875-14.125-8.429688-13.15625-16.664063.949219-8.078125 8.160157-13.929687 16.261719-13.195312l39.070313 4.078125c3.953125.429687 7.578125 2.398437 10.085937 5.484375 2.527344 3.074218 3.710938 7.039062 3.292969 11l-4.074219 39.066406c-.859375 8.246094-8.238281 14.234375-16.484375 13.375s-14.234375-8.238281-13.375-16.484375l.378906-3.65625-96.199218 76.066406c-5.441406 4.328125-13.148438 4.335938-18.597656.015625l-74.800782-58.910156-75.113281 59.160156c-2.644531 2.082032-5.910156 3.214844-9.273437 3.210938zm84.398437-86.5c-1.125 0-2.21875.378906-3.101563 1.082031l-84.402343 66.472656c-2.207031 1.667969-2.648438 4.8125-.976563 7.023438 1.667969 2.207031 4.8125 2.644531 7.019532.976562.054687-.039062.105468-.082031.15625-.125l78.214843-61.601562c1.8125-1.429688 4.371094-1.429688 6.1875 0l77.898438 61.351562c1.816406 1.433594 4.382812 1.433594 6.199219 0l105.496093-83.421875c2.167969-1.714844 5.3125-1.34375 7.027344.820313.804687 1.023437 1.183594 2.324219 1.046875 3.617187l-1.597656 15.453125c-.339844 2.746094 1.609375 5.25 4.355468 5.59375 2.746094.339844 5.25-1.613281 5.589844-4.359375.011719-.0625.015625-.128906.023438-.191406l4.070312-39.074219c.136719-1.316406-.261718-2.636719-1.105468-3.65625-.828126-1.03125-2.03125-1.695312-3.34375-1.84375h-.015626l-39.074218-4.074219c-2.75-.296874-5.226563 1.6875-5.523438 4.441407-.300781 2.753906 1.6875 5.226562 4.441406 5.523437.015626.003906.03125.003906.046876.003906l14.597656 1.523438c2.746094.285156 4.742187 2.746094 4.453125 5.492188-.136719 1.339843-.8125 2.566406-1.867188 3.402343l-98.628906 78c-1.816406 1.433594-4.382813 1.433594-6.199219 0l-77.894531-61.351562c-.882813-.699219-1.972656-1.078125-3.101563-1.078125zm0 0"/><path d="m351.6875 258.675781h-41.351562c-2.761719 0-5-2.238281-5-5v-72.285156c0-1.527344.699218-2.972656 1.898437-3.921875l41.355469-32.699219c2.164062-1.714843 5.308594-1.347656 7.023437.820313.699219.882812 1.078125 1.972656 1.078125 3.101562v104.984375c0 2.761719-2.238281 5-5 5zm-36.355469-10h31.355469v-89.65625l-31.351562 24.785157zm0 0"/><path d="m310.335938 258.675781h-41.359376c-2.761718 0-5-2.238281-5-5v-40.441406c0-2.1875 1.425782-4.125 3.515626-4.773437.589843-.179688 1.140624-.472657 1.621093-.851563l38.117188-30.140625c2.167969-1.710938 5.3125-1.34375 7.023437.820312.699219.886719 1.078125 1.976563 1.078125 3.101563v72.285156c0 2.761719-2.238281 5-4.996093 5zm-36.355469-10h31.355469v-56.957031l-30.015626 23.734375c-.429687.339844-.875.65625-1.339843.945313zm-1.761719-37.140625"/><path d="m268.976562 258.675781h-41.351562c-2.765625 0-5-2.238281-5-5v-67.484375c0-2.761718 2.234375-5 5-5 1.121094 0 2.210938.378906 3.09375 1.074219l32.199219 25.351563c1.296875 1.015624 3.011719 1.328124 4.585937.839843 2.636719-.820312 5.4375.65625 6.257813 3.292969.148437.480469.222656.980469.222656 1.480469v40.445312c.003906 2.761719-2.234375 5-4.996094 5-.003906 0-.007812 0-.011719 0zm-36.355468-10h31.355468v-30.125c-2.648437-.359375-5.15625-1.421875-7.257812-3.078125l-24.097656-18.976562zm0 0"/><path d="m227.625 258.675781h-41.359375c-2.761719 0-5-2.238281-5-5v-100.054687c0-2.761719 2.238281-5 5-5 1.125 0 2.214844.378906 3.09375 1.074218l41.359375 32.570313c1.203125.945313 1.90625 2.394531 1.90625 3.925781v67.484375c0 2.761719-2.238281 5-5 5zm-36.359375-10h31.359375v-60.058593l-31.359375-24.691407zm0 0"/><path d="m186.265625 258.675781h-41.355469c-2.761718 0-5-2.238281-5-5v-74.335937c0-1.535156.703125-2.980469 1.90625-3.929688l37-29.140625c1.816406-1.429687 4.375-1.429687 6.1875 0l4.351563 3.425781c1.207031.949219 1.90625 2.398438 1.90625 3.929688v100.050781c0 2.761719-2.234375 5-4.996094 5zm-36.355469-10h31.355469v-91.601562l-31.355469 24.6875zm0 0"/><path d="m144.910156 258.675781h-41.351562c-2.761719 0-5-2.238281-5-5v-41.78125c0-1.574219.742187-3.054687 2-4l.140625-.101562 41.117187-32.386719c2.171875-1.707031 5.3125-1.335938 7.023438.832031.691406.882813 1.070312 1.972657 1.070312 3.097657v74.335937c.003906 2.761719-2.234375 5.003906-4.996094 5.003906 0 0 0 0-.003906 0zm-36.351562-10h31.351562v-59.035156l-31.351562 24.695313zm-4.925782-36.828125"/><path d="m289.367188 512.007812c-65.1875-.003906-118.03125-52.851562-118.03125-118.039062.003906-65.1875 52.847656-118.03125 118.039062-118.03125 65.1875.003906 118.03125 52.847656 118.03125 118.035156-.074219 65.15625-52.878906 117.960938-118.039062 118.035156zm0-226.070312c-59.664063.003906-108.03125 48.371094-108.03125 108.035156.003906 59.667969 48.371093 108.035156 108.039062 108.035156 59.660156-.003906 108.027344-48.371093 108.03125-108.035156-.066406-59.636718-48.398438-107.96875-108.039062-108.035156zm0 0"/><path d="m196.367188 463.226562h-184.363282c-6.625-.007812-11.9960935-5.375-11.99999975-12v-320.941406c-.01562505-6.273437 2.48046875-12.296875 6.92968775-16.71875l49.132812-49.132812c4.421875-4.449219 10.441406-6.945313 16.714844-6.925782h209.589844c6.625.003907 11.992187 5.375 12 12v102.9375c0 1.527344-.699219 2.976563-1.898438 3.921876l-23.375 18.484374c-1.816406 1.433594-4.378906 1.433594-6.199218 0l-77.882813-61.339843c-1.820313-1.4375-4.382813-1.4375-6.199219 0l-84.402344 66.476562c-2.1875 1.691407-2.585937 4.835938-.894531 7.027344 1.691407 2.1875 4.835938 2.585937 7.027344.894531 2.199219-1.671875 5.335937-1.242187 7.003906.957032.660157.871093 1.019531 1.933593 1.019531 3.023437v36.78125h180.808594c2.761719 0 5 2.238281 5 5v27.261719c0 2.761718-2.238281 5-5 5-59.667968.003906-108.035156 48.371094-108.035156 108.039062 0 21.9375 6.679688 43.355469 19.148438 61.40625 1.570312 2.269532 1.003906 5.386719-1.265626 6.957032-.835937.578124-1.828124.890624-2.847656.890624zm-123.582032-395.71875c-3.621094-.007812-7.097656 1.433594-9.648437 4l-49.136719 49.128907c-2.566406 2.554687-4.007812 6.027343-4 9.648437v320.941406c.011719 1.101563.902344 1.988282 2 2h175.265625c-32.710937-56.398437-13.511719-128.636718 42.886719-161.351562 16.523437-9.585938 35.128906-15.019531 54.214844-15.832031v-17.367188h-180.808594c-2.761719 0-5-2.238281-5-5v-34.800781c-8.253906.601562-15.433594-5.605469-16.035156-13.859375-.363282-4.972656 1.773437-9.800781 5.695312-12.878906l84.410156-66.476563c5.441406-4.300781 13.128906-4.300781 18.570313 0l74.792969 58.902344 18.375-14.535156v-100.519532c-.011719-1.101562-.898438-1.988281-2-2zm0 0"/><path d="m402.402344 398.972656h-113.035156c-2.761719 0-5-2.238281-5-5v-113.035156c0-2.761719 2.238281-5 5-5 65.160156.074219 117.964843 52.875 118.039062 118.035156 0 2.761719-2.238281 5-5 5zm-108.035156-10h102.921874c-2.652343-55.707031-47.214843-100.269531-102.921874-102.921875zm0 0"/><path d="m363.269531 484.503906c-.121093 0-.242187 0-.363281-.015625-1.324219-.09375-2.554688-.710937-3.421875-1.714843l-73.898437-85.53125c-1.808594-2.089844-1.578126-5.246094.511718-7.050782.90625-.789062 2.070313-1.21875 3.269532-1.21875h113.039062c2.761719 0 5 2.238282 5 5 0 34.292969-14.917969 66.894532-40.871094 89.3125-.90625.785156-2.066406 1.21875-3.265625 1.21875zm-62.972656-85.53125 63.410156 73.398438c20.257813-19.207032 32.292969-45.511719 33.582031-73.398438zm0 0"/><path d="m309.304688 422.042969c-2.761719 0-5-2.238281-5-5 0-1.328125.523437-2.597657 1.460937-3.535157l23.074219-23.070312c1.917968-1.988281 5.082031-2.042969 7.070312-.125 1.984375 1.917969 2.039063 5.085938.121094 7.070312-.039062.042969-.082031.082032-.121094.125l-23.074218 23.066407c-.933594.941406-2.207032 1.46875-3.53125 1.46875zm0 0"/><path d="m322.644531 437.484375c-2.761719 0-5-2.238281-5-5 0-1.324219.527344-2.597656 1.464844-3.535156l38.515625-38.511719c1.917969-1.988281 5.082031-2.042969 7.066406-.125 1.988282 1.917969 2.042969 5.085938.125 7.070312-.042968.042969-.082031.082032-.125.125l-38.511718 38.511719c-.9375.941407-2.207032 1.464844-3.535157 1.464844zm0 0"/><path d="m335.988281 452.929688c-2.761719 0-5-2.238282-5-5 0-1.328126.527344-2.601563 1.464844-3.539063l53.957031-53.957031c1.988282-1.917969 5.152344-1.863282 7.070313.121094 1.871093 1.9375 1.871093 5.011718 0 6.949218l-53.957031 53.957032c-.9375.941406-2.207032 1.46875-3.535157 1.46875zm0 0"/><path d="m349.335938 468.371094c-2.761719 0-5-2.238282-5-5 0-1.324219.523437-2.597656 1.464843-3.535156l51.6875-51.6875c1.984375-1.917969 5.152344-1.863282 7.070313.121093 1.871094 1.9375 1.871094 5.011719 0 6.949219l-51.691406 51.6875c-.933594.941406-2.207032 1.464844-3.53125 1.464844zm0 0"/><path d="m191.460938 342.453125h-116.402344c-2.761719 0-5-2.238281-5-5s2.238281-5 5-5h116.402344c2.761718 0 5 2.238281 5 5s-2.238282 5-5 5zm0 0"/><path d="m208.898438 319.59375h-133.832032c-2.761718 0-5-2.238281-5-5 0-2.765625 2.238282-5 5-5h133.832032c2.761718 0 5 2.234375 5 5 0 2.761719-2.238282 5-5 5zm0 0"/><path d="m241.109375 296.730469h-166.042969c-2.761718 0-5-2.238281-5-5s2.238282-5 5-5h166.042969c2.761719 0 5 2.238281 5 5s-2.238281 5-5 5zm0 0"/><path d="m176.335938 388.175781h-101.269532c-2.761718 0-5-2.238281-5-5s2.238282-5 5-5h101.269532c2.761718 0 5 2.238281 5 5s-2.238282 5-5 5zm0 0"/><path d="m181.429688 365.316406h-106.363282c-2.761718 0-5-2.238281-5-5 0-2.761718 2.238282-5 5-5h106.363282c2.761718 0 5 2.238282 5 5 0 2.761719-2.238282 5-5 5zm0 0"/><path d="m176.335938 411.039062h-101.269532c-2.761718 0-5-2.238281-5-5 0-2.761718 2.238282-5 5-5h101.269532c2.761718 0 5 2.238282 5 5 0 2.761719-2.238282 5-5 5zm0 0"/><path d="m54.382812 342.453125h-4c-2.765624 0-5-2.238281-5-5s2.234376-5 5-5h4c2.761719 0 5 2.238281 5 5s-2.238281 5-5 5zm0 0"/><path d="m54.382812 319.59375h-4c-2.765624 0-5-2.238281-5-5 0-2.765625 2.234376-5 5-5h4c2.761719 0 5 2.234375 5 5 0 2.761719-2.238281 5-5 5zm0 0"/><path d="m54.382812 296.730469h-4c-2.765624 0-5-2.238281-5-5s2.234376-5 5-5h4c2.761719 0 5 2.238281 5 5s-2.238281 5-5 5zm0 0"/><path d="m54.382812 388.175781h-4c-2.765624 0-5-2.238281-5-5s2.234376-5 5-5h4c2.761719 0 5 2.238281 5 5s-2.238281 5-5 5zm0 0"/><path d="m54.382812 365.316406h-4c-2.765624 0-5-2.238281-5-5 0-2.761718 2.234376-5 5-5h4c2.761719 0 5 2.238282 5 5 0 2.761719-2.238281 5-5 5zm0 0"/><path d="m54.382812 411.039062h-4c-2.765624 0-5-2.238281-5-5 0-2.761718 2.234376-5 5-5h4c2.761719 0 5 2.238282 5 5 0 2.761719-2.238281 5-5 5zm0 0"/><path d="m261.039062 96.445312h-12.738281c-2.761719 0-5-2.238281-5-5 0-2.761718 2.238281-5 5-5h12.738281c2.761719 0 5 2.238282 5 5 0 2.761719-2.238281 5-5 5zm0 0"/></g></svg>