<?xml version="1.0" encoding="UTF-8"?>
<svg width="235px" height="155px" viewBox="0 0 235 155" version="1.1" xmlns="http://www.w3.org/2000/svg" xmlns:xlink="http://www.w3.org/1999/xlink">
    <!-- Generator: Sketch 52.4 (67378) - http://www.bohemiancoding.com/sketch -->
    <title>ecuador</title>
    <desc>Created with Sketch.</desc>
    <g id="Elementos" stroke="none" stroke-width="1" fill="none" fill-rule="evenodd">
        <g id="Ecuador/PorqueEcuador" transform="translate(-395.000000, -74.000000)">
            <g id="ecuador" transform="translate(395.000000, 74.000000)">
                <path d="M235,116 L0,116 L0,150.894541 C0,153.161658 1.81436169,155 4.05190615,155 L230.948094,155 C233.185638,155 235,153.161658 235,150.894541 L235,116 Z" id="Path" fill="#FF4B55"></path>
                <path d="M235,77 L0,77 L0,4.05280072 C0,1.81476226 1.81436169,0 4.05190615,0 L230.948094,0 C233.185638,0 235,1.81476226 235,4.05280072 L235,77 Z" id="Path" fill="#FFE15A"></path>
                <rect id="Rectangle" fill="#41479B" x="0" y="78" width="235" height="39"></rect>
                <path d="M114,80.4117918 L143,55 L143,91.7773936 C143,97.9758513 138.084662,103 132.022457,103 C129.310453,103 126.694246,101.973744 124.678458,100.119402 L114,90.2945639 L114,80.4117918 Z" id="Path" fill="#FFE15A"></path>
                <path d="M128.839674,93.9276396 L120,86.1817379 L120,73.3526172 L136,60 L136,69.3265379 L136,90.8230984 C136,93.1260213 134.075263,95 131.709963,95 C130.648349,95 129.628897,94.6190238 128.839674,93.9276396 Z" id="Path" fill="#FF4B55"></path>
                <path d="M124.363464,69.7107427 L124.363464,84.2934611 L131.636062,90.6870355 L131.636062,69.2375204 L131.636062,63.6418744 L136,60 L136,69.3265379 L136,90.8230984 C136,93.1260213 134.075263,95 131.709963,95 C130.648349,95 129.628897,94.619485 128.839674,93.9276396 L120,86.1817379 L120,73.3526172 L124.363464,69.7107427 Z" id="Path" fill="#41479B"></path>
                <path d="M122,80.4117918 L93,55 L93,91.7773936 C93,97.9758513 97.9153381,103 103.977543,103 C106.689547,103 109.305754,101.973744 111.321542,100.119402 L122,90.2945639 L122,80.4117918 Z" id="Path" fill="#FFE15A"></path>
                <path d="M106.160326,93.9276396 L115,86.1817379 L115,73.3526172 L99,60 L99,69.3265379 L99,90.8230984 C99,93.1260213 100.924737,95 103.290037,95 C104.351651,95 105.371103,94.6190238 106.160326,93.9276396 Z" id="Path" fill="#FF4B55"></path>
                <g id="Group" transform="translate(91.000000, 53.000000)" fill="#41479B">
                    <path d="M19.4857241,16.2871333 L19.4857241,31.0417333 L12.4714483,37.5106667 L12.4714483,15.8083333 L12.4714483,10.1467333 L8.26251724,6.46193333 L8.26251724,15.8984 L8.26251724,37.6483333 C8.26251724,39.9784 10.1188879,41.8744667 12.4001724,41.8744667 C13.4240776,41.8744667 14.407319,41.4894667 15.1685086,40.7894667 L23.6941983,32.9522667 L23.6941983,19.9719333 L19.4857241,16.2871333 Z" id="Path"></path>
                    <rect id="Rectangle" x="50.7337931" y="0.448466667" width="2.01674138" height="12.3428667"></rect>
                    <rect id="Rectangle" x="0.233017241" y="0.448466667" width="2.01674138" height="12.3428667"></rect>
                </g>
                <g id="Group" transform="translate(85.000000, 36.000000)" fill="#5A4646">
                    <path d="M28.7183662,12.5738095 C28.7183662,12.5738095 31.5726338,-1.31666667 21.5829296,0.510952381 C11.5932254,2.33857143 11.5932254,5.26238095 0.17615493,11.1114286 C0.17615493,11.1114286 13.0201268,14.0357143 18.728662,12.5738095 C18.728662,12.5738095 23.0102958,18.4219048 27.2914648,19.8842857 L31.5730986,19.8842857 L28.7183662,12.5738095 Z" id="Path"></path>
                    <path d="M37.2816338,12.5738095 C37.2816338,12.5738095 34.4273662,-1.31666667 44.4170704,0.510952381 C54.4067746,2.33857143 54.4067746,5.26238095 65.8238451,11.1114286 C65.8238451,11.1114286 52.9798732,14.0357143 47.271338,12.5738095 C47.271338,12.5738095 42.9897042,18.4219048 38.7085352,19.8842857 L34.4269014,19.8842857 L37.2816338,12.5738095 Z" id="Path"></path>
                    <path d="M37.2816338,19.8842857 L28.718831,19.8842857 L28.718831,12.5195238 C28.718831,10.1266667 30.6119155,8.18714286 32.9474789,8.18714286 L33.0529859,8.18714286 C35.3885493,8.18714286 37.2816338,10.1266667 37.2816338,12.5195238 L37.2816338,19.8842857 Z" id="Path"></path>
                </g>
                <circle id="Oval" fill="#E6E1CD" cx="117.5" cy="48.5" r="2.5"></circle>
                <path d="M111,47.240665 L116.312518,49.8742793 C116.758372,50.0955268 117.307293,50.0194997 117.663884,49.6876284 C118.112039,49.2716147 118.112039,48.5976213 117.663884,48.1811805 L114.236928,45 L113.412857,45 C112.080356,45 111,46.0028749 111,47.240665 Z" id="Path" fill="#FFD0AF"></path>
                <path d="M112.765573,48 L109,48 L110.647667,45.6850163 C110.957088,45.2506515 111.409413,45 111.886166,45 L114,45 L114,46.5185668 C114,47.3364821 113.447113,48 112.765573,48 Z" id="Path" fill="#FFAF94"></path>
                <g id="Group" transform="translate(95.000000, 52.000000)" fill="#8CB400">
                    <path d="M35.04556,4.00141304 C34.09244,2.87928261 33.88912,1.39147826 34.35372,0.10226087 C35.71256,-0.133304348 37.15558,0.317282609 38.10824,1.44032609 C38.92244,2.39947826 39.15842,3.61884783 38.92888,4.76015217 C39.21132,5.23584783 39.55632,5.84758696 39.93582,6.56980435 C39.95468,6.46708696 39.95054,6.36528261 39.97998,6.26256522 C40.31302,5.10026087 41.24176,4.2776087 42.34208,3.99913043 C43.13006,4.81082609 43.48426,5.9955 43.15122,7.15734783 C42.8651,8.15713043 42.12634,8.88163043 41.22842,9.24867391 C41.58308,10.0562609 41.93406,10.9273043 42.26204,11.8462826 C42.2809,11.792413 42.28228,11.7376304 42.30436,11.6842174 C42.76436,10.5652826 43.77912,9.84945652 44.90336,9.69286957 C45.59612,10.5853696 45.81692,11.8015435 45.35738,12.9204783 C44.95488,13.8992609 44.11998,14.5447826 43.16594,14.8018043 C43.65722,16.7251304 43.98244,18.7657826 43.98244,20.8201304 L42.56978,20.8201304 C42.56978,19.0296522 42.29286,17.2364348 41.87472,15.5208261 C41.00302,15.8002174 40.0292,15.740413 39.18602,15.2281957 C38.15746,14.6027609 37.61466,13.5034565 37.63996,12.3872609 C38.6308,11.8576957 39.86406,11.8380652 40.89262,12.4639565 C40.92988,12.4863261 40.95472,12.5191957 40.9906,12.5429348 C40.68792,11.6801087 40.36592,10.8615652 40.03518,10.0936957 C39.1874,10.4913261 38.18966,10.5525 37.27426,10.1261087 C36.18222,9.61663043 35.5212,8.58352174 35.4223,7.47143478 C36.34506,6.83869565 37.56452,6.68576087 38.65288,7.1883913 C38.26418,6.44654348 37.9132,5.82521739 37.63812,5.3613913 C36.66522,5.25 35.7282,4.80534783 35.04556,4.00141304 Z" id="Path"></path>
                    <path d="M10.95444,4.00141304 C11.90756,2.87928261 12.11088,1.39147826 11.64628,0.10226087 C10.28744,-0.133304348 8.84442,0.317282609 7.89176,1.44032609 C7.07756,2.39947826 6.84158,3.61884783 7.07112,4.76015217 C6.78868,5.23584783 6.44368,5.84758696 6.06418,6.56980435 C6.04532,6.46708696 6.04946,6.36528261 6.02002,6.26256522 C5.68698,5.10026087 4.75824,4.2776087 3.65792,3.99913043 C2.86994,4.81082609 2.51574,5.9955 2.84878,7.15734783 C3.1349,8.15713043 3.87366,8.88163043 4.77158,9.24867391 C4.41692,10.0562609 4.06594,10.9273043 3.73796,11.8462826 C3.7191,11.792413 3.71772,11.7376304 3.69564,11.6842174 C3.23564,10.5652826 2.22088,9.84945652 1.09664,9.69286957 C0.40388,10.5853696 0.18308,11.8015435 0.64308,12.9204783 C1.04558,13.8992609 1.88048,14.5447826 2.83452,14.8018043 C2.34324,16.7251304 2.01802,18.7657826 2.01802,20.8201304 L3.43068,20.8201304 C3.43068,19.0296522 3.7076,17.2364348 4.12574,15.5208261 C4.99744,15.8002174 5.97126,15.740413 6.81444,15.2281957 C7.84346,14.6027609 8.3858,13.5034565 8.3605,12.3872609 C7.36966,11.8576957 6.1364,11.8380652 5.10784,12.4639565 C5.07058,12.4863261 5.04574,12.5191957 5.00986,12.5429348 C5.31254,11.6801087 5.63454,10.8615652 5.96528,10.0936957 C6.81306,10.4913261 7.8108,10.5525 8.7262,10.1261087 C9.81824,9.61663043 10.47926,8.58352174 10.57816,7.47143478 C9.6554,6.83869565 8.43594,6.68576087 7.34758,7.1883913 C7.73628,6.44654348 8.08726,5.82521739 8.36234,5.3613913 C9.33478,5.25 10.2718,4.80534783 10.95444,4.00141304 Z" id="Path"></path>
                </g>
                <path d="M117,86.4117918 L88,61 L88,97.7773936 C88,103.975851 92.9153381,109 98.9775434,109 C101.689547,109 104.305754,107.973744 106.321542,106.119402 L117,96.2945639 L117,86.4117918 Z" id="Path" fill="#FFE15A"></path>
                <path d="M102.160326,100.92764 L111,93.1817379 L111,80.3526172 L95,67 L95,76.3265379 L95,97.8230984 C95,100.126021 96.9247372,102 99.290037,102 C100.352124,102 101.371103,101.619485 102.160326,100.92764 Z" id="Path" fill="#FF4B55"></path>
                <path d="M106.636536,76.7107427 L106.636536,91.2934611 L99.3639378,97.6870355 L99.3639378,76.2375204 L99.3639378,70.6418744 L95,67 L95,76.3265379 L95,97.8230984 C95,100.126021 96.9247372,102 99.290037,102 C100.351651,102 101.371103,101.619485 102.160326,100.92764 L111,93.1817379 L111,80.3526172 L106.636536,76.7107427 Z" id="Path" fill="#41479B"></path>
                <path d="M118,86.4117918 L147,61 L147,97.7773936 C147,103.975851 142.084662,109 136.022457,109 C133.310453,109 130.694246,107.973744 128.678458,106.119402 L118,96.2945639 L118,86.4117918 Z" id="Path" fill="#FFE15A"></path>
                <path d="M132.839674,100.92764 L124,93.1817379 L124,80.3526172 L140,67 L140,76.3265379 L140,97.8230984 C140,100.126021 138.075263,102 135.709963,102 C134.647402,102 133.628897,101.619485 132.839674,100.92764 Z" id="Path" fill="#FF4B55"></path>
                <path d="M128.363464,76.7107427 L128.363464,91.2934611 L135.636062,97.6870355 L135.636062,76.2375204 L135.636062,70.6418744 L140,67 L140,76.3265379 L140,97.8230984 C140,100.126021 138.075263,102 135.709963,102 C134.648349,102 133.628897,101.619485 132.839674,100.92764 L124,93.1817379 L124,80.3526172 L128.363464,76.7107427 Z" id="Path" fill="#41479B"></path>
                <ellipse id="Oval" fill="#69C3FF" cx="118" cy="77" rx="14" ry="21"></ellipse>
                <path d="M105,82 L130.578704,82 L132,76.222379 L125.523869,77.3199435 C124.224755,77.5401151 122.896022,77.1637535 121.895884,76.2924764 L114.544576,69.8872725 C113.887845,69.3147324 113.050618,69 112.185622,69 C111.224361,69 110.301976,69.3881229 109.622568,70.0792169 L105,74.7780914 L105,82 Z" id="Path" fill="#009B64"></path>
                <path d="M115.538554,76.0594021 L118,74.5228945 L113.625029,70.8598971 C112.962763,70.3050218 112.118479,70 111.246191,70 C110.276828,70 109.346668,70.376148 108.661533,71.0459194 L104,75.5998176 L104,77 L111.164983,75.5998176 L112.431643,76.2185241 C113.424809,76.703641 114.604194,76.6425454 115.538554,76.0594021 Z" id="Path" fill="#F5F5F5"></path>
                <polygon id="Path" fill="#5AA0E6" points="105 82 106.444235 90.7269282 113.666353 98 118 98 123.777412 96.5456699 129.555765 90.7269282 131 82"></polygon>
                <path d="M117.5,100 C108.953087,100 102,89.9064179 102,77.5 C102,65.0935821 108.953087,55 117.5,55 C126.046913,55 133,65.0935821 133,77.5 C133,89.9064179 126.046913,100 117.5,100 Z M117.5,57.813416 C110.507905,57.813416 104.818224,66.645243 104.818224,77.500916 C104.818224,88.3565889 110.507446,97.188416 117.5,97.188416 C124.492554,97.188416 130.181776,88.3565889 130.181776,77.500916 C130.181776,66.645243 124.492095,57.813416 117.5,57.813416 Z" id="Shape" fill="#FFC88C" fill-rule="nonzero"></path>
                <g id="Group" transform="translate(97.000000, 95.000000)" fill="#E1E1E1">
                    <path d="M10.6838696,3.15413043 C9.45282609,1.4543913 7.62013043,0.349130435 5.54447826,0.349130435 C3.46882609,0.349130435 1.63613043,1.4543913 0.405086957,3.15413043 C2.50465217,3.73617391 4.22256522,5.44069565 5.03608696,7.68756522 C5.36369565,8.59243478 5.54495652,9.58530435 5.54495652,10.6288696 C5.54447826,6.996 7.73921739,3.97052174 10.6838696,3.15413043 Z" id="Path"></path>
                    <path d="M6.71047826,7.78704348 C6.71047826,7.78704348 6.59617391,9.74504348 5.59182609,10.6628261 L5.54973913,10.6283913 C4.54586957,9.7106087 4.43108696,7.7526087 4.43108696,7.7526087 L6.71047826,7.78704348 Z" id="Path"></path>
                </g>
                <path d="M135.297374,103 L99.7026255,103 C99.3142349,103 99,102.557655 99,102.012378 L99,101.987622 C99,101.441694 99.3146984,101 99.7026255,101 L135.297374,101 C135.685765,101 136,101.442345 136,101.987622 L136,102.012378 C136,102.557655 135.685765,103 135.297374,103 Z" id="Path" fill="#966446"></path>
                <path d="M125.177817,105 L110.822183,105 C109.263608,105 108,103.894407 108,102.530734 L108,102.469266 C108,101.105593 109.263608,100 110.822183,100 L125.177817,100 C126.736392,100 128,101.105593 128,102.469266 L128,102.530734 C127.999535,103.894407 126.735926,105 125.177817,105 Z" id="Path" fill="#BE915A"></path>
                <path d="M105,101 L100.624949,101 C100.280107,101 100,101.447557 100,102 C100,102.552443 100.2797,103 100.624949,103 L105,103 L105,101 Z" id="Path" fill="#B9B9B9"></path>
                <polygon id="Path" fill="#FF4B55" points="117 105 117 118 112 116.382762 114.499796 105"></polygon>
                <polygon id="Path" fill="#41479B" points="116 105 113.333189 115 108 113.571229 112.000434 105"></polygon>
                <polygon id="Path" fill="#FFE15A" points="110.200365 105 106 110.600182 110.200365 112 113 105"></polygon>
                <polygon id="Path" fill="#FF4B55" points="118 105 118 118 123 116.382762 120.500204 105"></polygon>
                <polygon id="Path" fill="#41479B" points="119 105 121.666811 115 127 113.571229 122.999566 105"></polygon>
                <polygon id="Path" fill="#FFE15A" points="124.799635 105 129 110.600182 124.799635 112 122 105"></polygon>
                <g id="Group" transform="translate(87.000000, 61.000000)" fill="#41479B">
                    <polygon id="Path" points="2.18758209 11.7702222 0.145283582 9.79333333 0.145283582 0.016 2.18758209 0.016"></polygon>
                    <polygon id="Path" points="61.836209 9.79333333 59.7939104 11.7702222 59.7939104 0.016 61.836209 0.016"></polygon>
                </g>
            </g>
        </g>
    </g>
</svg>