<?xml version="1.0" encoding="UTF-8"?>
<svg width="394px" height="348px" viewBox="0 0 394 348" version="1.1" xmlns="http://www.w3.org/2000/svg" xmlns:xlink="http://www.w3.org/1999/xlink">
    <!-- Generator: Sketch 52.4 (67378) - http://www.bohemiancoding.com/sketch -->
    <title>undraw_mobile_testing_reah (1)</title>
    <desc>Created with Sketch.</desc>
    <g id="Elementos" stroke="none" stroke-width="1" fill="none" fill-rule="evenodd">
        <g id="Amazon/FormaTrabajo-Copy" transform="translate(-315.000000, -123.000000)">
            <g id="undraw_mobile_testing_reah-(1)" transform="translate(315.000000, 123.000000)">
                <path d="M177.368256,134.730007 C162.037587,129.7643 145.828333,125.601431 129.262552,126.030462 C104.90835,126.663388 81.4921534,138.022071 69.9432192,154.809475 C60.1811652,169.035441 58.8781433,185.754879 54.6167945,201.573779 C49.3665072,221.062799 39.4007235,239.557829 28.7643291,257.645067 C23.0514053,267.359843 17.0243981,277.278514 16.0312153,287.953297 C14.6687721,302.773958 23.641373,317.590371 37.7878624,327.521786 C51.9343519,337.4532 70.7581385,342.74599 89.6710569,343.982107 C99.7344611,344.636272 110.252013,344.130781 119.211881,340.503139 C128.689562,336.680096 135.62062,329.683929 145.136501,325.903365 C153.956304,322.403157 164.236171,321.952888 174.129801,322.466874 C186.942651,323.115544 199.632435,325.291647 211.930171,328.949055 C225.720134,333.077941 238.533891,339.020648 252.294142,343.209003 C266.054394,347.397358 281.435995,349.767645 295.535797,346.39912 C308.773991,343.238738 319.274565,335.448227 328.743758,327.555769 C344.003271,314.869485 358.192127,300.946131 371.166248,285.927085 C379.718657,275.991423 387.685341,265.499295 391.505276,253.88999 C398.80135,231.690857 389.026563,206.556478 367.155318,191.268556 C349.036097,178.597294 324.660672,173.002909 300.790328,169.604649 C279.020948,166.474002 253.834849,166.163911 233.826883,158.190744 C214.74419,150.565898 197.384711,141.212188 177.368256,134.730007 Z" id="Path" fill-opacity="0.493034309" fill="#292E34" fill-rule="nonzero" opacity="0.1"></path>
                <ellipse id="Oval" fill="#292E34" fill-rule="nonzero" opacity="0.1" cx="372.894994" cy="208.5" rx="10" ry="1.5"></ellipse>
                <ellipse id="Oval" fill="#292E34" fill-rule="nonzero" opacity="0.1" cx="334.894994" cy="212.5" rx="10" ry="1.5"></ellipse>
                <ellipse id="Oval" fill="#292E34" fill-rule="nonzero" opacity="0.1" cx="290.894994" cy="207.5" rx="10" ry="1.5"></ellipse>
                <ellipse id="Oval" fill="#292E34" fill-rule="nonzero" opacity="0.1" cx="349.894994" cy="224" rx="7" ry="1"></ellipse>
                <ellipse id="Oval" fill="#292E34" fill-rule="nonzero" opacity="0.1" cx="310.894994" cy="223" rx="7" ry="1"></ellipse>
                <path d="M334.404184,213 C334.404184,213 348.080097,167.584135 332.265477,149.393855 C320.454078,135.785336 307.005956,137.426565 300.994797,139.097711 C297.845453,139.946856 295.223354,142.155048 293.82359,145.136919 C291.714412,149.731503 292.1025,157.189689 306.94268,165.895892 C331.793021,180.474616 333.341158,200.472812 333.341158,200.472812 L334.404184,213 Z" id="Path" fill="#292E34" fill-rule="nonzero"></path>
                <path d="M302.894994,145 C302.894994,145 343.710378,157.683477 334.557242,212" id="Path" stroke="#565987"></path>
                <path d="M326.894994,150 C326.894994,150 321.530631,153.597566 323.226357,159" id="Path" stroke="#565987"></path>
                <path d="M306.894994,153 C306.894994,153 310.48445,149.74532 314.894994,151.539771" id="Path" stroke="#565987"></path>
                <path d="M322.894994,171.198552 C322.894994,171.198552 329.251775,168.028183 330.894994,172" id="Path" stroke="#565987"></path>
                <path d="M337.894994,177.024304 C337.894994,177.024304 332.982957,176.631967 332.894994,179" id="Path" stroke="#565987"></path>
                <path d="M334.894994,213 C334.894994,213 318.972242,180.295923 314.618627,181.011576 C312.523528,181.350347 311.584924,183.416848 311.153334,185.487584 C310.617057,188.167912 310.920222,190.950497 312.020704,193.448696 C314.279221,198.682703 320.342437,208.621389 334.894994,213 Z" id="Path" fill="#292E34" fill-rule="nonzero"></path>
                <path d="M314.894994,187 C314.894994,187 331.656298,211.905172 334.894994,213" id="Path" stroke="#565987"></path>
                <path d="M312.894994,191 L316.894994,191" id="Path" stroke="#565987"></path>
                <path d="M317.894994,199.868278 L323.894994,200.131722" id="Path" stroke="#565987"></path>
                <path d="M321.894994,193 L320.894994,196" id="Path" stroke="#565987"></path>
                <path d="M327.954475,202 L327.835513,205" id="Path" stroke="#565987"></path>
                <path d="M334.894994,213 C334.894994,213 350.817745,180.295923 355.171361,181.011576 C357.26646,181.350347 358.205064,183.416848 358.636654,185.487584 C359.172931,188.167912 358.869766,190.950497 357.769283,193.448696 C355.510767,198.682703 349.447551,208.621389 334.894994,213 Z" id="Path" fill="#292E34" fill-rule="nonzero"></path>
                <path d="M354.894994,187 C354.894994,187 338.13369,211.905172 334.894994,213" id="Path" stroke="#565987"></path>
                <path d="M356.894994,191 L352.894994,191" id="Path" stroke="#565987"></path>
                <path d="M351.894994,199.868278 L345.894994,200.131722" id="Path" stroke="#565987"></path>
                <path d="M347.894994,193 L348.894994,196" id="Path" stroke="#565987"></path>
                <path d="M341.833388,202 L341.956599,205" id="Path" stroke="#565987"></path>
                <path d="M306.86682,220.516817 C306.422205,220.151341 306.097605,219.660143 305.935264,219.107145 C305.786941,218.533282 306.058219,217.933453 306.586491,217.667204 C307.185965,217.438024 307.824254,217.853143 308.311596,218.276909 C308.798938,218.700675 309.350971,219.172008 309.984947,219.085525 C309.322736,218.481889 309.024804,217.574245 309.200025,216.694271 C309.226526,216.514844 309.301048,216.345978 309.415663,216.205642 C309.747746,215.851062 310.351532,216.006732 310.748306,216.283477 C312.011946,217.178576 312.365592,218.899586 312.374218,220.447631 C312.435896,219.872736 312.435896,219.292867 312.374218,218.717972 C312.324171,218.136512 312.564872,217.567996 313.016819,217.200196 C313.316323,217.035644 313.654493,216.954986 313.995816,216.966692 C314.566474,216.885307 315.144793,217.050304 315.587226,217.420728 C316.065942,217.939626 315.940872,218.808779 315.522534,219.379567 C315.052006,219.902128 314.496387,220.340779 313.879372,220.676811 C313.406837,220.957044 313.004187,221.341532 312.701988,221.801089 C312.668073,221.86502 312.639232,221.931529 312.615732,222 L309.053391,222 C308.261302,221.606489 307.525806,221.107592 306.86682,220.516817 Z" id="Path" fill="#292E34" fill-rule="nonzero"></path>
                <path d="M368.866282,207.509566 C368.419971,207.146089 368.095059,206.654733 367.935,206.101214 C367.787258,205.529107 368.058589,204.931347 368.586035,204.666942 C369.185332,204.437976 369.823433,204.852706 370.310632,205.271755 C370.79783,205.690805 371.354012,206.170336 371.987802,206.079614 C371.322718,205.478431 371.022907,204.570635 371.198799,203.690599 C371.224895,203.511708 371.301147,203.343918 371.418685,203.206748 C371.75067,202.8525 372.349967,203.003704 372.746624,203.28451 C374.009891,204.17445 374.363433,205.876569 374.372056,207.444765 C374.435596,206.870511 374.435596,206.290979 374.372056,205.716725 C374.322025,205.13581 374.562654,204.567827 375.014468,204.200371 C375.315327,204.040188 375.652633,203.961277 375.993177,203.971406 C376.560687,203.881907 377.139363,204.039043 377.584117,204.403416 C378.067004,204.917507 377.941971,205.785847 377.519445,206.3561 C377.052117,206.888427 376.496354,207.335679 375.876767,207.67805 C375.404371,207.95802 375.00184,208.342148 374.69973,208.801275 C374.664277,208.864387 374.635382,208.930977 374.6135,209 L371.052208,209 C370.260567,208.602961 369.52542,208.101715 368.866282,207.509566 Z" id="Path" fill="#292E34" fill-rule="nonzero"></path>
                <path d="M347.864729,220.516817 C347.421071,220.151341 347.097169,219.660143 346.935177,219.107145 C346.787173,218.533282 347.057868,217.933453 347.585003,217.667204 C348.183187,217.438024 348.820102,217.853143 349.306396,218.276909 C349.792689,218.700675 350.343535,219.172008 350.976147,219.085525 C350.31453,218.482318 350.015702,217.574967 350.18861,216.694271 C350.218493,216.515067 350.294113,216.346712 350.408087,216.205642 C350.739455,215.851062 351.341943,216.006732 351.737863,216.283477 C352.998784,217.178576 353.351669,218.899586 353.360276,220.447631 C353.428978,219.87351 353.436192,219.29364 353.381794,218.717972 C353.331855,218.136512 353.572037,217.567996 354.023012,217.200196 C354.321872,217.035644 354.659314,216.954986 354.999903,216.966692 C355.569333,216.885307 356.146407,217.050304 356.587888,217.420728 C357.065574,217.939626 356.940773,218.808779 356.523336,219.379567 C356.05382,219.902128 355.499396,220.340779 354.883709,220.676811 C354.412191,220.957044 354.010407,221.341532 353.708858,221.801089 C353.675017,221.86502 353.646238,221.931529 353.622789,222 L350.068112,222 C349.270179,221.608174 348.528937,221.109215 347.864729,220.516817 Z" id="Path" fill="#292E34" fill-rule="nonzero"></path>
                <path d="M290.040931,194 C290.040931,194 288.638255,195.764356 290.687972,198.426139 C292.737689,201.087921 294.4209,203.340198 293.742186,205 C293.742186,205 290.651774,200.055446 288.136006,199.985743 C285.620239,199.91604 287.271777,196.975446 290.040931,194 Z" id="Path" fill="#292E34" fill-rule="nonzero"></path>
                <path d="M289.622847,194 C289.515314,194.169918 289.430719,194.356385 289.371747,194.553487 C287.245245,197.329635 286.111371,199.922742 288.155482,199.988114 C290.062272,200.049128 292.349636,203.832013 292.894994,204.782092 C292.894994,204.856181 292.85576,204.930269 292.832219,205 C292.832219,205 290.152511,200.053487 287.97108,199.983756 C285.789649,199.914025 287.221704,196.976624 289.622847,194 Z" id="Path" fill="#000000" fill-rule="nonzero" opacity="0.1"></path>
                <path d="M287.744167,196.261079 C287.744167,196.670636 287.812145,197 287.897118,197 C287.982091,197 288.045821,196.670636 288.045821,196.261079 C288.045821,195.851522 287.960848,196.046276 287.880124,196.046276 C287.799399,196.046276 287.744167,195.854386 287.744167,196.261079 Z" id="Path" fill="#FFD037" fill-rule="nonzero"></path>
                <path d="M287.132617,196.500169 C287.522218,196.856316 287.865067,197.06794 287.893118,196.980194 C287.92117,196.892447 287.631306,196.531139 287.241705,196.180153 C286.852104,195.829168 287.004828,196.082084 286.97366,196.180153 C286.942491,196.278223 286.743016,196.149184 287.132617,196.500169 Z" id="Path" fill="#FFD037" fill-rule="nonzero"></path>
                <path d="M296.747825,194 C296.747825,194 298.15105,195.764356 296.100531,198.426139 C294.050012,201.087921 292.366142,203.340198 293.049648,205 C293.049648,205 296.136743,200.055446 298.653495,199.985743 C301.170248,199.91604 299.518063,196.975446 296.747825,194 Z" id="Path" fill="#292E34" fill-rule="nonzero"></path>
                <path d="M297.16714,194 C297.274674,194.169918 297.359269,194.356385 297.41824,194.553487 C299.544743,197.329635 300.678617,199.922742 298.634506,199.988114 C296.727715,200.049128 294.440352,203.832013 293.894994,204.782092 C293.913089,204.85621 293.935366,204.92899 293.961692,205 C293.961692,205 296.637476,200.053487 298.818907,199.983756 C301.000338,199.914025 299.568284,196.976624 297.16714,194 Z" id="Path" fill="#000000" fill-rule="nonzero" opacity="0.1"></path>
                <path d="M299.045821,196.261079 C299.045821,196.670636 298.977843,197 298.89287,197 C298.807897,197 298.744167,196.670636 298.744167,196.261079 C298.744167,195.851522 298.82914,196.046276 298.909864,196.046276 C298.990588,196.046276 299.045821,195.854386 299.045821,196.261079 Z" id="Path" fill="#FFD037" fill-rule="nonzero"></path>
                <path d="M299.657371,196.500169 C299.26777,196.856316 298.924921,197.06794 298.896869,196.980194 C298.868818,196.892447 299.158681,196.531139 299.548283,196.180153 C299.937884,195.829168 299.78516,196.082084 299.816328,196.180153 C299.847496,196.278223 300.046972,196.149184 299.657371,196.500169 Z" id="Path" fill="#FFD037" fill-rule="nonzero"></path>
                <path d="M298.894994,204.001019 C298.894994,204.001019 295.139431,203.889768 294.006249,203.093894 C292.873067,202.29802 288.223116,201.348105 287.927881,202.623216 C287.632646,203.898326 282.283681,208.964536 286.521172,208.998768 C290.758664,209.032999 296.385496,208.348376 297.514336,207.668032 C298.643176,206.987687 298.894994,204.001019 298.894994,204.001019 Z" id="Path" fill="#A8A8A8" fill-rule="nonzero"></path>
                <path d="M286.464777,208.557964 C290.711043,208.592203 296.335065,207.907438 297.469431,207.226953 C298.338676,206.71338 298.673336,204.855956 298.773299,204 L298.894994,204 C298.894994,204 298.660297,206.995845 297.525931,207.66777 C296.391566,208.339696 290.77189,209.03302 286.521278,208.998782 C285.295641,208.998782 284.874056,208.570804 284.895788,207.924557 C285.082675,208.314017 285.552068,208.553685 286.464777,208.557964 Z" id="Path" fill="#000000" fill-rule="nonzero" opacity="0.2"></path>
                <circle id="Oval" fill="#292E34" fill-rule="nonzero" opacity="0.1" cx="55.8949939" cy="26" r="9"></circle>
                <circle id="Oval" fill="#292E34" fill-rule="nonzero" opacity="0.1" cx="214.894994" cy="11" r="9"></circle>
                <circle id="Oval" fill="#292E34" fill-rule="nonzero" opacity="0.1" cx="360.894994" cy="48" r="9"></circle>
                <circle id="Oval" fill="#292E34" fill-rule="nonzero" opacity="0.1" cx="16.3949939" cy="109.5" r="15.5"></circle>
                <circle id="Oval" fill="#292E34" fill-rule="nonzero" opacity="0.1" cx="31.3949939" cy="186.5" r="15.5"></circle>
                <circle id="Oval" fill="#292E34" fill-rule="nonzero" opacity="0.1" cx="319.394994" cy="118.5" r="15.5"></circle>
                <path d="M192.596141,148.065892 C192.041949,148.117267 191.479097,148.09158 190.929234,148.177205 C190.006099,148.358878 189.125191,148.708756 188.331457,149.208988 C184.391495,151.42668 180.672344,154.474935 179.040074,158.653443 C178.90578,158.910297 178.863066,159.204446 178.918844,159.488288 C179.015614,159.722281 179.174104,159.926312 179.377785,160.079102 L180.910474,161.457667 C181.104219,161.65653 181.335044,161.816448 181.590225,161.928605 C182.003786,162.0355 182.439756,162.022121 182.845817,161.890074 C187.058546,160.935353 191.535382,159.83507 194.492518,156.718314 C195.895318,155.24128 197.189877,153.207683 199.25511,153.152027 C200.121035,153.152027 200.930676,153.481683 201.783613,153.580152 C202.63655,153.678621 203.662672,153.318996 203.866164,152.496994 C203.932196,152.088183 203.884297,151.669307 203.727616,151.285398 L202.454705,147.094047 C202.108335,145.94667 198.614325,145.886732 197.449655,146.092232 C195.674507,146.396202 194.479529,147.894642 192.596141,148.065892 Z" id="Path" fill="#65617D" fill-rule="nonzero"></path>
                <path d="M207.132841,171.516899 C207.074236,172.964614 207.187259,174.429615 206.957028,175.864366 C206.754535,176.995723 206.40388,178.093377 205.914711,179.127127 C205.161819,180.789412 204.205157,182.344937 203.068224,183.755494 C202.009164,185.051955 200.740803,186.270629 199.171049,186.78057 C197.601295,187.290512 195.671544,186.923181 194.692018,185.557575 C193.89249,184.44694 193.854816,182.964652 193.91342,181.577439 C194.055744,178.167745 194.574809,174.710515 196.056657,171.659509 C196.692931,170.363048 197.500831,169.127088 198.149662,167.817662 C199.50593,165.099415 200.280342,161.875547 202.620321,160 C204.088356,160.700274 205.658276,161.145615 207.266793,161.318069 C207.890508,161.387214 209.673749,161.430429 209.883049,162.255843 C210.025374,162.813321 208.853291,164.373396 208.627246,164.922232 C207.733782,167.004548 207.22687,169.241503 207.132841,171.516899 Z" id="Path" fill="#65617D" fill-rule="nonzero"></path>
                <path d="M190.2361,110.3139 C190.739589,111.610499 191.377341,112.881675 191.494822,114.263019 C191.578737,115.110469 191.494822,115.957919 191.494822,116.80537 C191.565466,117.966454 191.756723,119.116828 192.065443,120.237544 L194.402471,129.898478 C194.750718,131.34338 195.098964,132.826419 194.918547,134.300982 C194.796871,135.284025 194.444428,136.237406 194.448624,137.224686 C194.493243,137.973334 194.611302,138.715664 194.801066,139.440769 C195.243542,141.680924 195.122361,143.997396 194.448624,146.177999 C194.379602,146.342292 194.354989,146.52214 194.377297,146.699181 C194.436037,146.974602 194.700369,147.144092 194.939526,147.275447 C197.455578,148.665728 200.198342,149.58855 203.037307,150 C205.599655,143.844024 207.389739,137.388636 208.365899,130.784063 C208.961694,126.784098 209.251201,122.733285 210.014826,118.76298 C210.032247,118.533633 210.128754,118.317717 210.287549,118.152816 C210.572859,117.911292 211.005021,118.063833 211.34068,118.224849 C215.62848,120.307142 219.753558,122.715171 223.680356,125.428177 C226.47577,121.772502 227.51945,117.051987 226.529265,112.542694 C226.036084,110.622264 225.332448,108.763342 224.431394,107.000369 C223.471406,104.85589 222.275056,102.827559 220.865013,100.953811 C217.751773,97.0131666 213.186806,94.4962391 208.487576,92.7886266 C205.630276,91.7462627 202.689061,90.9750829 199.752042,90.186954 C198.107311,89.7420426 195.350709,88.2929025 193.752131,89.4200115 C192.073834,90.5937302 190.957767,93.5047222 190.269665,95.3521639 C189.420273,97.6435993 188.957907,100.062807 188.901854,102.508882 C188.832759,105.173943 189.286205,107.826496 190.2361,110.3139 Z" id="Path" fill="#3F3D56" fill-rule="nonzero"></path>
                <path d="M223.894994,122.259538 C223.007311,123.220341 223.754833,124.754255 223.584942,126.052183 C223.473842,126.63825 223.262691,127.20119 222.960591,127.716732 L218.895938,135.634932 C218.216535,136.823192 217.707615,138.099722 217.383904,139.427577 C216.827509,142.284703 217.970029,145.495809 216.508963,148.020025 C216.037514,148.833336 215.306981,149.532868 215.111606,150.451531 C214.967198,151.121565 215.111606,151.821098 215.039402,152.49956 C214.941714,153.296015 214.512738,154.012403 214.27489,154.779361 C214.089361,155.516319 213.957357,156.265533 213.879892,157.021235 C213.364605,160.2438 211.663736,163.162496 209.105942,165.213348 C207.640314,166.445753 205.75837,167.081209 203.839307,166.991677 C201.945017,166.831543 200.06347,165.554686 199.676967,163.708932 C199.545301,163.081039 199.570784,162.381506 199.175787,161.871606 C198.615145,161.142576 197.434399,161.113077 196.894994,160.367191 L198.984659,156.95381 C199.634494,155.896084 200.29707,154.792003 200.403253,153.557286 C200.530671,152.044442 199.795891,150.535812 200.059222,149.039825 C200.284328,147.754539 201.214484,146.684171 201.494805,145.411528 C201.843083,143.831259 201.146528,142.234134 200.768519,140.658079 C199.842611,136.77694 200.878949,132.731452 201.911039,128.85874 C203.282913,123.734455 204.688765,118.530104 207.46649,114 C213.009199,116.962477 218.105942,119.806961 223.894994,122.259538 Z" id="Path" fill="#3F3D56" fill-rule="nonzero"></path>
                <path d="M224.589221,40.2368527 C224.922443,41.1390012 224.743016,42.1390242 224.678935,43.0964931 C224.529412,45.2242016 224.982252,47.3519102 224.879723,49.5094067 C224.777193,51.6669032 224.110748,53.726525 223.649364,55.8244457 C222.337835,61.8118176 222.653969,68.0502591 221.466331,74.0631635 C220.001007,81.5101435 216.254393,88.4464734 215.515323,96.0040942 C215.280359,98.4041495 215.310264,100.974421 213.990191,103 C206.145832,99.5605351 198.730724,95.2219361 191.894994,90.0720428 C193.398766,78.9611486 194.88545,67.7949341 194.684662,56.5861654 C194.587343,55.2349373 194.682268,53.8767896 194.966619,52.5520299 C195.323029,51.4392609 195.835011,50.3820436 196.48748,49.4115321 C198.140775,46.7348747 199.960681,44.1646028 201.776315,41.5985862 C202.93832,39.9559952 204.194312,38.2325513 206.048394,37.4623208 C207.902477,36.6920903 210.098326,37.0367791 212.11902,37.4027449 C214.551257,37.8453083 216.980647,38.2878717 219.407188,38.7304351 C220.923777,39.0070372 223.939865,38.4793655 224.589221,40.2368527 Z" id="Path" fill="#292E34" fill-rule="nonzero"></path>
                <path d="M166.135672,82.9676448 C165.140947,81.9740137 164.056075,81.0746377 162.894994,80.2810706 C164.408732,78.4417679 164.110248,75.7807396 164.481221,73.4262617 C164.785112,71.89689 165.246665,70.403018 165.858509,68.9685071 C166.012015,68.5640308 166.229481,68.116978 166.651622,68.0105369 C166.910811,67.9785158 167.173797,68.0198222 167.410623,68.129751 C168.689838,68.5810614 171.359133,68.5555155 172.352657,69.3814987 C173.550855,70.386303 172.454994,72.4895797 172.003005,73.7455851 C171.683201,74.5885989 166.771015,83.6062916 166.135672,82.9676448 Z" id="Path" fill="#BE6F72" fill-rule="nonzero"></path>
                <path d="M169.672605,162.120736 C170.302357,163.14306 170.713796,164.285286 170.880917,165.475219 C170.981262,166.66606 170.546436,167.970116 169.534631,168.599081 C168.522826,169.228047 167.072015,169.018391 165.867883,168.641012 C160.702327,166.956176 156.497547,163.143391 154.307384,158.158253 C153.926912,157.277701 153.596612,156.342639 152.923469,155.663356 C152.423457,155.222562 151.868279,154.849024 151.271969,154.552184 C149.628831,153.621315 148.044228,152.396928 147.283283,150.660983 C146.522339,148.925038 146.865182,146.606252 148.441424,145.574749 C149.433779,144.999778 150.614843,144.848696 151.719337,145.155438 C152.80914,145.465843 153.852535,145.921357 154.821649,146.509811 C156.443881,147.394556 158.425681,148.1577 159.838864,149.335963 C161.093167,150.371659 162.21786,151.772156 163.288199,152.992349 C164.513999,154.39623 165.662689,155.865991 166.729172,157.395108 C167.072015,157.84377 169.961095,161.714005 169.672605,162.120736 Z" id="Path" fill="#65617D" fill-rule="nonzero"></path>
                <path d="M138.622704,153.415414 C138.477715,155.576089 138.09883,157.714352 137.49279,159.792168 C137.14742,160.960166 136.691191,162.175399 135.73183,162.91828 C134.920301,163.44811 134.00074,163.787139 133.041356,163.91022 C132.706702,164.001599 132.357096,164.023514 132.013774,163.974632 C131.425366,163.850102 131.007511,163.339103 130.645086,162.853869 C129.220968,160.955872 127.835224,158.950522 127.234025,156.648879 C126.38126,153.312355 127.234025,149.735361 128.713572,146.617836 C129.245403,145.361062 130.02093,144.223815 130.994719,143.272724 C132.197878,142.276943 133.643461,141.623145 135.181796,141.379021 C136.755148,141.061257 138.686661,140.382788 138.801785,142.310843 C138.970174,146.012535 138.910365,149.721182 138.622704,153.415414 Z" id="Path" fill="#65617D" fill-rule="nonzero"></path>
                <path d="M162.561567,74 C165.493394,75.5175334 168.748148,77.4473937 169.360008,80.6907493 C169.738171,82.6716192 169.011587,84.6992478 169.13056,86.714124 C169.236786,88.486705 169.980365,90.1997748 169.886887,91.968105 C169.787632,92.8037017 169.645814,93.633686 169.461984,94.4548193 C169.211292,96.0233622 169.360008,97.6216607 169.296272,99.2072067 C169.156054,102.777873 167.962078,106.212515 167.384211,109.736423 C166.975194,112.252626 166.87957,114.809852 167.099526,117.349594 C167.239744,118.990401 167.524428,120.622705 167.524428,122.272013 C167.524463,123.459795 167.426401,124.645549 167.231246,125.817175 C166.661721,129.498174 165.514508,133.066057 163.832025,136.388899 C161.788244,140.414401 162.077178,145.608871 162.293878,150.118963 C162.388555,150.740527 162.309131,151.376182 162.064431,151.955306 C161.529053,152.928738 160.194859,153.069014 159.090113,152.975496 C154.993265,152.60099 151.193813,150.676147 148.467549,147.593992 C148.069867,147.206489 147.800045,146.706665 147.694226,146.161474 C147.600747,145.251804 148.33158,144.503664 148.858459,143.751274 C150.651548,141.200798 150.196902,137.744902 150.409353,134.612068 C150.56444,132.332835 151.10913,130.097097 152.019734,128.002083 C152.546613,126.790607 153.205212,125.596134 153.324185,124.278388 C153.434659,123.049909 153.060745,121.834182 152.69108,120.660963 L151.416372,116.614207 C149.440575,110.327283 147.452031,104.002102 144.460717,98.1317559 C142.498184,99.4091779 141.093466,101.384199 140.530369,103.657788 C139.417124,107.662035 141.00201,112.13387 139.485108,115.985089 C139.233964,116.51907 139.02512,117.071956 138.860502,117.638648 C138.771197,118.127791 138.736991,118.625408 138.758525,119.122175 C138.7979,123.265605 139.050342,127.404264 139.514851,131.52174 C139.537759,132.14536 139.712808,132.753907 140.024735,133.294321 C140.275427,133.655639 140.640843,133.923439 140.908532,134.267753 C141.652111,135.232683 141.511894,136.584436 141.333434,137.78741 L140.483629,143.474972 C140.468526,143.763351 140.372837,144.041703 140.207443,144.278372 C140.007063,144.472524 139.757175,144.607813 139.485108,144.669445 C136.785124,145.508219 133.938869,145.768921 131.131524,145.434588 C130.302964,145.33682 129.550886,144.779966 128.858295,144.312379 C128.786062,143.46222 129.844069,142.896864 129.88231,142.050957 C129.841261,141.549765 129.608367,141.083782 129.232209,140.750214 C127.651572,138.96488 125.765005,137.069026 125.782001,134.684331 C125.782001,134.059464 125.930717,133.434598 125.909471,132.809731 C125.854234,131.207182 124.749487,129.834175 124.362826,128.291137 C123.886935,126.382531 124.52004,124.401661 124.762234,122.450547 C125.093658,119.823556 124.702748,117.162559 124.337332,114.53982 L122.913908,104.916023 C122.748446,103.422285 122.452721,101.945886 122.030111,100.503699 C121.494266,99.0837394 120.865464,97.7006515 120.147793,96.3634257 C118.788104,93.6004098 117.670611,90.7268733 116.557366,87.8618383 C116.203598,87.083407 115.981058,86.2517653 115.898767,85.4006287 C115.835032,83.9426065 116.587109,82.5653493 117.521895,81.4431398 C119.272737,79.3577183 121.662378,77.908396 124.320336,77.3198699 C124.764551,77.1959148 125.231493,77.1769965 125.684273,77.2646096 C126.065047,77.3910066 126.422476,77.57913 126.74228,77.8214635 C133.4008,82.1783291 141.714426,83.1646753 149.206879,80.4867112 C149.631782,80.8097715 150.417851,80.6694953 150.906489,80.4399525 C152.270426,79.8150858 153.383671,78.7736413 154.581896,77.8894762 C156.812635,76.1976603 159.820945,74.5908603 162.561567,74 Z" id="Path" fill="#3F3D56" fill-rule="nonzero"></path>
                <path d="M74.0592249,182.868606 C74.2873629,183.517236 74.6307242,184.120738 75.0732809,184.650941 C76.6287398,186.64919 78.7986479,188.245248 79.7998134,190.577949 C80.0103589,191.077511 80.1650455,191.602474 80.3584036,192.110504 C80.94645,193.64381 81.9051275,195.012697 83.1513546,196.098533 C84.1019624,196.875997 85.1348783,197.550209 86.2321944,198.109482 C88.1314011,199.129774 90.1852943,200.052694 92.3423118,199.997657 C92.7760186,199.988473 93.2077675,199.937426 93.6313662,199.845248 C94.3027576,199.708103 94.9499507,199.47415 95.5520571,199.150942 C96.9399389,198.397365 98.1301657,196.92408 97.8551674,195.387292 C97.7996666,195.09433 97.705783,194.809711 97.5758723,194.540577 C97.3479692,194.112353 97.0849892,193.703161 96.7895492,193.317073 C96.063382,192.326416 95.3157305,191.310358 94.2544091,190.675321 C93.0598854,189.955613 91.5559887,189.777803 90.4817768,188.888752 C90.0579247,188.510814 89.6917683,188.074475 89.3946743,187.593277 C88.4210497,186.118816 87.6955636,184.499071 87.2462505,182.796635 C86.91969,181.526562 86.7005508,180.133715 85.7595412,179.202328 C84.8185315,178.270941 83.5251804,178.059262 82.2705008,177.847584 C81.8464974,177.761431 81.4143478,177.720271 80.9814465,177.72481 C80.3669973,177.745978 79.7310638,177.919554 79.1552862,177.635905 C78.5795087,177.352255 78.3861505,176.950065 77.6900612,177.005102 C77.1360013,177.078714 76.6137298,177.303019 76.1818676,177.652839 C74.5490655,178.842474 73.4662599,180.959262 74.0592249,182.868606 Z" id="Path" fill="#3F3D56" fill-rule="nonzero"></path>
                <path d="M88.9282524,184.856387 C89.2028023,186.335689 89.6251868,187.910993 90.731834,188.875376 C91.4372161,189.503752 92.4213719,189.896487 92.7719509,190.782323 C93.12253,191.668159 92.6705787,192.780908 92.0876881,193.59256 C91.3434357,194.618877 90.4210596,195.493375 89.3675323,196.171521 C88.4720772,196.743168 87.4034446,197.179541 86.3770503,196.926445 C85.5322814,196.72135 84.864914,196.092974 84.2355612,195.486416 C82.7910063,194.103116 81.3126607,192.667451 80.5016826,190.812869 C79.6569137,188.857921 79.6146752,186.593149 78.6938771,184.668747 C78.1574489,183.54727 77.3295754,182.565432 77.0043393,181.361045 C76.8585454,180.925696 76.8585454,180.452367 77.0043393,180.017018 C77.3255537,179.381712 77.9664047,178.988184 78.6600864,179.000271 C79.3401765,179.023726 80.0108671,179.171466 80.6410695,179.436643 C82.5479741,180.138914 84.4998841,180.703198 86.4826464,181.125404 C87.2725054,181.278134 87.7497998,181.27377 88.1721843,182.063604 C88.5624015,182.948568 88.8174534,183.890685 88.9282524,184.856387 Z" id="Path" fill="#FBBEBE" fill-rule="nonzero"></path>
                <path d="M94.5973493,197.277252 C94.3014793,197.727326 94.0917583,198.227883 93.9787432,198.753727 C93.8845553,199.162596 93.8696553,199.585579 93.9348421,200 C94.5584453,199.871425 95.1595726,199.652092 95.7188223,199.349081 C97.0079177,198.642595 98.1134267,197.261376 97.8580022,195.820621 C97.8064518,195.545966 97.7192506,195.279133 97.5985867,195.026817 C97.2109636,194.940446 96.8064286,195.065978 96.5369788,195.356245 C95.7938066,195.892243 95.1393764,196.54039 94.5973493,197.277252 Z" id="Path" fill="#FBBEBE" fill-rule="nonzero"></path>
                <path d="M79.0869248,164.77893 C78.9046404,165.18935 78.850407,165.649364 78.9319055,166.093819 C79.1246322,166.970412 79.9835229,167.474452 80.7586193,167.873302 L88.1283204,171.642651 C88.6395769,171.890097 89.1375009,172.166638 89.6198574,172.471031 C90.8767705,173.277496 91.8655423,174.417067 92.9381082,175.460212 C94.0106741,176.503358 95.2047416,177.480759 96.6250535,177.848928 C98.0429187,178.17396 99.5247723,177.970884 100.814764,177.274759 C101.509927,176.912461 102.155344,176.453983 102.733652,175.911658 C103.23425,175.452255 103.69677,174.94934 104.116256,174.408301 C104.476588,174.010286 104.734608,173.523221 104.866214,172.992604 C105.004475,172.190521 104.623211,171.401588 104.179102,170.73976 C103.92337,170.358215 103.643425,169.995073 103.34116,169.652785 C100.546623,166.422541 95.967269,164.748249 92.028941,164.090804 C90.4619892,163.827826 88.9746419,163.214212 87.4663461,162.714554 C85.9580503,162.214896 84.3617705,161.837961 82.7948187,162.070258 C81.2278669,162.302555 79.6860534,163.244892 79.0869248,164.77893 Z" id="Path" fill="#3F3D56" fill-rule="nonzero"></path>
                <path d="M79.0869248,164.77893 C78.9046404,165.18935 78.850407,165.649364 78.9319055,166.093819 C79.1246322,166.970412 79.9835229,167.474452 80.7586193,167.873302 L88.1283204,171.642651 C88.6395769,171.890097 89.1375009,172.166638 89.6198574,172.471031 C90.8767705,173.277496 91.8655423,174.417067 92.9381082,175.460212 C94.0106741,176.503358 95.2047416,177.480759 96.6250535,177.848928 C98.0429187,178.17396 99.5247723,177.970884 100.814764,177.274759 C101.509927,176.912461 102.155344,176.453983 102.733652,175.911658 C103.23425,175.452255 103.69677,174.94934 104.116256,174.408301 C104.476588,174.010286 104.734608,173.523221 104.866214,172.992604 C105.004475,172.190521 104.623211,171.401588 104.179102,170.73976 C103.92337,170.358215 103.643425,169.995073 103.34116,169.652785 C100.546623,166.422541 95.967269,164.748249 92.028941,164.090804 C90.4619892,163.827826 88.9746419,163.214212 87.4663461,162.714554 C85.9580503,162.214896 84.3617705,161.837961 82.7948187,162.070258 C81.2278669,162.302555 79.6860534,163.244892 79.0869248,164.77893 Z" id="Path" fill="#000000" fill-rule="nonzero" opacity="0.1"></path>
                <path d="M98.0291191,167.325816 C98.636904,168.001533 99.137007,168.765059 99.5121748,169.590055 C99.8497153,170.130444 99.9700036,170.776571 99.849233,171.400556 C99.6725254,171.82058 99.3892407,172.188323 99.0268111,172.468174 L98.2403422,173.188816 C98.0028023,173.433219 97.7265214,173.637572 97.4224144,173.793799 C96.9921905,173.953495 96.5328077,174.021702 96.0741819,173.993977 C95.0180664,173.993977 93.881057,173.993977 93.0226823,173.366752 C91.84972,172.530451 91.6384969,170.800021 92.1732958,169.469948 C92.7080947,168.139875 93.8271277,167.134535 94.9551489,166.235957 C95.871947,165.50197 97.3864616,166.654107 98.0291191,167.325816 Z" id="Path" fill="#FBBEBE" fill-rule="nonzero"></path>
                <path d="M101.964761,170.991597 C101.827472,171.68875 101.89368,172.41023 102.155623,173.071429 C102.342244,173.701681 102.524622,174.331933 102.707001,174.97479 C102.707001,174.97479 102.707001,174.97479 102.707001,175 C103.213772,174.559599 103.681995,174.077485 104.106654,173.558824 C104.471429,173.177271 104.732631,172.710351 104.86586,172.201681 C105.005825,171.432773 104.61986,170.676471 104.170275,170.042017 C103.911389,169.676253 103.627993,169.32813 103.322,169 C103.122656,169.256303 102.94876,169.508403 102.804553,169.672269 C102.433416,170.048127 102.147161,170.497839 101.964761,170.991597 Z" id="Path" fill="#FBBEBE" fill-rule="nonzero"></path>
                <path d="M82.6897226,139.567281 C81.8100561,143.267873 82.1840206,147.138607 82.6514762,150.915762 C83.0084423,153.791165 83.4079044,156.768652 82.5579851,159.537716 C82.243515,160.571329 81.7463122,161.621957 81.937544,162.689599 C82.2987597,164.70153 84.7210297,165.475676 86.7268392,165.854243 C87.3055013,166.001527 87.9068233,166.037611 88.498921,165.960582 C89.0929031,165.798684 89.6441514,165.508283 90.1137676,165.109871 C92.9648911,163.035292 95.130235,160.153873 96.3309273,156.836709 C97.091605,154.616354 97.333832,152.255632 97.5675599,149.920431 C97.9585227,145.990147 98.3537352,142.013075 97.7800397,138.108312 C97.6100558,136.959853 97.35508,135.824154 97.2488401,134.667187 C97.1150762,132.654897 97.2263833,130.633791 97.5803086,128.648409 C98.3120529,123.730046 99.4202084,118.875218 100.894994,114.126777 C96.8483563,114.66458 92.7350362,113.920875 89.1321109,112 C89.8290447,112.374313 89.0301205,118.342048 88.9451286,119.179999 C88.6872884,121.678118 88.2369061,124.15255 87.5980065,126.581182 C86.4123691,131.119724 83.7648705,135.058514 82.6897226,139.567281 Z" id="Path" fill="#3F3D56" fill-rule="nonzero"></path>
                <path d="M82.6897226,139.567281 C81.8100561,143.267873 82.1840206,147.138607 82.6514762,150.915762 C83.0084423,153.791165 83.4079044,156.768652 82.5579851,159.537716 C82.243515,160.571329 81.7463122,161.621957 81.937544,162.689599 C82.2987597,164.70153 84.7210297,165.475676 86.7268392,165.854243 C87.3055013,166.001527 87.9068233,166.037611 88.498921,165.960582 C89.0929031,165.798684 89.6441514,165.508283 90.1137676,165.109871 C92.9648911,163.035292 95.130235,160.153873 96.3309273,156.836709 C97.091605,154.616354 97.333832,152.255632 97.5675599,149.920431 C97.9585227,145.990147 98.3537352,142.013075 97.7800397,138.108312 C97.6100558,136.959853 97.35508,135.824154 97.2488401,134.667187 C97.1150762,132.654897 97.2263833,130.633791 97.5803086,128.648409 C98.3120529,123.730046 99.4202084,118.875218 100.894994,114.126777 C96.8483563,114.66458 92.7350362,113.920875 89.1321109,112 C89.8290447,112.374313 89.0301205,118.342048 88.9451286,119.179999 C88.6872884,121.678118 88.2369061,124.15255 87.5980065,126.581182 C86.4123691,131.119724 83.7648705,135.058514 82.6897226,139.567281 Z" id="Path" fill="#000000" fill-rule="nonzero" opacity="0.1"></path>
                <path d="M104.695709,118.352062 C106.380068,123.298404 106.009509,128.701398 105.281023,133.882468 C104.552538,139.063538 103.478759,144.244608 103.794576,149.464087 C103.916692,151.512616 104.245143,153.616625 103.655617,155.575531 C103.327993,156.53125 102.894297,157.446151 102.362871,158.302634 L88.9258954,181.852176 C88.2299167,183.093739 86.9632974,183.896068 85.5571769,183.986059 C84.1212607,184.088486 82.7106098,183.610496 81.3715443,183.077025 C80.4817854,182.778173 79.6549111,182.313559 78.9334343,181.707072 C78.2075109,181.094272 77.8236916,180.160027 77.9059752,179.20616 C78.5081336,175.117638 79.4134767,170.930958 80.0830095,166.829634 C80.5383906,164.046836 81.5315095,161.382574 83.0053727,158.989745 C84.0454645,157.282638 85.3255775,155.750509 86.2224988,153.975118 C88.7995684,148.887939 87.9068581,142.682605 85.9193142,137.330824 C83.9317703,131.979044 80.9715089,127.011362 79.3924222,121.540084 C78.9242854,120.017591 78.6566831,118.439084 78.5965624,116.84554 C78.5572543,113.522022 79.8237687,110.319116 82.1168732,107.942976 C82.4482241,107.562647 82.8658787,107.269709 83.3338228,107.089423 C83.8808485,106.96081 84.4507438,106.971072 84.9929166,107.119297 C92.4756825,108.591677 102.223911,111.045643 104.695709,118.352062 Z" id="Path" fill="#3F3D56" fill-rule="nonzero"></path>
                <path d="M226.843808,44.7339699 C227.089797,46.5800138 226.419689,48.4471312 225.465421,50.044507 C221.856169,56.029398 213.534955,58.6762371 207.10107,55.8903125 C204.450327,54.7396962 202.206738,52.8430758 200.009801,50.9717436 C199.271835,50.3395368 198.504179,49.6778271 198.130955,48.7843081 C197.47357,47.2037911 198.266673,45.3198149 199.560235,44.1902721 C200.853798,43.0607293 202.529068,42.5043873 204.195856,42.0028366 C209.696678,40.3000929 225.53328,34.9305499 226.843808,44.7339699 Z" id="Path" fill="#FBBEBE" fill-rule="nonzero"></path>
                <path d="M223.866418,39.0404134 C228.883458,43.0829947 236.18599,46.9340853 241.869986,49.9298508 C243.802884,50.9511344 245.948189,52.1000786 246.644882,54.1851995 C247.018717,55.3001008 246.895522,56.5128752 246.772326,57.6873515 C246.534431,59.9469416 246.288039,62.2405746 245.417173,64.3384615 C244.393374,66.7937977 242.583671,68.8193437 241.130811,71.0491464 C238.581935,74.9555565 237.086593,79.5598438 233.93873,83.0109316 C236.062795,90.0790659 238.386521,97.1386894 239.142687,104.474911 C239.184478,104.676672 239.162196,104.886476 239.078966,105.074915 C238.992034,105.198804 238.878896,105.301964 238.747612,105.377044 L233.46294,108.849409 C232.886696,109.186244 232.371139,109.617803 231.937862,110.126014 C231.003274,111.343043 231.12647,113.053694 230.548724,114.470725 C229.908716,115.868339 228.72741,116.944078 227.277665,117.449469 C225.833552,117.947977 224.295165,118.110954 222.778898,117.926068 C220.84866,117.80432 218.989925,117.148827 217.409263,116.032438 C216.062607,115.011154 215.10253,113.577101 214.176438,112.164326 C213.490293,111.200757 212.919939,110.159521 212.477187,109.062176 C211.912186,107.496208 211.878201,105.789813 211.899441,104.121717 C211.913469,100.947512 212.21634,97.7811963 212.804292,94.6620764 C213.050684,93.42377 213.356549,92.2024849 213.551963,90.9556677 C213.942791,88.445012 213.866325,85.883292 214.155197,83.3598702 C214.549872,80.52161 215.182241,77.7216443 216.045614,74.9895993 C216.518031,73.2973859 216.886888,71.5778644 217.150128,69.8406274 C217.647159,66.785287 218.636973,63.8363303 219.626786,60.9043951 L221.326038,55.8788283 C221.687129,54.7937143 222.052468,53.7128558 222.481529,52.6532739 C223.280177,50.6745368 224.308224,48.7468638 224.580104,46.6362109 C224.881721,44.3340672 222.400814,41.6021333 223.237695,39.4404162 C223.305665,39.2021166 223.675253,38.8872208 223.866418,39.0404134 Z" id="Path" fill="#3F3D56" fill-rule="nonzero"></path>
                <path d="M244.639666,53 C245.801273,53.5308258 246.442882,54.7963146 246.858041,56.0193372 C247.793896,58.7756521 248.019075,61.7283409 247.512231,64.5974824 C247.348404,65.3187572 247.236284,66.0510824 247.176749,66.7887313 C247.185447,67.6437473 247.268237,68.4963403 247.424167,69.3366952 C247.84352,72.5853492 247.424167,75.8849625 247.562553,79.1633427 C247.705133,82.8493971 248.497709,86.7435353 246.971266,90.0941078 C245.956433,92.3193296 244.035799,93.9755062 242.140326,95.4788049 C235.08348,101.048337 227.297271,105.598835 219.004648,109 C220.43464,107.258891 220.459802,104.638735 219.507871,102.587624 C218.555941,100.536513 216.786274,98.9949951 214.894994,97.797452 C217.302274,97.2556532 219.633616,96.4125936 221.835278,95.2877076 C226.230092,93.0285129 229.995877,89.7204065 233.715534,86.4462728 C234.264246,86.0467558 234.691372,85.4994702 234.94843,84.8665352 C235.325848,83.5925533 234.285853,82.3822704 233.564567,81.2654129 C231.379741,77.8681277 231.887157,73.4304239 232.801345,69.4980663 C233.820372,65.1877607 235.31746,60.8944415 238.047445,57.4292106 C239.750016,55.2634413 241.972585,53.5987715 244.639666,53 Z" id="Path" fill="#3F3D56" fill-rule="nonzero"></path>
                <path d="M218.142028,108.818126 C217.767284,109.457943 217.280709,110.017993 216.707809,110.468917 C215.457036,111.342351 213.739309,111.010446 212.342613,110.390308 C211.044632,109.813642 209.847063,109.015239 208.798757,108.027667 C208.348094,107.525775 207.81589,107.111739 207.226953,106.804859 C206.134612,106.368142 204.60867,106.69568 203.995791,105.643191 C203.924477,105.532658 203.889362,105.400855 203.895729,105.267614 C203.933252,104.88767 204.408546,104.782858 204.775439,104.761022 C206.477566,104.643148 208.129652,104.109185 209.599252,103.201942 C209.12984,102.846603 208.72821,102.402205 208.415187,101.89179 C208.285368,101.713655 208.215051,101.495758 208.215064,101.271652 C208.266005,101.028115 208.393784,100.809655 208.577788,100.651513 C211.318868,97.9418499 215.352198,97.2377152 218.784091,98.8697068 C219.111628,99.00852 219.399008,99.2342872 219.61794,99.5247827 C219.772253,99.7926254 219.875606,100.089227 219.922294,100.398217 C220.193295,101.621025 221.173067,103.455238 220.818681,104.691148 C220.426772,106.110479 218.946692,107.617153 218.142028,108.818126 Z" id="Path" fill="#FBBEBE" fill-rule="nonzero"></path>
                <path d="M189.696669,102.827768 C194.940314,96.7552371 197.283937,88.764175 199.458954,81.035115 L201.014343,75.5415239 L204.765826,62.3104212 C205.31801,60.3580834 205.870195,58.4057457 206.236913,56.4153754 C206.86497,52.9797681 206.923982,49.4680956 206.886046,45.9775524 C206.832488,44.5305569 206.501921,43.1073803 205.912346,41.7855198 C205.545628,40.8727386 205.368592,39.9007955 205.069317,38.9584334 C204.688553,37.6446363 204.119166,36.3933618 203.379042,35.2439207 C203.172995,34.9021851 202.915663,34.5943136 202.6161,34.3311394 C202.097383,33.9777145 201.509785,33.7386225 200.892104,33.6296501 C199.552059,33.2301939 198.163381,33.0183064 196.765473,33 C195.366044,33.0507101 193.924463,33.5366816 193.022421,34.6015931 C192.335352,35.4171801 192.019216,36.4736399 191.475462,37.390647 C191.222349,37.7661091 190.992879,38.1570563 190.788392,38.5612045 C190.556641,39.1751849 190.428435,39.8235535 190.409029,40.4797355 C190.189841,43.1420143 190.00297,45.8071102 189.848414,48.4750234 C189.776757,49.6878393 189.713529,50.9091068 189.759896,52.1261485 C189.797832,53.0727365 189.898996,54.0150987 190.000159,54.9574609 L190.99915,64.1866938 C191.230983,66.3545494 191.066592,68.3829522 191.260489,70.5550336 C191.732586,75.7993001 190.607141,81.0435667 189.45219,86.1906389 C188.900006,88.6373998 188.330961,91.1179675 187.150719,93.3323073 C186.109577,95.2930967 184.549972,97.283467 184.963057,99.4682259 C185.106372,100.228877 185.48995,100.938818 185.548962,101.707921 C185.520106,102.184216 185.56706,102.662081 185.688062,103.123577 C186.041018,103.767545 186.768513,104.109157 187.487931,103.968745 C188.322572,103.821829 189.092905,103.423895 189.696669,102.827768 Z" id="Path" fill="#3F3D56" fill-rule="nonzero"></path>
                <path d="M189.878335,78.9759527 C190.044005,80.1971287 189.917572,81.4353246 189.978609,82.6650106 C190.115432,84.2487634 190.407416,85.8160794 190.850559,87.3454761 C191.286535,89.0474636 191.844583,90.9536895 193.383576,91.8982926 C193.769569,92.0940172 194.138476,92.320288 194.486593,92.5748326 C194.837658,92.8450562 194.980124,93.2994856 194.844093,93.7151642 L193.645161,93.5194356 C194.016367,93.7964071 194.192197,94.2564241 194.097549,94.7030007 C194.002901,95.1495774 193.654507,95.5037657 193.201175,95.6142823 C192.747843,95.7247989 192.269717,95.5721061 191.971016,95.2214231 C192.016476,95.6047935 191.979351,95.9932049 191.862022,96.3617547 C191.737653,96.7321784 191.389259,96.9871942 190.990071,97 C190.764049,96.9657405 190.550028,96.8780996 190.366627,96.7447019 L187.236325,94.8512408 C186.298381,94.358465 185.51831,93.6221758 184.982332,92.7237565 L183.61337,90.7111563 C183.311614,90.3232426 183.072,89.8928341 182.902731,89.4346657 C182.392639,87.7326782 183.818279,85.8434721 183.077121,84.239349 C182.854498,83.8440177 182.593144,83.4706722 182.296725,83.1245472 C180.714135,80.9970628 180.814409,78.1036841 180.988799,75.4656036 C181.045476,74.5763151 181.211147,73.5210829 182.03514,73.1338807 C182.689103,72.823268 183.473858,73.099841 184.079864,73.4870431 C184.685869,73.8742453 185.222119,74.3848415 185.91096,74.6146098 C186.346935,74.7592788 186.826508,74.7762986 187.262483,74.9294775 C187.872848,75.137971 188.439616,75.95067 188.849433,76.4314815 C189.42891,77.1693473 189.78531,78.0507231 189.878335,78.9759527 Z" id="Path" fill="#FBBEBE" fill-rule="nonzero"></path>
                <path d="M152.928187,40.8529612 C152.561396,41.6909451 152.046514,42.456644 151.408011,43.1136712 C150.757388,43.779465 149.827868,44.0984486 148.903174,43.9732568 C147.944426,43.784148 147.240481,42.9976272 146.605635,42.2540857 C144.94726,40.3157202 143.267292,38.3515673 142.153072,36.0564738 C140.451511,32.5622585 140.179434,28.5737816 139.933269,24.7013486 C139.872807,23.7042294 139.820983,22.6469392 140.300357,21.7744598 C140.909291,20.6612965 142.200578,20.1369493 143.392534,19.6942628 L149.978526,17.244444 C150.382174,17.0541931 150.828919,16.9726833 151.274131,17.0080579 C152.306297,17.179975 152.686341,18.4177782 152.967055,19.4191954 C153.469488,21.2187355 154.304268,22.9094224 155.428705,24.4047916 C156.905694,26.3646467 160.218124,29.0035743 158.326541,31.4490952 C156.041958,34.380282 154.59088,37.5435568 152.928187,40.8529612 Z" id="Path" fill="#BE6F72" fill-rule="nonzero"></path>
                <path d="M160.989429,29.6268299 C163.834131,32.310608 164.796561,36.4901223 164.660288,40.4004042 C164.524014,44.310686 163.442346,48.1226766 162.824858,51.9859495 C162.20737,55.8492225 162.083873,59.9731809 163.757478,63.524486 C164.33238,64.7424427 165.115951,65.8706551 165.516253,67.1569883 C165.851885,68.4283457 165.965707,69.7484073 165.852678,71.058723 C165.845777,72.4400503 165.582958,73.8080445 165.077624,75.0929373 C164.170556,77.1100444 162.305317,78.5117629 160.52099,79.7938225 C156.879941,82.4348653 153.166497,85.1186435 148.890926,86.4989943 C145.995122,87.4348978 142.928975,87.7425921 139.896897,87.9092599 C137.843981,88.0734437 135.7794,88.0146983 133.739053,87.7340451 C130.169939,87.1371491 126.890013,85.3946911 124.391565,82.7682008 C123.956247,82.3448496 123.597463,81.8488803 123.33119,81.3023794 C123.071027,80.5912082 122.94538,79.8375661 122.960697,79.0801427 C122.858492,76.2738566 122.875526,73.4675706 123.011799,70.6612846 C123.089991,67.9868852 123.456951,65.3288805 124.106243,62.7338826 C124.919624,59.7424102 126.329199,56.9389732 127.398092,54.0244243 C131.120053,43.8918798 130.745302,32.3618904 135.915165,22.9002904 C137.030902,20.8575421 138.896141,18.7079555 141.195751,19.0327439 C141.63812,19.0594525 142.054449,19.2515772 142.36259,19.571209 C142.626833,19.9601702 142.774604,20.4169094 142.788444,20.8874568 C143.337795,25.4857773 144.117107,30.2037567 146.276185,34.3533563 C147.127892,35.981572 148.405453,38.4602206 150.368639,38.8961209 C152.331824,39.3320211 153.490146,37.451667 154.542005,36.1183251 C156.390326,33.6732526 158.559043,31.4897111 160.989429,29.6268299 Z" id="Path" fill="#E3E8F4" fill-rule="nonzero"></path>
                <path d="M174.496607,22.6841857 C175.084888,22.9972765 175.634102,23.3768147 176.133131,23.815118 C177.428534,25.0225795 177.903514,26.8720364 177.894878,28.6237059 C177.886242,30.3753755 177.463078,32.1015353 177.203997,33.8361983 C176.508798,38.5129859 177.100365,43.3003157 177.376718,48.036626 C177.46094,48.8013264 177.414233,49.5745219 177.238541,50.3240003 C177.026959,51.0382733 176.59084,51.6675138 176.31017,52.3605287 C175.48543,54.409812 176.107223,56.7482058 175.623607,58.8995281 C175.105446,61.191154 173.330745,63.2744503 173.663231,65.6000892 C173.797089,66.509937 174.241844,67.3475071 174.431837,68.2488516 C174.621829,69.1501961 174.457745,70.2386121 173.667549,70.7232974 C172.877354,71.2079827 171.728764,70.8550978 170.787438,71.1229502 C170.405025,71.2619555 170.032795,71.426742 169.673392,71.6161387 C168.218224,72.2623857 166.482385,72.0413012 165.048806,71.3355314 C163.643772,70.580457 162.380479,69.5939875 161.31373,68.4189166 C159.668569,66.7607828 158.075224,64.9453389 157.354117,62.7387455 C156.300523,59.5415235 157.237531,56.0594425 158.381803,52.8877302 C159.526075,49.7160179 160.890565,46.5102926 160.687619,43.1387539 C160.575351,41.2510324 159.97083,39.4355885 159.608117,37.58188 C159.159142,35.0135329 158.998409,32.4043559 159.128818,29.8014061 C159.184952,27.8966781 159.314493,25.9324273 160.147868,24.2105191 C161.355078,21.8765057 163.684536,20.3068318 166.331255,20.0439266 C169.35386,19.720803 171.944664,21.2386332 174.496607,22.6841857 Z" id="Path" fill="#3F3D56" fill-rule="nonzero"></path>
                <path d="M166.943614,64.088858 C166.972771,65.421656 167.210674,66.7415315 167.648584,68 C168.390877,66.3005901 168.477961,64.3929191 168.577486,62.5435613 C168.992175,56.1749393 170.397969,50.1686914 171.894994,44 C170.804363,44.8330441 170.190624,46.9156543 169.668117,48.1652204 C167.594468,53.2041797 166.663785,58.6436545 166.943614,64.088858 Z" id="Path" fill="#000000" fill-rule="nonzero" opacity="0.1"></path>
                <path d="M137.955709,18.2597561 C135.897309,18.8002805 134.112223,20.0175247 132.11788,20.813415 C130.046668,21.6646347 127.817446,22.0264031 125.643741,22.5499032 C120.613044,23.7671473 115.560995,26.0271355 112.52464,30.2108801 C110.286877,33.2880392 109.36017,37.088735 107.827046,40.5744795 C106.545884,43.4984191 104.837667,46.2393464 103.893878,49.2824567 C102.659692,53.2533964 102.80062,57.5094947 103.103828,61.6549345 C103.351519,65.0598132 103.727327,68.5029967 105.277533,71.5205704 C106.088936,73.103839 107.207817,74.5211197 108.01922,76.1043883 C108.992903,78.0068643 109.505368,80.1051207 110.316771,82.062926 C111.128174,84.0207312 112.319654,85.9785364 114.202963,87 L117.320457,85.182646 C121.971076,82.4715114 126.621695,79.7561207 131.127115,76.8109006 C135.056012,74.2572416 139.019074,71.3247899 141.111639,67.1282769 C142.965053,63.4212153 143.148687,59.0885072 142.670386,54.9728602 C142.192086,50.8572131 141.098827,46.8309441 140.535116,42.7280653 C139.817003,37.5640859 139.925109,32.319282 140.855406,27.1890503 C141.28246,24.8737328 142.418424,22.4818056 142.653304,20.1750003 C142.913807,17.7107194 139.736525,17.7915852 137.955709,18.2597561 Z" id="Path" fill="#3F3D56" fill-rule="nonzero"></path>
                <path d="M118.537663,86.2539629 C120.954432,88.4818084 124.43043,89.1303684 127.452472,90.4653911 C129.69783,91.4809483 131.719611,92.9111789 133.405766,94.6768192 C134.335293,95.6707162 135.234556,97.0225847 134.767631,98.2860131 C134.374203,99.3725616 133.16798,99.9284701 132.061195,100.332767 C130.68636,100.838139 129.15156,101.28455 127.781049,100.774967 C126.9769,100.475956 126.328393,99.8779329 125.589095,99.4525787 C123.777599,98.4039331 121.494855,98.3997217 119.635801,97.4310932 C117.015833,96.0665905 115.710172,93.0638422 113.245846,91.4424424 C111.896951,90.5580425 110.033574,89.8336769 109.895226,88.2543913 C109.888872,87.6832954 110.012918,87.1179644 110.25839,86.5993001 C110.755579,85.310603 111.602961,80.8843921 113.496602,81.0023121 C115.558854,81.1328663 117.002863,85.1884716 118.537663,86.2539629 Z" id="Path" fill="#FBBEBE" fill-rule="nonzero"></path>
                <path d="M106.466314,65.951215 C107.254292,68.7356496 109.084297,71.1096129 110.983196,73.3185412 C112.348165,74.9054151 113.846616,76.6319338 113.893981,78.7096806 C113.93704,80.6731725 112.602213,82.4800928 110.879855,83.4829971 C109.157497,84.4859014 107.129421,84.8075078 105.135792,84.9344577 C103.54094,85.0853609 101.931663,84.9752541 100.373473,84.6086196 C96.4378862,83.559167 93.7079494,80.1865312 90.6120115,77.5798264 C88.7733947,76.0352692 86.7065656,74.6896002 85.2985382,72.75573 C83.8905108,70.8218597 83.2962974,68.0458884 84.6827953,66.0950916 C85.1831235,65.4627338 85.7617026,64.894129 86.405153,64.4024261 C88.7566115,62.398728 90.7619104,60.0335674 92.3429809,57.3990229 C92.9802533,56.3368754 93.5916902,55.1858629 94.6638579,54.5468817 C96.201062,53.6286107 98.1731615,54.0475454 99.9127428,54.4961017 C101.80303,54.9827431 107.129421,55.9348674 107.499728,58.3045989 C107.650434,59.2778816 106.423255,60.7928171 106.238101,61.838038 C106.002444,63.2087412 106.080402,64.6138196 106.466314,65.951215 Z" id="Path" fill="#FBBEBE" fill-rule="nonzero"></path>
                <path d="M116.147772,71.774297 C116.703049,72.775029 117.160109,73.8266189 117.512621,74.914501 C118.805412,79.3824422 116.495342,83.9852647 115.39329,88.5037864 C113.986055,94.2910348 114.583706,100.343831 114.515888,106.299681 C114.486217,109.022596 114.193749,112.019488 112.222772,113.907826 C111.714133,114.38834 111.103766,114.792984 110.760434,115.39995 C110.548242,115.844697 110.39029,116.313082 110.289943,116.795127 C109.680257,118.904985 108.13481,120.622331 106.093576,121.458252 C104.052343,122.294172 101.73894,122.157092 99.8119744,121.086037 C98.2055221,120.196664 96.8110028,118.65396 94.9714242,118.607594 C94.3929947,118.635365 93.8168482,118.698712 93.2462893,118.797271 C91.415188,118.978518 89.6222346,118.304111 87.9055771,117.64235 C87.4958515,117.513679 87.1135936,117.310753 86.7780934,117.043815 C86.4686712,116.761407 86.2694542,116.382054 85.9854639,116.078571 C84.9385148,114.957371 83.1498001,115.151262 81.6408369,114.839349 C79.3425525,114.327918 77.5477108,112.543079 77.033413,110.257602 C76.7282294,108.807629 76.9867877,107.307075 77.2411074,105.844456 L78.3770684,99.3280063 C78.8537697,96.9377833 79.1835833,94.5208985 79.3646763,92.0907845 C79.5039372,89.3445494 79.2672318,86.5922327 78.6610586,83.909394 C78.1608967,81.7175738 77.4148924,79.572119 77.1436182,77.3381484 C76.6709258,73.3344723 77.7300915,69.3004747 80.1106805,66.0376291 C80.6998543,65.2325566 81.4712905,64.4274842 82.4716144,64.3516135 C83.2811985,64.2799578 84.0399188,64.7098918 84.7435364,65.1229656 C90.8556848,68.7197988 97.0102199,72.2421663 103.207141,75.6900681 C104.902606,76.6384519 106.636218,77.5910507 108.52666,78.05892 C109.094641,78.2022313 109.908464,78.1432208 109.988998,77.5699755 C109.999103,77.3514672 109.941392,77.1351544 109.82369,76.9503648 C108.764025,74.9229311 107.22963,73.18212 106.008896,71.2516322 C104.788162,69.3211444 103.847179,67.0365933 104.207465,64.7941926 C104.69915,61.691924 107.598394,59.6392 109.967805,62.0712775 C112.625445,64.8321279 114.405682,68.3811907 116.147772,71.774297 Z" id="Path" fill="#35CC62" fill-rule="nonzero"></path>
                <path d="M97.1913309,111.274124 C102.145997,111.595623 107.210484,111.938556 111.797669,113.867554 C113.271819,114.484833 114.834672,115.282152 116.384853,114.900639 C117.156423,114.662346 117.874105,114.271955 118.496816,113.751814 C120.406606,112.330686 122.210862,110.76899 123.894994,109.079353 C123.726037,108.140574 122.471531,108.011974 121.533819,108.020547 C119.247382,108.034382 116.991872,107.484195 114.961389,106.417336 C114.293965,106.009969 113.586061,105.675186 112.849426,105.418543 C110.843061,104.856991 108.798681,105.928656 106.783868,106.451629 C103.801776,107.223228 100.659174,106.773129 97.6137235,106.318742 L89.3939626,105.08847 C88.6294319,104.977017 87.7677509,104.886997 87.1595055,105.367103 C86.7529138,105.756999 86.4742247,106.264294 86.3611834,106.820282 C85.3558889,110.249611 85.8374166,110.536818 89.1827663,110.751151 L97.1913309,111.274124 Z" id="Path" fill="#FBBEBE" fill-rule="nonzero"></path>
                <circle id="Oval" fill="#000000" fill-rule="nonzero" opacity="0.1" cx="210.394994" cy="38.5" r="13.5"></circle>
                <circle id="Oval" fill="#FBBEBE" fill-rule="nonzero" cx="209.394994" cy="38.5" r="13.5"></circle>
                <path d="M221.444404,20.763481 C222.541404,21.4212765 223.689826,22.1290312 224.289748,23.2364592 C224.612341,23.9882922 224.857784,24.7692185 225.02251,25.5678864 C225.772412,28.0658442 227.769295,30.2349042 227.889279,32.8369436 C228.022119,35.6887787 225.819549,38.1659202 223.325588,39.6605316 C222.756367,40.0681486 222.070053,40.2923533 221.362986,40.3016741 C220.638795,40.2558782 220.013162,39.8145723 219.348963,39.5314704 C216.533615,38.3157976 213.384026,39.8562049 210.401557,40.5639596 C207.302262,41.2911425 204.050323,41.1056343 201.059917,40.031062 C199.452983,39.4482052 197.893186,38.5739199 196.886175,37.2208595 C195.879163,35.867799 195.51921,33.9735144 196.376241,32.5205356 C196.804757,31.7794748 197.516092,31.1091895 197.468956,30.2640471 C197.443245,29.756129 197.134714,29.2981701 197.04044,28.7985785 C196.903315,28.0033953 197.331831,27.2290284 197.768917,26.5504165 C199.752132,23.4498021 202.258226,20.6955138 205.182237,18.4029109 C206.039268,17.7201358 207.029139,17.0540137 208.15185,17.0040545 C210.405842,16.9082995 212.342733,18.5402986 214.661002,18.5486251 C217.292088,18.5569516 219.181842,19.4062573 221.444404,20.763481 Z" id="Path" fill="#3F3D56" fill-rule="nonzero"></path>
                <circle id="Oval" fill="#000000" fill-rule="nonzero" opacity="0.1" cx="159.894994" cy="21" r="14"></circle>
                <circle id="Oval" fill="#BE6F72" fill-rule="nonzero" cx="159.894994" cy="21" r="14"></circle>
                <path d="M167.750505,29.1310621 C169.756856,30.2540746 172.232505,30.1379009 174.471352,29.625876 C175.7411,29.3874093 176.944963,28.8797617 178.001842,28.1371314 C179.065392,27.3776466 179.720952,26.1720589 179.780004,24.8670566 C179.780004,23.425642 178.832799,22.1262176 178.716551,20.684803 C178.574471,18.8690509 179.758476,17.1909862 179.883335,15.3666287 C180.008194,13.5422711 179.108349,11.8986283 178.230032,10.3324345 C176.718811,7.64322827 175.147312,4.91960015 172.848188,2.8628952 C170.549064,0.806190239 167.363012,-0.506142422 164.349179,0.186597114 C162.868095,0.526512786 161.494649,1.32251784 159.983427,1.47741612 C158.640118,1.6021953 157.314032,1.19773867 155.975029,1.02562947 C154.636026,0.853520269 153.133415,0.96108852 152.173294,1.88617548 C151.648026,2.40250308 151.312199,3.12966446 150.696516,3.5083047 C150.279019,3.70075408 149.847168,3.86043731 149.404873,3.98590774 C147.850596,4.60980359 147.140193,6.36101471 146.589092,7.93581391 L142.894994,18.5162271 C144.130665,19.3767731 145.62036,19.7683215 146.972279,20.4309419 C148.324199,21.0935624 149.637369,22.1520339 149.912919,23.6321731 C150.123887,24.7551856 149.723478,26.0460046 150.377911,26.9839998 C150.976372,27.8445458 152.194821,27.9908386 153.228135,27.8445458 C154.26145,27.698253 155.299069,27.3411264 156.332383,27.5003274 C158.915669,27.8918758 159.87579,29.4752805 162.265329,27.5003274 C164.654868,25.5253743 165.528879,27.8832704 167.750505,29.1310621 Z" id="Path" fill="#3F3D56" fill-rule="nonzero"></path>
                <circle id="Oval" fill="#000000" fill-rule="nonzero" opacity="0.1" cx="100.394994" cy="52.5" r="12.5"></circle>
                <circle id="Oval" fill="#FBBEBE" fill-rule="nonzero" cx="101.394994" cy="51.5" r="12.5"></circle>
                <path d="M110.445609,39.2563006 C107.416489,36.9100818 104.012974,35.1029747 100.381637,33.912803 C98.0575507,33.1506695 95.5298947,32.6283084 93.1718801,33.3304988 C89.9741409,34.2510533 85.6949382,35.6254625 83.7143756,38.3271829 C82.7389379,39.654494 81.7507771,41.0203399 81.2800224,42.6088316 C80.338513,45.8029416 81.6786795,49.2068523 81.5896178,52.537975 C81.483592,56.4214304 79.4436549,59.9666356 77.2171124,63.1350557 C74.9905698,66.3034757 74.5410203,70.8420234 73.2262999,74.4985514 C72.7767503,75.7530745 72.6325552,77.4957055 73.7903573,78.1251079 C74.8082054,78.6945672 76.0381051,77.9838135 76.9796145,77.2987497 L82.6413941,73.1669586 C83.0814712,72.8017437 83.5888518,72.5281612 84.1342379,72.3620087 C85.3005221,72.0879832 86.4413601,72.8244267 87.4167978,73.5223355 L99.2916914,82 C99.7669054,81.0206249 99.7871011,79.8788394 99.3468248,78.8829597 C100.462217,79.2297733 101.272254,80.1674543 102.251933,80.8353915 C103.231611,81.5033287 104.720214,81.7216928 105.432708,80.7882934 C106.145201,79.854894 105.60659,78.6003709 104.813517,77.8468007 C104.020444,77.0932305 102.977149,76.6436574 102.20104,75.868679 C100.661545,74.3230038 100.504627,71.882464 99.5334303,69.9300322 C98.8379008,68.5599046 97.714027,67.4124227 97.2220671,65.9523805 C96.4205118,63.5675022 97.468047,60.9985129 98.4943771,58.7035492 C99.7200358,55.9804206 101.106854,53.0731811 103.715089,51.6516737 C104.592983,51.1721291 105.56418,50.8895403 106.463279,50.4528121 C108.702545,49.369555 111.497386,46.8134107 112.591572,44.5227286 C113.550046,42.4889454 112.074166,40.5236687 110.445609,39.2563006 Z" id="Path" fill="#3F3D56" fill-rule="nonzero"></path>
                <path d="M91.7811639,81.4142366 C93.0080134,82.1877601 94.3930282,82.6823079 95.598504,83.4896465 C96.8039799,84.2969852 97.8598399,85.5227875 97.8940378,86.9599349 C97.9282357,88.3336787 97.0390904,89.5383464 96.184143,90.6288877 L85.7708838,104.1423 L91.0801071,105.532952 C90.2251597,106.699577 90.0071481,108.187448 89.5625755,109.556964 C89.1180028,110.926481 88.2801544,112.350948 86.8609417,112.710235 C85.5785206,113.035707 84.2362532,112.367856 82.9110848,112.44394 C81.93217,112.503117 81.0088268,112.959622 80.029912,112.997664 C78.7688646,113.04416 77.5975867,112.38899 76.5460014,111.695778 C74.2034456,110.144504 71.8779887,107.921153 71.8950876,105.131396 C71.9505779,104.187871 72.142023,103.257013 72.4636276,102.367001 C73.9982582,97.4172958 75.5884603,92.3492377 78.7688646,88.232233 C80.4787594,86.0342429 82.5691058,84.1786319 84.6594522,82.3357017 C85.1347352,81.8625326 85.6940796,81.4799579 86.3095006,81.2071183 C87.6774165,80.6998898 89.1692997,81.3254716 90.5842376,81.7312544 C91.9991755,82.1370372 93.7817408,82.1962139 94.5982156,81" id="Path" fill="#000000" fill-rule="nonzero" opacity="0.1"></path>
                <path d="M90.7767151,80.4436491 C92.0035506,81.212641 93.3885496,81.7112181 94.5940117,82.518237 C95.7994738,83.3252559 96.8553218,84.5505725 96.893794,85.9829254 C96.9322662,87.4152783 96.0388563,88.5645408 95.1839187,89.6546501 L84.7665035,103.150034 L90.0756662,104.540135 C89.2207286,105.706298 89.0027195,107.189354 88.5581519,108.562554 C88.1135843,109.935753 87.2757455,111.35543 85.856549,111.714575 C84.5741425,112.039918 83.2318904,111.372331 81.906737,111.448386 C80.9278334,111.503314 80.0045008,111.963864 79.0255971,111.997665 C77.7645641,112.044143 76.5932995,111.389232 75.5417262,110.696295 C73.1991971,109.149861 70.8737667,106.923164 70.8951401,104.138738 C70.9463472,103.195426 71.136433,102.264534 71.459399,101.375438 C72.994012,96.4234683 74.5841961,91.3574178 77.7645641,87.2462691 C79.4744394,85.0449244 81.5690366,83.1900485 83.6550845,81.3309474 C84.1326169,80.860635 84.6914317,80.4785696 85.3051142,80.202811 C86.6730144,79.6957835 88.1648806,80.3211175 89.5798024,80.7309648 C90.9947242,81.1408121 92.7772692,81.19574 93.5937347,80" id="Path" fill="#35CC62" fill-rule="nonzero"></path>
                <g id="Group" opacity="0.1" transform="translate(195.894994, 27.000000)" fill="#000000" fill-rule="nonzero">
                    <path d="M1.81894737,8.10428571 C2.80842105,9.49714286 4.34526316,10.4014286 5.92,10.9971429 C8.85742294,12.1077006 12.0540225,12.2987425 15.0989474,11.5457143 C18.0463158,10.8171429 21.1242105,9.23142857 23.8905263,10.4828571 C24.5431579,10.7785714 25.1536842,11.2285714 25.8652632,11.28 C26.5614431,11.2672097 27.2366216,11.0351368 27.7978947,10.6157143 C29.5031579,9.54428571 31.0694737,7.98428571 31.8189474,6.14571429 C31.8189474,6.24 31.8189474,6.33428571 31.8442105,6.43285714 C31.9747368,9.36857143 29.8105263,11.9185714 27.36,13.4571429 C26.8006924,13.8767488 26.1263319,14.107548 25.4315789,14.1171429 C24.72,14.07 24.1052632,13.6157143 23.4526316,13.3242857 C20.6863158,12.0728571 17.5915789,13.6585714 14.6610526,14.3871429 C11.6157348,15.1357138 8.42043096,14.9447494 5.48210526,13.8385714 C3.90315789,13.2385714 2.37052632,12.3385714 1.38105263,10.9457143 C0.391578947,9.55285714 0.0378947368,7.60285714 0.88,6.10714286 L0.943157895,6 C1.0794733,6.75845753 1.37851019,7.47696246 1.81894737,8.10428571 Z" id="Path"></path>
                    <path d="M2.37894737,0.942857143 C2.41263158,1.60285714 2.02105263,2.15571429 1.64631579,2.71714286 C1.59410244,2.5779473 1.55326213,2.43460384 1.52421053,2.28857143 C1.39789474,1.52142857 1.76,0.775714286 2.16,0.102857143 C2.27474164,0.369818031 2.34858238,0.653110868 2.37894737,0.942857143 Z" id="Path"></path>
                </g>
                <path d="M147.534956,6.83456617 L143.895936,17.2729079 C145.113184,18.1222441 146.580668,18.5129388 147.91243,19.162681 C149.244193,19.8124232 150.537784,20.8613533 150.809226,22.3222116 C151.017049,23.4305953 150.622609,24.7045996 151.267284,25.6346227 C151.856822,26.4839589 153.057105,26.6240994 154.075013,26.4839589 C155.09292,26.3438185 156.115069,25.9870973 157.132977,26.1442244 C159.677746,26.5306724 160.623552,28.093451 162.977463,26.1654579 C165.331375,24.2374647 166.183872,26.5264257 168.372374,27.7579632 C170.348811,28.8705936 172.787548,28.7559332 174.993015,28.2463315 C176.243493,28.0122543 177.429383,27.5126778 178.470866,26.7812266 C178.618953,26.6599941 178.760527,26.5309976 178.894994,26.3947786 C178.570266,27.0907669 178.081151,27.697108 177.469923,28.1613979 C176.428802,28.8943544 175.242888,29.3953891 173.992072,29.6307495 C171.786606,30.1361045 169.326662,30.2507649 167.371431,29.1423812 C165.18293,27.9108437 164.283778,25.6643495 161.976521,27.5498758 C159.669263,29.4354022 158.668321,27.9150904 156.132034,27.5498758 C155.114127,27.3927486 154.096219,27.7452232 153.07407,27.8896103 C152.051921,28.0339975 150.85588,27.8896103 150.266342,27.0402741 C149.621667,26.1144977 150.016106,24.8404934 149.808283,23.7321097 C149.536841,22.2712514 148.24325,21.2223212 146.911488,20.572579 C145.579725,19.9228369 144.112242,19.5278955 142.894994,18.682806 L146.550979,8.21473748 C146.975107,7.06388694 147.441648,5.81960942 148.289904,5 C147.996006,5.59322375 147.743746,6.20623018 147.534956,6.83456617 Z" id="Path" fill="#000000" fill-rule="nonzero" opacity="0.1"></path>
                <g id="Group" opacity="0.1" transform="translate(72.894994, 37.000000)" fill="#000000" fill-rule="nonzero">
                    <path d="M27.4989474,42.0685714 C28.4294737,42.4971429 29.6042105,42.5614286 30.1936842,41.76 C30.8547368,40.9028571 30.3663158,39.5742857 29.5789474,38.8157143 C28.7915789,38.0571429 27.7557895,37.6114286 26.9852632,36.8357143 C25.4568421,35.2928571 25.3010526,32.85 24.3368421,30.8957143 C23.6463158,29.52 22.5305263,28.3714286 22.0421053,26.91 C21.2463158,24.5271429 22.2863158,21.9514286 23.3052632,19.6585714 C24.5221053,16.9328571 25.8989474,14.0228571 28.4884211,12.6 C29.36,12.12 30.3242105,11.8371429 31.2168421,11.4 C33.44,10.3157143 36.2147368,7.75285714 37.3010526,5.46 C38.2147368,3.52714286 36.9263158,1.65 35.3936842,0.377142857 C36.1389474,0.87 36.8673684,1.38857143 37.5747368,1.94142857 C39.1957895,3.22714286 40.6568421,5.17714286 39.68,7.20428571 C38.5936842,9.49714286 35.8189474,12.0557143 33.5957895,13.14 C32.7031579,13.5685714 31.7389474,13.86 30.8673684,14.34 C28.2778947,15.7628571 26.9010526,18.6728571 25.6842105,21.3985714 C24.6610526,23.6957143 23.6210526,26.2671429 24.4210526,28.6542857 C24.9094737,30.1157143 26.0252632,31.2642857 26.7157895,32.6357143 C27.6926316,34.59 27.8357895,37.0328571 29.3642105,38.58 C30.1347368,39.3557143 31.1705263,39.8014286 31.9578947,40.56 C32.7452632,41.3185714 33.2210526,42.63 32.5726316,43.5042857 C31.9242105,44.3785714 30.3831579,44.1985714 29.4147368,43.5514286 C28.7621053,43.1014286 28.1684211,42.51 27.4989474,42.0685714 Z" id="Path"></path>
                    <path d="M1.96210526,38.2671429 L7.58315789,34.1357143 C8.01990315,33.7689075 8.52359919,33.4936276 9.06526316,33.3257143 C10.2231579,33.0557143 11.3557895,33.7928571 12.3242105,34.4914286 L24.1136842,42.9771429 C24.5856273,41.9953629 24.6056739,40.85114 24.1684211,39.8528571 C25.2505263,40.1957143 26.0378947,41.1128571 26.9768421,41.7557143 C26.8403759,41.6927295 26.6996676,41.6397378 26.5557895,41.5971429 C26.9928987,42.5939682 26.9728483,43.7368378 26.5010526,44.7171429 L14.7115789,36.2314286 C13.7431579,35.5328571 12.6063158,34.7957143 11.4526316,35.07 C10.9111687,35.2363102 10.4074378,35.5101526 9.97052632,35.8757143 L4.34947368,40.0114286 C3.41473684,40.6971429 2.19368421,41.4085714 1.18315789,40.8385714 C0.620592365,40.4867061 0.285149364,39.8561168 0.303157895,39.1842857 C0.899541405,38.9680334 1.45922263,38.6586157 1.96210526,38.2671429 Z" id="Path"></path>
                </g>
                <path d="M215.894994,102.499154 C215.894994,102.499154 191.707221,104.277889 186.894994,101.131194 L209.022796,98 L215.894994,102.499154 Z" id="Path" fill="#E3E8F4" fill-rule="nonzero"></path>
                <path d="M215.894994,102.499154 C215.894994,102.499154 191.707221,104.277889 186.894994,101.131194 L209.022796,98 L215.894994,102.499154 Z" id="Path" fill="#000000" fill-rule="nonzero" opacity="0.1"></path>
                <path d="M216.894994,103 L210.020886,98.6059587 C210.020886,98.6059587 189.514202,104.556944 183.894994,102.100432 L189.61271,94 L209.930945,98.0004805 L216.894994,103 Z" id="Path" fill="#E3E8F4" fill-rule="nonzero"></path>
                <path d="M185.844757,45.407338 C185.07419,46.3616762 184.456108,47.4253271 184.011699,48.5618268 C183.811412,49.1636981 183.711269,49.791181 183.54146,50.4015895 C183.063683,51.9216716 182.327672,53.3518098 181.364431,54.6317633 C179.21788,57.6923431 176.53578,60.6462081 175.995876,64.321465 C175.734633,66.1356162 176.022001,67.9796475 176.387742,69.7767244 C176.585724,70.9617524 176.930806,72.1185923 177.4153,73.2214774 C177.968265,74.3910713 178.791182,75.4198018 179.422521,76.5509784 C179.999213,77.6612906 180.485479,78.8145563 180.876776,80 C181.62132,79.2700709 182.06108,78.2925636 182.657586,77.4388454 C183.254092,76.5851271 184.14232,75.8167808 185.191649,75.803975 C186.402077,75.803975 187.399156,76.7857509 188.596522,76.9394202 C188.783397,76.9763531 188.977226,76.9585383 189.153842,76.8881971 C189.589248,76.6875733 189.62408,76.1113135 189.589248,75.6503057 C189.245277,72.4275194 187.364324,69.2474191 188.252552,66.1228104 C189.071115,63.2329743 191.997042,61.4273603 193.534025,58.8363255 C194.648664,56.9538768 194.979573,54.7342095 195.275649,52.5743024 C195.645744,49.9918048 196.020193,47.3879642 195.854738,44.7883923 C195.772011,43.4779348 194.709621,35.1968681 192.767711,36.0633921 C192.092832,36.3621935 191.505034,37.629965 191.08269,38.1976876 L189.341067,40.6179788 L185.844757,45.407338 Z" id="Path" fill="#3F3D56" fill-rule="nonzero"></path>
                <polygon id="Path" fill="#E3E8F4" fill-rule="nonzero" points="134.894994 99.2663934 121.337762 110 103.894994 106.967213 115.6401 98"></polygon>
                <polygon id="Path" fill="#000000" fill-rule="nonzero" opacity="0.1" points="135.894994 98.2663934 122.337762 109 104.894994 105.967213 116.6401 97"></polygon>
                <polygon id="Path" fill="#E3E8F4" fill-rule="nonzero" points="135.894994 98.2704918 122.339604 109 104.894994 105.971311 116.642717 97"></polygon>
                <polygon id="Path" fill="#000000" fill-rule="nonzero" opacity="0.1" points="135.894994 96.2663934 122.335391 107 104.894994 103.967213 116.642717 95"></polygon>
                <polygon id="Path" fill="#E3E8F4" fill-rule="nonzero" points="135.894994 96.2663934 122.337762 107 104.894994 103.967213 116.6401 95"></polygon>
                <path d="M315.915956,248.226931 C316.580664,247.901166 317.362251,247.927473 318.003893,248.297207 C318.645535,248.66694 319.064265,249.332293 319.122491,250.074635 L319.894994,260.165273 L315.311763,261 L312.894994,253.70483 L315.915956,248.226931 Z" id="Path" fill="#3F3D56" fill-rule="nonzero"></path>
                <path d="M158.44389,181.519066 L89.5120067,216.653224 C87.8998815,217.479222 86.8878608,219.146218 86.8950318,220.963892 C86.9022027,222.781567 87.9273443,224.440455 89.5459362,225.253596 L238.00841,300.084071 C243.372156,302.781913 249.720871,302.622221 254.943438,299.658099 L317.475382,264.242799 C319.021445,263.356804 319.95189,261.683781 319.892293,259.89698 C319.832696,258.110179 318.792856,256.503449 317.191223,255.723362 L162.680828,181.472209 C161.337819,180.826521 159.772418,180.843833 158.44389,181.519066 Z" id="Path" fill="#3F3D56" fill-rule="nonzero"></path>
                <path d="M88.2241142,211 L86.0654699,212.604491 L85.8958318,220.287369 C85.8679071,221.509538 86.5398503,222.640319 87.6261401,223.199223 L238.616738,300.749607 C239.313529,301.109406 240.147287,301.079792 240.816843,300.671463 C241.486399,300.263134 241.894978,299.535107 241.894994,298.750361 L241.894994,287.591085 L88.2241142,211 Z" id="Path" fill="#3F3D56" fill-rule="nonzero"></path>
                <path d="M158.448263,172.521274 L89.5182464,207.652264 C87.904967,208.475889 86.890527,210.141412 86.8950087,211.959135 C86.8994904,213.776859 87.9221307,215.437314 89.5394517,216.252903 L238.010627,291.085705 C243.374735,293.781353 249.722153,293.621685 254.945197,290.659719 L317.475447,255.239059 C319.021468,254.353036 319.951889,252.679961 319.892293,250.893104 C319.832697,249.106248 318.792886,247.499468 317.191296,246.719357 L162.685086,172.470155 C161.341457,171.825782 159.776094,171.844669 158.448263,172.521274 Z" id="Path" fill="#E3E8F4" fill-rule="nonzero"></path>
                <polygon id="Path" fill="#3F3D56" fill-rule="nonzero" points="171.894994 179 95.8949939 217.625659 226.518402 283 304.894994 243.180697"></polygon>
                <ellipse id="Oval" fill="#3F3D56" fill-rule="nonzero" cx="274.894994" cy="267" rx="8" ry="5"></ellipse>
                <circle id="Oval" fill="#3F3D56" fill-rule="nonzero" cx="128.394994" cy="191.5" r="1"></circle>
                <circle id="Oval" fill="#3F3D56" fill-rule="nonzero" cx="125.894994" cy="197" r="1"></circle>
                <path d="M129.894994,196 L138.894994,192" id="Path" stroke="#3F3D56"></path>
                <path d="M185.202334,221.480758 L214.271549,221.479468 C218.495134,221.47928 221.919178,224.90302 221.919365,229.126605 C221.919365,229.126831 221.919365,229.127058 221.919365,229.127284 L221.919365,229.127284 C221.919178,233.351354 218.494939,236.775592 214.27087,236.775779 L185.201655,236.77707 C180.97807,236.777257 177.554026,233.353517 177.553839,229.129933 C177.553839,229.129706 177.553839,229.12948 177.553839,229.129254 L177.553839,229.129254 C177.554026,224.905184 180.978264,221.480946 185.202334,221.480758 Z" id="Rectangle" fill="#292E34" fill-rule="nonzero" transform="translate(199.736602, 229.128269) rotate(-30.000000) translate(-199.736602, -229.128269) "></path>
                <path d="M207.719894,232.954427 L236.789109,232.953137 C241.012694,232.952949 244.436738,236.376689 244.436925,240.600274 C244.436925,240.6005 244.436925,240.600726 244.436925,240.600953 L244.436925,240.600953 C244.436738,244.825022 241.0125,248.24926 236.78843,248.249448 L207.719215,248.250738 C203.49563,248.250926 200.071586,244.827186 200.071399,240.603601 C200.071399,240.603375 200.071399,240.603149 200.071399,240.602922 L200.071399,240.602922 C200.071586,236.378853 203.495824,232.954615 207.719894,232.954427 Z" id="Rectangle" fill="#292E34" fill-rule="nonzero" transform="translate(222.254162, 240.601938) rotate(-30.000000) translate(-222.254162, -240.601938) "></path>
                <path d="M164.809152,208.309962 L193.878367,208.308672 C198.101952,208.308484 201.525996,211.732224 201.526183,215.955809 C201.526183,215.956035 201.526183,215.956262 201.526183,215.956488 L201.526183,215.956488 C201.525996,220.180557 198.101758,223.604795 193.877688,223.604983 L164.808473,223.606274 C160.584888,223.606461 157.160844,220.182721 157.160657,215.959136 C157.160657,215.95891 157.160657,215.958684 157.160657,215.958457 L157.160657,215.958457 C157.160844,211.734388 160.585082,208.31015 164.809152,208.309962 Z" id="Rectangle" fill="#292E34" fill-rule="nonzero" transform="translate(179.343420, 215.957473) rotate(-30.000000) translate(-179.343420, -215.957473) "></path>
            </g>
        </g>
    </g>
</svg>