<?xml version="1.0" encoding="UTF-8"?>
<svg width="75px" height="94px" viewBox="0 0 75 94" version="1.1" xmlns="http://www.w3.org/2000/svg" xmlns:xlink="http://www.w3.org/1999/xlink">
    <!-- Generator: Sketch 52.4 (67378) - http://www.bohemiancoding.com/sketch -->
    <title>report copy</title>
    <desc>Created with Sketch.</desc>
    <g id="Elementos" stroke="none" stroke-width="1" fill="none" fill-rule="evenodd">
        <g id="Ecuador/PorquePadeco" transform="translate(-117.000000, -1099.000000)" fill-rule="nonzero">
            <g id="Group-2-Copy" transform="translate(117.000000, 1099.000000)">
                <g id="report-copy">
                    <path d="M72.6347608,23.4906951 L62.5857178,23.4906951 L62.5857178,79.4141387 C62.5857178,80.1105781 61.9990639,80.6967898 61.3020992,80.6967898 L21.8766713,80.6967898 L21.8766713,91.6544378 C21.8766713,92.3508772 22.4633252,92.9370889 23.1602899,92.9370889 L72.6347608,92.9370889 C73.3310094,92.9370889 73.9183793,92.3508772 73.9183793,91.6544378 L73.9183793,24.7733462 C73.9183793,24.0769068 73.3310094,23.4906951 72.6347608,23.4906951 Z" id="Path" fill="#E9E9EA"></path>
                    <path d="M61.3020992,11.250396 L22.9769158,11.250396 C22.0600454,11.250396 21.2162382,11.6168678 20.5565211,12.2402991 L11.5339434,21.2553606 C10.9107579,21.8780764 10.5440098,22.7577516 10.5440098,23.673931 L10.5440098,79.4513583 C10.5440098,80.1470822 11.1306636,80.7340094 11.8276284,80.7340094 L61.3020992,80.7340094 C61.9990639,80.7340094 62.5857178,80.1470822 62.5857178,79.4513583 L62.5857178,12.5330471 C62.5857178,11.8373233 62.0355955,11.2876156 61.3020992,11.250396 Z" id="Path" fill="#E9E9EA"></path>
                    <path d="M18.942686,25.9829891 L54.7736954,25.9829891 C55.2142229,25.9829891 55.580971,26.3494608 55.580971,26.7889407 L55.580971,49.5839119 C55.580971,50.0233918 55.2142229,50.3898635 54.7736954,50.3898635 L18.942686,50.3898635 C18.5021586,50.3898635 18.1354104,50.0233918 18.1354104,49.5839119 L18.1354104,26.8254448 C18.0988788,26.3494608 18.465627,25.9829891 18.942686,25.9829891 Z" id="Path" fill="#60BAE2"></path>
                    <polygon id="Path" fill="#FFAE2C" points="22.7197625 42.2172576 26.7539923 42.2172576 26.7539923 46.1024305 22.7197625 46.1024305"></polygon>
                    <polygon id="Path" fill="#FCD770" points="26.7539923 38.3328004 30.7882221 38.3328004 30.7882221 46.1389345 26.7539923 46.1389345"></polygon>
                    <polygon id="Path" fill="#FFAE2C" points="30.7882221 34.4483431 34.822452 34.4483431 34.822452 46.1389345 30.7882221 46.1389345"></polygon>
                    <polygon id="Path" fill="#FCD770" points="34.822452 30.5273817 38.8566818 30.5273817 38.8566818 46.1024305 34.822452 46.1024305"></polygon>
                    <polygon id="Path" fill="#FFAE2C" points="38.8566818 38.3328004 42.8909116 38.3328004 42.8909116 46.1389345 38.8566818 46.1389345"></polygon>
                    <polygon id="Path" fill="#FCD770" points="42.8909116 34.4483431 46.9251414 34.4483431 46.9251414 46.1389345 42.8909116 46.1389345"></polygon>
                    <polygon id="Path" fill="#FFAE2C" points="46.9251414 30.5273817 50.9593713 30.5273817 50.9593713 46.1024305 46.9251414 46.1024305"></polygon>
                    <path d="M62.5857178,63.9128137 L65.9229829,63.9128137 C66.3627943,63.9128137 66.7295424,63.5463419 66.7295424,63.1061465 L66.7295424,40.3118908 C66.7295424,39.872411 66.3627943,39.5059392 65.9229829,39.5059392 L62.5857178,39.5059392 L62.5857178,63.9128137 Z" id="Path" fill="#60BAE2"></path>
                    <path d="M55.6905658,63.3631061 C55.6905658,67.9776438 51.9471557,71.7182323 47.3291373,71.7182323 C42.7104026,71.7182323 38.9669927,67.9776438 38.9669927,63.3631061 C38.9669927,58.7485686 42.7104026,55.0072643 47.3291373,55.0072643 C51.9471557,55.0072643 55.6905658,58.7485686 55.6905658,63.3631061 Z" id="Path" fill="#60BAE2"></path>
                    <path d="M47.3291373,55.0072643 L47.3291373,63.3631061 L55.6905658,63.3631061 C55.6905658,58.7457053 51.950021,55.0072643 47.3291373,55.0072643 Z" id="Path" fill="#F75C64"></path>
                    <path d="M47.3291373,63.3631061 L52.3533007,70.0691095 C54.4807265,68.4937104 55.6905658,66.0014163 55.6905658,63.3631061 L47.3291373,63.3631061 Z" id="Path" fill="#FFAE2C"></path>
                    <path d="M20.2628362,22.2445481 C20.9598009,22.2445481 21.5464548,21.6583364 21.5464548,20.961897 L21.5464548,11.5803637 C21.1797066,11.7635996 20.84949,11.9833395 20.5565211,12.2768031 L16.0452323,16.7474721 L11.5339434,21.2553606 C11.2409745,21.5488242 11.0210688,21.8780764 10.8376947,22.2445481 L20.2628362,22.2445481 Z" id="Path" fill="#FFAE2C"></path>
                    <path d="M68.6005309,3.29824561 C66.9866958,2.96827795 65.7030772,1.72213094 65.3728606,0.0730081326 C65.3728606,0.0365040663 65.336329,0 65.2997974,0 C65.2625498,0 65.2625498,0.0365040663 65.2260182,0.0730081326 C64.8958016,1.68562687 63.6494307,2.96827795 61.9990639,3.29824561 C61.9618163,3.29824561 61.9252847,3.33474968 61.9252847,3.37125375 C61.9252847,3.40847335 61.9618163,3.40847335 61.9990639,3.44497742 C63.612183,3.77494508 64.8958016,5.02037655 65.2260182,6.66949936 C65.2260182,6.70671896 65.2625498,6.74322303 65.2997974,6.74322303 C65.336329,6.74322303 65.336329,6.70671896 65.3728606,6.66949936 C65.7030772,5.05759616 66.9501642,3.77494508 68.6005309,3.44497742 C68.6370625,3.44497742 68.6735941,3.40847335 68.6370625,3.37125375 C68.6370625,3.33474968 68.6005309,3.33474968 68.6005309,3.29824561 Z" id="Path" fill="#F75C64"></path>
                    <path d="M4.12591687,78.4249513 L0.935494254,78.4249513 C0.421903606,78.4249513 0.0186238386,78.0219755 0.0186238386,77.5087719 C0.0186238386,76.9955684 0.421903606,76.5925926 0.935494254,76.5925926 L4.12591687,76.5925926 C4.63950752,76.5925926 5.04278729,76.9955684 5.04278729,77.5087719 C5.04278729,78.0219755 4.63950752,78.4249513 4.12591687,78.4249513 Z" id="Path" fill="#6DCC6D"></path>
                    <path d="M2.51208172,80.0010659 C1.99849108,80.0010659 1.59521131,79.5973746 1.59521131,79.0848866 L1.59521131,75.8961532 C1.59521131,75.3829497 1.99849108,74.9799739 2.51208172,74.9799739 C3.02567237,74.9799739 3.42895214,75.3829497 3.42895214,75.8961532 L3.42895214,79.0848866 C3.42895214,79.5973746 3.02567237,80.0010659 2.51208172,80.0010659 Z" id="Path" fill="#6DCC6D"></path>
                    <path d="M71.7544219,14.6223653 C71.4972686,14.6223653 71.2773629,14.5121376 71.0939888,14.3654058 C71.0574572,14.3289017 71.0209256,14.2923977 70.984394,14.2193895 C70.9471463,14.1821699 70.9106147,14.1091618 70.9106147,14.0726577 C70.8740831,13.9989341 70.8740831,13.96243 70.8740831,13.8894219 C70.8740831,13.8156982 70.8375515,13.7791941 70.8375515,13.706186 C70.8375515,13.6324623 70.8375515,13.5959583 70.8740831,13.5229501 C70.8740831,13.4492265 70.9106147,13.4127224 70.9106147,13.3397143 C70.9471463,13.2659906 70.9471463,13.2294865 70.984394,13.1929825 C71.0209256,13.1564784 71.0574572,13.0827547 71.0939888,13.0462507 C71.3511422,12.7900067 71.7544219,12.716283 72.0846385,12.8630148 C72.1211701,12.8995189 72.1942333,12.8995189 72.2307649,12.9367385 C72.2680126,12.9732425 72.3410758,13.0097466 72.3776074,13.0462507 C72.414139,13.0827547 72.4513867,13.1199743 72.4879183,13.1929825 C72.5244499,13.2294865 72.5609815,13.3032102 72.5609815,13.3397143 C72.5975131,13.3762183 72.5975131,13.4492265 72.5975131,13.5229501 C72.5975131,13.5959583 72.5975131,13.6324623 72.6347608,13.706186 C72.6347608,13.7791941 72.6347608,13.8156982 72.5975131,13.8894219 C72.5975131,13.96243 72.5609815,13.9989341 72.5609815,14.0726577 C72.5244499,14.1456659 72.5244499,14.1821699 72.4879183,14.2193895 C72.4513867,14.2558936 72.414139,14.3289017 72.3776074,14.3654058 C72.3410758,14.4026254 72.3045442,14.4391295 72.2307649,14.4756335 C72.1942333,14.5121376 72.1211701,14.5486417 72.0846385,14.5486417 C72.0108592,14.5858613 71.9743276,14.5858613 71.9012644,14.5858613 C71.8640167,14.6223653 71.7909535,14.6223653 71.7544219,14.6223653 Z" id="Path" fill="#FFAE2C"></path>
                    <path d="M10.5440098,89.5658351 C10.2875725,89.5658351 10.0669507,89.4556074 9.88357665,89.3088756 C9.84704505,89.2723715 9.81051345,89.2358674 9.77398185,89.1628593 C9.73745024,89.1256397 9.70020257,89.0526316 9.70020257,89.0161275 C9.66367097,88.9424038 9.66367097,88.9058998 9.66367097,88.8328916 C9.66367097,88.759168 9.62713936,88.7226639 9.66367097,88.6496558 C9.66367097,88.5759321 9.66367097,88.539428 9.66367097,88.4664199 C9.66367097,88.3926962 9.70020257,88.3561922 9.70020257,88.283184 C9.73745024,88.2094604 9.73745024,88.1729563 9.77398185,88.1364522 C9.81051345,88.0999482 9.84704505,88.0262245 9.88357665,87.9897204 C10.14073,87.7334764 10.5440098,87.6597528 10.8742263,87.8064846 C10.9107579,87.8429886 10.9838211,87.8429886 11.0210688,87.8802082 C11.0576004,87.9167123 11.1306636,87.9532164 11.1671952,87.9897204 C11.2044429,88.0262245 11.2409745,88.0634441 11.2775061,88.1364522 C11.3140377,88.1729563 11.3505693,88.24668 11.3505693,88.283184 C11.387817,88.3196881 11.387817,88.3926962 11.387817,88.4664199 L11.387817,88.6496558 L11.387817,88.8328916 C11.387817,88.9058998 11.3505693,88.9424038 11.3505693,89.0161275 C11.3140377,89.0891356 11.3140377,89.1256397 11.2775061,89.1628593 C11.2409745,89.1993634 11.2044429,89.2723715 11.1671952,89.3088756 C11.1306636,89.3460952 11.094132,89.3825992 11.0210688,89.4191033 C10.9838211,89.4556074 10.9107579,89.4921114 10.8742263,89.4921114 C10.8004471,89.529331 10.7639155,89.529331 10.6908523,89.529331 C10.6543207,89.5658351 10.617073,89.5658351 10.5440098,89.5658351 Z" id="Path" fill="#60BAE2"></path>
                    <g id="Group" transform="translate(9.535452, 10.261209)" fill="#231F20">
                        <path d="M58.9547677,19.1295383 L55.7643451,19.1295383 C55.2507545,19.1295383 54.8474747,18.7265625 54.8474747,18.213359 C54.8474747,17.700871 55.2507545,17.2971797 55.7643451,17.2971797 L58.9912993,17.2971797 C59.50489,17.2971797 59.9081697,17.700871 59.9081697,18.213359 C59.9081697,18.7265625 59.4683584,19.1295383 58.9547677,19.1295383 Z" id="Path"></path>
                        <path d="M51.7666469,71.3517606 L2.29217604,71.3517606 C1.08162066,71.3517606 0.0916870416,70.3625731 0.0916870416,69.1529302 L0.0916870416,13.4127224 C0.0916870416,12.2768031 0.531498411,11.1773879 1.37530562,10.3714363 L10.3606357,1.39287881 C11.1671952,0.586211669 12.2674397,0.110227735 13.4414635,0.110227735 L51.8031785,0.110227735 C53.0137339,0.110227735 54.0036675,1.0994152 54.0036675,2.30905814 L54.0036675,69.1901498 C53.9671359,70.3990772 53.0137339,71.3517606 51.7666469,71.3517606 Z M13.4414635,1.94258641 C12.7810304,1.94258641 12.1578449,2.19883041 11.6807859,2.67552988 L2.65892421,11.6540874 C2.18186516,12.1300713 1.92542787,12.7535026 1.92542787,13.4127224 L1.92542787,69.1901498 C1.92542787,69.3733856 2.07227035,69.5566215 2.29217604,69.5566215 L51.7666469,69.5566215 C51.950021,69.5566215 52.133395,69.4098897 52.133395,69.1901498 L52.133395,2.27183854 C52.133395,2.08860267 51.9865526,1.90536681 51.7666469,1.90536681 L13.4414635,1.94258641 Z" id="Shape"></path>
                        <path d="M10.7273839,12.8995189 L1.33877402,12.8995189 C0.825183374,12.8995189 0.421903606,12.4965431 0.421903606,11.9833395 C0.421903606,11.8373233 0.458435208,11.7270955 0.494966809,11.6168678 C0.714872494,11.1408838 1.00855746,10.7006884 1.37530562,10.3342167 L10.3606357,1.3556592 C10.7273839,0.98918747 11.1671952,0.696439404 11.6442543,0.47669947 C12.1213133,0.256244 12.6341879,0.47669947 12.8548097,0.916179337 C12.9278729,1.02640707 12.9278729,1.17242334 12.9278729,1.31915514 L12.9278729,10.7006884 C12.9278729,11.9103314 11.9379392,12.8995189 10.7273839,12.8995189 Z M3.24557806,11.0671602 L10.7273839,11.0671602 C10.9107579,11.0671602 11.094132,10.9211439 11.094132,10.7006884 L11.094132,3.22523748 L3.24557806,11.0671602 Z" id="Shape"></path>
                        <path d="M24.590751,54.0180768 L8.59995807,54.0180768 C8.0870835,54.0180768 7.68308765,53.615101 7.68308765,53.1018975 C7.68308765,52.588694 8.0870835,52.1857182 8.59995807,52.1857182 L24.590751,52.1857182 C25.1036256,52.1857182 25.5076214,52.588694 25.5076214,53.1018975 C25.5076214,53.615101 25.1036256,54.0180768 24.590751,54.0180768 Z" id="Path"></path>
                        <path d="M24.590751,49.8401559 L8.59995807,49.8401559 C8.0870835,49.8401559 7.68308765,49.4371801 7.68308765,48.9239766 C7.68308765,48.4107731 8.0870835,48.0077973 8.59995807,48.0077973 L24.590751,48.0077973 C25.1036256,48.0077973 25.5076214,48.4107731 25.5076214,48.9239766 C25.5076214,49.4371801 25.1036256,49.8401559 24.590751,49.8401559 Z" id="Path"></path>
                        <path d="M24.590751,45.6622351 L8.59995807,45.6622351 C8.0870835,45.6622351 7.68308765,45.2592593 7.68308765,44.7460557 C7.68308765,44.2328522 8.0870835,43.8298764 8.59995807,43.8298764 L24.590751,43.8298764 C25.1036256,43.8298764 25.5076214,44.2328522 25.5076214,44.7460557 C25.5076214,45.2592593 25.1036256,45.6622351 24.590751,45.6622351 Z" id="Path"></path>
                        <path d="M24.590751,62.3732031 L8.59995807,62.3732031 C8.0870835,62.3732031 7.68308765,61.9702273 7.68308765,61.4570237 C7.68308765,60.9445357 8.0870835,60.5408444 8.59995807,60.5408444 L24.590751,60.5408444 C25.1036256,60.5408444 25.5076214,60.9445357 25.5076214,61.4570237 C25.5076214,61.9702273 25.1036256,62.3732031 24.590751,62.3732031 Z" id="Path"></path>
                        <path d="M24.590751,71.3517606 L8.59995807,71.3517606 C8.0870835,71.3517606 7.68308765,70.9487848 7.68308765,70.4355812 C7.68308765,69.9230932 8.0870835,69.5194019 8.59995807,69.5194019 L24.590751,69.5194019 C25.1036256,69.5194019 25.5076214,69.9230932 25.5076214,70.4355812 C25.5076214,70.9487848 25.1036256,71.3517606 24.590751,71.3517606 Z" id="Path"></path>
                        <path d="M24.590751,58.1959977 L8.59995807,58.1959977 C8.0870835,58.1959977 7.68308765,57.7923064 7.68308765,57.2798184 C7.68308765,56.7666148 8.0870835,56.363639 8.59995807,56.363639 L24.590751,56.363639 C25.1036256,56.363639 25.5076214,56.7666148 25.5076214,57.2798184 C25.5076214,57.7923064 25.1036256,58.1959977 24.590751,58.1959977 Z" id="Path"></path>
                        <path d="M57.2313378,67.1373356 L53.0867971,67.1373356 C52.5732064,67.1373356 52.1699267,66.7343598 52.1699267,66.2211563 C52.1699267,65.7086683 52.5732064,65.3049769 53.0867971,65.3049769 L57.2313378,65.3049769 C57.7442123,65.3049769 58.1482082,65.7086683 58.1482082,66.2211563 C58.1482082,66.7343598 57.7442123,67.1373356 57.2313378,67.1373356 Z" id="Path"></path>
                        <path d="M57.2313378,62.9601303 L53.0867971,62.9601303 C52.5732064,62.9601303 52.1699267,62.5564389 52.1699267,62.0439509 C52.1699267,61.5307474 52.5732064,61.1277716 53.0867971,61.1277716 L57.2313378,61.1277716 C57.7442123,61.1277716 58.1482082,61.5307474 58.1482082,62.0439509 C58.1482082,62.5564389 57.7442123,62.9601303 57.2313378,62.9601303 Z" id="Path"></path>
                        <path d="M57.2313378,58.7822094 L53.0867971,58.7822094 C52.5732064,58.7822094 52.1699267,58.3792336 52.1699267,57.86603 C52.1699267,57.3528265 52.5732064,56.9498507 53.0867971,56.9498507 L57.2313378,56.9498507 C57.7442123,56.9498507 58.1482082,57.3528265 58.1482082,57.86603 C58.1482082,58.3792336 57.7442123,58.7822094 57.2313378,58.7822094 Z" id="Path"></path>
                        <path d="M57.2313378,75.4931774 L41.2405449,75.4931774 C40.7276703,75.4931774 40.3236744,75.0902016 40.3236744,74.5769981 C40.3236744,74.0637945 40.7276703,73.6608187 41.2405449,73.6608187 L57.2313378,73.6608187 C57.7442123,73.6608187 58.1482082,74.0637945 58.1482082,74.5769981 C58.1482082,75.0902016 57.7442123,75.4931774 57.2313378,75.4931774 Z" id="Path"></path>
                        <path d="M57.2313378,71.3517606 L51.8031785,71.3517606 C51.2895878,71.3517606 50.8863081,70.9487848 50.8863081,70.4355812 C50.8863081,69.9230932 51.2895878,69.5194019 51.8031785,69.5194019 L57.2313378,69.5194019 C57.7442123,69.5194019 58.1482082,69.9230932 58.1482082,70.4355812 C58.1482082,70.9487848 57.7442123,71.3517606 57.2313378,71.3517606 Z" id="Path"></path>
                        <path d="M35.8496333,75.4931774 L19.8595564,75.4931774 C19.3459658,75.4931774 18.942686,75.0902016 18.942686,74.5769981 C18.942686,74.0637945 19.3459658,73.6608187 19.8595564,73.6608187 L35.8496333,73.6608187 C36.3632239,73.6608187 36.7665037,74.0637945 36.7665037,74.5769981 C36.7665037,75.0902016 36.3632239,75.4931774 35.8496333,75.4931774 Z" id="Path"></path>
                        <path d="M47.6586378,6.88995483 L44.4316836,6.88995483 C43.9180929,6.88995483 43.5148131,6.48626349 43.5148131,5.97377549 C43.5148131,5.46057196 43.9180929,5.05759616 44.4316836,5.05759616 L47.6586378,5.05759616 C48.1722284,5.05759616 48.5755082,5.46057196 48.5755082,5.97377549 C48.5755082,6.48626349 48.1722284,6.88995483 47.6586378,6.88995483 Z" id="Path"></path>
                        <path d="M63.0993084,83.5920596 L13.6248376,83.5920596 C12.4142822,83.5920596 11.4243486,82.6028722 11.4243486,81.3932292 L11.4243486,70.4355812 C11.4243486,69.9230932 11.8276284,69.5194019 12.341219,69.5194019 L51.8031785,69.5194019 C51.9865526,69.5194019 52.1699267,69.3733856 52.1699267,69.1529302 L52.1699267,13.2294865 C52.1699267,12.716283 52.5732064,12.3133072 53.0867971,12.3133072 L63.0993084,12.3133072 C64.3091477,12.3133072 65.2997974,13.3032102 65.2997974,14.5121376 L65.2997974,81.3932292 C65.2997974,82.6028722 64.3091477,83.5920596 63.0993084,83.5920596 Z M13.2580894,71.3517606 L13.2580894,81.3932292 C13.2580894,81.5764651 13.4049319,81.7597009 13.6248376,81.7597009 L63.0993084,81.7597009 C63.2826825,81.7597009 63.4660566,81.6129691 63.4660566,81.3932292 L63.4660566,14.5121376 C63.4660566,14.3289017 63.3192141,14.1456659 63.0993084,14.1456659 L53.9671359,14.1456659 L53.9671359,69.1529302 C53.9671359,70.3625731 52.9764862,71.3517606 51.7666469,71.3517606 L13.2580894,71.3517606 Z" id="Shape"></path>
                        <path d="M17.21854,36.7939053 L13.1843101,36.7939053 C12.6714356,36.7939053 12.2674397,36.3909295 12.2674397,35.877726 L12.2674397,31.9932687 C12.2674397,31.4800651 12.6714356,31.0770893 13.1843101,31.0770893 L17.21854,31.0770893 C17.7321306,31.0770893 18.1354104,31.4800651 18.1354104,31.9932687 L18.1354104,35.877726 C18.1354104,36.3537099 17.7321306,36.7939053 17.21854,36.7939053 Z M14.1011806,34.9615466 L16.3016696,34.9615466 L16.3016696,32.909448 L14.1011806,32.909448 L14.1011806,34.9615466 Z" id="Shape"></path>
                        <path d="M21.2527698,36.7939053 L17.21854,36.7939053 C16.7056654,36.7939053 16.3016696,36.3909295 16.3016696,35.877726 L16.3016696,28.0715918 C16.3016696,27.5583882 16.7056654,27.1554124 17.21854,27.1554124 L21.2527698,27.1554124 C21.7663605,27.1554124 22.1696402,27.5583882 22.1696402,28.0715918 L22.1696402,35.877726 C22.1696402,36.3537099 21.7663605,36.7939053 21.2527698,36.7939053 Z M18.1354104,34.9615466 L20.3358994,34.9615466 L20.3358994,28.9877711 L18.1354104,28.9877711 L18.1354104,34.9615466 Z" id="Shape"></path>
                        <path d="M25.2869996,36.7939053 L21.2527698,36.7939053 C20.7398952,36.7939053 20.3358994,36.3909295 20.3358994,35.877726 L20.3358994,24.1871345 C20.3358994,23.673931 20.7398952,23.2709552 21.2527698,23.2709552 L25.2869996,23.2709552 C25.8005903,23.2709552 26.20387,23.673931 26.20387,24.1871345 L26.20387,35.877726 C26.20387,36.3537099 25.8005903,36.7939053 25.2869996,36.7939053 Z M22.1696402,34.9615466 L24.3701292,34.9615466 L24.3701292,25.1033138 L22.1696402,25.1033138 L22.1696402,34.9615466 Z" id="Shape"></path>
                        <path d="M29.3212295,36.7939053 L25.2869996,36.7939053 C24.7741251,36.7939053 24.3701292,36.3909295 24.3701292,35.877726 L24.3701292,20.2661732 C24.3701292,19.7529696 24.7741251,19.3499938 25.2869996,19.3499938 L29.3212295,19.3499938 C29.8348201,19.3499938 30.2380999,19.7529696 30.2380999,20.2661732 L30.2380999,35.8412219 C30.2380999,36.3537099 29.8348201,36.7939053 29.3212295,36.7939053 Z M26.20387,34.9615466 L28.404359,34.9615466 L28.404359,21.1823525 L26.20387,21.1823525 L26.20387,34.9615466 Z" id="Shape"></path>
                        <path d="M33.3554593,36.7939053 L29.3212295,36.7939053 C28.8083549,36.7939053 28.404359,36.3909295 28.404359,35.877726 L28.404359,28.0715918 C28.404359,27.5583882 28.8083549,27.1554124 29.3212295,27.1554124 L33.3554593,27.1554124 C33.8690499,27.1554124 34.2723297,27.5583882 34.2723297,28.0715918 L34.2723297,35.877726 C34.2723297,36.3537099 33.8690499,36.7939053 33.3554593,36.7939053 Z M30.2380999,34.9615466 L32.4385889,34.9615466 L32.4385889,28.9877711 L30.2380999,28.9877711 L30.2380999,34.9615466 Z" id="Shape"></path>
                        <path d="M37.3896891,36.7939053 L33.3554593,36.7939053 C32.8425847,36.7939053 32.4385889,36.3909295 32.4385889,35.877726 L32.4385889,24.1871345 C32.4385889,23.673931 32.8425847,23.2709552 33.3554593,23.2709552 L37.3896891,23.2709552 C37.9032798,23.2709552 38.3065595,23.673931 38.3065595,24.1871345 L38.3065595,35.877726 C38.3065595,36.3537099 37.9032798,36.7939053 37.3896891,36.7939053 Z M34.2723297,34.9615466 L36.4728187,34.9615466 L36.4728187,25.1033138 L34.2723297,25.1033138 L34.2723297,34.9615466 Z" id="Shape"></path>
                        <path d="M41.4239189,36.7939053 L37.3896891,36.7939053 C36.8768145,36.7939053 36.4728187,36.3909295 36.4728187,35.877726 L36.4728187,20.2661732 C36.4728187,19.7529696 36.8768145,19.3499938 37.3896891,19.3499938 L41.4239189,19.3499938 C41.9375096,19.3499938 42.3407894,19.7529696 42.3407894,20.2661732 L42.3407894,35.8412219 C42.3407894,36.3537099 41.9375096,36.7939053 41.4239189,36.7939053 Z M38.3065595,34.9615466 L40.5070485,34.9615466 L40.5070485,21.1823525 L38.3065595,21.1823525 L38.3065595,34.9615466 Z" id="Shape"></path>
                        <path d="M45.2017115,41.0813384 L9.40723368,41.0813384 C8.45383166,41.0813384 7.68308765,40.3118908 7.64655605,39.3227034 L7.64655605,16.5642362 C7.64655605,15.6115528 8.41658399,14.8421053 9.40723368,14.8056012 L45.2382431,14.8056012 C46.1916451,14.8056012 46.9623891,15.5750487 46.9989207,16.5642362 L46.9989207,39.3592074 C46.9623891,40.3118908 46.1916451,41.0813384 45.2017115,41.0813384 Z M9.48029688,39.2489797 L45.1286483,39.2489797 L45.1286483,16.6379599 L9.48029688,16.6379599 L9.48029688,39.2489797 Z" id="Shape"></path>
                        <path d="M56.3875306,54.5677844 L53.0502655,54.5677844 C52.5366748,54.5677844 52.133395,54.1648086 52.133395,53.6516051 L52.133395,29.2075111 C52.133395,28.6950231 52.5366748,28.2913317 53.0502655,28.2913317 L56.3875306,28.2913317 C57.3409326,28.2913317 58.1109605,29.0614948 58.1482082,30.0506823 L58.1482082,52.844938 C58.1482082,53.7983369 57.3409326,54.5677844 56.3875306,54.5677844 Z M53.9671359,52.7354258 L56.2772197,52.7354258 L56.2772197,30.1236904 L53.9671359,30.1236904 L53.9671359,52.7354258 Z" id="Shape"></path>
                        <path d="M37.793685,62.3732031 C32.6592106,62.3732031 28.5146699,58.2325018 28.5146699,53.1018975 C28.5146699,47.9712932 32.6592106,43.8298764 37.793685,43.8298764 C42.9281593,43.8298764 47.0719839,47.9712932 47.0719839,53.1018975 C47.0719839,58.2325018 42.9281593,62.3732031 37.793685,62.3732031 Z M37.793685,45.6622351 C33.6856759,45.6622351 30.3484108,48.9969847 30.3484108,53.1018975 C30.3484108,57.2060947 33.6856759,60.5408444 37.793685,60.5408444 C41.900978,60.5408444 45.2382431,57.2060947 45.2382431,53.1018975 C45.2382431,48.9969847 41.900978,45.6622351 37.793685,45.6622351 Z" id="Shape"></path>
                        <path d="M46.1551135,54.0180768 L37.793685,54.0180768 C37.2800943,54.0180768 36.8768145,53.615101 36.8768145,53.1018975 L36.8768145,44.7460557 C36.8768145,44.2328522 37.2800943,43.8298764 37.793685,43.8298764 C42.9281593,43.8298764 47.0719839,47.9712932 47.0719839,53.1018975 C47.0719839,53.615101 46.6687042,54.0180768 46.1551135,54.0180768 Z M38.7105554,52.1857182 L45.2017115,52.1857182 C44.7619001,48.8137489 42.1208837,46.1389345 38.7105554,45.6987391 L38.7105554,52.1857182 Z" id="Shape"></path>
                        <path d="M42.8178484,60.7240803 C42.7813168,60.7240803 42.7447852,60.7240803 42.6710059,60.7240803 C42.4145686,60.6875762 42.2311946,60.578064 42.0843521,60.3576085 L37.0601886,53.6516051 C36.7665037,53.2486293 36.8395669,52.6617021 37.2435627,52.368954 C37.3896891,52.2587263 37.6103109,52.1857182 37.793685,52.1857182 L46.1551135,52.1857182 C46.6687042,52.1857182 47.0719839,52.588694 47.0719839,53.1018975 C47.0719839,56.0336714 45.7153021,58.7822094 43.3679707,60.5408444 C43.1845966,60.6510721 43.0012225,60.7240803 42.8178484,60.7240803 Z M39.6274258,54.0180768 L42.9646909,58.4522417 C44.2117779,57.2798184 44.9818058,55.7037037 45.2017115,54.0180768 L39.6274258,54.0180768 Z" id="Shape"></path>
                    </g>
                </g>
            </g>
        </g>
    </g>
</svg>