<?xml version="1.0" encoding="UTF-8"?>
<svg width="104px" height="120px" viewBox="0 0 104 120" version="1.1" xmlns="http://www.w3.org/2000/svg" xmlns:xlink="http://www.w3.org/1999/xlink">
    <!-- Generator: Sketch 54.1 (76490) - https://sketchapp.com -->
    <title>online-support</title>
    <desc>Created with Sketch.</desc>
    <g id="Elementos" stroke="none" stroke-width="1" fill="none" fill-rule="evenodd">
        <g id="Amazon/Servicios" transform="translate(-560.000000, -289.000000)" fill-rule="nonzero">
            <g id="online-support" transform="translate(560.000000, 289.000000)">
                <path d="M97.9421133,26.7625899 L80.2447721,26.7625899 C80.9996742,34.51859 75.242508,41.3866518 67.4556779,42.1349655 C64.4351474,42.4151269 61.3676083,41.7608086 58.7719982,40.218552 C58.5360337,40.0789274 58.2060519,40.0323859 57.9221571,40.1720105 L52.6839284,42.6022054 C52.2119993,42.7883715 51.6930618,42.6022054 51.5041056,42.181507 C51.4100886,41.947887 51.4100886,41.6677255 51.5041056,41.4341056 L53.95869,36.2470127 C54.0997157,35.9668513 54.0527073,35.6866898 53.9107597,35.4065283 C52.3539468,32.8367088 51.6460532,29.7996493 51.9290263,26.8091315 L6.00995643,26.8091315 C3.17838185,26.8091315 0.866666667,29.0987895 0.866666667,31.9022289 L0.866666667,95.9140968 C0.866666667,98.7175362 3.17838185,101.007194 6.00995643,101.007194 L97.9891217,101.007194 C100.820696,101.007194 103.133333,98.7175362 103.133333,95.9140968 L103.133333,31.9022289 C103.086325,29.0522479 100.820696,26.7625899 97.9421133,26.7625899 L97.9421133,26.7625899 Z" id="Path" fill="#6D6C6B"></path>
                <path d="M97.463947,31.0791367 L79.5337564,31.0791367 C77.7497218,38.6104275 70.0983581,43.2595966 62.4946666,41.4462391 C61.0865076,41.1211604 59.7718591,40.5627155 58.5048829,39.8653401 C58.2701898,39.7264097 57.9419859,39.6800995 57.6596207,39.8190299 L52.4496159,42.2371425 C51.9802296,42.4223831 51.4640882,42.2371425 51.2761501,41.8185358 C51.1826397,41.5860773 51.1826397,41.3073087 51.2761501,41.0748503 L53.7175091,35.9135464 C53.8577749,35.6347778 53.8110198,35.3560092 53.669837,35.0772406 C52.9190022,33.8686381 52.3561055,32.5201976 52.0269849,31.1254468 L38.1333333,31.1254468 C38.4147818,31.4042154 38.697147,31.7292942 38.8841681,32.1015908 C39.6359197,31.6366739 40.5270202,31.4042154 41.4190375,31.4042154 C44.141845,31.4042154 46.3475938,33.5889618 46.3943492,36.3321531 L46.3943492,42.7946797 C47.8501802,44.1431203 47.8969355,46.4213947 46.5355319,47.8624556 C45.6902697,48.7459793 44.5168039,49.1173681 43.2965828,48.9312198 C43.108645,51.8605595 41.3722824,54.5102227 38.7439024,55.9049735 L38.7439024,59.2066097 L42.7804414,61.2052078 L49.5397876,62.8787271 C50.9947019,63.2510237 52.0269849,64.5059363 52.1214123,65.9942151 L53.2948781,87.1942446 L97.9333333,87.1942446 L97.9333333,31.5440536 C97.9333333,31.3115951 97.7453953,31.0791367 97.463947,31.0791367 Z" id="Path" fill="#ACDEF9"></path>
                <path d="M24.798236,42.154716 C24.9871314,42.154716 25.1751054,42.154716 25.3640008,42.2013521 L25.3640008,41.7879035 C25.3640008,41.5583095 25.5998897,41.3287155 25.8357787,41.3287155 L25.9306872,41.3287155 C27.5339949,41.6497885 32.2047804,42.2013521 35.4132389,38.2982539 C35.5542194,38.1143993 35.8850168,38.0686598 36.0739122,38.2058783 C36.0739122,38.2058783 36.1209058,38.2058783 36.1209058,38.2516178 C36.8755662,38.9403998 38.7626778,40.3646 42.394999,40.456079 C42.630888,40.456079 42.8197834,40.6399335 42.8667769,40.915267 L42.8667769,41.053382 L42.8667769,42.2013521 C43.9992281,42.0174976 45.1316796,42.38431 45.9333333,43.1654676 L45.9333333,36.7825747 C45.9333333,34.1189256 43.7163459,31.9611005 40.9326717,31.915361 C40.0361095,31.915361 39.1404686,32.144955 38.3848868,32.604143 C37.4892459,31.1342034 35.8850168,30.2158273 34.0918921,30.2158273 L31.5441071,30.2158273 C26.5904391,30.2158273 22.5333333,34.1655616 22.5333333,38.9870359 L22.5333333,42.9358736 C23.1940069,42.4309461 23.9956606,42.154716 24.798236,42.154716 Z" id="Path" fill="#6D6C6B"></path>
                <path d="M43.9113849,42.3468163 C43.7187011,42.3468163 43.5260173,42.3468163 43.3333333,42.3923497 L43.3333333,42.9299966 L43.3333333,48.6234488 L43.3333333,49.1619711 C45.3551037,49.4754526 47.2800622,48.1751179 47.6165541,46.2924783 C47.9530457,44.4098387 46.5582028,42.6165151 44.5364324,42.3021583 C44.2958126,42.3468163 44.1031288,42.3468163 43.9113849,42.3468163 Z" id="Path" fill="#F9D0B4"></path>
                <path d="M26,48.6366227 L26,42.8888953 C26,42.7091145 26,42.5293336 26,42.3504295 C23.9798041,42.0355938 22.05545,43.2931831 21.7181241,45.1786904 C21.3817381,47.0650744 22.7291618,48.8611296 24.7493579,49.1750886 C25.1825255,49.2198146 25.5668325,49.2198146 26,49.1750886 C26,48.9953077 26,48.8155268 26,48.6366227 Z" id="Path" fill="#F9D0B4"></path>
                <path d="M35.9787445,38.1367039 C32.7927928,42.2218915 28.154772,41.6445961 26.5627112,41.3085442 C26.328477,41.2606709 26.0466639,41.4042909 26,41.6924695 L26,41.7891546 L26,48.9504359 C26,53.8522857 29.8886544,57.8417266 34.6666667,57.8417266 C39.4455941,57.8417266 43.3333333,53.8522857 43.3333333,48.9504359 L43.3333333,41.0203657 C43.3333333,40.971554 43.3333333,40.9236806 43.3333333,40.8758073 C43.3333333,40.6355021 43.145763,40.395197 42.8648649,40.395197 C39.2580238,40.2994503 37.3841499,38.8088076 36.6347833,38.0878921 C36.4938769,37.9442721 36.2129787,37.9442721 35.9787445,38.1367039 Z" id="Path" fill="#F9D0B4"></path>
                <path d="M34.5895361,57.0899254 C33.1020188,57.0899254 31.6665897,56.7928462 30.3333333,56.2425458 L30.3333333,59.1231401 L31.819849,62.6823 C31.9230236,62.8941449 32.1283711,63.0215827 32.3848051,63.0215827 L36.9485283,63.0215827 C37.2049622,63.0215827 37.4613962,62.8941449 37.5134844,62.6823 L39,59.1231401 L39,56.1151079 C37.7178302,56.7506426 36.1792264,57.0899254 34.5895361,57.0899254 Z" id="Path" fill="#F9D0B4"></path>
                <path d="M53.7333333,87.1942446 L52.5554936,66.2689007 C52.4616343,64.7999053 51.4245832,63.5612525 49.964246,63.1937796 L43.1797047,61.5419438 L39.1281201,59.5683453 L37.7616417,63.4232262 C37.6677827,63.6526727 37.4791444,63.790699 37.2435764,63.790699 L33.0502826,63.790699 C32.8147146,63.790699 32.5791467,63.6526727 32.5322173,63.4232262 L31.1657389,59.5683453 L27.1141543,61.5419438 L20.235754,63.1480695 C18.7754166,63.5155424 17.7383654,64.7541952 17.6445064,66.2222946 L16.4666667,87.1485345 L53.7333333,87.1942446 Z" id="Path" fill="#E9E9EA"></path>
                <path d="M20.4354925,62.838527 L27.175193,61.1622409 L31.2,59.1594294 L31.2,55.9933132 C28.4384871,54.6426433 26.6596375,51.8949168 26.4256264,48.8679607 C24.4602995,49.1935769 22.5882113,47.8438162 22.3075808,45.8873914 C22.1201892,44.6304041 22.5882113,43.3261209 23.617494,42.5348192 L23.617494,38.5301054 C23.617494,35.5031493 25.1623326,32.7090361 27.6898345,31.0791367 L6.53468873,31.0791367 C6.3006777,31.0791367 6.06666667,31.2646835 6.06666667,31.5448222 L6.06666667,87.1942446 L16.691316,87.1942446 L17.8613712,65.9582564 C17.9079906,64.4684264 18.9848069,63.2114391 20.4354925,62.838527 L20.4354925,62.838527 Z" id="Path" fill="#ACDEF9"></path>
                <path d="M60.845976,47.4820144 L89.9540238,47.4820144 C90.5243874,47.4820144 91,47.9529104 91,48.5176178 L91,80.1145563 C91,80.6801831 90.5243874,81.1510791 89.9540238,81.1510791 L60.845976,81.1510791 C60.2756126,81.1510791 59.8,80.6801831 59.8,80.1145563 L59.8,48.5176178 C59.8,47.9050853 60.2756126,47.4820144 60.845976,47.4820144 L60.845976,47.4820144 Z" id="Path" fill="#FCD770"></path>
                <path d="M75.985238,17.4655712 C70.2403405,12.2518904 61.320151,12.6701489 56.0888097,18.3966505 C51.8854931,23.0056751 51.2323735,29.7560004 54.4541865,35.0633345 C54.5946621,35.2961043 54.5946621,35.6216185 54.5016198,35.9007605 L52.0724895,41.0680691 C51.8854931,41.5336088 52.0724895,42.0464296 52.4930038,42.2319183 C52.7265214,42.3255716 53.0065599,42.3255716 53.2400774,42.2319183 L58.4239855,39.8114756 C58.7049364,39.6714501 59.0314963,39.7187312 59.2650138,39.8578477 C65.9439816,43.8613072 74.5841324,41.6736343 78.6004526,35.0160533 C82.0566953,29.3368329 80.9356285,21.9345702 75.985238,17.4655712 L75.985238,17.4655712 Z" id="Path" fill="#F75C64"></path>
                <polygon id="Path" fill="#D3D3DD" points="39.8666667 101.007194 62.4 101.007194 62.4 113.956835 39.8666667 113.956835"></polygon>
                <path d="M0.866666667,87.1942446 L0.866666667,95.1567226 C0.866666667,97.902343 3.17928269,100.143885 6.01083175,100.143885 L97.9891683,100.143885 C100.820717,100.143885 103.133333,97.902343 103.133333,95.1567226 L103.133333,87.1942446 L0.866666667,87.1942446 Z" id="Path" fill="#E9E9EA"></path>
                <path d="M53.7333333,94.5323741 C53.7333333,95.7246287 52.7635578,96.6906475 51.5666666,96.6906475 C50.370639,96.6906475 49.4,95.7246287 49.4,94.5323741 C49.4,93.3401195 50.370639,92.3741007 51.5666666,92.3741007 C52.7635578,92.3741007 53.7333333,93.3401195 53.7333333,94.5323741 Z" id="Path" fill="#E9E9EA"></path>
                <path d="M35.2318686,113.956835 L68.7690474,113.956835 C70.03512,113.956835 71.0666667,114.925627 71.0666667,116.114678 C71.0666667,117.304589 70.03512,118.273381 68.7690474,118.273381 L35.2318686,118.273381 C33.96488,118.273381 32.9333333,117.304589 32.9333333,116.114678 C32.9800553,114.925627 34.0116019,113.956835 35.2318686,113.956835 L35.2318686,113.956835 Z" id="Path" fill="#E9E9EA"></path>
                <path d="M27.7333333,31.0791367 L6.53664351,31.0791367 C6.30165509,31.0791367 6.06666667,31.2876394 6.06666667,31.602437 L6.06666667,36.2589928 L24.1139609,36.2589928 C24.7721122,34.1657914 26.0406824,32.3342401 27.7333333,31.0791367 Z" id="Path" fill="#60BAE2"></path>
                <path d="M53.6110823,35.5271897 C52.8608294,34.1657914 52.2983684,32.6490378 51.9695029,31.0791367 L38.1333333,31.0791367 C38.4145638,31.3929126 38.6967103,31.7588141 38.8835865,32.1778631 C39.6347557,31.6545627 40.5251659,31.3929126 41.4164922,31.3929126 C43.9493981,31.3929126 46.0600003,33.486114 46.3412305,36.2589928 L53.7054365,36.2589928 C53.7521556,36.0504901 53.7521556,35.7888399 53.6110823,35.5271897 Z" id="Path" fill="#60BAE2"></path>
                <path d="M97.4562648,31.0791367 L79.232621,31.0791367 C78.8505936,32.9106879 78.1349909,34.6890917 77.1333333,36.2589928 L97.9333333,36.2589928 L97.9333333,31.602437 C97.9333333,31.3407869 97.7423194,31.0791367 97.4562648,31.0791367 L97.4562648,31.0791367 Z" id="Path" fill="#60BAE2"></path>
                <path d="M24.8847719,4.31654676 L21.0485615,4.31654676 C20.4238593,4.31654676 19.9333333,3.93615125 19.9333333,3.45323741 C19.9333333,2.96964932 20.4238593,2.58992806 21.0485615,2.58992806 L24.8847719,2.58992806 C25.509474,2.58992806 26,2.96964932 26,3.45323741 C26,3.93615125 25.509474,4.31654676 24.8847719,4.31654676 Z" id="Path" fill="#55ACD5"></path>
                <path d="M22.5333333,6.04316547 C22.0478646,6.04316547 21.6666667,5.55453951 21.6666667,4.93225756 L21.6666667,1.1109079 C21.6666667,0.488625953 22.0478646,0 22.5333333,0 C23.018125,0 23.4,0.488625953 23.4,1.1109079 L23.4,4.93225756 C23.4,5.55453951 23.018125,6.04316547 22.5333333,6.04316547 Z" id="Path" fill="#55ACD5"></path>
                <path d="M82.0847719,110.503597 L78.2485614,110.503597 C77.6238595,110.503597 77.1333333,110.123876 77.1333333,109.640288 C77.1333333,109.1567 77.6238595,108.776978 78.2485614,108.776978 L82.0847719,108.776978 C82.7094738,108.776978 83.2,109.1567 83.2,109.640288 C83.2,110.123876 82.7094738,110.503597 82.0847719,110.503597 L82.0847719,110.503597 Z" id="Path" fill="#F75C64"></path>
                <path d="M80.6,113.093525 C80.1152083,113.093525 79.7333333,112.604899 79.7333333,111.982617 L79.7333333,108.161268 C79.7333333,107.538986 80.1152083,107.05036 80.6,107.05036 C81.0854687,107.05036 81.4666667,107.538986 81.4666667,108.161268 L81.4666667,111.982617 C81.4666667,112.559769 81.0854687,113.093525 80.6,113.093525 L80.6,113.093525 Z" id="Path" fill="#F75C64"></path>
                <path d="M45.0623286,4.31654676 C44.9929206,4.31654676 44.9582164,4.31654676 44.8881277,4.28231663 C44.8187196,4.28231663 44.7840155,4.24741553 44.7139268,4.24741553 C44.6445187,4.2131854 44.6098145,4.2131854 44.57443,4.17895527 C44.5397258,4.14472514 44.4703177,4.11049501 44.4356136,4.07559391 C44.400229,4.04136378 44.3655249,4.00713364 44.3308209,3.93867338 C44.2961168,3.90377228 44.2614127,3.83531202 44.2614127,3.80108189 C44.2260281,3.73195066 44.2260281,3.69772053 44.2260281,3.62926026 C44.191324,3.5258989 44.191324,3.38830741 44.2260281,3.28561701 C44.2260281,3.21648578 44.2614127,3.18225565 44.2614127,3.11379539 C44.2961168,3.04466416 44.2961168,3.01043403 44.3308209,2.97620389 C44.3655249,2.94197376 44.400229,2.87284253 44.4356136,2.8386124 C44.6445187,2.63256064 44.9228318,2.56410038 45.2365296,2.59833051 C45.3066183,2.59833051 45.3413224,2.63256064 45.4107305,2.63256064 C45.4808192,2.66679078 45.5155234,2.66679078 45.5502275,2.70102091 C45.5849315,2.735922 45.6550202,2.77015214 45.6897243,2.80438227 C45.7244284,2.8386124 45.7591324,2.87284253 45.7938365,2.94197376 C45.8292211,2.97620389 45.8639252,3.04466416 45.8639252,3.07956525 C45.8986294,3.14802552 45.8986294,3.18225565 45.8986294,3.25138688 C45.8986294,3.31984714 45.8986294,3.35407728 45.9333333,3.4232085 C45.9333333,3.49166877 45.9333333,3.5258989 45.8986294,3.59503013 C45.8986294,3.66349039 45.8639252,3.69772053 45.8639252,3.76685175 C45.8292211,3.83531202 45.8292211,3.86954215 45.7938365,3.90377228 C45.7591324,3.93867338 45.7244284,4.00713364 45.6897243,4.04136378 C45.6550202,4.07559391 45.6196356,4.11049501 45.5502275,4.14472514 C45.5155234,4.17895527 45.4454347,4.2131854 45.4107305,4.2131854 C45.3413224,4.24741553 45.3066183,4.24741553 45.2365296,4.24741553 C45.1671215,4.28231663 45.0970328,4.31654676 45.0623286,4.31654676 Z" id="Path" fill="#FFCD29"></path>
                <path d="M91.000332,116.546763 C90.9319546,116.546763 90.8980978,116.546763 90.8303843,116.511483 C90.7620069,116.511483 90.7281501,116.476204 90.6604367,116.476204 C90.5920593,116.440924 90.5582025,116.440924 90.5243458,116.404953 C90.490489,116.369673 90.4221116,116.334394 90.3882548,116.299114 C90.0483595,115.944936 90.0483595,115.378389 90.3882548,115.059491 C90.4221116,115.024211 90.4566322,114.98824 90.5243458,114.952961 C90.5582025,114.917681 90.6265799,114.882402 90.6604367,114.882402 C90.7281501,114.847122 90.7620069,114.847122 90.8303843,114.847122 C90.9319546,114.811151 91.0680454,114.811151 91.1702796,114.847122 C91.2379931,114.847122 91.2718499,114.882402 91.3402273,114.882402 C91.4079407,114.917681 91.4417975,114.917681 91.4763182,114.952961 C91.510175,114.98824 91.5778884,115.024211 91.6117452,115.059491 C91.9516405,115.413669 91.9516405,115.944936 91.6117452,116.299114 C91.5778884,116.334394 91.5440318,116.369673 91.4763182,116.404953 C91.4417975,116.440924 91.3740841,116.476204 91.3402273,116.476204 C91.3063705,116.511483 91.2379931,116.511483 91.1702796,116.511483 C91.1019022,116.546763 91.0680454,116.546763 91.000332,116.546763 Z" id="Path" fill="#FFCD29"></path>
                <g id="Group" transform="translate(0.000000, 12.086331)" fill="#231F20">
                    <path d="M97.5356842,89.9041797 L6.27766041,89.9041797 C2.81172573,89.9041797 0.000914977477,87.0829073 0.000914977477,83.6040725 L0.000914977477,75.4221989 C0.000914977477,74.7637184 0.516047297,74.2466688 1.17208609,74.2466688 L102.688837,74.2466688 C103.344876,74.2466688 103.860009,74.7637184 103.860009,75.4221989 L103.860009,83.6040725 C103.813345,87.0829073 101.002534,89.9041797 97.5356842,89.9041797 L97.5356842,89.9041797 Z M2.29567843,76.5977291 L2.29567843,83.6040725 C2.29567843,85.7668644 4.07622472,87.5531194 6.2309965,87.5531194 L97.5356842,87.5531194 C99.690456,87.5531194 101.471002,85.7668644 101.471002,83.6040725 L101.471002,76.5977291 L2.29567843,76.5977291 Z" id="Shape"></path>
                    <path d="M68.6782095,107.678563 L35.1360501,107.678563 C33.2145974,107.725401 31.6692005,106.221089 31.6225365,104.293403 C31.5749577,102.364799 33.0746059,100.81365 34.9951436,100.766813 L35.1360501,100.766813 L68.6315455,100.766813 C70.5520833,100.719057 72.0974802,102.224287 72.1450591,104.151973 C72.191723,106.079658 70.6920748,107.631725 68.771537,107.678563 C68.771537,107.678563 68.7248734,107.678563 68.6782095,107.678563 L68.6782095,107.678563 Z M35.1360501,103.117873 C34.5266752,103.070118 34.0115428,103.588085 34.0115428,104.19881 C33.9648789,104.810453 34.4800113,105.327503 35.0884712,105.327503 L35.182714,105.327503 L68.6782095,105.327503 C69.2866694,105.37434 69.8027167,104.857291 69.8027167,104.245648 C69.8493806,103.634923 69.3342483,103.117873 68.7248734,103.117873 C68.6782095,103.117873 68.6782095,103.117873 68.6315455,103.117873 L35.1360501,103.117873 Z" id="Shape"></path>
                    <path d="M63.1965793,103.117873 L40.6167653,103.117873 C39.9607262,103.117873 39.4455941,102.599905 39.4455941,101.942343 L39.4455941,88.7286496 C39.4455941,88.0710871 39.9607262,87.5531194 40.6167653,87.5531194 L63.1965793,87.5531194 C63.8526181,87.5531194 64.3677505,88.0710871 64.3677505,88.7286496 L64.3677505,101.942343 C64.3677505,102.599905 63.8526181,103.117873 63.1965793,103.117873 Z M41.7879364,100.766813 L62.0254082,100.766813 L62.0254082,89.9041797 L41.7879364,89.9041797 L41.7879364,100.766813 Z" id="Shape"></path>
                    <path d="M51.9066722,85.2966523 C49.9861346,85.2966523 48.4398226,83.7445853 48.4398226,81.8168994 C48.4398226,79.8892136 49.9861346,78.3371465 51.9066722,78.3371465 C53.82721,78.3371465 55.373522,79.8892136 55.373522,81.8168994 C55.3268581,83.7445853 53.82721,85.2966523 51.9066722,85.2966523 L51.9066722,85.2966523 Z M51.9066722,80.7350444 C51.2982122,80.7350444 50.7821649,81.2530122 50.7821649,81.863737 C50.7821649,82.4753799 51.2982122,82.9924296 51.9066722,82.9924296 C52.5160473,82.9924296 53.0311797,82.4753799 53.0311797,81.863737 C53.0311797,81.2052565 52.5160473,80.7350444 51.9066722,80.7350444 Z" id="Shape"></path>
                    <path d="M23.7985641,24.5447026 L5.80919195,24.5447026 C5.15406807,24.5447026 4.63802077,24.0276529 4.63802077,23.3691724 L4.63802077,19.1850195 C4.63802077,18.291433 5.38830231,17.5392773 6.27766041,17.5392773 L27.4529842,17.5392773 C28.109023,17.5392773 28.6241554,18.0563269 28.6241554,18.7148074 C28.6241554,19.0904262 28.4365851,19.4669631 28.109023,19.7020692 C26.6560388,20.6424933 25.5324465,22.0999671 24.9697352,23.7457093 C24.7821649,24.262759 24.3136965,24.5447026 23.7985641,24.5447026 Z M6.98036312,22.1936423 L23.0491977,22.1936423 C23.4243383,21.3478114 23.8928068,20.5956557 24.4546031,19.8903376 L6.98036312,19.8903376 L6.98036312,22.1936423 Z" id="Shape"></path>
                    <path d="M16.3973113,76.5977291 L5.80919195,76.5977291 C5.15406807,76.5977291 4.63802077,76.0806795 4.63802077,75.4221989 L4.63802077,19.1850195 C4.63802077,18.291433 5.38830231,17.5392773 6.27766041,17.5392773 L27.4529842,17.5392773 C28.109023,17.5392773 28.6241554,18.0563269 28.6241554,18.7148074 C28.6241554,19.0904262 28.4365851,19.4669631 28.109023,19.7020692 C25.9066722,21.1127054 24.5479307,23.6042785 24.5479307,26.2382005 L24.5479307,30.2818406 C24.5479307,30.6574594 24.4079392,30.9871587 24.127041,31.2222648 C23.0491977,32.0680956 22.8616271,33.5733251 23.7052365,34.654262 C24.2670325,35.3595801 25.1573058,35.736117 26.0475788,35.5478485 C26.7036176,35.4541734 27.2654139,35.8775478 27.4063203,36.5351103 L27.4063203,36.6297035 C27.5929757,39.3095451 29.1859515,41.6606054 31.5282938,42.8361356 C31.9034347,43.024404 32.1843328,43.4477785 32.1843328,43.871153 L32.1843328,47.0680442 C32.1843328,47.5382562 31.9500986,47.9147931 31.5282938,48.1030616 L27.4996481,50.1244226 C27.4063203,50.1712602 27.3587415,50.1712602 27.2654139,50.2190158 L20.5192848,51.9115957 C19.5823479,52.1467017 18.8796452,52.9925326 18.8329815,53.9807124 L17.6618103,75.4221989 C17.5209037,76.0806795 17.0057713,76.5977291 16.3973113,76.5977291 L16.3973113,76.5977291 Z M6.98036312,74.2466688 L15.319468,74.2466688 L16.4439752,53.8861191 C16.5373028,51.8647581 17.9427082,50.1712602 19.9108248,49.6542105 L26.5160473,47.9616307 L29.7953266,46.3158885 L29.7953266,44.5287154 C27.3587415,43.0712416 25.6724379,40.6265061 25.1573058,37.8520713 C22.5340653,37.6169653 20.6135275,35.2659049 20.8477618,32.632901 C20.9410896,31.551046 21.4095581,30.5169467 22.2055883,29.7170353 L22.2055883,26.1904448 C22.2055883,23.8871402 23.0025338,21.629755 24.4546031,19.8425819 L6.98036312,19.8425819 L6.98036312,74.2466688 Z" id="Shape"></path>
                    <path d="M89.899282,69.4499549 L61.2760415,69.4499549 C60.0582067,69.4499549 59.1212698,68.4626931 59.0746059,67.2403254 L59.0746059,35.6892794 C59.0746059,34.4669116 60.0582067,33.5264875 61.2760415,33.4787318 L89.9468609,33.4787318 C91.1646959,33.4787318 92.1016329,34.4669116 92.1482968,35.6892794 L92.1482968,67.2403254 C92.1016329,68.4626931 91.118032,69.4499549 89.899282,69.4499549 L89.899282,69.4499549 Z M61.4169482,67.0988945 L89.7592905,67.0988945 L89.7592905,35.8775478 L61.4169482,35.8775478 L61.4169482,67.0988945 Z" id="Shape"></path>
                    <path d="M75.6109937,41.3786618 L65.5865005,41.3786618 C64.9304617,41.3786618 64.4153293,40.8616121 64.4153293,40.2031316 C64.4153293,39.5446511 64.9304617,39.0276014 65.5865005,39.0276014 L75.6109937,39.0276014 C76.2670325,39.0276014 76.7821649,39.5446511 76.7821649,40.2031316 C76.7821649,40.8616121 76.2203689,41.3786618 75.6109937,41.3786618 Z" id="Path"></path>
                    <path d="M85.6364019,45.892514 L65.5865005,45.892514 C64.9304617,45.892514 64.4153293,45.3754643 64.4153293,44.7169838 C64.4153293,44.0585033 64.9304617,43.5414537 65.5865005,43.5414537 L85.6364019,43.5414537 C86.2924409,43.5414537 86.8075731,44.0585033 86.8075731,44.7169838 C86.8075731,45.3754643 86.245777,45.892514 85.6364019,45.892514 L85.6364019,45.892514 Z" id="Path"></path>
                    <path d="M85.6364019,50.4063662 L65.5865005,50.4063662 C64.9304617,50.4063662 64.4153293,49.8893165 64.4153293,49.230836 C64.4153293,48.5732736 64.9304617,48.0553059 65.5865005,48.0553059 L85.6364019,48.0553059 C86.2924409,48.0553059 86.8075731,48.5732736 86.8075731,49.230836 C86.8075731,49.8893165 86.245777,50.4063662 85.6364019,50.4063662 L85.6364019,50.4063662 Z" id="Path"></path>
                    <path d="M85.6364019,54.9211365 L65.5865005,54.9211365 C64.9304617,54.9211365 64.4153293,54.4031688 64.4153293,53.7456063 C64.4153293,53.0871258 64.9304617,52.5700762 65.5865005,52.5700762 L85.6364019,52.5700762 C86.2924409,52.5700762 86.8075731,53.0871258 86.8075731,53.7456063 C86.8075731,54.4031688 86.245777,54.9211365 85.6364019,54.9211365 L85.6364019,54.9211365 Z" id="Path"></path>
                    <path d="M85.6364019,59.4349887 L65.5865005,59.4349887 C64.9304617,59.4349887 64.4153293,58.9179391 64.4153293,58.2594586 C64.4153293,57.600978 64.9304617,57.0839284 65.5865005,57.0839284 L85.6364019,57.0839284 C86.2924409,57.0839284 86.8075731,57.600978 86.8075731,58.2594586 C86.8075731,58.9179391 86.245777,59.4349887 85.6364019,59.4349887 L85.6364019,59.4349887 Z" id="Path"></path>
                    <path d="M85.6364019,63.9956785 L65.5865005,63.9956785 C64.9304617,63.9956785 64.4153293,63.4786289 64.4153293,62.8201484 C64.4153293,62.1616678 64.9304617,61.6446182 65.5865005,61.6446182 L85.6364019,61.6446182 C86.2924409,61.6446182 86.8075731,62.1616678 86.8075731,62.8201484 C86.8075731,63.4786289 86.245777,63.9956785 85.6364019,63.9956785 L85.6364019,63.9956785 Z" id="Path"></path>
                    <path d="M53.8747888,24.5447026 L46.5192848,24.5447026 C45.9108248,24.5447026 45.4423564,24.0744905 45.3481136,23.5106033 C45.1138794,21.4414866 43.2400055,19.9371752 41.1785613,20.1722812 C40.6634289,20.2191188 40.1016329,20.4073873 39.6798283,20.6893309 C39.118032,21.0181121 38.4153293,20.8307617 38.0868524,20.2659564 C37.899282,19.9840128 37.7126266,19.7489068 37.4783924,19.5138007 C37.0099239,19.0435887 37.0099239,18.291433 37.4783924,17.8680585 C37.7126266,17.6329525 37.9935248,17.5392773 38.3210866,17.5392773 L52.1875703,17.5392773 C52.7502815,17.5392773 53.21875,17.9148961 53.3120776,18.4319457 C53.6405546,19.7020692 54.109023,20.9712745 54.8117257,22.0999671 C55.0926239,22.5701792 55.1859515,23.1340664 55.04596,23.6520341 C54.8583896,24.2159214 54.4365851,24.5447026 53.8747888,24.5447026 Z M47.4562217,22.1936423 L52.1875703,22.1936423 C51.8133446,21.4414866 51.5324465,20.6893309 51.2982122,19.8903376 L46.2383869,19.8903376 C46.753519,20.5479 47.2219875,21.3478114 47.4562217,22.1936423 Z" id="Shape"></path>
                    <path d="M98.0041526,24.5447026 L77.5791104,24.5447026 C76.9230716,24.5447026 76.4079392,24.0276529 76.4079392,23.3691724 C76.4079392,23.1340664 76.5012668,22.8989604 76.5955095,22.71161 C77.4848676,21.394649 78.0942427,19.9840128 78.4693834,18.4319457 C78.6093749,17.9148961 79.0778434,17.5392773 79.5929757,17.5392773 L97.4890203,17.5392773 C98.3792933,17.5392773 99.1286599,18.291433 99.1286599,19.1850195 L99.1286599,23.3691724 C99.1753238,24.0276529 98.6601914,24.5447026 98.0041526,24.5447026 Z M79.6405546,22.1936423 L96.8329815,22.1936423 L96.8329815,19.8903376 L80.5299127,19.8903376 C80.2956784,20.6893309 80.0147803,21.4883242 79.6405546,22.1936423 Z" id="Shape"></path>
                    <path d="M98.0041526,76.5977291 L53.4529842,76.5977291 C52.8436091,76.5977291 52.328477,76.127517 52.2818131,75.4690365 L51.1106419,54.02755 C51.063978,53.0402882 50.3612753,52.1935393 49.4243383,51.9584333 L42.6782095,50.2658534 C42.5839667,50.2658534 42.5373028,50.2190158 42.4439752,50.1712602 L38.4153293,48.1498991 C37.9935248,47.9616307 37.7592905,47.5382562 37.7592905,47.1148817 L37.7592905,43.7297221 C37.7592905,43.3063476 37.9935248,42.8829732 38.3677505,42.6956228 C40.6167653,41.472337 42.1154983,39.1690323 42.3030686,36.5828659 C42.3497325,35.9243854 42.9124437,35.4541734 43.5684825,35.501011 L43.6618103,35.501011 C43.8027167,35.501011 43.9427082,35.5478485 44.036951,35.5478485 C45.3947775,35.5478485 46.4726211,34.4669116 46.4726211,33.103113 C46.4726211,32.4446325 46.191723,31.786152 45.7232545,31.31594 C45.4890203,31.0808339 45.3481136,30.7988903 45.3481136,30.4701091 L45.3481136,23.9808153 C45.3481136,21.9116986 43.6618103,20.2191188 41.6003659,20.1722812 C40.8976632,20.1722812 40.2416244,20.3605497 39.6331644,20.7361685 C39.0704532,21.0658678 38.3677505,20.8775993 38.0401887,20.312794 C37.899282,20.0308504 37.6650478,19.7957443 37.4783924,19.5606383 C37.0099239,19.0904262 37.0099239,18.3382706 37.4783924,17.9148961 C37.7126266,17.6797901 37.9935248,17.5861149 38.3210866,17.5861149 L52.1875703,17.5861149 C52.7502815,17.5861149 53.21875,17.9617337 53.3120776,18.4797014 C53.6405546,19.7489068 54.109023,21.0181121 54.8117257,22.1468047 C55.1392878,22.71161 55.1859515,23.4637657 54.9050535,24.0744905 L52.7969454,28.6360984 L57.3407235,26.5201441 C57.9500986,26.2382005 58.699465,26.2850381 59.3088401,26.6138193 C65.4455941,30.2818406 73.4095581,28.3063991 77.1106419,22.0999671 C77.7666807,20.9712745 78.2818131,19.7489068 78.6093749,18.4319457 C78.7502815,17.9148961 79.21875,17.5392773 79.7338824,17.5392773 L97.6290118,17.5392773 C98.5192848,17.5392773 99.2686514,18.291433 99.2686514,19.1850195 L99.2686514,75.3753614 C99.1753238,76.0329238 98.6601914,76.5508915 98.0041526,76.5977291 Z M54.5774915,74.2466688 L96.8329815,74.2466688 L96.8329815,19.8903376 L80.5299127,19.8903376 C78.0475788,28.0244555 69.5209037,32.5860634 61.4169482,30.0935722 C60.2924409,29.764791 59.1679334,29.2468232 58.1376689,28.6360984 L53.0778434,31.0339963 C52.0475788,31.5042084 50.8297437,31.0808339 50.3136965,30.0467346 C50.0794622,29.4819293 50.0794622,28.8712044 50.3136965,28.3063991 L52.7036176,23.1818221 C52.0942427,22.1468047 51.6257743,21.0181121 51.2506334,19.8903376 L46.1450591,19.8903376 C47.1286599,21.0181121 47.690456,22.476504 47.690456,23.9339778 L47.690456,29.999897 C48.3931587,30.8457279 48.8149635,31.9275829 48.8149635,33.0562755 C48.8149635,35.5478485 46.9410896,37.6169653 44.4578406,37.8520713 C43.9893721,40.5319128 42.3973113,42.9307288 40.054969,44.3882026 L40.054969,46.3158885 L43.3342483,47.9616307 L49.9394707,49.6542105 C51.9066722,50.1244226 53.3120776,51.8647581 53.4063203,53.8861191 L54.5774915,74.2466688 Z" id="Shape"></path>
                    <path d="M52.1875703,31.2691024 C51.063978,31.2691024 50.127041,30.3286782 50.127041,29.1999857 C50.127041,28.918042 50.173705,28.5892608 50.3136965,28.3541548 L52.7036176,23.2286597 C48.4398226,15.8935351 50.8764077,6.48929374 58.1843328,2.20962947 C63.9468609,-1.17553016 71.254786,-0.423374477 76.2203689,4.09047774 C82.4980293,9.7807782 82.9198338,19.5138007 77.2506334,25.814826 C72.3792933,31.1754272 64.4153293,32.3977949 58.1843328,28.7297736 L53.0778434,31.0339963 C52.7969454,31.1754272 52.5160473,31.2691024 52.1875703,31.2691024 L52.1875703,31.2691024 Z M65.9140626,2.39789792 C58.7461289,2.39789792 52.9378519,8.18187356 52.9378519,15.3755673 C52.9378519,17.7266276 53.5929757,20.077688 54.8117257,22.0999671 C55.1392878,22.6638543 55.1859515,23.4169281 54.9050535,24.0276529 L52.7969454,28.5892608 L57.3407235,26.4733065 C57.9500986,26.1904448 58.699465,26.2382005 59.3088401,26.5669817 C65.4455941,30.2350031 73.4095581,28.2595615 77.1106419,22.0531295 C80.2956784,16.7393659 79.2654139,9.92129097 74.7216356,5.73621997 C72.2383869,3.62026567 69.1466779,2.39789792 65.9140626,2.39789792 L65.9140626,2.39789792 Z" id="Shape"></path>
                    <path d="M97.5356842,89.9041797 L6.27766041,89.9041797 C2.81172573,89.9041797 0.000914977477,87.0829073 0.000914977477,83.6040725 L0.000914977477,19.1850195 C0.000914977477,15.7052666 2.81172573,12.8839942 6.27766041,12.8839942 L51.8600085,12.8839942 C52.5160473,12.8839942 53.0311797,13.4010439 53.0311797,14.0595244 L53.0311797,14.1531996 C52.7502815,16.9276344 53.4063203,19.7020692 54.8117257,22.0999671 C55.1392878,22.6638543 55.1859515,23.4169281 54.9050535,24.0276529 L52.7969454,28.5892608 L57.3407235,26.4733065 C57.9500986,26.1904448 58.699465,26.2382005 59.3088401,26.5669817 C65.4455941,30.2350031 73.4095581,28.2595615 77.1106419,22.0531295 C78.5160473,19.6552316 79.1720861,16.8807968 78.890273,14.106362 C78.8436091,13.4478815 79.3120776,12.8839942 79.9681166,12.8371566 L80.0614442,12.8371566 L97.6290118,12.8371566 C101.095861,12.8371566 103.906672,15.658429 103.906672,19.1372638 L103.906672,83.5563168 C103.813345,87.0829073 101.002534,89.9041797 97.5356842,89.9041797 Z M6.27766041,15.2350545 C4.1228884,15.2350545 2.34325726,17.0213095 2.34325726,19.1850195 L2.34325726,83.6040725 C2.34325726,85.7668644 4.1228884,87.5531194 6.27766041,87.5531194 L97.5823479,87.5531194 C99.7371199,87.5531194 101.517666,85.7668644 101.517666,83.6040725 L101.517666,19.1850195 C101.517666,17.0213095 99.7371199,15.2350545 97.5823479,15.2350545 L81.2326154,15.2350545 C81.3268581,23.6988717 74.5807292,30.6574594 66.1016329,30.7988903 C63.337486,30.8457279 60.5733388,30.0935722 58.1843328,28.682936 L53.0778434,31.0339963 C52.0475788,31.5042084 50.8297437,31.0808339 50.3136965,30.0467346 C50.0794622,29.4819293 50.0794622,28.8712044 50.3136965,28.3063991 L52.7036176,23.1818221 C51.2982122,20.7830061 50.5955095,18.0094893 50.5955095,15.2350545 L6.27766041,15.2350545 Z" id="Shape"></path>
                    <path d="M44.036951,37.8989089 C43.8027167,37.8989089 43.5209037,37.8989089 43.2866694,37.8520713 C42.6782095,37.7583961 42.2564049,37.2404284 42.3030686,36.6297035 C42.3030686,36.4414351 42.3030686,36.3000042 42.3030686,36.1126539 L42.3030686,30.0935722 C42.3030686,29.9053038 42.3030686,29.764791 42.3030686,29.5765225 C42.2564049,28.9648796 42.6782095,28.44783 43.2866694,28.3541548 C45.9108248,27.9307803 48.346495,29.7170353 48.7682995,32.3509574 C49.1901041,34.9839613 47.4095581,37.4286968 44.7863176,37.8520713 C44.5520833,37.8989089 44.2711852,37.8989089 44.036951,37.8989089 Z M44.6454109,30.7520527 L44.6454109,35.501011 C45.9574887,35.1722297 46.753519,33.8084311 46.3792933,32.4914701 C46.191723,31.6456393 45.4890203,30.9403212 44.6454109,30.7520527 Z" id="Shape"></path>
                    <path d="M25.5791104,37.8989089 C22.9558699,37.8989089 20.8001829,35.736117 20.8001829,33.103113 C20.8001829,30.4701091 22.9558699,28.3063991 25.5791104,28.3063991 C25.8133446,28.3063991 26.0942427,28.3063991 26.328477,28.3541548 C26.9378519,28.44783 27.3587415,28.9648796 27.3120776,29.5765225 L27.3120776,30.0935722 L27.3120776,36.0648982 L27.3120776,36.5828659 C27.3587415,37.1935908 26.9378519,37.7106404 26.328477,37.8052337 C26.0942427,37.8989089 25.8600085,37.8989089 25.5791104,37.8989089 Z M24.9697352,30.7520527 C23.6585726,31.0808339 22.8616271,32.4446325 23.236768,33.7615935 C23.4710023,34.6074244 24.127041,35.3127425 24.9697352,35.501011 L24.9697352,30.7520527 Z" id="Shape"></path>
                    <path d="M34.8075731,45.9871073 C29.373522,45.9871073 24.9697352,41.5669302 24.9697352,36.1126539 L24.9697352,29.1063105 C24.9697352,28.2127239 25.7191019,27.4605683 26.6093749,27.4605683 C26.7036176,27.4605683 26.8436091,27.4605683 26.9378519,27.5074058 C28.5299127,27.8361871 32.4652307,28.2595615 35.182714,24.8275643 C35.74451,24.1222462 36.7756897,23.9808153 37.4783924,24.5447026 C37.5250563,24.5924583 37.5717202,24.6392959 37.6183839,24.6392959 C38.1810951,25.2031831 39.8207347,26.4733065 43.0524352,26.5669817 C43.9427082,26.6138193 44.5987472,27.3191374 44.6454109,28.1658863 L44.6454109,36.0648982 C44.6454109,41.5669302 40.2416244,45.9871073 34.8075731,45.9871073 Z M27.3120776,29.9521413 L27.3120776,36.1126539 C27.4063203,40.2499692 30.8255911,43.5414537 34.9951436,43.4477785 C39.0237893,43.3531852 42.209741,40.1094564 42.3030686,36.1126539 L42.3030686,28.918042 C40.2416244,28.8243669 38.227759,28.1190488 36.5414555,26.8489253 C33.4964104,30.2350031 29.373522,30.2350031 27.3120776,29.9521413 Z" id="Shape"></path>
                    <path d="M46.5659487,31.6924768 C46.2850506,31.6924768 45.9574887,31.551046 45.7699184,31.3627775 C45.3014499,30.9403212 44.6920748,30.6574594 44.0836149,30.6574594 C43.9427082,30.6574594 43.8493806,30.6574594 43.708474,30.7052151 C43.0524352,30.7988903 42.4906391,30.3755158 42.3497325,29.7170353 C42.3497325,29.6701977 42.3497325,29.5765225 42.3497325,29.529685 L42.3497325,28.918042 C40.2892032,28.8243669 38.2744229,28.1190488 36.5881194,26.8489253 C33.4964104,30.2818406 29.3268581,30.2350031 27.2654139,29.9521413 C27.0778434,30.4701091 26.5160473,30.7988903 26.0009149,30.7052151 C25.3448761,30.6106219 24.6421734,30.7520527 24.0794622,31.2222648 C23.5643298,31.6456393 22.8149635,31.551046 22.4398226,31.0339963 C22.2531672,30.8457279 22.2055883,30.5637843 22.2055883,30.2818406 L22.2055883,26.2382005 C22.2055883,20.6424933 26.7502815,16.0808854 32.3252392,16.0808854 L34.854237,16.0808854 C36.6347833,16.0808854 38.3210866,16.8807968 39.4455941,18.1968397 C40.1482968,17.9148961 40.8509995,17.7743833 41.6003659,17.7743833 C44.9738879,17.7743833 47.7371199,20.5479 47.7371199,23.9339778 L47.7371199,30.4701091 C47.7371199,31.1276715 47.1753238,31.6924768 46.5659487,31.6924768 Z M44.6454109,28.3541548 L45.3481136,28.4946676 L45.3481136,23.9808153 C45.3481136,21.9116986 43.6618103,20.2191188 41.6003659,20.1722812 C40.8976632,20.1722812 40.2416244,20.3605497 39.6331644,20.7361685 C39.0704532,21.0658678 38.3677505,20.8775993 38.0401887,20.312794 C37.337486,19.1850195 36.1196509,18.4797014 34.8075731,18.4319457 L32.2776604,18.4319457 C27.9681166,18.4319457 24.5012668,21.9116986 24.5012668,26.2382005 L24.5012668,28.4009924 C24.735501,28.3541548 24.9697352,28.3063991 25.1573058,28.3063991 C25.4848676,27.6956743 26.2351492,27.365975 26.9378519,27.5074058 C28.5299127,27.8361871 32.4652307,28.2595615 35.182714,24.8275643 C35.74451,24.1222462 36.7756897,23.9808153 37.4783924,24.5447026 C37.5250563,24.5924583 37.5717202,24.6392959 37.6183839,24.6392959 C38.1810951,25.2031831 39.8207347,26.4733065 43.0524352,26.5669817 C43.9427082,26.6138193 44.5987472,27.3191374 44.6454109,28.1658863 L44.6454109,28.3541548 Z" id="Shape"></path>
                    <path d="M34.9484797,57.365872 C34.854237,57.365872 34.8075731,57.365872 34.7142455,57.3190344 C34.5733388,57.2721968 34.4333474,57.2244412 34.2924409,57.130766 C34.245777,57.0839284 34.1515343,57.0370908 34.1048704,56.9893351 C33.6364019,56.5191231 33.6364019,55.7669674 34.1048704,55.3435929 C34.1515343,55.2967553 34.1991131,55.2499177 34.2924409,55.2030801 C34.3391046,55.1562425 34.4333474,55.1084869 34.4800113,55.1084869 C34.5733388,55.0616493 34.6200028,55.0616493 34.7142455,55.0616493 C35.3702843,54.9211365 35.9787443,55.3435929 36.072987,56.0020734 L36.072987,56.2371794 C36.1196509,56.8488224 35.6045185,57.365872 34.9484797,57.365872 L34.9484797,57.365872 Z" id="Path"></path>
                    <path d="M34.9484797,62.0211551 C34.854237,62.0211551 34.8075731,62.0211551 34.7142455,61.9743175 C34.6200028,61.9743175 34.5733388,61.9265618 34.4800113,61.9265618 C34.3857685,61.8797242 34.3391046,61.8797242 34.2924409,61.8328866 C34.245777,61.786049 34.1515343,61.7392115 34.1048704,61.6914558 C33.6364019,61.2212437 33.6364019,60.469088 34.1048704,60.0457135 C34.1515343,59.998876 34.1991131,59.9520384 34.2924409,59.9052008 C34.3391046,59.8583632 34.4333474,59.8106075 34.4800113,59.8106075 C34.5733388,59.7637699 34.6200028,59.7637699 34.7142455,59.7637699 C35.0884712,59.6700947 35.5102758,59.8106075 35.7911739,60.0934692 C36.2596424,60.5636813 36.2596424,61.315837 35.7911739,61.7392115 C35.5569397,61.8797242 35.2760415,62.0211551 34.9484797,62.0211551 L34.9484797,62.0211551 Z" id="Path"></path>
                    <path d="M34.9484797,66.6764381 C34.854237,66.6764381 34.8075731,66.6764381 34.7142455,66.6286825 C34.6200028,66.6286825 34.5733388,66.5818449 34.4800113,66.5818449 C34.3857685,66.5350073 34.3391046,66.5350073 34.2924409,66.4881697 C34.245777,66.4413321 34.1515343,66.3935764 34.1048704,66.3467388 C33.6364019,65.8765268 33.6364019,65.1243711 34.1048704,64.7009966 C34.1515343,64.654159 34.1991131,64.6073214 34.2924409,64.5604838 C34.3391046,64.5127282 34.4333474,64.4658906 34.4800113,64.4658906 C35.0884712,64.2307845 35.74451,64.5127282 36.0254082,65.1243711 C36.2596424,65.736014 35.9787443,66.3935764 35.3702843,66.6764381 C35.2293779,66.6286825 35.0884712,66.6764381 34.9484797,66.6764381 L34.9484797,66.6764381 Z" id="Path"></path>
                    <path d="M34.9484797,71.3308031 C34.854237,71.3308031 34.8075731,71.3308031 34.7142455,71.2839655 C34.6200028,71.2839655 34.5733388,71.2371279 34.4800113,71.2371279 C34.3857685,71.1902904 34.3391046,71.1902904 34.2924409,71.1434528 C34.245777,71.0956971 34.1515343,71.0488595 34.1048704,71.0020219 C33.8706361,70.7669159 33.7773086,70.4849723 33.7773086,70.155273 C33.7773086,69.8264917 33.9173001,69.5445481 34.1048704,69.3094421 C34.1515343,69.2626045 34.1991131,69.2148488 34.2924409,69.1680112 C34.3391046,69.1211736 34.4333474,69.0743361 34.4800113,69.0743361 C34.9018158,68.8860676 35.4169482,68.9797428 35.74451,69.3094421 C35.8387528,69.4031173 35.9320806,69.5445481 35.9787443,69.6850609 C36.0254082,69.8264917 36.072987,69.9679226 36.072987,70.1084354 C36.1196509,70.7669159 35.6045185,71.3308031 34.9484797,71.3308031 L34.9484797,71.3308031 Z" id="Path"></path>
                    <path d="M45.0672157,76.5977291 C44.4111767,76.5977291 43.8960445,76.0806795 43.8960445,75.4221989 L43.8960445,60.8456249 C43.8960445,60.1871444 44.4111767,59.6700947 45.0672157,59.6700947 C45.7232545,59.6700947 46.2383869,60.1871444 46.2383869,60.8456249 L46.2383869,75.3753614 C46.2383869,76.0329238 45.7232545,76.5508915 45.0672157,76.5977291 Z" id="Path"></path>
                    <path d="M24.5479307,76.5977291 C23.8928068,76.5977291 23.3767595,76.0806795 23.3767595,75.4221989 L23.3767595,60.8456249 C23.3767595,60.1871444 23.8928068,59.6700947 24.5479307,59.6700947 C25.2039695,59.6700947 25.7191019,60.1871444 25.7191019,60.8456249 L25.7191019,75.3753614 C25.7191019,76.0329238 25.2039695,76.5508915 24.5479307,76.5977291 Z" id="Path"></path>
                    <path d="M37.0565878,52.6169138 L32.8870355,52.6169138 C32.1376689,52.6169138 31.4816301,52.1467017 31.2473959,51.4413836 L29.8886542,47.4914186 C29.8419905,47.3499878 29.8419905,47.2563126 29.8419905,47.1148817 L29.8419905,43.9179905 C29.8419905,43.25951 30.3571226,42.7424604 31.0131617,42.7424604 C31.200732,42.7424604 31.3883023,42.789298 31.5282938,42.8829732 C32.5594735,43.4009409 33.7306446,43.6828845 34.854237,43.6828845 C36.1196509,43.6828845 37.337486,43.3531852 38.4153293,42.789298 C38.9771256,42.4605168 39.6798283,42.6956228 40.0073901,43.25951 C40.1016329,43.4477785 40.1482968,43.6360469 40.1482968,43.8233973 L40.1482968,47.1626374 C40.1482968,47.3031502 40.1482968,47.444581 40.1016329,47.5382562 L38.7428914,51.4882212 C38.4153293,52.1467017 37.7592905,52.6169138 37.0565878,52.6169138 Z M33.2621762,50.2658534 L36.5881194,50.2658534 L37.7592905,46.9275314 L37.7592905,45.5637328 C35.9320806,46.12762 33.9648789,46.1744576 32.1376689,45.657408 L32.1376689,46.974369 L33.2621762,50.2658534 Z" id="Shape"></path>
                    <path d="M53.4996481,76.5977291 L16.3973113,76.5977291 C15.7412725,76.5977291 15.2261401,76.0806795 15.2261401,75.4221989 L15.2261401,75.3753614 L16.3973113,53.9329567 C16.4906391,51.9115957 17.8960445,50.2190158 19.863246,49.7010481 L26.4693834,48.0084683 L30.4037865,46.0807824 C30.9664977,45.7988388 31.6692005,46.0339448 31.9500986,46.5978321 C31.9500986,46.6446697 31.9967623,46.6924254 31.9967623,46.7392629 L33.2145974,50.2658534 L36.5414555,50.2658534 L37.7592905,46.7392629 C37.9935248,46.12762 38.6495636,45.7988388 39.2580235,46.0339448 C39.3046874,46.0339448 39.3522663,46.0807824 39.3989302,46.0807824 L43.3342483,48.0084683 L49.9394707,49.7010481 C51.9066722,50.1712602 53.3120776,51.9115957 53.4063203,53.9329567 L54.5774915,75.3753614 C54.6241554,76.0329238 54.109023,76.5977291 53.4529842,76.5977291 C53.5463118,76.5508915 53.4996481,76.5977291 53.4996481,76.5977291 Z M17.6618103,74.2466688 L52.2818131,74.2466688 L51.1573058,54.02755 C51.1106419,53.0402882 50.4079392,52.1935393 49.4710023,51.9584333 L42.7248734,50.2658534 C42.6315455,50.2658534 42.5839667,50.2190158 42.4906391,50.1712602 L39.6331644,48.760624 L38.6962275,51.4413836 C38.4619932,52.1467017 37.8059545,52.6169138 37.0565878,52.6169138 L32.8870355,52.6169138 C32.1376689,52.6169138 31.4816301,52.1467017 31.2473959,51.4413836 L30.310459,48.760624 L27.4529842,50.1712602 C27.3587415,50.2190158 27.3120776,50.2190158 27.21875,50.2658534 L20.4726211,51.9584333 C19.5356842,52.1935393 18.8329815,53.0402882 18.7863176,54.02755 L17.6618103,74.2466688 Z" id="Shape"></path>
                    <path d="M58.7461289,16.8339592 C58.6528013,16.8339592 58.6061374,16.8339592 58.5118946,16.8339592 C58.4185671,16.8339592 58.3719032,16.7862035 58.2776604,16.7862035 C58.2309965,16.7393659 58.1376689,16.7393659 58.091005,16.6925283 C58.0434262,16.6456907 57.9500986,16.5988532 57.9034347,16.5510975 C57.8567708,16.5042599 57.8091919,16.4574223 57.762528,16.3637471 C57.7158644,16.3159914 57.6692005,16.2223163 57.6692005,16.1754787 C57.6225365,16.1286411 57.6225365,16.0340478 57.6225365,15.9403726 C57.5749577,15.7989418 57.5749577,15.6106733 57.6225365,15.4701606 C57.6225365,15.3755673 57.6692005,15.3287297 57.6692005,15.2350545 C57.7158644,15.1404613 57.7158644,15.0936237 57.762528,15.0467861 C57.8091919,14.9999485 57.8567708,14.9053552 57.9034347,14.8585177 C57.9500986,14.8116801 57.9967623,14.7648425 58.091005,14.7180049 C58.1376689,14.6702492 58.2309965,14.6234116 58.2776604,14.6234116 C58.3719032,14.576574 58.4185671,14.576574 58.5118946,14.576574 C58.6528013,14.5297364 58.8403716,14.5297364 58.9803631,14.576574 C59.0746059,14.576574 59.1212698,14.6234116 59.2145974,14.6234116 C59.3088401,14.6702492 59.355504,14.6702492 59.4021677,14.7180049 C59.4488316,14.7648425 59.5430743,14.8116801 59.5897382,14.8585177 C59.6364019,14.9053552 59.6830658,14.9531109 59.7306446,15.0467861 C59.7773086,15.0936237 59.8239725,15.188217 59.8239725,15.2350545 C59.8706361,15.3287297 59.8706361,15.3755673 59.8706361,15.4701606 L59.8706361,15.7052666 C59.8706361,16.0340478 59.7306446,16.3159914 59.5430743,16.5510975 C59.4964104,16.5988532 59.4488316,16.6456907 59.355504,16.6925283 C59.3088401,16.7393659 59.2145974,16.7862035 59.1679334,16.7862035 C59.0746059,16.8339592 59.0279419,16.8339592 58.9336992,16.8339592 C58.8870355,16.8339592 58.7937077,16.8339592 58.7461289,16.8339592 Z" id="Path"></path>
                    <path d="M63.3841497,16.8339592 C63.0565878,16.8339592 62.7756897,16.6925283 62.5414555,16.5042599 C62.3072212,16.2691539 62.2129785,15.9872102 62.2129785,15.658429 C62.2129785,15.5638358 62.2129785,15.5169982 62.2596424,15.423323 C62.3072212,15.2818921 62.3538851,15.1404613 62.4472127,14.9999485 C62.4938766,14.9531109 62.5414555,14.8585177 62.5881194,14.8116801 C62.6347833,14.7648425 62.681447,14.7180049 62.7756897,14.6702492 C62.8223536,14.6234116 62.9156812,14.576574 62.9623451,14.576574 C63.0565878,14.5297364 63.1032517,14.5297364 63.1965793,14.5297364 C63.5717202,14.4351432 63.9935248,14.576574 64.227759,14.8585177 C64.2744229,14.9053552 64.3210866,14.9531109 64.3677505,15.0467861 C64.4619932,15.188217 64.5086572,15.3287297 64.5553208,15.4701606 C64.5553208,15.5638358 64.5553208,15.6106733 64.6019847,15.7052666 C64.5553208,16.3159914 63.9935248,16.8339592 63.3841497,16.8339592 L63.3841497,16.8339592 Z" id="Path"></path>
                    <path d="M67.9755068,16.8339592 C67.6470298,16.8339592 67.3661316,16.6925283 67.1318974,16.5042599 C66.6634289,16.0340478 66.6634289,15.2818921 67.1318974,14.8585177 C67.1785613,14.8116801 67.2261401,14.7648425 67.319468,14.7180049 C67.7879364,14.3883056 68.3973113,14.4828989 68.818201,14.8585177 C68.8657798,14.9053552 68.9124437,14.9531109 68.9591076,15.0467861 C69.0524352,15.188217 69.100014,15.3287297 69.1466779,15.4701606 C69.1466779,15.5638358 69.1466779,15.6106733 69.1933418,15.7052666 C69.1466779,16.3159914 68.6315455,16.8339592 67.9755068,16.8339592 Z" id="Path"></path>
                    <path d="M72.6135275,16.8339592 C72.5192848,16.8339592 72.4726211,16.8339592 72.3792933,16.8339592 C72.2850506,16.8339592 72.2383869,16.7862035 72.1450591,16.7862035 C72.0974802,16.7393659 72.0041526,16.7393659 71.9574887,16.6925283 C71.9108248,16.6456907 71.8165821,16.5988532 71.7699184,16.5510975 C71.7232545,16.5042599 71.6765906,16.4574223 71.6290118,16.3637471 C71.5823479,16.3159914 71.5356842,16.2223163 71.5356842,16.1754787 C71.4890203,16.0808854 71.4890203,16.0340478 71.4890203,15.9403726 C71.4890203,15.8457794 71.4890203,15.7989418 71.4423564,15.7052666 C71.4423564,15.3755673 71.5823479,15.0936237 71.7699184,14.8585177 C72.0974802,14.5297364 72.6135275,14.4351432 73.0344172,14.6234116 C73.1286599,14.6702492 73.1753238,14.6702492 73.2219875,14.7180049 C73.2686514,14.7648425 73.3628941,14.8116801 73.4095581,14.8585177 C73.4562217,14.9053552 73.5028856,14.9531109 73.5504645,15.0467861 C73.6437923,15.188217 73.690456,15.3287297 73.7371199,15.4701606 C73.7846987,15.6106733 73.7846987,15.7989418 73.7371199,15.9403726 C73.7371199,16.0340478 73.690456,16.0808854 73.690456,16.1754787 C73.6437923,16.2691539 73.6437923,16.3159914 73.5971284,16.3637471 C73.5504645,16.4105847 73.5028856,16.5042599 73.4562217,16.5510975 C73.2219875,16.6925283 72.9410896,16.8339592 72.6135275,16.8339592 Z" id="Path"></path>
                </g>
                <path d="M37.1920515,12.0080355 C35.1015986,11.5911376 33.4296448,9.97743718 33.0111458,7.84312262 C33.0111458,7.79126451 32.9590885,7.73940639 32.9070315,7.79126451 C32.8549743,7.79126451 32.8549743,7.84312262 32.8549743,7.84312262 C32.4364753,9.92557907 30.8165787,11.5911376 28.6740686,12.0080355 C28.6220113,12.0080355 28.5689334,12.0598936 28.6220113,12.1117517 C28.6220113,12.1646264 28.6740686,12.1646264 28.6740686,12.1646264 C30.7645214,12.5805077 32.4364753,14.1942082 32.8549743,16.3295393 C32.8549743,16.3813974 32.9070315,16.4332555 32.9590885,16.3813974 C33.0111458,16.3813974 33.0111458,16.3295393 33.0111458,16.3295393 C33.4296448,14.2470828 35.0495414,12.5805077 37.1920515,12.1646264 C37.2451294,12.1646264 37.2971867,12.1117517 37.2451294,12.0598936 C37.2451294,12.0598936 37.1920515,12.0080355 37.1920515,12.0080355 Z" id="Path" fill="#6DCC6D"></path>
            </g>
        </g>
    </g>
</svg>