<?xml version="1.0" encoding="UTF-8"?>
<svg width="120px" height="109px" viewBox="0 0 120 109" version="1.1" xmlns="http://www.w3.org/2000/svg" xmlns:xlink="http://www.w3.org/1999/xlink">
    <!-- Generator: Sketch 54.1 (76490) - https://sketchapp.com -->
    <title>promotion</title>
    <desc>Created with Sketch.</desc>
    <g id="Elementos" stroke="none" stroke-width="1" fill="none" fill-rule="evenodd">
        <g id="Amazon/Servicios" transform="translate(-399.000000, -605.000000)" fill-rule="nonzero">
            <g id="promotion" transform="translate(399.000000, 605.000000)">
                <path d="M58.4527589,65.2794684 L55.6402589,65.2794684 L55.6402589,71.4874866 L61.2652589,71.4874866 L61.2652589,68.0803249 C61.2652589,66.539489 60,65.2794684 58.4527589,65.2794684 L58.4527589,65.2794684 Z" id="Path" fill="#F9D0B4"></path>
                <path d="M66.4691161,82.5979154 C66.4691161,80.5437717 64.8284911,78.9099387 62.765808,78.9099387 C64.8284911,78.9099387 66.4691161,77.2761057 66.4691161,75.221962 C66.4691161,73.1687299 64.8284911,71.5348969 62.765808,71.5348969 L42.421875,71.5348969 L42.421875,65.3259668 L39.797058,65.3259668 C38.390808,65.3259668 37.03125,65.8392749 35.906067,66.7263951 C31.125183,69.9475626 33.234558,71.6743927 19.6875,71.6743927 L19.6875,98.6098434 C27.5628661,98.7958378 30.0933839,98.143034 34.21875,99.4495533 C36.281433,100.010272 38.390808,101.129885 41.953125,101.129885 L62.765808,101.129885 C64.8284911,101.129885 66.4691161,99.4960519 66.4691161,97.4428199 C66.4691161,95.3886761 64.8284911,93.7548431 62.765808,93.7548431 C64.8284911,93.7548431 66.4691161,92.1210102 66.4691161,90.0668662 C66.4691161,88.0127224 64.8284911,86.3788895 62.765808,86.3788895 C64.7808839,86.2858924 66.4691161,84.6055608 66.4691161,82.5979154 L66.4691161,82.5979154 Z" id="Path" fill="#F9D0B4"></path>
                <path d="M18.515625,69.0604422 L13.2183839,69.0604422 L13.2183839,101.083386 L18.515625,101.083386 C19.1253661,101.083386 19.640808,100.570078 19.640808,99.9628613 L19.640808,70.2274658 C19.6875,69.5737503 19.172058,69.0604422 18.515625,69.0604422 L18.515625,69.0604422 Z" id="Path" fill="#E9E9EA"></path>
                <path d="M2.29705805,66.8193924 L12.0941161,66.8193924 C12.702942,66.8193924 13.2183839,67.3336122 13.2183839,67.9399173 L13.2183839,102.670721 C13.2183839,103.277938 12.702942,103.791246 12.0941161,103.791246 L2.29705805,103.791246 C1.68731695,103.791246 1.171875,103.277938 1.171875,102.670721 L1.171875,67.9399173 C1.171875,67.3336122 1.68731695,66.8193924 2.29705805,66.8193924 L2.29705805,66.8193924 Z" id="Path" fill="#60BAE2"></path>
                <polygon id="Path" fill="#E9E9EA" points="42.421875 60.7043713 55.6878661 60.7043713 55.6878661 71.4874866 42.421875 71.4874866"></polygon>
                <path d="M42.421875,101.083386 C42.421875,104.724865 45.422058,107.665217 49.031067,107.665217 C52.687683,107.665217 55.6402589,104.724865 55.6402589,101.083386 L42.421875,101.083386 Z" id="Path" fill="#E9E9EA"></path>
                <path d="M101.577759,40.8649708 L100.3125,40.8649708 L100.3125,50.2950683 L101.577759,50.2950683 C104.203491,50.2950683 106.312866,48.1944259 106.312866,45.5795637 C106.312866,42.9656132 104.203491,40.8649708 101.577759,40.8649708 Z" id="Path" fill="#FCD770"></path>
                <path d="M62.109375,30.4556678 L39.7503661,30.4556678 C31.359558,30.4556678 24.562683,37.2244044 24.562683,45.5795637 C24.562683,53.9356346 31.359558,60.7043713 39.7503661,60.7043713 L62.062683,60.7043713 L62.109375,30.4556678 Z" id="Path" fill="#6D6C6B"></path>
                <path d="M97.077942,11.5963849 C95.2972411,11.5963849 93.8433839,13.0433116 93.8433839,14.8175522 L93.8433839,76.4363959 C93.8433839,78.2097246 95.2972411,79.6566515 97.077942,79.6566515 C98.859558,79.6566515 100.3125,78.2097246 100.3125,76.4363959 L100.3125,14.8175522 C100.3125,12.9968132 98.859558,11.5963849 97.077942,11.5963849 L97.077942,11.5963849 Z" id="Path" fill="#F75C64"></path>
                <polygon id="Path" fill="#E9E9EA" points="62.109375 30.4556678 62.109375 60.7043713 93.8909911 76.0625835 93.8909911 15.143954"></polygon>
                <path d="M82.1722411,4.17393257 C80.109558,3.7536218 78.468933,2.16628747 78.046875,0.0656450749 C78.046875,0.0191464685 78.000183,-0.0273522313 77.9534911,0.0191464685 C77.9058839,0.0191464685 77.9058839,0.0656450749 77.9058839,0.0656450749 C77.4847411,2.11978882 75.890808,3.7536218 73.781433,4.17393257 C73.7347411,4.17393257 73.6871339,4.22043122 73.7347411,4.26692987 C73.7347411,4.3143402 73.781433,4.3143402 73.781433,4.3143402 C75.8441161,4.73373929 77.4847411,6.32107362 77.9058839,8.42171601 C77.9058839,8.46821467 77.9534911,8.515625 78.000183,8.46821467 C78.046875,8.46821467 78.046875,8.42171601 78.046875,8.42171601 C78.468933,6.36757227 80.0628661,4.73373929 82.1722411,4.3143402 C82.218933,4.3143402 82.265625,4.26692987 82.218933,4.22043122 C82.265625,4.17393257 82.218933,4.17393257 82.1722411,4.17393257 Z" id="Path" fill="#60BAE2"></path>
                <path d="M81.047058,83.5780329 L76.9683839,83.5780329 C76.3128661,83.5780329 75.7965089,83.0647249 75.7965089,82.4110094 C75.7965089,81.7572939 76.3128661,81.2439858 76.9683839,81.2439858 L81.047058,81.2439858 C81.7034911,81.2439858 82.218933,81.7572939 82.218933,82.4110094 C82.218933,83.0647249 81.7034911,83.5780329 81.047058,83.5780329 Z" id="Path" fill="#FCD770"></path>
                <path d="M79.031067,85.5856783 C78.3746339,85.5856783 77.859192,85.0723702 77.859192,84.4186547 L77.859192,80.3568656 C77.859192,79.7040618 78.3746339,79.1898421 79.031067,79.1898421 C79.6875,79.1898421 80.202942,79.7040618 80.202942,80.3568656 L80.202942,84.4186547 C80.202942,85.0723702 79.6875,85.5856783 79.031067,85.5856783 L79.031067,85.5856783 Z" id="Path" fill="#FCD770"></path>
                <path d="M86.062317,94.0812449 C85.734558,94.0812449 85.4534911,93.9417492 85.2191161,93.7548431 C85.1715089,93.7083445 85.124817,93.6609342 85.078125,93.5679368 C85.031433,93.5214384 84.9847411,93.4275294 84.9847411,93.3810308 C84.9371339,93.3345321 84.9371339,93.2415351 84.9371339,93.1476261 C84.9371339,93.054629 84.890442,93.0081304 84.890442,92.9142214 C84.890442,92.8212243 84.890442,92.7747256 84.9371339,92.6808167 C84.9371339,92.5878196 84.9847411,92.5413209 84.9847411,92.4474119 C85.031433,92.3544149 85.031433,92.3079162 85.078125,92.2605059 C85.124817,92.2140072 85.1715089,92.1210102 85.2191161,92.0745115 C85.546875,91.7471978 86.062317,91.6542007 86.484375,91.8411068 C86.531067,91.8876055 86.6253661,91.8876055 86.672058,91.9341039 C86.71875,91.9806025 86.8121339,92.0271012 86.8597411,92.0745115 C86.906433,92.1210102 86.953125,92.1675086 86.999817,92.2605059 C87.0465089,92.3079162 87.0941161,92.4009133 87.0941161,92.4474119 C87.140808,92.4939106 87.140808,92.5878196 87.140808,92.6808167 C87.140808,92.7747256 87.140808,92.8212243 87.1875,92.9142214 C87.1875,93.0081304 87.1875,93.054629 87.140808,93.1476261 C87.140808,93.2415351 87.0941161,93.2880337 87.0941161,93.3810308 C87.0465089,93.4749398 87.0465089,93.5214384 86.999817,93.5679368 C86.953125,93.6144355 86.906433,93.7083445 86.8597411,93.7548431 C86.8121339,93.8013416 86.765442,93.8478402 86.672058,93.8943389 C86.6253661,93.9417492 86.531067,93.9882479 86.484375,93.9882479 C86.3909911,94.0347463 86.3433839,94.0347463 86.25,94.0347463 C86.203308,94.0812449 86.1090089,94.0812449 86.062317,94.0812449 Z" id="Path" fill="#6DCC6D"></path>
                <path d="M66.8902589,14.2568338 C66.5625,14.2568338 66.281433,14.1173381 66.047058,13.930432 C66.0003661,13.8839334 65.9527589,13.836523 65.906067,13.7435257 C65.859375,13.6970273 65.812683,13.6031183 65.812683,13.5566197 C65.7659911,13.510121 65.7659911,13.4171239 65.7659911,13.3232149 C65.7659911,13.2302179 65.7183839,13.1837192 65.7183839,13.0898102 C65.7183839,12.9968132 65.7183839,12.9503145 65.7659911,12.8564055 C65.7659911,12.7634084 65.812683,12.7169098 65.812683,12.6230008 C65.859375,12.5300037 65.859375,12.4835051 65.906067,12.4360948 C65.9527589,12.3895961 66.0003661,12.296599 66.047058,12.2501004 C66.374817,11.9227867 66.8902589,11.8297896 67.312317,12.0166957 C67.3590089,12.0631943 67.453308,12.0631943 67.5,12.1096927 C67.546692,12.1561914 67.6409911,12.20269 67.687683,12.2501004 C67.734375,12.296599 67.781067,12.3430974 67.8277589,12.4360948 C67.8753661,12.4835051 67.922058,12.5765022 67.922058,12.6230008 C67.96875,12.6694995 67.96875,12.7634084 67.96875,12.8564055 C67.96875,12.9503145 67.96875,12.9968132 68.015442,13.0898102 C68.015442,13.1837192 68.015442,13.2302179 67.96875,13.3232149 C67.96875,13.4171239 67.922058,13.4636226 67.922058,13.5566197 C67.8753661,13.6505286 67.8753661,13.6970273 67.8277589,13.7435257 C67.781067,13.7900244 67.734375,13.8839334 67.687683,13.930432 C67.6409911,13.9769304 67.5933839,14.0234291 67.5,14.0699277 C67.453308,14.1173381 67.3590089,14.1638367 67.312317,14.1638367 C67.218933,14.2103351 67.1722411,14.2103351 67.077942,14.2103351 C67.03125,14.2568338 66.984558,14.2568338 66.8902589,14.2568338 Z" id="Path" fill="#F75C64"></path>
                <g id="Group" transform="translate(0.000000, 10.269807)" fill="#231F20">
                    <path d="M12.0941161,94.7814591 L2.29705805,94.7814591 C1.03088391,94.7814591 0,93.7548431 0,92.4939106 L0,57.764019 C0,56.5030865 1.03088391,55.4764705 2.29705805,55.4764705 L12.0941161,55.4764705 C13.359375,55.4764705 14.3902589,56.5030865 14.3902589,57.764019 L14.3902589,92.4939106 C14.3902589,93.7083445 13.359375,94.7814591 12.0941161,94.7814591 L12.0941161,94.7814591 Z M12.0465089,57.7166087 L2.29705805,57.764019 L2.34375,92.4474119 L12.0465089,92.4009133 L12.0465089,57.7166087 Z" id="Shape"></path>
                    <path d="M18.515625,91.9806025 L13.2183839,91.9806025 C12.5628661,91.9806025 12.0465089,91.4672944 12.0465089,90.813579 L12.0465089,58.7906349 C12.0465089,58.1369194 12.5628661,57.6236114 13.2183839,57.6236114 L18.515625,57.6236114 C19.7808839,57.6236114 20.812683,58.6502275 20.812683,59.9111601 L20.812683,89.6465554 C20.859375,90.9539866 19.7808839,91.9806025 18.515625,91.9806025 Z M14.3902589,89.6465554 L18.515625,89.6465554 L18.468933,59.9576585 L14.3902589,59.9576585 L14.3902589,89.6465554 Z" id="Shape"></path>
                    <path d="M55.6402589,62.3847029 L42.421875,62.3847029 C41.765442,62.3847029 41.25,61.8713948 41.25,61.2176793 L41.25,50.434564 C41.25,49.7808485 41.765442,49.2675404 42.421875,49.2675404 L55.6878661,49.2675404 C56.3433839,49.2675404 56.8597411,49.7808485 56.8597411,50.434564 L56.8597411,61.2176793 C56.8121339,61.8713948 56.296692,62.3847029 55.6402589,62.3847029 Z M43.59375,60.0506558 L54.5159911,60.0506558 L54.5159911,51.6015875 L43.59375,51.6015875 L43.59375,60.0506558 Z" id="Shape"></path>
                    <path d="M61.2652589,62.3847029 L55.6402589,62.3847029 C54.9847411,62.3847029 54.4683839,61.8713948 54.4683839,61.2176793 L54.4683839,55.0096611 C54.4683839,54.3559454 54.9847411,53.8426376 55.6402589,53.8426376 L58.4527589,53.8426376 C60.656433,53.8426376 62.4371339,55.6159663 62.4371339,57.8105177 L62.4371339,61.2176793 C62.4371339,61.8713948 61.921692,62.3847029 61.2652589,62.3847029 Z M56.8121339,60.0506558 L60.0933839,60.0506558 L60.0933839,57.8105177 C60.0933839,56.9233972 59.343567,56.1766847 58.4527589,56.1766847 L56.8121339,56.1766847 L56.8121339,60.0506558 Z" id="Shape"></path>
                    <path d="M62.7191161,69.7606563 L46.2652589,69.7606563 C45.6097411,69.7606563 45.0933839,69.2473485 45.0933839,68.5936328 C45.0933839,67.9399173 45.6097411,67.4266092 46.2652589,67.4266092 L62.765808,67.4266092 C63.4222411,67.4266092 63.937683,67.9399173 63.937683,68.5936328 C63.937683,69.2473485 63.3746339,69.7606563 62.7191161,69.7606563 Z" id="Path"></path>
                    <path d="M62.7191161,77.1831087 L46.2652589,77.1831087 C45.6097411,77.1831087 45.0933839,76.6698006 45.0933839,76.0160851 C45.0933839,75.3623694 45.6097411,74.8490616 46.2652589,74.8490616 L62.765808,74.8490616 C63.4222411,74.8490616 63.937683,75.3623694 63.937683,76.0160851 C63.937683,76.6698006 63.3746339,77.1831087 62.7191161,77.1831087 Z" id="Path"></path>
                    <path d="M62.7191161,84.5581504 L46.2652589,84.5581504 C45.6097411,84.5581504 45.0933839,84.0448424 45.0933839,83.3911269 C45.0933839,82.7383231 45.6097411,82.2241033 46.2652589,82.2241033 L62.765808,82.2241033 C63.4222411,82.2241033 63.937683,82.7383231 63.937683,83.3911269 C63.937683,84.0448424 63.3746339,84.5581504 62.7191161,84.5581504 Z" id="Path"></path>
                    <path d="M62.7191161,91.9806025 L41.906433,91.9806025 C39.656067,91.9341039 37.453308,91.5137931 35.343933,90.7205819 C34.8284911,90.5336756 34.3121339,90.3932682 33.8433839,90.2537725 L33.796692,90.2537725 C31.125183,89.4131507 29.2034911,89.4131507 25.6402589,89.4596494 C24.0472411,89.4596494 22.077942,89.5070597 19.5941161,89.4596494 C18.937683,89.4596494 18.468933,88.9463413 18.468933,88.2926258 L18.468933,61.3580867 C18.468933,60.7043713 18.984375,60.1910632 19.640808,60.1910632 C29.6246339,60.1910632 30.6097411,59.303943 32.578125,57.5306143 C33.3746339,56.7829898 34.265442,56.0827757 35.202942,55.4764705 L35.2496339,55.4764705 L35.2972411,55.4299719 C36.5625,54.4489427 38.156433,53.889136 39.7503661,53.889136 L42.375183,53.889136 C43.0316161,53.889136 43.547058,54.4024441 43.547058,55.0561595 L43.547058,60.0980661 L62.7191161,60.0980661 C65.437317,60.0980661 67.5933839,62.2917056 67.5933839,64.9521547 C67.5933839,66.3999933 66.984558,67.7530112 65.859375,68.6401314 C67.922058,70.3678734 68.156433,73.4486333 66.4215089,75.502777 C66.2347411,75.6887714 66.047058,75.8756775 65.859375,76.0625835 C67.922058,77.7894138 68.156433,80.8710854 66.4215089,82.9243175 C66.2347411,83.1112235 66.047058,83.2981296 65.859375,83.4850359 C67.922058,85.2118659 68.156433,88.2926258 66.4215089,90.3467695 C65.5316161,91.3742974 64.172058,91.9806025 62.7191161,91.9806025 L62.7191161,91.9806025 Z M34.5465089,88.0127224 C35.0628661,88.1531301 35.578308,88.3400361 36.140442,88.5260305 C37.96875,89.2262446 39.9371339,89.6465554 41.953125,89.6465554 L62.765808,89.6465554 C64.172058,89.6465554 65.2972411,88.5260305 65.2972411,87.1256022 C65.2972411,85.725174 64.172058,84.6055608 62.765808,84.6055608 C62.109375,84.6055608 61.593933,84.091341 61.593933,83.4385372 C61.593933,82.7848217 62.109375,82.2715137 62.765808,82.2715137 C64.172058,82.2715137 65.2972411,81.1509887 65.2972411,79.7505605 C65.2972411,78.3501322 64.172058,77.2296071 62.765808,77.2296071 C62.109375,77.2296071 61.593933,76.7162992 61.593933,76.0625835 C61.593933,75.408868 62.109375,74.89556 62.765808,74.89556 C64.172058,74.89556 65.2972411,73.7750351 65.2972411,72.3746068 C65.2972411,70.9741785 64.172058,69.8536536 62.765808,69.8536536 C62.109375,69.8536536 61.593933,69.3403456 61.593933,68.6866301 C61.593933,68.0338263 62.109375,67.5196065 62.765808,67.5196065 C64.172058,67.5196065 65.2972411,66.3999933 65.2972411,64.999565 C65.2972411,63.5991368 64.172058,62.4786119 62.765808,62.4786119 L42.421875,62.4786119 C41.765442,62.4786119 41.25,61.9653038 41.25,61.3115883 L41.25,56.2696818 L39.797058,56.2696818 C38.671875,56.2696818 37.6409911,56.6434941 36.750183,57.3437082 C36.6558839,57.3902067 36.609192,57.4367053 36.5625,57.483204 C35.7183839,58.0439224 34.968567,58.6976378 34.21875,59.3504416 C31.7816161,61.544993 30.281067,62.5251103 20.859375,62.6181076 L20.859375,87.2660097 C22.734375,87.3125083 24.2816161,87.2660097 25.6878661,87.2660097 C29.296875,87.0791036 31.5472411,87.0326049 34.5465089,88.0127224 L34.5465089,88.0127224 Z" id="Shape"></path>
                    <path d="M49.031067,98.5624331 C44.718933,98.5624331 41.25,95.1087728 41.25,90.813579 C41.25,90.1598635 41.765442,89.6465554 42.421875,89.6465554 L55.6878661,89.6465554 C56.3433839,89.6465554 56.8597411,90.1598635 56.8597411,90.813579 C56.8121339,95.1087728 53.3441161,98.5159344 49.031067,98.5624331 Z M43.6871339,91.9806025 C44.343567,94.9218667 47.297058,96.7426057 50.202942,96.0888902 C52.265625,95.6220808 53.859558,94.0347463 54.328308,91.9806025 L43.6871339,91.9806025 Z" id="Shape"></path>
                    <path d="M62.109375,51.6015875 L39.7503661,51.6015875 C30.703125,51.6015875 23.390808,44.3195428 23.390808,35.3097564 C23.390808,26.3008817 30.703125,19.018837 39.7503661,19.018837 L62.062683,19.018837 C62.7191161,19.018837 63.234558,19.5321451 63.234558,20.1858605 L63.234558,50.434564 C63.28125,51.0882795 62.7191161,51.6015875 62.109375,51.6015875 L62.109375,51.6015875 Z M39.7503661,21.3528841 C32.0159911,21.3528841 25.734558,27.607401 25.734558,35.3097564 C25.734558,43.0121119 32.0159911,49.2675404 39.7503661,49.2675404 L60.9375,49.2675404 L60.9375,21.3528841 L39.7503661,21.3528841 Z" id="Shape"></path>
                    <path d="M41.484375,28.9613306 C40.827942,28.9613306 40.3125,28.4480225 40.3125,27.794307 L40.3125,25.1338581 C40.3125,24.4801424 40.827942,23.9668346 41.484375,23.9668346 C42.140808,23.9668346 42.65625,24.4801424 42.65625,25.1338581 L42.65625,27.794307 C42.65625,28.4480225 42.140808,28.9613306 41.484375,28.9613306 Z" id="Path"></path>
                    <path d="M46.4996339,28.9613306 C45.8441161,28.9613306 45.3277589,28.4480225 45.3277589,27.794307 L45.3277589,25.1338581 C45.3277589,24.4801424 45.8441161,23.9668346 46.4996339,23.9668346 C47.156067,23.9668346 47.6715089,24.4801424 47.6715089,25.1338581 L47.6715089,27.794307 C47.6715089,28.4480225 47.156067,28.9613306 46.4996339,28.9613306 Z" id="Path"></path>
                    <path d="M51.5625,28.9613306 C50.906067,28.9613306 50.390625,28.4480225 50.390625,27.794307 L50.390625,25.1338581 C50.390625,24.4801424 50.906067,23.9668346 51.5625,23.9668346 C52.218933,23.9668346 52.734375,24.4801424 52.734375,25.1338581 L52.734375,27.794307 C52.734375,28.4480225 52.1722411,28.9613306 51.5625,28.9613306 Z" id="Path"></path>
                    <path d="M56.5777589,28.9613306 C55.9222411,28.9613306 55.4058839,28.4480225 55.4058839,27.794307 L55.4058839,25.1338581 C55.4058839,24.4801424 55.9222411,23.9668346 56.5777589,23.9668346 C57.234192,23.9668346 57.7496339,24.4801424 57.7496339,25.1338581 L57.7496339,27.794307 C57.7496339,28.4480225 57.234192,28.9613306 56.5777589,28.9613306 Z" id="Path"></path>
                    <path d="M93.8909911,66.9597998 C93.703308,66.9597998 93.515625,66.9133014 93.3746339,66.8668027 L61.593933,51.5550889 C61.171875,51.3681828 60.9375,50.9478721 60.9375,50.528473 L60.9375,20.1858605 C60.9375,19.7190511 61.171875,19.3452388 61.593933,19.1583327 L93.3746339,3.84753078 C93.937683,3.56671574 94.640808,3.80012045 94.921875,4.40733728 C95.0152589,4.54774491 95.0628661,4.73373929 95.0628661,4.92064535 L95.0628661,65.8392749 C95.0628661,66.3999933 94.499817,66.9597998 93.8909911,66.9597998 L93.8909911,66.9597998 Z M63.28125,49.7343498 L92.7191161,63.9255386 L92.7191161,6.74138439 L63.28125,20.9325733 L63.28125,49.7343498 Z" id="Shape"></path>
                    <path d="M97.077942,70.5073691 C94.640808,70.5073691 92.6715089,68.5471344 92.6715089,66.1191783 L92.6715089,4.50033458 C92.6715089,2.07329017 94.640808,0.113055407 97.077942,0.113055407 C99.5159911,0.113055407 101.484375,2.07329017 101.484375,4.50033458 L101.484375,66.1191783 C101.484375,68.5471344 99.5159911,70.5073691 97.077942,70.5073691 L97.077942,70.5073691 Z M97.077942,2.49360117 C95.9527589,2.49360117 95.0152589,3.42722001 95.0152589,4.54774491 L95.0152589,66.1665886 C95.0152589,67.2862018 95.9527589,68.2198207 97.077942,68.2198207 C98.203125,68.2198207 99.140625,67.2862018 99.140625,66.1665886 L99.140625,4.54774491 C99.140625,3.38072136 98.203125,2.49360117 97.077942,2.49360117 L97.077942,2.49360117 Z" id="Shape"></path>
                    <path d="M101.577759,41.1922845 L100.3125,41.1922845 C99.656067,41.1922845 99.140625,40.6780648 99.140625,40.025261 L99.140625,30.5951636 C99.140625,29.9414481 99.656067,29.42814 100.3125,29.42814 L101.577759,29.42814 C104.812317,29.42814 107.484741,32.0420905 107.484741,35.3097564 C107.484741,38.5774224 104.812317,41.1922845 101.577759,41.1922845 Z M101.484375,38.8582374 L101.577759,38.8582374 C103.547058,38.8582374 105.140991,37.2709031 105.140991,35.3097564 C105.140991,33.3495214 103.547058,31.7621871 101.577759,31.7621871 L101.484375,31.7621871 L101.484375,38.8582374 Z" id="Shape"></path>
                    <path d="M115.031433,48.1944259 C114.702759,48.1944259 114.421692,48.0540182 114.187317,47.8671122 L108.984375,42.6857099 C108.515625,42.2189004 108.515625,41.5186863 108.937683,41.0518769 C109.359741,40.5850675 110.109558,40.5850675 110.578308,41.0053785 C110.578308,41.0053785 110.578308,41.0053785 110.625,41.0518769 L115.827942,46.2332792 C116.296692,46.7000886 116.296692,47.4468014 115.827942,47.8671122 C115.640259,48.0540182 115.359192,48.1944259 115.031433,48.1944259 Z" id="Path"></path>
                    <path d="M118.828125,36.47678 L111.469116,36.47678 C110.812683,36.47678 110.297241,35.9634719 110.297241,35.3097564 C110.297241,34.6569526 110.812683,34.1427329 111.469116,34.1427329 L118.828125,34.1427329 C119.484558,34.1427329 120,34.6569526 120,35.3097564 C120,35.9634719 119.484558,36.47678 118.828125,36.47678 Z" id="Path"></path>
                    <path d="M109.828491,29.9414481 C109.172058,29.9414481 108.656616,29.42814 108.656616,28.7744245 C108.656616,28.4480225 108.796692,28.1681194 108.984375,27.9347147 L114.187317,22.7533124 C114.656067,22.2865029 115.359192,22.2865029 115.827942,22.705902 C116.296692,23.1727115 116.296692,23.8729256 115.874634,24.339735 C115.874634,24.339735 115.874634,24.339735 115.827942,24.3871453 L110.625,29.5685476 C110.437317,29.8484508 110.15625,29.9414481 109.828491,29.9414481 Z" id="Path"></path>
                </g>
            </g>
        </g>
    </g>
</svg>