<svg height="512pt" viewBox="-28 0 512 512" width="512pt" xmlns="http://www.w3.org/2000/svg"><path d="m252.199219 383c0-45.398438 36.800781-82.199219 82.199219-82.199219 21.402343 0 41.800781 8.199219 57.203124 23.199219v-196.601562h-379.800781v281.601562c0 5.601562 4.398438 10 10 10h238.597657c-5.398438-11.199219-8.199219-23.601562-8.199219-36zm0 0" fill="#e9e9ea"/><path d="m83.800781 419v-62c0-5.601562-4.402343-10-10-10h-62zm0 0" fill="#ffae2c"/><path d="m66.800781 74.398438c-5.601562 0-10-4.398438-10-10v-49.398438c0-5.601562 4.398438-10 10-10 5.597657 0 10 4.398438 10 10v49.398438c-.199219 5.601562-4.601562 10-10 10zm0 0" fill="#e9e9ea"/><path d="m134.199219 74.398438c-5.597657 0-10-4.398438-10-10v-49.398438c0-5.601562 4.402343-10 10-10 5.601562 0 10 4.398438 10 10v49.398438c0 5.601562-4.398438 10-10 10zm0 0" fill="#e9e9ea"/><path d="m201.800781 74.398438c-5.601562 0-10-4.398438-10-10v-49.398438c0-5.601562 4.398438-10 10-10 5.597657 0 10 4.398438 10 10v49.398438c0 5.601562-4.601562 10-10 10zm0 0" fill="#e9e9ea"/><path d="m269.199219 74.398438c-5.597657 0-10-4.398438-10-10v-49.398438c0-5.601562 4.402343-10 10-10 5.601562 0 10 4.398438 10 10v49.398438c0 5.601562-4.398438 10-10 10zm0 0" fill="#e9e9ea"/><path d="m336.800781 74.398438c-5.601562 0-10-4.398438-10-10v-49.398438c0-5.601562 4.398438-10 10-10 5.597657 0 10 4.398438 10 10v49.398438c0 5.601562-4.402343 10-10 10zm0 0" fill="#e9e9ea"/><path d="m392.199219 45h-45.597657v19.398438c0 5.601562-4.402343 10-10 10-5.601562 0-10-4.398438-10-10v-19.398438h-47.601562v19.398438c0 5.601562-4.398438 10-10 10s-10-4.398438-10-10v-19.398438h-47.601562v19.398438c0 5.601562-4.398438 10-10 10-5.597657 0-10-4.398438-10-10v-19.398438h-47.199219v19.398438c0 5.601562-4.398438 10-10 10-5.597657 0-10-4.398438-10-10v-19.398438h-47.597657v19.398438c0 5.601562-4.402343 10-10 10-5.601562 0-10-4.398438-10-10v-19.398438h-45.402343c-3.398438 0-6.199219 2.800781-6.199219 6.199219v70c0 3.402343 2.800781 6.199219 6.199219 6.199219h381c3.402343 0 6.199219-2.796876 6.199219-6.199219v-70c0-3.398438-2.597657-6.199219-6.199219-6.199219zm0 0" fill="#ea4647"/><path d="m182.800781 163.800781h38c1.800781 0 3.398438 1.398438 3.398438 3.398438v33.800781c0 1.800781-1.398438 3.398438-3.398438 3.398438h-38c-1.800781 0-3.402343-1.398438-3.402343-3.398438v-33.800781c0-2 1.601562-3.398438 3.402343-3.398438zm0 0" fill="#acdef9"/><path d="m249.199219 163.800781h38c1.800781 0 3.402343 1.398438 3.402343 3.398438v33.800781c0 1.800781-1.402343 3.398438-3.402343 3.398438h-38c-1.800781 0-3.398438-1.398438-3.398438-3.398438v-33.800781c0-2 1.597657-3.398438 3.398438-3.398438zm0 0" fill="#acdef9"/><path d="m315.601562 163.800781h38c1.796876 0 3.398438 1.398438 3.398438 3.398438v33.800781c0 1.800781-1.398438 3.398438-3.398438 3.398438h-38c-1.800781 0-3.402343-1.398438-3.402343-3.398438v-33.800781c0-2 1.402343-3.398438 3.402343-3.398438zm0 0" fill="#acdef9"/><path d="m50 224.398438h38c1.800781 0 3.398438 1.402343 3.398438 3.402343v33.800781c0 1.796876-1.398438 3.398438-3.398438 3.398438h-38c-1.800781 0-3.398438-1.398438-3.398438-3.398438v-33.800781c.199219-1.800781 1.597657-3.402343 3.398438-3.402343zm0 0" fill="#acdef9"/><path d="m116.398438 224.398438h38c1.800781 0 3.402343 1.402343 3.402343 3.402343v33.800781c0 1.796876-1.402343 3.398438-3.402343 3.398438h-38c-1.796876 0-3.398438-1.398438-3.398438-3.398438v-33.800781c0-1.800781 1.601562-3.402343 3.398438-3.402343zm0 0" fill="#acdef9"/><path d="m182.800781 224.398438h38c1.800781 0 3.398438 1.402343 3.398438 3.402343v33.800781c0 1.796876-1.398438 3.398438-3.398438 3.398438h-38c-1.800781 0-3.402343-1.398438-3.402343-3.398438v-33.800781c0-1.800781 1.601562-3.402343 3.402343-3.402343zm0 0" fill="#acdef9"/><path d="m249.199219 224.398438h38c1.800781 0 3.402343 1.402343 3.402343 3.402343v33.800781c0 1.796876-1.402343 3.398438-3.402343 3.398438h-38c-1.800781 0-3.398438-1.398438-3.398438-3.398438v-33.800781c0-1.800781 1.597657-3.402343 3.398438-3.402343zm0 0" fill="#acdef9"/><path d="m315.601562 224.398438h38c1.796876 0 3.398438 1.402343 3.398438 3.402343v33.800781c0 1.796876-1.398438 3.398438-3.398438 3.398438h-38c-1.800781 0-3.402343-1.398438-3.402343-3.398438v-33.800781c0-1.800781 1.402343-3.402343 3.402343-3.402343zm0 0" fill="#acdef9"/><path d="m50 285.199219h38c1.800781 0 3.398438 1.402343 3.398438 3.402343v33.796876c0 1.800781-1.398438 3.402343-3.398438 3.402343h-38c-1.800781 0-3.398438-1.402343-3.398438-3.402343v-33.796876c.199219-2 1.597657-3.402343 3.398438-3.402343zm0 0" fill="#acdef9"/><path d="m116.398438 285.199219h38c1.800781 0 3.402343 1.402343 3.402343 3.402343v33.796876c0 1.800781-1.402343 3.402343-3.402343 3.402343h-38c-1.796876 0-3.398438-1.402343-3.398438-3.402343v-33.796876c0-2 1.601562-3.402343 3.398438-3.402343zm0 0" fill="#acdef9"/><path d="m182.800781 285.199219h38c1.800781 0 3.398438 1.402343 3.398438 3.402343v33.796876c0 1.800781-1.398438 3.402343-3.398438 3.402343h-38c-1.800781 0-3.402343-1.402343-3.402343-3.402343v-33.796876c0-2 1.601562-3.402343 3.402343-3.402343zm0 0" fill="#acdef9"/><path d="m116.398438 345.800781h38c1.800781 0 3.402343 1.398438 3.402343 3.398438v33.800781c0 1.800781-1.402343 3.398438-3.402343 3.398438h-38c-1.796876 0-3.398438-1.398438-3.398438-3.398438v-33.800781c0-2 1.601562-3.398438 3.398438-3.398438zm0 0" fill="#acdef9"/><path d="m182.800781 345.800781h38c1.800781 0 3.398438 1.398438 3.398438 3.398438v33.800781c0 1.800781-1.398438 3.398438-3.398438 3.398438h-38c-1.800781 0-3.402343-1.398438-3.402343-3.398438v-33.800781c0-2 1.601562-3.398438 3.402343-3.398438zm0 0" fill="#acdef9"/><path d="m290.398438 313.601562v-25.203124c0-1.796876-1.398438-3.398438-3.398438-3.398438h-38c-1.800781 0-3.398438 1.398438-3.398438 3.398438v33.800781c0 1.800781 1.398438 3.402343 3.398438 3.402343h26.601562c4.597657-4.601562 9.398438-8.601562 14.796876-12zm0 0" fill="#acdef9"/><path d="m334.398438 300.800781c7.601562 0 15 1 22.203124 3v-15.402343c0-1.796876-1.402343-3.398438-3.402343-3.398438h-38c-1.800781 0-3.398438 1.398438-3.398438 3.398438v15.402343c7.597657-2 15.199219-3 22.597657-3zm0 0" fill="#acdef9"/><path d="m416.601562 383c0 45.398438-36.804687 82.199219-82.203124 82.199219-45.394532 0-82.199219-36.800781-82.199219-82.199219s36.804687-82.199219 82.199219-82.199219c45.398437 0 82.203124 36.800781 82.203124 82.199219zm0 0" fill="#6dcc6d"/><path d="m377.398438 374.601562-41.398438 41.398438c-3.800781 3.800781-10.199219 3.800781-14.199219 0l-26.402343-26.398438c-4-3.800781-4-10.203124 0-14.203124 3.800781-4 10.203124-4 14.203124 0l19.199219 19.203124 34.398438-34.402343c4-3.800781 10.199219-3.800781 14.199219 0 3.800781 4.199219 3.800781 10.402343 0 14.402343zm0 0" fill="#e9e9ea"/><path d="m456.398438 284.800781c-8.796876-1.800781-15.796876-8.601562-17.597657-17.601562 0-.199219-.199219-.398438-.402343-.199219-.199219 0-.199219.199219-.199219.199219-1.800781 8.800781-8.597657 15.800781-17.597657 17.601562-.203124 0-.402343.199219-.203124.398438 0 .199219.203124.199219.203124.199219 8.796876 1.800781 15.796876 8.601562 17.597657 17.601562 0 .199219.199219.398438.402343.199219.199219 0 .199219-.199219.199219-.199219 1.800781-8.800781 8.597657-15.800781 17.597657-17.601562.203124 0 .402343-.199219.203124-.398438 0-.199219 0-.199219-.203124-.199219zm0 0" fill="#6dcc6d"/><path d="m438.398438 350.800781c-.398438 0-.597657 0-1-.199219-.398438 0-.597657-.203124-1-.203124-.199219-.199219-.597657-.199219-.796876-.398438-.203124-.199219-.601562-.398438-.800781-.601562-.199219-.199219-.402343-.398438-.601562-.796876-.199219-.203124-.398438-.601562-.398438-.800781-.199219-.199219-.199219-.601562-.199219-1 0-.402343 0-.601562-.203124-1 0-1.402343.601562-2.601562 1.402343-3.601562.199219-.199219.398438-.398438.800781-.597657.199219-.203124.597657-.402343.796876-.402343.402343-.199219.601562-.199219 1-.199219.601562-.199219 1.402343-.199219 2 0 .402343 0 .601562.199219 1 .199219.203124.199219.601562.199219.800781.402343.199219.199219.601562.398438.800781.597657 1 1 1.398438 2.199219 1.398438 3.601562v1c0 .398438-.199219.597657-.199219 1-.199219.398438-.199219.597657-.398438.800781-.199219.199219-.402343.597657-.601562.796876-1.199219.800781-2.398438 1.402343-3.800781 1.402343zm0 0" fill="#60bae2"/><g fill="#231f20"><path d="m83.800781 424c-1.402343 0-2.601562-.601562-3.601562-1.398438l-72-72c-2-2-2-5.203124 0-7 1-1 2.199219-1.402343 3.601562-1.402343h62c8.199219 0 15 6.800781 15 15v62c0 2.601562-2.199219 4.800781-5 4.800781zm-59.800781-72 54.800781 54.800781v-50c0-2.800781-2.199219-5-5-5h-49.800781zm0 0"/><path d="m260.601562 424h-238.800781c-8.199219 0-15-6.800781-15-15v-281.601562c0-2.796876 2.199219-5 5-5h379.800781c2.796876 0 5 2.203124 5 5v196.601562c0 2.800781-2.203124 5-5 5-1.203124 0-2.601562-.601562-3.402343-1.398438-30.597657-29.601562-79.597657-28.800781-109.199219 1.796876-22.601562 23.402343-28.199219 58.203124-14 87.402343 1.199219 2.398438.199219 5.398438-2.199219 6.597657-.800781.402343-1.402343.601562-2.199219.601562zm-243.800781-291.601562v276.601562c0 2.800781 2.199219 5 5 5h231c-3.800781-9.800781-5.601562-20.398438-5.601562-31 0-48.199219 39-87.199219 87.199219-87.199219 18.800781 0 37.203124 6 52.203124 17.398438v-180.800781zm0 0"/><path d="m220.800781 209.199219h-38c-4.601562 0-8.402343-3.800781-8.402343-8.398438v-33.601562c0-4.597657 3.800781-8.398438 8.402343-8.398438h38c4.597657 0 8.398438 3.800781 8.398438 8.398438v33.800781c-.199219 4.398438-3.800781 8.199219-8.398438 8.199219zm-36.402343-10h34.601562v-30.398438h-34.601562zm36.402343-30.398438"/><path d="m287 209.199219h-38c-4.601562 0-8.398438-3.800781-8.398438-8.398438v-33.601562c0-4.597657 3.796876-8.398438 8.398438-8.398438h38c4.601562 0 8.398438 3.800781 8.398438 8.398438v33.800781c0 4.398438-3.796876 8.199219-8.398438 8.199219zm-36.199219-10h34.597657v-30.398438h-34.597657zm36.199219-30.398438"/><path d="m353.398438 209.199219h-38c-4.597657 0-8.398438-3.800781-8.398438-8.398438v-33.601562c0-4.597657 3.800781-8.398438 8.398438-8.398438h38c4.601562 0 8.402343 3.800781 8.402343 8.398438v33.800781c0 4.398438-3.800781 8.199219-8.402343 8.199219zm-36.199219-10h34.601562v-30.398438h-34.601562zm36.199219-30.398438"/><path d="m88 269.800781h-38c-4.601562 0-8.398438-3.800781-8.398438-8.402343v-33.796876c0-4.601562 3.796876-8.402343 8.398438-8.402343h38c4.601562 0 8.398438 3.800781 8.398438 8.402343v33.796876c0 4.800781-3.796876 8.402343-8.398438 8.402343zm-36.199219-10h34.597657v-30.402343h-34.597657zm36.199219-30.402343"/><path d="m154.398438 269.800781h-38c-4.597657 0-8.398438-3.800781-8.398438-8.402343v-33.796876c0-4.601562 3.800781-8.402343 8.398438-8.402343h38c4.601562 0 8.402343 3.800781 8.402343 8.402343v33.796876c-.199219 4.800781-3.800781 8.402343-8.402343 8.402343zm-36.398438-10h34.601562v-30.402343h-34.601562zm36.398438-30.402343"/><path d="m220.800781 269.800781h-38c-4.601562 0-8.402343-3.800781-8.402343-8.402343v-33.796876c0-4.601562 3.800781-8.402343 8.402343-8.402343h38c4.597657 0 8.398438 3.800781 8.398438 8.402343v33.796876c-.199219 4.800781-3.800781 8.402343-8.398438 8.402343zm-36.402343-10h34.601562v-30.402343h-34.601562zm36.402343-30.402343"/><path d="m287 269.800781h-38c-4.601562 0-8.398438-3.800781-8.398438-8.402343v-33.796876c0-4.601562 3.796876-8.402343 8.398438-8.402343h38c4.601562 0 8.398438 3.800781 8.398438 8.402343v33.796876c0 4.800781-3.796876 8.402343-8.398438 8.402343zm-36.199219-10h34.597657v-30.402343h-34.597657zm36.199219-30.402343"/><path d="m353.398438 269.800781h-38c-4.597657 0-8.398438-3.800781-8.398438-8.402343v-33.796876c0-4.601562 3.800781-8.402343 8.398438-8.402343h38c4.601562 0 8.402343 3.800781 8.402343 8.402343v33.796876c0 4.800781-3.800781 8.402343-8.402343 8.402343zm-36.199219-10h34.601562v-30.402343h-34.601562zm36.199219-30.402343"/><path d="m88 330.601562h-38c-4.601562 0-8.398438-3.800781-8.398438-8.402343v-33.800781c0-4.597657 3.796876-8.398438 8.398438-8.398438h38c4.601562 0 8.398438 3.800781 8.398438 8.398438v33.800781c0 4.601562-3.796876 8.402343-8.398438 8.402343zm-36.199219-10h34.597657v-30.402343h-34.597657zm36.199219-30.402343"/><path d="m154.398438 330.601562h-38c-4.597657 0-8.398438-3.800781-8.398438-8.402343v-33.800781c0-4.597657 3.800781-8.398438 8.398438-8.398438h38c4.601562 0 8.402343 3.800781 8.402343 8.398438v33.800781c-.199219 4.601562-3.800781 8.402343-8.402343 8.402343zm-36.398438-10h34.601562v-30.402343h-34.601562zm36.398438-30.402343"/><path d="m220.800781 330.601562h-38c-4.601562 0-8.402343-3.800781-8.402343-8.402343v-33.800781c0-4.597657 3.800781-8.398438 8.402343-8.398438h38c4.597657 0 8.398438 3.800781 8.398438 8.398438v33.800781c-.199219 4.601562-3.800781 8.402343-8.398438 8.402343zm-36.402343-10h34.601562v-30.402343h-34.601562zm36.402343-30.402343"/><path d="m154.398438 391.199219h-38c-4.597657 0-8.398438-3.800781-8.398438-8.398438v-33.800781c0-4.601562 3.800781-8.398438 8.398438-8.398438h38c4.601562 0 8.402343 3.796876 8.402343 8.398438v33.800781c-.199219 4.597657-3.800781 8.398438-8.402343 8.398438zm-36.398438-10h34.601562v-30.398438h-34.601562zm36.398438-30.398438"/><path d="m220.800781 391.199219h-38c-4.601562 0-8.402343-3.800781-8.402343-8.398438v-33.800781c0-4.601562 3.800781-8.398438 8.402343-8.398438h38c4.597657 0 8.398438 3.796876 8.398438 8.398438v33.800781c-.199219 4.597657-3.800781 8.398438-8.398438 8.398438zm-36.402343-10h34.601562v-30.398438h-34.601562zm36.402343-30.398438"/><path d="m334.398438 470.199219c-48.199219 0-87.199219-39-87.199219-87.199219s39-87.199219 87.199219-87.199219c48.203124 0 87.203124 39 87.203124 87.199219s-39 87.199219-87.203124 87.199219zm0-164.398438c-42.597657 0-77.199219 34.597657-77.199219 77.199219s34.601562 77.199219 77.199219 77.199219c42.601562 0 77.203124-34.597657 77.203124-77.199219s-34.402343-77.199219-77.203124-77.199219zm0 0"/><path d="m275.601562 330.601562h-26.601562c-4.601562 0-8.398438-3.800781-8.398438-8.402343v-33.800781c0-4.597657 3.796876-8.398438 8.398438-8.398438h38c4.601562 0 8.398438 3.800781 8.398438 8.398438v25.203124c0 1.796876-.796876 3.398438-2.398438 4.199219-5 3.199219-9.601562 7-13.800781 11.199219-.800781 1-2.199219 1.601562-3.597657 1.601562zm-24.800781-10h22.800781c3.597657-3.601562 7.597657-6.800781 11.796876-9.601562v-21h-34.597657zm39.597657-7"/><path d="m356.800781 308.800781c-.402343 0-1 0-1.402343-.199219-13.597657-3.800781-28.199219-3.800781-41.796876 0-2.601562.796876-5.402343-.800781-6.203124-3.402343-.199219-.398438-.199219-.800781-.199219-1.398438v-15.402343c0-4.597657 3.800781-8.398438 8.402343-8.398438h38c4.597657 0 8.398438 3.800781 8.398438 8.398438v15.402343c-.199219 2.800781-2.398438 5-5.199219 5zm-22.402343-13c5.800781 0 11.601562.597657 17.203124 1.800781v-7.601562h-34.601562v7.398438c5.800781-1 11.601562-1.597657 17.398438-1.597657zm0 0"/><path d="m329 424c-4 0-7.800781-1.601562-10.601562-4.398438l-26.398438-26.402343c-5.800781-5.800781-5.800781-15.398438 0-21.199219s15.398438-5.800781 21.199219 0l15.800781 15.800781 30.800781-30.800781c5.800781-5.800781 15.398438-5.800781 21.199219 0s5.800781 15.398438 0 21.199219l-41.398438 41.402343c-2.800781 2.796876-6.601562 4.398438-10.601562 4.398438zm-26.398438-46.398438c-2.800781 0-5 2.199219-5 5 0 1.398438.597657 2.597657 1.398438 3.597657l26.398438 26.402343c2 1.796876 5 1.796876 7 0l41.402343-41.402343c2-2 2-5.199219 0-7s-5-1.800781-7 0l-34.402343 34.199219c-2 2-5.199219 2-7 0l-19.199219-19.199219c-1-1-2.199219-1.597657-3.597657-1.597657zm0 0"/><path d="m66.800781 79.398438c-8.199219 0-15-6.796876-15-15v-49.398438c0-8.199219 6.597657-15 14.800781-15 8.199219 0 15 6.800781 15 15v49.398438c0 8.203124-6.601562 15-14.800781 15zm0-69.398438c-2.800781 0-5 2.199219-5 5v49.398438c0 2.800781 2.199219 5 5 5s5-2.199219 5-5v-49.398438c-.199219-2.800781-2.402343-5-5-5zm0 0"/><path d="m134.199219 79.398438c-8.199219 0-15-6.796876-15-15v-49.398438c0-8.199219 6.800781-15 15-15s15 6.800781 15 15v49.398438c0 8.203124-6.800781 15-15 15zm0-69.398438c-2.800781 0-5 2.199219-5 5v49.398438c0 2.800781 2.199219 5 5 5s5-2.199219 5-5v-49.398438c0-2.800781-2.199219-5-5-5zm0 0"/><path d="m201.800781 79.398438c-8.199219 0-15-6.796876-15-15v-49.398438c0-8.199219 6.800781-15 15-15s15 6.800781 15 15v49.398438c0 8.203124-6.800781 15-15 15zm0-69.398438c-2.800781 0-5 2.199219-5 5v49.398438c0 2.800781 2.199219 5 5 5s5-2.199219 5-5v-49.398438c0-2.800781-2.199219-5-5-5zm0 0"/><path d="m269.199219 79.398438c-8.199219 0-15-6.796876-15-15v-49.398438c0-8.199219 6.601562-15 15-15 8.199219 0 15 6.601562 15 15v49.398438c0 8.203124-6.597657 15-15 15zm0-69.398438c-2.800781 0-5 2.199219-5 5v49.398438c0 2.800781 2.199219 5 5 5s5-2.199219 5-5v-49.398438c0-2.800781-2.199219-5-5-5zm0 0"/><path d="m336.800781 79.398438c-8.199219 0-15-6.796876-15-15v-49.398438c0-8.199219 6.597657-15 15-15 8.199219 0 15 6.601562 15 15v49.398438c0 8.203124-6.800781 15-15 15zm0-69.398438c-2.800781 0-5 2.199219-5 5v49.398438c0 2.800781 2.199219 5 5 5s5-2.199219 5-5v-49.398438c0-2.800781-2.199219-5-5-5zm0 0"/><path d="m392.199219 132.398438h-381c-6.199219 0-11.199219-5-11.199219-11.199219v-70c0-6.199219 5-11.199219 11.199219-11.199219h45.601562c2.800781 0 5 2.199219 5 5v19.398438c0 2.800781 2.199219 5 5 5s5-2.199219 5-5v-19.398438c0-2.800781 2.199219-5 5-5h47.597657c2.800781 0 5 2.199219 5 5v19.398438c0 2.800781 2.203124 5 5 5 2.800781 0 5-2.199219 5-5v-19.398438c0-2.800781 2.203124-5 5-5h47.601562c2.800781 0 5 2.199219 5 5v19.398438c0 2.800781 2.199219 5 5 5s5-2.199219 5-5v-19.398438c0-2.800781 2.199219-5 5-5h47.601562c2.796876 0 5 2.199219 5 5v19.398438c0 2.800781 2.199219 5 5 5 2.796876 0 5-2.199219 5-5v-19.398438c0-2.800781 2.199219-5 5-5h47.597657c2.800781 0 5 2.199219 5 5v19.398438c0 2.800781 2.199219 5 5 5s5-2.199219 5-5v-19.398438c0-2.800781 2.199219-5 5-5h45.601562c6.199219 0 11.199219 5 11.199219 11.199219v70c-.601562 6.199219-5.601562 11.199219-11.800781 11.199219zm-381-82.398438c-.597657 0-1.199219.601562-1.199219 1.199219v70c0 .601562.601562 1.199219 1.199219 1.199219h381c.601562 0 1.199219-.597657 1.199219-1.199219v-70c0-.597657-.597657-1.199219-1.199219-1.199219h-40.597657v14.398438c0 8.203124-6.601562 15-15 15-8.203124 0-15-6.597657-15-15v-14.398438h-37.601562v14.398438c0 8.203124-6.601562 15-15 15-8.199219 0-15-6.597657-15-15v-14.398438h-37.601562v14.398438c0 8.203124-6.796876 15-15 15-8.199219 0-15-6.796876-15-15v-14.398438h-37.199219v14.398438c0 8.203124-6.800781 15-15 15s-15-6.796876-15-15v-14.398438h-37.597657v14.398438c0 8.203124-6.800781 15-15 15-8.203124 0-15-6.796876-15-15v-14.398438zm0 0"/></g><path d="m229.800781 503.398438h-17.402343c-2.796876-.199219-4.796876-2.398438-4.796876-5.199219.199219-2.597657 2.199219-4.597657 4.796876-4.800781h17.402343c2.800781.203124 4.800781 2.402343 4.800781 5.203124-.203124 2.597657-2.203124 4.597657-4.800781 4.796876zm0 0" fill="#ffcd29"/><path d="m221 512c-2.800781 0-5-2.199219-5-5v-17.398438c-.199219-2.800781 2-5.203124 4.800781-5.203124 2.800781-.199219 5.199219 2 5.199219 4.800781v.601562 17.398438c0 2.601562-2.199219 4.800781-5 4.800781zm0 0" fill="#ffcd29"/><path d="m253.601562 468.199219c-.402343 0-.601562 0-1-.199219-.402343 0-.601562-.199219-1-.199219-.203124-.199219-.601562-.199219-.800781-.402343-.199219-.199219-.601562-.398438-.800781-.597657-2-2-2-5 0-7 .199219-.199219.398438-.402343.800781-.601562.199219-.199219.597657-.398438.800781-.398438 2.597657-1 5.398438.199219 6.597657 2.597657.199219.601562.402343 1.203124.402343 2 0 .601562-.203124 1.402343-.402343 2-.199219.402343-.199219.601562-.398438.800781-1 1-2.601562 2-4.199219 2zm0 0" fill="#f75c64"/></svg>