<svg height="511pt" viewBox="-27 0 511 511.61377" width="511pt" xmlns="http://www.w3.org/2000/svg"><path d="m421.90625 220.214844c-1.398438-.199219-2.800781-.199219-4.199219 0v2 21.199218 2c7 1.199219 13.601563-3.601562 14.800781-10.601562 1.199219-6.796875-3.601562-13.398438-10.601562-14.597656zm0 0" fill="#f9d0b4"/><path d="m356.507812 243.414062v-21.199218c0-.601563 0-1.402344 0-2-1.402343-.199219-2.800781-.199219-4.199218 0-6.203125 1.199218-10.601563 6.597656-10.601563 12.800781 0 7 5.800781 12.597656 12.800781 12.597656.597657 0 1.398438 0 2-.199219 0-.601562 0-1.199218 0-2zm0 0" fill="#f9d0b4"/><path d="m391.707031 206.214844c-11.199219 14.199218-27.800781 12.199218-33.398437 11-.800782-.199219-1.800782.398437-2 1.199218v.398438 24.800781c0 17 13.796875 30.601563 30.597656 30.601563 17 0 30.601562-13.800782 30.601562-30.601563v-27.398437c0-.199219 0-.402344 0-.402344 0-.796875-.800781-1.597656-1.601562-1.597656-12.800781-.402344-19.398438-5.402344-22-8-.398438-.800782-1.398438-.800782-2.199219 0 .199219-.199219 0 0 0 0zm0 0" fill="#f9d0b4"/><path d="m354.507812 220.015625c.597657 0 1.398438 0 2 .199219v-1.402344c0-1 .800782-1.597656 1.597657-1.597656h.402343c5.597657 1.199218 22.199219 3.199218 33.398438-11 .601562-.800782 1.601562-.800782 2.402344-.199219 0 0 0 0 .199218.199219 2.597657 2.597656 9.199219 7.597656 22 8 .800782 0 1.597657.800781 1.597657 1.597656v.402344 4.199218c4-.601562 8 .601563 10.800781 3.398438v-22.597656c0-8.402344-5.800781-15.800782-14-17.601563-4.199219-.800781-8.800781-.199219-12.597656 2.199219-3.203125-5.398438-8.800782-8.597656-15-8.597656h-9.203125c-17.398438 0-31.597657 14.199218-31.597657 31.597656v14.203125c2.199219-2 5-3 8-3zm0 0" fill="#6d6c6b"/><path d="m387.105469 274.214844c-4.796875 0-9.398438-1.199219-13.597657-3.199219v11.398437l4.800782 13.800782c.199218.800781 1 1.398437 2 1.398437h14.796875c.800781 0 1.601562-.597656 2-1.398437l4.800781-13.800782v-11.800781c-4.597656 2.199219-9.597656 3.601563-14.800781 3.601563zm0 0" fill="#f9d0b4"/><path d="m449.105469 306.414062c-.199219-5.199218-4-9.800781-9.199219-11l-23.800781-6-14.398438-7-4.800781 13.800782c-.199219.800781-1 1.398437-2 1.398437h-14.800781c-.796875 0-1.597657-.597656-2-1.398437l-4.796875-13.800782-14.402344 7-23.800781 6c-5.199219 1.199219-8.796875 5.800782-9.199219 11l-2 36c-.199219 2.398438 1.800781 4.601563 4.199219 4.601563h.203125 118c2.398437 0 4.398437-2 4.398437-4.402344v-.199219zm0 0" fill="#e9e9ea"/><path d="m360.507812 155.214844c-19-21-42.601562-37.199219-69-47.402344-5.601562-2.199219-8.601562-8.597656-6.402343-14.199219 2.203125-5.597656 8.601562-8.597656 14.203125-6.398437 29.597656 11.398437 56.199218 29.597656 77.398437 53.199218 4 4.601563 3.601563 11.398438-.800781 15.601563-4.398438 4.199219-11.398438 3.597656-15.398438-.800781zm0 0" fill="#fcd770"/><path d="m138.707031 453.214844c-32-16-59-40.199219-78.398437-70.199219-3.402344-5-1.800782-11.800781 3.199218-15.203125 5-3.398438 11.800782-1.796875 15.199219 3.203125 17.398438 26.597656 41.398438 48.199219 69.800781 62.398437 5.398438 2.800782 7.597657 9.398438 5 14.800782-2.800781 5.398437-9.402343 7.597656-14.800781 5zm0 0" fill="#fcd770"/><path d="m78.105469 158.613281c-4.597657-4-5-11-1-15.398437 21.402343-24.800782 48.402343-43.800782 79-55.601563 5.601562-2.199219 12 .601563 14.203125 6.199219 2.199218 5.601562-.601563 12-6.203125 14.203125-27.199219 10.597656-51.398438 27.597656-70.398438 49.398437-4 4.601563-11 5.199219-15.601562 1.199219zm0 0" fill="#fcd770"/><path d="m302.707031 448.214844c-2.800781-5.402344-.601562-12 5-14.800782 28.398438-14.199218 52.601563-35.800781 69.800781-62.398437 3.398438-5 10.199219-6.601563 15.199219-3.203125 5 3.402344 6.601563 10.203125 3.199219 15.203125-19.398438 30-46.597656 54.199219-78.398438 70.199219-5.402343 2.597656-12 .398437-14.800781-5zm0 0" fill="#fcd770"/><path d="m116.308594 18.214844h-17.402344c-2.800781-.199219-4.800781-2.402344-4.597656-5.199219.199218-2.601563 2.199218-4.601563 4.597656-4.601563h17.402344c2.796875.199219 4.796875 2.601563 4.597656 5.398438 0 2.203125-2 4.203125-4.597656 4.402344zm0 0" fill="#f75c64"/><path d="m107.707031 27.015625c-2.800781 0-5-2.203125-5-5v-17.402344c.199219-2.800781 2.601563-4.800781 5.398438-4.597656 2.601562.199219 4.601562 2.199219 4.601562 4.597656v17.402344c-.199219 2.597656-2.398437 5-5 5zm0 0" fill="#f75c64"/><path d="m147.507812 40.414062c-.402343 0-.601562 0-1 0-.402343 0-.601562-.199218-1-.199218-.402343-.199219-.601562-.199219-.800781-.402344-.199219-.199219-.601562-.398438-.800781-.597656-.199219-.199219-.398438-.402344-.597656-.800782-.203125-.199218-.402344-.601562-.402344-.800781-.199219-.398437-.199219-.597656-.199219-1-.199219-.597656-.199219-1.398437 0-2 0-.398437.199219-.597656.199219-1 .199219-.199219.199219-.597656.402344-.800781.398437-.597656.796875-1 1.398437-1.398438.199219-.199218.601563-.398437.800781-.398437 1.199219-.601563 2.597657-.601563 3.800782 0 .398437.199219.597656.199219.796875.398437.601562.398438 1 .800782 1.402343 1.398438.199219.203125.398438.601562.398438.800781.199219.402344.199219.601563.199219 1 0 .402344.203125.601563.203125 1 0 1.402344-.601563 2.601563-1.402344 3.601563-.800781.800781-2 1.199218-3.398438 1.199218zm0 0" fill="#ffcd29"/><path d="m425.105469 404.414062c-.398438 0-.597657 0-1-.199218-.398438 0-.597657-.199219-1-.199219-.199219-.203125-.597657-.203125-.796875-.402344-.203125-.199219-.601563-.398437-.800782-.597656-1-1-1.402343-2.203125-1.402343-3.601563 0-.398437 0-.601562.203125-1 0-.398437.199218-.601562.199218-1 .199219-.398437.199219-.601562.398438-.800781s.402344-.597656.601562-.800781c.199219-.199219.398438-.398438.800782-.597656.199218-.199219.597656-.402344.796875-.402344.402343-.199219.601562-.199219 1-.199219 1-.199219 2 0 2.800781.199219.402344.203125.601562.203125.800781.402344.199219.199218.601563.398437.800781.597656.199219.203125.398438.402344.597657.800781.203125.199219.402343.601563.402343.800781.199219.199219.199219.601563.199219 1 0 .398438.199219.601563.199219 1 0 .398438 0 .601563-.199219 1 0 .398438-.199219.601563-.199219 1-.199218.398438-.199218.601563-.402343.800782-.398438.597656-.796875 1-1.398438 1.398437-.199219.199219-.601562.402344-.800781.402344-.199219.199219-.597656.199219-1 .199219 0 0-.398438.199218-.800781.199218zm0 0" fill="#6dcc6d"/><g fill="#231f20"><path d="m419.90625 250.613281c-1 0-2 0-2.800781-.199219-2.597657-.398437-4.398438-2.601562-4.199219-5.199218 0-.601563 0-1.199219 0-1.800782v-21.199218c0-.601563 0-1.199219 0-1.800782-.199219-2.601562 1.601562-4.800781 4.199219-5.199218 2-.402344 4-.402344 5.800781 0 9.800781 1.597656 16.199219 10.800781 14.601562 20.398437-1.402343 8.800781-9 15.199219-17.601562 15zm3-25v14.402344c2.800781-1.203125 4.800781-4 4.800781-7-.199219-3.203125-2-6-4.800781-7.402344zm0 0"/><path d="m354.507812 250.613281c-9.800781 0-17.800781-7.800781-18-17.597656 0-8.800781 6.199219-16.203125 15-17.601563 2-.398437 4-.398437 5.800782 0 2.597656.398438 4.398437 2.601563 4.199218 5.199219v1.800781 21.199219 1.800781c.199219 2.601563-1.601562 4.800782-4.199218 5.199219-.800782 0-1.800782 0-2.800782 0zm-3-25c-2.800781 1.199219-4.800781 4.199219-4.800781 7.199219s2 5.800781 4.800781 7zm0 0"/><path d="m387.105469 279.214844c-19.597657 0-35.597657-16-35.597657-35.601563v-24.597656c0-3.601563 3-6.601563 6.597657-6.601563.402343 0 1 0 1.402343.199219 5.398438 1.199219 19 2.601563 28.398438-9.199219 1.199219-1.398437 3-2.398437 4.800781-2.398437 1.800781-.203125 3.800781.597656 5 1.796875 1.800781 1.800781 7.398438 6.203125 18.601563 6.601562 3.597656.199219 6.398437 3 6.398437 6.601563v28c.199219 19.199219-15.800781 35-35.601562 35.199219zm-25.597657-56.601563v20.800781c0 14.199219 11.597657 25.601563 25.597657 25.601563 14.203125 0 25.601562-11.601563 25.601562-25.601563v-24.601562c-7-.398438-13.800781-2.796875-19.398437-6.796875-10.601563 11-24.203125 11.398437-31.800782 10.597656zm29.199219-13"/><path d="m428.707031 228.613281c-1.199219 0-2.601562-.597656-3.398437-1.398437-1.800782-1.800782-4.203125-2.402344-6.601563-2-2.800781.398437-5.199219-1.402344-5.800781-4.199219 0-.203125 0-.601563 0-.800781v-1.402344c-7-.398438-13.800781-2.796875-19.398438-6.796875-11 11.398437-25.199218 11.597656-32.601562 10.597656-1 1.800781-3 2.800781-5.199219 2.601563-2.199219-.402344-4.398437.199218-6 1.597656-2.199219 1.800781-5.398437 1.402344-7-.796875-.800781-.800781-1-2-1-3.203125v-14.199219c0-20.199219 16.398438-36.597656 36.601563-36.597656h9c6.398437 0 12.398437 2.597656 16.597656 7.398437 3.800781-1.398437 8-1.601562 12-.800781 10.601562 2.199219 18 11.601563 18 22.402344v22.597656c-.199219 2.800781-2.398438 5-5.199219 5zm-5.800781-13.398437c.199219 0 .601562.199218.800781.199218v-14.398437c0-6-4-11.402344-10-12.601563-3-.601562-6.199219-.199218-9 1.601563-2.398437 1.398437-5.398437.597656-6.800781-1.800781-2.199219-3.800782-6.398438-6.199219-10.800781-6.199219h-9c-14.796875 0-26.597657 12-26.597657 26.597656v6.601563c.398438 0 .597657-.199219 1-.199219 1.398438-2.402344 4.199219-3.402344 7-3 5.398438 1.199219 19 2.597656 28.398438-9.203125 1.199219-1.398438 3-2.398438 4.800781-2.398438 1.800781-.199218 3.800781.601563 5 1.800782 1.800781 1.800781 7.398438 6.199218 18.601563 6.597656 3.597656.203125 6.398437 3 6.597656 6.402344zm-32.199219-5.601563"/><path d="m387.707031 319.414062c-1.398437 0-2.601562-.601562-3.601562-1.398437-.199219-.203125-.398438-.402344-.597657-.800781-.199218-.199219-.402343-.601563-.402343-.800782-.199219-.199218-.199219-.601562-.199219-1-.199219-.601562-.199219-1.398437 0-2 .199219-.601562.402344-1.199218.800781-1.800781.199219-.199219.398438-.597656.601563-.800781 2-1.796875 5-1.796875 7 0 2 2 2 5.203125 0 7-1 1-2.402344 1.601562-3.601563 1.601562zm0 0"/><path d="m387.707031 335.8125c-1.398437 0-2.601562-.597656-3.601562-1.398438-.199219-.199218-.398438-.398437-.597657-.800781-.199218-.199219-.402343-.597656-.402343-.800781-.199219-.398438-.199219-.597656-.199219-1 0-.398438-.199219-.597656-.199219-1 0-.398438 0-.597656.199219-1 0-.398438.199219-.597656.199219-1 .203125-.398438.203125-.597656.402343-.796875.199219-.203125.398438-.601563.597657-.800781 2-1.800782 5-1.800782 7 0 2 2 2 5.199218 0 7-.199219.199218-.398438.398437-.796875.597656-.203125.203125-.601563.402344-.800782.402344-.199218.199218-.601562.199218-1 .199218-.199218.199219-.601562.398438-.800781.398438zm0 0"/><path d="m423.507812 352.214844c-2.800781 0-5-2.199219-5-5v-17.601563c0-2.800781 2.199219-5 5-5 2.800782 0 5 2.199219 5 5v17.402344c0 2.796875-2.199218 5.199219-5 5.199219zm0 0"/><path d="m350.90625 352.214844c-2.800781 0-5-2.199219-5-5v-17.601563c0-2.800781 2.199219-5 5-5s5 2.199219 5 5v17.402344c0 2.796875-2.398438 5.199219-5 5.199219zm0 0"/><path d="m394.90625 302.414062h-14.800781c-3 0-5.597657-1.800781-6.597657-4.800781l-4.800781-13.800781c-.199219-.597656-.199219-1-.199219-1.597656v-11.402344c0-2.796875 2.199219-5 5-5 .800782 0 1.597657.203125 2.199219.601562 3.601563 1.800782 7.398438 2.800782 11.398438 2.800782 4.203125 0 8.402343-1 12.203125-3.199219 2.398437-1.402344 5.398437-.402344 6.796875 2 .402343.796875.601562 1.597656.601562 2.398437v11.800782c0 .597656 0 1.199218-.199219 1.597656l-4.800781 13.800781c-1 3-3.800781 4.800781-6.800781 4.800781zm-12.597656-10h10.597656l3.800781-11v-3.601562c-6 1.601562-12.199219 1.800781-18.199219.203125v3.398437zm0 0"/><path d="m446.707031 352.214844h-118c-5.199219 0-9.398437-4.199219-9.398437-9.402344 0-.199219 0-.398438 0-.597656l2-36c.398437-7.402344 5.597656-13.800782 13-15.601563l23.398437-5.800781 13.800781-6.796875c2.398438-1.203125 5.398438-.203125 6.597657 2.199219 0 .199218.203125.398437.203125.597656l4.199218 11.800781h10.597657l4.203125-11.800781c1-2.597656 3.796875-4 6.398437-3 .199219 0 .398438.203125.601563.203125l13.796875 6.796875 23.402343 5.800781c7.199219 1.800781 12.597657 8.199219 13 15.601563l2 36c.199219 5.199218-3.601562 9.597656-9 10-.601562 0-.800781 0-.800781 0zm-117.601562-10h117l-2-35.402344c-.199219-3.199219-2.398438-5.796875-5.398438-6.398438l-23.800781-6c-.398438 0-.597656-.199218-1-.398437l-9.199219-4.601563-3 8.601563c-1 2.796875-3.601562 4.796875-6.601562 4.796875h-15c-3 0-5.597657-1.796875-6.597657-4.796875l-3-8.601563-9.199218 4.601563c-.402344.199219-.601563.199219-1 .398437l-23.800782 6c-3 .800782-5.199218 3.398438-5.402343 6.398438zm0 0"/><path d="m368.707031 163.8125c-4.601562 0-8.800781-2-11.800781-5.199219-18.398438-20.398437-41.398438-36.199219-67-46-8.199219-3.199219-12.398438-12.398437-9.199219-20.597656 3.199219-8.203125 12.398438-12.402344 20.601563-9.203125 30.398437 11.601562 57.597656 30.402344 79.398437 54.402344 6 6.597656 5.398438 16.597656-1.199219 22.597656-3 2.402344-6.800781 4-10.800781 4zm-4.601562-12c2.203125 2.402344 6 2.800781 8.402343.601562 2.398438-2.199218 2.800782-6 .597657-8.398437 0 0 0 0 0-.203125-20.796875-23-46.597657-40.796875-75.398438-51.796875-3-1.203125-6.601562.199219-7.800781 3.398437-1.199219 3 .199219 6.601563 3.402344 7.800782h.199218c27 10.398437 51.199219 27 70.597657 48.597656zm0 0"/><path d="m143.507812 459.414062c-2.402343 0-5-.601562-7.199218-1.800781-32.800782-16.398437-60.402344-41.199219-80.402344-71.800781-4.800781-7.398438-2.398438-17.398438 5-22 7.402344-4.597656 17-2.597656 21.800781 4.601562 16.800781 26 40.199219 46.800782 68 60.800782 7.800781 4 11 13.597656 7.199219 21.398437-2.800781 5.402344-8.199219 8.800781-14.398438 8.800781zm-74-88.398437c-3.402343 0-6 2.597656-6 6 0 1.199219.398438 2.199219 1 3.199219 19 29.199218 45.398438 52.800781 76.398438 68.398437 3 1.402344 6.601562.402344 8-2.597656 1.402344-3 .402344-6.601563-2.597656-8-29.203125-14.601563-54-36.800781-71.800782-64.203125-.800781-1.398438-2.199218-2.199219-3.800781-2.597656-.398437 0-.800781-.199219-1.199219-.199219zm0 0"/><path d="m85.308594 166.214844c-3.800782 0-7.601563-1.402344-10.402344-4-6.597656-5.800782-7.398438-15.800782-1.597656-22.601563 22-25.199219 49.796875-44.800781 81-57 8.199218-3.398437 17.398437.402344 20.796875 8.601563 3.402343 8.199218-.398438 17.398437-8.597657 20.800781-.199218.199219-.402343.199219-.800781.199219-26.398437 10.199218-49.800781 26.800781-68.398437 48-2.800782 3.199218-6.800782 5.199218-11 5.398437-.203125.601563-.601563.601563-1 .601563zm74.796875-74.402344c-.796875 0-1.398438.203125-2.199219.402344-29.800781 11.597656-56.199219 30.199218-77 54.199218-2.199219 2.398438-1.800781 6.199219.601562 8.398438 2.398438 2.203125 6.199219 1.800781 8.398438-.597656 19.601562-22.601563 44.402344-40 72.199219-50.800782 3-1.199218 4.601562-4.601562 3.402343-7.800781-.800781-2.199219-3-3.800781-5.402343-3.800781zm0 0"/><path d="m312.707031 459.414062c-6 0-11.601562-3.398437-14.398437-8.800781-4-7.800781-.800782-17.398437 7.199218-21.398437 27.597657-13.800782 51-34.800782 68-60.800782 4.800782-7.398437 14.597657-9.800781 22-5 7.398438 4.800782 9.800782 14.601563 5 22 0 .199219-.199218.199219-.199218.398438-20 30.601562-47.601563 55.601562-80.402344 71.800781-2.398438 1.199219-4.800781 1.800781-7.199219 1.800781zm-5.398437-13.398437c1.398437 3 5 4.199219 8 2.597656 31.199218-15.597656 57.597656-39.199219 76.398437-68.398437 1.800781-2.800782 1-6.402344-1.800781-8.199219-2.800781-1.800781-6.398438-1-8.199219 1.796875-17.800781 27.402344-42.601562 49.601562-71.800781 64.203125-3 1.398437-4.199219 5-2.597656 8zm0 0"/></g><path d="m415.707031 454.015625c-8.800781-1.800781-15.800781-8.601563-17.601562-17.601563 0-.199218-.199219-.398437-.398438-.199218-.199219 0-.199219.199218-.199219.199218-1.800781 8.800782-8.601562 15.800782-17.601562 17.601563-.199219 0-.398438.199219-.199219.398437 0 .199219.199219.199219.199219.199219 8.800781 1.800781 15.800781 8.601563 17.601562 17.601563 0 .199218.199219.398437.398438.199218.199219 0 .199219-.199218.199219-.199218 1.800781-8.800782 8.601562-15.800782 17.601562-17.601563.199219 0 .398438-.199219.199219-.398437 0-.199219 0-.199219-.199219-.199219zm0 0" fill="#ffcd29"/><path d="m102.90625 220.214844c-1.398438-.199219-2.800781-.199219-4.199219 0v2 21.199218 2c7 1.199219 13.601563-3.601562 14.800781-10.601562 1.199219-7-3.601562-13.398438-10.601562-14.597656zm0 0" fill="#f9d0b4"/><path d="m37.507812 243.414062v-21.199218c0-.601563 0-1.402344 0-2-1.402343-.199219-2.800781-.199219-4.199218 0-6.203125 1.199218-10.601563 6.597656-10.601563 12.800781 0 7 5.800781 12.597656 12.800781 12.597656.597657 0 1.398438 0 2-.199219 0-.601562 0-1.199218 0-2zm0 0" fill="#f9d0b4"/><path d="m72.707031 206.214844c-11.199219 14.199218-27.800781 12.199218-33.398437 11-.800782-.199219-1.800782.398437-2 1.199218v.398438 24.800781c0 17 13.796875 30.601563 30.597656 30.601563 17 0 30.601562-13.800782 30.601562-30.601563v-27.398437c0-.199219 0-.402344 0-.402344 0-.796875-.800781-1.597656-1.601562-1.597656-12.800781-.402344-19.398438-5.402344-22-8-.398438-.800782-1.398438-.800782-2.199219 0 .199219-.199219.199219 0 0 0zm0 0" fill="#f9d0b4"/><path d="m35.507812 220.015625c.597657 0 1.398438 0 2 .199219v-1.402344c0-1 .800782-1.597656 1.597657-1.597656h.402343c5.597657 1.199218 22.199219 3.199218 33.398438-11 .601562-.800782 1.601562-.800782 2.402344-.199219 0 0 0 0 .199218.199219 2.597657 2.597656 9.199219 7.597656 22 8 .800782 0 1.597657.800781 1.597657 1.597656v.402344 4.199218c4-.601562 8 .601563 10.800781 3.398438v-22.597656c0-8.402344-5.800781-15.800782-14-17.601563-4.199219-.800781-8.800781-.199219-12.597656 2.199219-3.203125-5.398438-8.800782-8.597656-15-8.597656h-9c-17.402344 0-31.601563 14.199218-31.601563 31.597656v14.203125c2-2 4.800781-3 7.800781-3zm0 0" fill="#6d6c6b"/><path d="m68.105469 274.214844c-4.796875 0-9.398438-1.199219-13.597657-3.199219v11.398437l4.800782 13.800782c.199218.800781 1 1.398437 2 1.398437h14.796875c.800781 0 1.601562-.597656 2-1.398437l4.800781-13.800782v-11.800781c-4.597656 2.199219-9.597656 3.601563-14.800781 3.601563zm0 0" fill="#f9d0b4"/><path d="m130.105469 306.414062c-.199219-5.199218-4-9.800781-9.199219-11l-23.800781-6-14.398438-7-4.800781 13.800782c-.199219.800781-1 1.398437-2 1.398437h-14.800781c-.796875 0-1.597657-.597656-2-1.398437l-4.796875-13.800782-14.402344 7-23.800781 6c-5.199219 1.199219-8.796875 5.800782-9.199219 11l-2 36c-.199219 2.398438 1.800781 4.601563 4.199219 4.601563h.203125 118c2.398437 0 4.398437-2 4.398437-4.402344v-.199219zm0 0" fill="#e9e9ea"/><path d="m100.90625 250.613281c-1 0-2 0-2.800781-.199219-2.597657-.398437-4.398438-2.601562-4.199219-5.199218 0-.601563 0-1.199219 0-1.800782v-21.199218c0-.601563 0-1.199219 0-1.800782-.199219-2.601562 1.601562-4.800781 4.199219-5.199218 2-.402344 4-.402344 5.800781 0 9.800781 1.597656 16.199219 10.800781 14.601562 20.398437-1.402343 8.800781-9 15.199219-17.601562 15zm3-25v14.402344c2.800781-1.203125 4.800781-4 4.800781-7 0-3.203125-2-6-4.800781-7.402344zm0 0" fill="#231f20"/><path d="m35.507812 250.613281c-9.800781 0-17.800781-7.800781-18-17.597656 0-8.800781 6.199219-16.203125 15-17.601563 2-.398437 4-.398437 5.800782 0 2.597656.398438 4.398437 2.601563 4.199218 5.199219v1.800781 21.199219 1.800781c.199219 2.601563-1.601562 4.800782-4.199218 5.199219-.800782 0-1.800782 0-2.800782 0zm-3-25c-2.800781 1.199219-4.800781 4.199219-4.800781 7.199219s2 5.800781 4.800781 7zm0 0" fill="#231f20"/><path d="m68.105469 279.214844c-19.597657 0-35.597657-16-35.597657-35.601563v-24.597656c0-3.601563 3-6.601563 6.597657-6.601563.402343 0 1 0 1.402343.199219 5.398438 1.199219 19 2.601563 28.398438-9.199219 1.199219-1.398437 3-2.398437 4.800781-2.398437 1.800781-.203125 3.800781.597656 5 1.796875 1.800781 1.800781 7.398438 6.203125 18.601563 6.601562 3.597656.199219 6.398437 3 6.398437 6.601563v28c.199219 19.199219-15.800781 35-35.601562 35.199219zm-25.597657-56.601563v20.800781c.199219 14.199219 11.800782 25.601563 26 25.398438 14-.199219 25.398438-11.398438 25.398438-25.398438v-24.601562c-7-.398438-13.800781-2.796875-19.398438-6.796875-10.800781 11-24.402343 11.398437-32 10.597656zm30.199219-16.398437" fill="#231f20"/><path d="m109.707031 228.613281c-1.199219 0-2.601562-.597656-3.398437-1.398437-1.800782-1.800782-4.203125-2.601563-6.601563-2-2.800781.398437-5.199219-1.402344-5.800781-4.199219 0-.203125 0-.601563 0-.800781v-1.402344c-7-.398438-13.800781-2.796875-19.398438-6.796875-11 11.398437-25.199218 11.597656-32.601562 10.597656-1 1.800781-3 2.800781-5.199219 2.601563-2.199219-.402344-4.398437.199218-6 1.597656-2.199219 1.800781-5.398437 1.402344-7-.796875-.800781-.800781-1.199219-2-1.199219-3.203125v-14.199219c0-20.199219 16.398438-36.597656 36.597657-36.597656h9c6.402343 0 12.402343 2.597656 16.601562 7.398437 3.800781-1.398437 8-1.601562 12-.800781 10.601563 2.199219 18 11.601563 18 22.402344v22.597656c0 2.800781-2.199219 5-5 5zm-5.800781-13.398437c.199219 0 .601562.199218.800781.199218v-14.398437c0-6-4-11.402344-10-12.601563-3-.601562-6.199219-.199218-9 1.601563-2.398437 1.398437-5.398437.597656-6.800781-1.800781-2.199219-3.800782-6.398438-6.199219-10.800781-6.199219h-9c-14.796875 0-26.597657 12-26.597657 26.597656v6.601563c.398438 0 .597657-.199219 1-.199219 1.398438-2.402344 4.199219-3.402344 7-3 5.398438 1.199219 19 2.597656 28.398438-9.203125 2.199219-2.796875 6.402344-3.398438 9.402344-1 .199218.203125.398437.402344.597656.402344 1.800781 1.800781 7.402344 6.199218 18.601562 6.597656 3.398438.203125 6.199219 3 6.398438 6.402344zm0 0" fill="#231f20"/><path d="m68.507812 319.414062c-1.402343 0-2.601562-.601562-3.601562-1.398437-.199219-.203125-.398438-.402344-.597656-.800781-.203125-.199219-.402344-.601563-.402344-.800782-.199219-.199218-.199219-.601562-.199219-1-.199219-.601562-.199219-1.398437 0-2 0-.398437.199219-.601562.199219-1 .199219-.199218.199219-.601562.402344-.800781.199218-.199219.398437-.597656.597656-.800781 2-1.796875 5-1.796875 7 0 .199219.203125.402344.402344.601562.800781.199219.199219.398438.601563.398438.800781.199219.398438.199219.601563.199219 1 0 .398438.203125.601563 0 1 .601562 2.601563-1.796875 5-4.597657 5 .199219 0 .199219 0 0 0zm0 0" fill="#231f20"/><path d="m68.507812 335.8125c-2.800781 0-5-2.199219-5-5 0-1.398438.597657-2.597656 1.398438-3.597656.199219-.199219.402344-.402344.800781-.601563.199219-.199219.601563-.398437.800781-.398437.199219-.199219.597657-.199219 1-.199219.597657-.203125 1.398438-.203125 2 0 .398438 0 .597657.199219 1 .199219.398438.199218.597657.199218.800782.398437.199218.199219.597656.402344.796875.601563 2 2 2 5.199218 0 7-.796875 1-2.199219 1.597656-3.597657 1.597656zm0 0" fill="#231f20"/><path d="m104.507812 352.214844c-2.800781 0-5-2.199219-5-5v-17.601563c0-2.800781 2.199219-5 5-5 2.800782 0 5 2.199219 5 5v17.402344c0 2.796875-2.199218 5.199219-5 5.199219zm0 0" fill="#231f20"/><path d="m31.90625 352.214844c-2.800781 0-5-2.199219-5-5v-17.601563c0-2.800781 2.199219-5 5-5s5 2.199219 5 5v17.402344c0 2.796875-2.398438 5.199219-5 5.199219zm0 0" fill="#231f20"/><path d="m76.105469 302.414062h-14.796875c-3 0-5.601563-1.800781-6.601563-4.800781l-4.800781-13.800781c-.199219-.597656-.199219-1-.199219-1.597656v-11.402344c0-2.796875 2.199219-5 5-5 .800781 0 1.601563.203125 2.199219.601562 3.601562 1.800782 7.402344 2.800782 11.402344 2.800782 4.199218 0 8.398437-1 12.199218-3.199219 2.398438-1.402344 5.398438-.402344 6.800782 2 .398437.796875.597656 1.597656.597656 2.398437v11.800782c0 .597656 0 1.199218-.199219 1.597656l-4.800781 13.800781c-1.199219 3-4 4.800781-6.800781 4.800781zm-12.796875-10h10.597656l3.800781-11v-3.601562c-6 1.601562-12.199219 1.800781-18.199219.203125v3.398437zm0 0" fill="#231f20"/><path d="m127.707031 352.214844h-118c-5.199219 0-9.398437-4.199219-9.398437-9.402344 0-.199219 0-.398438 0-.597656l2-36c.398437-7.402344 5.597656-13.800782 13-15.601563l23.398437-5.800781 13.800781-6.796875c2.398438-1.203125 5.398438-.203125 6.597657 2.199219 0 .199218.203125.398437.203125.597656l4.199218 11.800781h10.597657l4.203125-11.800781c1-2.597656 3.796875-4 6.398437-3 .199219 0 .398438.203125.601563.203125l13.796875 6.796875 23.402343 5.800781c7.199219 1.800781 12.597657 8.199219 13 15.601563l2 36c.199219 5.199218-3.601562 9.597656-8.800781 10-.800781 0-1 0-1 0zm-117.601562-10h116.800781l-2-35.402344c-.199219-3.199219-2.398438-5.796875-5.398438-6.398438l-23.800781-6c-.398437 0-.601562-.199218-1-.398437l-9.199219-4.601563-3 8.601563c-1 2.796875-3.601562 4.796875-6.601562 4.796875h-14.800781c-3 0-5.597657-1.796875-6.597657-4.796875l-3-8.601563-9.199218 4.601563c-.402344.199219-.601563.199219-1 .398437l-23.800782 6c-3 .800782-5.199218 3.398438-5.402343 6.398438zm0 0" fill="#231f20"/><path d="m262.507812 379.8125c-1.402343-.199219-2.800781-.199219-4.199218 0v2 21.203125 2c7 1.199219 13.597656-3.601563 14.796875-10.601563 1.203125-7-3.597657-13.601562-10.597657-14.601562zm0 0" fill="#f9d0b4"/><path d="m196.90625 403.015625v-21.203125c0-.597656 0-1.398438 0-2-1.398438-.199219-2.800781-.199219-4.199219 0-6.199219 1.203125-10.601562 6.601562-10.601562 12.800781 0 7 5.800781 12.601563 12.800781 12.601563.601562 0 1.402344 0 2-.199219 0-.800781 0-1.402344 0-2zm0 0" fill="#f9d0b4"/><path d="m232.308594 365.613281c-11.203125 14.199219-27.800782 12.199219-33.402344 11-.800781-.199219-1.800781.402344-2 1.199219v.402344 24.800781c0 17 13.800781 30.597656 30.601562 30.597656 17 0 30.597657-13.800781 30.597657-30.597656v-27.402344c0-.199219 0-.398437 0-.398437 0-.800782-.796875-1.601563-1.597657-1.601563-12.800781-.398437-19.402343-5.398437-22-8-.402343-.800781-1.402343-.800781-2.199218 0zm0 0" fill="#f9d0b4"/><path d="m194.90625 379.613281c.601562 0 1.402344 0 2 .199219v-1.398438c0-1 .800781-1.601562 1.601562-1.601562h.398438c5.601562 1.203125 22.199219 3.203125 33.402344-11 .597656-.796875 1.597656-.796875 2.398437-.199219 0 0 0 0 .199219.199219 2.601562 2.601562 9.199219 7.601562 22 8 .800781 0 1.601562.800781 1.601562 1.601562v.398438 4.203125c4-.601563 8 .597656 10.800782 3.398437v-22.601562c0-8.398438-5.800782-15.796875-14-17.597656-4.203125-.800782-8.800782-.199219-12.601563 2.199218-3.199219-5.398437-8.800781-8.601562-15-8.601562h-9c-17.398437 0-31.601562 14.203125-31.601562 31.601562v14.199219c2.203125-2 5-3 7.800781-3zm0 0" fill="#6d6c6b"/><path d="m227.707031 433.613281c-4.800781 0-9.398437-1.199219-13.601562-3.199219v11.398438l4.800781 13.800781c.199219.800781 1 1.402344 2 1.402344h14.800781c.800781 0 1.601563-.601563 2-1.402344l4.800781-13.800781v-11.796875c-4.800781 2.398437-9.800781 3.597656-14.800781 3.597656zm0 0" fill="#f9d0b4"/><path d="m289.507812 465.8125c-.199218-5.199219-4-9.796875-9.199218-11l-23.800782-6-14.402343-7-4.796875 13.800781c-.203125.800781-1 1.402344-2 1.402344h-14.800782c-.800781 0-1.601562-.601563-2-1.402344l-4.800781-13.800781-14.398437 7-23.800782 6c-5.199218 1.203125-8.800781 5.800781-9.199218 11l-2 36c-.203125 2.402344 1.796875 4.601562 4.199218 4.601562h.199219 118c2.398438 0 4.398438-2 4.398438-4.398437v-.203125zm0 0" fill="#e9e9ea"/><path d="m260.308594 410.214844c-1 0-2 0-2.800782-.199219-2.601562-.402344-4.402343-2.601563-4.199218-5.203125 0-.597656 0-1.199219 0-1.796875v-21.203125c0-.597656 0-1.199219 0-1.796875-.203125-2.601563 1.597656-4.800781 4.199218-5.203125 2-.398438 4-.398438 5.800782 0 9.597656 1.601562 16.199218 10.800781 14.597656 20.402344-1.398438 8.597656-8.800781 15-17.597656 15zm3-25v14.398437c2.796875-1.199219 4.796875-4 4.796875-7 0-3.199219-1.796875-6.199219-4.796875-7.398437zm0 0" fill="#231f20"/><path d="m194.90625 410.214844c-9.800781 0-17.800781-7.800782-18-17.601563 0-8.800781 6.199219-16.199219 15-17.597656 2-.402344 4-.402344 5.800781 0 2.601563.398437 4.398438 2.597656 4.199219 5.199219v1.800781 21.199219 1.800781c.199219 2.597656-1.597656 4.796875-4.199219 5.199219-.800781-.199219-1.800781 0-2.800781 0zm-3-25c-2.800781 1.199218-4.800781 4.199218-4.800781 7.199218s2 5.800782 4.800781 7zm0 0" fill="#231f20"/><path d="m227.707031 438.613281c-19.601562 0-35.601562-16-35.601562-35.597656v-24.601563c0-3.601562 3-6.601562 6.601562-6.601562.398438 0 1 0 1.398438.203125 5.402343 1.199219 19 2.597656 28.402343-9.203125 2.199219-2.796875 6.398438-3.398438 9.398438-1 .199219.203125.402344.203125.601562.402344 1.800782 1.800781 7.597657 6.199218 18.597657 6.597656 3.601562.203125 6.402343 3 6.402343 6.601562v28c-.199218 19.199219-16.199218 35.199219-35.800781 35.199219zm-25.800781-56.398437v20.800781c0 14.199219 11.601562 25.597656 25.601562 25.597656 14.199219 0 25.597657-11.597656 25.597657-25.597656v-24.601563c-7-.398437-13.796875-2.800781-19.398438-6.800781-10.398437 11-24.199219 11.402344-31.800781 10.601563zm30.402344-16.601563" fill="#231f20"/><path d="m269.105469 388.214844c-1.199219 0-2.597657-.601563-3.398438-1.402344-1.800781-1.796875-4.199219-2.398438-6.601562-2-2.796875.402344-5.199219-1.398438-5.796875-4.199219 0-.199219 0-.597656 0-.800781v-1.398438c-7-.398437-13.800782-2.800781-19.402344-6.800781-11 11.402344-25.199219 11.601563-32.597656 10.601563-1 1.800781-3 2.800781-5.203125 2.597656-2.199219-.398438-4.398438.203125-6 1.601562-2.199219 1.800782-5.398438 1.398438-7-.800781-.796875-.800781-1-2-1-3.199219v-14.199218c0-20.199219 16.402343-36.601563 36.601562-36.601563h9c6.398438 0 12.398438 2.601563 16.601563 7.402344 3.796875-1.402344 8-1.601563 12-.800781 10.597656 2.199218 18 11.597656 18 22.398437v22.601563c-.203125 2.597656-2.402344 5-5.203125 5zm-5.796875-13.402344c.199218 0 .597656.203125.796875.203125v-14.402344c0-6-4-11.398437-10-12.597656-3-.601563-6.199219-.203125-9 1.597656-2.398438 1.402344-5.398438.601563-6.796875-1.800781-2.203125-3.796875-6.402344-6.199219-10.800782-6.199219h-9c-14.800781 0-26.601562 12-26.601562 26.601563v6.597656c.402344 0 .601562-.199219 1-.199219 1.402344-2.398437 4.199219-3.398437 7-3 5.402344 1.199219 19 2.601563 28.402344-9.199219 2.199218-2.800781 6.398437-3.398437 9.398437-1 .199219.199219.398438.199219.601563.398438 1.796875 1.800781 7.597656 6.203125 18.597656 6.601562 3.402344.199219 6.199219 3 6.402344 6.398438zm0 0" fill="#231f20"/><path d="m228.105469 478.8125c-1.398438 0-2.597657-.597656-3.597657-1.398438-.199218-.199218-.402343-.398437-.601562-.800781-.199219-.199219-.398438-.597656-.398438-.800781-.199218-.398438-.199218-.597656-.199218-1-.203125-.597656-.203125-1.398438 0-2 0-.398438.199218-.597656.199218-1 .199219-.398438.199219-.597656.398438-.796875.199219-.203125.402344-.601563.601562-.800781 2-1.800782 5-1.800782 7 0 .199219.199218.398438.398437.597657.800781.203125.199219.402343.597656.402343.796875.199219.402344.199219.601562.199219 1 .199219.601562.199219 1.402344 0 2 0 .402344-.199219.601562-.199219 1-.199218.203125-.199218.601562-.402343.800781-.199219.199219-.398438.601563-.597657.800781-.800781.800782-2 1.398438-3.402343 1.398438zm0 0" fill="#231f20"/><path d="m228.105469 495.214844c-1.398438 0-2.597657-.601563-3.597657-1.402344-.199218-.199219-.402343-.398438-.601562-.796875-.199219-.203125-.398438-.601563-.398438-.800781-.199218-.402344-.199218-.601563-.199218-1 0-.402344 0-.601563-.203125-1 0-.402344 0-.601563.203125-1 0-.402344.199218-.601563.199218-1 .199219-.402344.199219-.601563.398438-.800782.199219-.199218.402344-.601562.601562-.800781 2-1.800781 5-1.800781 7 0 .199219.199219.398438.402344.597657.800781.203125.199219.402343.601563.402343.800782.199219.199218.199219.597656.199219 1 0 .398437 0 .597656.199219 1 0 .398437 0 .597656-.199219 1 0 .398437-.199219.597656-.199219 1-.199218.199218-.199218.597656-.402343.800781-.199219.199219-.398438.597656-.597657.796875-.800781.800781-2 1.402344-3.402343 1.402344zm0 0" fill="#231f20"/><path d="m263.90625 511.613281c-2.800781 0-5-2.199219-5-5v-17.398437c0-2.800782 2.199219-5 5-5s5 2.199218 5 5v17.398437c0 2.800781-2.199219 5-5 5zm0 0" fill="#231f20"/><path d="m191.308594 511.613281c-2.800782 0-5-2.199219-5-5v-17.398437c0-2.800782 2.199218-5 5-5 2.796875 0 5 2.199218 5 5v17.398437c0 2.800781-2.203125 5-5 5zm0 0" fill="#231f20"/><path d="m235.507812 462.015625h-14.800781c-3 0-5.601562-1.800781-6.601562-4.800781l-4.796875-13.800782c-.203125-.601562-.203125-1-.203125-1.601562v-11.398438c0-2.800781 2.203125-5 5-5 .800781 0 1.601562.199219 2.203125.601563 3.597656 1.796875 7.398437 2.796875 11.398437 2.796875 4.199219 0 8.398438-1 12.199219-3.199219 2.402344-1.398437 5.402344-.398437 6.800781 2 .398438.800781.601563 1.601563.601563 2.402344v11.796875c0 .601562 0 1.203125-.203125 1.601562l-4.796875 13.800782c-1.203125 2.800781-3.800782 4.800781-6.800782 4.800781zm-12.601562-10h10.601562l3.800782-11v-3.601563c-6 1.601563-12.203125 1.800782-18.203125.199219v3.402344zm0 0" fill="#231f20"/><path d="m287.105469 511.613281h-118c-5.199219 0-9.398438-4.199219-9.398438-9.398437 0-.199219 0-.402344 0-.601563l2-36c.398438-7.398437 5.601563-13.800781 13-15.597656l23.398438-5.800781 13.800781-6.800782c2.402344-1.199218 5.402344-.199218 6.601562 2.199219 0 .199219.199219.402344.199219.601563l4.199219 11.800781h10.601562l4.199219-11.800781c1-2.601563 3.800781-4 6.398438-3 .203125 0 .402343.199218.601562.199218l13.800781 6.800782 23.398438 5.800781c7.199219 1.796875 12.601562 8.199219 13 15.597656l2 36c.199219 5.199219-3.597656 9.601563-8.800781 10-.597657 0-.796875 0-1 0zm-117.398438-10h116.800781l-2-35.398437c-.199218-3.199219-2.402343-5.800782-5.402343-6.402344l-23.796875-6c-.402344 0-.601563-.199219-1-.398438l-9.203125-4.601562-3 8.601562c-1 2.800782-3.597657 4.800782-6.597657 4.800782h-14.800781c-3 0-5.601562-1.800782-6.601562-4.800782l-3-8.601562-9.199219 4.601562c-.398438.199219-.597656.199219-1 .398438l-23.800781 6c-3 .800781-5.199219 3.402344-5.398438 6.402344zm0 0" fill="#231f20"/><path d="m262.507812 60.8125c-1.402343-.199219-2.800781-.199219-4.199218 0v2 21.203125 2c7 1.199219 13.597656-3.601563 14.796875-10.601563 1-7-3.597657-13.601562-10.597657-14.601562zm0 0" fill="#f9d0b4"/><path d="m196.90625 84.015625v-21.203125c0-.597656 0-1.398438 0-2-1.398438-.199219-2.800781-.199219-4.199219 0-6.199219 1.203125-10.601562 6.601562-10.601562 12.800781 0 7 5.800781 12.601563 12.800781 12.601563.601562 0 1.402344 0 2-.199219 0-.800781 0-1.402344 0-2zm0 0" fill="#f9d0b4"/><path d="m232.308594 46.613281c-11.203125 14.199219-27.800782 12.199219-33.402344 11-.800781-.199219-1.800781.402344-2 1.199219v.402344 24.800781c0 17 13.800781 30.597656 30.601562 30.597656 17 0 30.597657-13.800781 30.597657-30.597656v-27.402344c0-.199219 0-.398437 0-.398437 0-.800782-.796875-1.601563-1.597657-1.601563-12.800781-.398437-19.402343-5.398437-22-8-.402343-.800781-1.402343-.800781-2.199218 0zm0 0" fill="#f9d0b4"/><path d="m194.90625 60.613281c.601562 0 1.402344 0 2 .199219v-1.398438c0-1 .800781-1.601562 1.601562-1.601562h.398438c5.601562 1.203125 22.199219 3.203125 33.402344-11 .597656-.796875 1.597656-.796875 2.398437-.199219 0 0 0 0 .199219.199219 2.601562 2.601562 9.199219 7.601562 22 8 .800781 0 1.601562.800781 1.601562 1.601562v.398438 4.203125c4-.601563 8 .597656 10.800782 3.398437v-23c0-8.398437-5.800782-15.800781-14-17.601562-4.203125-.796875-8.800782-.199219-12.601563 2.203125-3.199219-5.402344-8.800781-8.601563-15-8.601563h-9c-17.398437 0-31.601562 14.199219-31.601562 31.601563v14.199219c2.203125-1.601563 5-2.601563 7.800781-2.601563zm0 0" fill="#6d6c6b"/><path d="m227.707031 114.613281c-4.800781 0-9.398437-1.199219-13.601562-3.199219v11.398438l4.800781 13.800781c.199219.800781 1 1.402344 2 1.402344h14.800781c.800781 0 1.601563-.601563 2-1.402344l4.800781-13.800781v-11.796875c-4.800781 2.398437-9.800781 3.597656-14.800781 3.597656zm0 0" fill="#f9d0b4"/><path d="m289.507812 146.8125c-.199218-5.199219-4-9.796875-9.199218-11l-23.800782-6-14.402343-7-4.796875 13.800781c-.203125.800781-1 1.402344-2 1.402344h-14.800782c-.800781 0-1.601562-.601563-2-1.402344l-4.800781-13.800781-14.398437 7-23.800782 6c-5.199218 1.203125-8.800781 5.800781-9.199218 11l-2 36c-.203125 2.402344 1.796875 4.601562 4.199218 4.601562h.199219 118c2.398438 0 4.398438-2 4.398438-4.398437v-.203125zm0 0" fill="#e9e9ea"/><path d="m260.308594 91.214844c-1 0-2 0-2.800782-.199219-2.601562-.402344-4.402343-2.601563-4.199218-5.203125 0-.597656 0-1.199219 0-1.796875v-21.203125c0-.597656 0-1.199219 0-1.796875-.203125-2.601563 1.597656-4.800781 4.199218-5.203125 2-.398438 4-.398438 5.800782 0 9.597656 1.601562 16.199218 10.800781 14.597656 20.402344-1.398438 8.597656-8.800781 15-17.597656 15zm3-25v14.398437c2.796875-1.199219 4.796875-4 4.796875-7 0-3.199219-1.796875-6.199219-4.796875-7.398437zm0 0" fill="#231f20"/><path d="m194.90625 91.214844c-9.800781 0-17.800781-7.800782-18-17.601563 0-8.800781 6.199219-16.199219 15-17.597656 2-.402344 4-.402344 5.800781 0 2.601563.398437 4.398438 2.597656 4.199219 5.199219v1.800781 21.199219 1.800781c.199219 2.597656-1.597656 4.796875-4.199219 5.199219-.800781-.199219-1.800781 0-2.800781 0zm-3-25c-2.800781 1.199218-4.800781 4.199218-4.800781 7.199218s2 5.800782 4.800781 7zm0 0" fill="#231f20"/><path d="m227.707031 119.613281c-19.601562 0-35.601562-16-35.601562-35.597656v-24.800781c0-3.601563 3-6.601563 6.601562-6.601563.398438 0 1 0 1.398438.199219 5.402343 1.203125 19 2.601562 28.402343-9.199219 2.199219-2.800781 6.398438-3.398437 9.398438-1 .199219.199219.402344.199219.601562.402344 1.800782 1.796875 7.398438 6.199219 18.597657 6.597656 3.601562.199219 6.402343 3 6.402343 6.601563v28c-.199218 19.398437-16.199218 35.398437-35.800781 35.398437zm-25.800781-56.398437v20.800781c0 14.199219 11.601562 25.597656 25.601562 25.597656 14.199219 0 25.597657-11.597656 25.597657-25.597656v-24.800781c-7-.402344-13.796875-2.800782-19.398438-6.800782-10.398437 11.199219-24.199219 11.601563-31.800781 10.800782zm30.402344-16.601563" fill="#231f20"/><path d="m269.105469 69.214844c-1.199219 0-2.597657-.601563-3.398438-1.402344-1.800781-1.796875-4.199219-2.398438-6.601562-2-2.796875.402344-5.199219-1.398438-5.796875-4.199219 0-.199219 0-.597656 0-.800781v-1.398438c-7-.398437-13.800782-2.800781-19.402344-6.800781-11 11.402344-25.199219 11.601563-32.597656 10.601563-1 1.800781-3 2.800781-5.203125 2.597656-2.199219-.398438-4.398438.203125-6 1.601562-2.199219 1.800782-5.398438 1.398438-7-.800781-.796875-.800781-1-2-1-3.199219v-14.199218c0-20.199219 16.402343-36.601563 36.601562-36.601563h9c6.398438 0 12.398438 2.601563 16.601563 7.402344 3.796875-1.402344 8-1.601563 12-.800781 10.597656 2.199218 18 11.597656 18 22.398437v22.601563c0 2.597656-2.402344 5-5.203125 5zm-5.796875-13.402344c.199218 0 .597656.203125.796875.203125v-14.402344c0-6-4-11.398437-10-12.597656-3-.601563-6.199219-.203125-9 1.597656-2.398438 1.402344-5.398438.601563-6.796875-1.800781-2.203125-3.796875-6.402344-6.199219-10.800782-6.199219h-9c-14.800781 0-26.601562 12-26.601562 26.601563v6.597656c.402344 0 .601562-.199219 1-.199219 1.402344-2.398437 4.199219-3.398437 7-3 5.402344 1.199219 19 2.601563 28.402344-9.199219 2.199218-2.800781 6.398437-3.398437 9.398437-1 .199219.199219.398438.199219.601563.398438 1.796875 1.800781 7.398437 6.203125 18.597656 6.601562 3.402344.199219 6.199219 3 6.402344 6.398438zm0 0" fill="#231f20"/><path d="m228.105469 159.8125c-1.398438 0-2.597657-.597656-3.597657-1.398438-.199218-.199218-.402343-.398437-.601562-.800781-.398438-.597656-.597656-1.199219-.800781-1.800781-.199219-.597656-.199219-1.398438 0-2 .203125-.597656.402343-1.199219.800781-1.796875.402344-.601563.800781-1 1.402344-1.402344.597656-.398437 1.199218-.597656 1.796875-.800781.601562-.199219 1.402343-.199219 2 0 .402343 0 .601562.203125 1 .203125.402343.199219.601562.199219.800781.398437.199219.199219.601562.398438.800781.601563.199219.199219.398438.398437.601563.796875.199218.203125.398437.601562.398437.800781.199219.402344.199219.601563.199219 1 .199219.601563.199219 1.402344 0 2 0 .402344-.199219.601563-.199219 1-.199219.199219-.199219.601563-.398437.800781-.203125.199219-.402344.601563-.601563.800782-1 1-2.199219 1.597656-3.601562 1.597656zm0 0" fill="#231f20"/><path d="m228.105469 176.214844c-1.398438 0-2.597657-.601563-3.597657-1.402344-.199218-.199219-.402343-.398438-.601562-.796875-.199219-.203125-.398438-.601563-.398438-.800781-.199218-.199219-.199218-.601563-.199218-1-.203125-.601563-.203125-1.402344 0-2 .199218-.601563.398437-1.199219.796875-1.800782.203125-.199218.402343-.601562.601562-.800781 2-1.800781 5-1.800781 7 0 .199219.199219.398438.402344.601563.800781.199218.199219.398437.601563.398437.800782.199219.398437.199219.597656.199219 1 .199219.597656.199219 1.398437 0 2 0 .398437-.199219.597656-.199219 1-.199219.398437-.199219.597656-.398437.800781-.203125.199219-.402344.597656-.601563.796875-1 .800781-2.199219 1.402344-3.601562 1.402344zm0 0" fill="#231f20"/><path d="m263.90625 192.613281c-2.800781 0-5-2.199219-5-5v-17.398437c0-2.800782 2.199219-5 5-5s5 2.199218 5 5v17.398437c0 2.800781-2.199219 5-5 5zm0 0" fill="#231f20"/><path d="m191.308594 192.613281c-2.800782 0-5-2.199219-5-5v-17.398437c0-2.800782 2.199218-5 5-5 2.796875 0 5 2.199218 5 5v17.398437c0 2.800781-2.203125 5-5 5zm0 0" fill="#231f20"/><path d="m235.507812 143.015625h-14.800781c-3 0-5.601562-1.800781-6.601562-4.800781l-4.796875-13.800782c-.203125-.601562-.203125-1-.203125-1.601562v-11.398438c0-2.800781 2.203125-5 5-5 .800781 0 1.601562.199219 2.203125.601563 3.597656 1.796875 7.398437 2.796875 11.398437 2.796875 4.199219 0 8.398438-1 12.199219-3.199219 2.402344-1.398437 5.402344-.398437 6.800781 2 .398438.800781.601563 1.601563.601563 2.402344v11.796875c0 .601562 0 1.203125-.203125 1.601562l-4.796875 13.800782c-1.203125 2.800781-3.800782 4.800781-6.800782 4.800781zm-12.601562-10h10.601562l3.800782-11v-3.601563c-6 1.601563-12.203125 1.800782-18.203125.199219v3.402344zm0 0" fill="#231f20"/><path d="m287.105469 192.613281h-118c-5.199219 0-9.398438-4.199219-9.398438-9.398437 0-.199219 0-.402344 0-.601563l2-36c.398438-7.398437 5.601563-13.800781 13-15.597656l23.398438-5.800781 13.800781-6.800782c2.402344-1.199218 5.402344-.199218 6.601562 2.199219 0 .199219.199219.402344.199219.601563l4.199219 11.800781h10.601562l4.199219-11.800781c1-2.601563 3.800781-4 6.398438-3 .203125 0 .402343.199218.601562.199218l13.800781 6.800782 23.398438 5.800781c7.199219 1.796875 12.601562 8.199219 13 15.597656l2 36c.199219 5.199219-3.597656 9.601563-9 10-.398438 0-.597656 0-.800781 0zm-117.398438-10h116.800781l-2-35.398437c-.199218-3.199219-2.402343-5.800782-5.402343-6.402344l-23.796875-6c-.402344 0-.601563-.199219-1-.398438l-9.203125-4.601562-3 8.601562c-1 2.800782-3.597657 4.800782-6.597657 4.800782h-14.800781c-3 0-5.601562-1.800782-6.601562-4.800782l-3-8.601562-9.199219 4.601562c-.398438.199219-.597656.199219-1 .398438l-23.800781 6c-3 .800781-5.199219 3.402344-5.398438 6.402344zm0 0" fill="#231f20"/></svg>