<svg height="512pt" viewBox="-23 0 512 512.15" width="512pt" xmlns="http://www.w3.org/2000/svg"><path d="m458.042969 157.550781c4-4 4-10.402343 0-14.601562l-105.796875-105.800781c-1.601563-1.597657-4.402344-1.597657-6 0l-30.800782 30.800781c-1.601562 1.601562-1.601562 4-.402343 5.601562 10.402343 13.199219 8 32.199219-5.199219 42.597657-11 8.601562-26.398438 8.601562-37.398438 0-1.601562-1.398438-4.199218-1.199219-5.601562.402343l-30.800781 30.800781c-1.597657 1.597657-1.597657 4.398438 0 6l30.800781 30.796876c1.601562 1.601562 1.601562 4 .402344 5.601562-10.402344 13.199219-8 32.199219 5.199218 42.601562 11 8.597657 26.398438 8.597657 37.398438 0 1.601562-1.402343 4.199219-1.203124 5.601562.398438l30.800782 30.800781c1.597656 1.597657 4.398437 1.597657 6 0l30.796875-30.800781c1.601562-1.601562 4-1.601562 5.601562-.398438 13.199219 10.398438 32.199219 8 42.601563-5.203124 8.597656-11 8.597656-26.398438 0-37.398438-1.402344-1.601562-1.203125-4.199219.398437-5.601562zm0 0" fill="#6dcc6d"/><path d="m360.042969 291.148438h-44.398438c-1.800781 0-3.398437 1.402343-3.800781 3.402343-1.800781 16.597657-16.800781 28.597657-33.398438 26.800781-14.199218-1.601562-25.199218-12.800781-26.800781-26.800781-.199219-1.800781-1.800781-3.402343-3.800781-3.402343h-48.199219v51.800781c-16.800781 0-30.398437 13.601562-30.398437 30.402343 0 16.796876 13.597656 30.398438 30.398437 30.398438v51.800781h51.800781c0 16.800781 13.597657 30.398438 30.398438 30.398438s30.402344-13.597657 30.402344-30.398438h41.398437c5.601563 0 10.199219-4.601562 10.199219-10.199219v-150.203124c0-2.398438-1.800781-4-3.800781-4zm0 0" fill="#ffae2c"/><path d="m199.644531 342.949219v-51.800781h-51.800781c0-16.796876-13.597656-30.398438-30.398438-30.398438-16.800781 0-30.402343 13.601562-30.402343 30.398438h-51.597657v51.800781c-16.800781 0-30.402343 13.601562-30.402343 30.402343 0 16.796876 13.601562 30.398438 30.402343 30.398438v41.398438c0 5.601562 4.597657 10.203124 10.199219 10.203124h154v-51.800781c-16.800781 0-30.398437-13.601562-30.398437-30.402343 0-16.796876 13.597656-30.398438 30.398437-30.199219zm0 0" fill="#ea4647"/><path d="m202.84375 178.949219c-1.800781-.199219-3.398438-1.800781-3.398438-3.597657v-44.601562c0-2-1.601562-3.800781-3.800781-3.800781h-150c-5.601562 0-10.199219 4.601562-10.199219 10.199219v38.203124c0 1.796876 1.199219 3.199219 3 3.398438 16.597657 1.601562 28.800782 16.601562 27.199219 33.199219-1.398437 14.402343-12.800781 25.800781-27.199219 27.199219-1.800781.203124-3 1.601562-3 3.402343v48.597657h51.800782c0-16.796876 13.597656-30.398438 30.398437-30.398438s30.398438 13.601562 30.398438 30.398438h51.800781v-48.199219c0-1.800781 1.402344-3.398438 3.402344-3.597657 16.597656-1.800781 28.597656-16.800781 26.796875-33.402343-1.796875-14.398438-13-25.597657-27.199219-27zm0 0" fill="#55acd5"/><g fill="#231f20"><path d="m349.246094 269.75c-2.402344 0-4.800782-1-6.601563-2.800781l-30.199219-30.199219c-15.601562 11.800781-37.800781 8.601562-49.402343-7.199219-9.398438-12.601562-9.398438-29.800781 0-42.402343l-30.199219-30.199219c-3.597656-3.597657-3.597656-9.398438 0-13l30.800781-30.800781c3.398438-3.199219 8.601563-3.597657 12.199219-.796876 11 8.597657 27 6.597657 35.601562-4.402343 7.199219-9.199219 7.199219-22 0-31-2.800781-3.597657-2.601562-9 .800782-12.199219l30.796875-30.800781c3.601562-3.597657 9.402343-3.597657 13 0l105.800781 105.800781c6 6 6 15.601562 0 21.601562l-26 26c11.800781 15.597657 8.601562 37.796876-7 49.398438-12.597656 9.398438-29.800781 9.398438-42.398438 0l-30.199218 30.199219c-2.203125 1.800781-4.601563 2.800781-7 2.800781zm-36.800782-43.398438c2.398438 0 4.800782 1 6.597657 2.597657l30.203125 30.199219 30.199218-30.199219c3.398438-3.199219 8.597657-3.597657 12.199219-.800781 11 8.601562 27 6.601562 35.601563-4.398438 7.199218-9.199219 7.199218-22 0-31-2.800782-3.601562-2.601563-9 .796875-12.199219l26.601562-26.601562c2-2 2-5.398438 0-7.398438l-105.199219-105.199219-29.800781 29.796876c11.800781 15.601562 8.601563 37.800781-7 49.402343-12.601562 9.398438-29.800781 9.398438-42.398437 0l-29.800782 29.800781 30.199219 30.199219c3.199219 3.398438 3.601563 8.597657.800781 12.199219-8.601562 11-6.601562 27 4.398438 35.601562 9.199219 7.199219 22 7.199219 31.199219 0 1.203125-1.203124 3.203125-2 5.402343-2zm0 0"/><path d="m281.644531 490.550781c-17.601562 0-32.398437-13-35-30.402343h-47c-2.800781 0-5-2.199219-5-5v-47c-19.398437-2.796876-32.800781-20.597657-30-40 2.199219-15.597657 14.398438-27.796876 30-30v-47c0-2.796876 2.199219-5 5-5h48.199219c4.402344 0 8.199219 3.402343 8.601562 7.800781 1.597657 14 14 24 28 22.402343 11.800782-1.402343 21.199219-10.601562 22.398438-22.402343.402344-4.398438 4.199219-7.800781 8.601562-7.800781h44.398438c4.800781 0 8.800781 4 8.800781 8.800781v150.199219c0 8.402343-6.800781 15.203124-15.199219 15.203124h-36.800781c-2.398437 17.398438-17.398437 30.199219-35 30.199219zm-77-40.199219h46.800781c2.800782 0 5 2.199219 5 5 0 14 11.398438 25.398438 25.398438 25.398438s25.402344-11.398438 25.402344-25.398438c0-2.800781 2.199218-5 5-5h41.398437c3 0 5.199219-2.402343 5.199219-5.203124v-149h-42c-2.800781 19.402343-20.597656 32.800781-40 30-15.597656-2.199219-27.800781-14.398438-30-30h-42v46.800781c0 2.800781-2.199219 5-5 5-14 0-25.398438 11.402343-25.398438 25.402343s11.398438 25.398438 25.398438 25.398438c2.800781 0 5 2.199219 5 5zm155.398438-154.203124"/><path d="m199.644531 460.351562h-154c-8.398437 0-15.199219-6.800781-15.199219-15.203124v-36.796876c-19.402343-2.800781-32.800781-20.601562-30-40 2.199219-15.601562 14.398438-27.800781 30-30v-47c0-2.800781 2.199219-5 5-5h47c2.800782-19.402343 20.597657-32.800781 40-30 15.597657 2.199219 27.800782 14.398438 30 30h47c2.800782 0 5 2.199219 5 5v51.796876c0 2.800781-2.199218 5-5 5-14 0-25.402343 11.402343-25.402343 25.402343s11.402343 25.398438 25.402343 25.398438c2.800782 0 5 2.199219 5 5v51.800781c.199219 2.199219-2 4.601562-4.800781 4.601562zm-159.199219-164.203124v46.800781c0 2.800781-2.199218 5-5 5-14 0-25.402343 11.402343-25.402343 25.402343s11.402343 25.398438 25.402343 25.398438c2.800782 0 5 2.199219 5 5v41.398438c0 3 2.398438 5.203124 5.199219 5.203124h149v-42c-19.398437-2.800781-32.800781-20.601562-30-40 2.199219-15.601562 14.398438-27.800781 30-30v-42h-46.800781c-2.800781 0-5-2.203124-5-5 0-14-11.398438-25.402343-25.398438-25.402343s-25.402343 11.402343-25.402343 25.402343c0 2.796876-2.199219 5-5 5h-46.597657zm0 0"/><path d="m199.644531 296.148438h-51.800781c-2.800781 0-5-2.199219-5-5 0-14-11.398438-25.398438-25.398438-25.398438s-25.402343 11.398438-25.402343 25.398438c0 2.800781-2.199219 5-5 5h-51.597657c-2.800781 0-5-2.199219-5-5v-48.597657c0-4.402343 3.199219-8 7.597657-8.402343 14-1.398438 24-13.796876 22.601562-27.796876-1.199219-12-10.601562-21.402343-22.601562-22.601562-4.199219-.398438-7.597657-4-7.597657-8.398438v-38.203124c0-8.398438 6.800782-15.199219 15.199219-15.199219h150.199219c4.800781 0 8.800781 4 8.800781 8.800781v43.199219c19.398438 2.800781 32.800781 20.601562 30 40-2.199219 15.601562-14.398437 27.800781-30 30v47c0 3-2.199219 5.199219-5 5.199219zm-47.199219-10h42v-43.199219c0-4.398438 3.398438-8.199219 7.800782-8.597657 14-1.601562 24-14 22.398437-28-1.398437-11.800781-10.601562-21.203124-22.398437-22.402343-4.402344-.398438-7.800782-4.199219-7.800782-8.597657v-43.402343h-148.800781c-3 0-5.199219 2.402343-5.199219 5.199219v36.800781c19.398438 2.800781 32.800782 20.601562 30 40-2.199218 15.601562-14.402343 27.800781-30 30v42h42c2.800782-19.398438 20.597657-32.800781 40-30 15.597657 2.402343 27.800782 14.601562 30 30.199219zm0 0"/></g><path d="m381.84375 493.351562c-9-1.800781-15.800781-8.601562-17.597656-17.601562 0-.199219-.203125-.398438-.402344-.398438s-.199219.199219-.398438.398438c-1.800781 9-8.601562 15.800781-17.601562 17.601562-.199219 0-.398438.199219-.398438.398438s.199219.199219.398438.398438c9 1.800781 15.800781 8.601562 17.601562 17.601562 0 .199219.199219.398438.398438.398438s.199219-.199219.402344-.398438c1.796875-9 8.597656-15.800781 17.597656-17.601562.199219 0 .402344-.199219.402344-.398438-.203125-.398438-.402344-.398438-.402344-.398438zm0 0" fill="#60bae2"/><path d="m394.644531 332.75c-.398437 0-.601562 0-1-.199219-.398437 0-.601562-.199219-1-.199219-.398437-.203124-.601562-.203124-.800781-.402343s-.597656-.398438-.800781-.597657c-.199219-.203124-.398438-.402343-.597657-.800781-.199218-.199219-.402343-.601562-.402343-.800781-.199219-.398438-.199219-.601562-.199219-1s-.199219-.601562-.199219-1c0-1.398438.601563-2.601562 1.398438-3.601562.203125-.199219.402343-.398438.800781-.597657.199219-.199219.601562-.402343.800781-.402343.398438-.199219.601563-.199219 1-.199219 2.601563-.597657 5.398438 1.199219 5.800781 3.800781 0 .398438.199219.601562.199219 1s0 .601562-.199219 1c0 .398438-.199218.601562-.199218 1-.203125.398438-.203125.601562-.402344.800781s-.398438.597657-.597656.800781c-1 .796876-2.203125 1.398438-3.601563 1.398438zm0 0" fill="#60bae2"/><path d="m145.644531 79.75c-9-1.800781-15.800781-8.601562-17.601562-17.601562 0-.199219-.199219-.398438-.398438-.398438s-.199219.199219-.398437.398438c-1.800782 9-8.601563 15.800781-17.601563 17.601562-.199219 0-.398437.199219-.398437.398438 0 .203124.199218.203124.398437.402343 9 1.800781 15.800781 8.597657 17.601563 17.597657 0 .203124.199218.402343.398437.402343s.199219-.199219.398438-.402343c1.800781-9 8.601562-15.796876 17.601562-17.597657.199219 0 .398438-.199219.398438-.402343 0-.199219-.199219-.398438-.398438-.398438zm0 0" fill="#60bae2"/><path d="m250.445312 44.550781h-17.402343c-2.796875 0-5-2.199219-5-5s2.203125-5 5-5h17.402343c2.800782 0 5 2.199219 5 5s-2.199218 5-5 5zm0 0" fill="#6dcc6d"/><path d="m241.644531 53.148438c-2.800781 0-5-2.199219-5-5v-17.398438c0-2.800781 2.199219-5 5-5s5 2.199219 5 5v17.398438c0 2.800781-2.199219 5-5 5zm0 0" fill="#6dcc6d"/><path d="m274.246094 9.949219c-.402344 0-.601563 0-1-.199219-.402344 0-.601563-.199219-1-.199219-.402344-.199219-.601563-.199219-.800782-.402343-.601562-.398438-1-.796876-1.402343-1.398438-.199219-.199219-.398438-.601562-.398438-.800781-.199219-.398438-.199219-.597657-.199219-1-.199218-.597657-.199218-1.398438 0-2 0-.398438.199219-.597657.199219-1 .199219-.398438.199219-.597657.398438-.800781.203125-.199219.402343-.597657.601562-.796876.199219-.203124.398438-.402343.800781-.601562.199219-.199219.597657-.398438.800782-.398438.398437-.203124.597656-.203124 1-.203124.597656-.1992192 1.398437-.1992192 2 0 .398437 0 .597656.203124 1 .203124.398437.199219.597656.199219.796875.398438.203125.199219.601562.398438.800781.601562.199219.199219.402344.398438.601562.796876.199219.203124.398438.601562.398438.800781.199219.402343.199219.601562.199219 1 0 .402343 0 .601562.203125 1 0 .402343 0 .601562-.203125 1 0 .402343-.199219.601562-.199219 1-.199219.402343-.199219.601562-.398438.800781-.199218.199219-.402343.601562-.601562.800781s-.398438.398438-.800781.597657c-.199219.203124-.597657.402343-.796875.402343-.402344.199219-.601563.199219-1 .199219-.402344.199219-.601563.199219-1 .199219zm0 0" fill="#ffcd29"/><path d="m427.042969 443.351562h-17.398438c-2.800781 0-5-2.203124-5-5 0-2.800781 2.199219-5 5-5h17.398438c2.800781 0 5 2.199219 5 5 0 2.796876-2.199219 5-5 5zm0 0" fill="#ffcd29"/><path d="m418.445312 452.148438c-2.800781 0-5-2.199219-5-5v-17.398438c0-2.800781 2.199219-5 5-5 2.800782 0 5 2.199219 5 5v17.398438c0 2.601562-2.402343 5-5 5zm0 0" fill="#ffcd29"/><path d="m450.84375 408.75c-1.597656 0-3.199219-.800781-4.199219-2.199219-.199219-.199219-.398437-.601562-.398437-.800781-.203125-.199219-.203125-.601562-.203125-1s0-.601562-.199219-1c0-2.800781 2.199219-5 5-5h1c.402344 0 .601562.199219 1 .199219.199219.199219.601562.199219.800781.402343.199219.199219.601563.398438.800781.597657 1 1 1.398438 2.199219 1.398438 3.601562v1c0 .398438-.199219.597657-.199219 1-.199219.398438-.199219.597657-.398437.800781-.203125.199219-.402344.597657-.601563.796876-.199219.203124-.398437.402343-.800781.601562-.199219.199219-.597656.398438-.800781.398438-.398438.203124-.597657.203124-1 .203124-.398438.398438-.796875.398438-1.199219.398438zm0 0" fill="#f75c64"/></svg>