<?xml version="1.0" encoding="UTF-8"?>
<svg width="754px" height="492px" viewBox="0 0 754 492" version="1.1" xmlns="http://www.w3.org/2000/svg" xmlns:xlink="http://www.w3.org/1999/xlink">
    <!-- Generator: Sketch 52.4 (67378) - http://www.bohemiancoding.com/sketch -->
    <title>undraw_add_to_cart_vkjp</title>
    <desc>Created with Sketch.</desc>
    <defs>
        <linearGradient x1="49.9994744%" y1="100%" x2="49.9994744%" y2="0%" id="linearGradient-1">
            <stop stop-color="#808080" stop-opacity="0.25" offset="0%"></stop>
            <stop stop-color="#808080" stop-opacity="0.12" offset="54%"></stop>
            <stop stop-color="#808080" stop-opacity="0.1" offset="100%"></stop>
        </linearGradient>
        <linearGradient x1="50.0143552%" y1="99.9984335%" x2="50.0143552%" y2="-0.00903255555%" id="linearGradient-2">
            <stop stop-color="#808080" stop-opacity="0.25" offset="0%"></stop>
            <stop stop-color="#808080" stop-opacity="0.12" offset="54%"></stop>
            <stop stop-color="#808080" stop-opacity="0.1" offset="100%"></stop>
        </linearGradient>
    </defs>
    <g id="Elementos" stroke="none" stroke-width="1" fill="none" fill-rule="evenodd">
        <g id="Digitales/Header" transform="translate(125.000000, -20.000000)">
            <g id="undraw_add_to_cart_vkjp" transform="translate(-125.000000, 20.000000)">
                <path d="M735.358753,447.710443 C734.669331,448.272017 734.035062,448.818205 733.359428,449.349008 C730.866587,451.316235 728.25686,453.09223 725.54827,454.664728 C711.359953,463.011408 693.869302,467.088588 676.83367,469.857993 C638.625871,476.073769 599.618341,477.281538 560.776273,478.466228 C455.825473,481.681815 350.619587,484.88971 245.923874,477.48155 C204.558519,474.558289 162.283127,469.665673 124.799221,454.664728 C119.426321,452.521003 114.159132,450.156751 108.997655,447.571973 C98.5529032,442.333181 88.5218046,435.955856 80.1797914,428.339992 C72.3410566,421.20108 65.9845804,413.000563 62.185862,403.676899 C54.2643965,384.26029 58.4560858,362.451223 67.5013101,343.419255 C71.2579755,335.719812 75.4945562,328.324233 80.1797914,321.28709 C87.1636421,310.57103 94.8644924,300.162682 101.889708,289.454315 C126.888171,251.390377 143.19991,203.233496 120.124936,164.192574 C113.492691,152.976482 103.909717,143.129708 98.5046436,131.421278 C91.6104178,116.443411 92.1412732,99.8115931 94.333637,83.6567288 C94.6185983,81.6053174 94.9196462,79.5744202 95.2367805,77.5640371 C98.9803452,53.6086811 106.026244,27.7993621 127.74995,12.8445734 C150.314751,-2.69486753 182.359112,-1.91020269 210.363457,3.61322236 C253.914282,12.2906923 294.086936,30.3533692 334.687032,46.6620894 C375.287127,62.9708096 417.762453,77.8717488 462.381882,79.4718496 C501.782383,80.8873235 547.739292,70.2943481 573.889091,42.7618436 C599.287418,16.0216967 647.029932,13.9831067 681.439013,30.1379711 C705.058631,41.2232851 722.680272,61.1937746 730.112248,83.6567288 C731.617452,88.1665018 732.701004,92.8377545 733.34564,97.5960689 C733.941338,101.944739 734.135393,106.350157 733.924754,110.743051 C733.821341,112.912419 733.621409,115.058708 733.34564,117.181919 C727.595855,161.507789 686.209818,196.471531 661.052788,236.066335 C648.760383,255.406015 640.080553,278.638249 648.532874,299.493409 C661.425076,331.272335 706.258226,342.573047 733.331851,366.220692 C738.426693,370.524522 742.912188,375.659241 746.637707,381.452421 C759.771207,402.499901 754.924566,430.92477 735.358753,447.710443 Z" id="Path" fill="#292E34" fill-rule="nonzero" opacity="0.05"></path>
                <g id="d00831fc-a64a-413c-b5dd-d7bd6eafa01d" transform="translate(0.000000, 32.000000)">
                    <path d="M138.368339,174.924847 C138.368339,174.924847 113.697059,131.16411 76.5185121,118.559816 C60.916609,113.266871 47.2991349,103.314417 37.9884083,89.7116564 C33.5805055,83.2533209 29.7744448,76.4034981 26.6181661,69.2484663" id="Path" stroke="#535461" stroke-width="2"></path>
                    <path d="M3.23944637,61.1480061 C7.47647059,65.243865 27.2027682,69.5383436 27.2027682,69.5383436 C27.2027682,69.5383436 22.3757785,49.9340491 18.1280277,45.8167178 C13.8788684,41.789425 7.18410846,41.9306571 3.10826419,46.1335735 C-0.967580087,50.3364898 -0.909108247,57.0384446 3.23944637,61.1694785 L3.23944637,61.1480061 Z" id="Path" fill="#292E34" fill-rule="nonzero"></path>
                    <path d="M14.400519,96.6257669 C20.1875433,97.7745399 39.0717993,90.618865 39.0717993,90.618865 C39.0717993,90.618865 24.349481,76.7906442 18.5570934,75.6418712 C12.8309883,74.6326795 7.34909831,78.3894987 6.21838078,84.0977711 C5.08766325,89.8060435 8.72285461,95.3720289 14.400519,96.6257669 Z" id="Path" fill="#292E34" fill-rule="nonzero"></path>
                    <path d="M55.0276817,135.029141 C60.6055363,133.096626 73.2629758,117.384202 73.2629758,117.384202 C73.2629758,117.384202 53.5903114,112.880368 48.0178201,114.812883 C44.2949913,115.970449 41.4970024,119.064742 40.7163918,122.887525 C39.9357812,126.710308 41.2963532,130.655291 44.2668414,133.182064 C47.2373297,135.708838 51.3466169,136.416659 54.9901384,135.029141 L55.0276817,135.029141 Z" id="Path" fill="#292E34" fill-rule="nonzero"></path>
                    <path d="M92.3027682,157.140337 C98.1273356,156.17408 113.273356,142.834356 113.273356,142.834356 C113.273356,142.834356 94.6465398,135.066718 88.8219723,136.027607 C82.9970405,136.989659 79.0542029,142.495801 80.0153981,148.32592 C80.9765934,154.15604 86.4778363,158.102389 92.3027682,157.140337 Z" id="Path" fill="#292E34" fill-rule="nonzero"></path>
                    <path d="M55.5050173,75.2983129 C55.5050173,81.2032209 44.8320069,98.3435583 44.8320069,98.3435583 C44.8320069,98.3435583 34.1375433,81.2139571 34.1321799,75.3090491 C34.0453648,71.4306364 36.0629841,67.8090641 39.4050777,65.8443397 C42.7471714,63.8796152 46.8900259,63.8796152 50.2321195,65.8443397 C53.5742132,67.8090641 55.5918324,71.4306364 55.5050173,75.3090491 L55.5050173,75.2983129 Z" id="Path" fill="#292E34" fill-rule="nonzero"></path>
                    <path d="M98.7762976,101.746933 C97.0117647,107.383436 81.699481,120.535276 81.699481,120.535276 C81.699481,120.535276 76.6150519,100.968558 78.3581315,95.3052147 C80.3045298,89.9178917 86.1453708,87.0211535 91.6070395,88.73448 C97.0687082,90.4478064 100.212757,96.163106 98.7387543,101.69862 L98.7762976,101.746933 Z" id="Path" fill="#292E34" fill-rule="nonzero"></path>
                    <path d="M137.306401,133.177147 C136.523356,139.033742 123.651384,154.585123 123.651384,154.585123 C123.651384,154.585123 115.338235,136.183282 116.142734,130.326687 C117.009388,124.54669 122.350125,120.532546 128.137588,121.311249 C133.925051,122.089953 138.017039,127.373272 137.327855,133.177147 L137.306401,133.177147 Z" id="Path" fill="#292E34" fill-rule="nonzero"></path>
                    <path d="M3.23944637,61.1480061 C7.47647059,65.243865 27.2027682,69.5383436 27.2027682,69.5383436 C27.2027682,69.5383436 22.3757785,49.9340491 18.1280277,45.8167178 C13.8788684,41.789425 7.18410846,41.9306571 3.10826419,46.1335735 C-0.967580087,50.3364898 -0.909108247,57.0384446 3.23944637,61.1694785 L3.23944637,61.1480061 Z" id="Path" fill="#000000" fill-rule="nonzero" opacity="0.25"></path>
                    <path d="M14.400519,96.6257669 C20.1875433,97.7745399 39.0717993,90.618865 39.0717993,90.618865 C39.0717993,90.618865 24.349481,76.7906442 18.5570934,75.6418712 C12.8309883,74.6326795 7.34909831,78.3894987 6.21838078,84.0977711 C5.08766325,89.8060435 8.72285461,95.3720289 14.400519,96.6257669 Z" id="Path" fill="#000000" fill-rule="nonzero" opacity="0.25"></path>
                    <path d="M55.0276817,135.029141 C60.6055363,133.096626 73.2629758,117.384202 73.2629758,117.384202 C73.2629758,117.384202 53.5903114,112.880368 48.0178201,114.812883 C44.2949913,115.970449 41.4970024,119.064742 40.7163918,122.887525 C39.9357812,126.710308 41.2963532,130.655291 44.2668414,133.182064 C47.2373297,135.708838 51.3466169,136.416659 54.9901384,135.029141 L55.0276817,135.029141 Z" id="Path" fill="#000000" fill-rule="nonzero" opacity="0.25"></path>
                    <path d="M92.3027682,157.140337 C98.1273356,156.17408 113.273356,142.834356 113.273356,142.834356 C113.273356,142.834356 94.6465398,135.066718 88.8219723,136.027607 C82.9970405,136.989659 79.0542029,142.495801 80.0153981,148.32592 C80.9765934,154.15604 86.4778363,158.102389 92.3027682,157.140337 Z" id="Path" fill="#000000" fill-rule="nonzero" opacity="0.25"></path>
                    <path d="M55.5050173,75.2983129 C55.5050173,81.2032209 44.8320069,98.3435583 44.8320069,98.3435583 C44.8320069,98.3435583 34.1375433,81.2139571 34.1321799,75.3090491 C34.0453648,71.4306364 36.0629841,67.8090641 39.4050777,65.8443397 C42.7471714,63.8796152 46.8900259,63.8796152 50.2321195,65.8443397 C53.5742132,67.8090641 55.5918324,71.4306364 55.5050173,75.3090491 L55.5050173,75.2983129 Z" id="Path" fill="#000000" fill-rule="nonzero" opacity="0.25"></path>
                    <path d="M98.7762976,101.746933 C97.0117647,107.383436 81.699481,120.535276 81.699481,120.535276 C81.699481,120.535276 76.6150519,100.968558 78.3581315,95.3052147 C80.3045298,89.9178917 86.1453708,87.0211535 91.6070395,88.73448 C97.0687082,90.4478064 100.212757,96.163106 98.7387543,101.69862 L98.7762976,101.746933 Z" id="Path" fill="#000000" fill-rule="nonzero" opacity="0.25"></path>
                    <path d="M137.306401,133.177147 C136.523356,139.033742 123.651384,154.585123 123.651384,154.585123 C123.651384,154.585123 115.338235,136.183282 116.142734,130.326687 C117.009388,124.54669 122.350125,120.532546 128.137588,121.311249 C133.925051,122.089953 138.017039,127.373272 137.327855,133.177147 L137.306401,133.177147 Z" id="Path" fill="#000000" fill-rule="nonzero" opacity="0.25"></path>
                    <path d="M136.947059,174.055215 C136.947059,174.055215 132.120069,124.035276 103.222491,97.4309816 C91.1067474,86.2653374 82.6863322,71.6641104 79.6775087,55.4309816 C78.2651837,47.7369442 77.5614242,39.9293977 77.5748914,32.1065951" id="Path" stroke="#535461" stroke-width="2"></path>
                    <path d="M59.4738754,15.2346626 C61.683564,20.7154908 77.9934256,32.6058282 77.9934256,32.6058282 C77.9934256,32.6058282 81.5064014,12.7170245 79.3020761,7.23619632 C77.0953258,1.75146676 70.8641056,-0.904267373 65.3842561,1.30444806 C59.9044067,3.5131635 57.2510354,9.74993293 59.4577855,15.2346626 L59.4738754,15.2346626 Z" id="Path" fill="#292E34" fill-rule="nonzero"></path>
                    <path d="M55.2958478,52.1940184 C60.1228374,55.5920245 80.2728374,56.7032209 80.2728374,56.7032209 C80.2728374,56.7032209 72.4584775,38.0973926 67.6314879,34.6993865 C62.8047772,31.2899599 56.1305279,32.4423804 52.7241349,37.2733896 C49.317742,42.1043988 50.469137,48.7845918 55.2958478,52.1940184 Z" id="Path" fill="#292E34" fill-rule="nonzero"></path>
                    <path d="M76.9153979,103.770706 C82.8150519,104.269939 100.75,95.0421779 100.75,95.0421779 C100.75,95.0421779 84.5903114,82.9478528 78.7067474,82.4539877 C74.8532129,82.0433395 71.0794428,83.7524181 68.8438738,86.9207216 C66.6083047,90.089025 66.2611384,94.2202388 67.9365429,97.7177864 C69.6119475,101.215334 73.0474709,103.531325 76.9153979,103.770706 Z" id="Path" fill="#292E34" fill-rule="nonzero"></path>
                    <path d="M102.037197,139.114264 C107.754498,140.595859 127.00346,134.540644 127.00346,134.540644 C127.00346,134.540644 113.11782,119.885736 107.405882,118.404141 C101.732958,117.028544 96.0064636,120.462233 94.5418937,126.117576 C93.0773238,131.772918 96.4162978,137.558485 102.042561,139.114264 L102.037197,139.114264 Z" id="Path" fill="#292E34" fill-rule="nonzero"></path>
                    <path d="M101.527682,49.3703988 C99.1410035,54.7707055 82.4396194,66.1027607 82.4396194,66.1027607 C82.4396194,66.1027607 79.5970588,46.1119632 81.983737,40.7062883 C83.4881656,37.1466749 86.7938258,34.6759524 90.6310856,34.2430715 C94.4683454,33.8101907 98.2405448,35.4824607 100.498864,38.617599 C102.757183,41.7527374 103.150474,45.8632577 101.527682,49.3703988 Z" id="Path" fill="#292E34" fill-rule="nonzero"></path>
                    <path d="M130.382353,91.0697853 C126.488581,95.5092025 107.164533,101.322853 107.164533,101.322853 C107.164533,101.322853 110.425433,81.3964724 114.324567,76.9570552 C116.843321,74.0860535 120.701043,72.778074 124.444568,73.5258201 C128.188093,74.2735662 131.248689,76.9634375 132.473461,80.5821853 C133.698232,84.2009331 132.901106,88.1987837 130.382353,91.0697853 Z" id="Path" fill="#292E34" fill-rule="nonzero"></path>
                    <path d="M152.908304,135.458589 C149.819031,140.493865 131.755363,149.490798 131.755363,149.490798 C131.755363,149.490798 131.60519,129.296012 134.694464,124.260736 C137.783914,119.220714 144.370518,117.641694 149.406055,120.733896 C154.441593,123.826097 156.019208,130.418567 152.929758,135.458589 L152.908304,135.458589 Z" id="Path" fill="#292E34" fill-rule="nonzero"></path>
                </g>
                <ellipse id="Oval" fill="#292E34" fill-rule="nonzero" opacity="0.1" cx="220" cy="481.5" rx="60" ry="7.5"></ellipse>
                <g id="5cfdbbb0-8197-4f02-a5fd-2740d54b5dec" transform="translate(79.000000, 446.000000)" fill-rule="nonzero">
                    <ellipse id="Oval" fill="#292E34" opacity="0.1" cx="19.8203455" cy="34.3995402" rx="18.2080614" ry="3.06666667"></ellipse>
                    <path d="M23.7758157,0.253793103 C23.7758157,0.253793103 26.7262956,4.0554023 22.4107486,9.77103448 C18.0952015,15.4866667 14.537428,20.3457471 15.9616123,23.9252874 C15.9616123,23.9252874 22.4698656,13.2712644 27.7850288,13.1232184 C33.1001919,12.9751724 29.6122841,6.66206897 23.7758157,0.253793103 Z" id="Path" fill="#292E34"></path>
                    <path d="M23.7758157,0.253793103 C24.0335444,0.621716698 24.2362518,1.02413548 24.3777351,1.44873563 C29.5477927,7.42344828 32.3047985,13.0016092 27.3335893,13.1390805 C22.706334,13.2712644 17.1493282,21.4137931 15.821881,23.4705747 C15.865718,23.6299228 15.9177361,23.7869825 15.9777351,23.9411494 C15.9777351,23.9411494 22.4859885,13.2871264 27.8011516,13.1390805 C33.1163148,12.9910345 29.6122841,6.66206897 23.7758157,0.253793103 Z" id="Path" fill="#000000" opacity="0.1"></path>
                    <path d="M29.2629559,5.09701149 C29.2629559,6.43471264 29.112476,7.51862069 28.9243762,7.51862069 C28.7362764,7.51862069 28.5804223,6.46114943 28.5804223,5.09701149 C28.5804223,3.73287356 28.7738964,4.38850575 28.9619962,4.38850575 C29.150096,4.38850575 29.2629559,3.75931034 29.2629559,5.09701149 Z" id="Path" fill="#FFD037"></path>
                    <path d="M31.1493282,6.6937931 C29.956238,7.33356322 28.9136276,7.71954023 28.8222649,7.55563218 C28.7309021,7.39172414 29.6284069,6.74137931 30.8214971,6.1016092 C32.0145873,5.46183908 31.5416507,5.92712644 31.6330134,6.1016092 C31.7243762,6.27609195 32.3424184,6.05402299 31.1493282,6.6937931 Z" id="Path" fill="#FFD037"></path>
                    <path d="M8.17965451,0.253793103 C8.17965451,0.253793103 5.22917466,4.0554023 9.54472169,9.77103448 C13.8602687,15.4866667 17.4180422,20.3457471 15.993858,23.9252874 C15.993858,23.9252874 9.48560461,13.2712644 4.17044146,13.1232184 C-1.14472169,12.9751724 2.35393474,6.66206897 8.17965451,0.253793103 Z" id="Path" fill="#292E34"></path>
                    <path d="M8.17965451,0.253793103 C7.92192584,0.621716698 7.71921846,1.02413548 7.57773512,1.44873563 C2.40767754,7.42344828 -0.349328215,13.0016092 4.621881,13.1390805 C9.25451056,13.2712644 14.806142,21.4137931 16.1335893,23.4705747 C16.0922009,23.6306308 16.0401367,23.7878296 15.9777351,23.9411494 C15.9777351,23.9411494 9.46948177,13.2871264 4.15431862,13.1390805 C-1.16084453,12.9910345 2.35393474,6.66206897 8.17965451,0.253793103 Z" id="Path" fill="#000000" opacity="0.1"></path>
                    <path d="M2.6925144,5.09701149 C2.6925144,6.43471264 2.84299424,7.51862069 3.03109405,7.51862069 C3.21919386,7.51862069 3.37504798,6.46114943 3.37504798,5.09701149 C3.37504798,3.73287356 3.1815739,4.38850575 2.99347409,4.38850575 C2.80537428,4.38850575 2.6925144,3.75931034 2.6925144,5.09701149 Z" id="Path" fill="#FFD037"></path>
                    <path d="M0.811516315,6.6937931 C2.00460653,7.33356322 3.04184261,7.71954023 3.13320537,7.55563218 C3.22456814,7.39172414 2.32706334,6.74137931 1.13397313,6.1016092 C-0.0591170825,5.46183908 0.413819578,5.92712644 0.322456814,6.1016092 C0.23109405,6.27609195 -0.381573896,6.05402299 0.811516315,6.6937931 Z" id="Path" fill="#FFD037"></path>
                    <path d="M3.63301344,23.4441379 C3.63301344,23.4441379 11.8879079,23.1903448 14.3815739,21.4508046 C16.8752399,19.7112644 27.0756238,17.6227586 27.693666,20.4197701 C28.3117083,23.2167816 40.0975048,34.3202299 30.7785029,34.3942529 C21.459501,34.4682759 9.12552783,32.9666667 6.64261036,31.4809195 C4.1596929,29.9951724 3.63301344,23.4441379 3.63301344,23.4441379 Z" id="Path" fill="#A8A8A8"></path>
                    <path d="M30.9397313,33.4213793 C21.6207294,33.4954023 9.28675624,31.9937931 6.80383877,30.508046 C4.91209213,29.3712644 4.1596929,25.3052874 3.90710173,23.4335632 L3.63301344,23.4335632 C3.63301344,23.4335632 4.17044146,29.9793103 6.63723608,31.4703448 C9.10403071,32.9613793 21.4541267,34.4577011 30.7731286,34.3836782 C33.4602687,34.3836782 34.3953935,33.4213793 34.3416507,32.0255172 C33.9708253,32.882069 32.9443378,33.4055172 30.9397313,33.4213793 Z" id="Path" fill="#000000" opacity="0.2"></path>
                    <path d="M279.301344,23.1321839 C279.301344,23.1321839 256.578887,21.783908 259.260653,37.4503448 C259.260653,37.4503448 258.723225,40.2156322 261.276008,41.474023 C261.276008,41.474023 261.319002,40.316092 263.608445,40.7073563 C264.4231,40.8423408 265.251197,40.8813898 266.07524,40.8236782 C267.191425,40.7513494 268.252575,40.3203793 269.095585,39.5970115 C269.095585,39.5970115 275.48023,37.0062069 277.963148,26.7328736 C277.963148,26.7328736 279.801152,24.4910345 279.731286,23.9147126 L275.89405,25.5009195 C275.89405,25.5009195 277.205374,28.223908 276.173512,30.4868966 C276.173512,30.4868966 276.049904,25.6013793 275.313628,25.7282759 C275.163148,25.7282759 273.31977,26.6694253 273.31977,26.6694253 C273.31977,26.6694253 275.576967,31.428046 273.857198,34.8542529 C273.857198,34.8542529 274.502111,29.0381609 272.599616,27.0131034 L269.912476,28.5622989 C269.912476,28.5622989 272.545873,33.4583908 270.761612,37.4556322 C270.761612,37.4556322 271.218426,31.3275862 269.348177,28.9377011 L266.902879,30.8147126 C266.902879,30.8147126 269.375048,35.642069 267.864875,38.9572414 C267.864875,38.9572414 267.671401,31.8245977 266.370825,31.2852874 C266.370825,31.2852874 264.221113,33.1411494 263.904031,33.9289655 C263.904031,33.9289655 265.596929,37.4291954 264.548944,39.2797701 C264.548944,39.2797701 263.904031,34.5211494 263.371977,34.5211494 C263.371977,34.5211494 261.222265,37.6935632 261.018042,39.8085057 C261.018042,39.8085057 261.114779,36.5990805 262.856046,34.1986207 C261.62685,34.4289974 260.492937,35.0079193 259.593858,35.8641379 C259.593858,35.8641379 259.927063,33.6381609 263.355854,33.4425287 C263.355854,33.4425287 265.118618,31.0526437 265.591555,30.9098851 C265.591555,30.9098851 262.152015,30.6243678 260.066795,31.5337931 C260.066795,31.5337931 261.899424,29.4188506 266.220345,30.3864368 L268.633397,28.4512644 C268.633397,28.4512644 264.108253,27.837931 262.184261,28.5147126 C262.184261,28.5147126 264.398464,26.6535632 269.283685,27.985977 L271.917083,26.442069 C271.917083,26.442069 268.052975,25.6225287 265.752783,25.9133333 C265.752783,25.9133333 268.181958,24.6232184 272.685605,26.0190805 L274.566603,25.1889655 C274.566603,25.1889655 271.734357,24.6602299 270.906718,24.5597701 C270.079079,24.4593103 270.036084,24.2478161 270.036084,24.2478161 C271.828369,23.953837 273.668422,24.155184 275.351248,24.8294253 C275.351248,24.8294253 279.371209,23.3806897 279.301344,23.1321839 Z" id="Path" fill="#292E34"></path>
                    <ellipse id="Oval" fill="#292E34" opacity="0.1" cx="263.65144" cy="42.8381609" rx="16.0798464" ry="2.6754023"></ellipse>
                    <path d="M239.49405,23.9675862 C239.49405,23.9675862 226.681766,23.2062069 228.208061,32.0413793 C228.049988,32.9602163 228.509503,33.8750433 229.347409,34.3096552 C229.347409,34.3096552 229.347409,33.654023 230.664107,33.876092 C231.122286,33.9494159 231.587322,33.972469 232.050672,33.9448276 C232.679348,33.8996161 233.276604,33.6567924 233.754319,33.2521839 C233.754319,33.2521839 237.355086,31.7875862 238.757774,25.997931 C238.757774,25.997931 239.789635,24.7342529 239.752015,24.4117241 L237.602303,25.3158621 C237.602303,25.3158621 238.33858,26.8544828 237.758157,28.1287356 C237.758157,28.1287356 237.688292,25.374023 237.274472,25.4374713 C237.188484,25.4374713 236.151248,25.9662069 236.151248,25.9662069 C236.151248,25.9662069 237.419578,28.6098851 236.462956,30.582069 C236.462956,30.582069 236.823033,27.288046 235.753551,26.1565517 L234.23263,27.0342529 C234.23263,27.0342529 235.715931,29.7942529 234.71094,32.0466667 C234.71094,32.0466667 234.968906,28.5887356 233.910173,27.2457471 L232.534357,28.3032184 C232.534357,28.3032184 233.926296,31.0262069 233.071785,32.8926437 C233.071785,32.8926437 232.958925,28.8689655 232.228023,28.5675862 C231.704719,29.0017144 231.237278,29.4971074 230.836084,30.0427586 C230.836084,30.0427586 231.792706,32.0202299 231.201536,33.0618391 C231.201536,33.0618391 230.836084,30.3811494 230.540499,30.3705747 C230.540499,30.3705747 229.33666,32.1471264 229.213052,33.3632184 C229.267524,32.2348858 229.623442,31.1406318 230.244914,30.1908046 C229.552567,30.3196761 228.913662,30.6449895 228.40691,31.1266667 C228.40691,31.1266667 228.59501,29.8682759 230.556622,29.7625287 C230.556622,29.7625287 231.545489,28.4142529 231.814203,28.3349425 C231.814203,28.3349425 229.874088,28.1710345 228.697121,28.683908 C228.697121,28.683908 229.734357,27.4995402 232.168906,28.0388506 L233.528599,26.9443678 C233.528599,26.9443678 230.975816,26.6006897 229.895585,26.9813793 C229.895585,26.9813793 231.142418,25.923908 233.899424,26.6958621 L235.377351,25.8287356 C234.238333,25.5804338 233.071024,25.4808796 231.905566,25.5326437 C231.905566,25.5326437 233.276008,24.8082759 235.812668,25.5908046 L236.887524,25.1255172 C236.887524,25.1255172 235.27524,24.8135632 234.829175,24.765977 C234.383109,24.7183908 234.334741,24.5914943 234.334741,24.5914943 C235.345942,24.426016 236.383974,24.5394874 237.333589,24.9193103 C237.333589,24.9193103 239.53167,24.1103448 239.49405,23.9675862 Z" id="Path" fill="#292E34"></path>
                    <ellipse id="Oval" fill="#292E34" opacity="0.1" cx="230.669482" cy="35.0816092" rx="9.06641075" ry="1.50689655"></ellipse>
                    <path d="M263.877159,5.24505747 C263.877159,5.24505747 248.415355,4.32505747 250.237236,14.9896552 C250.04526,16.0992988 250.60046,17.2045416 251.613052,17.7285057 C251.613052,17.7285057 251.613052,16.9406897 253.198464,17.1997701 C253.75272,17.2868331 254.315051,17.3134309 254.87524,17.2790805 C255.634802,17.2255634 256.356604,16.9326128 256.933589,16.4436782 C256.933589,16.4436782 261.281382,14.6777011 262.968906,7.68252874 C262.968906,7.68252874 264.221113,6.15977011 264.172745,5.76850575 L261.560845,6.86298851 C261.560845,6.86298851 262.452975,8.71885057 261.754319,10.2574713 C261.754319,10.2574713 261.66833,6.93172414 261.163148,7.01103448 C261.066411,7.01103448 259.808829,7.6508046 259.808829,7.6508046 C259.808829,7.6508046 261.345873,10.8813793 260.185029,13.2236782 C260.185029,13.2236782 260.62572,9.24758621 259.330518,7.88344828 L257.492514,8.94091954 C257.492514,8.94091954 259.287524,12.271954 258.072937,14.9949425 C258.072937,14.9949425 258.384645,10.8232184 257.105566,9.17885057 L255.439539,10.4531034 C255.439539,10.4531034 257.127063,13.7365517 256.100576,15.9942529 C256.100576,15.9942529 255.966219,11.1404598 255.079463,10.7703448 C255.079463,10.7703448 253.623033,12.034023 253.402687,12.5521839 C253.402687,12.5521839 254.558157,14.9367816 253.838004,16.1951724 C253.838004,16.1951724 253.402687,12.9645977 253.04261,12.9487356 C253.04261,12.9487356 251.591555,15.0636782 251.430326,16.56 C251.499662,15.2021694 251.929559,13.8859378 252.677159,12.7425287 C251.84108,12.8989716 251.069641,13.292235 250.457582,13.874023 C250.457582,13.874023 250.683301,12.3565517 253.037236,12.2243678 C253.037236,12.2243678 254.235701,10.6011494 254.558157,10.5006897 C254.558157,10.5006897 252.214971,10.3103448 250.796161,10.9289655 C250.796161,10.9289655 252.042994,9.49609195 254.9881,10.1464368 L256.63263,8.82988506 C256.63263,8.82988506 253.547793,8.41218391 252.241843,8.87218391 C252.241843,8.87218391 253.746641,7.60850575 257.078695,8.52850575 L258.86833,7.47103448 C258.86833,7.47103448 256.240307,6.94229885 254.676392,7.11678161 C254.676392,7.11678161 256.326296,6.23908046 259.39501,7.18551724 L260.674088,6.62505747 C260.674088,6.62505747 258.744722,6.24965517 258.180422,6.19149425 C257.616123,6.13333333 257.589251,5.98 257.589251,5.98 C258.808951,5.78031799 260.061049,5.91759657 261.206142,6.37655172 C261.206142,6.37655172 263.930902,5.41425287 263.877159,5.24505747 Z" id="Path" fill="#292E34"></path>
                    <ellipse id="Oval" fill="#292E34" opacity="0.1" cx="253.23071" cy="18.6590805" rx="10.9474088" ry="1.81885057"></ellipse>
                </g>
                <g id="1cf578eb-5ffb-4cd7-95b8-45aaaddab7e0" transform="translate(73.000000, 83.000000)" fill-rule="nonzero">
                    <path d="M512.51553,263.062153 L512.51553,0.290100604 L0.403725079,0.290100604 L0.403725079,247.987666 C6.94407135,253.435111 14.8086359,258.017626 23.0123295,261.783561 C27.0531689,263.642354 31.1801364,265.341771 35.3932319,266.881811 L506.405824,266.881811 L512.51553,263.062153 Z" id="Path" fill="url(#linearGradient-1)"></path>
                    <path d="M511.525058,263.169598 L511.525058,7.81122736 L1.5233893,7.81122736 L1.5233893,248.541006 C8.03682057,253.838028 15.8690871,258.29161 24.0243337,261.97159 C28.0508185,263.762334 32.1634313,265.4134 36.3621721,266.924789 L505.426118,266.924789 L511.525058,263.169598 Z" id="Path" fill="#FFFFFF"></path>
                    <rect id="Rectangle" fill="#5A5773" x="1.5287723" y="1.03684105" width="509.996285" height="13.5057948"></rect>
                </g>
                <g id="6703b009-63cb-4af0-a0d7-9948e224c180" transform="translate(81.000000, 87.000000)" fill="#FFFFFF" fill-rule="nonzero">
                    <ellipse id="Oval" cx="3.72489796" cy="3.5" rx="3.58163265" ry="3.5"></ellipse>
                    <ellipse id="Oval" cx="13.3677551" cy="3.5" rx="3.58163265" ry="3.5"></ellipse>
                    <ellipse id="Oval" cx="23.0106122" cy="3.5" rx="3.58163265" ry="3.5"></ellipse>
                </g>
                <g id="8c4e1fb4-b9ff-4530-b767-610e84618ea6" transform="translate(88.000000, 127.000000)" fill-rule="nonzero">
                    <rect id="Rectangle" fill="#292E34" x="116.734518" y="0.172631579" width="84.2081218" height="53.0518421"></rect>
                    <rect id="Rectangle" fill="#5A5773" opacity="0.2" x="0.139898477" y="0.172631579" width="84.2081218" height="53.0518421"></rect>
                    <rect id="Rectangle" fill="#5A5773" opacity="0.2" x="233.329137" y="0.172631579" width="84.2081218" height="53.0518421"></rect>
                    <rect id="Rectangle" fill="#5A5773" opacity="0.2" x="0.139898477" y="76.0172368" width="84.2081218" height="53.0518421"></rect>
                    <rect id="Rectangle" fill="#5A5773" opacity="0.2" x="116.734518" y="76.0172368" width="84.2081218" height="53.0518421"></rect>
                    <rect id="Rectangle" fill="#5A5773" opacity="0.2" x="233.329137" y="76.0172368" width="84.2081218" height="53.0518421"></rect>
                    <rect id="Rectangle" fill="#5A5773" opacity="0.2" x="0.139898477" y="151.856447" width="84.2081218" height="53.0518421"></rect>
                    <rect id="Rectangle" fill="#5A5773" opacity="0.2" x="116.734518" y="151.856447" width="84.2081218" height="53.0518421"></rect>
                    <rect id="Rectangle" fill="#5A5773" opacity="0.2" x="233.329137" y="151.856447" width="84.2081218" height="53.0518421"></rect>
                </g>
                <g id="2796dd85-6618-42ad-b8a0-d6b4cc80ab2d" transform="translate(185.000000, 139.000000)" fill-rule="nonzero">
                    <path d="M88.7436872,119.72275 C88.7436872,119.72275 73.667933,92.106 76.2100559,87.6125 C78.7521788,83.119 80.6239106,76.61525 80.6239106,76.61525 C80.6239106,76.61525 86.190838,72.799 86.190838,71.24025 C86.190838,69.6815 90.5993296,66.074875 92.9215642,64.505375 C95.2437989,62.935875 94.08,55.52375 92.9215642,54.626125 C91.7631285,53.7285 89.9235754,50.584125 89.9235754,50.584125 C89.9235754,50.584125 91.532514,46.096 89.9235754,44.746875 C88.3146369,43.39775 90.1595531,42.059375 89.9235754,40.704875 C89.6875978,39.350375 89.9235754,34.4215 89.9235754,34.4215 C88.0411173,31.7985 85.9548603,30.573 83.9919553,30.1215 L83.8203352,29.412 L82.8281564,25.224875 C82.8281564,25.224875 87.6549721,15.953 79.8248045,11.099375 C79.2709474,10.751873 78.6918975,10.4464352 78.092514,10.185625 C78.092514,10.185625 78.092514,9.959875 78.0496089,9.57825 C77.9423464,8.1915 77.6151955,4.74075 76.9126257,2.477875 C76.5050279,1.177125 75.9740782,0.301 75.3036872,0.499875 C75.1390618,0.547661006 74.988259,0.634288073 74.8639106,0.7525 C74.5448221,1.04227315 74.2653111,1.37300693 74.0326257,1.736125 C74.0326257,1.736125 74.0326257,1.736125 74.0326257,1.736125 C74.0233387,1.75771412 74.0106645,1.77767479 73.9950838,1.79525 C73.1060537,3.39452848 72.4829206,5.12827675 72.1501676,6.928375 C71.9123459,7.99267041 71.7333028,9.06930697 71.6138547,10.153375 C71.2746674,10.7989885 70.9755516,11.4649622 70.7182123,12.1475 C69.7689385,14.614625 68.6587709,18.88775 70.6806704,22.04825 C72.3968715,24.73575 74.7083799,28.428375 76.3870391,31.115875 L76.4406704,31.201875 L76.5425698,31.3685 L76.3655866,31.481375 L76.3655866,31.89525 L76.5211173,34.158125 L77.8189944,53.712375 C77.4288381,53.5990314 77.0308936,53.5145954 76.6283799,53.45975 C76.0548993,53.3756761 75.4756043,53.3379296 74.8960894,53.346875 C73.7644693,48.891 70.6592179,44.746875 70.0692737,40.092125 C70.0122048,39.626626 69.981764,39.1582352 69.9781006,38.68925 C70.0263687,35.759875 70.7557542,32.81975 70.6967598,29.89575 C70.6967598,29.35825 70.6967598,28.82075 70.6431285,28.28325 C70.6431285,28.138125 70.6163128,27.987625 70.6002235,27.837125 C70.0043136,23.5182655 67.3215479,19.7717766 63.4297207,17.8235 C62.0835754,17.151625 60.6248045,16.7055 59.3162011,15.969125 C56.2913966,14.270625 54.3553073,11.206875 51.6093855,9.10525 C49.5660335,7.541125 46.5144134,6.702625 44.2350838,7.49275 C43.0266917,7.67529449 41.828981,7.92290277 40.6471508,8.2345 C37.7662883,8.99001618 35.003241,10.1403676 32.4362011,11.653 C32.0875978,11.862625 31.7389944,12.077625 31.4064804,12.324875 C30.6804547,12.7997092 30.1053638,13.4730664 29.7492737,14.26525 C29.5187606,14.9365545 29.4310686,15.648798 29.4918436,16.356125 C29.4918436,16.86675 29.4918436,17.388125 29.5240223,17.89875 C29.3738547,26.49875 20.1278212,33.153 19.366257,41.54875 C19.366257,41.747625 19.3340782,41.9465 19.323352,42.145375 C19.323352,42.2045 19.323352,42.263625 19.323352,42.328125 C19.323352,42.57 19.323352,42.81725 19.323352,43.0645 C19.323352,43.177375 19.323352,43.284875 19.323352,43.39775 C19.323352,43.510625 19.323352,43.6235 19.323352,43.736375 C19.4574302,47.41825 21.3667039,50.8475 21.7153073,54.51325 C21.747486,54.841125 21.7635754,55.163625 21.7689385,55.4915 C21.7096472,57.1756233 21.3893962,58.8402627 20.8196648,60.42575 C19.6574459,60.7361834 18.5385777,61.1912219 17.489162,61.78025 C14.6788827,63.591625 9.60536313,66.719875 7.7550838,72.70225 C7.27930654,74.2553845 7.04239868,75.8720989 7.05251397,77.49675 C7.02123176,83.2376539 6.49728946,88.9652226 5.48648045,94.616125 C5.25259036,96.0396923 4.92289947,97.4457759 4.4996648,98.82475 C4.45984417,98.9588732 4.44887633,99.0999387 4.46748603,99.238625 L3.35195531,113.751125 L3.15351955,116.30425 L2.87463687,119.93775 C2.87463687,119.93775 2.9550838,120.158125 3.07307263,120.529 C3.24787992,121.080183 3.39466092,121.639903 3.51284916,122.206 C3.82470129,123.435989 3.87404454,124.718091 3.65765363,125.9685 C3.54743633,126.49978 3.27354892,126.982964 2.87463687,127.349875 C2.84032918,127.38019 2.80972493,127.41447 2.78346369,127.452 C2.46703911,127.898125 2.1827933,129.22575 1.93608939,131.15 C1.83955307,131.9025 1.74837989,132.7625 1.6572067,133.65475 C1.12089385,139.379125 0.788379888,147.946875 0.584581006,155.031125 C0.39150838,162.018625 0.321787709,167.53875 0.321787709,167.53875 C1.2248496,168.122777 2.19100713,168.602417 3.20178771,168.9685 C3.12670391,169.156625 3.04625698,169.350125 2.97117318,169.554375 C2.05937066,171.926038 1.47126463,174.410229 1.2227933,176.939625 C0.772290503,182.22325 2.24715084,188.09275 9.6,191.1135 C10.0697846,191.30925 10.551679,191.474427 11.0426816,191.608 C12.6516201,192.038 13.8368715,191.91975 14.7110615,191.38225 C14.7110615,191.699375 14.7486034,192.00575 14.7646927,192.312125 C14.8397765,193.623625 14.9041341,194.82225 14.9363128,195.827375 C15.1669274,202.116125 16.7222346,213.113375 16.7222346,213.113375 C16.7222346,213.113375 17.2585475,217.606875 16.7919553,218.950625 C16.3253631,220.294375 16.7919553,225.6855 16.7919553,225.6855 C16.7919553,225.6855 18.4008939,228.373 16.7919553,229.7275 C15.1830168,231.082 14.7056983,237.79 15.1830168,238.709125 C15.1978904,238.741317 15.2069686,238.775891 15.2098324,238.81125 C15.5637989,241.041875 13.563352,274.184125 13.563352,274.184125 C13.563352,274.184125 11.6701676,279.258125 10.1631285,284.525625 C8.69363128,289.653375 7.58882682,294.963875 8.95106145,295.95825 C9.62681564,296.45275 11.1982123,296.823625 13.1932961,297.1085 C13.1932961,297.328875 13.1611173,297.54925 13.1396648,297.775 C12.9465922,300.145375 12.6408939,302.6985 12.2011173,303.3435 C11.562905,304.25725 10.892514,311.3415 10.5653631,315.1685 L10.5331844,315.593125 C9.84615098,317.225947 9.26921262,318.903131 8.80625698,320.613375 C8.80625698,320.613375 3.67374302,333.513375 5.41139665,336.862 C5.57322509,337.16288 5.78966902,337.430844 6.04960894,337.652125 C6.10106675,337.706519 6.15665207,337.756837 6.21586592,337.802625 C8.68826816,339.786 14.8826816,340.199875 17.1298324,340.29125 L17.0440223,343.484 L17.0440223,343.60225 L19.9669274,343.60225 L19.9669274,343.521625 C19.9669274,343.1185 20.0312849,341.2695 20.1278212,338.797 C20.1278212,338.35625 20.16,337.894 20.1814525,337.421 C20.1814525,337.050125 20.2189944,336.673875 20.2350838,336.286875 C21.0961733,333.993886 21.5270943,331.561172 21.5061453,329.11125 C21.5092317,326.299795 21.888018,323.501419 22.6324022,320.79075 C23.0000171,319.3945 23.4973873,318.035852 24.1179888,316.732625 C24.1179888,316.732625 25.0297207,311.895125 23.7586592,308.47125 C23.5163301,307.7914 23.1528989,307.161273 22.6860335,306.6115 C22.6860335,306.498625 22.6860335,306.38575 22.6860335,306.2675 C22.6860335,306.14925 22.6860335,306.0095 22.6860335,305.875125 C22.6860335,305.74075 22.6860335,305.65475 22.6860335,305.5365 C22.6574244,303.2211 22.8876868,300.909773 23.372514,298.64575 C23.3699929,298.609961 23.3699929,298.574039 23.372514,298.53825 C23.415419,298.350125 23.4636872,298.17275 23.5119553,298.00075 L23.5441341,297.8825 L24.4934078,297.91475 C27.4055866,297.995375 29.5454749,297.995375 29.5454749,297.995375 C29.5454749,297.995375 31.8677095,286.095125 31.637095,280.935125 C31.637095,280.709375 31.637095,280.472875 31.637095,280.236375 C31.556648,275.108625 33.0422346,268.13725 33.0422346,268.13725 L34.9139665,249.942875 C34.9139665,249.942875 33.9861453,246.793125 34.9139665,244.567875 C35.4878212,243.181125 36.6730726,240.6065 37.4989944,238.83275 C37.8851397,238.010375 38.190838,237.365375 38.3195531,237.085875 L38.3946369,236.935375 C38.1021613,236.83491 37.8243952,236.695719 37.5687151,236.5215 C36.812514,236.01625 36.1367598,235.02725 38.4,233.570625 C41.8806704,231.323875 40.7222346,225.712375 40.7222346,225.712375 C40.7222346,225.712375 39.6978771,223.691375 40.904581,221.896125 C42.1112849,220.100875 40.904581,213.366 40.904581,213.366 C41.89871,211.585544 42.6971264,209.702228 43.2858101,207.749125 C44.1492737,205.061625 46.332067,191.91975 47.3617877,185.582625 C47.6996648,183.5025 47.8981006,182.15875 47.8981006,182.15875 L47.9302793,182.486625 L47.9624581,182.841375 L48.252067,185.83525 L48.2896089,186.233 L48.8259218,191.892875 C48.8259218,191.892875 49.8985475,206.770875 49.2281564,212.60275 C49.2281564,212.640375 49.2281564,212.678 49.2281564,212.71025 C49.1758638,213.314406 49.0442239,213.909 48.836648,214.478625 C47.6031285,217.273625 47.8283799,228.378375 47.8927374,230.83475 C47.8927374,231.033625 47.8927374,231.194875 47.8927374,231.32925 C47.8927374,231.463625 47.0185475,233.52225 47.2384358,235.124 C47.2829882,235.529904 47.428686,235.91806 47.6621229,236.25275 C47.983318,236.775515 48.1281099,237.388002 48.0750838,237.999625 L48.0750838,238.053375 C48.0694149,238.31245 48.0479221,238.570933 48.0107263,238.827375 C47.848056,239.867699 47.5747681,240.887589 47.1955307,241.869625 C47.1955307,241.869625 45.9512849,245.148375 46.4232402,246.863 C46.4232402,246.863 46.4232402,246.863 46.4232402,246.863 C46.4799344,247.0853 46.5842506,247.29256 46.7289385,247.470375 C46.8378049,247.668401 46.8984466,247.889405 46.9059218,248.115375 C46.9033961,248.135002 46.9033961,248.154873 46.9059218,248.1745 C47.3403352,251.791875 46.2194413,267.761 45.5544134,276.50075 C45.286257,279.9515 45.0931844,282.2735 45.0931844,282.2735 L43.2536313,301.35475 L43.4359777,301.48375 C43.6451397,301.63425 44.036648,301.89225 44.5622346,302.204 C44.5622346,302.204 44.5622346,302.204 44.5622346,302.247 L44.4817877,302.822125 C44.2189944,304.660375 43.8650279,306.799625 43.4788827,308.433625 C43.4467039,308.55725 43.4198883,308.6755 43.3877095,308.788375 C42.6838987,308.911581 42.0135065,309.180697 41.4194413,309.5785 C37.5150838,316.528375 39.2420112,322.03775 41.4194413,323.6395 C42.0362011,324.091 42.4545251,325.354125 42.7334078,326.923625 L43.2697207,333.852 C43.2697207,334.1315 43.2697207,334.3895 43.2697207,334.6475 C43.2704487,334.862951 43.3048316,335.076959 43.3716201,335.28175 L43.5378771,337.383375 L43.7631285,340.307375 L45.5436872,340.307375 L45.5436872,336.76525 L45.6402235,336.76525 C48.4505028,336.862 52.9823464,336.98025 54.9559777,336.824375 L55.0096089,336.824375 C55.2187709,336.824375 55.3957542,336.78675 55.5459218,336.76525 C55.6526745,336.749187 55.7571118,336.720313 55.8569832,336.67925 C56.9027933,336.174 59.5092737,328.76725 57.1602235,327.084875 C54.8111732,325.4025 54.2909497,320.634875 54.2909497,320.634875 C54.0871508,320.011375 53.883352,319.420125 53.6741899,318.85575 C53.6741899,318.732125 53.6741899,318.613875 53.6741899,318.49025 C53.6098324,316.184375 53.636648,313.685 53.9530726,312.3305 C54.3070391,310.841625 54.4893855,307.713375 54.5644693,304.972125 C54.5644693,304.7625 54.5644693,304.55825 54.5644693,304.354 L54.5644693,304.2895 C54.9716367,304.186356 55.3712397,304.055255 55.7604469,303.897125 L55.846257,303.8595 C56.5646464,303.558103 57.2378714,303.158339 57.8467039,302.671625 L64.4111732,273.517625 L65.1030168,270.126 L69.0449162,250.835125 C69.0449162,250.835125 67.6558659,244.10025 69.0449162,242.98225 C69.5544134,242.57375 69.6938547,240.83225 69.661676,238.816625 C69.6080447,235.290625 69.0449162,230.85625 69.0449162,230.85625 C69.0449162,230.85625 70.9005587,227.937625 71.833743,226.142375 C72.7669274,224.347125 71.833743,219.63325 71.833743,219.63325 L73.6625698,208.84025 C73.6625698,208.84025 75.7541899,196.042375 80.8545251,185.2655 C84.6087151,177.337375 82.2167598,155.92875 79.7818994,144.53375 C79.7175419,144.238125 79.6531844,143.947875 79.5888268,143.668375 L79.5888268,143.625375 C80.7365363,143.055625 82.141676,142.367625 83.643352,141.647375 L84.2118436,141.378625 C86.1157542,140.481 88.1322905,139.5565 89.9396648,138.787875 L90.0576536,138.7395 C91.3585305,138.170919 92.6886799,137.67213 94.0424581,137.24525 C94.4413042,137.123012 94.8506854,137.038436 95.2652514,136.992625 C98.4884916,136.783 88.7436872,119.72275 88.7436872,119.72275 Z M16.1751955,156.245875 L17.1405587,156.245875 C17.027933,156.4555 16.9206704,156.6705 16.8134078,156.8855 C16.7490503,157.0145 16.6846927,157.138125 16.6256983,157.267125 C16.2717318,158.0035 15.944581,158.756 15.6764246,159.492375 C15.7836872,158.696875 15.9177654,157.8315 16.067933,156.907 C16.1054749,156.70275 16.1430168,156.460875 16.1751955,156.245875 Z M13.5687151,170.2585 C13.5710879,170.233473 13.5710879,170.208277 13.5687151,170.18325 L13.4882682,169.930625 C13.4292737,169.758625 13.3756425,169.586625 13.3220112,169.393125 C13.6545251,169.292792 13.9924022,169.179917 14.3356425,169.0545 L14.4053631,169.0545 C14.4053631,169.113625 14.4053631,169.17275 14.4053631,169.231875 C14.3785475,169.4845 14.3463687,169.737125 14.3141899,169.984375 C14.3170919,170.016559 14.3170919,170.048941 14.3141899,170.081125 C14.3141899,170.285375 14.2659218,170.478875 14.2444693,170.672375 C14.1962011,171.059375 14.147933,171.435625 14.1050279,171.79575 C14.0031285,171.457125 13.9012291,171.123875 13.7939665,170.796 C13.6867039,170.618625 13.6277095,170.435875 13.5687151,170.2585 Z" id="Shape" fill="url(#linearGradient-2)"></path>
                    <path d="M83.1821229,33.57225 L77.3899441,35.6255 L75.2875978,32.13175 C73.6786592,29.44425 71.4475978,25.76775 69.8011173,23.096375 C66.8943017,18.398625 70.6967598,11.239125 70.6967598,11.239125 C70.6967598,11.239125 71.3832402,4.05275 73.8288268,1.83825 C76.2744134,-0.37625 76.9555307,11.239125 76.9555307,11.239125 C86.775419,15.711125 81.5141899,26.23 81.5141899,26.23 L82.4688268,30.401 L83.1821229,33.57225 Z" id="Path" fill="#EFB7B9"></path>
                    <path d="M83.1821229,33.57225 L77.3899441,35.6255 L75.2875978,32.13175 L75.2875978,31.825375 C75.2875978,31.825375 78.6073743,29.541 82.4795531,30.401 L83.1821229,33.57225 Z" id="Path" fill="#000000" opacity="0.1"></path>
                    <path d="M73.8288268,57.11475 L76.7302793,54.653 L75.2768715,32.49725 C75.2768715,32.49725 82.7852514,27.348 88.3414525,35.405125 C88.3414525,35.405125 88.1162011,40.328625 88.3414525,41.672375 C88.5667039,43.016125 86.7807821,44.359875 88.3414525,45.69825 C89.9021229,47.036625 88.3414525,51.519375 88.3414525,51.519375 C88.3414525,51.519375 90.1059218,54.653 91.2214525,55.54525 C92.3369832,56.4375 93.4578771,63.828125 91.2214525,65.39225 C88.9850279,66.956375 84.7910615,70.5415 84.7910615,72.105625 C84.7910615,73.66975 79.427933,77.480625 79.427933,77.480625 L74.7191061,71.24025 L73.8288268,57.11475 Z" id="Path" fill="#FF6484"></path>
                    <path d="M11.0802235,191.608 C0.257430168,187.007 2.66011173,175.767875 4.69810056,170.108 C5.10537404,168.961249 5.583621,167.841074 6.13005587,166.754 L12.2011173,163.061375 C12.2011173,163.061375 13.44,166.22725 14.7646927,170.4735 C17.8377654,180.35275 21.372067,195.988625 11.0802235,191.608 Z" id="Path" fill="#EFB7B9"></path>
                    <path d="M25.9575419,294.157625 C25.2248412,295.588674 24.6838545,297.110404 24.3486034,298.683375 C23.8128673,301.214132 23.578827,303.799686 23.6513966,306.38575 C23.6943017,308.175625 23.8444693,309.347375 23.8444693,309.347375 L11.7881564,317.657125 C11.7881564,317.657125 11.8578771,316.68425 11.9758659,315.2545 C12.2869274,311.449 12.9358659,304.38625 13.5472626,303.4725 C13.9709497,302.83825 14.2659218,300.2905 14.4536313,297.9255 C14.6413408,295.5605 14.7164246,293.48575 14.7164246,293.48575 C14.7164246,293.48575 29.2236872,288.0355 25.9575419,294.157625 Z" id="Path" fill="#EFB7B9"></path>
                    <path d="M54.4303911,300.1185 C54.4303911,300.1185 54.4303911,302.42975 54.344581,305.11725 C54.2587709,307.80475 54.0978771,310.976 53.76,312.454125 C53.4489385,313.808625 53.427486,316.29725 53.4864804,318.592375 C53.5669274,321.279875 53.76,323.698625 53.76,323.698625 C53.76,323.698625 41.4516201,312.034875 42.7065922,311.110375 C43.0444693,310.863125 43.3769832,309.86875 43.6826816,308.5465 C44.0581006,306.934 44.3959777,304.784 44.6480447,302.9565 C44.9483799,300.779625 45.1360894,299.027375 45.1360894,299.027375 L54.4303911,300.1185 Z" id="Path" fill="#EFB7B9"></path>
                    <path d="M25.9575419,294.157625 C25.2248412,295.588674 24.6838545,297.110404 24.3486034,298.683375 C21.0486272,298.596583 17.755088,298.343639 14.4804469,297.9255 C14.6627933,295.61425 14.7432402,293.48575 14.7432402,293.48575 C14.7432402,293.48575 29.2236872,288.0355 25.9575419,294.157625 Z" id="Path" fill="#000000" opacity="0.1"></path>
                    <path d="M54.4303911,300.1185 C54.4303911,300.1185 54.4303911,302.42975 54.344581,305.11725 C50.504581,306.100875 46.5573184,304.133625 44.6480447,302.96725 C44.9483799,300.790375 45.1360894,299.038125 45.1360894,299.038125 L54.4303911,300.1185 Z" id="Path" fill="#000000" opacity="0.1"></path>
                    <path d="M79.6317318,185.79225 C74.7191061,196.54225 72.707933,209.29175 72.707933,209.29175 L70.9220112,220.04175 C70.9220112,220.04175 71.8176536,224.7395 70.9220112,226.529375 C70.0263687,228.31925 68.2404469,231.2325 68.2404469,231.2325 C68.2404469,231.2325 69.5812291,242.1975 68.2404469,243.3155 C66.8996648,244.4335 68.2404469,251.146875 68.2404469,251.146875 L63.7729609,273.721875 L57.5195531,302.811375 C51.4913966,307.74025 43.4681564,301.473 43.4681564,301.473 L45.2379888,282.450875 C45.2379888,282.450875 47.9195531,249.125875 46.8040223,247.760625 C45.6884916,246.395375 47.249162,242.16525 47.249162,242.16525 C47.249162,242.16525 48.8151955,238.134 47.6996648,236.569875 C46.5841341,235.00575 47.9195531,231.646375 47.9195531,231.646375 C47.9195531,231.646375 47.4744134,217.993875 48.8151955,214.86025 C50.1559777,211.726625 48.8151955,192.344375 48.8151955,192.344375 L48.2788827,186.30825 L47.9678212,182.965 L47.9410056,182.637125 C47.9410056,182.637125 47.7372067,183.9755 47.4046927,186.05025 C46.4178771,192.365875 44.3155307,205.454 43.4842458,208.146875 C42.9191431,210.087448 42.1515519,211.962931 41.1941899,213.74225 C41.1941899,213.74225 42.3526257,220.455625 41.1941899,222.2455 C40.0357542,224.035375 41.0172067,226.051 41.0172067,226.051 C41.0172067,226.051 42.1327374,231.646375 38.7807821,233.882375 C35.4288268,236.118375 38.7807821,237.24175 38.7807821,237.24175 C38.7807821,237.24175 36.3244693,242.61675 35.4341899,244.847375 C34.5439106,247.078 35.4341899,250.222375 35.4341899,250.222375 L33.6482682,268.346875 C33.6482682,268.346875 32.0822346,275.9525 32.307486,281.10175 C32.5327374,286.251 30.2963128,298.10825 30.2963128,298.10825 C30.2963128,298.10825 13.1021229,298.10825 10.4527374,296.092625 C7.80335196,294.077 14.8773184,274.41525 14.8773184,274.41525 C14.8773184,274.41525 16.8884916,239.95075 16.4379888,239.0585 C15.987486,238.16625 16.4379888,231.4475 18.0040223,230.109125 C19.5700559,228.77075 18.0040223,226.077875 18.0040223,226.077875 C18.0040223,226.077875 17.5588827,220.702875 18.0040223,219.3645 C18.449162,218.026125 17.9343017,213.543375 17.9343017,213.543375 C17.9343017,213.543375 16.4379888,202.578375 16.2181006,196.311125 C15.9982123,190.043875 14.8773184,175.950625 14.8773184,175.950625 C14.8773184,175.950625 16.0464804,167.232375 16.2234637,163.082875 C16.2878212,161.556375 16.9689385,159.64825 17.8324022,157.853 C18.7988664,155.825984 19.9101368,153.871567 21.1575419,152.005 C21.1575419,152.005 74.0648045,136.3315 76.2851397,137.89025 C76.8750838,138.304125 77.7331844,141.11525 78.5805587,145.184125 C80.9403352,156.55225 83.2464804,177.891 79.6317318,185.79225 Z" id="Path" fill="#444053"></path>
                    <ellipse id="Oval" fill="#A1616A" cx="47.0346369" cy="33.57225" rx="15.4082682" ry="15.442375"></ellipse>
                    <path d="M78.5805587,145.194875 C76.8053631,146.108625 75.6147486,146.7375 75.6147486,146.7375 C75.6147486,146.7375 50.6064804,158.600125 43.4949721,157.92825 C37.9924022,157.39075 23.9463687,157.697125 17.8270391,157.847625 C18.7935033,155.820609 19.9047737,153.866192 21.1521788,151.999625 C21.1521788,151.999625 74.0648045,136.3315 76.2851397,137.89025 C76.8750838,138.314875 77.7331844,141.11525 78.5805587,145.194875 Z" id="Path" fill="#000000" opacity="0.1"></path>
                    <path d="M36.313743,58.23275 C36.313743,58.23275 22.0424581,60.49025 18.6744134,62.70475 C15.3063687,64.91925 8.63463687,69.19775 8.63463687,78.372875 C8.63463687,87.548 7.07396648,96.948875 6.17832402,99.631 C5.28268156,102.313125 20.2458101,124.02275 20.2458101,124.02275 L14.8826816,156.923125 C14.8826816,156.923125 36.3351955,156.25125 43.4788827,156.923125 C50.6225698,157.595 75.6201117,145.732375 75.6201117,145.732375 C75.6201117,145.732375 90.3579888,137.901 93.4846927,137.669875 C96.6113966,137.43875 87.2312849,120.437625 87.2312849,120.437625 C87.2312849,120.437625 72.7132961,92.917625 75.1696089,88.44025 C77.6259218,83.962875 79.427933,77.47525 79.427933,77.47525 L76.7463687,54.653 C76.7463687,54.653 72.7293855,53.30925 69.3774302,55.771 C66.0254749,58.23275 54.6395531,56.889 54.6395531,56.889 L36.313743,58.23275 Z" id="Path" fill="#FF6484"></path>
                    <path d="M12.0884916,98.066875 L6.48938547,99.631 L4.93944134,120.69025 C4.93944134,120.69025 6.95061453,126.285625 4.93944134,128.0755 C2.92826816,129.865375 2.48312849,168.135375 2.48312849,168.135375 C2.48312849,168.135375 8.96178771,172.833125 16.5506145,169.253375 C16.5506145,169.253375 15.4350838,165.00175 18.7870391,149.559375 C22.1389944,134.117 22.1336313,126.285625 22.1336313,126.285625 C22.1336313,126.285625 22.1336313,107.03775 23.6996648,103.904125 C25.2656983,100.7705 23.6996648,92.939125 23.6996648,92.939125 C23.6996648,92.939125 20.5729609,88.6875 20.7928492,87.123375 C21.0127374,85.55925 12.0884916,98.066875 12.0884916,98.066875 Z" id="Path" fill="#000000" opacity="0.1"></path>
                    <path d="M14.7646927,170.489625 C11.4765234,171.599138 7.89754176,171.469191 4.69810056,170.124125 C5.10537404,168.977374 5.583621,167.857199 6.13005587,166.770125 L12.2011173,163.0775 C12.2011173,163.0775 13.4614525,166.243375 14.7646927,170.489625 Z" id="Path" fill="#000000" opacity="0.1"></path>
                    <path d="M11.7506145,98.066875 L6.16759777,99.631 L4.60692737,120.69025 C4.60692737,120.69025 6.61810056,126.285625 4.60692737,128.0755 C2.59575419,129.865375 2.15061453,168.135375 2.15061453,168.135375 C2.15061453,168.135375 8.63463687,172.82775 16.2181006,169.231875 C16.2181006,169.231875 15.1025698,164.98025 18.449162,149.537875 C21.7957542,134.0955 21.8011173,126.264125 21.8011173,126.264125 C21.8011173,126.264125 21.8011173,107.01625 23.3617877,103.882625 C24.9224581,100.749 23.3617877,92.917625 23.3617877,92.917625 C23.3617877,92.917625 20.2350838,88.666 20.4603352,87.101875 C20.6855866,85.53775 11.7506145,98.066875 11.7506145,98.066875 Z" id="Path" fill="#FF6484"></path>
                    <path d="M68.9162011,101.420875 C68.9162011,101.420875 66.0147486,126.4845 57.5249162,131.187625 C57.5249162,131.187625 76.5050279,125.818 68.9162011,101.420875 Z" id="Path" fill="#000000" opacity="0.1"></path>
                    <path d="M26.2686034,103.66225 C26.2686034,103.66225 36.7588827,108.806125 34.3132961,112.385875 C31.8677095,115.965625 26.2686034,103.66225 26.2686034,103.66225 Z" id="Path" fill="#000000" opacity="0.1"></path>
                    <path d="M26.2686034,113.955375 C26.2686034,113.955375 32.9671508,120.8945 31.6317318,123.35625 C30.2963128,125.818 26.2686034,113.955375 26.2686034,113.955375 Z" id="Path" fill="#000000" opacity="0.1"></path>
                    <path d="M80.3021229,56.442875 C80.3021229,56.442875 82.9300559,60.914875 83.1821229,63.828125 C83.4341899,66.741375 80.3021229,56.442875 80.3021229,56.442875 Z" id="Path" fill="#000000" opacity="0.1"></path>
                    <path d="M80.3021229,50.401375 C80.3021229,50.401375 81.6214525,49.278 84.9894972,50.401375 C88.3575419,51.52475 80.3021229,50.401375 80.3021229,50.401375 Z" id="Path" fill="#000000" opacity="0.1"></path>
                    <path d="M67.409162,181.202 C61.8765473,181.988617 56.234656,181.264411 51.0784358,179.10575 L48.2627933,186.32975 L47.9517318,182.9865 C48.4129609,180.18075 49.3086034,177.176125 51.0784358,176.41825 C51.0784358,176.41825 57.2782123,181.368625 67.409162,181.202 Z" id="Path" fill="#000000" opacity="0.1"></path>
                    <path d="M21.6026816,190.602875 C21.6026816,190.602875 35.3376536,193.457 39.1883799,192.95175 L21.6026816,190.602875 Z" id="Path" fill="#000000" opacity="0.1"></path>
                    <path d="M23.0292737,194.2095 C23.0292737,194.2095 28.8911732,193.956875 31.8194413,195.134 L23.0292737,194.2095 Z" id="Path" fill="#000000" opacity="0.1"></path>
                    <path d="M23.6996648,196.644375 C26.374236,197.213838 29.0890689,197.573262 31.8194413,197.719375 L23.6996648,196.644375 Z" id="Path" fill="#000000" opacity="0.1"></path>
                    <path d="M23.3617877,227.443125 C23.6138547,227.2765 35.0855866,224.589 36.5121788,226.518625 L23.3617877,227.443125 Z" id="Path" fill="#000000" opacity="0.1"></path>
                    <path d="M23.3617877,230.969125 C23.3617877,230.969125 33.3264804,229.792 33.5785475,230.969125 C33.8306145,232.14625 23.3617877,230.969125 23.3617877,230.969125 Z" id="Path" fill="#000000" opacity="0.1"></path>
                    <path d="M23.3617877,234.1565 C23.3617877,234.1565 33.9968715,231.95275 35.2518436,232.49025 C36.5068156,233.02775 23.3617877,234.1565 23.3617877,234.1565 Z" id="Path" fill="#000000" opacity="0.1"></path>
                    <path d="M23.8659218,309.35275 L11.8096089,317.6625 C11.8096089,317.6625 11.8793296,316.689625 11.9973184,315.259875 C14.6788827,308.648625 18.1702793,305.16025 18.1702793,305.16025 C20.8893855,304.45075 22.6055866,305.1065 23.6728492,306.391125 C23.7157542,308.175625 23.8659218,309.35275 23.8659218,309.35275 Z" id="Path" fill="#000000" opacity="0.1"></path>
                    <path d="M25.0404469,316.818625 C23.3367175,320.714053 22.4793064,324.928148 22.5251397,329.181125 C22.5930432,332.668488 21.7104085,336.108348 19.9722905,339.13025 C19.720821,339.556016 19.4375536,339.962092 19.1249162,340.345 C19.1249162,340.345 10.7477095,340.275125 7.81407821,337.84025 C7.48445624,337.578795 7.21545724,337.248679 7.02569832,336.87275 C5.34703911,333.51875 10.2918436,320.677875 10.2918436,320.677875 C12.8875978,310.777125 18.1595531,305.488125 18.1595531,305.488125 C27.5503911,303.05325 25.0404469,316.818625 25.0404469,316.818625 Z" id="Path" fill="#444053"></path>
                    <path d="M19.9722905,339.103375 C19.720821,339.529141 19.4375536,339.935217 19.1249162,340.318125 C19.1249162,340.318125 10.7477095,340.24825 7.81407821,337.813375 C9.25675978,333.029625 13.858324,318.55475 16.0143017,321.0165 C18.0415642,323.32775 19.452067,334.448625 19.9722905,339.103375 Z" id="Path" fill="#000000" opacity="0.1"></path>
                    <path d="M18.824581,321.914125 L18.24,343.596875 L21.0502793,343.596875 C21.0502793,343.596875 21.5061453,324.57475 22.7611173,321.914125 C24.0160894,319.2535 18.824581,321.914125 18.824581,321.914125 Z" id="Path" fill="#444053"></path>
                    <path d="M53.76,323.698625 C53.76,323.698625 41.4516201,312.034875 42.7065922,311.110375 C43.0444693,310.863125 43.3769832,309.86875 43.6826816,308.5465 C46.0478212,308.132625 50.1184358,309.121625 53.4864804,318.592375 C53.5669274,321.279875 53.76,323.698625 53.76,323.698625 Z" id="Path" fill="#000000" opacity="0.1"></path>
                    <path d="M55.5995531,336.706125 C55.5051325,336.746841 55.4060601,336.775726 55.304581,336.792125 C53.8565363,337.04475 48.5202235,336.899625 45.5329609,336.792125 C44.3953354,336.754488 43.4918782,335.820513 43.4896089,334.67975 C43.4896089,333.8735 43.4896089,332.889875 43.4252514,331.84175 C43.2858101,328.53075 42.8889385,324.590875 41.7036872,323.704 C39.6067039,322.0915 37.9494972,316.61975 41.7036872,309.691375 C41.7036872,309.691375 48.9010056,304.182 54.092514,320.742375 C54.092514,320.742375 54.596648,325.467 56.8545251,327.144 C59.1124022,328.821 56.6078212,336.22775 55.5995531,336.706125 Z" id="Path" fill="#444053"></path>
                    <path d="M55.2938547,336.792125 C53.8458101,337.04475 48.5094972,336.899625 45.5222346,336.792125 C44.3846091,336.754488 43.481152,335.820513 43.4788827,334.67975 C43.4788827,333.8735 43.4788827,332.889875 43.4145251,331.84175 C44.3208939,327.832 45.6241341,323.704 47.3027933,322.763375 C47.3135196,322.758 52.3924022,322.182875 55.2938547,336.792125 Z" id="Path" fill="#000000" opacity="0.1"></path>
                    <polygon id="Path" fill="#444053" points="42.615419 322.27425 43.9669274 340.318125 45.6831285 340.318125 45.6831285 320.737"></polygon>
                    <path d="M46.8093855,8.9655 C41.9443108,9.32844961 37.2348853,10.8446231 33.0690503,13.389125 C31.9964246,14.0395 30.9237989,14.829625 30.4786592,15.996 C30.092514,17.0065 30.2534078,18.146 30.2694972,19.221 C30.4143017,28.47675 20.117095,35.480375 20.4388827,44.73075 C20.5675978,48.401875 22.4071508,51.820375 22.7450279,55.48075 C23.3081564,61.58675 19.7041341,67.203625 16.2502793,72.2615 C19.808607,72.4785308 23.3136794,71.3140033 26.0379888,69.009625 C29.6824338,81.1841424 30.1532743,94.0915245 27.4055866,106.50025 L32.3450279,106.50025 C32.8328594,106.464621 33.3229368,106.524875 33.7877095,106.677625 C34.2211722,106.883927 34.6094589,107.174416 34.9300559,107.53225 C39.5477095,112.138625 42.6422346,118.94875 40.8777654,125.2375 L51.3894972,121.286875 C53.9048045,120.340875 56.4576536,119.37875 58.6458101,117.82 C60.8339665,116.26125 62.6681564,113.998375 63.1293855,111.343125 C63.4136313,109.730625 63.3224581,107.806375 64.6471508,106.871125 C65.2997773,106.523226 65.9960517,106.264708 66.7173184,106.1025 C69.6026816,105.08125 70.8791061,101.738 71.4690503,98.728 C72.1874065,95.0350712 72.4128439,91.2628363 72.1394413,87.510375 C71.6728492,81.221625 69.8172067,74.836125 71.3456983,68.697875 C72.209162,65.2525 74.129162,62.043625 74.2846927,58.485375 C74.5367598,52.62125 69.9620112,47.56875 69.2808939,41.736875 C68.8035754,37.673375 70.2677095,33.5615 69.7903911,29.498 C69.2525458,25.2414204 66.676094,21.5156537 62.8880447,19.516625 C61.5955307,18.850125 60.2064804,18.404 58.9300559,17.667625 C56.0178771,15.9745 54.1568715,12.926875 51.5128492,10.830625 C48.8688268,8.734375 44.4656983,7.94425 42.4759777,10.669375 L46.8093855,8.9655 Z" id="Path" fill="#000000" opacity="0.1"></path>
                    <path d="M46.8093855,8.293625 C41.9443108,8.65657461 37.2348853,10.1727481 33.0690503,12.71725 C31.9964246,13.367625 30.9237989,14.15775 30.4786592,15.324125 C30.092514,16.334625 30.2534078,17.474125 30.2694972,18.549125 C30.4143017,27.804875 20.117095,34.8085 20.4388827,44.06425 C20.5675978,47.73 22.4071508,51.1485 22.7450279,54.81425 C23.3081564,60.92025 19.7041341,66.537125 16.2502793,71.600375 C19.8075914,71.8096323 23.3098605,70.6460361 26.0379888,68.3485 C29.6817637,80.519452 30.1526066,93.4231967 27.4055866,105.828375 L32.3450279,105.828375 C32.83321,105.794476 33.3232959,105.856557 33.7877095,106.011125 C34.2220567,106.213571 34.610732,106.502523 34.9300559,106.860375 C39.5477095,111.472125 42.6422346,118.276875 40.8777654,124.565625 L51.3894972,120.615 C53.9048045,119.669 56.4576536,118.706875 58.6458101,117.148125 C60.8339665,115.589375 62.6681564,113.3265 63.1293855,110.67125 C63.4136313,109.05875 63.3224581,107.1345 64.6471508,106.19925 C65.2997773,105.851351 65.9960517,105.592833 66.7173184,105.430625 C69.6026816,104.409375 70.8791061,101.066125 71.4690503,98.056125 C72.1937406,94.3604098 72.4245928,90.5844905 72.1555307,86.82775 C71.6889385,80.539 69.8332961,74.1535 71.3617877,68.01525 C72.2252514,64.569875 74.1452514,61.361 74.3007821,57.80275 C74.5528492,51.938625 69.9781006,46.886125 69.2969832,41.05425 C68.8196648,36.99075 70.2837989,32.88425 69.8064804,28.815375 C69.2668848,24.559468 66.6909405,20.8344353 62.9041341,18.834 C61.6116201,18.1675 60.2225698,17.721375 58.9461453,16.990375 C56.0339665,15.291875 54.1729609,12.24425 51.5289385,10.148 C48.8849162,8.05175 44.4817877,7.261625 42.492067,9.98675 L46.8093855,8.293625 Z" id="Path" fill="#925978"></path>
                    <g id="Group" opacity="0.1" transform="translate(16.089385, 16.125000)" fill="#000000">
                        <path d="M14.1693855,0.188125 C14.1478284,0.395254575 14.1370875,0.603371756 14.1372067,0.811625 C14.1532961,0.607375 14.1640223,0.39775 14.1693855,0.188125 Z" id="Path"></path>
                        <path d="M53.1486034,21.70425 C53.341676,18.8555 53.9745251,15.996 53.7385475,13.158 C53.5615642,16.00675 52.9287151,18.86625 53.1486034,21.70425 Z" id="Path"></path>
                        <path d="M6.65564246,35.867375 C6.34458101,32.534875 4.79463687,29.417375 4.42994413,26.09025 C4.3572027,26.7001138 4.33031128,27.3145954 4.34949721,27.9285 C4.47821229,31.556625 6.27486034,34.94825 6.63955307,38.56025 C6.72818142,37.6650648 6.73356773,36.7635597 6.65564246,35.867375 Z" id="Path"></path>
                        <path d="M55.2938547,49.106 C54.791721,51.2932106 54.611043,53.5421989 54.7575419,55.78175 C54.8110031,54.4756302 54.9906133,53.1777746 55.2938547,51.906375 C56.1573184,48.461 58.0773184,45.252125 58.2328492,41.693875 C58.2581895,41.0619097 58.2294812,40.4289303 58.1470391,39.801875 C57.7287151,43 56.0607821,45.97775 55.2938547,49.106 Z" id="Path"></path>
                        <path d="M9.94860335,49.39625 C7.71171801,51.2750073 4.94301768,52.4029865 2.0326257,52.62125 C1.42122905,53.578 0.788379888,54.51325 0.160893855,55.43775 C3.71820592,55.6470073 7.22047505,54.4834111 9.94860335,52.185875 C11.9078085,58.719866 12.9581583,65.4935212 13.0699441,72.31525 C13.229056,64.5591584 12.175863,56.8259011 9.94860335,49.39625 Z" id="Path"></path>
                        <path d="M55.3957542,79.114625 C54.8058101,82.124625 53.5293855,85.467875 50.6440223,86.48375 C49.9217302,86.6450958 49.2251053,86.9055519 48.5738547,87.25775 C47.249162,88.193 47.3403352,90.128 47.0560894,91.72975 C46.5948603,94.385 44.7660335,96.6425 42.572514,98.17975 C40.3789944,99.717 37.8315084,100.706 35.3162011,101.652 L25.2871508,105.4145 C25.2351285,106.423524 25.0732746,107.423833 24.8044693,108.397625 L35.3162011,104.447 C37.8315084,103.501 40.3843575,102.538875 42.572514,100.980125 C44.7606704,99.421375 46.5948603,97.1585 47.0560894,94.50325 C47.3403352,92.89075 47.249162,90.9665 48.5738547,90.03125 C49.2264812,89.6833506 49.9227556,89.4248335 50.6440223,89.262625 C53.5293855,88.241375 54.8058101,84.898125 55.3957542,81.888125 C56.0063922,78.7557942 56.260085,75.5640903 56.1519553,72.374375 C56.081239,74.6378559 55.8283509,76.8919241 55.3957542,79.114625 Z" id="Path"></path>
                        <path d="M18.8567598,87.90275 C18.5376456,87.5432929 18.1490073,87.2525404 17.7144134,87.048125 C17.2495515,86.8955461 16.7598543,86.8335142 16.2717318,86.865375 L11.8900559,86.865375 C11.7184358,87.800625 11.5360894,88.735875 11.353743,89.66575 L16.2931844,89.66575 C16.7813665,89.6318508 17.2714524,89.6939318 17.7358659,89.8485 C18.1702131,90.0509462 18.5588884,90.3398975 18.8782123,90.69775 C22.2569832,94.07325 24.8151955,98.6205 25.2549721,103.286 C25.796648,97.70675 22.9112849,91.96625 18.8567598,87.90275 Z" id="Path"></path>
                    </g>
                    <path d="M10.4420112,122.34575 C10.4420112,122.34575 14.4321788,120.66875 15.3224581,122.34575 C16.2127374,124.02275 10.4420112,122.34575 10.4420112,122.34575 Z" id="Path" fill="#000000" opacity="0.1"></path>
                    <path d="M11.852514,125.221375 C11.852514,125.221375 15.8426816,123.544375 16.738324,125.221375 C17.6339665,126.898375 11.852514,125.221375 11.852514,125.221375 Z" id="Path" fill="#000000" opacity="0.1"></path>
                </g>
                <g id="5f43f84a-a268-4bb5-a31a-6b0c09aee323" transform="translate(386.000000, 36.000000)" fill="#292E34" fill-rule="nonzero" opacity="0.1">
                    <path d="M59.572973,11.9391045 C59.572973,11.9391045 39.0054054,10.7086567 41.4324324,25.0334328 C41.4324324,25.0334328 40.9513514,27.5641791 43.2594595,28.7140299 C43.2594595,28.7140299 43.2972973,27.639403 45.3675676,28.0101493 C46.1048303,28.1334881 46.8541978,28.1695604 47.6,28.1176119 C48.6069341,28.0483048 49.5635433,27.653984 50.3243243,26.9946269 C50.3243243,26.9946269 56.1027027,24.6250746 58.3513514,15.2328358 C58.3513514,15.2328358 60.0162162,13.1802985 59.972973,12.6537313 L56.5027027,14.1313433 C56.5027027,14.1313433 57.6864865,16.6191045 56.7513514,18.6877612 C56.7513514,18.6877612 56.6432432,14.2173134 55.972973,14.3247761 C55.8378378,14.3247761 54.172973,15.1844776 54.172973,15.1844776 C54.172973,15.1844776 56.2108108,19.520597 54.6702703,22.6746269 C54.6702703,22.6746269 55.2540541,17.3337313 53.5351351,15.5014925 L51.0810811,16.9468657 C51.0810811,16.9468657 53.4648649,21.4226866 51.8486486,25.0764179 C51.8486486,25.0764179 52.2648649,19.4722388 50.5675676,17.2907463 L48.3513514,19.0047761 C48.3513514,19.0047761 50.5945946,23.3946269 49.2432432,26.4250746 C49.2432432,26.4250746 49.0648649,19.8967164 47.8864865,19.4077612 C47.8864865,19.4077612 45.9513514,21.1056716 45.6594595,21.8041791 C45.6594595,21.8041791 47.1891892,25.0280597 46.2378378,26.6937313 C46.2378378,26.6937313 45.6540541,22.3522388 45.1567568,22.3307463 C45.1567568,22.3307463 43.227027,25.2107463 43.027027,27.1665672 C43.1207989,25.3415824 43.6928615,23.5726634 44.6864865,22.0352239 C43.573276,22.244689 42.5467841,22.7754276 41.7351351,23.561194 C41.7351351,23.561194 42.0324324,21.5247761 45.1621622,21.3420896 C45.1621622,21.3420896 46.7567568,19.160597 47.1837838,19.0262687 C47.1837838,19.0262687 44.0702703,18.7683582 42.1837838,19.601194 C42.1837838,19.601194 43.8432432,17.6776119 47.7567568,18.5265672 L49.9189189,16.7534328 C49.9189189,16.7534328 45.8216216,16.2161194 44.0810811,16.8125373 C44.0810811,16.8125373 46.0810811,15.1146269 50.5081081,16.3504478 L52.8864865,14.9373134 C52.8864865,14.9373134 49.3945946,14.1850746 47.3135135,14.4591045 C47.3135135,14.4591045 49.5081081,13.2823881 53.5837838,14.5558209 L55.2864865,13.798209 C55.2864865,13.798209 52.7243243,13.2985075 51.9783784,13.2179104 C51.2324324,13.1373134 51.1891892,12.9331343 51.1891892,12.9331343 C52.8101018,12.6649669 54.4741227,12.8510284 55.9945946,13.4704478 C55.9945946,13.4704478 59.6324324,12.1647761 59.572973,11.9391045 Z" id="Path"></path>
                    <path d="M30.2594595,0.32238806 C30.2594595,0.32238806 12.9621622,11.4501493 23.4540541,21.5570149 C23.4540541,21.5570149 24.572973,23.878209 27.1189189,23.4483582 C27.1189189,23.4483582 26.5135135,22.5671642 28.4,21.6376119 C29.0687814,21.30289 29.6948556,20.8898029 30.2648649,20.4071642 C31.0351621,19.7578895 31.5720855,18.8771606 31.7945946,17.8979104 C31.7945946,17.8979104 35.0378378,12.5785075 31.2540541,3.69134328 C31.2540541,3.69134328 31.372973,1.05850746 31.0054054,0.671641791 L29.0918919,3.89552239 C29.0918919,3.89552239 31.5297297,5.20119403 32.0108108,7.41492537 C32.0108108,7.41492537 29.2594595,3.88477612 28.7675676,4.36298507 C28.6702703,4.45970149 27.827027,6.12 27.827027,6.12 C27.827027,6.12 32.0594595,8.40895522 32.6918919,11.8531343 C32.6918919,11.8531343 29.9891892,7.20537313 27.4972973,6.74865672 L26.372973,9.32776119 C26.372973,9.32776119 30.9675676,11.5307463 31.8432432,15.4262687 C31.8432432,15.4262687 28.8324324,10.6656716 26.1675676,9.9080597 L25.4108108,12.5946269 C25.4108108,12.5946269 29.8432432,14.8298507 30.5513514,18.0752239 C30.5513514,18.0752239 26.5189189,12.9277612 25.2756757,13.239403 C25.2756757,13.239403 24.7351351,15.7432836 24.9081081,16.4632836 C24.9081081,16.4632836 28.0540541,18.1397015 28.2918919,20.0632836 C28.2918919,20.0632836 25.2324324,16.9092537 24.8378378,17.1725373 C24.8378378,17.1725373 25,20.6274627 26.0108108,22.3361194 C25.0002081,20.8105739 24.4077047,19.0492321 24.2918919,17.2262687 C23.5202001,18.0504852 23.0089635,19.0818008 22.8216216,20.1922388 C22.8216216,20.1922388 21.8486486,18.3761194 24.2648649,16.3880597 C24.2648649,16.3880597 24.2648649,13.7014925 24.5081081,13.3307463 C24.5081081,13.3307463 21.8486486,14.9426866 20.8216216,16.7373134 C20.8216216,16.7373134 21.0162162,14.2119403 24.6864865,12.6107463 L25.3891892,9.89731343 C25.3891892,9.89731343 21.7567568,11.8638806 20.7243243,13.3844776 C20.7243243,13.3844776 21.3243243,10.8376119 25.6216216,9.22567164 L26.7027027,6.6841791 C26.7027027,6.6841791 23.4594595,8.14029851 21.9243243,9.58567164 C21.9243243,9.58567164 23.0054054,7.33970149 27.0378378,5.96955224 L27.9567568,4.35761194 C27.9567568,4.35761194 25.5945946,5.46447761 24.9459459,5.84059701 C24.2972973,6.21671642 24.1405405,6.07701493 24.1405405,6.07701493 C25.2858416,4.90573372 26.7362802,4.07415261 28.3297297,3.67522388 C28.3297297,3.67522388 30.4432432,0.472835821 30.2594595,0.32238806 Z" id="Path"></path>
                    <path d="M3.93513514,13.2877612 C3.93513514,13.2877612 -6.40540541,31.0191045 7.55675676,35.28 C7.55675676,35.28 9.61621622,36.8435821 11.6864865,35.28 C11.6864865,35.28 10.7513514,34.7749254 12.0054054,33.0931343 C12.441056,32.4928739 12.8039255,31.8436084 13.0864865,31.158806 C13.4771822,30.232239 13.5549484,29.2046898 13.3081081,28.2304478 C13.3081081,28.2304478 13.7675676,22.0298507 6.33513514,15.8131343 C6.33513514,15.8131343 5.25405405,13.4167164 4.71351351,13.239403 L4.48108108,17.000597 C4.48108108,17.000597 7.24864865,17.0650746 8.69189189,18.8220896 C8.69189189,18.8220896 4.62702703,16.9146269 4.42162162,17.5540299 C4.37837838,17.6829851 4.38378378,19.5420896 4.38378378,19.5420896 C4.38378378,19.5420896 9.24324324,19.6871642 11.4054054,22.4704478 C11.4054054,22.4704478 6.86486486,19.5528358 4.44864865,20.2620896 L4.62162162,23.0668657 C4.62162162,23.0668657 9.71891892,22.959403 12.2756757,26.038209 C12.2756757,26.038209 7.41081081,23.1528358 4.70810811,23.679403 L5.24864865,26.4143284 C5.24864865,26.4143284 10.2216216,26.4143284 12.3297297,28.9826866 C12.3297297,28.9826866 6.38378378,26.2101493 5.41621622,27.0322388 C5.41621622,27.0322388 6.07027027,29.5146269 6.56756757,30.0895522 C6.56756757,30.0895522 10.1351351,30.1647761 11.227027,31.7713433 C11.227027,31.7713433 7.05945946,30.3367164 6.82702703,30.7558209 C6.82702703,30.7558209 8.55135135,33.759403 10.2324324,34.8232836 C8.63741983,33.924446 7.30541311,32.6281689 6.36756757,31.0620896 C6.05664717,32.1440934 6.07168164,33.2929687 6.41081081,34.3665672 C6.41081081,34.3665672 4.71351351,33.1898507 5.95675676,30.3259701 C5.95675676,30.3259701 4.71351351,27.9295522 4.78378378,27.4943284 C4.78378378,27.4943284 3.16216216,30.1432836 3.05405405,32.1904478 C3.05405405,32.1904478 2.07027027,29.8531343 4.61081081,26.7743284 L4,24.0340299 C4,24.0340299 1.65945946,27.4244776 1.43243243,29.2459701 C1.43243243,29.2459701 0.805405405,26.7044776 3.9027027,23.3355224 L3.6972973,20.5898507 C3.6972973,20.5898507 1.45945946,23.3570149 0.767567568,25.3289552 C0.767567568,25.3289552 0.691891892,22.8465672 3.67027027,19.8 L3.75135135,17.9462687 C3.75135135,17.9462687 2.12972973,19.9934328 1.74594595,20.6328358 C1.36216216,21.2722388 1.13513514,21.1808955 1.13513514,21.1808955 C1.62229534,19.6193161 2.53537862,18.2225299 3.77297297,17.1456716 C3.77297297,17.1456716 4.16216216,13.3361194 3.93513514,13.2877612 Z" id="Path"></path>
                </g>
                <path d="M477.800738,251.766872 C473.493886,251.766872 470.002493,255.176924 470.002493,259.383436 C470.002493,263.589948 473.493886,267 477.800738,267 C482.10759,267 485.598983,263.589948 485.598983,259.383436 C485.587008,255.181778 482.10262,251.778568 477.800738,251.766872 Z M455,192 L455,199.616564 L462.798245,199.616564 L476.836175,227.38961 L470.967056,236.720034 C470.326451,237.823603 469.990322,239.070769 469.991594,240.339366 C469.991594,245.438365 473.561022,247.955929 478.400184,247.955929 L523.996211,247.955929 L523.996211,240.632106 L479.353848,240.632106 C479.090532,240.647832 478.832954,240.552516 478.646414,240.370322 C478.459874,240.188128 478.362284,239.936551 478.378386,239.67937 C478.481171,239.349943 478.620028,239.032302 478.792548,238.731957 L482.688946,232.722802 L511.740269,232.722802 C514.602128,232.745747 517.236427,231.202402 518.563052,228.72557 L532.606432,205.141367 C532.880253,204.54248 533.014277,203.89161 532.998796,203.235895 C532.98785,202.245724 532.566799,201.302093 531.831656,200.620179 C531.096514,199.938265 530.109956,199.576206 529.096949,199.616564 L471.381219,199.616564 L467.675554,192 L455,192 Z M516.192516,251.766872 C511.886375,251.769812 508.397716,255.181164 508.399722,259.386982 C508.401728,263.592801 511.893639,267.000977 516.199781,266.999998 C520.505923,266.999019 523.99621,263.589255 523.996211,259.383436 C523.984223,255.179707 520.496526,251.775644 516.192516,251.766872 Z" id="Shape" fill="#292E34" fill-rule="nonzero"></path>
                <polygon id="Path" fill="#FFFFFF" fill-rule="nonzero" points="506 213.181818 499.818182 213.181818 499.818182 207 495.181818 207 495.181818 213.181818 489 213.181818 489 217.818182 495.181818 217.818182 495.181818 224 499.818182 224 499.818182 217.818182 506 217.818182"></polygon>
            </g>
        </g>
    </g>
</svg>