<?xml version="1.0" encoding="UTF-8"?>
<svg width="86px" height="86px" viewBox="0 0 86 86" version="1.1" xmlns="http://www.w3.org/2000/svg" xmlns:xlink="http://www.w3.org/1999/xlink">
    <!-- Generator: Sketch 52.4 (67378) - http://www.bohemiancoding.com/sketch -->
    <title>video-conference copy</title>
    <desc>Created with Sketch.</desc>
    <g id="Elementos" stroke="none" stroke-width="1" fill="none" fill-rule="evenodd">
        <g id="Ecuador/PorquePadeco" transform="translate(-559.000000, -277.000000)" fill-rule="nonzero">
            <g id="video-conference-copy" transform="translate(559.000000, 277.000000)">
                <path d="M26.4045563,58.7221374 C26.4045563,55.3962249 23.6835938,52.6752624 20.3576813,52.6752624 L18.6445313,52.6752624 C17.46875,52.6752624 16.3598939,53.3130189 15.7890625,54.3208314 C15.0837249,53.8845062 14.2104186,53.75 13.4040374,53.9179688 C11.8247376,54.2539062 10.7165374,55.6645814 10.75,57.2773438 L10.75,58.8559876 C10.75,60.6701813 11.0524749,62.484375 11.6567689,64.1975251 L11.8247376,64.6679688 C12.5976563,66.8180999 14.3442689,68.4643249 16.5278626,69.1020814 L16.6623688,69.1361999 C17.9391937,69.5055999 19.2494811,69.5055999 20.5256501,69.1361999 L20.6266937,69.1020814 C22.84375,68.4643249 24.5903626,66.8180999 25.3298187,64.6345062 L25.53125,64.0295563 C26.1020814,62.2829437 26.4045563,60.5022126 26.4045563,58.7221374 Z" id="Path" fill="#6D6C6B"></path>
                <path d="M50.6596374,58.7221374 C50.6596374,55.3962249 47.9380189,52.6752624 44.6127624,52.6752624 L42.8989564,52.6752624 C41.7231751,52.6752624 40.6149749,53.3130189 40.0434876,54.3208314 C39.3381501,53.8845062 38.4648438,53.75 37.6584626,53.9179688 C36.0798187,54.2539062 34.9709626,55.6645814 35.0044251,57.2773438 L35.0044251,58.8559876 C35.0044251,60.6701813 35.3069001,62.484375 35.9118499,64.1975251 L36.0798187,64.6679688 C36.8520814,66.8180999 38.5993499,68.4643249 40.7829437,69.1020814 L40.9174499,69.1361999 C42.1936188,69.5055999 43.5039063,69.5055999 44.7807311,69.1361999 L44.8811188,69.1020814 C47.0981751,68.4643249 48.8454437,66.8180999 49.5842438,64.6345062 L49.7856751,64.0295563 C50.3571624,62.2829437 50.6596374,60.5022126 50.6596374,58.7221374 Z" id="Path" fill="#6D6C6B"></path>
                <path d="M74.8805999,58.7221374 C74.8805999,55.3962249 72.1596374,52.6752624 68.8337249,52.6752624 L67.1205749,52.6752624 C65.9447936,52.6752624 64.8359375,53.3130189 64.2651061,54.3208314 C63.5591126,53.8845062 62.6858063,53.75 61.8794251,53.9179688 C60.3007812,54.2539062 59.1919251,55.6645814 59.2260436,57.2773438 L59.2260436,58.8559876 C59.2260436,60.6701813 59.5278626,62.484375 60.1328125,64.1975251 L60.3007812,64.6679688 C61.0736999,66.8180999 62.8203125,68.4643249 65.0039062,69.1020814 L65.1384124,69.1361999 C66.4145814,69.5055999 67.7248688,69.5055999 69.0016937,69.1361999 L69.1020814,69.1020814 C71.2856751,68.4643249 73.0664062,66.8180999 73.8052064,64.6345062 L74.0072936,64.0295563 C74.578125,62.2829437 74.8805999,60.5022126 74.8805999,58.7221374 Z" id="Path" fill="#6D6C6B"></path>
                <path d="M30.4692689,77.3666686 C30.4023438,76.3588561 29.6970062,75.4848939 28.7226563,75.25 L24.1875,74.1076813 L21.4330749,72.7639313 L16.0239564,72.7639313 L13.3029938,74.1076813 L8.76783757,75.25 C7.79348763,75.4848939 7.08815007,76.3588561 7.02122493,77.3666686 L6.65182487,84.2533874 C6.61770638,84.7231751 6.98776237,85.1266937 7.45755013,85.1601562 L7.49166862,85.1601562 L30.0329437,85.1601562 C30.5033874,85.1601562 30.8727874,84.7907562 30.8727874,84.3203125 L30.8727874,84.2868499 L30.4692689,77.3666686 Z" id="Path" fill="#E9E9EA"></path>
                <path d="M54.6908874,77.3666686 C54.6233063,76.3588561 53.9179688,75.4848939 52.9436188,75.25 L48.4084626,74.1076813 L45.6875,72.7639313 L40.2790374,72.7639313 L37.5580749,74.1076813 L33.0229186,75.25 C32.0485687,75.4848939 31.3432311,76.3588561 31.2756501,77.3666686 L30.90625,84.2533874 C30.8727874,84.7231751 31.2421875,85.1266937 31.7126312,85.1601562 L31.7460937,85.1601562 L54.2873688,85.1601562 C54.7578125,85.1601562 55.1272126,84.7907562 55.1272126,84.3203125 L55.1272126,84.2868499 L54.6908874,77.3666686 Z" id="Path" fill="#E9E9EA"></path>
                <path d="M78.9453125,77.3666686 C78.8783874,76.3588561 78.1723939,75.4848939 77.1986999,75.25 L72.6635436,74.1076813 L69.9419251,72.7639313 L64.5334626,72.7639313 L61.8125,74.1076813 L57.2438812,75.25 C56.2695313,75.4848939 55.5641937,76.3588561 55.4966126,77.3666686 L55.1272126,84.2533874 C55.09375,84.7231751 55.4631501,85.1266937 55.9335938,85.1601562 L55.9670563,85.1601562 L78.5083314,85.1601562 C78.9787751,85.1601562 79.3481751,84.7907562 79.3481751,84.3203125 L79.3481751,84.2868499 L78.9453125,77.3666686 Z" id="Path" fill="#E9E9EA"></path>
                <path d="M20.5932311,69.0686188 L20.4921875,69.1020814 C19.2153626,69.4721374 17.9057311,69.4721374 16.6289063,69.1020814 L16.4944001,69.0686188 C15.0837249,68.6657562 13.8744811,67.859375 12.9670563,66.7170563 C13.3029938,68.1953125 14.2104186,69.4380189 15.4865876,70.2778626 C15.8559876,70.5134124 16.0580749,70.9162751 16.0580749,71.3532562 L16.0580749,72.7973939 L21.4665374,72.7973939 C21.4665374,72.7973939 21.4665374,71.9575501 21.4665374,71.3197936 C21.4665374,70.9162751 21.6679688,70.5134124 22.0039063,70.2778626 C23.3141937,69.3376312 24.1875,67.9263001 24.4565124,66.3476563 C23.515625,67.6579437 22.1384124,68.5981751 20.5932311,69.0686188 Z" id="Path" fill="#F9D0B4"></path>
                <path d="M26.2365876,60.9391937 C26.0016937,62.6188812 25.53125,64.2309876 24.7924499,65.7427064 L25.3967438,65.7427064 C26.7404938,65.9447936 27.9838561,65.0708314 28.1852874,63.7270814 C28.21875,63.5932311 28.21875,63.4921875 28.21875,63.3576813 C28.2522126,62.1819001 27.4123688,61.1740876 26.2365876,60.9391937 Z" id="Path" fill="#F9D0B4"></path>
                <path d="M10.8510436,60.9391937 C9.70872493,61.1740876 8.86888118,62.1819001 8.86888118,63.3576813 C8.90234375,64.7014313 10.0111999,65.7768249 11.3549499,65.7768249 C11.4888001,65.7768249 11.5898438,65.7768249 11.7243499,65.7427064 L12.2951813,65.7427064 C11.5563812,64.2309876 11.0524749,62.6188812 10.8510436,60.9391937 Z" id="Path" fill="#F9D0B4"></path>
                <path d="M44.8476562,69.0686188 L44.7466126,69.1020814 C43.4704437,69.4721374 42.1601562,69.4721374 40.8833314,69.1020814 L40.7494811,69.0686188 C39.3381501,68.6657562 38.1289062,67.859375 37.2221374,66.7170563 C37.5580749,68.1953125 38.4648438,69.4380189 39.7416686,70.2778626 C40.1110687,70.5134124 40.3125,70.9162751 40.3125,71.3532562 L40.3125,72.7973939 L45.6540374,72.7973939 C45.6540374,72.7973939 45.6540374,71.9575501 45.6540374,71.3197936 C45.6540374,70.9162751 45.8554688,70.5134124 46.1914063,70.2778626 C47.5016937,69.3376312 48.375,67.9263001 48.6440124,66.3476563 C47.7365876,67.6579437 46.3928376,68.5981751 44.8476563,69.0686188 Z" id="Path" fill="#F9D0B4"></path>
                <path d="M50.4916686,60.9391937 C50.2561188,62.6188812 49.7856751,64.2309876 49.0134124,65.7427064 L49.6177064,65.7427064 C50.9614564,65.9447936 52.2048187,65.0708314 52.40625,63.7270814 C52.4397126,63.5932311 52.4397126,63.4921875 52.4397126,63.3576813 C52.4731751,62.1819001 51.6333314,61.1740876 50.4916686,60.9391937 Z" id="Path" fill="#F9D0B4"></path>
                <path d="M35.1054688,60.9391937 C33.9631501,61.1740876 33.1233063,62.1819001 33.1233063,63.3576813 C33.1567689,64.7014313 34.265625,65.7768249 35.609375,65.7768249 C35.7438812,65.7768249 35.8442689,65.7768249 35.9787751,65.7427064 L36.5502624,65.7427064 C35.7773438,64.2309876 35.3069001,62.6188812 35.1054688,60.9391937 Z" id="Path" fill="#F9D0B4"></path>
                <path d="M69.0686188,69.0686188 L68.9682311,69.1020814 C67.6914062,69.4721374 66.3811188,69.4721374 65.1049499,69.1020814 L64.9704437,69.0686188 C63.5591126,68.6657562 62.3498688,67.859375 61.4430999,66.7170563 C61.7790374,68.1953125 62.6858063,69.4380189 63.9626312,70.2778626 C64.3320313,70.5134124 64.5334626,70.9162751 64.5334626,71.3532562 L64.5334626,72.7973939 L69.9419251,72.7973939 C69.9419251,72.7973939 69.9419251,71.9575501 69.9419251,71.3197936 C69.9419251,70.9162751 70.1440124,70.5134124 70.4799499,70.2778626 C71.7895814,69.3376312 72.6635436,67.9263001 72.9319001,66.3476563 C71.9575501,67.6579437 70.6138001,68.5981751 69.0686188,69.0686188 Z" id="Path" fill="#F9D0B4"></path>
                <path d="M74.7126312,60.9391937 C74.4770814,62.6188812 74.0072936,64.2309876 73.234375,65.7427064 L73.8393249,65.7427064 C75.1830749,65.9447936 76.4257812,65.0708314 76.6272126,63.7270814 C76.6606751,63.5932311 76.6606751,63.4921875 76.6606751,63.3576813 C76.6947936,62.1819001 75.8884124,61.1740876 74.7126312,60.9391937 Z" id="Path" fill="#F9D0B4"></path>
                <path d="M59.3264313,60.9391937 C58.1841126,61.1740876 57.3442689,62.1819001 57.3442689,63.3576813 C57.3783874,64.7014313 58.4865876,65.7768249 59.8303376,65.7768249 C59.9648438,65.7768249 60.0658874,65.7768249 60.1997376,65.7427064 L60.7712249,65.7427064 C60.0317689,64.2309876 59.5278626,62.6188812 59.3264313,60.9391937 Z" id="Path" fill="#F9D0B4"></path>
                <path d="M7.18919368,0.906768883 L78.7773438,0.906768883 C79.8861999,0.906768883 80.7929688,1.81419368 80.7929688,2.92239388 L80.7929688,5.27395638 C80.7929688,6.3828125 79.8861999,7.28958138 78.7773438,7.28958138 L7.18919368,7.28958138 C6.08033757,7.28958138 5.17356868,6.3828125 5.17356868,5.27395638 L5.17356868,2.92239388 C5.17356868,1.81419368 6.08033757,0.906768883 7.18919368,0.906768883 Z" id="Path" fill="#E9E9EA"></path>
                <path d="M9.84323112,55.3962249 L11.2539062,55.3962249 C12.1947936,53.8510436 14.2438812,53.3471374 15.7890625,54.2873688 C16.3940124,53.2795563 17.46875,52.6411439 18.6445312,52.6411439 L20.3576813,52.6411439 C22.4067689,52.6411439 24.2885436,53.6830749 25.4302064,55.3962249 L35.4748688,55.3962249 C36.4157562,53.8510436 38.4648437,53.3471374 40.0100251,54.2873688 C40.6149749,53.2795563 41.6897126,52.6411439 42.8654938,52.6411439 L44.5786439,52.6411439 C46.6283874,52.6411439 48.5095062,53.6830749 49.6518249,55.3962249 L59.6958314,55.3962249 C60.6367187,53.8510436 62.6858063,53.3471374 64.2309876,54.2873688 C64.8359375,53.2795563 65.9106751,52.6411439 67.0864564,52.6411439 L68.8002624,52.6411439 C70.8493499,52.6411439 72.7304688,53.6830749 73.8727874,55.3962249 L76.0898438,55.3962249 C77.4670563,55.3962249 78.5759124,54.2873688 78.5759124,52.9101562 L78.5759124,7.28958138 L7.35716243,7.28958138 L7.35716243,52.9101562 C7.35716243,54.2873688 8.46536263,55.3962249 9.84323112,55.3962249 Z" id="Path" fill="#60BAE2"></path>
                <polygon id="Path" fill="#CAECFC" points="10.9848939 7.28958138 74.9475251 7.28958138 74.9475251 51.7678376 10.9848939 51.7678376"></polygon>
                <path d="M85.8989564,60.2338561 C84.3872376,59.9313812 83.2455749,58.7890625 82.9430999,57.2773438 C82.9430999,57.2438812 82.9096374,57.2104186 82.8755189,57.2104186 C82.8420563,57.2104186 82.8420563,57.2438812 82.8085938,57.2773438 C82.5061188,58.7890625 81.3638001,59.9313812 79.8520814,60.2338561 C79.8186188,60.2338561 79.7851562,60.2673187 79.7851562,60.3007812 C79.7851562,60.3342438 79.8186188,60.3342438 79.8520814,60.3677064 C81.3638001,60.6701813 82.5061188,61.8125 82.8085938,63.3242188 C82.8085938,63.3576813 82.8420563,63.3911439 82.8755189,63.3911439 C82.9096374,63.3911439 82.9096374,63.3576813 82.9430999,63.3242188 C83.2455749,61.8125 84.3872376,60.6701813 85.8989564,60.3677064 C85.9330749,60.3677064 85.9665374,60.3342438 85.9665374,60.3007812 C85.9665374,60.2338561 85.9330749,60.2338561 85.8989564,60.2338561 Z" id="Path" fill="#F75C64"></path>
                <path d="M6.61770638,70.3789062 L3.6953125,70.3789062 C3.22486882,70.3789062 2.85546875,70.0095062 2.85546875,69.5390625 C2.85546875,69.0686188 3.22486882,68.6992188 3.6953125,68.6992188 L6.61770638,68.6992188 C7.08815007,68.6992188 7.45755013,69.0686188 7.45755013,69.5390625 C7.45755013,70.0095062 7.08815007,70.3789062 6.61770638,70.3789062 Z" id="Path" fill="#60BAE2"></path>
                <path d="M5.17356868,71.8571624 C4.703125,71.8571624 4.33372493,71.4877624 4.33372493,71.0173187 L4.33372493,68.0942689 C4.33372493,67.6244811 4.703125,67.2544251 5.17356868,67.2544251 C5.64401237,67.2544251 6.01341243,67.6244811 6.01341243,68.0942689 L6.01341243,71.0173187 C6.01341243,71.4536439 5.64401237,71.8571624 5.17356868,71.8571624 Z" id="Path" fill="#60BAE2"></path>
                <path d="M0.806381184,57.5122376 C1.04127507,57.5122376 1.24270638,57.6132812 1.41067513,57.7477874 C1.44479362,57.78125 1.47825618,57.8147126 1.51171875,57.8822936 C1.54518132,57.9157562 1.57864388,57.9826813 1.57864388,58.0161439 C1.61276237,58.0837249 1.61276237,58.1171875 1.61276237,58.1841126 C1.61276237,58.2516937 1.64622493,58.2851562 1.64622493,58.3520814 C1.64622493,58.4196624 1.64622493,58.453125 1.61276237,58.5200501 C1.61276237,58.5876312 1.57864388,58.6210937 1.57864388,58.6880189 C1.54518132,58.7555999 1.54518132,58.7890625 1.51171875,58.8225251 C1.47825618,58.8559876 1.44479362,58.9235687 1.41067513,58.9570312 C1.17578125,59.1919251 0.806381184,59.2595062 0.50390625,59.125 C0.470443684,59.0915374 0.402862633,59.0915374 0.369400066,59.0580749 C0.3359375,59.0239564 0.269012367,58.9904938 0.234893883,58.9570312 C0.201431316,58.9235687 0.16796875,58.8901061 0.134506184,58.8225251 C0.101043617,58.7890625 0.0669251328,58.7221374 0.0669251328,58.6880189 C0.0334625664,58.6545563 0.0334625664,58.5876312 0.0334625664,58.5200501 C0.0334625664,58.453125 0.0334625664,58.4196624 -8.8817842e-16,58.3520814 C-8.8817842e-16,58.2851562 -8.8817842e-16,58.2516937 0.0334625664,58.1841126 C0.0334625664,58.1171875 0.0669251328,58.0837249 0.0669251328,58.0161439 C0.101043617,57.9492187 0.101043617,57.9157562 0.134506184,57.8822936 C0.16796875,57.8481751 0.201431316,57.78125 0.234893883,57.7477874 C0.269012367,57.7143249 0.302474934,57.6802064 0.369400066,57.6467438 C0.402862633,57.6132812 0.470443684,57.5798187 0.50390625,57.5798187 C0.570831383,57.5463561 0.604949867,57.5463561 0.671875,57.5463561 C0.705337566,57.5463561 0.738800133,57.5122376 0.806381184,57.5122376 Z" id="Path" fill="#6DCC6D"></path>
                <path d="M79.3147126,68.53125 C79.5502624,68.53125 79.7516937,68.6322936 79.9196624,68.7661439 C79.953125,68.8002624 79.9865876,68.8337249 80.0200501,68.9006501 C80.0541686,68.9341126 80.0876312,69.0016937 80.0876312,69.0351562 C80.1210938,69.1020814 80.1210938,69.1361999 80.1210938,69.203125 C80.1210938,69.2700501 80.1545563,69.3041686 80.1545563,69.3710937 C80.1545563,69.4380189 80.1545563,69.4721374 80.1210938,69.5390625 C80.1210938,69.6059876 80.0876312,69.6401061 80.0876312,69.7070312 C80.0541686,69.7739564 80.0541686,69.8080749 80.0200501,69.8415374 C79.9865876,69.875 79.953125,69.9419251 79.9196624,69.9760436 C79.6841126,70.2109375 79.3147126,70.2778626 79.0122376,70.1440124 C78.9787751,70.1098939 78.9118499,70.1098939 78.8783874,70.0764313 C78.8442689,70.0429687 78.7773438,70.0095062 78.7438812,69.9760436 C78.7104186,69.9419251 78.6763001,69.9084626 78.6428376,69.8415374 C78.609375,69.8080749 78.5759124,69.7404938 78.5759124,69.7070312 C78.5424499,69.6735687 78.5424499,69.6059876 78.5424499,69.5390625 C78.5424499,69.4721374 78.5424499,69.4380189 78.5083314,69.3710937 C78.5083314,69.3041686 78.5083314,69.2700501 78.5424499,69.203125 C78.5424499,69.1361999 78.5759124,69.1020814 78.5759124,69.0351562 C78.609375,68.9682311 78.609375,68.9341126 78.6428376,68.9006501 C78.6763001,68.8671875 78.7104186,68.8002624 78.7438812,68.7661439 C78.7773438,68.7326813 78.8108063,68.6992188 78.8783874,68.6657562 C78.9118499,68.6322936 78.9787751,68.5981751 79.0122376,68.5981751 C79.0798187,68.5647126 79.1132812,68.5647126 79.1802064,68.5647126 C79.2143249,68.53125 79.2477874,68.53125 79.3147126,68.53125 Z" id="Path" fill="#FCD770"></path>
                <g id="Group" transform="translate(4.199219, 0.000000)" fill="#231F20">
                    <path d="M70.7483063,52.6076813 L6.78567513,52.6076813 C6.31588737,52.6076813 5.94583138,52.2382812 5.94583138,51.7678376 L5.94583138,7.28958138 C5.94583138,6.81979362 6.31588737,6.44973763 6.78567513,6.44973763 L70.7483063,6.44973763 C71.21875,6.44973763 71.5881501,6.81979362 71.5881501,7.28958138 L71.5881501,51.7678376 C71.5881501,52.2382812 71.21875,52.6076813 70.7483063,52.6076813 Z M7.62551888,50.9279938 L69.9084626,50.9279938 L69.9084626,8.12942513 L7.62551888,8.12942513 L7.62551888,50.9279938 Z" id="Shape"></path>
                    <path d="M74.5446624,8.12942513 L2.98997493,8.12942513 C1.41067513,8.12942513 0.134506184,6.85325618 0.134506184,5.27395638 L0.134506184,2.92239388 C0.134506184,1.34375 1.41067513,0.0669251328 2.98997493,0.0669251328 L74.578125,0.0669251328 C76.1567689,0.0669251328 77.4335938,1.34375 77.4335938,2.92239388 L77.4335938,5.27395638 C77.4001312,6.85325618 76.1233063,8.12942513 74.5446624,8.12942513 Z M2.98997493,1.74661263 C2.3515625,1.74661263 1.81419368,2.28463737 1.81419368,2.92239388 L1.81419368,5.27395638 C1.81419368,5.91236882 2.3515625,6.44973763 2.98997493,6.44973763 L74.578125,6.44973763 C75.2165374,6.44973763 75.7539062,5.91236882 75.7539062,5.27395638 L75.7539062,2.92239388 C75.7539062,2.28463737 75.2165374,1.74661263 74.578125,1.74661263 L2.98997493,1.74661263 Z" id="Shape"></path>
                    <path d="M21.3989564,86 C20.9291686,86 20.5591126,85.6305999 20.5591126,85.1601562 L20.5591126,81.8342438 C20.5591126,81.3638001 20.9291686,80.9944001 21.3989564,80.9944001 C21.8694001,80.9944001 22.2388001,81.3638001 22.2388001,81.8342438 L22.2388001,85.1601562 C22.2388001,85.6305999 21.8359375,86 21.3989564,86 Z" id="Path"></path>
                    <path d="M7.52513118,86 C7.0546875,86 6.68528743,85.6305999 6.68528743,85.1601562 L6.68528743,81.8342438 C6.68528743,81.3638001 7.0546875,80.9944001 7.52513118,80.9944001 C7.99557487,80.9944001 8.36497493,81.3638001 8.36497493,81.8342438 L8.36497493,85.1601562 C8.36497493,85.6305999 7.96145638,86 7.52513118,86 Z" id="Path"></path>
                    <path d="M25.8002624,86 L3.25833138,86 C2.31809993,86 1.57864388,85.2611999 1.57864388,84.3203125 C1.57864388,84.2868499 1.57864388,84.2533874 1.57864388,84.2192689 L1.94869987,77.3325501 C2.015625,75.9553376 2.98997493,74.7795563 4.33372493,74.4436188 L8.80130013,73.3354186 L11.4553376,72.0251312 C11.5563812,71.9575501 11.6908874,71.9240876 11.8247376,71.9240876 L17.2338561,71.9240876 C17.3677064,71.9240876 17.5022126,71.9575501 17.6032562,72.0251312 L20.2572936,73.3354186 L24.7248688,74.4436188 C26.0686188,74.7795563 27.0429688,75.9553376 27.1098939,77.3325501 L27.4799499,84.2192689 C27.546875,85.1601562 26.8080749,85.9330749 25.9006501,86 C25.8671875,86 25.8337249,86 25.8002624,86 Z M12.0268249,73.6037751 L9.47317513,74.8805999 C9.40625,74.9140625 9.37278743,74.9140625 9.30520638,74.9475251 L4.77005013,76.0898438 C4.13229362,76.2578125 3.6953125,76.7951813 3.66184993,77.4335938 L3.29244987,84.3203125 L25.8337249,84.3203125 L25.4643249,77.4335938 C25.4302064,76.7951813 24.9938812,76.2578125 24.3554688,76.0898438 L19.8203125,74.9475251 C19.7533874,74.9475251 19.7192689,74.9140625 19.6523438,74.8805999 L17.0993499,73.6037751 L12.0268249,73.6037751 Z" id="Shape"></path>
                    <path d="M17.2338561,73.6037751 L11.8247376,73.6037751 C11.3549499,73.6037751 10.9848939,73.234375 10.9848939,72.7639313 L10.9848939,71.3197936 C10.9848939,71.1852874 10.9179687,71.0507812 10.7834626,70.9497376 C9.33932487,70.0095062 8.33151237,68.5647126 7.92799382,66.8850251 C7.82760612,66.4486999 8.09596257,65.9782562 8.56640625,65.8772126 C8.86888118,65.8102874 9.20481868,65.9106751 9.40625,66.1796875 C10.2126312,67.1875 11.2873688,67.8928376 12.5307311,68.2622376 L12.6645814,68.2963561 C13.7734375,68.5981751 14.9492187,68.5981751 16.0580749,68.2963561 L16.1584626,68.2622376 C17.5356751,67.859375 18.7114564,67.0195312 19.5178376,65.84375 C19.7868499,65.4743499 20.2907562,65.3733063 20.6936188,65.6423187 C20.9626312,65.84375 21.0971374,66.1462249 21.0295563,66.4821624 C20.7270814,68.2963561 19.7192689,69.9084626 18.2416686,70.9497376 C18.140625,71.0173187 18.0736999,71.1518249 18.0736999,71.3197936 L18.0736999,72.7973939 C18.0736999,73.234375 17.7036439,73.6037751 17.2338561,73.6037751 Z M12.6645814,71.9240876 L16.3940124,71.9240876 L16.3940124,71.2856751 C16.3940124,70.6813812 16.6623688,70.1098939 17.0993499,69.7070313 C16.9313812,69.7739564 16.796875,69.8080749 16.6289062,69.875 L16.5278626,69.9084626 C15.1171875,70.3119811 13.6054688,70.3119811 12.1947936,69.9084626 L12.09375,69.875 C12.4631501,70.2778626 12.6986999,70.7817689 12.6986999,71.3532562 L12.6645814,71.9240876 Z" id="Shape"></path>
                    <path d="M14.3442689,70.2109375 C13.6054688,70.2109375 12.9001312,70.1098939 12.1947936,69.9084626 L12.0602874,69.875 C9.60768132,69.1696624 7.65963737,67.3220062 6.78567513,64.9028626 L6.61770638,64.4330749 C5.97994987,62.6188812 5.64401237,60.7377624 5.64401237,58.8225251 L5.64401237,57.2438812 C5.64401237,55.2282562 7.02122493,53.4809876 8.96926888,53.078125 C9.7421875,52.9101562 10.5151061,52.9770814 11.2539062,53.2460938 C12.0602874,52.3393249 13.2026061,51.8354186 14.3783874,51.8354186 L16.0915374,51.8354186 C19.8872376,51.8354186 22.9782562,54.9257812 22.9782562,58.7221374 C22.9782562,60.6032562 22.6757812,62.484375 22.0373688,64.2651061 L21.8359375,64.8694001 C20.9960938,67.2885436 19.0139313,69.1361999 16.5619811,69.8415374 L16.4609375,69.875 C15.8225251,70.1098939 15.0837249,70.2109375 14.3442689,70.2109375 Z M9.87669368,54.6567689 C8.49948112,54.6567689 7.35716243,55.765625 7.35716243,57.1763001 L7.35716243,57.2438812 L7.35716243,58.8225251 C7.35716243,60.5356751 7.65963737,62.2494811 8.23046875,63.8950501 L8.3984375,64.3654938 C9.0703125,66.2466126 10.6154938,67.7248688 12.5307311,68.2622376 L12.6645814,68.2963561 C13.7734375,68.5981751 14.9492188,68.5981751 16.0580749,68.2963561 L16.1584626,68.2622376 C18.1071624,67.6914062 19.6523438,66.2466126 20.2907562,64.3320312 L20.4921875,63.7270814 C21.0630189,62.1149749 21.3320313,60.4352874 21.3320313,58.7221374 C21.3320313,55.8325501 19.0139313,53.5151061 16.125,53.5151061 L14.4118499,53.5151061 C13.5385436,53.5151061 12.6986999,53.9848939 12.2617188,54.7578125 C12.0268249,55.1606751 11.5229186,55.2951813 11.1194001,55.0602874 C10.75,54.7912751 10.3130189,54.6567689 9.87669368,54.6567689 Z" id="Shape"></path>
                    <path d="M21.6010436,66.6166686 C21.4330749,66.6166686 21.2985687,66.6166686 21.1305999,66.5825501 L20.5932311,66.5825501 C20.1227874,66.5825501 19.7533874,66.2131501 19.7533874,65.7427064 C19.7533874,65.6088561 19.7868499,65.4408874 19.8537751,65.3398438 C20.5591126,63.9291686 20.9960938,62.3833314 21.2309876,60.8381501 C21.2985687,60.3677064 21.7348939,60.0658874 22.171875,60.1328125 L22.2053376,60.1328125 C23.7505189,60.4352874 24.859375,61.8125 24.859375,63.3911439 C24.859375,65.171875 23.3811188,66.6166686 21.6010436,66.6166686 Z M22.6757812,62.1819001 C22.4743499,63.1227874 22.2053376,64.0295563 21.8694001,64.9369811 C22.1384124,64.9028626 22.4067689,64.7690124 22.6088561,64.6010436 C23.2807311,64.0295563 23.3811188,63.0217438 22.8102874,62.3498688 C22.7768249,62.2829437 22.7427064,62.2153626 22.6757812,62.1819001 Z" id="Shape"></path>
                    <path d="M7.12161263,66.6166686 C5.30807487,66.6166686 3.82981868,65.1384124 3.82981868,63.3242187 C3.82981868,61.7455749 4.93801888,60.4018249 6.48385612,60.0993499 C6.95364388,59.9983063 7.390625,60.3007812 7.49166862,60.7377624 L7.49166862,60.8046875 C7.69309993,62.3833314 8.12942513,63.8950501 8.83541862,65.3063812 C9.0703125,65.7092438 8.93580632,66.2131501 8.53294368,66.4486999 C8.3984375,66.515625 8.26393132,66.5490876 8.12942513,66.5490876 L7.62551888,66.5490876 C7.42408757,66.6166686 7.28958138,66.6166686 7.12161263,66.6166686 Z M6.01341243,62.1819001 C5.375,62.7868499 5.34153743,63.7946624 5.97994987,64.4330749 C6.01341243,64.4665374 6.08033757,64.5334626 6.11380013,64.5669251 C6.31588737,64.7348939 6.55078125,64.8694001 6.81979362,64.9028626 C6.48385612,64.0295563 6.21484375,63.1227874 6.01341243,62.1819001 Z" id="Shape"></path>
                    <path d="M45.6205749,86 C45.1501312,86 44.7807311,85.6305999 44.7807311,85.1601562 L44.7807311,81.8342438 C44.7807311,81.3638001 45.1501312,80.9944001 45.6205749,80.9944001 C46.0903626,80.9944001 46.4604186,81.3638001 46.4604186,81.8342438 L46.4604186,85.1601562 C46.4604186,85.6305999 46.0903626,86 45.6205749,86 Z" id="Path"></path>
                    <path d="M31.7460938,86 C31.2756501,86 30.90625,85.6305999 30.90625,85.1601562 L30.90625,81.8342438 C30.90625,81.3638001 31.2756501,80.9944001 31.7460938,80.9944001 C32.2165374,80.9944001 32.5859375,81.3638001 32.5859375,81.8342438 L32.5859375,85.1601562 C32.5859375,85.6305999 32.2165374,86 31.7460938,86 Z" id="Path"></path>
                    <path d="M50.0212249,86 L27.5134124,86 C26.5725251,86 25.8337249,85.2611999 25.8337249,84.3203125 C25.8337249,84.2868499 25.8337249,84.2533874 25.8337249,84.2192689 L26.203125,77.3325501 C26.2700501,75.9553376 27.2444001,74.7795563 28.5881501,74.4436188 L33.0563812,73.3354186 L35.7104186,72.0251312 C35.8108063,71.9575501 35.9453125,71.9240876 36.0798187,71.9240876 L41.4548187,71.9240876 C41.5893249,71.9240876 41.7231751,71.9575501 41.8242187,72.0251312 L44.4782562,73.3354186 L48.9458314,74.4436188 C50.2895814,74.7795563 51.2639313,75.9553376 51.3315124,77.3325501 L51.7009124,84.2192689 C51.7678376,85.1601562 51.0290374,85.9330749 50.1216126,86 C50.0881501,86 50.0546875,86 50.0212249,86 Z M36.2477874,73.6037751 L33.6947936,74.8805999 C33.6272126,74.9140625 33.59375,74.9140625 33.5268249,74.9475251 L28.9916686,76.0898438 C28.3532562,76.2578125 27.9162751,76.7951813 27.8828125,77.4335938 L27.5134124,84.3203125 L50.0546875,84.3203125 L49.6852874,77.4335938 C49.6518249,76.7951813 49.2148437,76.2578125 48.5764313,76.0898438 L44.0412751,74.9475251 C43.9743499,74.9475251 43.9408874,74.9140625 43.8733063,74.8805999 L41.3203125,73.6037751 L36.2477874,73.6037751 Z" id="Shape"></path>
                    <path d="M41.4548187,73.6037751 L36.0798187,73.6037751 C35.609375,73.6037751 35.2399749,73.234375 35.2399749,72.7639313 L35.2399749,71.3197936 C35.2399749,71.1852874 35.1723939,71.0507812 35.0385436,70.9497376 C33.59375,70.0095062 32.5859375,68.5647126 32.1830749,66.8850251 C32.0820312,66.4486999 32.3510436,65.9782562 32.8208314,65.8772126 C33.1233063,65.8102874 33.4592438,65.9106751 33.6606751,66.1796875 C34.4670563,67.1875 35.5424499,67.8928376 36.7851562,68.2622376 L36.9196624,68.2963561 C38.0278626,68.5981751 39.2036439,68.5981751 40.3125,68.2963561 L40.4135436,68.2622376 C41.7907562,67.859375 42.9665374,67.0195312 43.7729186,65.84375 C44.0412751,65.4743499 44.5451813,65.3733063 44.9486999,65.6423187 C45.2170563,65.84375 45.3515625,66.1462249 45.2846374,66.4821624 C44.9821624,68.2963561 43.9743499,69.9084626 42.4960938,70.9497376 C42.3950501,71.0173187 42.328125,71.1518249 42.328125,71.2856751 L42.328125,72.7639313 C42.2946624,73.234375 41.9252624,73.6037751 41.4548187,73.6037751 Z M36.9196624,71.9240876 L40.6484375,71.9240876 L40.6484375,71.2856751 C40.6484375,70.6813812 40.9174499,70.1098939 41.3537751,69.7070313 C41.1858063,69.7739564 41.0513001,69.8080749 40.8833314,69.875 L40.7829437,69.9084626 C39.3716126,70.3119811 37.8598939,70.3119811 36.4492188,69.9084626 L36.3481751,69.875 C36.7182311,70.2778626 36.953125,70.7817689 36.953125,71.3532562 L36.9196624,71.9240876 Z" id="Shape"></path>
                    <path d="M38.5993499,70.2109375 C37.8598939,70.2109375 37.1545563,70.1098939 36.4492188,69.9084626 L36.3147126,69.875 C33.8627624,69.1696624 31.9140625,67.3220062 31.0407562,64.9028626 L30.8727874,64.4330749 C30.234375,62.6188812 29.8984375,60.7377624 29.8984375,58.8225251 L29.8984375,57.2438812 C29.8984375,55.2282562 31.2756501,53.4809876 33.2243499,53.078125 C33.9966126,52.9101562 34.7695312,52.9770814 35.5083314,53.2460938 C36.3147126,52.3393249 37.4570312,51.8354186 38.6328125,51.8354186 L40.3459626,51.8354186 C44.1423187,51.8354186 47.2326813,54.9257812 47.2326813,58.7221374 C47.2326813,60.6032562 46.9302064,62.484375 46.2924499,64.2651061 L46.0903626,64.8694001 C45.2505189,67.2885436 43.2690124,69.1361999 40.8164062,69.8415374 L40.7153626,69.875 C40.0434876,70.1098939 39.3381501,70.2109375 38.5993499,70.2109375 Z M34.0976562,54.6567689 C32.7204437,54.6567689 31.578125,55.765625 31.578125,57.1763001 L31.578125,57.2438812 L31.578125,58.8225251 C31.578125,60.5356751 31.8805999,62.2494811 32.4514313,63.8950501 L32.6194001,64.3654938 C33.2912751,66.2466126 34.8364564,67.7248688 36.7516937,68.2622376 L36.8861999,68.2963561 C37.9944001,68.5981751 39.1701813,68.5981751 40.2790374,68.2963561 L40.3794251,68.2622376 C42.328125,67.6914062 43.8733063,66.2466126 44.5117188,64.3320312 L44.7131501,63.7270814 C45.2846374,62.1149749 45.5529938,60.4352874 45.5529938,58.7221374 C45.5529938,55.8325501 43.2348939,53.5151061 40.3459626,53.5151061 L38.6328125,53.5151061 C37.7595062,53.5151061 36.9196624,53.9848939 36.4826813,54.7578125 C36.2477874,55.1606751 35.7438812,55.2951813 35.3403626,55.0602874 C34.9709626,54.7912751 34.5346374,54.6567689 34.0976563,54.6567689 Z" id="Shape"></path>
                    <path d="M45.8220062,66.6166686 C45.6540374,66.6166686 45.5195312,66.6166686 45.3515625,66.5825501 L44.8141937,66.5825501 C44.34375,66.5825501 43.9743499,66.2131501 43.9743499,65.7427064 C43.9743499,65.6088561 44.0078125,65.4408874 44.0747376,65.3398438 C44.7807311,63.9291686 45.2170563,62.3833314 45.4526061,60.8381501 C45.5195312,60.3677064 45.9565124,60.0658874 46.3928376,60.1328125 L46.4263001,60.1328125 C47.9721374,60.4352874 49.0803376,61.8125 49.0803376,63.3911439 C49.0803376,65.171875 47.6361999,66.6166686 45.8220062,66.6166686 Z M46.9302064,62.1819001 C46.7287751,63.1227874 46.4604186,64.0295563 46.1244811,64.9369811 C46.3928376,64.9028626 46.6618499,64.7690124 46.8632812,64.6010436 C47.5351562,64.0295563 47.6361999,63.0217438 47.0647126,62.3498688 C47.03125,62.2829437 46.9643249,62.2153626 46.9302064,62.1819001 Z" id="Shape"></path>
                    <path d="M31.3766937,66.6166686 C29.5625,66.6166686 28.0842438,65.1384124 28.0842438,63.3242187 C28.0842438,61.7455749 29.1930999,60.4018249 30.7382812,60.0993499 C31.2087249,59.9983063 31.6450501,60.3007812 31.7460938,60.7377624 L31.7460938,60.8046875 C31.9475251,62.3833314 32.3845062,63.8950501 33.0898438,65.3063812 C33.3247376,65.7092438 33.1908874,66.2131501 32.7873688,66.4486999 C32.6528626,66.515625 32.5190124,66.5490876 32.3845062,66.5490876 L31.8805999,66.5490876 C31.6791686,66.6166686 31.5111999,66.6166686 31.3766937,66.6166686 Z M30.234375,62.1819001 C29.5959626,62.7868499 29.5625,63.7946624 30.2009124,64.4330749 C30.234375,64.4665374 30.3013001,64.5334626 30.3354186,64.5669251 C30.5368499,64.7348939 30.7717438,64.8694001 31.0407562,64.9028626 C30.7048187,64.0295563 30.4358063,63.1227874 30.234375,62.1819001 Z" id="Shape"></path>
                    <path d="M69.8415374,86 C69.3710938,86 69.0016937,85.6305999 69.0016937,85.1601562 L69.0016937,81.8342438 C69.0016937,81.3638001 69.3710938,80.9944001 69.8415374,80.9944001 C70.3119811,80.9944001 70.6813812,81.3638001 70.6813812,81.8342438 L70.6813812,85.1601562 C70.6813812,85.6305999 70.3119811,86 69.8415374,86 Z" id="Path"></path>
                    <path d="M55.9670563,86 C55.4966126,86 55.1272126,85.6305999 55.1272126,85.1601562 L55.1272126,81.8342438 C55.1272126,81.3638001 55.4966126,80.9944001 55.9670563,80.9944001 C56.4375,80.9944001 56.8069001,81.3638001 56.8069001,81.8342438 L56.8069001,85.1601562 C56.8069001,85.6305999 56.4375,86 55.9670563,86 Z" id="Path"></path>
                    <path d="M74.2756501,86 L51.734375,86 C50.7934876,86 50.0546875,85.2611999 50.0546875,84.3203125 C50.0546875,84.2868499 50.0546875,84.2533874 50.0546875,84.2192689 L50.4240876,77.3325501 C50.4916686,75.9553376 51.4653626,74.7795563 52.8091126,74.4436188 L57.2773438,73.3354186 L59.9313812,72.0251312 C60.0317689,71.9575501 60.1662751,71.9240876 60.3007813,71.9240876 L65.7092438,71.9240876 C65.84375,71.9240876 65.9782562,71.9575501 66.0786439,72.0251312 L68.7326813,73.3354186 L73.2009124,74.4436188 C74.5446624,74.7795563 75.5190124,75.9553376 75.5859375,77.3325501 L75.9553376,84.2192689 C76.0229186,85.1601562 75.2834626,85.9330749 74.3766937,86 C74.3432311,86 74.3091126,86 74.2756501,86 Z M60.5022126,73.6037751 L57.9492188,74.8805999 C57.8822936,74.9140625 57.8481751,74.9140625 57.78125,74.9475251 L53.2460938,76.0898438 C52.6076813,76.2578125 52.1713561,76.7951813 52.1372376,77.4335938 L51.7678376,84.3203125 L74.3091126,84.3203125 L73.9397126,77.4335938 C73.90625,76.7951813 73.4692689,76.2578125 72.8315124,76.0898438 L68.2963561,74.9475251 C68.2287751,74.9475251 68.1953125,74.9140625 68.1283874,74.8805999 L65.5747376,73.6037751 L60.5022126,73.6037751 Z" id="Shape"></path>
                    <path d="M65.7092438,73.6037751 L60.3007812,73.6037751 C59.9983063,73.6037751 59.4609375,73.4692689 59.4609375,72.5625 L59.4609375,71.3532562 C59.4609375,71.21875 59.3940124,71.0842438 59.2595062,70.9838561 C57.8147126,70.0429687 56.8069001,68.5981751 56.4040374,66.9184876 C56.3029938,66.4821624 56.5720062,66.0117187 57.0424499,65.9106751 C57.3442689,65.84375 57.6802064,65.9447936 57.8822936,66.2131501 C58.6880189,67.2209626 59.7634124,67.9263001 61.0061188,68.2963561 L61.140625,68.3298187 C62.2494811,68.6322936 63.4252624,68.6322936 64.5334626,68.3298187 L64.6345062,68.2963561 C66.0117188,67.8928376 67.1875,67.0529938 67.9938812,65.8772126 C68.2622376,65.5078125 68.7661439,65.4067689 69.1696624,65.6757812 C69.4380189,65.8772126 69.5725251,66.1796875 69.5055999,66.515625 C69.203125,68.3298187 68.1953125,69.9419251 66.7170563,70.9838561 C66.6166686,71.0507812 66.5490876,71.1852874 66.5490876,71.3197936 L66.5490876,72.7973939 C66.5490876,73.234375 66.1462249,73.6037751 65.7092438,73.6037751 Z M61.140625,71.9240876 L64.8694001,71.9240876 L64.8694001,71.2856751 C64.8694001,70.6813812 65.1384124,70.1098939 65.5747376,69.7070313 C65.4067689,69.7739564 65.2729186,69.8080749 65.1049499,69.875 L65.0039062,69.9084626 C63.5932311,70.3119811 62.0815124,70.3119811 60.6701813,69.9084626 L60.5697936,69.875 C60.9391937,70.2778626 61.1740876,70.7817689 61.1740876,71.3532562 L61.140625,71.9240876 Z" id="Shape"></path>
                    <path d="M62.8203125,70.2109375 C62.0815124,70.2109375 61.3755189,70.1098939 60.6701813,69.9084626 L60.5356751,69.875 C58.0837249,69.1696624 56.1350251,67.3220062 55.2617188,64.9028626 L55.09375,64.4330749 C54.4553376,62.6188812 54.1194001,60.7377624 54.1194001,58.8225251 L54.1194001,57.2438812 C54.1194001,55.2282562 55.4966126,53.4809876 57.4453125,53.078125 C58.2182311,52.9101562 58.9904938,52.9770814 59.7299499,53.2460938 C60.5356751,52.3393249 61.6779938,51.8354186 62.8537751,51.8354186 L64.5669251,51.8354186 C68.3632813,51.8354186 71.4536439,54.9257812 71.4536439,58.7221374 C71.4536439,60.6032562 71.1518249,62.484375 70.5134124,64.2651061 L70.3119811,64.8694001 C69.4721374,67.2885436 67.4899749,69.1361999 65.0373688,69.8415374 L64.9369811,69.875 C64.2985687,70.1098939 63.5591126,70.2109375 62.8203125,70.2109375 Z M58.3186188,54.6567689 C56.9414062,54.6567689 55.7990876,55.765625 55.7990876,57.1763001 L55.7990876,57.2438812 L55.7990876,58.8225251 C55.7990876,60.5356751 56.1015625,62.2494811 56.6723939,63.8950501 L56.8403626,64.3654938 C57.5122376,66.2466126 59.0580749,67.7248688 60.9726562,68.2622376 L61.1071624,68.2963561 C62.2153626,68.5981751 63.3911439,68.5981751 64.5,68.2963561 L64.6010436,68.2622376 C66.5490876,67.6914062 68.0942689,66.2466126 68.7326813,64.3320312 L68.9341126,63.7270814 C69.5055999,62.1149749 69.7739564,60.4352874 69.7739564,58.7221374 C69.7739564,55.8325501 67.4565124,53.5151061 64.5669251,53.5151061 L62.8537751,53.5151061 C61.9804688,53.5151061 61.140625,53.9848939 60.7036439,54.7578125 C60.46875,55.1606751 59.9648438,55.2951813 59.5619811,55.0602874 C59.2260436,54.7912751 58.7890625,54.6567689 58.3186188,54.6567689 Z" id="Shape"></path>
                    <path d="M70.0764313,66.6166686 C69.9084626,66.6166686 69.7739564,66.6166686 69.6059876,66.5825501 L69.0686188,66.5825501 C68.5981751,66.5825501 68.2287751,66.2131501 68.2287751,65.7427064 C68.2287751,65.6088561 68.2622376,65.4408874 68.3298187,65.3398438 C69.0351563,63.9291686 69.4721374,62.3833314 69.7070312,60.8381501 C69.7739564,60.3677064 70.2109375,60.0658874 70.6479186,60.1328125 L70.6813812,60.1328125 C72.2265625,60.4352874 73.3354186,61.8125 73.3354186,63.3911439 C73.3354186,65.171875 71.8571624,66.6166686 70.0764313,66.6166686 Z M71.1518249,62.1819001 C70.9497376,63.1227874 70.6813812,64.0295563 70.3454437,64.9369811 C70.6138001,64.9028626 70.8828125,64.7690124 71.0842438,64.6010436 C71.7561188,64.0295563 71.8571624,63.0217438 71.2856751,62.3498688 C71.2522126,62.2829437 71.21875,62.2153626 71.1518249,62.1819001 Z" id="Shape"></path>
                    <path d="M55.5976562,66.6166686 C53.7834626,66.6166686 52.3052064,65.1384124 52.3052064,63.3242187 C52.3052064,61.7455749 53.4140625,60.4018249 54.9592438,60.0993499 C55.4296875,59.9983063 55.8666686,60.3007812 55.9670563,60.7377624 L55.9670563,60.8046875 C56.1684876,62.3833314 56.6054687,63.8950501 57.3108063,65.3063812 C57.5463561,65.7092438 57.4118499,66.2131501 57.0083314,66.4486999 C56.8744811,66.515625 56.7399749,66.5490876 56.6054687,66.5490876 L56.1015625,66.5490876 C55.9001312,66.6166686 55.7321624,66.6166686 55.5976562,66.6166686 Z M54.4888001,62.1819001 C53.8510436,62.7868499 53.8169251,63.7946624 54.4553376,64.4330749 C54.4888001,64.4665374 54.5563812,64.5334626 54.5898437,64.5669251 C54.7912751,64.7348939 55.0268249,64.8694001 55.2951813,64.9028626 C54.9257812,64.0295563 54.6567689,63.1227874 54.4888001,62.1819001 Z" id="Shape"></path>
                    <path d="M71.890625,56.2360687 L69.6735687,56.2360687 C69.4045563,56.2360687 69.1361999,56.1015625 68.9682311,55.8666686 C67.9938812,54.3884124 66.3811188,53.5151061 64.6010436,53.5151061 L62.8872376,53.5151061 C62.0139313,53.5151061 61.1740876,53.9848939 60.7377624,54.7578125 C60.5022126,55.1606751 59.9983063,55.2951813 59.5954437,55.0602874 C59.0580749,54.7243499 58.4196624,54.6233063 57.8147126,54.7578125 C57.1428376,54.8923187 56.5720062,55.2951813 56.2360687,55.9001312 C56.0680999,56.1350251 55.7990876,56.3029938 55.5307311,56.3029938 L45.4860687,56.3029938 C45.2170563,56.3029938 44.9486999,56.1684876 44.7807311,55.9335937 C43.8063812,54.4553376 42.1936188,53.5820312 40.4135436,53.5820312 L38.6997376,53.5820312 C37.8264313,53.5820312 36.9865876,54.0524749 36.5502624,54.8247376 C36.3147126,55.2282562 35.8108063,55.3627624 35.4079437,55.1272126 C34.8705749,54.7912751 34.2321624,54.6908874 33.6272126,54.8247376 C32.9553376,54.9592438 32.3845062,55.3627624 32.0485687,55.9670563 C31.8805999,56.2026061 31.6115876,56.3705749 31.3432311,56.3705749 L21.2309876,56.3705749 C20.9626312,56.3705749 20.6936188,56.2360687 20.5256501,56.0005189 C19.5513001,54.5229186 17.9391937,53.6489564 16.1584626,53.6489564 L14.4453125,53.6489564 C13.5720062,53.6489564 12.7321624,54.1194001 12.2951813,54.8923187 C12.0602874,55.2951813 11.5563812,55.4296875 11.1528626,55.1947936 C10.6154938,54.8588561 9.97708138,54.7578125 9.37278743,54.8923187 C8.70091243,55.0268249 8.12942513,55.4296875 7.79348763,56.0346374 C7.62551888,56.2695312 7.35716243,56.4375 7.08815007,56.4375 L5.67747493,56.4375 C3.82981868,56.4375 2.3515625,54.9592438 2.3515625,53.1115876 L2.3515625,7.28958138 C2.3515625,6.81979362 2.72096257,6.44973763 3.19140625,6.44973763 L74.4101562,6.44973763 C74.8805999,6.44973763 75.25,6.81979362 75.25,7.28958138 L75.25,52.9101562 C75.2165374,54.7578125 73.7382812,56.2360687 71.890625,56.2360687 Z M70.1098939,54.5563812 L71.890625,54.5563812 C72.7973939,54.5563812 73.5368499,53.8169251 73.5368499,52.9101563 L73.5368499,8.12942513 L3.99778743,8.12942513 L3.99778743,52.9101563 C3.99778743,53.8169251 4.73658757,54.5563812 5.64401237,54.5563812 L6.61770638,54.5563812 C7.22265625,53.7834626 8.0625,53.2460938 9.03684993,53.078125 C9.80911263,52.9101563 10.5820313,52.9770814 11.3208314,53.2460938 C12.1272126,52.3393249 13.2695313,51.8354186 14.4453125,51.8354186 L16.1584626,51.8354186 C18.3085938,51.8354186 20.3576813,52.8432311 21.6345062,54.5898438 L30.8052064,54.5898438 C31.4101563,53.8169251 32.25,53.2795563 33.2243499,53.1115876 C33.9966126,52.9436188 34.7695313,53.0111999 35.5083314,53.2795563 C36.3147126,52.3727874 37.4570313,51.8688812 38.6328125,51.8688812 L40.3459626,51.8688812 C42.4960938,51.8688812 44.5451813,52.8766937 45.8220062,54.6233063 L54.9927064,54.6233063 C55.5976563,53.8510436 56.4375,53.3130189 57.4118499,53.1450501 C58.1841126,52.9770814 58.9570312,53.0446624 59.6958314,53.3130189 C60.5022126,52.40625 61.6445313,51.9023438 62.8203125,51.9023438 L64.5334626,51.9023438 C66.7846374,51.8354186 68.8337249,52.8432311 70.1098939,54.5563812 Z" id="Shape"></path>
                </g>
                <path d="M69.1696624,17.3677064 L35.609375,17.3677064 C35.7773438,17.7712249 35.8783874,18.2416686 35.8783874,18.6779938 L35.8783874,23.2131501 C36.8861999,24.1875 36.9196624,25.7661439 35.9787751,26.7739564 C35.4079437,27.3789063 34.5680999,27.6479186 33.7282562,27.5134124 C33.59375,29.5959626 32.3845062,31.4436188 30.5703125,32.4179688 L30.5703125,34.7695313 L33.3923187,36.1802064 L36.4157562,36.953125 C37.4904938,37.2221374 38.4648438,37.8598939 39.2036439,38.7338561 L42.2946624,42.9330749 C42.3950501,43.0669251 42.5630189,43.1010436 42.6975251,43 L47.8710938,38.3303376 L49.4162751,36.9196624 C51.4319001,35.2399749 54.3884124,37.1880189 53.6489564,39.6740876 C53.5151061,40.1779938 53.2126312,40.6149749 52.8091126,40.9509124 L51.2973939,42.1936188 L51.2639313,42.2270814 L45.1835937,47.3002624 L67.2209626,47.3002624 C68.2963561,47.3002624 69.1696624,46.4263001 69.1696624,45.3515625 L69.1696624,17.3677064 Z" id="Path" fill="#E9E9EA"></path>
                <path d="M34.8364564,44.1423187 L34.8364564,47.3337249 L38.5993499,47.3337249 L35.5759124,43.8063812 C35.4079437,43.6384124 35.1054688,43.671875 34.9375,43.8398438 C34.8705749,43.9067689 34.8364564,44.0078125 34.8364564,44.1423187 Z" id="Path" fill="#E9E9EA"></path>
                <path d="M63.9291686,28.3197936 C63.9291686,31.8819123 61.0408936,34.7695313 57.4787751,34.7695313 C53.9166566,34.7695313 51.0290374,31.8819123 51.0290374,28.3197936 C51.0290374,24.757019 53.9166566,21.8694001 57.4787751,21.8694001 C61.0408936,21.8694001 63.9291686,24.757019 63.9291686,28.3197936 Z" id="Path" fill="#60BAE2"></path>
                <path d="M57.4787751,21.8694001 L57.4787751,28.3197936 L63.9291686,28.3197936 C63.9291686,24.7583314 61.0395814,21.8694001 57.4787751,21.8694001 Z" id="Path" fill="#F75C64"></path>
                <path d="M57.4787751,28.3197936 L61.3420563,33.4927064 C62.9548187,32.2834626 63.9291686,30.3688812 63.9291686,28.3197936 L57.4787751,28.3197936 Z" id="Path" fill="#FFAE2C"></path>
                <path d="M53.1791686,37.2555999 C52.2717438,36.1132812 50.5920563,35.9453125 49.4497376,36.8520814 C49.4497376,36.8520814 49.4162751,36.8861999 49.4162751,36.8861999 L42.6975251,42.9665374 C42.5630189,43.0669251 42.3950501,43.0669251 42.2946624,42.9330749 L39.2036439,38.7338561 C38.4983063,37.8598939 37.5239564,37.2555999 36.4157562,36.953125 L33.3923187,36.1802064 L30.5703125,34.7695312 L29.6294251,37.5239564 C29.5625,37.6919251 29.4279938,37.7929687 29.2600251,37.7929687 L26.3376312,37.7929687 C26.1696624,37.7929687 26.0016937,37.6919251 25.9682311,37.5239564 L25.0273437,34.7695312 L22.2053376,36.1802064 L17.5022126,37.3559876 C16.4944001,37.625 15.7555999,38.4983063 15.6880189,39.5395814 L15.0161439,51.7678376 L34.8364564,51.7678376 L34.8364564,44.1088561 C34.8364564,43.8733063 35.0385436,43.671875 35.2734375,43.671875 C35.3744811,43.671875 35.4748688,43.7053376 35.5759124,43.7729186 L40.0100251,48.9123688 C40.8164062,49.7522126 42.1266937,49.8197936 43.0334626,49.0803376 L52.8432311,40.9174499 C53.9179687,40.0100251 54.0859375,38.3638001 53.1791686,37.2555999 Z" id="Path" fill="#60BAE2"></path>
                <path d="M21.2309876,22.5078125 C21.3654938,22.5078125 21.5,22.5078125 21.6345062,22.5412751 L21.6345062,22.2388001 C21.6345062,22.0708314 21.7690124,21.9028626 21.9704437,21.9028626 L22.0373688,21.9028626 C23.1462249,22.1384124 26.4045563,22.5412751 28.6216126,19.7533874 C28.7226562,19.6188812 28.9240876,19.5854186 29.0920563,19.6858063 C29.0920563,19.6858063 29.1255189,19.6858063 29.1255189,19.7192689 C29.6294251,20.2231751 30.9731751,21.2309876 33.4927064,21.2985687 C33.6606751,21.2985687 33.7951813,21.4330749 33.7951813,21.6010436 L33.7951813,21.7014313 L33.7951813,22.5412751 C34.5680999,22.4067689 35.3744811,22.6757812 35.9453125,23.2131501 L35.9453125,18.6779938 C35.9453125,16.7634124 34.4001312,15.2182311 32.4848939,15.2182311 C31.8471374,15.2182311 31.2421875,15.3861999 30.7048187,15.7221374 C30.0664062,14.6802064 28.9575501,14.0424499 27.7483063,14.0424499 L25.9682311,14.0424499 C22.5078125,14.0424499 19.7192689,16.8303376 19.7192689,20.2907562 L19.7192689,23.0786439 C20.0893249,22.7092438 20.6601562,22.5078125 21.2309876,22.5078125 Z" id="Path" fill="#6D6C6B"></path>
                <path d="M69.1696624,13.0346374 L30.5703125,13.0346374 C29.8315124,13.0346374 29.1596374,13.5385436 28.9575501,14.2773437 C29.6635436,14.5463561 30.2678376,15.0837249 30.6372376,15.7221374 C31.1752624,15.3861999 31.7795563,15.2182311 32.4179687,15.2182311 C33.8286439,15.2182311 35.0720062,16.0580749 35.609375,17.3677064 L69.1696624,17.3677064 C70.0764313,17.3677064 70.8158874,16.6289062 70.8158874,15.7221374 L70.8158874,14.7143249 C70.8158874,13.7734375 70.0764313,13.0346374 69.1696624,13.0346374 Z" id="Path" fill="#6D6C6B"></path>
                <path d="M34.1311188,22.5078125 C33.9966126,22.5078125 33.8627624,22.5078125 33.7282562,22.5412751 L33.7282562,22.9447936 L33.7282562,27.1098939 L33.7282562,27.5134124 C35.1054688,27.7483063 36.4157562,26.8080749 36.6171875,25.4302064 C36.8520814,24.0529938 35.9118499,22.7427064 34.5346374,22.5412751 C34.4001312,22.5412751 34.265625,22.5078125 34.1311188,22.5078125 Z" id="Path" fill="#F9D0B4"></path>
                <path d="M21.6010436,27.1440124 L21.6010436,22.9782562 C21.6010436,22.84375 21.6010436,22.7092438 21.6010436,22.5747376 C20.2231751,22.3398438 18.9135436,23.2807311 18.6779938,24.6579437 C18.4430999,26.0351563 19.3833314,27.3454437 20.7611999,27.5803376 C21.0295563,27.6138001 21.3320312,27.6138001 21.6010436,27.5803376 C21.6010436,27.4123688 21.6010436,27.2778626 21.6010436,27.1440124 Z" id="Path" fill="#F9D0B4"></path>
                <path d="M28.5881501,19.7868499 C26.3710938,22.5747376 23.1127624,22.171875 22.0039062,21.9369811 C21.8359375,21.9028626 21.6679688,22.0039062 21.6345062,22.171875 L21.6345062,22.2388001 L21.6345062,27.1098939 C21.6345062,30.4692689 24.3554688,33.1567689 27.6813812,33.1567689 C31.0407562,33.1567689 33.7282562,30.4358063 33.7282562,27.1098939 L33.7282562,21.7348939 C33.7282562,21.7014313 33.7282562,21.6679688 33.7282562,21.6345062 C33.7282562,21.4665374 33.59375,21.3320312 33.4257812,21.3320312 C30.90625,21.2651061 29.5959626,20.2572936 29.0585938,19.7533874 C28.9240876,19.6188812 28.7226562,19.6188812 28.5881501,19.7868499 Z" id="Path" fill="#F9D0B4"></path>
                <path d="M27.6813812,33.1908874 C26.7404938,33.1908874 25.8002624,32.9553376 24.9938812,32.5524749 L24.9938812,34.8029938 L25.9341126,37.5580749 C26.0016937,37.7260436 26.1361999,37.8264313 26.3041686,37.8264313 L29.2265625,37.8264313 C29.3945312,37.8264313 29.5625,37.7260436 29.5959626,37.5580749 L30.5368499,34.8029938 L30.5368499,32.4848939 C29.6635436,32.9553376 28.6891937,33.1908874 27.6813812,33.1908874 Z" id="Path" fill="#F9D0B4"></path>
                <path d="M49.4162751,36.8861999 L47.8710938,38.296875 L51.2973939,42.2270814 L52.8432311,40.9509124 C53.9514313,40.0100251 54.1194001,38.3303376 53.1791686,37.2221374 C52.2048187,36.0798187 50.5251312,35.9453125 49.4162751,36.8861999 Z" id="Path" fill="#F9D0B4"></path>
                <path d="M34.1311188,28.4201813 C33.9631501,28.4201813 33.7617188,28.4201813 33.59375,28.3867187 C33.1567689,28.3197936 32.8549499,27.9497376 32.8884124,27.5134124 C32.8884124,27.4123688 32.8884124,27.2778626 32.8884124,27.1774749 L32.8884124,22.9782562 C32.8884124,22.84375 32.8884124,22.7427064 32.8884124,22.6423187 C32.8549499,22.2053376 33.1567689,21.8359375 33.59375,21.7690124 C33.7617188,21.7348939 33.9631501,21.7348939 34.1311188,21.7348939 C35.9787751,21.7014313 37.5239564,23.2131501 37.5239564,25.0608063 C37.5580749,26.9084626 36.0463561,28.4536439 34.1986999,28.4536439 C34.1645814,28.4201813 34.1311188,28.4201813 34.1311188,28.4201813 Z M34.5680999,23.4145814 L34.5680999,26.6735687 C35.4748688,26.4380189 35.9787751,25.4977874 35.7438812,24.5903626 C35.5759124,24.0195312 35.1389313,23.5825501 34.5680999,23.4145814 Z" id="Shape" fill="#231F20"></path>
                <path d="M21.2309876,28.4201813 C19.3833314,28.4536439 17.8381501,26.9419251 17.8381501,25.0942689 C17.8046875,23.2466126 19.3164062,21.7014313 21.1640625,21.7014313 L21.2309876,21.7014313 C21.3989564,21.7014313 21.6010436,21.7014313 21.7690124,21.7348939 C22.2053376,21.8024749 22.5078125,22.171875 22.4743499,22.6088561 L22.4743499,22.9447936 L22.4743499,27.1098939 L22.4743499,27.4458314 C22.5078125,27.8828125 22.2053376,28.2522126 21.7690124,28.3197936 C21.5669251,28.4201813 21.3989564,28.4201813 21.2309876,28.4201813 Z M20.7611999,23.4145814 C19.8537751,23.6501312 19.3498688,24.5903626 19.5854186,25.4977874 C19.7533874,26.0686188 20.1897126,26.5055999 20.7611999,26.6735687 L20.7611999,23.4145814 Z" id="Shape" fill="#231F20"></path>
                <path d="M27.6813812,34.0307311 C23.8850251,34.0307311 20.7946624,30.9397126 20.7946624,27.1440124 L20.7946624,22.2729186 C20.7946624,21.6345062 21.2985687,21.0971374 21.9704437,21.0971374 C22.0373688,21.0971374 22.1384124,21.0971374 22.2053376,21.1305999 C23.3141937,21.3654938 26.0686188,21.6345062 27.9497376,19.2829437 C28.3532562,18.7790374 29.0920563,18.6779938 29.5959626,19.0815124 C29.6294251,19.1149749 29.6635436,19.1484375 29.6970062,19.1484375 C30.0664063,19.5178376 31.2087249,20.4252624 33.4927064,20.4921875 C34.0976563,20.5256501 34.6015625,20.9960938 34.6350251,21.6345062 L34.6350251,27.1440124 C34.5680999,30.9397126 31.4770814,34.0307311 27.6813812,34.0307311 Z M22.4408874,22.8772126 L22.4408874,27.1440124 C22.4408874,30.0329437 24.7924499,32.3510436 27.6479186,32.3510436 C30.5033874,32.3510436 32.8884124,30.0329437 32.8884124,27.1440124 L32.8884124,22.1384124 C31.4436188,22.0708314 30.0329437,21.5669251 28.890625,20.7270814 C26.7404938,23.0451813 23.8850251,23.0451813 22.4408874,22.8772126 Z" id="Shape" fill="#231F20"></path>
                <path d="M35.8783874,24.0864564 C35.6763001,24.0864564 35.4414062,23.9860687 35.3069001,23.8515625 C34.9375,23.4821624 34.4001312,23.3141937 33.8627624,23.4145814 C33.3923187,23.4821624 32.9888001,23.1796875 32.8884124,22.7092438 C32.8884124,22.6757812 32.8884124,22.6088561 32.8884124,22.5747376 L32.8884124,22.171875 C31.4436188,22.1049499 30.0329437,21.6010436 28.890625,20.7611999 C26.7070312,23.1127624 23.8180999,23.1127624 22.4067689,22.9106751 C22.2729186,23.2807311 21.8694001,23.4821624 21.5,23.4145814 C21.0295563,23.3476562 20.5591126,23.4486999 20.1897126,23.7505189 C19.8203125,24.0529938 19.2829437,23.9860687 19.0139313,23.6166686 C18.8794251,23.4821624 18.8125,23.2807311 18.8125,23.0786439 L18.8125,20.2907562 C18.8125,16.3598939 22.0039062,13.2026061 25.9006501,13.2026061 L27.6813812,13.2026061 C28.9240876,13.2026061 30.0998688,13.7399749 30.90625,14.6802064 C31.3766937,14.5122376 31.8805999,14.4118499 32.4179688,14.4118499 C34.8029938,14.4118499 36.7182311,16.3264313 36.7182311,18.7114564 L36.7182311,23.2466126 C36.7182311,23.6835937 36.3481751,24.0864564 35.8783874,24.0864564 Z M34.5680999,21.7014313 C34.7360687,21.7348939 34.8705749,21.7690124 35.0385436,21.8024749 L35.0385436,18.6779938 C35.0385436,17.2338561 33.8627624,16.0580749 32.4514313,16.0580749 C31.9809876,16.0580749 31.5111999,16.1919251 31.1076813,16.4274749 C30.7048187,16.6623688 30.2009124,16.5278626 29.9653626,16.125 C29.4955749,15.3186188 28.6557311,14.8481751 27.7148438,14.8481751 L25.9341126,14.8481751 C22.9447936,14.8481751 20.5256501,17.2673187 20.5256501,20.2572936 L20.5256501,21.7348939 C20.6601562,21.7014313 20.828125,21.6679688 20.9626312,21.6679688 C21.1975251,21.2309876 21.7348939,20.9960938 22.2053376,21.0971374 C23.3141937,21.3320312 26.0686188,21.6010436 27.9497376,19.2494811 C28.3532562,18.7455749 29.0920563,18.6445312 29.5959626,19.0473939 C29.6294251,19.0815124 29.6635436,19.1149749 29.6970062,19.1149749 C30.0664062,19.484375 31.2087249,20.3911439 33.4927064,20.4587249 C34.0976562,20.4921875 34.6015625,20.9626312 34.6350251,21.6010436 L34.5680999,21.7014313 Z" id="Shape" fill="#231F20"></path>
                <path d="M27.7483063,41.9921875 C27.5134124,41.9921875 27.3119811,41.8911439 27.1440124,41.7572936 C27.1098939,41.7231751 27.0764313,41.6897126 27.0429688,41.6227874 C27.0095062,41.5893249 26.9760436,41.5217438 26.9760436,41.4882812 C26.9419251,41.4213561 26.9419251,41.3872376 26.9419251,41.3203125 C26.9419251,41.2533874 26.9419251,41.2192689 26.9084626,41.1523437 C26.9084626,40.9174499 27.0095062,40.7153626 27.1440124,40.5473939 C27.1774749,40.5139313 27.2109375,40.4804687 27.2778626,40.4470062 C27.3789062,40.3794251 27.4799499,40.3459626 27.5803376,40.3125 C27.6813812,40.2790374 27.8158874,40.2790374 27.9162751,40.3125 C28.0173187,40.3459626 28.1177064,40.3794251 28.21875,40.4470062 C28.2522126,40.4804687 28.3197936,40.5139313 28.3532562,40.5473939 C28.5212249,40.7153626 28.5881501,40.9174499 28.5881501,41.1523437 C28.5881501,41.2192689 28.5881501,41.2533874 28.5546875,41.3203125 C28.5546875,41.3872376 28.5212249,41.4213561 28.5212249,41.4882812 C28.4877624,41.5552064 28.4877624,41.5893249 28.4536439,41.6227874 C28.4201813,41.65625 28.3867188,41.7231751 28.3532562,41.7572936 C28.1852874,41.8911439 27.9838561,41.9921875 27.7483063,41.9921875 Z" id="Path" fill="#231F20"></path>
                <path d="M27.7483063,45.2170563 C27.5134124,45.2170563 27.3119811,45.1166686 27.1440124,44.9821624 C27.1098939,44.9486999 27.0764313,44.9145814 27.0429688,44.8476562 C27.0095062,44.8141937 26.9760436,44.7466126 26.9760436,44.7131501 C26.9419251,44.6462249 26.9419251,44.6127624 26.9419251,44.5451813 C26.9084626,44.4447936 26.9084626,44.3102874 26.9419251,44.2092438 C26.9419251,44.1423187 26.9760436,44.1088561 26.9760436,44.0412751 C27.0095062,44.0078125 27.0095062,43.9408874 27.0429688,43.9067689 C27.0764313,43.8733063 27.1098939,43.8063812 27.1440124,43.7729186 C27.3789062,43.5373688 27.7483063,43.4704437 28.0507812,43.6049499 C28.1177064,43.6384124 28.1518249,43.6384124 28.1852874,43.671875 C28.21875,43.7053376 28.2856751,43.7388001 28.3197936,43.7729186 C28.3532562,43.8063812 28.3867188,43.8398438 28.4201813,43.9067689 C28.4536439,43.9408874 28.4877624,44.0078125 28.4877624,44.0412751 C28.5212249,44.1088561 28.5212249,44.1423187 28.5212249,44.2092438 C28.5546875,44.3102874 28.5546875,44.4447936 28.5212249,44.5451813 C28.5212249,44.6127624 28.4877624,44.6462249 28.4877624,44.7131501 C28.4536439,44.7807311 28.4536439,44.8141937 28.4201813,44.8476562 C28.3867188,44.8811188 28.3532562,44.9486999 28.3197936,44.9821624 C28.2856751,45.015625 28.2522126,45.0490876 28.1852874,45.0825501 C28.1518249,45.1166686 28.0842438,45.1501312 28.0507812,45.1501312 C27.9838561,45.1835938 27.9497376,45.1835938 27.8828125,45.1835938 C27.8828125,45.2170563 27.8158874,45.2170563 27.7483063,45.2170563 Z" id="Path" fill="#231F20"></path>
                <path d="M27.7483063,48.4760436 C27.6813812,48.4760436 27.6479186,48.4760436 27.5803376,48.4419251 C27.5134124,48.4419251 27.4799499,48.4084626 27.4123688,48.4084626 C27.2444001,48.3415374 27.1098939,48.2404938 27.0429688,48.1059876 C27.0095062,48.0725251 26.9760436,48.0055999 26.9760436,47.9721374 C26.9419251,47.9380189 26.9419251,47.8710937 26.9419251,47.8041686 C26.9419251,47.7365876 26.9419251,47.703125 26.9084626,47.6361999 C26.9084626,47.5686188 26.9084626,47.5351562 26.9419251,47.4682311 C26.9419251,47.4006501 26.9760436,47.3671875 26.9760436,47.3002624 C27.0095062,47.2661439 27.0095062,47.1992187 27.0429688,47.1657562 C27.0764313,47.1322936 27.1098939,47.0647126 27.1440124,47.03125 C27.1774749,46.9977874 27.2109375,46.9643249 27.2778626,46.9302064 C27.3119811,46.8967438 27.3789062,46.8632812 27.4123688,46.8632812 C27.4458314,46.8298187 27.5134124,46.8298187 27.5803376,46.8298187 C27.6813812,46.7963561 27.8158874,46.7963561 27.9162751,46.8298187 C28.0173187,46.8632812 28.1177064,46.8967438 28.21875,46.9643249 C28.2522126,46.9977874 28.3197936,47.03125 28.3532562,47.0647126 C28.3867188,47.0981751 28.4201813,47.1322936 28.4536439,47.1992187 C28.4877624,47.2326813 28.5212249,47.3002624 28.5212249,47.3337249 C28.5546875,47.4006501 28.5546875,47.4341126 28.5546875,47.5016937 C28.5546875,47.5686188 28.5881501,47.6020814 28.5881501,47.6696624 C28.5881501,47.7365876 28.5881501,47.7700501 28.5546875,47.8376312 C28.5546875,47.9045563 28.5212249,47.9380189 28.5212249,48.0055999 C28.4877624,48.0725251 28.4877624,48.1059876 28.4536439,48.1401061 C28.4201813,48.1735687 28.3867188,48.2404938 28.3532562,48.2739564 C28.3197936,48.3080749 28.2856751,48.3415374 28.21875,48.375 C28.1852874,48.4084626 28.1177064,48.4419251 28.0842438,48.4419251 C28.0173187,48.4760436 27.9838561,48.4760436 27.9162751,48.4760436 C27.8828125,48.4419251 27.8158874,48.4760436 27.7483063,48.4760436 Z" id="Path" fill="#231F20"></path>
                <path d="M20.4921875,52.6076813 C20.0217438,52.6076813 19.6523438,52.2382812 19.6523438,51.7678376 L19.6523438,44.0078125 C19.6523438,43.5373688 20.0217438,43.1679688 20.4921875,43.1679688 C20.9626312,43.1679688 21.3320313,43.5373688 21.3320313,44.0078125 L21.3320313,51.7678376 C21.3320313,52.2382812 20.9626312,52.6076813 20.4921875,52.6076813 Z" id="Path" fill="#231F20"></path>
                <path d="M29.2265625,38.6662751 L26.3041686,38.6662751 C25.7661439,38.6662751 25.2963561,38.3303376 25.1283874,37.8264313 L24.1875,35.0720062 C24.1540374,34.9709626 24.1540374,34.9040374 24.1540374,34.8029938 L24.1540374,32.5524749 C24.1540374,32.0820312 24.5234375,31.7126312 24.9938812,31.7126312 C25.1283874,31.7126312 25.2622376,31.7460937 25.3632813,31.8130189 C26.0686188,32.1830749 26.875,32.3845062 27.6813812,32.3510436 C28.5546875,32.3510436 29.3945313,32.1489564 30.1674499,31.7126312 C30.5703125,31.4770814 31.0742188,31.6450501 31.3091126,32.0485687 C31.3766937,32.1830749 31.4101563,32.3169251 31.4101563,32.4514313 L31.4101563,34.7695312 C31.4101563,34.8705749 31.4101563,34.9709626 31.3766937,35.0385436 L30.4358063,37.7929688 C30.234375,38.3303376 29.7639313,38.6662751 29.2265625,38.6662751 Z M26.6059876,36.9865876 L28.890625,36.9865876 L29.6970062,34.6684876 L29.6970062,33.7282562 C28.4201813,34.1311188 27.0764313,34.1311188 25.8002624,33.7951813 L25.8002624,34.6684876 L26.6059876,36.9865876 Z" id="Shape" fill="#231F20"></path>
                <path d="M69.1696624,18.2075501 L35.609375,18.2075501 C35.2734375,18.2075501 34.9709626,18.0061188 34.8364564,17.7036439 C34.2990876,16.3598939 32.7873688,15.7221374 31.4436188,16.2595062 C31.3091126,16.3264313 31.2087249,16.3598939 31.0742187,16.4274749 C30.6713561,16.6623688 30.1674499,16.5278626 29.9319001,16.125 C29.6294251,15.6210938 29.1930999,15.2516937 28.6557311,15.0161439 C28.2522126,14.8481751 28.0507812,14.4453125 28.1518249,14.0083314 C28.4536439,12.9001312 29.4279938,12.1606751 30.5703125,12.1606751 L69.1696624,12.1606751 C70.546875,12.1606751 71.6557311,13.2695312 71.6557311,14.6467438 L71.6557311,15.6545563 C71.6557311,17.0993499 70.546875,18.2075501 69.1696624,18.2075501 Z M36.1467438,16.5278626 L69.1696624,16.5278626 C69.6059876,16.5278626 69.9760436,16.1584626 69.9760436,15.7221374 L69.9760436,14.7143249 C69.9760436,14.2773438 69.6059876,13.9079437 69.1696624,13.9079437 L30.5703125,13.9079437 C30.4358063,13.9079437 30.3013001,13.9414062 30.1674499,14.0083314 C30.4358063,14.2104186 30.7048187,14.4453125 30.90625,14.6802064 C32.8884124,13.9079437 35.0720062,14.7143249 36.1467438,16.5278626 Z" id="Shape" fill="#231F20"></path>
                <path d="M34.8364564,52.6076813 L15.0161439,52.6076813 C14.5463561,52.6076813 14.1763001,52.2382813 14.1763001,51.7678376 L14.1763001,51.734375 L14.78125,39.5395814 C14.8481751,38.1289063 15.8559876,36.9196624 17.2338561,36.5837249 L21.8694001,35.4079437 L24.6244811,34.0641937 C25.0273438,33.8627624 25.53125,34.0307311 25.7326813,34.4335938 C25.7326813,34.4670563 25.7661439,34.5005189 25.7661439,34.5346374 L26.6059876,36.9865876 L28.890625,36.9865876 L29.7304688,34.5346374 C29.8984375,34.0976563 30.3688812,33.8627624 30.8052064,34.0307311 C30.8393249,34.0307311 30.8727874,34.0641937 30.90625,34.0641937 L33.6606751,35.4079437 L36.6171875,36.1467438 C37.8940124,36.4826813 39.0022126,37.1880189 39.8420563,38.1958314 L39.8755189,38.2299499 L42.5971374,41.9252624 L48.8789063,36.2477874 C50.3236999,35.0044251 52.5407562,35.1723939 53.7834626,36.6171875 C53.8169251,36.6506501 53.8169251,36.6841126 53.8510436,36.6841126 C55.0268249,38.1623688 54.8247376,40.3125 53.3805999,41.5552064 L43.5708314,49.7522126 C42.328125,50.7934876 40.5139313,50.6596374 39.4057311,49.5173187 C39.4057311,49.5173187 39.3716126,49.4838561 39.3716126,49.4838561 L35.6763001,45.2170563 L35.6763001,51.7678376 C35.6763001,52.2382812 35.3069001,52.6076813 34.8364564,52.6076813 Z M15.9235687,50.9279938 L34.0307311,50.9279938 L34.0307311,44.1088561 C34.0307311,43.4028626 34.6015625,42.8320313 35.3069001,42.8320313 C35.609375,42.8320313 35.9118499,42.9330749 36.1467438,43.1345062 C36.1802064,43.1679688 36.2143249,43.2014313 36.2477874,43.2348939 L40.6484375,48.3415374 C41.1523438,48.8454437 41.9587249,48.8789063 42.4960938,48.4419251 L52.3052064,40.2790374 C53.0446624,39.640625 53.1791686,38.5317689 52.5407562,37.7595062 C51.9023438,36.9865876 50.7934876,36.8520814 49.9877624,37.4904938 C49.9877624,37.4904938 49.9536439,37.5239564 49.9536439,37.5239564 L43.2348939,43.6049499 C43,43.8063812 42.6640625,43.9067689 42.3615876,43.8733063 C42.0591126,43.8398438 41.7572936,43.671875 41.5893249,43.4369811 L38.5317689,39.2377624 C37.9274749,38.5317689 37.1210938,37.9944001 36.2143249,37.7595062 L33.1908874,36.9865876 C33.1233063,36.9865876 33.0898438,36.953125 33.0229186,36.9196624 L31.0407562,35.9453125 L30.4023437,37.7929688 C30.234375,38.296875 29.7639313,38.6328125 29.2265625,38.6328125 L26.3041686,38.6328125 C25.7661439,38.6328125 25.2963561,38.296875 25.1283874,37.7929688 L24.4899749,35.9787751 L22.5078125,36.953125 C22.4408874,36.9865876 22.4067689,36.9865876 22.3398437,37.0200501 L17.6367187,38.1958314 C16.9648437,38.3638001 16.4944001,38.9352874 16.4609375,39.6071624 L15.9235687,50.9279938 Z" id="Shape" fill="#231F20"></path>
                <path d="M51.2639313,43.0669251 C51.0290374,43.0669251 50.7934876,42.9665374 50.6255189,42.7651061 L47.1992188,38.8342438 C46.8967438,38.4983063 46.9302064,37.9609375 47.2661439,37.6584626 L48.8119811,36.2477874 L48.8454437,36.2143249 C50.3236999,34.9709626 52.5072936,35.1389313 53.75,36.6171875 C53.7834626,36.6506501 53.7834626,36.6506501 53.8169251,36.6841126 C54.9927064,38.1623688 54.7912751,40.3125 53.3471374,41.5552064 L51.8013001,42.8320313 C51.6674499,43 51.4653626,43.0669251 51.2639313,43.0669251 Z M49.0134124,38.3638001 L51.3315124,41.0513001 L52.2382813,40.2790374 C52.9770814,39.640625 53.1115876,38.5317689 52.4731751,37.7595062 C51.8354186,36.9865876 50.7265625,36.8520814 49.9201813,37.4904938 C49.9201813,37.4904938 49.9201813,37.4904938 49.8867188,37.5239564 L49.0134124,38.3638001 Z" id="Shape" fill="#231F20"></path>
                <path d="M67.2209626,48.1401061 L45.1835938,48.1401061 C44.7131501,48.1401061 44.34375,47.7700501 44.34375,47.3002624 C44.34375,47.0647126 44.4447936,46.8298187 44.6462249,46.6618499 L52.2717438,40.2790374 C52.5407562,40.0434876 52.7421875,39.7416686 52.8432311,39.4057311 C53.1115876,38.4313812 52.5742188,37.4570313 51.5998688,37.1545563 C51.0290374,36.9865876 50.390625,37.1210938 49.9201813,37.4904938 L43.2014313,43.5708314 C42.9665374,43.7729186 42.6305999,43.8733063 42.328125,43.8398438 C42.0256501,43.8063812 41.7231751,43.6384124 41.5552064,43.4028626 L38.4983063,39.2036439 C37.8940124,38.4983063 37.0876312,37.9609375 36.1802064,37.7260436 L33.1567689,36.953125 C33.0898438,36.953125 33.0563812,36.9196624 32.9888001,36.8861999 L30.1674499,35.4748688 C29.8649749,35.3403626 29.6970062,35.0385436 29.6970062,34.7360687 L29.6970062,32.4179688 C29.6970062,32.1154938 29.8649749,31.8130189 30.1333314,31.6791686 C31.7126312,30.8393249 32.7539062,29.2265625 32.8549499,27.4458314 C32.8884124,26.9760436 33.2912751,26.6401061 33.7617188,26.6735687 L33.8286439,26.6735687 C33.9296875,26.6735687 33.9966126,26.7070313 34.0976562,26.7070313 C35.0385436,26.7070313 35.7773438,25.9341126 35.7773438,25.0273438 C35.7773438,24.5569001 35.5759124,24.1205749 35.2734375,23.8180999 C35.1054688,23.6501312 35.0044251,23.4486999 35.0044251,23.2131501 L35.0044251,18.6779938 C35.0044251,18.3420563 34.9375,18.0061188 34.8029938,17.6701813 C34.6350251,17.2338561 34.8364564,16.7634124 35.2734375,16.5619811 C35.3744811,16.5278626 35.4748688,16.4944001 35.609375,16.4944001 L69.1696624,16.4944001 C69.6401061,16.4944001 70.0095062,16.8638001 70.0095062,17.3342438 L70.0095062,45.3180999 C70.0095062,46.8967438 68.7661439,48.1401061 67.2209626,48.1401061 Z M47.5016937,46.4604186 L67.2209626,46.4604186 C67.8259124,46.4604186 68.3298187,45.9565124 68.3298187,45.3515625 L68.3298187,18.2075501 L36.6841126,18.2075501 C36.7182311,18.3755189 36.7182311,18.5100251 36.7182311,18.6779938 L36.7182311,22.9106751 C37.2221374,23.515625 37.4904938,24.2885436 37.4904938,25.0608063 C37.4904938,26.8080749 36.1802064,28.2522126 34.4670563,28.4201813 C34.1311188,30.3013001 33.0229186,31.9475251 31.4101563,32.9553376 L31.4101563,34.2990876 L33.6947936,35.4414063 L36.6506501,36.1802064 C37.9274749,36.5161439 39.0356751,37.2221374 39.8755189,38.2299499 C39.8755189,38.2299499 39.9096374,38.2634124 39.9096374,38.2634124 L42.6305999,41.9587249 L48.9123688,36.28125 C50.390625,35.0385436 52.5742188,35.2065124 53.8169251,36.6506501 C54.5898438,37.5580749 54.8588561,38.7673187 54.5229186,39.9096374 C54.3208314,40.5815124 53.9514313,41.1523438 53.4140625,41.5893249 L47.5016937,46.4604186 Z" id="Shape" fill="#231F20"></path>
                <path d="M38.5993499,48.1401061 L34.8364564,48.1401061 C34.3666686,48.1401061 33.9966126,47.7700501 33.9966126,47.3002624 L33.9966126,44.1088561 C33.9966126,43.4028626 34.5680999,42.8320312 35.2734375,42.8320312 C35.5759124,42.8320312 35.8783874,42.9330749 36.1132812,43.1345062 C36.1467438,43.1679688 36.1802064,43.2014313 36.2143249,43.2348939 L39.2377624,46.7622376 C39.5395814,47.0981751 39.5061188,47.6361999 39.1367188,47.9380189 C39.0022126,48.0725251 38.8007812,48.1401061 38.5993499,48.1401061 Z M35.6763001,46.4604186 L36.7516937,46.4604186 L35.6763001,45.2170563 L35.6763001,46.4604186 Z" id="Shape" fill="#231F20"></path>
                <path d="M46.9643249,27.9162751 L39.640625,27.9162751 C39.1701813,27.9162751 38.8007813,27.546875 38.8007813,27.0764313 C38.8007813,26.6059876 39.1701813,26.2365876 39.640625,26.2365876 L46.9643249,26.2365876 C47.4341126,26.2365876 47.8041686,26.6059876 47.8041686,27.0764313 C47.8041686,27.546875 47.4341126,27.9162751 46.9643249,27.9162751 Z" id="Path" fill="#231F20"></path>
                <path d="M46.9643249,24.0864564 L39.640625,24.0864564 C39.1701813,24.0864564 38.8007813,23.7170563 38.8007813,23.2466126 C38.8007813,22.7768249 39.1701813,22.4067689 39.640625,22.4067689 L46.9643249,22.4067689 C47.4341126,22.4067689 47.8041686,22.7768249 47.8041686,23.2466126 C47.8041686,23.7170563 47.4341126,24.0864564 46.9643249,24.0864564 Z" id="Path" fill="#231F20"></path>
                <path d="M46.9643249,35.5759124 L39.640625,35.5759124 C39.1701813,35.5759124 38.8007813,35.2065124 38.8007813,34.7360687 C38.8007813,34.265625 39.1701813,33.8962249 39.640625,33.8962249 L46.9643249,33.8962249 C47.4341126,33.8962249 47.8041686,34.265625 47.8041686,34.7360687 C47.8041686,35.2065124 47.4341126,35.5759124 46.9643249,35.5759124 Z" id="Path" fill="#231F20"></path>
                <path d="M46.9643249,31.7460938 L39.640625,31.7460938 C39.1701813,31.7460938 38.8007813,31.3766937 38.8007813,30.90625 C38.8007813,30.4358063 39.1701813,30.0664062 39.640625,30.0664062 L46.9643249,30.0664062 C47.4341126,30.0664062 47.8041686,30.4358063 47.8041686,30.90625 C47.8041686,31.3766937 47.4341126,31.7460938 46.9643249,31.7460938 Z" id="Path" fill="#231F20"></path>
                <path d="M57.4787751,35.609375 C53.4475251,35.609375 50.1891937,32.3510436 50.1891937,28.3197936 C50.1891937,24.2885436 53.4475251,21.0295563 57.4787751,21.0295563 C61.5100251,21.0295563 64.7690124,24.2885436 64.7690124,28.3197936 C64.7690124,32.3510436 61.5100251,35.609375 57.4787751,35.609375 Z M57.4787751,22.7092438 C54.3884124,22.7092438 51.8688812,25.2287751 51.8688812,28.3197936 C51.8688812,31.4101562 54.3884124,33.9296875 57.4787751,33.9296875 C60.5697936,33.9296875 63.0893249,31.4101562 63.0893249,28.3197936 C63.0893249,25.2287751 60.5697936,22.7092438 57.4787751,22.7092438 Z" id="Shape" fill="#231F20"></path>
                <path d="M63.9291686,29.1596374 L57.4787751,29.1596374 C57.0083314,29.1596374 56.6389313,28.7895814 56.6389313,28.3197936 L56.6389313,21.8694001 C56.6389313,21.3989564 57.0083314,21.0295563 57.4787751,21.0295563 C61.5100251,21.0295563 64.7690124,24.2885436 64.7690124,28.3197936 C64.7690124,28.7895814 64.3989564,29.1596374 63.9291686,29.1596374 Z M58.3186188,27.4799499 L63.0217438,27.4799499 C62.6523437,25.0608063 60.7377624,23.1462249 58.3186188,22.7768249 L58.3186188,27.4799499 Z" id="Shape" fill="#231F20"></path>
                <path d="M61.3420563,34.2990876 C61.3085937,34.2990876 61.2751312,34.2990876 61.2075501,34.2990876 C60.9726562,34.265625 60.8046875,34.1645814 60.6701813,33.9631501 L56.8069001,28.7895814 C56.5385436,28.4201813 56.6054688,27.8828125 56.9748688,27.6138001 C57.109375,27.5134124 57.3108063,27.4458314 57.4787751,27.4458314 L63.9291686,27.4458314 C64.3989564,27.4458314 64.7690124,27.8158874 64.7690124,28.2856751 C64.7690124,30.5703125 63.6936188,32.7539062 61.8459626,34.1311188 C61.7114564,34.265625 61.5434876,34.2990876 61.3420563,34.2990876 Z M59.1584626,29.1596374 L61.4765625,32.25 C62.3164062,31.4101562 62.8537751,30.3354186 63.0217438,29.1596374 L59.1584626,29.1596374 Z" id="Shape" fill="#231F20"></path>
            </g>
        </g>
    </g>
</svg>