<?xml version="1.0" encoding="UTF-8"?>
<svg width="90px" height="99px" viewBox="0 0 90 99" version="1.1" xmlns="http://www.w3.org/2000/svg" xmlns:xlink="http://www.w3.org/1999/xlink">
    <!-- Generator: Sketch 52.4 (67378) - http://www.bohemiancoding.com/sketch -->
    <title>puzzle copy</title>
    <desc>Created with Sketch.</desc>
    <g id="Elementos" stroke="none" stroke-width="1" fill="none" fill-rule="evenodd">
        <g id="Ecuador/PorquePadeco" transform="translate(-559.000000, -766.000000)" fill-rule="nonzero">
            <g id="puzzle-copy" transform="translate(559.000000, 766.000000)">
                <path d="M88.2738056,30.5379909 C89.0446835,29.7675629 89.0446835,28.5344268 88.2738056,27.7256278 L67.8846862,7.34765635 C67.5760338,7.03993642 67.0362687,7.03993642 66.7283693,7.34765635 L60.7924584,13.2801025 C60.4838062,13.5885746 60.4838062,14.0505305 60.7149191,14.3590026 C62.7196533,16.9012646 62.256675,20.5607977 59.7129283,22.5636097 C57.5930139,24.2203307 54.6254349,24.2203307 52.5055205,22.5636097 C52.1968683,22.2942607 51.6962494,22.3326317 51.4259904,22.6411037 L45.4900797,28.5735499 C45.18218,28.8812698 45.18218,29.4207198 45.4900797,29.7291919 L51.4259904,35.6608859 C51.7346426,35.969358 51.7346426,36.4313139 51.5035299,36.739786 C49.4987955,39.282048 49.961774,42.9415811 52.5055205,44.9451452 C54.6254349,46.6011142 57.5930139,46.6011142 59.7129283,44.9451452 C60.0215805,44.6750441 60.5221996,44.7134151 60.7924584,45.0218872 L66.7283693,50.9543333 C67.0362687,51.2620532 67.5760338,51.2620532 67.8846862,50.9543333 L73.8198441,45.0218872 C74.1284963,44.7134151 74.5907221,44.7134151 74.8993743,44.9451452 C77.443121,46.9479572 81.1047912,46.4860012 83.1095256,43.9429871 C84.7664615,41.82431 84.7664615,38.858463 83.1095256,36.739786 C82.8392666,36.4313139 82.87766,35.930987 83.1863122,35.6608859 L88.2738056,30.5379909 Z" id="Path" fill="#6DCC6D"></path>
                <path d="M69.387296,56.2698353 L60.8308518,56.2698353 C60.4838062,56.2698353 60.1759068,56.5399364 60.0983672,56.9251504 C59.7513216,60.1219754 56.8605294,62.4332595 53.6618374,62.0871686 C50.9253714,61.7786965 48.8054571,59.6216485 48.4968047,56.9251504 C48.4584113,56.5783074 48.1497591,56.2698353 47.7643201,56.2698353 L38.4753914,56.2698353 L38.4753914,66.2470286 C35.2375535,66.2470286 32.6170203,68.8667847 32.6170203,72.1027328 C32.6170203,75.3379287 35.2375535,77.9576848 38.4753914,77.9576848 L38.4753914,87.9348781 L48.4584113,87.9348781 C48.4584113,91.1708261 51.0789448,93.7898301 54.3167827,93.7898301 C57.5546205,93.7898301 60.1759068,91.1708261 60.1759068,87.9348781 L68.1541923,87.9348781 C69.2337226,87.9348781 70.1197805,87.048585 70.1197805,85.970437 L70.1197805,57.0402634 C70.1197805,56.5783074 69.7727349,56.2698353 69.387296,56.2698353 Z" id="Path" fill="#FFAE2C"></path>
                <path d="M38.4753914,66.2470286 L38.4753914,56.2698353 L28.4923715,56.2698353 C28.4923715,53.0346394 25.8718382,50.4148833 22.6340002,50.4148833 C19.3961623,50.4148833 16.7748763,53.0346394 16.7748763,56.2698353 L6.83100231,56.2698353 L6.83100231,66.2470286 C3.59316443,66.2470286 0.971878394,68.8667847 0.971878394,72.1027328 C0.971878394,75.3379287 3.59316443,77.9576848 6.83100231,77.9576848 L6.83100231,85.9313139 C6.83100231,87.010214 7.71706041,87.8965071 8.79659056,87.8965071 L38.4753914,87.8965071 L38.4753914,77.9193139 C35.2375535,77.9193139 32.6170203,75.2995577 32.6170203,72.0636097 C32.6170203,68.8284137 35.2375535,66.2086576 38.4753914,66.2470286 Z" id="Path" fill="#EA4647"></path>
                <path d="M39.0919433,34.6594799 C38.7448977,34.6211089 38.436998,34.3126369 38.436998,33.966546 L38.436998,25.3759728 C38.436998,24.9907588 38.1283458,24.6439157 37.7045135,24.6439157 L8.79659056,24.6439157 C7.71706041,24.6439157 6.83100231,25.5302088 6.83100231,26.6083567 L6.83100231,33.966546 C6.83100231,34.3126369 7.06211518,34.582738 7.40916077,34.6211089 C10.6078527,34.929581 12.9596327,37.8186861 12.6509803,41.0155111 C12.3814742,43.7895032 10.1840203,45.9849222 7.40916077,46.2542711 C7.06211518,46.2933942 6.83100231,46.5627432 6.83100231,46.9095862 L6.83100231,56.2698353 L16.8140224,56.2698353 C16.8140224,53.0346394 19.4345557,50.4148833 22.6723936,50.4148833 C25.9102314,50.4148833 28.5307649,53.0346394 28.5307649,56.2698353 L38.5137848,56.2698353 L38.5137848,46.9863282 C38.5137848,46.6394851 38.7840438,46.3317652 39.1694828,46.2933942 C42.3681745,45.9465512 44.6808084,43.0574461 44.3337628,39.859869 C43.9874699,37.086629 41.8284094,34.929581 39.0919433,34.6594799 Z" id="Path" fill="#55ACD5"></path>
                <g id="Group" transform="translate(0.000000, 6.163424)" fill="#231F20">
                    <path d="M67.3065278,45.9849222 C66.8435493,45.9849222 66.3813235,45.7923152 66.0342779,45.4454721 L60.2143,39.6288911 C57.2075749,41.9018041 52.9293529,41.2856121 50.6935058,38.242271 C48.8822437,35.8151219 48.8822437,32.5024319 50.6935058,30.0752828 L44.8735278,24.2587017 C44.1801894,23.5657678 44.1801894,22.4484967 44.8735278,21.7548107 L50.8094385,15.8223645 C51.4643837,15.2061725 52.4671273,15.1294306 53.1604657,15.6688806 C55.2803801,17.3248496 58.3638919,16.9396356 60.0215805,14.8209585 C61.4090103,13.0491245 61.4090103,10.5836044 60.0215805,8.8501414 C59.4818154,8.15720747 59.5202088,7.11667837 60.1759068,6.50048638 L66.1110647,0.568040235 C66.8051559,-0.1248937 67.9230794,-0.1248937 68.616418,0.568040235 L89.0062901,20.9460117 C90.1626071,22.1016537 90.1626071,23.9509818 89.0062901,25.1066238 L83.9955835,30.1144059 C86.269824,33.1186239 85.6532721,37.394349 82.6465471,39.6288911 C80.2187333,41.439096 76.9033559,41.439096 74.4755419,39.6288911 L68.6555642,45.4454721 C68.230979,45.7923152 67.7687533,45.9849222 67.3065278,45.9849222 Z M60.2143,37.6260791 C60.6765257,37.6260791 61.1395042,37.8186861 61.485797,38.126406 L67.3065278,43.9429871 L73.1265055,38.126406 C73.7814507,37.510214 74.7834416,37.4334721 75.4775327,37.97217 C77.5974471,39.6288911 80.6809589,39.243677 82.3386477,37.125 C83.7260773,35.353166 83.7260773,32.8876459 82.3386477,31.1541829 C81.7988824,30.4604968 81.8372758,29.4207198 82.492221,28.8045279 L87.6188604,23.6808807 C88.0042993,23.2956667 88.0042993,22.6411037 87.6188604,22.2558897 L67.3449209,1.99378334 L61.6017297,7.73287035 C63.8759702,10.7378405 63.2594185,15.0135655 60.2526933,17.2481076 C57.8241268,19.0583126 54.5095021,19.0583126 52.0816884,17.2481076 L46.338497,22.9879468 L52.1584749,28.8045279 C52.7750268,29.4590908 52.8525663,30.4604968 52.312801,31.1541829 C50.6551124,33.2728599 51.0405514,36.354572 53.1604657,38.0112931 C54.9333345,39.3979131 57.4002944,39.3979131 59.1731632,38.0112931 C59.4050288,37.779563 59.7904678,37.6260791 60.2143,37.6260791 Z" id="Shape"></path>
                    <path d="M54.2783893,88.5126991 C50.8862253,88.5126991 48.0345791,86.008808 47.5332073,82.6569949 L38.4753914,82.6569949 C37.9356263,82.6569949 37.511794,82.2334099 37.511794,81.6939598 L37.511794,72.6414307 C33.7733372,72.1027328 31.1904443,68.6741777 31.7302094,64.9371505 C32.1540418,61.9329325 34.505069,59.5832775 37.511794,59.1589404 L37.511794,50.1064112 C37.511794,49.5677133 37.9356263,49.1433762 38.4753914,49.1433762 L47.7643201,49.1433762 C48.6127376,49.1433762 49.3444694,49.7986913 49.4220087,50.6458612 C49.7299084,53.3423593 52.1200815,55.2684293 54.8181543,54.9607094 C57.092395,54.6906083 58.9036569,52.9187743 59.1347698,50.6458612 C59.2123093,49.7986913 59.9440411,49.1433762 60.7924584,49.1433762 L69.3489026,49.1433762 C70.2741066,49.1433762 71.0449846,49.9138042 71.0449846,50.8384683 L71.0449846,79.7678898 C71.0449846,81.3862399 69.7343415,82.696118 68.1157989,82.696118 L61.0235713,82.696118 C60.5613457,86.047179 57.6705534,88.5126991 54.2783893,88.5126991 Z M39.4389888,80.7700479 L48.4584113,80.7700479 C48.9981766,80.7700479 49.4220087,81.1936329 49.4220087,81.733083 C49.4220087,84.429581 51.6187099,86.625 54.3167827,86.625 C57.0148555,86.625 59.2123093,84.429581 59.2123093,81.733083 C59.2123093,81.1936329 59.6361415,80.7700479 60.1759068,80.7700479 L68.1541923,80.7700479 C68.7323507,80.7700479 69.1561831,80.3073398 69.1561831,79.7678898 L69.1561831,51.0694462 L61.0619647,51.0694462 C60.5221996,54.8064734 57.092395,57.3871064 53.3531852,56.8476563 C50.347213,56.4240714 47.995433,54.0744163 47.5716006,51.0694462 L39.4773822,51.0694462 L39.4773822,60.0836044 C39.4773822,60.6230545 39.0535499,61.0466395 38.5137848,61.0466395 C35.815712,61.0466395 33.6190109,63.2428106 33.6190109,65.9393086 C33.6190109,68.6358067 35.815712,70.8312257 38.5137848,70.8312257 C39.0535499,70.8312257 39.4773822,71.2548107 39.4773822,71.7942607 L39.4389888,80.7700479 Z" id="Shape"></path>
                    <path d="M38.4753914,82.696118 L8.79659056,82.696118 C7.17804809,82.696118 5.86740488,81.3862399 5.86740488,79.7678898 L5.86740488,72.6805538 C2.12819531,72.1411037 -0.453944775,68.7125486 0.0858202998,64.9762736 C0.509652655,61.9713035 2.86067987,59.6216485 5.86740488,59.1980635 L5.86740488,50.1455343 C5.86740488,49.6060843 6.29123724,49.1824993 6.83100231,49.1824993 L15.8888182,49.1824993 C16.4285834,45.4454721 19.858388,42.8648391 23.5975976,43.4042892 C26.60357,43.8278742 28.95535,46.1775292 29.3791822,49.1824993 L38.436998,49.1824993 C38.9767633,49.1824993 39.4005955,49.6060843 39.4005955,50.1455343 L39.4005955,60.1219754 C39.4005955,60.6614254 38.9767633,61.0850104 38.436998,61.0850104 C35.7389252,61.0850104 33.5414715,63.2811816 33.5414715,65.9776796 C33.5414715,68.6741777 35.7389252,70.8695967 38.436998,70.8695967 C38.9767633,70.8695967 39.4005955,71.2931816 39.4005955,71.8326317 L39.4005955,81.8098249 C39.4389888,82.2334099 39.0151565,82.696118 38.4753914,82.696118 Z M7.79459974,51.0694462 L7.79459974,60.0836044 C7.79459974,60.6230545 7.37076758,61.0466395 6.83100231,61.0466395 C4.13292951,61.0466395 1.93547582,63.2428106 1.93547582,65.9393086 C1.93547582,68.6358067 4.13292951,70.8312257 6.83100231,70.8312257 C7.37076758,70.8312257 7.79459974,71.2548107 7.79459974,71.7942607 L7.79459974,79.7678898 C7.79459974,80.3457108 8.25682548,80.7700479 8.79659056,80.7700479 L37.511794,80.7700479 L37.511794,72.6805538 C33.7733372,72.1411037 31.1904443,68.7125486 31.7302094,64.9762736 C32.1540418,61.9713035 34.505069,59.6216485 37.511794,59.1980635 L37.511794,51.1085693 L28.4923715,51.1085693 C27.9526064,51.1085693 27.5287741,50.6842322 27.5287741,50.1455343 C27.5287741,47.4490363 25.332073,45.2528651 22.6340002,45.2528651 C19.9359274,45.2528651 17.7384737,47.4490363 17.7384737,50.1455343 C17.7384737,50.6842322 17.3146413,51.1085693 16.7748763,51.1085693 L7.79459974,51.1085693 L7.79459974,51.0694462 Z" id="Shape"></path>
                    <path d="M38.4753914,51.0694462 L28.4923715,51.0694462 C27.9526064,51.0694462 27.5287741,50.6458612 27.5287741,50.1064112 C27.5287741,47.4099132 25.332073,45.2144942 22.6340002,45.2144942 C19.9359274,45.2144942 17.7384737,47.4099132 17.7384737,50.1064112 C17.7384737,50.6458612 17.3146413,51.0694462 16.7748763,51.0694462 L6.83100231,51.0694462 C6.29123724,51.0694462 5.86740488,50.6458612 5.86740488,50.1064112 L5.86740488,40.7461621 C5.86740488,39.89824 6.48395672,39.2053061 7.33162143,39.127812 C10.0296942,38.858463 11.9568891,36.470437 11.6873828,33.773939 C11.45627,31.4626549 9.64425527,29.6516978 7.33162143,29.4207198 C6.52235011,29.3439779 5.86740488,28.6502918 5.86740488,27.8031219 L5.86740488,20.4449326 C5.86740488,18.8273346 7.17804809,17.5174566 8.79659056,17.5174566 L37.7429069,17.5174566 C38.6681109,17.5174566 39.4389888,18.2878846 39.4389888,19.2125486 L39.4389888,27.5330208 C43.1774458,28.0724708 45.7603385,31.5010259 45.2205734,35.2373009 C44.7967411,38.242271 42.445714,40.5919261 39.4389888,41.0155111 L39.4389888,50.0680402 C39.4389888,50.6458612 39.0151565,51.0694462 38.4753914,51.0694462 Z M29.3791822,49.1433762 L37.4734006,49.1433762 L37.4734006,40.822904 C37.4734006,39.9757341 38.1283458,39.243677 38.9767633,39.1669351 C41.6748361,38.858463 43.602031,36.470437 43.2933786,33.773939 C43.0238725,31.5010259 41.250251,29.6900688 38.9767633,29.4590908 C38.1283458,29.3823489 37.4734006,28.6502918 37.4734006,27.8031219 L37.4734006,19.4435266 L8.79659056,19.4435266 C8.2184321,19.4435266 7.79459974,19.9062347 7.79459974,20.4449326 L7.79459974,27.5330208 C11.5330567,28.0724708 14.1159496,31.5010259 13.5761843,35.2373009 C13.1523522,38.242271 10.8005722,40.5919261 7.79459974,41.0155111 L7.79459974,49.1050052 L15.8888182,49.1050052 C16.4285834,45.3687302 19.858388,42.7873451 23.5975976,43.3267951 C26.60357,43.7895032 28.95535,46.1391582 29.3791822,49.1433762 Z" id="Shape"></path>
                </g>
                <path d="M73.5887313,95.2155732 C71.8542559,94.8687302 70.5436129,93.5588521 70.19732,91.8253891 C70.19732,91.7870181 70.1581739,91.7486472 70.1197805,91.7486472 C70.0813871,91.7486472 70.0813871,91.7870181 70.0429937,91.8253891 C69.6959482,93.5588521 68.3853051,94.8687302 66.6508298,95.2155732 C66.6124364,95.2155732 66.574043,95.2539442 66.574043,95.2923152 C66.574043,95.3306861 66.6124364,95.3306861 66.6508298,95.3690571 C68.3853051,95.7159002 69.6959482,97.0257782 70.0429937,98.7592412 C70.0429937,98.7976122 70.0813871,98.8359832 70.1197805,98.8359832 C70.1581739,98.8359832 70.1581739,98.7976122 70.19732,98.7592412 C70.5436129,97.0257782 71.8542559,95.7159002 73.5887313,95.3690571 C73.6271246,95.3690571 73.6662708,95.3306861 73.6662708,95.2923152 C73.6271246,95.2155732 73.5887313,95.2155732 73.5887313,95.2155732 Z" id="Path" fill="#60BAE2"></path>
                <path d="M76.0556912,64.2825875 C75.9789046,64.2825875 75.9397585,64.2825875 75.8629717,64.2442166 C75.7861851,64.2442166 75.747039,64.2058456 75.6702522,64.2058456 C75.5934657,64.1667225 75.5543195,64.1667225 75.5159261,64.1283515 C75.4775327,64.0899805 75.4007462,64.0516096 75.3616,64.0132386 C75.3232066,63.9741155 75.2848133,63.9357445 75.2464199,63.8590026 C75.2080267,63.8206316 75.1688805,63.7431375 75.1688805,63.7047665 C75.1304872,63.6280246 75.1304872,63.5889015 75.1304872,63.5121595 C75.1304872,63.4354176 75.0920938,63.3962945 75.0920938,63.3195525 C75.0920938,63.0502036 75.2080267,62.8184735 75.3616,62.6258665 C75.4007462,62.5874955 75.4391394,62.5491245 75.5159261,62.5107535 C75.5543195,62.4723826 75.6318588,62.4332595 75.6702522,62.4332595 C75.747039,62.3948885 75.7861851,62.3948885 75.8629717,62.3948885 C76.3643436,62.2797756 76.9033559,62.6258665 76.9808952,63.1269455 C76.9808952,63.2036875 77.0192886,63.2428106 77.0192886,63.3195525 C77.0192886,63.3962945 77.0192886,63.4354176 76.9808952,63.5121595 C76.9808952,63.5889015 76.9425021,63.6280246 76.9425021,63.7047665 C76.9033559,63.7815085 76.9033559,63.8206316 76.8649625,63.8590026 C76.8265691,63.8973735 76.7881758,63.9741155 76.7497826,64.0132386 C76.5570631,64.1667225 76.3251975,64.2825875 76.0556912,64.2825875 Z" id="Path" fill="#60BAE2"></path>
                <path d="M28.0685392,15.5530156 C26.3340638,15.2061725 25.0234208,13.8962945 24.6763752,12.1628314 C24.6763752,12.1244605 24.6379818,12.0860895 24.5995884,12.0860895 C24.561195,12.0860895 24.561195,12.1244605 24.5228018,12.1628314 C24.1757561,13.8962945 22.865113,15.2061725 21.1306377,15.5530156 C21.0922443,15.5530156 21.0538511,15.5913865 21.0538511,15.6297575 C21.0538511,15.6688806 21.0922443,15.6688806 21.1306377,15.7072516 C22.865113,16.0540946 24.1757561,17.3632205 24.5228018,19.0966836 C24.5228018,19.1358067 24.561195,19.1741777 24.5995884,19.1741777 C24.6379818,19.1741777 24.6379818,19.1358067 24.6763752,19.0966836 C25.0234208,17.3632205 26.3340638,16.0540946 28.0685392,15.7072516 C28.1069325,15.7072516 28.1453259,15.6688806 28.1453259,15.6297575 C28.1453259,15.5913865 28.1069325,15.5530156 28.0685392,15.5530156 Z" id="Path" fill="#60BAE2"></path>
                <path d="M48.2656918,8.77339945 L44.9119212,8.77339945 C44.3729089,8.77339945 43.9483238,8.34981447 43.9483238,7.81036443 C43.9483238,7.2709144 44.3729089,6.84732941 44.9119212,6.84732941 L48.2656918,6.84732941 C48.8054571,6.84732941 49.2292893,7.2709144 49.2292893,7.81036443 C49.2292893,8.34981447 48.8054571,8.77339945 48.2656918,8.77339945 Z" id="Path" fill="#6DCC6D"></path>
                <path d="M46.5696098,10.4293684 C46.0298448,10.4293684 45.6060124,10.0057834 45.6060124,9.46633339 L45.6060124,6.11527237 C45.6060124,5.57582234 46.0298448,5.15223735 46.5696098,5.15223735 C47.1093749,5.15223735 47.5332073,5.57582234 47.5332073,6.11527237 L47.5332073,9.46633339 C47.5332073,10.0057834 47.1093749,10.4293684 46.5696098,10.4293684 Z" id="Path" fill="#6DCC6D"></path>
                <path d="M52.8525663,2.10889627 C52.7750268,2.10889627 52.7366334,2.10889627 52.6598468,2.07052529 C52.5823073,2.07052529 52.5439139,2.03215432 52.4671273,2.03215432 C52.3895878,1.99378334 52.3511944,1.99378334 52.312801,1.95466024 C52.1968683,1.87791829 52.1200815,1.80117634 52.0425422,1.68531128 C52.0041488,1.64694031 51.9657554,1.56944623 51.9657554,1.53107525 C51.9273621,1.45433331 51.9273621,1.41596233 51.9273621,1.33846825 C51.8889689,1.22335533 51.8889689,1.0691193 51.9273621,0.953254243 C51.9273621,0.876512294 51.9657554,0.838141319 51.9657554,0.760647239 C52.0041488,0.68390529 52.0041488,0.645534315 52.0425422,0.60641121 C52.0816884,0.568040235 52.1200815,0.491298286 52.1584749,0.452927311 C52.1968683,0.413804206 52.2352617,0.375433232 52.312801,0.337062257 C52.3511944,0.298691282 52.4279812,0.260320307 52.4671273,0.260320307 C52.5439139,0.221197202 52.5823073,0.221197202 52.6598468,0.221197202 C52.7750268,0.182826189 52.9293529,0.182826189 53.0452858,0.221197202 C53.1220724,0.221197202 53.1604657,0.260320307 53.2380053,0.260320307 C53.3147918,0.298691282 53.3531852,0.298691282 53.3915786,0.337062257 C53.4307248,0.375433232 53.5075113,0.413804206 53.5459047,0.452927311 C53.5842981,0.491298286 53.6234442,0.529669261 53.6618374,0.60641121 C53.7002308,0.645534315 53.7386242,0.722276265 53.7386242,0.760647239 C53.7770176,0.838141319 53.7770176,0.876512294 53.7770176,0.953254243 C53.7770176,1.03074832 53.7770176,1.0691193 53.8161637,1.14586125 C53.8161637,1.22335533 53.8161637,1.2617263 53.7770176,1.33846825 C53.7770176,1.41596233 53.7386242,1.45433331 53.7386242,1.53107525 C53.7002308,1.60856933 53.7002308,1.64694031 53.6618374,1.68531128 C53.6234442,1.72368226 53.5842981,1.80117634 53.5459047,1.83954731 C53.5075113,1.87791829 53.4691179,1.91628926 53.3915786,1.95466024 C53.3531852,1.99378334 53.2763985,2.03215432 53.2380053,2.03215432 C53.1604657,2.07052529 53.1220724,2.07052529 53.0452858,2.07052529 C52.9677463,2.10889627 52.9293529,2.10889627 52.8525663,2.10889627 Z" id="Path" fill="#FFCD29"></path>
                <path d="M82.2995015,85.585223 L78.9464835,85.585223 C78.4067184,85.585223 77.9828861,85.1608859 77.9828861,84.622188 C77.9828861,84.082738 78.4067184,83.659153 78.9464835,83.659153 L82.2995015,83.659153 C82.8392666,83.659153 83.263099,84.082738 83.263099,84.622188 C83.263099,85.1608859 82.8392666,85.585223 82.2995015,85.585223 Z" id="Path" fill="#FFCD29"></path>
                <path d="M80.6425655,87.279563 C80.1028004,87.279563 79.6789681,86.855978 79.6789681,86.3165279 L79.6789681,82.9654669 C79.6789681,82.4260169 80.1028004,82.0024319 80.6425655,82.0024319 C81.1823307,82.0024319 81.6061629,82.4260169 81.6061629,82.9654669 L81.6061629,86.3165279 C81.6061629,86.817607 81.1431846,87.279563 80.6425655,87.279563 Z" id="Path" fill="#FFCD29"></path>
                <path d="M86.8863758,78.9207198 C86.5784764,78.9207198 86.269824,78.7664838 86.0771045,78.4971349 C86.0387111,78.4587639 86.0003179,78.3812698 86.0003179,78.3428988 C85.9611718,78.3045279 85.9611718,78.2270338 85.9611718,78.1502918 C85.9611718,78.0735499 85.9611718,78.0344268 85.9227784,77.9576848 C85.9227784,77.4182348 86.3466107,76.9946498 86.8863758,76.9946498 L87.0790953,76.9946498 C87.1566348,76.9946498 87.195028,77.0330208 87.2718148,77.0330208 C87.3102082,77.0713918 87.3877475,77.0713918 87.4261409,77.1105149 C87.4645343,77.1488858 87.5420738,77.1872568 87.580467,77.2256278 C87.7731865,77.4182348 87.8499732,77.6492128 87.8499732,77.9193139 L87.8499732,78.1119209 C87.8499732,78.1886628 87.8115799,78.2270338 87.8115799,78.3045279 C87.7731865,78.3812698 87.7731865,78.4196408 87.7347933,78.4587639 C87.6956471,78.4971349 87.6572537,78.5738768 87.6188604,78.6122478 C87.580467,78.6513709 87.5420738,78.6897419 87.4645343,78.7281128 C87.4261409,78.7664838 87.3493543,78.8048548 87.3102082,78.8048548 C87.2334214,78.8439779 87.195028,78.8439779 87.1174887,78.8439779 C87.0407019,78.9207198 86.9639153,78.9207198 86.8863758,78.9207198 Z" id="Path" fill="#F75C64"></path>
            </g>
        </g>
    </g>
</svg>