<?xml version="1.0" encoding="UTF-8"?>
<svg width="24px" height="17px" viewBox="0 0 24 17" version="1.1" xmlns="http://www.w3.org/2000/svg" xmlns:xlink="http://www.w3.org/1999/xlink">
    <!-- Generator: Sketch 52.4 (67378) - http://www.bohemiancoding.com/sketch -->
    <title>004-youtube</title>
    <desc>Created with Sketch.</desc>
    <g id="Elementos" stroke="none" stroke-width="1" fill="none" fill-rule="evenodd">
        <g id="Footer" transform="translate(-828.000000, -330.000000)" fill="#FFFFFF" fill-rule="nonzero">
            <g id="004-youtube" transform="translate(828.000000, 330.000000)">
                <path d="M22.98,1.59 C22.329,0.432 21.6225,0.219 20.184,0.138 C18.747,0.0405 15.1335,0 12.003,0 C8.8665,0 5.2515,0.0405 3.816,0.1365 C2.3805,0.219 1.6725,0.4305 1.0155,1.59 C0.345,2.7465 0,4.7385 0,8.2455 C0,8.2485 0,8.25 0,8.25 C0,8.253 0,8.2545 0,8.2545 L0,8.2575 C0,11.7495 0.345,13.7565 1.0155,14.901 C1.6725,16.059 2.379,16.269 3.8145,16.3665 C5.2515,16.4505 8.8665,16.5 12.003,16.5 C15.1335,16.5 18.747,16.4505 20.1855,16.368 C21.624,16.2705 22.3305,16.0605 22.9815,14.9025 C23.658,13.758 24,11.751 24,8.259 C24,8.259 24,8.2545 24,8.2515 C24,8.2515 24,8.2485 24,8.247 C24,4.7385 23.658,2.7465 22.98,1.59 Z M9,12.75 L9,3.75 L16.5,8.25 L9,12.75 Z" id="Shape"></path>
            </g>
        </g>
    </g>
</svg>