<?xml version="1.0" encoding="UTF-8"?>
<svg width="135px" height="158px" viewBox="0 0 135 158" version="1.1" xmlns="http://www.w3.org/2000/svg" xmlns:xlink="http://www.w3.org/1999/xlink">
    <!-- Generator: Sketch 52.4 (67378) - http://www.bohemiancoding.com/sketch -->
    <title>partnership</title>
    <desc>Created with Sketch.</desc>
    <g id="Elementos" stroke="none" stroke-width="1" fill="none" fill-rule="evenodd">
        <g id="Home/Servicios" transform="translate(-84.000000, -333.000000)" fill-rule="nonzero">
            <g id="Group-4" transform="translate(44.000000, 73.000000)">
                <g id="partnership" transform="translate(40.000000, 260.000000)">
                    <path d="M123.42821,56 C123.243555,56.2489475 122.998946,56.4347476 122.691987,56.5598283 L108.448357,63.0883257 C107.466327,63.5230733 106.299642,63.2741258 105.563419,62.466564 L102.309171,58.6740607 C99.1172741,66.2590674 97.6436297,74.528983 98.072893,82.7976847 L99.3630812,107.046389 L110.228961,97.0362694 L110.228961,67.8754049 C110.167808,64.7046632 112.745787,62.0937498 115.876532,62.0306025 C119.008476,61.9686691 121.586454,64.5807965 121.647606,67.7515381 L121.647606,67.8754049 L121.647606,99.5852494 C121.647606,101.201587 120.972536,102.755991 119.805851,103.875648 L106.606601,116 L127.172874,116 L129.935507,76.3311206 C130.427122,68.9331281 128.093751,61.6577883 123.42821,56 Z" id="Path" fill="#55ACD5"></path>
                    <path d="M72.1009786,110 L99,106.255603 L98.1824977,92 L96.6113219,94.8395594 L65,99.2481322 L69.0850572,99.791978 C72.4152138,100.275659 74.6774613,103.235548 74.1754216,106.375934 C73.923788,107.765631 73.1701144,109.033818 72.1009786,110 Z" id="Path" fill="#60BAE2"></path>
                    <path d="M83.4678636,128.111227 C81.3647051,125.757147 81.5507396,122.10076 83.838725,119.993587 L110.496049,95.7641213 L110.496049,66.7006237 C110.557658,63.5404691 113.094494,61 116.310237,61 C119.402762,61.0617266 121.938391,63.5404691 122,66.7006237 L122,98.3045903 C122,99.9155309 121.319886,101.464745 120.144485,102.580663 L91.5700375,128.482796 C89.2192352,130.651696 85.5710221,130.466516 83.4678636,128.111227 Z" id="Path" fill="#60BAE2"></path>
                    <path d="M88.3247259,117 L83.9303926,120.961411 C81.5778829,123.066024 81.3312683,126.717968 83.4347456,129.069187 C85.5394319,131.421615 89.1915035,131.66943 91.544013,129.564817 C91.544013,129.564817 91.6056667,129.503165 91.6056667,129.503165 L96,125.541754 L88.3247259,117 Z" id="Path" fill="#F9D0B4"></path>
                    <path d="M102.165051,56.147755 L120.066053,49.1057963 C120.961352,48.7797443 121.920335,49.2357078 122.303678,50.0839522 L123.838299,54.0615316 C124.285325,55.1695991 123.774616,56.4088512 122.687021,56.9310437 L107.855262,63.7781351 C106.832597,64.2340986 105.617637,63.9730023 104.849702,63.1260312 L101.462047,59.1471785 C100.759044,58.365163 100.886409,57.1259109 101.653095,56.473807 C101.781708,56.3438955 101.972755,56.2789397 102.165051,56.147755 Z" id="Path" fill="#55ACD5"></path>
                    <polygon id="Path" fill="#6D6C6B" points="124.57146 156 127 116 105.583902 116 99 121.723558 101.045218 156"></polygon>
                    <path d="M114,117 L114,128 L111.464189,127.07874 C108.145784,125.869516 106,122.989876 106,119.822272 L106,117.057368 L114,117 Z" id="Path" fill="#565554"></path>
                    <polygon id="Path" fill="#6D6C6B" points="28.6031322 156 31 116 3 116 5.39563623 156"></polygon>
                    <path d="M17,117 L17,128 L19.5358106,127.07874 C22.8542161,125.869516 25,122.989876 25,119.822272 L25,117.057368 L17,117 Z" id="Path" fill="#565554"></path>
                    <path d="M29.8342244,56.147755 L11.9332374,49.1057963 C11.039187,48.7797443 10.0802056,49.2357078 9.69561407,50.0839522 L8.1622427,54.0615316 C7.71396906,55.1695991 8.22592514,56.4088512 9.31227147,56.9310437 L24.1452668,63.7781351 C25.1679307,64.2340986 26.3828902,63.9730023 27.149576,63.1260312 L30.5384764,59.1471785 C31.2414798,58.365163 31.1128664,57.1259109 30.3461808,56.473807 C30.218816,56.3438955 30.0265204,56.2789397 29.8342244,56.147755 Z" id="Path" fill="#D3D3DD"></path>
                    <path d="M30.3507846,105.605122 C28.5020391,105.357133 26.8374462,104.174322 25.9744573,102.493101 L9.33574771,70.9376988 C7.73374255,68.0128856 8.78208694,64.4024556 11.6779736,62.7844479 C14.57386,61.1664403 18.1485829,62.2240412 19.7505884,65.1488544 C19.7505884,65.212067 19.8119723,65.2740644 19.8119723,65.2740644 L33.4934114,91.22783 L33.924304,82.7633771 C34.3563999,74.4849162 32.9385471,66.2696679 29.6719484,58.6136112 L26.4065535,62.4112485 C25.6663331,63.2196447 24.4964238,63.5308468 23.5094633,63.0336526 L9.33574771,56.5604068 C9.02762345,56.4351968 8.78208694,56.2492047 8.5967311,56 C3.9134831,61.6636344 1.57125749,68.9464917 2.06473759,76.2901312 L4.83785586,116 L32.1995301,116 L32.7531909,105.916324 L30.3507846,105.605122 Z" id="Path" fill="#D3D3DD"></path>
                    <path d="M69.033785,110 C68.7233977,110 68.4748455,110 68.1644581,109.9371 L29.9249832,104.36315 C28.0626593,104.116386 26.3858406,102.939422 25.5165134,101.266511 L8.75559829,69.8670775 C7.14182697,66.9567208 8.19787108,63.3641361 11.115027,61.7541258 C14.0321827,60.1441154 17.6331607,61.1964889 19.2469323,64.1068457 C19.2469323,64.1697459 19.308767,64.2314368 19.308767,64.2314368 L34.642628,92.9684866 L69.9018996,98.1081815 C73.1924902,98.6041274 75.4270365,101.639075 74.931144,104.859096 C74.5577093,107.769453 72.012776,109.9371 69.033785,110 Z" id="Path" fill="#E9E9EA"></path>
                    <path d="M68.979614,98.9473662 L62.6960667,98 L61,110.062884 L67.2209572,110.947339 C70.5505009,111.390183 73.5670947,108.989695 73.9438621,105.641841 C74.3844465,102.483954 72.185205,99.5160326 68.979614,98.9473662 Z" id="Path" fill="#F9D0B4"></path>
                    <path d="M67.8119126,66.040771 C66.5108585,67.3418588 64.4666902,67.3418588 63.1644257,66.040771 L55.7284467,58.6046009 C54.4891168,57.240577 54.6137761,55.1963562 55.9148304,53.9569945 C57.1541602,52.7793589 59.1366037,52.7793589 60.3759335,53.9569945 L65.4579121,59.0378935 L77.169821,47.3256835 C77.2315455,47.2639574 77.2932701,47.2022313 77.4167188,47.1405052 C71.1583454,40.5091941 60.685766,40.2622897 54.1175602,46.5825504 C47.549354,52.9028111 47.2395216,63.3139333 53.5596195,69.8823083 C59.8809279,76.4506833 70.2905722,76.7605237 76.8599886,70.4402631 C81.6309245,65.9161089 83.2418113,59.0378935 81.0112596,52.841085 L67.8119126,66.040771 Z" id="Path" fill="#6DCC6D"></path>
                    <path d="M81.1124473,51.6945385 L67.0236132,66.0030072 C65.714808,67.3323309 63.6584613,67.3323309 62.3484384,66.0030072 L54.8681587,58.4054589 C53.6214454,57.0118334 53.7468473,54.9232493 55.0556529,53.6569913 C56.3023661,52.4537989 58.2966202,52.4537989 59.5433335,53.6569913 L64.6555886,58.8481548 L76.4372725,46.881769 C77.8081702,45.615511 79.865734,45.7428785 81.1124473,47.0722022 C82.2958509,48.4015259 82.2958509,50.3639786 81.1124473,51.6945385 Z" id="Path" fill="#E9E9EA"></path>
                    <path d="M34.8492859,29 C31.7758996,30.3592591 27.9476466,30.5960033 25.8778902,30.5960033 C24.9367575,30.5960033 23.9956249,31.0094399 23.3682031,31.6607752 L22.238354,32.843342 C20.6697996,32.0742118 18.7875343,32.7243926 17.9726211,34.1437036 C17.4701937,35.1484236 17.5326908,36.2720929 18.2226094,37.159018 L17.0314885,38.4605341 C16.2778473,39.2874073 15.1492232,39.7608958 13.9568769,39.7608958 L9,39.7608958 C9,46.5017572 14.8355123,52 21.98714,52 C29.1399933,52 34.9755056,46.5017572 34.9755056,39.7608958 L34.9755056,31.3651335 C35.0380027,30.5960033 34.9755056,29.7679757 34.8492859,29 Z" id="Path" fill="#F9D0B4"></path>
                    <path d="M96.2121428,29 C99.2868818,30.3592591 103.114068,30.5960033 105.185136,30.5960033 C106.126307,30.5960033 107.067479,31.0094399 107.694927,31.6607752 L108.761098,32.843342 C110.329717,32.0742118 112.21206,32.7243926 113.028232,34.1437036 C113.529455,35.1484236 113.466956,36.2720929 112.777008,37.159018 L113.969404,38.4605341 C114.721851,39.2874073 115.851747,39.7608958 117.042918,39.7608958 L122,39.7608958 C122,46.5017572 116.165471,52 109.012322,52 C101.859173,52 96.0234182,46.5017572 96.0234182,39.7608958 L96.0234182,31.3651335 C95.9609187,30.5960033 96.0234182,29.7679757 96.2121428,29 Z" id="Path" fill="#F9D0B4"></path>
                    <path d="M19.1363811,19.9087143 C19.1363811,19.9087143 2.87228863,19.0513154 9.65407308,41 L14.3952271,41 C15.5356826,41 16.5554118,40.5102288 17.3360319,39.6516329 L18.4753154,38.3020686 C17.5153637,36.8926297 17.8751989,34.9922225 19.2559357,34.0102859 C20.1561103,33.3361024 21.3563431,33.2750306 22.316295,33.7659989 L23.337196,32.5397753 C23.9373124,31.8033228 24.837487,31.4356952 25.7376616,31.4356952 C28.5577401,31.4356952 31.798603,31.0069957 34.3186233,29.7807721 C36.8995926,28.5545485 39,26.4086572 39,22.7299863 C39,12.9201973 24.5972061,12.9812691 19.1363811,19.9087143 Z" id="Path" fill="#6D6C6B"></path>
                    <path d="M112.864731,19.9087143 C112.864731,19.9087143 129.127603,19.0513154 122.345839,41 L117.604699,41 C116.465419,41 115.444521,40.5102288 114.665075,39.6516329 L113.524623,38.3020686 C114.484572,36.8926297 114.124738,34.9922225 112.744006,34.0102859 C111.843834,33.3361024 110.643604,33.2750306 109.683655,33.7659989 L108.663929,32.5397753 C108.063815,31.8033228 107.163643,31.4356952 106.263471,31.4356952 C103.442229,31.4356952 100.201375,31.0069957 97.681363,29.7807721 C95.1004012,28.5545485 93,26.4086572 93,22.7299863 C93,12.9201973 107.4637,12.9812691 112.864731,19.9087143 Z" id="Path" fill="#6D6C6B"></path>
                    <path d="M63.3575706,23 L57.6424294,23 C56.7224124,23 56,22.3402343 56,21.5 C56,20.6597657 56.7224124,20 57.6424294,20 L63.3575706,20 C64.2775876,20 65,20.6597657 65,21.5 C65,22.3402343 64.2775876,23 63.3575706,23 Z" id="Path" fill="#55ACD5"></path>
                    <path d="M61,26 C59.88125,26 59,25.276408 59,24.3578047 L59,18.6421953 C59,17.7223094 59.88125,17 61,17 C62.1203128,17 63,17.7223094 63,18.6421953 L63,24.3578047 C63,25.2109767 62.0406252,26 61,26 Z" id="Path" fill="#55ACD5"></path>
                    <path d="M48.9806575,14 C48.4251453,14 47.9500968,13.8186281 47.5539653,13.5771913 C47.4750484,13.5171265 47.3961315,13.4570616 47.3156673,13.3369319 C47.2367508,13.2756897 47.1578338,13.15556 47.1578338,13.0954951 C47.0789169,13.0354303 47.0789169,12.9141232 47.0789169,12.7939935 C47.0789169,12.6726864 47.0789169,12.6126216 47,12.4924919 C47,12.3711848 47,12.31112 47.0789169,12.1909903 C47.0789169,12.0696832 47.1578338,12.0096184 47.1578338,11.8894887 C47.2367508,11.8294238 47.2367508,11.7081167 47.3156673,11.6480519 C47.3961315,11.587987 47.4750484,11.46668 47.5539653,11.4066151 C47.6328823,11.3465503 47.7117988,11.2864854 47.8711799,11.2264206 C47.9500968,11.1651783 48.1079303,11.1051135 48.1883945,11.1051135 C48.3462283,11.0450486 48.4251453,11.0450486 48.584526,11.0450486 C48.8212768,10.9849838 49.1384913,10.9849838 49.376789,11.0450486 C49.6135398,11.1051135 49.8518374,11.1651783 50.0885878,11.2864854 C50.169052,11.3465503 50.3268858,11.4066151 50.4058028,11.46668 C51.1980657,12.0696832 51.1980657,13.0354303 50.4058028,13.5771913 C50.3268858,13.6384335 50.2479689,13.6984984 50.0885878,13.7585632 C50.0096713,13.8186281 49.8518374,13.8786929 49.7729205,13.8786929 C49.6135398,13.9399351 49.5346228,13.9399351 49.376789,13.9399351 C49.2963248,14 49.1384913,14 48.9806575,14 Z" id="Path" fill="#FFCD29"></path>
                    <g id="Group" transform="translate(0.000000, 12.000000)" fill="#231F20">
                        <path d="M24.2348846,53.1277531 C23.6785792,53.1277531 23.1222736,53.0039097 22.5671749,52.7574247 L8.23235499,46.2321832 C6.4403514,45.4326094 5.63787185,43.4006107 6.31726445,41.6150969 L7.80034325,37.8601072 C8.41819222,36.1984369 10.2717391,35.3976612 11.9394488,36.0132727 L29.23922,42.6623577 C30.9696796,43.3392899 31.8349095,45.2474452 31.1543102,46.9716382 C31.0312233,47.3407647 30.8453857,47.6485704 30.5364612,47.9563762 L27.2625858,51.7113659 C26.5204429,52.5734624 25.4090389,53.1277531 24.2348846,53.1277531 Z M10.7652942,38.9061659 C10.7037509,38.9061659 10.6422072,38.9686887 10.6422072,38.9686887 L9.22067176,42.7236784 C9.09758482,43.0314842 9.22067176,43.3392899 9.52959625,43.4619314 L23.8644165,49.9258522 C24.2348846,50.1110164 24.666896,49.9871729 24.9142772,49.6793672 L28.1893593,45.9243774 C28.3124465,45.8017359 28.2509029,45.6778924 28.1893593,45.5552509 C28.1893593,45.5552509 28.1278156,45.4939302 28.1278156,45.4939302 L10.7652942,38.9061659 C10.8280445,38.9061659 10.8280445,38.9061659 10.7652942,38.9061659 Z" id="Shape"></path>
                        <path d="M17.6243831,145.284314 C16.7591533,145.284314 16.0797607,144.607381 16.0797607,143.745285 L16.0797607,103.730538 C16.0797607,102.868441 16.7591533,102.191509 17.6243831,102.191509 C18.4884063,102.191509 19.1690056,102.868441 19.1690056,103.730538 L19.1690056,143.745285 C19.1690056,144.607381 18.4884063,145.284314 17.6243831,145.284314 Z" id="Path"></path>
                        <path d="M17.6243831,117.027506 C16.7591533,117.027506 16.0797607,116.350573 16.0797607,115.488477 L16.0797607,103.730538 C16.0797607,102.868441 16.7591533,102.191509 17.6243831,102.191509 L25.2232017,102.191509 C26.0884315,102.191509 26.7678241,102.868441 26.7678241,103.730538 L26.7678241,106.685954 C26.7678241,110.687428 24.3579715,114.318575 20.6508777,115.857603 L18.2422321,116.843543 C18.0563949,116.966185 17.809014,117.027506 17.6243831,117.027506 Z M19.1690056,105.269566 L19.1690056,113.149874 L19.4151798,113.026031 C22.0108696,111.979972 23.6785792,109.456205 23.6785792,106.685954 L23.6785792,105.269566 L19.1690056,105.269566 Z" id="Shape"></path>
                        <path d="M113.946072,145.284314 C113.082049,145.284314 112.40145,144.607381 112.40145,143.745285 L112.40145,103.730538 C112.40145,102.868441 113.082049,102.191509 113.946072,102.191509 C114.811302,102.191509 115.490695,102.868441 115.490695,103.730538 L115.490695,143.745285 C115.490695,144.607381 114.811302,145.284314 113.946072,145.284314 Z" id="Path"></path>
                        <path d="M113.946072,117.027506 C113.761442,117.027506 113.514061,116.966185 113.328223,116.904864 L110.919578,115.920126 C107.212484,114.381097 104.741088,110.748749 104.802632,106.747274 L104.802632,103.791858 C104.802632,102.929762 105.482024,102.25283 106.347254,102.25283 L113.946072,102.25283 C114.811302,102.25283 115.490695,102.929762 115.490695,103.791858 L115.490695,115.549798 C115.490695,116.289253 114.811302,117.027506 113.946072,117.027506 Z M107.891876,105.269566 L107.891876,106.685954 C107.891876,109.456205 109.559586,111.979972 112.155276,113.026031 L112.40145,113.149874 L112.40145,105.269566 L107.891876,105.269566 Z" id="Shape"></path>
                        <path d="M72.7975724,99.1134513 C71.9323422,99.1134513 71.25295,98.4365191 71.25295,97.5744226 C71.25295,97.1439753 71.4387872,96.7123261 71.8092553,96.4045203 C73.6628022,94.8654916 73.9101831,92.0952398 72.304017,90.2484053 C71.6234178,89.4488316 70.635101,88.8945408 69.5852403,88.7706973 L65.569222,88.2176086 C64.7039921,88.0937651 64.1476868,87.2941913 64.2719804,86.4934156 C64.3950677,85.8164833 64.8898294,85.2621926 65.569222,85.2008718 L95.9053651,80.6451063 L97.0795195,78.4904661 C97.5115312,77.7522131 98.4383046,77.4444073 99.1804472,77.8748546 C99.6740026,78.1213396 99.9829271,78.6131076 99.9829271,79.1673984 L100.786613,93.6955893 C100.848157,94.4963651 100.230308,95.1732973 99.4893717,95.2971408 L73.0449532,99.1134513 C72.921866,99.1134513 72.8591157,99.1134513 72.7975724,99.1134513 Z M73.4154214,87.0477063 C76.0726545,89.0171823 77.1225152,92.4643663 76.0111108,95.5424238 L97.5730745,92.4030456 L97.0795195,83.6005223 L73.4154214,87.0477063 Z" id="Shape"></path>
                        <path d="M127.168282,105.269566 L106.470341,105.269566 C105.605111,105.269566 104.925719,104.592634 104.925719,103.730538 C104.925719,103.30009 105.111556,102.868441 105.420481,102.560635 L118.704233,90.5562111 C119.569463,89.7566373 120.063019,88.6480558 120.063019,87.4781536 L120.063019,56.0819671 C120.063019,53.8046854 118.271015,51.8965301 115.923913,51.8965301 C113.637148,51.8965301 111.722058,53.6808419 111.722058,56.0206464 L111.722058,56.1432879 L111.722058,84.9543868 C111.722058,85.3848341 111.537427,85.8164833 111.228502,86.1242891 L100.291852,96.0353938 C99.6740026,96.5896846 98.6856855,96.5283638 98.1293802,95.9127523 C97.881999,95.6662673 97.758912,95.2971408 97.758912,94.9893351 L96.4616705,70.9804866 C96.0284521,62.5458879 97.5115312,54.1738119 100.848157,46.4173474 C101.157081,45.6165717 102.083855,45.2474452 102.887541,45.6165717 C103.072172,45.6778924 103.319553,45.8630567 103.44264,46.0482209 L106.717722,49.8032107 C106.965103,50.1110164 107.397115,50.2336579 107.767583,50.0496956 L122.102403,43.5857749 C122.163946,43.5232522 122.22549,43.5232522 122.287033,43.4006107 C122.595958,43.0314842 123.029176,42.8463199 123.461188,42.8463199 C123.894406,42.8463199 124.326418,43.0314842 124.635342,43.4006107 C129.639678,49.3102407 132.111074,56.8827429 131.554768,64.5778866 L128.774448,103.853179 C128.651361,104.592634 127.971968,105.269566 127.168282,105.269566 Z M110.48636,102.191509 L125.747953,102.191509 L128.465523,64.3314016 C128.960285,57.9288016 127.045195,51.5262017 123.152263,46.4173474 L117.406992,49.0024349 C120.805161,49.6793672 123.213807,52.6347832 123.276557,56.0819671 L123.276557,87.4781536 C123.276557,89.5101523 122.411327,91.4796283 120.866705,92.8346948 L110.48636,102.191509 Z M102.701704,49.8645314 C100.230308,56.5136164 99.1176969,63.6544694 99.4893717,70.7340016 L100.600776,91.4796283 L108.632813,84.2161338 L108.632813,56.0206464 C108.632813,54.7281026 108.941737,53.4968796 109.621129,52.3882982 L108.941737,52.6961039 C107.335571,53.4355589 105.420481,53.0039097 104.246326,51.6500451 L102.701704,49.8645314 Z" id="Shape"></path>
                        <path d="M21.9493259,42.0467462 C14.0403766,42.0467462 7.61450602,35.6441462 7.61450602,27.7638382 C7.61450602,26.9017417 8.29389831,26.2248095 9.15912844,26.2248095 L14.0403766,26.2248095 C14.7197692,26.2248095 15.3991615,25.9170037 15.8939235,25.362713 L16.3886852,24.7471015 C15.5234554,22.3471782 16.8206969,19.699568 19.2305492,18.8374715 C20.0330287,18.5909865 20.8367153,18.5296657 21.6404015,18.6535092 L22.0724132,18.1605392 C22.9991866,17.1144805 24.2964282,16.498869 25.7179634,16.498869 C27.5715103,16.498869 31.0927669,16.3137047 33.8730873,15.021161 C34.6767735,14.6520345 35.5420033,15.021161 35.9124714,15.759414 C35.974015,15.8832575 35.974015,16.005899 36.0355586,16.1285405 C36.2213959,17.0519577 36.2829395,17.975375 36.2829395,18.8987922 L36.2829395,27.7025174 C36.2829395,35.6441462 29.8570689,42.0467462 21.9493259,42.0467462 Z M10.7652942,29.3028669 C11.6305243,35.4589819 17.3154587,39.7069417 23.4939484,38.9061659 C29.0545891,38.1679129 33.1936947,33.3656624 33.1936947,27.7638382 L33.1936947,18.961315 C33.1936947,18.8374715 33.1936947,18.7761507 33.1936947,18.6535092 C30.7222988,19.3304415 28.2509029,19.699568 25.6564198,19.699568 C25.161658,19.699568 24.666896,19.8847322 24.3579715,20.3151795 L23.2465675,21.5464025 C22.8133491,22.1006932 22.0108696,22.2233347 21.3930206,21.915529 C21.1456397,21.7928875 20.9598022,21.7315667 20.713628,21.7315667 C19.8483982,21.7315667 19.1690056,22.408499 19.1690056,23.2705954 C19.1690056,23.5784012 19.2920928,23.8862069 19.4779301,24.1940127 C19.9099418,24.7471015 19.8483982,25.5478772 19.3536365,26.1021679 L18.1794818,27.4560325 C17.1296214,28.6872554 15.584999,29.3641877 14.0403766,29.3641877 L10.7652942,29.3641877 L10.7652942,29.3028669 Z" id="Shape"></path>
                        <path d="M13.978833,29.3028669 L9.09758482,29.3028669 C8.41819222,29.3028669 7.80034325,28.8724197 7.61450602,28.2568082 C4.95847926,20.0073737 5.26740374,13.7286172 8.41819222,9.66461974 C11.4458934,5.72566773 16.2643916,5.17137699 18.1179385,5.11005623 C22.0108696,0.923417248 29.23922,-0.984738002 34.6767735,0.923417248 C38.5684978,2.27728175 40.8552632,5.41786198 40.8552632,9.48065748 C40.8552632,13.296968 38.8774223,16.252384 35.1703285,17.975375 C31.8349095,19.453083 27.8188912,19.699568 25.7179634,19.699568 C25.2232017,19.699568 24.7296463,19.8847322 24.4207218,20.3151795 L23.3081111,21.5464025 C22.8760994,22.1006932 22.0724132,22.2233347 21.4545642,21.915529 C21.2071834,21.7928875 21.0225525,21.7315667 20.7751716,21.7315667 C19.9099418,21.7315667 19.2305492,22.408499 19.2305492,23.2705954 C19.2305492,23.5784012 19.3536365,23.8862069 19.5394737,24.1940127 C19.9714854,24.7471015 19.9099418,25.5478772 19.4151798,26.1021679 L18.2422321,27.4560325 C17.1296214,28.6259347 15.584999,29.3028669 13.978833,29.3028669 Z M10.2717391,26.2248095 L13.978833,26.2248095 C14.6582255,26.2248095 15.3376181,25.9170037 15.8323799,25.362713 L16.3259349,24.7471015 C15.4619118,22.3471782 16.7591533,19.699568 19.1690056,18.8374715 C19.9714854,18.5909865 20.7751716,18.5296657 21.5776512,18.6535092 L22.0108696,18.1605392 C22.937643,17.1144805 24.2348846,16.498869 25.6564198,16.498869 C27.5099667,16.498869 31.0312233,16.3137047 33.8115436,15.021161 C36.4687767,13.789938 37.7044747,11.9431035 37.7044747,9.35681399 C37.7044747,5.84830924 35.479253,4.37060125 33.6257061,3.69366899 C29.1776764,2.15464025 22.937643,3.87883324 20.0330287,7.44865874 C19.7241043,7.81778524 19.2305492,8.06427024 18.7357875,8.00294948 C18.6742439,8.00294948 13.6083648,7.81778524 10.8280445,11.3888127 C8.54127947,14.5895117 8.29389831,19.5144037 10.2717391,26.2248095 Z" id="Shape"></path>
                        <path d="M107.149734,53.1277531 C105.976786,53.1277531 104.864175,52.6347832 104.123239,51.7726867 L100.848157,48.0176969 C99.612459,46.6013097 99.7982962,44.5091922 101.218625,43.3392899 C101.527549,43.0928049 101.836474,42.9076407 102.206942,42.7236784 L119.506713,36.0745934 C121.175629,35.4589819 123.029176,36.2597577 123.647025,37.9214279 L125.130104,41.6764177 C125.809497,43.4619314 125.00581,45.4939302 123.213807,46.3560267 L108.880194,52.8199474 C108.262345,53.0039097 107.706039,53.1277531 107.149734,53.1277531 Z M103.258009,45.5552509 C103.133715,45.6165717 103.072172,45.7404152 103.133715,45.8630567 C103.133715,45.8630567 103.133715,45.9243774 103.196466,45.9243774 L106.470341,49.6793672 C106.717722,49.9871729 107.149734,50.1110164 107.521408,49.9258522 L121.855022,43.4619314 C122.163946,43.3392899 122.287033,43.0314842 122.163946,42.7236784 L120.680868,38.9686887 C120.680868,38.9061659 120.619324,38.9061659 120.55778,38.9061659 L103.258009,45.5552509 Z" id="Shape"></path>
                        <path d="M109.374955,42.0467462 C101.466006,42.0467462 95.0401353,35.6441462 95.0401353,27.7638382 L95.0401353,18.961315 C95.0401353,18.0378977 95.1016786,17.1144805 95.2875162,16.1910632 C95.4733534,15.3289667 96.2758332,14.8359967 97.0795195,14.9598402 C97.2026067,14.9598402 97.3269003,15.021161 97.4499876,15.0824817 C100.230308,16.3750255 103.751564,16.5601897 105.605111,16.5601897 C107.026647,16.5601897 108.323888,17.1758012 109.250662,18.22186 L109.68388,18.71483 C112.216819,18.22186 114.688215,19.8847322 115.18177,22.3471782 C115.367608,23.146752 115.306064,24.0088485 114.99714,24.8096242 L115.490695,25.4252357 C115.923913,25.9783245 116.603306,26.2861302 117.344242,26.2861302 L122.22549,26.2861302 C123.09072,26.2861302 123.770112,26.9642644 123.770112,27.825159 C123.770112,35.6441462 117.344242,42.0467462 109.374955,42.0467462 Z M98.1293802,18.6535092 L98.1293802,18.961315 L98.1293802,27.7638382 C98.1293802,33.9812739 103.196466,38.9686887 109.374955,38.9686887 C114.99714,38.9686887 119.754094,34.8433704 120.55778,29.3028669 L117.344242,29.3028669 C115.738076,29.3028669 114.193453,28.6259347 113.205136,27.3947117 L112.030982,26.0408472 C111.59897,25.4865564 111.537427,24.7471015 111.907895,24.13149 C112.40145,23.393237 112.216819,22.4698197 111.537427,21.9768497 C111.042665,21.669044 110.424816,21.6077232 109.930054,21.8542082 C109.312205,22.162014 108.509725,22.0393725 108.076507,21.4850817 L106.965103,20.2538587 C106.656178,19.8847322 106.161417,19.6382472 105.667861,19.6382472 C103.133715,19.699568 100.600776,19.3304415 98.1293802,18.6535092 Z" id="Shape"></path>
                        <path d="M122.22549,29.3028669 L117.344242,29.3028669 C115.738076,29.3028669 114.193453,28.6259347 113.205136,27.3947117 L112.030982,26.0408472 C111.59897,25.4865564 111.537427,24.7471015 111.907895,24.13149 C112.40145,23.393237 112.216819,22.4698197 111.537427,21.9768497 C111.042665,21.669044 110.424816,21.6077232 109.930054,21.8542082 C109.312205,22.162014 108.509725,22.0393725 108.076507,21.4850817 L106.965103,20.2538587 C106.656178,19.8847322 106.161417,19.6382472 105.667861,19.6382472 C103.566934,19.6382472 99.5509153,19.3917622 96.2142896,17.8527335 C92.5071958,16.1285405 90.5305616,13.1743265 90.5305616,9.35681399 C90.5305616,5.29401849 92.7545767,2.15464025 96.7090513,0.800775741 C102.145398,-1.10858149 109.374955,0.738253006 113.26668,4.98621274 C115.120227,5.0475335 119.939931,5.663145 122.967633,9.54197823 C126.118421,13.6047737 126.427346,19.8847322 123.770112,28.1329647 C123.461188,28.8724197 122.904882,29.3028669 122.22549,29.3028669 Z M114.99714,24.8096242 L115.490695,25.4252357 C115.923913,25.9783245 116.603306,26.2861302 117.344242,26.2861302 L121.051335,26.2861302 C123.029176,19.5769265 122.781795,14.6520345 120.433486,11.573977 C117.591623,7.94162873 112.587287,8.18811373 112.525744,8.18811373 C112.030982,8.18811373 111.537427,8.00294948 111.228502,7.63382298 C108.323888,4.00147474 102.083855,2.27728175 97.6358248,3.87883324 C95.7822779,4.55576549 93.5570562,6.03347348 93.5570562,9.54197823 C93.5570562,12.1270657 94.8555044,14.036423 97.4499876,15.2051232 C100.230308,16.498869 103.751564,16.6828312 105.605111,16.6828312 C107.026647,16.6828312 108.323888,17.2984427 109.250662,18.3457035 L109.68388,18.8374715 C112.216819,18.3457035 114.688215,20.0073737 115.18177,22.4698197 C115.367608,23.2080727 115.306064,24.0088485 114.99714,24.8096242 Z" id="Shape"></path>
                        <path d="M124.821179,145.284314 L102.083855,145.284314 C101.280168,145.284314 100.600776,144.668702 100.539232,143.806606 L98.499848,109.517526 C98.499848,109.024556 98.6856855,108.594109 98.99461,108.286303 L105.358937,102.499315 C105.667861,102.25283 106.03833,102.130188 106.408798,102.130188 L127.106738,102.130188 C127.971968,102.130188 128.651361,102.80712 128.651361,103.669217 L128.651361,103.791858 L126.303052,143.806606 C126.303052,144.668702 125.623659,145.284314 124.821179,145.284314 Z M103.566934,142.206256 L123.338101,142.206256 L125.500572,105.269566 L107.026647,105.269566 L101.651843,110.133138 L103.566934,142.206256 Z" id="Shape"></path>
                        <path d="M29.4866008,145.284314 L6.74927588,145.284314 C5.94679634,145.284314 5.26740374,144.668702 5.20465346,143.806606 L2.85755149,103.791858 C2.79600786,102.929762 3.47540046,102.191509 4.27788,102.191509 L4.40217391,102.191509 L31.8349095,102.191509 C32.6989326,102.191509 33.3795319,102.868441 33.3795319,103.730538 L33.3795319,103.853179 L31.0312233,143.867926 C30.9696796,144.668702 30.290287,145.284314 29.4866008,145.284314 Z M8.23235499,142.206256 L28.003522,142.206256 L30.1659934,105.269566 L6.06988359,105.269566 L8.23235499,142.206256 Z" id="Shape"></path>
                        <path d="M65.569222,56.2671314 C64.2719804,56.2671314 63.0362825,55.7741614 62.1710526,54.8507442 L54.756865,47.4634062 C52.7790242,45.6778924 52.7174808,42.5998349 54.5094841,40.6916797 C56.3014874,38.7835244 59.3907323,38.6608829 61.3058228,40.4451947 C61.3673664,40.5077174 61.49166,40.6303589 61.5532037,40.6916797 L65.569222,44.6931544 L76.1341981,34.1664382 C78.1108319,32.3809244 81.1385335,32.4422452 82.9305368,34.4129232 C84.6609964,36.2597577 84.6609964,39.0913302 82.9305368,40.9381647 L68.9673913,54.8507442 C68.1021615,55.7741614 66.8664635,56.2671314 65.569222,56.2671314 Z M58.216578,42.4158727 C57.2898045,42.4158727 56.486118,43.1541257 56.486118,44.1388637 C56.486118,44.5705129 56.6719555,45.0622809 56.98088,45.3700867 L64.3950677,52.7574247 C65.0744603,53.4355589 66.1255273,53.4355589 66.8664635,52.7574247 L80.7680654,38.7835244 C81.3859143,38.0452714 81.3243707,36.9980107 80.6449781,36.3210784 C79.9643789,35.7667877 78.9760621,35.7667877 78.3582131,36.3210784 L66.680626,47.9563762 C66.3717015,48.2641819 66.0012337,48.3868234 65.569222,48.3868234 C65.1360036,48.3868234 64.7655358,48.2028612 64.4566113,47.9563762 L59.3907323,42.9076407 C59.0818078,42.5998349 58.6485894,42.4158727 58.216578,42.4158727 Z" id="Shape"></path>
                        <path d="M65.5076783,64.3927224 C55.5593445,64.3927224 47.4657646,56.3284521 47.4657646,46.4173474 C47.4657646,36.5062427 55.5593445,28.4407705 65.5076783,28.4407705 C70.4504701,28.4407705 75.2074246,30.4727692 78.605594,34.0437967 C79.1618993,34.6594082 79.1618993,35.6441462 78.5440503,36.1984369 C78.5440503,36.1984369 78.4825067,36.2597577 78.4825067,36.2597577 C78.4197564,36.3210784 78.4197564,36.3210784 78.3582131,36.3823992 L66.680626,48.0176969 C66.3717015,48.3255027 66.0012337,48.4481442 65.569222,48.4481442 C65.1360036,48.4481442 64.7655358,48.2641819 64.4566113,48.0176969 L59.3907323,42.9701634 C58.7728833,42.2307084 57.6602726,42.1693877 56.9193364,42.8463199 C56.1771935,43.4619314 56.1156502,44.5705129 56.7950425,45.3087659 C56.8577928,45.3700867 56.9193364,45.4326094 56.9193364,45.4326094 L64.333524,52.8199474 C65.0129166,53.4968796 66.062777,53.4968796 66.8049199,52.8199474 L79.9028355,39.7682624 C80.5206845,39.1526509 81.5090013,39.1526509 82.0653069,39.7682624 C82.2511442,39.9534267 82.3742314,40.1373889 82.4357747,40.3225532 C85.8339441,49.6793672 81.0154462,60.0221211 71.6234178,63.4079844 C69.6467839,64.0235959 67.5458561,64.3927224 65.5076783,64.3927224 Z M65.5076783,31.4575072 C57.2282609,31.4575072 50.5550095,38.1679129 50.5550095,46.3560267 C50.5550095,54.5429384 57.2898045,61.2533441 65.5076783,61.2533441 C73.7243458,61.2533441 80.4591409,54.5429384 80.4591409,46.3560267 C80.4591409,45.4939302 80.3975973,44.5705129 80.21176,43.7084164 L68.9673913,54.9120649 C67.1138444,56.7588994 64.0245995,56.7588994 62.1710526,54.9120649 L54.756865,47.5247269 C52.7790242,45.7404152 52.7174808,42.6623577 54.5094841,40.7530004 C56.3014874,38.8448452 59.3907323,38.7222037 61.3058228,40.5077174 C61.3673664,40.5690382 61.49166,40.6916797 61.5532037,40.7530004 L65.569222,44.7544752 L75.2689683,35.0898554 C72.5501912,32.7500509 69.0904786,31.4575072 65.5076783,31.4575072 Z" id="Shape"></path>
                        <path d="M41.5346558,145.284314 L1.56030992,145.284314 C0.695080092,145.284314 0.0156875561,144.607381 0.0156875561,143.745285 C0.0156875561,142.883188 0.695080092,142.206256 1.56030992,142.206256 L41.5346558,142.206256 C42.3998856,142.206256 43.0792782,142.883188 43.0792782,143.745285 C43.0792782,144.607381 42.3998856,145.284314 41.5346558,145.284314 Z" id="Path"></path>
                        <path d="M55.5593445,145.284314 L49.3808548,145.284314 C48.5168317,145.284314 47.8362324,144.607381 47.8362324,143.745285 C47.8362324,142.883188 48.5168317,142.206256 49.3808548,142.206256 L55.5593445,142.206256 C56.4245747,142.206256 57.103967,142.883188 57.103967,143.745285 C57.103967,144.607381 56.4245747,145.284314 55.5593445,145.284314 Z" id="Path"></path>
                        <path d="M133.408315,145.284314 L94.3607427,145.284314 C93.4955129,145.284314 92.8161203,144.607381 92.8161203,143.745285 C92.8161203,142.883188 93.4955129,142.206256 94.3607427,142.206256 L133.408315,142.206256 C134.273545,142.206256 134.952937,142.883188 134.952937,143.745285 C134.952937,144.607381 134.273545,145.284314 133.408315,145.284314 Z" id="Path"></path>
                        <path d="M87.3785665,120.47469 C85.340389,120.47469 83.3625482,119.613795 82.0037633,118.074766 C79.2849866,115.11935 79.5323674,110.502264 82.498525,107.854654 L108.632813,84.2774546 L108.632813,56.0819671 C108.571269,52.0804924 111.846351,48.8184727 115.862369,48.7559499 C119.878388,48.6946292 123.152263,51.9578509 123.213807,55.9593256 L123.213807,56.0819671 L123.213807,87.4781536 C123.213807,89.5101523 122.349784,91.4796283 120.805161,92.8346948 L92.2598149,118.566534 C90.9625734,119.797757 89.2321134,120.47469 87.3785665,120.47469 Z M84.2893216,115.981447 C85.8339441,117.704438 88.4911775,117.828281 90.2216372,116.289253 L118.765777,90.5562111 C119.631007,89.7566373 120.124562,88.6480558 120.124562,87.4781536 L120.124562,56.0819671 C120.124562,53.8046854 118.333765,51.8965301 115.985457,51.8965301 C113.699898,51.8965301 111.783601,53.6808419 111.783601,56.0206464 L111.783601,56.1432879 L111.783601,84.9543868 C111.783601,85.3848341 111.59897,85.8164833 111.290046,86.1242891 L84.6609964,110.194458 C82.8689931,111.672166 82.7446992,114.318575 84.2893216,115.981447 Z" id="Shape"></path>
                        <path d="M87.3785665,120.47469 C83.3625482,120.47469 80.0886728,117.21267 80.0886728,113.272516 C80.0886728,111.240517 80.9539026,109.271041 82.498525,107.917177 L86.8850114,103.977023 C87.5028604,103.422732 88.4911775,103.422732 89.0474828,104.099664 L96.770595,112.534263 C97.3269003,113.149874 97.3269003,114.134612 96.6463011,114.688903 L92.2598149,118.627855 C90.9625734,119.797757 89.2321134,120.47469 87.3785665,120.47469 Z M87.8117849,107.239042 L84.5982461,110.133138 C82.8689931,111.672166 82.7446992,114.318575 84.2277783,116.042768 C85.7108571,117.766961 88.4296339,117.889602 90.1588869,116.411894 C90.1588869,116.411894 90.2216372,116.350573 90.2216372,116.350573 L93.4955129,113.395157 L87.8117849,107.239042 Z" id="Shape"></path>
                        <path d="M68.9058477,100.529839 C68.5341729,100.529839 68.1637051,100.529839 67.793237,100.467316 L29.7339817,94.9268123 C27.3856731,94.5576858 25.3474953,93.1425006 24.173341,91.0491811 L7.49141876,59.8369569 C5.51357794,56.2058106 6.87356979,51.6500451 10.51912,49.7418899 C14.1634635,47.8325327 18.7357875,49.1262784 20.6508777,52.7574247 C20.6508777,52.7574247 20.6508777,52.8199474 20.713628,52.8199474 L35.6650905,80.6451063 L69.9557084,85.6313191 C74.0332703,86.2469306 76.875134,90.0019203 76.3200353,94.0659178 C75.76373,97.7595868 72.6744851,100.467316 68.9058477,100.529839 Z M14.1634635,51.8965301 C11.7548179,51.8965301 9.77697741,53.8660061 9.77697741,56.2671314 C9.77697741,57.0053844 9.96281465,57.6823166 10.2717391,58.2979281 L26.9536613,89.5101523 C27.6330539,90.7413753 28.8072082,91.6034718 30.2275368,91.7874341 L68.2879987,97.3279376 C70.6966443,97.6970641 72.921866,96.0353938 73.2923341,93.6342686 C73.6628022,91.2331433 71.9950925,89.0171823 69.5852403,88.6480558 L34.4909362,83.5379996 C33.9973809,83.4766788 33.5641628,83.1688731 33.3795319,82.7384258 L18.0563949,54.2351327 C17.5000895,53.1890739 16.5733161,52.4496189 15.4619118,52.0804924 C15.090237,51.9578509 14.5966819,51.8965301 14.1634635,51.8965301 Z" id="Shape"></path>
                        <path d="M31.8349095,105.269566 L4.40217391,105.269566 C3.59848771,105.269566 2.91909511,104.653955 2.85755149,103.853179 L0.0772311213,64.5778866 C-0.479074222,56.8214221 1.99232166,49.2489199 6.93511342,43.3392899 C7.49141876,42.6623577 8.47973585,42.5998349 9.09758482,43.1541257 C9.15912844,43.2154464 9.22067176,43.2779692 9.28342205,43.3392899 L9.46805293,43.5232522 L23.8028728,49.9871729 C24.173341,50.1723372 24.6053527,50.0496956 24.8527336,49.7418899 L28.1278156,45.9856982 C28.6829143,45.3700867 29.6724381,45.2474452 30.290287,45.8017359 C30.4749179,45.9243774 30.5992115,46.1708624 30.7222988,46.3560267 C34.0589245,54.1124911 35.5420033,62.4845671 35.1087852,70.9179639 L34.6767735,79.2912418 C34.6152298,80.1521364 33.8730873,80.7677479 33.0706074,80.7677479 C32.5143021,80.7677479 32.0195403,80.4599421 31.7721592,79.9681741 L18.0563949,54.2351327 C16.9437839,52.0804924 14.2877574,51.2809186 12.125286,52.3882982 C9.96281465,53.4968796 9.15912844,56.1432879 10.2717391,58.2979281 L10.2717391,58.3604509 L26.9536613,89.5714731 C27.6330539,90.8026961 28.8072082,91.6647926 30.2275368,91.8487548 L32.6373893,92.2190833 C33.4410755,92.3417248 33.9973809,93.0186571 33.9346306,93.8194328 L33.3795319,103.791858 C33.3167816,104.592634 32.6373893,105.269566 31.8349095,105.269566 Z M5.82250243,102.191509 L30.3518307,102.191509 L30.7222988,95.0506558 L29.7339817,94.9268123 C27.3856731,94.5576858 25.3474953,93.1425006 24.173341,91.0491811 L7.49141876,59.8369569 C5.57632823,56.2058106 6.93511342,51.6500451 10.5806636,49.7418899 C11.5689807,49.1875992 12.6815914,48.9411142 13.7929957,48.8797934 L8.35664859,46.4173474 C4.46371754,51.5262017 2.548627,57.9288016 3.04218206,64.3314016 L5.82250243,102.191509 Z M20.0330287,51.5887244 C20.3419532,51.9578509 20.5893344,52.3882982 20.8367153,52.7574247 L31.9579967,73.5655741 L32.1438339,70.7340016 C32.5143021,63.6544694 31.4632347,56.5136164 28.9302955,49.8645314 L27.3241294,51.7113659 C26.1499751,53.0652304 24.2348846,53.4355589 22.6287185,52.7574247 L20.0330287,51.5887244 Z" id="Shape"></path>
                        <path d="M68.9058477,100.529839 C68.5341729,100.529839 68.1637051,100.529839 67.793237,100.467316 L61.6762909,99.6064213 C60.8110608,99.4825778 60.2559621,98.6830041 60.3790493,97.8822283 L62.0467587,86.1242891 C62.1710526,85.2621926 62.9735322,84.7079018 63.7772187,84.8317453 L69.9557084,85.7551626 C74.0332703,86.3707741 76.875134,90.1257638 76.3200353,94.2498801 C75.76373,97.7595868 72.6744851,100.467316 68.9058477,100.529839 Z M63.6541314,96.7123261 L68.2879987,97.3892583 C70.6966443,97.7595868 72.921866,96.0967146 73.2923341,93.6955893 C73.6628022,91.2956661 71.9950925,89.0785031 69.5852403,88.7093766 L64.951373,88.0324443 L63.6541314,96.7123261 Z" id="Shape"></path>
                    </g>
                    <path d="M84.8814228,4.39223456 C82.4401301,3.96431062 80.5952106,2.24947703 80.1197395,0.106719503 C80.1197395,0.0533597515 80.0592885,0 80.0000001,0 C79.9407115,0 79.9407115,0.0533597515 79.8814229,0.106719503 C79.4047897,2.30388272 77.5005813,3.96431062 75.1197397,4.39223456 C75.0604511,4.39223456 75,4.44664025 75,4.5 C75,4.55335975 75.0604511,4.55335975 75.1197397,4.6067195 C77.5598699,5.03568938 79.4047897,6.74947703 79.8814229,8.89223456 C79.8814229,8.94559431 79.9407115,9 80.0000001,9 C80.0592885,9 80.0592885,8.94559431 80.1197395,8.89223456 C80.5952106,6.69611728 82.5005811,5.03568938 84.8814228,4.6067195 C84.9407114,4.6067195 85,4.55335975 85,4.5 C84.9407114,4.39223456 84.9407114,4.39223456 84.8814228,4.39223456 Z" id="Path" fill="#F75C64"></path>
                </g>
            </g>
        </g>
    </g>
</svg>