<?xml version="1.0" encoding="UTF-8"?>
<svg width="542px" height="450px" viewBox="0 0 542 450" version="1.1" xmlns="http://www.w3.org/2000/svg" xmlns:xlink="http://www.w3.org/1999/xlink">
    <!-- Generator: Sketch 52.4 (67378) - http://www.bohemiancoding.com/sketch -->
    <title>Group</title>
    <desc>Created with Sketch.</desc>
    <g id="Elementos" stroke="none" stroke-width="1" fill="none" fill-rule="evenodd">
        <g id="Servicios/Header" transform="translate(-555.000000, -66.000000)">
            <g id="Group" transform="translate(556.000000, 66.000000)">
                <g id="undraw_millennial_girl_fxlt" transform="translate(307.000000, 0.000000)">
                    <path d="M20.2694009,157.718288 C20.7575673,156.827667 21.0096691,155.817063 20.9997163,154.790661 C20.9997163,152.145525 19.43635,150 17.5000092,150 C15.5636684,150 14.0003021,152.145525 14.0003021,154.790661 C13.9903493,155.817063 14.2424512,156.827667 14.7306175,157.718288 C13.7568816,159.537327 13.7568816,161.754501 14.7306175,163.573541 C13.7568816,165.39258 13.7568816,167.609754 14.7306175,169.428794 C13.7568816,171.247833 13.7568816,173.465007 14.7306175,175.284047 C14.2421485,176.174538 13.9900248,177.18523 14.0003021,178.211673 C14.0003021,180.856809 15.5636684,183 17.5000092,183 C19.43635,183 20.9997163,180.856809 20.9997163,178.211673 C21.0095953,177.18602 20.757485,176.176188 20.2694009,175.286381 C21.2431368,173.467342 21.2431368,171.250168 20.2694009,169.431128 C21.2431368,167.612089 21.2431368,165.394915 20.2694009,163.575875 C21.2431368,161.756836 21.2431368,159.539662 20.2694009,157.720623 L20.2694009,157.718288 Z" id="Path" fill="#3F3D56"></path>
                    <ellipse id="Oval" fill="#3F3D56" cx="17.5" cy="149" rx="3.5" ry="5"></ellipse>
                    <ellipse id="Oval" fill="#3F3D56" cx="17.5" cy="143" rx="3.5" ry="5"></ellipse>
                    <path d="M3.74057632,102.608484 C3.24300056,101.966459 2.78931613,101.290981 2.3826711,100.586738 L11.9741869,98.9975513 L1.60007049,99.0751299 C-0.410864473,94.6577508 -0.531327914,89.5996146 1.2669994,85.0898167 L15.183781,92.3775072 L2.34773357,82.8541413 C5.61553399,77.1174248 11.787664,73.7071193 18.336536,74.0198004 C24.885408,74.3324816 30.7110184,78.3156288 33.427685,84.3380786 C36.1443515,90.3605283 35.2957601,97.4106993 31.2294227,102.601432 C32.0061954,103.599113 32.6746141,104.678074 33.2231909,105.81977 L20.7737854,112.355183 L34.0500457,107.857972 C35.9432601,113.509208 34.883356,119.7431 31.2317519,124.433942 C36.8733323,131.669218 36.0569265,142.066022 29.3565769,148.314009 C22.6562273,154.561997 12.3230883,154.561997 5.62273876,148.314009 C-1.07761083,142.066022 -1.89401663,131.669218 3.74756383,124.433942 C-1.2396615,118.029493 -1.2396615,109.012933 3.74756383,102.608484 L3.74057632,102.608484 Z" id="Path" fill="#57B894"></path>
                    <path d="M34.995067,113.261978 C35.0009958,117.246868 33.6820663,121.11717 31.2517846,124.246365 C36.8973434,131.529151 36.0803619,141.994224 29.3752874,148.283239 C22.6702128,154.572254 12.3297872,154.572254 5.62471262,148.283239 C-1.0803619,141.994224 -1.89734342,131.529151 3.74821536,124.246365 C1.38710386,121.222227 34.995067,111.267183 34.995067,113.261978 Z" id="Path" fill="#000000" opacity="0.1"></path>
                    <path d="M211.373134,164.079241 C211.791878,163.377529 212.008193,162.581168 211.999763,161.772321 C211.999763,159.687872 210.658426,158 209,158 C207.341574,158 206.000237,159.692708 206.000237,161.772321 C205.991807,162.581168 206.208122,163.377529 206.626866,164.079241 C205.791341,165.512411 205.791341,167.259911 206.626866,168.69308 C205.791341,170.12625 205.791341,171.87375 206.626866,173.30692 C205.791299,174.739218 205.791299,176.486042 206.626866,177.918341 C206.208349,178.620142 205.99205,179.416443 206.000237,180.22526 C206.000237,182.30971 207.344091,184 209,184 C210.655909,184 211.999763,182.307292 211.999763,180.22526 C212.00795,179.416443 211.791651,178.620142 211.373134,177.918341 C212.208701,176.486042 212.208701,174.739218 211.373134,173.30692 C212.208659,171.87375 212.208659,170.12625 211.373134,168.69308 C212.208659,167.259911 212.208659,165.512411 211.373134,164.079241 Z" id="Path" fill="#3F3D56"></path>
                    <ellipse id="Oval" fill="#3F3D56" cx="209" cy="157.5" rx="3" ry="3.5"></ellipse>
                    <ellipse id="Oval" fill="#3F3D56" cx="209" cy="153.5" rx="3" ry="3.5"></ellipse>
                    <path d="M197.88816,122.698543 C197.503027,122.211175 197.152399,121.697818 196.838803,121.162175 L204.24339,119.952343 L196.233768,120.013422 C194.683491,116.654621 194.590342,112.810086 195.976156,109.381001 L206.720251,114.922734 L196.812805,107.687237 C199.344967,103.345902 204.102889,100.772119 209.145498,101.015906 C214.188106,101.259693 218.672279,104.280288 220.768624,108.84539 C222.864968,113.410491 222.222976,118.756816 219.104558,122.703242 C219.705255,123.460911 220.221899,124.28083 220.645506,125.148746 L211.033488,130.112578 L221.285993,126.687463 C222.750536,130.983456 221.931629,135.724138 219.109285,139.288503 C223.462307,144.788411 222.831288,152.690228 217.659859,157.438669 C212.48843,162.18711 204.513743,162.18711 199.342313,157.438669 C194.170884,152.690228 193.539865,144.788411 197.892887,139.288503 C194.0417,134.420976 194.0417,127.56607 197.892887,122.698543 L197.88816,122.698543 Z" id="Path" fill="#57B894"></path>
                    <path d="M221.999985,130.202913 C222.00456,133.291987 220.985865,136.292038 219.109135,138.716449 C223.462745,144.361269 222.83164,152.471282 217.659514,157.344835 C212.487387,162.218388 204.511625,162.218388 199.339499,157.344835 C194.167372,152.471282 193.536268,144.361269 197.889877,138.716449 C196.079255,136.372876 221.999985,128.657408 221.999985,130.202913 Z" id="Path" fill="#000000" opacity="0.1"></path>
                    <path d="M187.5055,46.1268876 L140.356075,46.1268876 L140.356075,35.8927211 C140.356701,35.24311 140.09988,34.6199248 139.642243,34.1605802 C139.184605,33.7012356 138.563737,33.4434566 137.91654,33.4440846 L124.072887,33.4440846 L124.072887,22.5410338 C124.072887,21.6899443 123.385507,21 122.537581,21 L104.69554,21 C103.848152,21.0013015 103.161531,21.690484 103.160235,22.5410338 L103.160235,33.4440846 L86.8911752,33.4440846 C86.2429472,33.4422004 85.6206256,33.6993491 85.1615951,34.1587619 C84.7025646,34.6181747 84.4445734,35.2420719 84.4445761,35.8927211 L84.4445761,46.1197969 L39.4945003,46.1197969 C39.2210149,46.1210979 38.9999969,46.3439968 39,46.6185057 L39,182.501291 C38.9999969,182.7758 39.2210149,182.998699 39.4945003,183 L69.3740913,183 C69.6479611,182.998706 69.8696575,182.776183 69.8709463,182.501291 L69.8709463,164.21215 C69.8722352,163.937259 70.0939315,163.714735 70.3678014,163.713442 L82.9893324,163.713442 C83.2628179,163.714743 83.4838358,163.937642 83.4838327,164.21215 L83.4838327,182.491837 C83.4838205,182.765431 83.7034137,182.987952 83.9759783,182.990546 L143.024022,182.990546 C143.296972,182.987964 143.517247,182.765814 143.518522,182.491837 L143.518522,164.21215 C143.51851,163.938557 143.738103,163.716035 144.010668,163.713442 L156.632199,163.713442 C156.906604,163.713442 157.129054,163.936721 157.129054,164.21215 L157.129054,182.491837 C157.130342,182.766729 157.352039,182.989252 157.625909,182.990546 L187.5055,182.990546 C187.77845,182.987964 187.998725,182.765814 188,182.491837 L188,46.6255964 C188.000003,46.3510875 187.778985,46.1281885 187.5055,46.1268876 Z M64.5209242,157.374404 C64.5196355,157.646685 64.3000476,157.867092 64.0287787,157.868385 L45.5721443,157.868385 C45.4412116,157.869014 45.3154267,157.817248 45.2226216,157.72454 C45.1298165,157.631832 45.0776425,157.505826 45.077644,157.374404 L45.077644,151.047183 C45.0770175,150.915135 45.1288398,150.78828 45.2216446,150.694685 C45.3144494,150.601091 45.4405856,150.548473 45.5721443,150.548475 L64.0287787,150.548475 C64.3013432,150.551068 64.5209365,150.77359 64.5209242,151.047183 L64.5209242,157.374404 Z M64.5209242,141.025736 C64.5209273,141.29894 64.3009636,141.520781 64.0287787,141.522082 L45.5721443,141.522082 C45.4405856,141.522083 45.3144494,141.469465 45.2216446,141.375871 C45.1288398,141.282276 45.0770175,141.155421 45.077644,141.023373 L45.077644,134.703243 C45.0770175,134.571195 45.1288398,134.44434 45.2216446,134.350745 C45.3144494,134.257151 45.4405856,134.204533 45.5721443,134.204535 L64.0287787,134.204535 C64.1599288,134.20516 64.2854596,134.258054 64.3777551,134.35158 C64.4700507,134.445107 64.5215502,134.571604 64.5209242,134.703243 L64.5209242,141.025736 Z M64.5209242,124.681796 C64.5209273,124.955 64.3009636,125.176841 64.0287787,125.178142 L45.5721443,125.178142 C45.2990393,125.178142 45.077644,124.95592 45.077644,124.681796 L45.077644,118.359303 C45.0770175,118.227255 45.1288398,118.1004 45.2216446,118.006805 C45.3144494,117.913211 45.4405856,117.860593 45.5721443,117.860594 L64.0287787,117.860594 C64.3013432,117.863188 64.5209365,118.085709 64.5209242,118.359303 L64.5209242,124.681796 Z M64.5209242,108.333129 C64.5215507,108.46455 64.4699765,108.590804 64.3776133,108.683956 C64.2852501,108.777107 64.1597128,108.829476 64.0287787,108.829474 L45.5721443,108.829474 C45.4408025,108.830107 45.3146581,108.778016 45.2217844,108.684796 C45.1289107,108.591576 45.077014,108.464961 45.077644,108.333129 L45.077644,102.008272 C45.077014,101.876441 45.1289107,101.749826 45.2217844,101.656605 C45.3146581,101.563385 45.4408025,101.511295 45.5721443,101.511927 L64.0287787,101.511927 C64.1597128,101.511926 64.2852501,101.564294 64.3776133,101.657446 C64.4699765,101.750597 64.5215507,101.876851 64.5209242,102.008272 L64.5209242,108.333129 Z M64.5209242,91.9868254 C64.5209365,92.2604191 64.3013432,92.4829409 64.0287787,92.4855342 L45.5721443,92.4855342 C45.4405856,92.4855357 45.3144494,92.432918 45.2216446,92.3393234 C45.1288398,92.2457288 45.0770175,92.1188734 45.077644,91.9868254 L45.077644,85.6596052 C45.0776425,85.5281826 45.1298165,85.4021769 45.2226216,85.3094691 C45.3154267,85.2167613 45.4412116,85.1649947 45.5721443,85.1656235 L64.0287787,85.1656235 C64.3000476,85.166917 64.5196355,85.3873242 64.5209242,85.6596052 L64.5209242,91.9868254 Z M64.5209242,75.6428853 C64.5196355,75.9151662 64.3000476,76.1355735 64.0287787,76.136867 L45.5721443,76.136867 C45.4412116,76.1374958 45.3154267,76.0857292 45.2226216,75.9930214 C45.1298165,75.9003136 45.0776425,75.7743079 45.077644,75.6428853 L45.077644,69.3156651 C45.0776409,69.0411562 45.2986588,68.8182573 45.5721443,68.8169563 L64.0287787,68.8169563 C64.3013432,68.8195496 64.5209365,69.0420713 64.5209242,69.3156651 L64.5209242,75.6428853 Z M64.5209242,59.2942181 C64.5215502,59.4258575 64.4700507,59.5523547 64.3777551,59.6458811 C64.2854596,59.7394074 64.1599288,59.7923015 64.0287787,59.7929269 L45.5721443,59.7929269 C45.4405856,59.7929284 45.3144494,59.7403107 45.2216446,59.6467161 C45.1288398,59.5531214 45.0770175,59.426266 45.077644,59.2942181 L45.077644,52.971725 C45.0770175,52.839677 45.1288398,52.7128216 45.2216446,52.619227 C45.3144494,52.5256323 45.4405856,52.4730147 45.5721443,52.4730162 L64.0287787,52.4730162 C64.1599288,52.4736415 64.2854596,52.5265356 64.3777551,52.620062 C64.4700507,52.7135883 64.5215502,52.8400856 64.5209242,52.971725 L64.5209242,59.2942181 Z M108.272426,157.381494 C108.272427,157.512917 108.220253,157.638923 108.127448,157.73163 C108.034643,157.824338 107.908858,157.876105 107.777925,157.875476 L89.3236456,157.875476 C89.0510689,157.875488 88.8293742,157.655076 88.8267906,157.381494 L88.8267906,151.047183 C88.8280794,150.772292 89.0497758,150.549768 89.3236456,150.548475 L107.777925,150.548475 C107.909484,150.548473 108.03562,150.601091 108.128425,150.694685 C108.22123,150.78828 108.273052,150.915135 108.272426,151.047183 L108.272426,157.381494 Z M108.272426,141.032827 C108.273052,141.164875 108.22123,141.29173 108.128425,141.385325 C108.03562,141.47892 107.909484,141.531537 107.777925,141.531536 L89.3236456,141.531536 C89.0492402,141.531536 88.8267906,141.308256 88.8267906,141.032827 L88.8267906,134.703243 C88.8267906,134.427814 89.0492402,134.204535 89.3236456,134.204535 L107.777925,134.204535 C107.909484,134.204533 108.03562,134.257151 108.128425,134.350745 C108.22123,134.44434 108.273052,134.571195 108.272426,134.703243 L108.272426,141.032827 Z M108.272426,124.688887 C108.272426,124.963011 108.05103,125.185232 107.777925,125.185232 L89.3236456,125.185232 C89.0501571,125.185235 88.8280867,124.963393 88.8267906,124.688887 L88.8267906,118.359303 C88.8280794,118.084412 89.0497758,117.861888 89.3236456,117.860594 L107.777925,117.860594 C107.909484,117.860593 108.03562,117.913211 108.128425,118.006805 C108.22123,118.1004 108.273052,118.227255 108.272426,118.359303 L108.272426,124.688887 Z M108.272426,108.34022 C108.273056,108.472051 108.221159,108.598667 108.128285,108.691887 C108.035411,108.785107 107.909267,108.837197 107.777925,108.836565 L89.3236456,108.836565 C89.1920885,108.837194 89.0657046,108.785178 88.9724579,108.692027 C88.8792112,108.598876 88.8267891,108.472269 88.8267906,108.34022 L88.8267906,102.008272 C88.8267891,101.876223 88.8792112,101.749616 88.9724579,101.656465 C89.0657046,101.563314 89.1920885,101.511298 89.3236456,101.511927 L107.777925,101.511927 C107.909267,101.511295 108.035411,101.563385 108.128285,101.656605 C108.221159,101.749826 108.273056,101.876441 108.272426,102.008272 L108.272426,108.34022 Z M108.272426,91.9939161 C108.273052,92.125964 108.22123,92.2528194 108.128425,92.346414 C108.03562,92.4400087 107.909484,92.4926263 107.777925,92.4926249 L89.3236456,92.4926249 C89.0497758,92.4913312 88.8280794,92.2688077 88.8267906,91.9939161 L88.8267906,85.6596052 C88.8293742,85.3860238 89.0510689,85.1656112 89.3236456,85.1656235 L107.777925,85.1656235 C107.908858,85.1649947 108.034643,85.2167613 108.127448,85.3094691 C108.220253,85.4021769 108.272427,85.5281826 108.272426,85.6596052 L108.272426,91.9939161 Z M108.272426,75.6499759 C108.272427,75.7813986 108.220253,75.9074043 108.127448,76.000112 C108.034643,76.0928198 107.908858,76.1445864 107.777925,76.1439576 L89.3236456,76.1439576 C89.0510689,76.1439699 88.8293742,75.9235574 88.8267906,75.6499759 L88.8267906,69.3156651 C88.8280794,69.0407734 89.0497758,68.8182499 89.3236456,68.8169563 L107.777925,68.8169563 C108.051411,68.8182573 108.272429,69.0411562 108.272426,69.3156651 L108.272426,75.6499759 Z M108.272426,59.3013087 C108.273052,59.4333567 108.22123,59.5602121 108.128425,59.6538067 C108.03562,59.7474013 107.909484,59.800019 107.777925,59.8000175 L89.3236456,59.8000175 C89.0492402,59.8000175 88.8267906,59.576738 88.8267906,59.3013087 L88.8267906,52.971725 C88.8267906,52.6962957 89.0492402,52.4730162 89.3236456,52.4730162 L107.777925,52.4730162 C107.909484,52.4730147 108.03562,52.5256323 108.128425,52.619227 C108.22123,52.7128216 108.273052,52.839677 108.272426,52.971725 L108.272426,59.3013087 Z M138.177919,157.388585 C138.177296,157.520224 138.124598,157.646224 138.03142,157.738863 C137.938241,157.831503 137.812214,157.883195 137.681064,157.882567 L119.21972,157.882567 C118.947532,157.88257 118.726516,157.661785 118.72522,157.388585 L118.72522,151.047183 C118.725217,150.772675 118.946235,150.549776 119.21972,150.548475 L137.674,150.548475 C137.948405,150.548475 138.170855,150.771754 138.170855,151.047183 L138.177919,157.388585 Z M138.177919,141.039918 C138.178549,141.172376 138.126404,141.299593 138.033089,141.393256 C137.939774,141.486919 137.81303,141.539259 137.681064,141.538627 L119.21972,141.538627 C118.946235,141.537326 118.725217,141.314427 118.72522,141.039918 L118.72522,134.703243 C118.725217,134.428734 118.946235,134.205836 119.21972,134.204535 L137.674,134.204535 C137.805966,134.203902 137.932709,134.256242 138.026025,134.349905 C138.11934,134.443568 138.171485,134.570785 138.170855,134.703243 L138.177919,141.039918 Z M138.177919,124.695978 C138.176623,124.970483 137.954552,125.192326 137.681064,125.192323 L119.21972,125.192323 C118.947151,125.191029 118.726508,124.969564 118.72522,124.695978 L118.72522,118.359303 C118.725217,118.084794 118.946235,117.861895 119.21972,117.860594 L137.674,117.860594 C137.948405,117.860594 138.170855,118.083874 138.170855,118.359303 L138.177919,124.695978 Z M138.177919,108.34731 C138.17792,108.47936 138.125498,108.605967 138.032252,108.699118 C137.939005,108.792269 137.812621,108.844284 137.681064,108.843656 L119.21972,108.843656 C119.08857,108.843656 118.962792,108.791362 118.870055,108.698279 C118.777319,108.605197 118.72522,108.478949 118.72522,108.34731 L118.72522,102.008272 C118.72522,101.876633 118.777319,101.750386 118.870055,101.657303 C118.962792,101.564221 119.08857,101.511927 119.21972,101.511927 L137.674,101.511927 C137.805557,101.511298 137.931941,101.563314 138.025187,101.656465 C138.118434,101.749616 138.170856,101.876223 138.170855,102.008272 L138.177919,108.34731 Z M138.177919,92.0010067 C138.177919,92.276436 137.955469,92.4997155 137.681064,92.4997155 L119.21972,92.4997155 C118.946235,92.4984145 118.725217,92.2755156 118.72522,92.0010067 L118.72522,85.6596052 C118.726516,85.3864048 118.947532,85.1656204 119.21972,85.1656235 L137.674,85.1656235 C137.80515,85.1649951 137.931177,85.2166869 138.024355,85.3093267 C138.117534,85.4019666 138.170232,85.5279658 138.170855,85.6596052 L138.177919,92.0010067 Z M138.177919,75.6570666 C138.177296,75.788706 138.124598,75.9147052 138.03142,76.0073451 C137.938241,76.0999849 137.812214,76.1516766 137.681064,76.1510483 L119.21972,76.1510483 C118.947532,76.1510514 118.726516,75.930267 118.72522,75.6570666 L118.72522,69.3156651 C118.726495,69.0416877 118.94677,68.819538 119.21972,68.8169563 L137.674,68.8169563 C137.947869,68.8182499 138.169566,69.0407734 138.170855,69.3156651 L138.177919,75.6570666 Z M138.177919,59.3083994 C138.178549,59.440858 138.126404,59.5680742 138.033089,59.6617376 C137.939774,59.7554011 137.81303,59.8077404 137.681064,59.8071082 L119.21972,59.8071082 C118.946235,59.8058072 118.725217,59.5829082 118.72522,59.3083994 L118.72522,52.971725 C118.725217,52.6972161 118.946235,52.4743171 119.21972,52.4730162 L137.674,52.4730162 C137.805966,52.4723839 137.932709,52.5247232 138.026025,52.6183867 C138.11934,52.7120501 138.171485,52.8392663 138.170855,52.971725 L138.177919,59.3083994 Z M181.931775,157.374404 C181.929191,157.647985 181.707497,157.868398 181.43492,157.868385 L162.973576,157.868385 C162.842426,157.869014 162.716399,157.817322 162.62322,157.724682 C162.530042,157.632042 162.477344,157.506043 162.476721,157.374404 L162.476721,151.047183 C162.476721,150.771754 162.699171,150.548475 162.973576,150.548475 L181.427856,150.548475 C181.560661,150.547216 181.688492,150.599126 181.783065,150.692721 C181.877637,150.786315 181.931155,150.913878 181.931775,151.047183 L181.931775,157.374404 Z M181.931775,141.025736 C181.931775,141.301166 181.709325,141.524445 181.43492,141.524445 L162.973576,141.524445 C162.84161,141.525077 162.714866,141.472738 162.621551,141.379075 C162.528236,141.285411 162.476091,141.158195 162.476721,141.025736 L162.476721,134.703243 C162.476091,134.570785 162.528236,134.443568 162.621551,134.349905 C162.714866,134.256242 162.84161,134.203902 162.973576,134.204535 L181.427856,134.204535 C181.702261,134.204535 181.924711,134.427814 181.924711,134.703243 L181.931775,141.025736 Z M181.931775,124.681796 C181.930479,124.956302 181.708409,125.178145 181.43492,125.178142 L162.973576,125.178142 C162.700088,125.178145 162.478017,124.956302 162.476721,124.681796 L162.476721,118.359303 C162.476721,118.083874 162.699171,117.860594 162.973576,117.860594 L181.427856,117.860594 C181.560661,117.859335 181.688492,117.911246 181.783065,118.004841 C181.877637,118.098435 181.931155,118.225998 181.931775,118.359303 L181.931775,124.681796 Z M181.931775,108.333129 C181.931777,108.465179 181.879354,108.591785 181.786108,108.684936 C181.692861,108.778087 181.566477,108.830103 181.43492,108.829474 L162.973576,108.829474 C162.842019,108.830103 162.715635,108.778087 162.622388,108.684936 C162.529142,108.591785 162.47672,108.465179 162.476721,108.333129 L162.476721,102.008272 C162.47672,101.876223 162.529142,101.749616 162.622388,101.656465 C162.715635,101.563314 162.842019,101.511298 162.973576,101.511927 L181.427856,101.511927 C181.559413,101.511298 181.685797,101.563314 181.779043,101.656465 C181.87229,101.749616 181.924712,101.876223 181.924711,102.008272 L181.931775,108.333129 Z M181.931775,91.9868254 C181.930486,92.261717 181.70879,92.4842406 181.43492,92.4855342 L162.973576,92.4855342 C162.699171,92.4855342 162.476721,92.2622547 162.476721,91.9868254 L162.476721,85.6596052 C162.477344,85.5279658 162.530042,85.4019666 162.62322,85.3093267 C162.716399,85.2166869 162.842426,85.1649951 162.973576,85.1656235 L181.427856,85.1656235 C181.700432,85.1656112 181.922127,85.3860238 181.924711,85.6596052 L181.931775,91.9868254 Z M181.931775,75.6428853 C181.929191,75.9164667 181.707497,76.1368793 181.43492,76.136867 L162.973576,76.136867 C162.842426,76.1374953 162.716399,76.0858036 162.62322,75.9931638 C162.530042,75.9005239 162.477344,75.7745247 162.476721,75.6428853 L162.476721,69.3156651 C162.47801,69.0407734 162.699706,68.8182499 162.973576,68.8169563 L181.427856,68.8169563 C181.560661,68.8156972 181.688492,68.8676079 181.783065,68.9612025 C181.877637,69.0547971 181.931155,69.1823595 181.931775,69.3156651 L181.931775,75.6428853 Z M181.931775,59.2942181 C181.931775,59.5696473 181.709325,59.7929269 181.43492,59.7929269 L162.973576,59.7929269 C162.84161,59.7935591 162.714866,59.7412198 162.621551,59.6475564 C162.528236,59.5538929 162.476091,59.4266767 162.476721,59.2942181 L162.476721,52.971725 C162.476091,52.8392663 162.528236,52.7120501 162.621551,52.6183867 C162.714866,52.5247232 162.84161,52.4723839 162.973576,52.4730162 L181.427856,52.4730162 C181.702261,52.4730162 181.924711,52.6962957 181.924711,52.971725 L181.931775,59.2942181 Z" id="Shape" fill="#F2F2F2" fill-rule="nonzero"></path>
                    <path d="M65.9372921,9.15315241 L61.926935,11.803069 L64.3602905,7.20825947 C63.6715426,6.6357536 62.8182623,6.31911257 61.9362941,6.30874648 L61.8731204,6.30874648 C61.5941402,6.31271125 61.3153777,6.2907437 61.0401641,6.24310635 L59.6807607,7.1377571 L60.2633622,6.03889259 C59.3012257,5.68890142 58.4695244,5.03311636 57.886161,4.16450201 L55.4551453,5.76660757 L56.9923708,2.86385486 C55.5697937,1.08914005 53.655866,0 51.5500776,0 C49.0207917,0 46.7675981,1.5632077 45.3146041,3.996755 C44.4398344,5.48062977 42.8658035,6.36241831 41.1919383,6.30631537 L41.056232,6.30631537 C38.2648924,6.30631537 36,9.59561556 36,13.6531485 C36,17.7106814 38.2648924,20.9999815 41.056232,20.9999815 C41.6699298,20.9974581 42.2738133,20.8397585 42.8157352,20.5405006 C44.6384121,19.5680541 47.027312,19.5388807 48.9342204,20.4165137 C50.5879768,21.1902364 52.4807697,21.194658 54.1378576,20.4286692 C56.0283877,19.5680541 58.39389,19.587503 60.2025283,20.5502251 C60.7393709,20.8438721 61.336628,20.9981819 61.9433134,20.9999815 C64.7346529,20.9999815 66.9995454,17.7106814 66.9995454,13.6531485 C67.0147283,12.0842687 66.64941,10.5366802 65.9372921,9.15315241 Z" id="Path" fill="#F2F2F2"></path>
                    <path d="M60,19.9708014 C58.5018367,19.6926919 56.9526833,19.8559221 55.5500157,20.4396846 C53.8492414,21.1790038 51.9064814,21.1790038 50.2057071,20.4396846 C48.2463677,19.591006 45.7893802,19.6097613 43.9189924,20.5592498 C43.361134,20.8471245 42.7398552,20.9983872 42.108707,21 C39.5603638,21 37.4423539,18.4961637 37,15.1952259 C37.5090453,14.8330576 37.9416723,14.378534 38.2741716,13.8565644 C39.7671161,11.5121483 42.0822619,10 44.6810913,10 C47.2799206,10 49.5662172,11.4722933 51.0591617,13.8026428 C51.9649595,15.23041 53.5712365,16.0914415 55.2927773,16.0720375 L55.3576879,16.0720375 C57.3891502,16.0696931 59.1465454,17.6568627 60,19.9708014 Z" id="Path" fill="#000000" opacity="0.03"></path>
                    <path d="M205.250334,26.0939553 L202.404075,27.8554534 L204.131151,24.7900788 C203.642176,24.4088628 203.036921,24.197659 202.411144,24.1898817 L202.366377,24.1898817 C202.168334,24.1916136 201.970496,24.1769974 201.774977,24.1461892 L200.811302,24.7440867 L201.223632,24.0105125 C200.540677,23.776709 199.950448,23.3390335 199.536612,22.7595269 L197.811892,23.8426413 L198.900445,21.9063732 C197.892002,20.7243758 196.544271,20 195.033963,20 C193.238558,20 191.641072,21.0417214 190.609068,22.6652431 C189.988962,23.6552954 188.870945,24.2430541 187.6827,24.2036794 L187.586097,24.2036794 C185.604555,24.2036794 184,26.3975033 184,29.1018397 C184,31.8061761 185.604555,34 187.586097,34 C188.022342,33.9982781 188.451653,33.8933299 188.837225,33.6941524 C190.202501,33.0475018 191.789546,33.0172458 193.179654,33.6113666 C194.353622,34.1234402 195.695454,34.1234402 196.869423,33.6113666 C198.248426,33.0278036 199.819062,33.05717 201.174153,33.6918528 C201.556106,33.8864832 201.98027,33.9889924 202.411144,33.9908016 C204.392686,33.9908016 205.999597,31.7969777 205.999597,29.0926413 C206.01163,28.0475507 205.753961,27.0163134 205.250334,26.0939553 Z" id="Path" fill="#F2F2F2"></path>
                    <path d="M200,33.3434191 C198.960869,33.1680629 197.886775,33.2720033 196.913947,33.6420575 C195.73067,34.1151335 194.377342,34.1151335 193.194065,33.6420575 C191.793507,33.0948551 190.19453,33.1227218 188.818991,33.7183056 C188.431367,33.9017391 187.9996,33.9984093 187.560831,34 C185.787537,34 184.310979,32.4051437 184,30.3019667 C184.353339,30.0728652 184.653959,29.7852343 184.88546,29.4547655 C185.925223,27.9594554 187.537092,27 189.345994,27 C191.154896,27 192.745401,27.9467474 193.785163,29.4272315 C194.416322,30.3353826 195.533555,30.8831835 196.731157,30.8717095 L196.776261,30.8717095 C198.181602,30.8505295 199.404154,31.8608169 200,33.3434191 Z" id="Path" fill="#000000" opacity="0.03"></path>
                    <path d="M169.488074,9.36884092 L167.548834,10.6264664 L168.726148,8.43031441 C168.392445,8.15882256 167.97986,8.00858605 167.553424,8.00328484 L167.521295,8.00328484 C167.386779,8.00615247 167.252302,7.99593915 167.119677,7.97278273 L166.461024,8.39981229 L166.743304,7.87423745 C166.278085,7.70881954 165.876276,7.39661102 165.595824,6.98263726 L164.418511,7.74519005 L165.162077,6.36320976 C164.528257,5.526623 163.559894,5.02600574 162.52517,5 C161.299662,5 160.209556,5.74612858 159.507299,6.90520882 C159.08261,7.61118648 158.320976,8.03095717 157.510685,8.00563116 L157.446426,8.00563116 C156.094695,8.00563116 155,9.57297044 155,11.5039887 C155,13.435007 156.0924,15 157.444131,15 C157.741023,14.9987172 158.033183,14.9238416 158.295561,14.7817926 C159.22598,14.3182637 160.30877,14.2968098 161.256057,14.7231347 C161.654828,14.9047217 162.086339,14.9990293 162.522875,15 C162.953768,14.9991861 163.379758,14.9064877 163.773627,14.7278273 C164.714261,14.3122667 165.784848,14.3336613 166.708879,14.7864852 C166.969597,14.9258051 167.259243,14.9990324 167.553424,15 C168.90286,15 169.99985,13.4326607 169.99985,11.5016424 C170.005879,10.7582011 169.82995,10.0250227 169.488074,9.36884092 Z" id="Path" fill="#F2F2F2"></path>
                    <path d="M166,14.4349892 C165.283182,14.284477 164.54234,14.3746957 163.871719,14.6941685 C163.056637,15.0988931 162.125412,15.0988931 161.31033,14.6941685 C160.348678,14.2260606 159.251155,14.2497352 158.30652,14.7589633 C158.040608,14.9167573 157.743975,14.9995223 157.442633,15 C156.222481,15 155.209568,13.6341253 155,11.8328294 C155.243443,11.6356171 155.449898,11.3873317 155.607748,11.1019438 C156.322608,9.82159827 157.428662,9 158.669771,9 C159.910881,9 160.998307,9.8112311 161.720152,11.0734341 C162.152523,11.8531025 162.920539,12.3233166 163.743649,12.312311 L163.77392,12.312311 C164.751905,12.3097192 165.590178,13.175378 166,14.4349892 Z" id="Path" fill="#000000" opacity="0.03"></path>
                    <path d="M32.9681258,182 C33.4246379,181.138116 32.9082917,180.081175 32.3033024,179.310016 C31.6983131,178.538856 30.984736,177.74048 31.0002486,176.758386 C31.0224093,175.349887 32.4828047,174.517488 33.6595421,173.771279 C34.5264157,173.216573 35.3260756,172.558778 36.041826,171.811627 C36.3410741,171.523868 36.5886046,171.184542 36.7731317,170.80912 C37.0146842,170.257968 37.008036,169.631968 36.9947395,169.02865 C36.943031,167.017588 36.8455236,165.008038 36.7022172,163" id="Path" stroke="#3F3D56" stroke-width="4"></path>
                    <path d="M38.9972249,162.382699 C38.9572159,161.531761 38.4866032,160.759771 37.748521,160.334333 L37.1886683,161.44107 L37.206728,160.102151 C36.1635606,159.79473 35.041307,160.196921 34.4309138,161.096941 C33.8205207,161.996962 33.8620316,163.188318 34.533588,164.043677 C35.2051445,164.899035 36.3526701,165.22215 37.3719109,164.842877 C38.3911517,164.463604 39.0482614,163.468961 38.9972249,162.382699 Z" id="Path" fill="#57B894"></path>
                    <path d="M34.7239216,178.643798 C34.2058736,179.651052 33.0739482,180.184005 31.9662687,179.942203 C30.8585892,179.700402 30.0525416,178.744399 30.0025356,177.613141 C29.9870817,177.268068 30.0423928,176.923479 30.1650751,176.600521 C30.5390526,175.63144 31.4741358,174.994313 32.5140337,175.000038 C33.5539315,175.005763 34.4819245,175.653147 34.8451812,176.626287 L33.2842858,177.896572 L34.9999807,177.499769 C35.0015533,177.89775 34.9068481,178.290222 34.7239216,178.643798 Z" id="Path" fill="#57B894"></path>
                    <path d="M33.6131522,173.997294 C32.9516093,174.028131 32.304935,173.794443 31.8154064,173.347644 C31.3258778,172.900845 31.0335997,172.277539 31.002877,171.614863 C30.9840041,171.223612 31.0581907,170.833466 31.2193263,170.476561 C31.5221669,169.799472 32.1091972,169.291796 32.8220817,169.090467 L32.8220817,170.122939 L33.3863958,169.002706 C34.0479388,168.971869 34.6946131,169.205557 35.1841417,169.652356 C35.6736702,170.099155 35.9659484,170.722461 35.996671,171.385137 C36.0116693,171.673079 35.9759068,171.961416 35.8910232,172.236927 C35.5787659,173.246507 34.6672571,173.950932 33.6131522,173.997294 Z" id="Path" fill="#57B894"></path>
                    <path d="M39.6318482,169.99643 C38.5700234,170.053075 37.5886838,169.431166 37.1861108,168.446482 C36.7835378,167.461797 37.0479299,166.330069 37.8450405,165.625939 C38.6421511,164.921809 39.7973433,164.799544 40.724061,165.321223 L40.2835695,166.53255 L41.1903123,165.658849 C41.6769721,166.103866 41.9670009,166.724085 41.9965921,167.383057 C42.008843,167.614211 41.9880249,167.845931 41.9347687,168.071193 C41.6814553,169.154533 40.7424168,169.939567 39.6318482,169.99643 Z" id="Path" fill="#57B894"></path>
                    <path d="M38.7156109,163.386585 C38.1311784,163.439833 37.5650093,163.586799 36.9779677,163.616618 C36.390926,163.646437 35.7490938,163.53142 35.3786053,163.160812 C35.2061906,162.94448 35.0502219,162.719704 34.9115811,162.487754 C34.7518655,162.28482 34.5331736,162.117264 34.274967,162 C33.8297452,162.714264 33.9312747,163.574357 34.535382,164.206071 C35.1394894,164.837785 36.1369428,165.126896 37.0937703,164.947618 C38.0505978,164.768339 38.7937904,164.153087 39,163.369546 C38.9060733,163.373806 38.8095376,163.378065 38.7156109,163.386585 Z" id="Path" fill="#000000" opacity="0.1"></path>
                    <path d="M39.6498921,168.997749 C38.7623729,169.031813 37.9182392,168.677378 37.4254062,168.063731 C36.9325731,167.450084 36.8631032,166.666952 37.2423371,166 C37.4442289,166.115825 37.6171502,166.263046 37.7515271,166.433514 C37.9023772,166.672561 38.0697761,166.904156 38.2528835,167.127136 C38.6471794,167.510796 39.320877,167.636515 39.931905,167.614839 C40.5429331,167.593164 41.1304601,167.445769 41.7388769,167.398082 C41.8224363,167.398082 41.9086069,167.398082 42,167.385077 C41.7385978,168.298077 40.7793024,168.956357 39.6498921,168.997749 Z" id="Path" fill="#000000" opacity="0.1"></path>
                    <path d="M33.6741936,172.997696 C32.9971975,173.023952 32.3354174,172.82498 31.8344537,172.444557 C31.3334901,172.064134 31.0343845,171.533426 31.0029443,170.969196 C30.9836305,170.636069 31.0595499,170.303884 31.2244496,170 C31.4348995,170.118221 31.6180264,170.267122 31.7650282,170.439545 C31.9325376,170.687239 32.1174471,170.926474 32.3187916,171.156003 C32.7486176,171.558186 33.473784,171.698841 34.1277522,171.685654 C34.7817204,171.672468 35.3697645,171.545 36,171.503243 C35.6792792,172.359645 34.7495413,172.95705 33.6741936,172.997696 Z" id="Path" fill="#000000" opacity="0.1"></path>
                    <path d="M35,178.202112 C34.5613408,178.794705 33.6028783,179.108255 32.6649461,178.965997 C31.727014,178.823739 31.0444898,178.261298 31.002147,177.59575 C30.9890614,177.392735 31.0358963,177.190005 31.139778,177 C31.3149045,177.079199 31.4717827,177.176302 31.6051019,177.288022 C31.7801392,177.468738 31.9690158,177.642812 32.1709183,177.809493 C32.6078421,178.103578 33.302551,178.226367 33.9186135,178.236978 C34.2797486,178.240057 34.6408325,178.228415 35,178.202112 Z" id="Path" fill="#000000" opacity="0.1"></path>
                    <path d="M29,181.369742 C29,181.369742 30.8803837,180.773811 31.4580179,180.450023 C32.0356521,180.126234 34.3511049,179.73292 34.4912119,180.251379 C34.6313189,180.769839 37.3031843,182.857581 35.189289,182.871486 C33.0753936,182.885391 30.2560471,183.15356 29.690703,182.871486 C29.1253589,182.589413 29,181.369742 29,181.369742 Z" id="Path" fill="#656380"></path>
                    <path d="M35.222479,183.625685 C33.0999496,183.642746 30.2887664,183.971783 29.7230865,183.625685 C29.2926779,183.364893 29.1205144,182.431404 29.0614869,182 L29,182 C29,182 29.1180549,183.50382 29.6837348,183.845043 C30.2494148,184.186266 33.060598,183.859667 35.1855868,183.845043 C35.7979968,183.845043 36.0095119,183.623248 35.999674,183.30396 C35.9135923,183.501382 35.6848608,183.623248 35.222479,183.625685 Z" id="Path" fill="#000000" opacity="0.2"></path>
                    <path d="M157.690994,182 C157.386943,181.411399 157.732856,180.68892 158.131647,180.153409 C158.530439,179.617898 159.012954,179.080078 158.999734,178.408381 C158.986515,177.445845 158.010468,176.878018 157.237121,176.367898 C156.659389,175.988347 156.126217,175.539008 155.648566,175.029119 C155.448028,174.830128 155.282464,174.595733 155.159441,174.336648 C155.025148,173.946748 154.97474,173.53058 155.011822,173.117898 C155.047075,171.743726 155.112438,170.371094 155.207913,169" id="Path" stroke="#3F3D56" stroke-width="4"></path>
                    <path d="M155.001161,168.952135 C155.017332,168.61209 155.205442,168.303638 155.500382,168.133545 L155.724647,168.57586 L155.716967,168.039861 C155.82406,168.008349 155.935752,167.995363 156.04722,168.001465 C156.451295,168.020571 156.804053,168.281207 156.940955,168.661802 C157.077857,169.042397 156.971932,169.46797 156.672587,169.740018 C156.373242,170.012066 155.939451,170.076993 155.573551,169.904514 C155.207651,169.732034 154.981728,169.356129 155.001161,168.952135 Z" id="Path" fill="#57B894"></path>
                    <path d="M157.11226,179.458776 C157.329088,179.878789 157.810326,180.089527 158.265907,179.963968 C158.721488,179.838409 159.026928,179.41086 158.998123,178.939028 C158.969319,178.467195 158.614139,178.080003 158.14667,178.010832 C157.679202,177.941661 157.227175,178.209411 157.06305,178.652696 L157.68894,179.160342 L157,179.00651 C157.001406,179.163991 157.039864,179.318928 157.11226,179.458776 Z" id="Path" fill="#57B894"></path>
                    <path d="M157.955932,174.99889 C158.220295,175.011366 158.478766,174.918235 158.674337,174.740038 C158.869907,174.561841 158.986512,174.313217 158.998432,174.049002 C159.007381,173.891113 158.977924,173.733408 158.912579,173.589378 C158.791854,173.319306 158.556911,173.117096 158.271748,173.03783 L158.271748,173.448427 L158.044851,173.00106 C157.494315,172.975928 157.027292,173.400838 157.000817,173.950949 C156.996263,174.065912 157.010767,174.180837 157.043744,174.29107 C157.166459,174.696711 157.532275,174.980569 157.955932,174.99889 Z" id="Path" fill="#57B894"></path>
                    <path d="M153.952617,172.998888 C154.376942,173.018839 154.767598,172.768714 154.926926,172.375069 C155.086254,171.981423 154.979503,171.530115 154.660686,171.249489 C154.341868,170.968863 153.880521,170.920127 153.51007,171.127939 L153.686781,171.611805 L153.324139,171.263114 C153.129527,171.44128 153.01349,171.689291 153.001448,171.952816 C152.996373,172.045682 153.004653,172.138795 153.026034,172.229311 C153.128435,172.663829 153.506542,172.977868 153.952617,172.998888 Z" id="Path" fill="#57B894"></path>
                    <path d="M155.111899,168.937156 C155.345023,168.97108 155.578147,169.070733 155.806609,169.089815 C156.045024,169.131108 156.28355,169.014496 156.448476,168.776016 C156.51721,168.631048 156.579991,168.480985 156.63653,168.32652 C156.700085,168.191006 156.787079,168.078877 156.889858,168 C156.970263,168.212473 157.00781,168.450294 156.998649,168.689085 C156.973157,169.379605 156.577113,169.937866 156.072064,169.995194 C155.567015,170.052523 155.10879,169.59123 155,168.915953 C155.038854,168.926555 155.076154,168.930795 155.111899,168.937156 Z" id="Path" fill="#000000" opacity="0.1"></path>
                    <path d="M153.941947,172.998317 C154.296241,173.022412 154.633615,172.786494 154.830451,172.377006 C155.027288,171.967517 155.054651,171.444655 154.902515,171 C154.819208,171.077087 154.747957,171.176691 154.693021,171.292857 C154.63355,171.453003 154.566683,171.60765 154.492838,171.755829 C154.316585,171.998508 154.070869,172.117965 153.824009,172.080986 C153.580376,172.065912 153.344501,171.969011 153.102419,171.938864 C153.068279,171.938864 153.03414,171.938864 153,171.938864 C153.109372,172.543292 153.493163,172.974959 153.941947,172.998317 Z" id="Path" fill="#000000" opacity="0.1"></path>
                    <path d="M157.93007,176.998427 C158.200982,177.016115 158.465855,176.884072 158.66627,176.631422 C158.866685,176.378772 158.986177,176.026269 158.998393,175.651661 C159.007564,175.427804 158.977377,175.204207 158.910414,175 C158.826571,175.076541 158.753614,175.173732 158.695178,175.286731 C158.628024,175.452244 158.553518,175.611844 158.472087,175.764615 C158.277824,176.017304 158.01523,176.144379 157.749397,176.11434 C157.494885,176.11434 157.25137,176.020935 157,175.994869 C157.125179,176.567818 157.497682,176.969754 157.93007,176.998427 Z" id="Path" fill="#000000" opacity="0.1"></path>
                    <path d="M157,179.207621 C157.260403,179.899653 157.861379,180.189892 158.372511,179.870471 C158.883644,179.55105 159.128807,178.732035 158.932416,178 C158.844928,178.079634 158.766405,178.176973 158.699418,178.288828 C158.612016,178.471195 158.517365,178.646586 158.415911,178.814178 C158.170207,179.101634 157.858223,179.255137 157.537688,179.246283 C157.358086,179.247193 157.178584,179.234286 157,179.207621 Z" id="Path" fill="#000000" opacity="0.1"></path>
                    <path d="M162,181.806329 C162,181.806329 160.655347,181.535838 160.249858,181.310429 C159.84437,181.08502 158.183174,180.81453 158.083764,181.177233 C157.984353,181.539937 156.064168,182.978455 157.581481,182.988701 C159.098793,182.998947 161.105309,183.041979 161.505565,182.849357 C161.905822,182.656735 162,181.806329 162,181.806329 Z" id="Path" fill="#656380"></path>
                    <path d="M157.547668,182.769545 C159.066699,182.769545 161.078105,182.858881 161.476196,182.535896 C161.78524,182.291939 161.908334,181.405449 161.94762,181 L162,181 C162,181 161.913572,182.425944 161.510243,182.748929 C161.106914,183.071913 159.095508,182.996321 157.581715,182.982577 C157.14172,182.982577 156.992436,182.772981 157.000293,182.470612 C157.055292,182.642412 157.222909,182.769545 157.547668,182.769545 Z" id="Path" fill="#000000" opacity="0.2"></path>
                    <rect id="Rectangle" fill="#3F3D56" x="46" y="183" width="120" height="1"></rect>
                    <rect id="Rectangle" fill="#3F3D56" x="170" y="183" width="64" height="1"></rect>
                    <rect id="Rectangle" fill="#3F3D56" x="2" y="183" width="40" height="1"></rect>
                </g>
                <g id="undraw_millennial_girl_fxlt-copy" transform="translate(108.000000, 9.000000)">
                    <path d="M13.4781435,103.145525 C13.8268338,102.551778 14.0069065,101.878042 13.9997974,101.193774 C13.9997974,99.4303502 12.8831072,98 11.5000066,98 C10.116906,98 9.00021578,99.4303502 9.00021578,101.193774 C8.99310665,101.878042 9.1731794,102.551778 9.52186963,103.145525 C8.82634397,104.358218 8.82634397,105.836334 9.52186963,107.049027 C8.82634397,108.26172 8.82634397,109.739836 9.52186963,110.952529 C8.82634397,112.165222 8.82634397,113.643338 9.52186963,114.856031 C9.17296319,115.449692 8.99287484,116.123487 9.00021578,116.807782 C9.00021578,118.571206 10.116906,120 11.5000066,120 C12.8831072,120 13.9997974,118.571206 13.9997974,116.807782 C14.0068538,116.124013 13.826775,115.450792 13.4781435,114.857588 C14.1736692,113.644895 14.1736692,112.166779 13.4781435,110.954086 C14.1736692,109.741393 14.1736692,108.263277 13.4781435,107.050584 C14.1736692,105.837891 14.1736692,104.359775 13.4781435,103.147082 L13.4781435,103.145525 Z" id="Path" fill="#3F3D56"></path>
                    <ellipse id="Oval" fill="#3F3D56" cx="11.5" cy="97.5" rx="2.5" ry="3.5"></ellipse>
                    <ellipse id="Oval" fill="#3F3D56" cx="11.5" cy="93.5" rx="2.5" ry="3.5"></ellipse>
                    <path d="M2.45809301,66.8309011 C2.13111465,66.4083018 1.83297917,65.9636835 1.56575529,65.5001313 L7.86875138,64.4540844 L1.05147489,64.5051488 C-0.269996654,61.5975069 -0.349158344,58.2681007 0.832599605,55.2996262 L9.97791326,60.096587 L1.54279635,53.8280424 C3.69020805,50.0519758 7.7461792,47.8072178 12.0497237,48.0130332 C16.3532681,48.2188486 20.1815264,50.8406671 21.9667644,54.8048112 C23.7520024,58.7689554 23.1943566,63.4095742 20.5221921,66.8262589 C21.0326427,67.4829607 21.4718893,68.1931626 21.8323826,68.9446587 L13.6513447,73.2464494 L22.3757443,70.2862603 C23.6198566,74.0060612 22.9233482,78.1093821 20.5237226,81.1970251 C24.231047,85.9594853 23.6945517,92.8029509 19.2914648,96.9155504 C14.888378,101.02815 8.09802948,101.02815 3.69494261,96.9155504 C-0.708144259,92.8029509 -1.2446395,85.9594853 2.4626848,81.1970251 C-0.814634699,76.9814387 -0.814634699,71.0464875 2.4626848,66.8309011 L2.45809301,66.8309011 Z" id="Path" fill="#57B894"></path>
                    <path d="M22.9967583,74.1702859 C23.0006544,76.7604643 22.1339293,79.2761603 20.536887,81.3101372 C24.2468257,86.043948 23.7099521,92.8462458 19.3037603,96.9341053 C14.8975684,101.021965 8.10243156,101.021965 3.69623972,96.9341053 C-0.709952107,92.8462458 -1.24682567,86.043948 2.46311295,81.3101372 C0.911525396,79.3444479 22.9967583,72.8736693 22.9967583,74.1702859 Z" id="Path" fill="#000000" opacity="0.1"></path>
                    <path d="M138.58209,106.974888 C138.861252,106.516077 139.005462,105.995379 138.999842,105.466518 C138.999842,104.103609 138.105617,103 137,103 C135.894383,103 135.000158,104.106771 135.000158,105.466518 C134.994538,105.995379 135.138748,106.516077 135.41791,106.974888 C134.860894,107.911961 134.860894,109.054557 135.41791,109.991629 C134.860894,110.928702 134.860894,112.071298 135.41791,113.008371 C134.860866,113.944873 134.860866,115.087028 135.41791,116.023531 C135.138899,116.482401 134.9947,117.003059 135.000158,117.531901 C135.000158,118.89481 135.89606,120 137,120 C138.10394,120 138.999842,118.893229 138.999842,117.531901 C139.0053,117.003059 138.861101,116.482401 138.58209,116.023531 C139.139134,115.087028 139.139134,113.944873 138.58209,113.008371 C139.139106,112.071298 139.139106,110.928702 138.58209,109.991629 C139.139106,109.054557 139.139106,107.911961 138.58209,106.974888 Z" id="Path" fill="#3F3D56"></path>
                    <ellipse id="Oval" fill="#3F3D56" cx="137" cy="102.5" rx="2" ry="2.5"></ellipse>
                    <ellipse id="Oval" fill="#3F3D56" cx="137" cy="100.5" rx="2" ry="2.5"></ellipse>
                    <path d="M128.92544,80.1040531 C128.668685,79.7872635 128.434932,79.4535815 128.225869,79.1054136 L133.16226,78.3190232 L127.822512,78.3587245 C126.788994,76.1755039 126.726895,73.676556 127.65077,71.4476507 L134.813501,75.0497769 L128.208537,70.3467041 C129.896645,67.5248364 133.068593,65.8518776 136.430332,66.0103389 C139.792071,66.1688003 142.78152,68.1321872 144.179082,71.0995033 C145.576645,74.0668194 145.148651,77.5419304 143.069706,80.1071071 C143.47017,80.5995919 143.814599,81.1325393 144.097004,81.6966846 L137.688992,84.9231757 L144.523995,82.696851 C145.500358,85.4892464 144.95442,88.5706898 143.072857,90.8875271 C145.974872,94.4624674 145.554192,99.5986482 142.106573,102.685135 C138.658953,105.771622 133.342495,105.771622 129.894876,102.685135 C126.447256,99.5986482 126.026577,94.4624674 128.928591,90.8875271 C126.361134,87.7236346 126.361134,83.2679456 128.928591,80.1040531 L128.92544,80.1040531 Z" id="Path" fill="#57B894"></path>
                    <path d="M144.99999,85.1309115 C145.00304,87.1238623 144.32391,89.0593791 143.072757,90.6235154 C145.975163,94.2653345 145.554427,99.4976014 142.106343,102.641829 C138.658258,105.786057 133.341084,105.786057 129.892999,102.641829 C126.444915,99.4976014 126.024179,94.2653345 128.926585,90.6235154 C127.719504,89.1115327 144.99999,84.1338118 144.99999,85.1309115 Z" id="Path" fill="#000000" opacity="0.1"></path>
                    <path d="M122.678077,30.4410499 L91.983485,30.4410499 L91.983485,23.74462 C91.9838923,23.3195658 91.8167003,22.9118027 91.5187754,22.6112438 C91.2208505,22.310685 90.8166608,22.1420148 90.3953316,22.1424257 L81.3830204,22.1424257 L81.3830204,15.0083308 C81.3830204,14.4514451 80.9355316,14 80.3835261,14 L68.7682376,14 C68.2165822,14.0008516 67.7695874,14.4517982 67.7687433,15.0083308 L67.7687433,22.1424257 L57.1774765,22.1424257 C56.7554757,22.1411929 56.3503402,22.3094506 56.0515082,22.6100541 C55.7526763,22.9106575 55.5847223,23.3188866 55.5847241,23.74462 L55.5847241,30.4364103 L26.321923,30.4364103 C26.1438822,30.4372616 25.999998,30.583109 26,30.762726 L26,119.673684 C25.999998,119.853301 26.1438822,119.999149 26.321923,120 L45.7737373,120 C45.9520284,119.999154 46.0963542,119.853552 46.0971932,119.673684 L46.0971932,107.706716 C46.0980323,107.526848 46.2423581,107.381247 46.4206492,107.3804 L54.6373507,107.3804 C54.8153915,107.381251 54.9592757,107.527099 54.9592737,107.706716 L54.9592737,119.667498 C54.9592657,119.846516 55.1022224,119.992117 55.2796637,119.993814 L93.7203363,119.993814 C93.8980285,119.992125 94.041429,119.846767 94.0422593,119.667498 L94.0422593,107.706716 C94.0422513,107.527698 94.185208,107.382097 94.3626493,107.3804 L102.579351,107.3804 C102.757991,107.3804 102.902807,107.526497 102.902807,107.706716 L102.902807,119.667498 C102.903646,119.847366 103.047972,119.992967 103.226263,119.993814 L122.678077,119.993814 C122.855769,119.992125 122.99917,119.846767 123,119.667498 L123,30.7673655 C123.000002,30.5877486 122.856118,30.4419011 122.678077,30.4410499 Z M42.6142929,103.232634 C42.613454,103.410794 42.4705008,103.555011 42.2939029,103.555857 L30.27851,103.555857 C30.193272,103.556269 30.1113852,103.522397 30.0509684,103.461736 C29.9905517,103.401075 29.956586,103.318627 29.956587,103.232634 L29.956587,99.0926015 C29.9561792,99.0061997 29.9899158,98.9231956 30.0503324,98.8619547 C30.1107489,98.8007138 30.1928645,98.7662849 30.27851,98.7662859 L42.2939029,98.7662859 C42.4713442,98.7679827 42.6143009,98.9135834 42.6142929,99.0926015 L42.6142929,103.232634 Z M42.6142929,92.5353584 C42.6142949,92.7141212 42.4710971,92.8592763 42.2939029,92.8601275 L30.27851,92.8601275 C30.1928645,92.8601285 30.1107489,92.8256996 30.0503324,92.7644587 C29.9899158,92.7032178 29.9561792,92.6202136 29.956587,92.5338119 L29.956587,88.3984185 C29.9561792,88.3120167 29.9899158,88.2290125 30.0503324,88.1677716 C30.1107489,88.1065307 30.1928645,88.0721018 30.27851,88.0721028 L42.2939029,88.0721028 C42.3792825,88.072512 42.4610039,88.1071217 42.5210889,88.168318 C42.5811739,88.2295142 42.6147005,88.312284 42.6142929,88.3984185 L42.6142929,92.5353584 Z M42.6142929,81.8411754 C42.6142949,82.0199382 42.4710971,82.1650932 42.2939029,82.1659445 L30.27851,82.1659445 C30.1007169,82.1659445 29.956587,82.0205404 29.956587,81.8411754 L29.956587,77.7042354 C29.9561792,77.6178337 29.9899158,77.5348295 30.0503324,77.4735886 C30.1107489,77.4123477 30.1928645,77.3779188 30.27851,77.3779198 L42.2939029,77.3779198 C42.4713442,77.3796166 42.6143009,77.5252173 42.6142929,77.7042354 L42.6142929,81.8411754 Z M42.6142929,71.1438993 C42.6147008,71.2298909 42.5811256,71.3125017 42.5209966,71.3734526 C42.4608675,71.4344035 42.3791419,71.4686694 42.2939029,71.4686684 L30.27851,71.4686684 C30.1930057,71.4690821 30.1108848,71.4349983 30.0504234,71.3740024 C29.989962,71.3130065 29.9561769,71.2301596 29.956587,71.1438993 L29.956587,67.0054128 C29.9561769,66.9191525 29.989962,66.8363056 30.0504234,66.7753097 C30.1108848,66.7143138 30.1930057,66.68023 30.27851,66.6806437 L42.2939029,66.6806437 C42.3791419,66.6806427 42.4608675,66.7149086 42.5209966,66.7758595 C42.5811256,66.8368104 42.6147008,66.9194212 42.6142929,67.0054128 L42.6142929,71.1438993 Z M42.6142929,60.4481697 C42.6143009,60.6271878 42.4713442,60.7727885 42.2939029,60.7744853 L30.27851,60.7744853 C30.1928645,60.7744863 30.1107489,60.7400575 30.0503324,60.6788165 C29.9899158,60.6175756 29.9561792,60.5345715 29.956587,60.4481697 L29.956587,56.3081367 C29.956586,56.2221441 29.9905517,56.139696 30.0509684,56.0790353 C30.1113852,56.0183747 30.193272,55.9845027 30.27851,55.9849141 L42.2939029,55.9849141 C42.4705008,55.9857605 42.613454,56.1299776 42.6142929,56.3081367 L42.6142929,60.4481697 Z M42.6142929,49.7539867 C42.613454,49.9321458 42.4705008,50.0763629 42.2939029,50.0772093 L30.27851,50.0772093 C30.193272,50.0776207 30.1113852,50.0437487 30.0509684,49.9830881 C29.9905517,49.9224274 29.956586,49.8399793 29.956587,49.7539867 L29.956587,45.6139537 C29.956585,45.4343368 30.1004692,45.2884893 30.27851,45.2876381 L42.2939029,45.2876381 C42.4713442,45.2893349 42.6143009,45.4349356 42.6142929,45.6139537 L42.6142929,49.7539867 Z M42.6142929,39.0567106 C42.6147005,39.142845 42.5811739,39.2256148 42.5210889,39.2868111 C42.4610039,39.3480073 42.3792825,39.382617 42.2939029,39.3830262 L30.27851,39.3830262 C30.1928645,39.3830272 30.1107489,39.3485983 30.0503324,39.2873574 C29.9899158,39.2261165 29.9561792,39.1431123 29.956587,39.0567106 L29.956587,34.9197706 C29.9561792,34.8333689 29.9899158,34.7503647 30.0503324,34.6891238 C30.1107489,34.6278829 30.1928645,34.593454 30.27851,34.593455 L42.2939029,34.593455 C42.3792825,34.5938642 42.4610039,34.6284739 42.5210889,34.6896702 C42.5811739,34.7508664 42.6147005,34.8336362 42.6142929,34.9197706 L42.6142929,39.0567106 Z M71.096814,103.237274 C71.0968149,103.323267 71.0628493,103.405715 71.0024326,103.466375 C70.9420158,103.527036 70.860129,103.560908 70.774891,103.560497 L58.761031,103.560497 C58.5835817,103.560505 58.4392571,103.416284 58.4375751,103.237274 L58.4375751,99.0926015 C58.4384141,98.9127341 58.5827399,98.7671323 58.761031,98.7662859 L70.774891,98.7662859 C70.8605365,98.7662849 70.9426521,98.8007138 71.0030686,98.8619547 C71.0634851,98.9231956 71.0972218,99.0061997 71.096814,99.0926015 L71.096814,103.237274 Z M71.096814,92.539998 C71.0972218,92.6263997 71.0634851,92.7094039 71.0030686,92.7706448 C70.9426521,92.8318857 70.8605365,92.8663146 70.774891,92.8663136 L58.761031,92.8663136 C58.5823912,92.8663136 58.4375751,92.7202171 58.4375751,92.539998 L58.4375751,88.3984185 C58.4375751,88.2181993 58.5823912,88.0721028 58.761031,88.0721028 L70.774891,88.0721028 C70.8605365,88.0721018 70.9426521,88.1065307 71.0030686,88.1677716 C71.0634851,88.2290125 71.0972218,88.3120167 71.096814,88.3984185 L71.096814,92.539998 Z M71.096814,81.8458149 C71.096814,82.0251799 70.9526841,82.170584 70.774891,82.170584 L58.761031,82.170584 C58.5829882,82.170586 58.4384189,82.0254298 58.4375751,81.8458149 L58.4375751,77.7042354 C58.4384141,77.524368 58.5827399,77.3787662 58.761031,77.3779198 L70.774891,77.3779198 C70.8605365,77.3779188 70.9426521,77.4123477 71.0030686,77.4735886 C71.0634851,77.5348295 71.0972218,77.6178337 71.096814,77.7042354 L71.096814,81.8458149 Z M71.096814,71.1485388 C71.0972241,71.2347991 71.063439,71.317646 71.0029776,71.378642 C70.9425162,71.4396379 70.8603953,71.4737217 70.774891,71.4733079 L58.761031,71.4733079 C58.6753865,71.4737194 58.5931097,71.4396845 58.5324055,71.3787338 C58.4717012,71.3177831 58.4375741,71.2349416 58.4375751,71.1485388 L58.4375751,67.0054128 C58.4375741,66.9190101 58.4717012,66.8361685 58.5324055,66.7752179 C58.5931097,66.7142672 58.6753865,66.6802323 58.761031,66.6806437 L70.774891,66.6806437 C70.8603953,66.68023 70.9425162,66.7143138 71.0029776,66.7753097 C71.063439,66.8363056 71.0972241,66.9191525 71.096814,67.0054128 L71.096814,71.1485388 Z M71.096814,60.4528093 C71.0972218,60.539211 71.0634851,60.6222152 71.0030686,60.6834561 C70.9426521,60.744697 70.8605365,60.7791259 70.774891,60.7791249 L58.761031,60.7791249 C58.5827399,60.7782785 58.4384141,60.6326766 58.4375751,60.4528093 L58.4375751,56.3081367 C58.4392571,56.1291267 58.5835817,55.9849061 58.761031,55.9849141 L70.774891,55.9849141 C70.860129,55.9845027 70.9420158,56.0183747 71.0024326,56.0790353 C71.0628493,56.139696 71.0968149,56.2221441 71.096814,56.3081367 L71.096814,60.4528093 Z M71.096814,49.7586262 C71.0968149,49.8446188 71.0628493,49.927067 71.0024326,49.9877276 C70.9420158,50.0483883 70.860129,50.0822603 70.774891,50.0818488 L58.761031,50.0818488 C58.5835817,50.0818569 58.4392571,49.9376363 58.4375751,49.7586262 L58.4375751,45.6139537 C58.4384141,45.4340863 58.5827399,45.2884845 58.761031,45.2876381 L70.774891,45.2876381 C70.9529318,45.2884893 71.096816,45.4343368 71.096814,45.6139537 L71.096814,49.7586262 Z M71.096814,39.0613501 C71.0972218,39.1477519 71.0634851,39.2307561 71.0030686,39.291997 C70.9426521,39.3532379 70.8605365,39.3876668 70.774891,39.3876658 L58.761031,39.3876658 C58.5823912,39.3876658 58.4375751,39.2415693 58.4375751,39.0613501 L58.4375751,34.9197706 C58.4375751,34.7395515 58.5823912,34.593455 58.761031,34.593455 L70.774891,34.593455 C70.8605365,34.593454 70.9426521,34.6278829 71.0030686,34.6891238 C71.0634851,34.7503647 71.0972218,34.8333689 71.096814,34.9197706 L71.096814,39.0613501 Z M90.5654909,103.241914 C90.5650853,103.328048 90.5307789,103.410492 90.4701189,103.471108 C90.4094589,103.531724 90.3274145,103.565547 90.2420349,103.565136 L78.2235761,103.565136 C78.0463799,103.565138 77.9024969,103.420674 77.9016531,103.241914 L77.9016531,99.0926015 C77.9016511,98.9129846 78.0455352,98.7671371 78.2235761,98.7662859 L90.237436,98.7662859 C90.4160758,98.7662859 90.560892,98.9123824 90.560892,99.0926015 L90.5654909,103.241914 Z M90.5654909,92.5446375 C90.5659009,92.631308 90.5319544,92.7145482 90.4712055,92.7758342 C90.4104566,92.8371201 90.3279458,92.8713669 90.2420349,92.8709532 L78.2235761,92.8709532 C78.0455352,92.8701019 77.9016511,92.7242544 77.9016531,92.5446375 L77.9016531,88.3984185 C77.9016511,88.2188015 78.0455352,88.0729541 78.2235761,88.0721028 L90.237436,88.0721028 C90.3233469,88.0716891 90.4058577,88.1059358 90.4666066,88.1672218 C90.5273555,88.2285078 90.561302,88.311748 90.560892,88.3984185 L90.5654909,92.5446375 Z M90.5654909,81.8504545 C90.5646471,82.0300694 90.4200777,82.1752256 90.2420349,82.1752236 L78.2235761,82.1752236 C78.0461316,82.1743772 77.9024921,82.0294677 77.9016531,81.8504545 L77.9016531,77.7042354 C77.9016511,77.5246185 78.0455352,77.3787711 78.2235761,77.3779198 L90.237436,77.3779198 C90.4160758,77.3779198 90.560892,77.5240163 90.560892,77.7042354 L90.5654909,81.8504545 Z M90.5654909,71.1531784 C90.5654918,71.2395811 90.5313647,71.3224227 90.4706605,71.3833733 C90.4099562,71.444324 90.3276795,71.4783589 90.2420349,71.4779475 L78.2235761,71.4779475 C78.1381968,71.4779475 78.0563144,71.4437309 77.9959421,71.3828248 C77.9355699,71.3219188 77.9016531,71.2393125 77.9016531,71.1531784 L77.9016531,67.0054128 C77.9016531,66.9192787 77.9355699,66.8366724 77.9959421,66.7757664 C78.0563144,66.7148604 78.1381968,66.6806437 78.2235761,66.6806437 L90.237436,66.6806437 C90.3230806,66.6802323 90.4053573,66.7142672 90.4660616,66.7752179 C90.5267658,66.8361685 90.5608929,66.9190101 90.560892,67.0054128 L90.5654909,71.1531784 Z M90.5654909,60.4574488 C90.5654909,60.637668 90.4206747,60.7837645 90.2420349,60.7837645 L78.2235761,60.7837645 C78.0455352,60.7829132 77.9016511,60.6370657 77.9016531,60.4574488 L77.9016531,56.3081367 C77.9024969,56.129376 78.0463799,55.9849121 78.2235761,55.9849141 L90.237436,55.9849141 C90.3228156,55.984503 90.40486,56.018326 90.46552,56.0789422 C90.52618,56.1395584 90.5604864,56.2220023 90.560892,56.3081367 L90.5654909,60.4574488 Z M90.5654909,49.7632658 C90.5650853,49.8494002 90.5307789,49.9318441 90.4701189,49.9924603 C90.4094589,50.0530766 90.3274145,50.0868995 90.2420349,50.0864884 L78.2235761,50.0864884 C78.0463799,50.0864904 77.9024969,49.9420266 77.9016531,49.7632658 L77.9016531,45.6139537 C77.9024834,45.4346846 78.0458839,45.2893273 78.2235761,45.2876381 L90.237436,45.2876381 C90.4157271,45.2884845 90.5600529,45.4340863 90.560892,45.6139537 L90.5654909,49.7632658 Z M90.5654909,39.0659897 C90.5659009,39.1526602 90.5319544,39.2359004 90.4712055,39.2971864 C90.4104566,39.3584723 90.3279458,39.392719 90.2420349,39.3923053 L78.2235761,39.3923053 C78.0455352,39.3914541 77.9016511,39.2456066 77.9016531,39.0659897 L77.9016531,34.9197706 C77.9016511,34.7401537 78.0455352,34.5943063 78.2235761,34.593455 L90.237436,34.593455 C90.3233469,34.5930413 90.4058577,34.627288 90.4666066,34.688574 C90.5273555,34.7498599 90.561302,34.8331002 90.560892,34.9197706 L90.5654909,39.0659897 Z M119.049545,103.232634 C119.047863,103.411645 118.903538,103.555865 118.726089,103.555857 L106.70763,103.555857 C106.62225,103.556268 106.540206,103.522445 106.479546,103.461829 C106.418886,103.401213 106.38458,103.318769 106.384174,103.232634 L106.384174,99.0926015 C106.384174,98.9123824 106.52899,98.7662859 106.70763,98.7662859 L118.72149,98.7662859 C118.807947,98.765462 118.891166,98.7994283 118.952734,98.8606692 C119.014301,98.9219101 119.049141,99.0053769 119.049545,99.0926015 L119.049545,103.232634 Z M119.049545,92.5353584 C119.049545,92.7155775 118.904729,92.861674 118.726089,92.861674 L106.70763,92.861674 C106.621719,92.8620877 106.539208,92.827841 106.478459,92.7665551 C106.417711,92.7052691 106.383764,92.6220289 106.384174,92.5353584 L106.384174,88.3984185 C106.383764,88.311748 106.417711,88.2285078 106.478459,88.1672218 C106.539208,88.1059358 106.621719,88.0716891 106.70763,88.0721028 L118.72149,88.0721028 C118.90013,88.0721028 119.044946,88.2181993 119.044946,88.3984185 L119.049545,92.5353584 Z M119.049545,81.8411754 C119.048701,82.0207903 118.904132,82.1659465 118.726089,82.1659445 L106.70763,82.1659445 C106.529587,82.1659465 106.385018,82.0207903 106.384174,81.8411754 L106.384174,77.7042354 C106.384174,77.5240163 106.52899,77.3779198 106.70763,77.3779198 L118.72149,77.3779198 C118.807947,77.377096 118.891166,77.4110622 118.952734,77.4723031 C119.014301,77.533544 119.049141,77.6170108 119.049545,77.7042354 L119.049545,81.8411754 Z M119.049545,71.1438993 C119.049546,71.230302 119.015419,71.3131436 118.954714,71.3740942 C118.89401,71.4350449 118.811733,71.4690798 118.726089,71.4686684 L106.70763,71.4686684 C106.621985,71.4690798 106.539709,71.4350449 106.479004,71.3740942 C106.4183,71.3131436 106.384173,71.230302 106.384174,71.1438993 L106.384174,67.0054128 C106.384173,66.9190101 106.4183,66.8361685 106.479004,66.7752179 C106.539709,66.7142672 106.621985,66.6802323 106.70763,66.6806437 L118.72149,66.6806437 C118.807135,66.6802323 118.889411,66.7142672 118.950116,66.7752179 C119.01082,66.8361685 119.044947,66.9190101 119.044946,67.0054128 L119.049545,71.1438993 Z M119.049545,60.4481697 C119.048706,60.6280371 118.90438,60.7736389 118.726089,60.7744853 L106.70763,60.7744853 C106.52899,60.7744853 106.384174,60.6283889 106.384174,60.4481697 L106.384174,56.3081367 C106.38458,56.2220023 106.418886,56.1395584 106.479546,56.0789422 C106.540206,56.018326 106.62225,55.984503 106.70763,55.9849141 L118.72149,55.9849141 C118.898939,55.9849061 119.043264,56.1291267 119.044946,56.3081367 L119.049545,60.4481697 Z M119.049545,49.7539867 C119.047863,49.9329967 118.903538,50.0772173 118.726089,50.0772093 L106.70763,50.0772093 C106.62225,50.0776204 106.540206,50.0437974 106.479546,49.9831812 C106.418886,49.922565 106.38458,49.8401211 106.384174,49.7539867 L106.384174,45.6139537 C106.385013,45.4340863 106.529339,45.2884845 106.70763,45.2876381 L118.72149,45.2876381 C118.807947,45.2868142 118.891166,45.3207805 118.952734,45.3820214 C119.014301,45.4432623 119.049141,45.526729 119.049545,45.6139537 L119.049545,49.7539867 Z M119.049545,39.0567106 C119.049545,39.2369297 118.904729,39.3830262 118.726089,39.3830262 L106.70763,39.3830262 C106.621719,39.3834399 106.539208,39.3491932 106.478459,39.2879072 C106.417711,39.2266213 106.383764,39.143381 106.384174,39.0567106 L106.384174,34.9197706 C106.383764,34.8331002 106.417711,34.7498599 106.478459,34.688574 C106.539208,34.627288 106.621719,34.5930413 106.70763,34.593455 L118.72149,34.593455 C118.90013,34.593455 119.044946,34.7395515 119.044946,34.9197706 L119.049545,39.0567106 Z" id="Shape" fill="#F2F2F2" fill-rule="nonzero"></path>
                    <path d="M43.314382,6.10210161 L40.7270548,7.8687127 L42.2969616,4.80550631 C41.8526081,4.42383574 41.3021047,4.21274171 40.733093,4.20583099 L40.6923358,4.20583099 C40.5123485,4.20847416 40.3325018,4.19382913 40.1549446,4.1620709 L39.2779101,4.75850473 L39.653782,4.02592839 C39.0330488,3.79260095 38.4964674,3.35541091 38.1201039,2.77633468 L36.5517066,3.84440505 L37.543465,1.90923657 C36.6256734,0.726093365 35.3908813,0 34.0323081,0 C32.4005108,0 30.9468375,1.04213847 30.009422,2.66450333 C29.4450545,3.65375318 28.4295506,4.2416122 27.3496376,4.20421024 L27.2620851,4.20421024 C25.4612209,4.20421024 24,6.39707704 24,9.10209897 C24,11.8071209 25.4612209,13.9999877 27.2620851,13.9999877 C27.6580192,13.9983054 28.0476215,13.8931723 28.3972485,13.6936671 C29.5731691,13.0453694 31.1143949,13.0259205 32.3446584,13.6110091 C33.411598,14.1268243 34.6327547,14.129772 35.7018436,13.6191128 C36.9215404,13.0453694 38.447671,13.0583354 39.6145344,13.70015 C39.9608845,13.8959147 40.3462116,13.9987879 40.7376215,13.9999877 C42.5384858,13.9999877 43.9997067,11.8071209 43.9997067,9.10209897 C44.0095022,8.05617917 43.7738129,7.02445347 43.314382,6.10210161 Z" id="Path" fill="#F2F2F2"></path>
                    <path d="M39,13.3450554 C38.022937,13.1680766 37.0126195,13.2719504 36.0978363,13.6434356 C34.9886357,14.1139115 33.7216183,14.1139115 32.6124177,13.6434356 C31.3345876,13.1033674 29.7322045,13.1153026 28.5123863,13.7195226 C28.1485657,13.9027156 27.7433838,13.9989737 27.3317654,14 C25.6698024,14 24.2884917,12.4066496 24,10.3060529 C24.3319861,10.0755821 24.6141341,9.7863398 24.8309815,9.45417732 C25.804641,7.96227621 27.3145187,7 29.0094073,7 C30.704296,7 32.195359,7.9369139 33.1690185,9.4198636 C33.7597562,10.3284427 34.8073282,10.8763719 35.9300721,10.8640239 L35.9724051,10.8640239 C37.2972719,10.862532 38.4433992,11.872549 39,13.3450554 Z" id="Path" fill="#000000" opacity="0.03"></path>
                    <path d="M134.52294,16.9175427 L132.711684,18.0499343 L133.810732,16.0793364 C133.499566,15.834269 133.114404,15.6984951 132.716183,15.6934954 L132.687694,15.6934954 C132.561667,15.6946088 132.43577,15.6852126 132.311349,15.6654074 L131.698101,16.04977 L131.960493,15.5781866 C131.525885,15.4278844 131.150285,15.1465216 130.886935,14.7739816 L129.789386,15.4702694 L130.482101,14.2255256 C129.840365,13.4656702 128.982718,13 128.021613,13 C126.879083,13 125.862501,13.6696781 125.205771,14.7133706 C124.811158,15.3498328 124.099692,15.7276777 123.343536,15.7023653 L123.282062,15.7023653 C122.02108,15.7023653 121,17.1126807 121,18.8511827 C121,20.5896846 122.02108,22 123.282062,22 C123.559672,21.9988931 123.83287,21.9314264 124.078234,21.8033837 C124.947046,21.3876798 125.956984,21.3682294 126.841598,21.7501643 C127.588669,22.0793544 128.442562,22.0793544 129.189633,21.7501643 C130.06718,21.3750166 131.066676,21.393895 131.929006,21.8019054 C132.172068,21.9270249 132.44199,21.9929237 132.716183,21.9940867 C133.977164,21.9940867 134.999744,20.5837714 134.999744,18.8452694 C135.007401,18.1734254 134.84343,17.5104872 134.52294,16.9175427 Z" id="Path" fill="#F2F2F2"></path>
                    <path d="M131,21.5310136 C130.350543,21.4057592 129.679234,21.4800023 129.071217,21.7443268 C128.331669,22.0822382 127.485839,22.0822382 126.746291,21.7443268 C125.870942,21.3534679 124.871581,21.3733727 124.011869,21.7987897 C123.769605,21.9298137 123.49975,21.9988638 123.225519,22 C122.117211,22 121.194362,20.8608169 121,19.3585477 C121.220837,19.1949037 121.408724,18.9894531 121.553412,18.7534039 C122.203264,17.6853253 123.210682,17 124.341246,17 C125.47181,17 126.465875,17.6762481 127.115727,18.7337368 C127.510201,19.3824161 128.208472,19.7737025 128.956973,19.7655068 L128.985163,19.7655068 C129.863501,19.7503782 130.627596,20.4720121 131,21.5310136 Z" id="Path" fill="#000000" opacity="0.03"></path>
                    <path d="M110.658716,6.05818864 L109.365889,6.93852651 L110.150765,5.40122008 C109.928296,5.21117579 109.65324,5.10601023 109.368949,5.10229939 L109.34753,5.10229939 C109.257853,5.10430673 109.168201,5.09715741 109.079785,5.08094791 L108.640683,5.37986861 L108.828869,5.01196621 C108.518723,4.89617368 108.250851,4.67762771 108.063883,4.38784608 L107.279007,4.92163304 L107.774718,3.95424683 C107.352171,3.3686361 106.706596,3.01820401 106.01678,3 C105.199774,3 104.473038,3.52229 104.004866,4.33364618 C103.72174,4.82783054 103.213984,5.12167002 102.67379,5.10394181 L102.630951,5.10394181 C101.729797,5.10394181 101,6.20107931 101,7.55279212 C101,8.90450493 101.728267,10 102.629421,10 C102.827349,9.99910203 103.022122,9.94668909 103.19704,9.84725481 C103.81732,9.52278456 104.53918,9.50776683 105.170705,9.80619427 C105.436552,9.93330521 105.724226,9.9993205 106.01525,10 C106.302512,9.9994303 106.586506,9.93454137 106.849085,9.80947912 C107.476174,9.5185867 108.189899,9.53356288 108.80592,9.85053965 C108.979731,9.94806356 109.172829,9.99932268 109.368949,10 C110.268573,10 110.9999,8.90286251 110.9999,7.55114969 C111.00392,7.03074079 110.886633,6.51751588 110.658716,6.05818864 Z" id="Path" fill="#F2F2F2"></path>
                    <path d="M108,9.62332613 C107.543843,9.52298465 107.072398,9.58313048 106.645639,9.79611231 C106.126951,10.0659288 105.534353,10.0659288 105.015665,9.79611231 C104.403704,9.48404043 103.705281,9.49982344 103.104149,9.83930886 C102.934932,9.94450488 102.746166,9.99968156 102.554403,10 C101.777942,10 101.133362,9.08941685 101,7.88855292 C101.154918,7.75707806 101.286299,7.59155446 101.386749,7.4012959 C101.84166,6.54773218 102.545512,6 103.335309,6 C104.125106,6 104.817104,6.54082073 105.276461,7.38228942 C105.551606,7.90206833 106.040343,8.21554437 106.564141,8.20820734 L106.583404,8.20820734 C107.205758,8.20647948 107.739204,8.78358531 108,9.62332613 Z" id="Path" fill="#000000" opacity="0.03"></path>
                    <path d="M21.3120839,119 C21.6164253,118.455652 21.2721945,117.78811 20.8688683,117.301062 C20.4655421,116.814015 19.989824,116.309777 20.0001657,115.689507 C20.0149396,114.799928 20.9885365,114.274203 21.7730281,113.802913 C22.3509438,113.452572 22.8840504,113.037123 23.3612173,112.565238 C23.5607161,112.383496 23.7257364,112.169184 23.8487545,111.932076 C24.0097895,111.58398 24.0053573,111.188612 23.996493,110.807568 C23.9620207,109.537424 23.8970157,108.268234 23.8014781,107" id="Path" stroke="#3F3D56" stroke-width="4"></path>
                    <path d="M24.998335,105.429619 C24.9743295,104.919057 24.6919619,104.455863 24.2491126,104.2006 L23.913201,104.864642 L23.9240368,104.06129 C23.2981363,103.876838 22.6247842,104.118153 22.2585483,104.658165 C21.8923124,105.198177 21.917219,105.912991 22.3201528,106.426206 C22.7230867,106.939421 23.4116021,107.13329 24.0231465,106.905726 C24.634691,106.678162 25.0289568,106.081377 24.998335,105.429619 Z" id="Path" fill="#57B894"></path>
                    <path d="M22.8343529,116.186279 C22.5235242,116.790631 21.8443689,117.110403 21.1797612,116.965322 C20.5151535,116.820241 20.031525,116.246639 20.0015214,115.567885 C19.992249,115.360841 20.0254357,115.154088 20.0990451,114.960312 C20.3234315,114.378864 20.8844815,113.996588 21.5084202,114.000023 C22.1323589,114.003458 22.6891547,114.391888 22.9071087,114.975772 L21.9705715,115.737943 L22.9999884,115.499861 C23.000932,115.73865 22.9441089,115.974133 22.8343529,116.186279 Z" id="Path" fill="#57B894"></path>
                    <path d="M21.5678913,112.998376 C21.1709656,113.016878 20.782961,112.876666 20.4892439,112.608586 C20.1955267,112.340507 20.0201598,111.966524 20.0017262,111.568918 C19.9904025,111.334167 20.0349144,111.10008 20.1315958,110.885937 C20.3133002,110.479683 20.6655183,110.175078 21.093249,110.05428 L21.093249,110.673764 L21.4318375,110.001624 C21.8287633,109.983122 22.2167678,110.123334 22.510485,110.391414 C22.8042021,110.659493 22.9795691,111.033476 22.9980026,111.431082 C23.0070016,111.603848 22.9855441,111.77685 22.9346139,111.942156 C22.7472595,112.547904 22.2003543,112.970559 21.5678913,112.998376 Z" id="Path" fill="#57B894"></path>
                    <path d="M25.5791089,110.997858 C24.942014,111.031845 24.3532103,110.6587 24.1116665,110.067889 C23.8701227,109.477078 24.028758,108.798041 24.5070243,108.375563 C24.9852907,107.953086 25.678406,107.879726 26.2344366,108.192734 L25.9701417,108.91953 L26.5141874,108.395309 C26.8061833,108.662319 26.9802005,109.034451 26.9979552,109.429834 C27.0053058,109.568526 26.9928149,109.707558 26.9608612,109.842716 C26.8088732,110.49272 26.2454501,110.96374 25.5791089,110.997858 Z" id="Path" fill="#57B894"></path>
                    <path d="M24.8293666,106.92439 C24.478707,106.959889 24.1390056,107.057866 23.7867806,107.077745 C23.4345556,107.097624 23.0494563,107.020947 22.8271632,106.773875 C22.7237143,106.629654 22.6301332,106.479803 22.5469487,106.325169 C22.4511193,106.18988 22.3199042,106.078176 22.1649802,106 C21.8978471,106.476176 21.9587648,107.049572 22.3212292,107.470714 C22.6836936,107.891857 23.2821657,108.084597 23.8562622,107.965078 C24.4303587,107.845559 24.8762743,107.435391 25,106.91303 C24.943644,106.91587 24.8857226,106.91871 24.8293666,106.92439 Z" id="Path" fill="#000000" opacity="0.1"></path>
                    <path d="M25.5899352,109.998499 C25.0574237,110.021209 24.5509435,109.784919 24.2552437,109.375821 C23.9595439,108.966722 23.9178619,108.444635 24.1454022,108 C24.2665374,108.077217 24.3702901,108.175364 24.4509163,108.289009 C24.5414263,108.448374 24.6418657,108.60277 24.7517301,108.751424 C24.9883076,109.007197 25.3925262,109.09101 25.759143,109.07656 C26.1257598,109.062109 26.478276,108.963846 26.8433261,108.932055 C26.8934618,108.932055 26.9451641,108.932055 27,108.923385 C26.8431587,109.532051 26.2675814,109.970904 25.5899352,109.998499 Z" id="Path" fill="#000000" opacity="0.1"></path>
                    <path d="M21.6045161,112.998464 C21.1983185,113.015968 20.8012504,112.88332 20.5006722,112.629705 C20.2000941,112.37609 20.0206307,112.022284 20.0017666,111.646131 C19.9901783,111.424046 20.03573,111.202589 20.1346698,111 C20.2609397,111.078814 20.3708158,111.178081 20.4590169,111.29303 C20.5595225,111.458159 20.6704682,111.617649 20.791275,111.770669 C21.0491705,112.038791 21.4842704,112.13256 21.8766513,112.12377 C22.2690323,112.114979 22.6218587,112.03 23,112.002162 C22.8075675,112.573096 22.2497248,112.971367 21.6045161,112.998464 Z" id="Path" fill="#000000" opacity="0.1"></path>
                    <path d="M23,116.601056 C22.6710056,116.897353 21.9521587,117.054127 21.2487096,116.982998 C20.5452605,116.911869 20.0333674,116.630649 20.0016103,116.297875 C19.991796,116.196367 20.0269222,116.095002 20.1048335,116 C20.2361784,116.039599 20.353837,116.088151 20.4538264,116.144011 C20.5851044,116.234369 20.7267618,116.321406 20.8781887,116.404746 C21.2058816,116.551789 21.7269132,116.613183 22.1889602,116.618489 C22.4598114,116.620029 22.7306244,116.614208 23,116.601056 Z" id="Path" fill="#000000" opacity="0.1"></path>
                    <path d="M19,117.913161 C19,117.913161 20.3431312,117.515874 20.755727,117.300015 C21.1683229,117.084156 22.8222178,116.821946 22.9222942,117.167586 C23.0223706,117.513226 24.9308459,118.905054 23.4209207,118.914324 C21.9109954,118.923594 19.8971765,119.102373 19.4933593,118.914324 C19.0895421,118.726275 19,117.913161 19,117.913161 Z" id="Path" fill="#656380"></path>
                    <path d="M23.4446279,119.812843 C21.9285354,119.821373 19.9205474,119.985891 19.5164904,119.812843 C19.2090556,119.682447 19.0860817,119.215702 19.0439192,119 L19,119 C19,119 19.084325,119.75191 19.488382,119.922521 C19.8924391,120.093133 21.9004271,119.929833 23.4182763,119.922521 C23.855712,119.922521 24.0067942,119.811624 23.9997672,119.65198 C23.9382802,119.750691 23.7749006,119.811624 23.4446279,119.812843 Z" id="Path" fill="#000000" opacity="0.2"></path>
                    <path d="M103.018246,118 C102.790207,117.637784 103.049642,117.193182 103.348735,116.863636 C103.647829,116.534091 104.009715,116.203125 103.999801,115.789773 C103.989886,115.197443 103.257851,114.848011 102.677841,114.534091 C102.244542,114.300521 101.844663,114.024005 101.486425,113.710227 C101.336021,113.587771 101.211848,113.443528 101.119581,113.284091 C101.018861,113.044153 100.981055,112.788049 101.008867,112.534091 C101.035306,111.688447 101.084329,110.84375 101.155935,110" id="Path" stroke="#3F3D56" stroke-width="4"></path>
                    <path d="M102.00058,110.476068 C102.008666,110.306045 102.102721,110.151819 102.250191,110.066773 L102.362323,110.28793 L102.358483,110.01993 C102.41203,110.004174 102.467876,109.997682 102.52361,110.000733 C102.725647,110.010286 102.902027,110.140603 102.970478,110.330901 C103.038929,110.521198 102.985966,110.733985 102.836294,110.870009 C102.686621,111.006033 102.469725,111.038496 102.286776,110.952257 C102.103826,110.866017 101.990864,110.678065 102.00058,110.476068 Z" id="Path" fill="#57B894"></path>
                    <path d="M103.05613,116.729388 C103.164544,116.939394 103.405163,117.044763 103.632953,116.981984 C103.860744,116.919204 104.013464,116.70543 103.999062,116.469514 C103.984659,116.233598 103.80707,116.040002 103.573335,116.005416 C103.339601,115.970831 103.113587,116.104706 103.031525,116.326348 L103.34447,116.580171 L103,116.503255 C103.000703,116.581995 103.019932,116.659464 103.05613,116.729388 Z" id="Path" fill="#57B894"></path>
                    <path d="M103.477966,113.999445 C103.610148,114.005683 103.739383,113.959117 103.837168,113.870019 C103.934954,113.78092 103.993256,113.656608 103.999216,113.524501 C104.003691,113.445556 103.988962,113.366704 103.95629,113.294689 C103.895927,113.159653 103.778456,113.058548 103.635874,113.018915 L103.635874,113.224213 L103.522425,113.00053 C103.247158,112.987964 103.013646,113.200419 103.000409,113.475474 C102.998131,113.532956 103.005384,113.590419 103.021872,113.645535 C103.08323,113.848356 103.266138,113.990285 103.477966,113.999445 Z" id="Path" fill="#57B894"></path>
                    <path d="M100.476308,112.999444 C100.688471,113.009419 100.883799,112.884357 100.963463,112.687534 C101.043127,112.490712 100.989752,112.265057 100.830343,112.124744 C100.670934,111.984431 100.440261,111.960063 100.255035,112.063969 L100.343391,112.305903 L100.162069,112.131557 C100.064764,112.22064 100.006745,112.344645 100.000724,112.476408 C99.9981866,112.522841 100.002326,112.569398 100.013017,112.614655 C100.064217,112.831914 100.253271,112.988934 100.476308,112.999444 Z" id="Path" fill="#57B894"></path>
                    <path d="M102.05595,110.468578 C102.172512,110.48554 102.289074,110.535366 102.403304,110.544907 C102.522512,110.565554 102.641775,110.507248 102.724238,110.388008 C102.758605,110.315524 102.789996,110.240492 102.818265,110.16326 C102.850042,110.095503 102.893539,110.039439 102.944929,110 C102.985132,110.106237 103.003905,110.225147 102.999324,110.344543 C102.986579,110.689802 102.788557,110.968933 102.536032,110.997597 C102.283507,111.026261 102.054395,110.795615 102,110.457977 C102.019427,110.463277 102.038077,110.465398 102.05595,110.468578 Z" id="Path" fill="#000000" opacity="0.1"></path>
                    <path d="M100.470973,112.999158 C100.64812,113.011206 100.816808,112.893247 100.915226,112.688503 C101.013644,112.483759 101.027326,112.222327 100.951257,112 C100.909604,112.038544 100.873979,112.088345 100.846511,112.146428 C100.816775,112.226502 100.783341,112.303825 100.746419,112.377914 C100.658293,112.499254 100.535435,112.558983 100.412005,112.540493 C100.290188,112.532956 100.172251,112.484506 100.05121,112.469432 C100.03414,112.469432 100.01707,112.469432 100,112.469432 C100.054686,112.771646 100.246581,112.98748 100.470973,112.999158 Z" id="Path" fill="#000000" opacity="0.1"></path>
                    <path d="M103.465035,114.999213 C103.600491,115.008057 103.732927,114.942036 103.833135,114.815711 C103.933342,114.689386 103.993089,114.513135 103.999197,114.32583 C104.003782,114.213902 103.988688,114.102104 103.955207,114 C103.913285,114.038271 103.876807,114.086866 103.847589,114.143365 C103.814012,114.226122 103.776759,114.305922 103.736043,114.382308 C103.638912,114.508652 103.507615,114.572189 103.374699,114.55717 C103.247443,114.55717 103.125685,114.510468 103,114.497435 C103.06259,114.783909 103.248841,114.984877 103.465035,114.999213 Z" id="Path" fill="#000000" opacity="0.1"></path>
                    <path d="M103,116.60381 C103.130202,116.949826 103.430689,117.094946 103.686256,116.935236 C103.941822,116.775525 104.064404,116.366018 103.966208,116 C103.922464,116.039817 103.883202,116.088487 103.849709,116.144414 C103.806008,116.235597 103.758683,116.323293 103.707955,116.407089 C103.585104,116.550817 103.429112,116.627568 103.268844,116.623142 C103.179043,116.623597 103.089292,116.617143 103,116.60381 Z" id="Path" fill="#000000" opacity="0.1"></path>
                    <path d="M106,118.403164 C106,118.403164 105.193208,118.267919 104.949915,118.155215 C104.706622,118.04251 103.709904,117.907265 103.650258,118.088617 C103.590612,118.269968 102.438501,118.989228 103.348888,118.99435 C104.259276,118.999473 105.463185,119.02099 105.703339,118.924679 C105.943493,118.828368 106,118.403164 106,118.403164 Z" id="Path" fill="#656380"></path>
                    <path d="M103.328601,118.884772 C104.240019,118.884772 105.446863,118.92944 105.685718,118.767948 C105.871144,118.64597 105.945001,118.202725 105.968572,118 L106,118 C106,118 105.948143,118.712972 105.706146,118.874464 C105.464149,119.035957 104.257305,118.998161 103.349029,118.991289 C103.085032,118.991289 102.995461,118.88649 103.000176,118.735306 C103.033175,118.821206 103.133746,118.884772 103.328601,118.884772 Z" id="Path" fill="#000000" opacity="0.2"></path>
                    <rect id="Rectangle" fill="#3F3D56" x="30" y="119" width="78" height="1"></rect>
                    <rect id="Rectangle" fill="#3F3D56" x="111" y="119" width="42" height="1"></rect>
                    <rect id="Rectangle" fill="#3F3D56" x="1" y="119" width="26" height="1"></rect>
                </g>
                <g id="undraw_bookmarks_r6up" transform="translate(0.000000, 149.000000)">
                    <ellipse id="Oval" fill="#292E34" cx="296" cy="286" rx="67" ry="15"></ellipse>
                    <ellipse id="Oval" stroke="#3F3D56" cx="302" cy="281" rx="67" ry="15"></ellipse>
                    <circle id="Oval" fill="#292E34" cx="194" cy="135" r="13"></circle>
                    <circle id="Oval" fill="#292E34" cx="247" cy="135" r="13"></circle>
                    <circle id="Oval" fill="#292E34" cx="301" cy="135" r="13"></circle>
                    <circle id="Oval" fill="#F86B75" cx="6" cy="10" r="1"></circle>
                    <circle id="Oval" fill="#FAD375" cx="10" cy="10" r="1"></circle>
                    <circle id="Oval" fill="#8BCC55" cx="14" cy="10" r="1"></circle>
                    <rect id="Rectangle" fill="#292E34" x="30" y="30" width="91" height="29"></rect>
                    <rect id="Rectangle" stroke="#3F3D56" x="0" y="5" width="161" height="96"></rect>
                    <path d="M0,11.5 L161,11.5" id="Path" stroke="#3F3D56"></path>
                    <circle id="Oval" stroke="#3F3D56" cx="6" cy="9" r="1"></circle>
                    <circle id="Oval" stroke="#3F3D56" cx="10" cy="9" r="1"></circle>
                    <circle id="Oval" stroke="#3F3D56" cx="14" cy="9" r="1"></circle>
                    <rect id="Rectangle" stroke="#3F3D56" x="36" y="24" width="91" height="29"></rect>
                    <rect id="Rectangle" fill="#F2F2F2" x="18" y="71" width="123" height="4"></rect>
                    <rect id="Rectangle" fill="#F2F2F2" x="18" y="79" width="123" height="4"></rect>
                    <rect id="Rectangle" fill="#F2F2F2" x="18" y="89" width="123" height="4"></rect>
                    <rect id="Rectangle" stroke="#3F3D56" x="19" y="69" width="123" height="4"></rect>
                    <rect id="Rectangle" stroke="#3F3D56" x="19" y="78" width="123" height="4"></rect>
                    <rect id="Rectangle" stroke="#3F3D56" x="19" y="86" width="123" height="4"></rect>
                    <circle id="Oval" fill="#F86B75" cx="43" cy="176" r="1"></circle>
                    <circle id="Oval" fill="#FAD375" cx="47" cy="176" r="1"></circle>
                    <circle id="Oval" fill="#8BCC55" cx="51" cy="176" r="1"></circle>
                    <rect id="Rectangle" fill="#292E34" x="67" y="196" width="91" height="29"></rect>
                    <polyline id="Path" stroke="#3F3D56" points="199 189.555556 199 266 38 266 38 170 168.923077 170"></polyline>
                    <path d="M38,177.5 L169,177.5" id="Path" stroke="#3F3D56"></path>
                    <circle id="Oval" stroke="#3F3D56" cx="44" cy="174" r="1"></circle>
                    <circle id="Oval" stroke="#3F3D56" cx="47" cy="174" r="1"></circle>
                    <circle id="Oval" stroke="#3F3D56" cx="51" cy="174" r="1"></circle>
                    <rect id="Rectangle" stroke="#3F3D56" x="73" y="190" width="91" height="29"></rect>
                    <circle id="Oval" fill="#F86B75" cx="174" cy="98" r="1"></circle>
                    <circle id="Oval" fill="#FAD375" cx="178" cy="98" r="1"></circle>
                    <circle id="Oval" fill="#8BCC55" cx="182" cy="98" r="1"></circle>
                    <rect id="Rectangle" stroke="#3F3D56" x="169" y="94" width="161" height="96"></rect>
                    <path d="M169,101.5 L330,101.5" id="Path" stroke="#3F3D56"></path>
                    <circle id="Oval" stroke="#3F3D56" cx="175" cy="98" r="1"></circle>
                    <circle id="Oval" stroke="#3F3D56" cx="179" cy="98" r="1"></circle>
                    <circle id="Oval" stroke="#3F3D56" cx="183" cy="98" r="1"></circle>
                    <circle id="Oval" stroke="#3F3D56" cx="196" cy="134" r="13"></circle>
                    <circle id="Oval" stroke="#3F3D56" cx="249" cy="134" r="13"></circle>
                    <circle id="Oval" stroke="#3F3D56" cx="303" cy="134" r="13"></circle>
                    <rect id="Rectangle" fill="#F2F2F2" x="176" y="157" width="36" height="4"></rect>
                    <rect id="Rectangle" fill="#F2F2F2" x="230" y="157" width="36" height="4"></rect>
                    <rect id="Rectangle" fill="#F2F2F2" x="284" y="157" width="36" height="4"></rect>
                    <rect id="Rectangle" stroke="#3F3D56" x="178" y="156" width="36" height="4"></rect>
                    <rect id="Rectangle" stroke="#3F3D56" x="232" y="156" width="36" height="4"></rect>
                    <rect id="Rectangle" stroke="#3F3D56" x="286" y="156" width="36" height="4"></rect>
                    <rect id="Rectangle" fill="#F2F2F2" x="43" y="235" width="28" height="24"></rect>
                    <rect id="Rectangle" fill="#F2F2F2" x="95" y="235" width="28" height="24"></rect>
                    <rect id="Rectangle" fill="#F2F2F2" x="147" y="235" width="28" height="24"></rect>
                    <rect id="Rectangle" stroke="#3F3D56" x="48" y="231" width="28" height="24"></rect>
                    <rect id="Rectangle" stroke="#3F3D56" x="99" y="231" width="28" height="24"></rect>
                    <rect id="Rectangle" stroke="#3F3D56" x="150" y="232" width="28" height="24"></rect>
                    <polygon id="Path" fill="#79758C" points="266.190215 91 254 98 267 93.247186"></polygon>
                    <ellipse id="Oval" fill="#3F3D56" transform="translate(269.982942, 91.225638) rotate(-17.994250) translate(-269.982942, -91.225638) " cx="269.982942" cy="91.2256385" rx="3.47287651" ry="6.99236534"></ellipse>
                    <ellipse id="Oval" fill="#3F3D56" transform="translate(280.809818, 85.894342) rotate(-17.994250) translate(-280.809818, -85.894342) " cx="280.809818" cy="85.8943419" rx="2.62008165" ry="4.93719475"></ellipse>
                    <polygon id="Path" fill="#3F3D56" points="271 86.9058203 279.247076 84 281 88.7383897 273.017901 94"></polygon>
                    <path d="M270.29978,105 L272.508022,100.046277 C272.508022,100.046277 277.807802,85.6354475 272.94967,88.3374781 C268.091538,91.0395087 266.324945,98.2449236 266.324945,98.2449236 L265,102.748308 L270.29978,105 Z" id="Path" fill="#A0616A"></path>
                    <path d="M331,178.819325 C331,178.819325 323.444444,193.543253 321.222222,193.989433 C319,194.435613 319,180.604044 319,180.604044 C319,180.604044 323.444444,176.588427 325.222222,177.034607 C327,177.480786 331,178.819325 331,178.819325 Z" id="Path" fill="#A0616A"></path>
                    <path d="M320.303032,271 C320.303032,271 324.331836,273.253306 322.541257,278.210579 C320.750677,283.167852 319.855387,281.815868 318.960098,285.871819 C318.064808,289.927769 310.007201,289.477108 309.559556,287.674464 C309.111911,285.871819 308.216622,278.66124 310.454846,275.957273 C312.69307,273.253306 320.303032,271 320.303032,271 Z" id="Path" fill="#55536E"></path>
                    <path d="M279.696968,271 C279.696968,271 275.668164,273.253306 277.458743,278.210579 C279.249323,283.167852 280.144613,281.815868 281.039902,285.871819 C281.935192,289.927769 289.992799,289.477108 290.440444,287.674464 C290.888089,285.871819 291.783378,278.66124 289.545154,275.957273 C287.30693,273.253306 279.696968,271 279.696968,271 Z" id="Path" fill="#55536E"></path>
                    <path d="M317.9628,182.580844 C317.9628,182.580844 321.510319,184.804426 322.397199,198.590632 C323.284079,212.376837 321.953759,227.941908 321.510319,231.499639 C321.066879,235.057369 321.953759,240.393965 322.840639,243.062263 C323.727519,245.730561 320.623439,266.187511 320.623439,266.187511 C321.948398,269.003402 321.948398,272.265947 320.623439,275.081838 C318.40624,279.973717 311.754642,284.865597 309.980883,279.973717 C309.887961,278.266997 309.434509,276.599554 308.650563,275.081838 C307.320244,272.41354 309.537443,261.740348 309.537443,261.740348 C309.537443,261.740348 307.763684,244.841128 308.207123,240.393965 C308.650563,235.946802 302.885845,209.708539 301.998965,205.261376 C301.112086,200.814213 301.555525,197.256483 301.112086,198.590632 C300.668646,199.924781 292.686728,236.836235 292.686728,236.836235 C292.686728,236.836235 293.573608,260.406199 293.130168,263.519214 C292.686728,266.632228 294.903928,272.858256 293.573608,275.081838 C292.243288,277.305419 289.582649,285.310313 284.704811,280.418433 C279.826972,275.526554 280.713852,273.747689 280.270412,271.524107 C279.826972,269.300526 280.270412,266.632228 280.270412,263.074497 C280.270412,259.516767 276.722893,239.504533 278.496653,236.391518 C280.270412,233.278504 279.383532,229.276057 278.940093,222.160596 C278.496653,215.045135 278.053213,180.801979 282.487611,174.575951 C286.92201,168.349922 317.9628,182.580844 317.9628,182.580844 Z" id="Path" fill="#3F3D56"></path>
                    <circle id="Oval" fill="#A0616A" cx="306" cy="89" r="11"></circle>
                    <path d="M314.08745,93.1864803 C314.08745,93.1864803 313.64931,108.65289 315.840009,111.230625 C318.030707,113.80836 297,109.082513 297,109.082513 C297,109.082513 301.819537,99.2011952 298.752559,92.7568578 C295.685581,86.3125204 314.08745,93.1864803 314.08745,93.1864803 Z" id="Path" fill="#A0616A"></path>
                    <path d="M317.919355,109.482839 C317.919355,109.482839 317.032258,105.919488 311.709677,105.028651 C306.387097,104.137813 300.092773,103.246975 298.139128,105.028651 C296.185484,106.810326 295.298387,109.03742 293.967742,109.03742 L287.758065,109.03742 L278,126.408754 C278,126.408754 282.879032,132.199199 281.548387,142.889251 C280.217742,153.579303 278,173.177731 278,173.177731 C281.555925,177.931582 284.673623,183.00057 287.314516,188.321971 C291.75,197.230348 322.354839,196.33951 320.580645,180.749851 C320.580645,180.749851 318.362903,176.741082 319.25,173.177731 C320.137097,169.614381 322.798387,145.561764 322.798387,145.561764 L333,118.391216 C333,118.391216 318.806452,111.264514 317.919355,109.482839 Z" id="Path" fill="#55536E"></path>
                    <path d="M329.53645,118 L332.681458,118 C332.681458,118 334.478605,128.202299 334.029319,134.412393 C333.580032,140.622488 333.580032,155.260569 333.580032,155.260569 C333.580032,155.260569 335.377179,158.809195 334.927892,161.914242 C334.478605,165.019289 333.580032,173.447275 333.580032,173.447275 C333.580032,173.447275 333.130745,185.423887 324.594295,179.213792 C324.594295,179.213792 321.898574,177.883057 323.246434,172.116541 C324.594295,166.350024 322.347861,160.139929 322.347861,160.139929 C322.347861,160.139929 323.695721,156.147725 323.246434,153.486256 C322.797147,150.824787 321,142.396801 321,142.396801 L329.53645,118 Z" id="Path" fill="#55536E"></path>
                    <path d="M289,110.33942 L286.824056,109.034372 C286.824056,109.034372 283.777735,107.729323 279.425848,109.034372 C275.073961,110.33942 272.898017,109.904404 271.157262,109.469388 C269.416507,109.034372 270.722073,104.684211 270.722073,104.684211 C270.722073,104.684211 267.240564,98.593985 263.759054,102.074114 C260.277544,105.554243 260.277544,112.514501 260.277544,112.514501 C260.277544,112.514501 258.1016,116.864662 265.934997,119.474758 C273.768394,122.084855 277.249904,126 277.249904,126 L285.953679,126 L289,110.33942 Z" id="Path" fill="#55536E"></path>
                    <path d="M305.80428,101 C305.77699,100.207095 305.288645,99.5038453 304.556379,99.2029377 C304.077183,99.0393388 303.578353,98.9405802 303.073095,98.9092769 C301.595085,98.7182052 300.074665,98.174831 299.213721,97.042908 C298.067333,95.5357036 298.380682,93.4273057 297.461899,91.7911349 C297.034568,91.1469444 296.566732,90.530702 296.061234,89.9461524 C294.45786,87.7949819 294.175276,85.0486356 294.029283,82.4359115 C293.957499,81.9062524 294.018188,81.3670111 294.205889,80.8667019 C294.481125,80.4166294 294.814106,80.0047262 295.196297,79.6415493 C295.84387,78.8871889 296.193232,77.9210727 296.178302,76.9259402 C296.1314,74.9023958 299.019533,73.5426115 301.064982,72.8438066 C303.110431,72.1450017 305.328697,72.0337014 307.507929,72.0041347 C308.760739,71.9871387 310.053728,72.0019982 311.205203,72.460706 C311.867431,72.7491898 312.490344,73.1209907 313.05893,73.5671481 C315.472221,75.3380594 317.73876,77.5152417 318.548778,80.2707909 C318.866612,81.5286264 319.014528,82.8235516 318.988562,84.1208554 C319.02705,84.5239251 318.968075,84.930357 318.816631,85.3057286 C318.527024,85.8894954 317.844309,86.2056913 317.402941,86.7007798 C316.578583,87.6254662 316.725318,88.9633987 316.620871,90.1599419 C316.349799,92.6623094 314.908886,94.8867103 312.73884,96.1528009 C312.294475,96.370887 311.885229,96.6545194 311.524746,96.9942437 C311.253034,97.3548645 311.028059,97.7485888 310.855213,98.1659849 C309.987004,99.8354079 307.799572,100.940932 305.80428,101 Z" id="Path" fill="#3F3D56"></path>
                    <polygon id="Path" fill="#79758C" points="85.626188 5 80 8 86 5.96313864"></polygon>
                    <ellipse id="Oval" fill="#3F3D56" transform="translate(87.081793, 5.235980) rotate(-17.994250) translate(-87.081793, -5.235980) " cx="87.0817928" cy="5.23597952" rx="1.64851042" ry="3.31914923"></ellipse>
                    <ellipse id="Oval" fill="#3F3D56" transform="translate(92.221112, 2.705307) rotate(-17.994250) translate(-92.221112, -2.705307) " cx="92.221112" cy="2.70530696" rx="1.24370347" ry="2.34359334"></ellipse>
                    <polygon id="Path" fill="#3F3D56" points="87 3.45258267 91.1234948 2 92 4.36904437 88.0090544 7"></polygon>
                    <polygon id="Path" fill="#79758C" points="125.626188 170 120 173 126 170.963139"></polygon>
                    <ellipse id="Oval" fill="#3F3D56" transform="translate(127.009576, 170.143205) rotate(-17.994250) translate(-127.009576, -170.143205) " cx="127.009576" cy="170.143205" rx="1.64851042" ry="3.31914923"></ellipse>
                    <ellipse id="Oval" fill="#3F3D56" transform="translate(132.148895, 167.612532) rotate(-17.994250) translate(-132.148895, -167.612532) " cx="132.148895" cy="167.612532" rx="1.24370347" ry="2.34359334"></ellipse>
                    <polygon id="Path" fill="#3F3D56" points="127 168.452583 131.123495 167 132 169.369044 128.009054 172"></polygon>
                </g>
            </g>
        </g>
    </g>
</svg>