<?xml version="1.0" encoding="UTF-8"?>
<svg width="699px" height="490px" viewBox="0 0 699 490" version="1.1" xmlns="http://www.w3.org/2000/svg" xmlns:xlink="http://www.w3.org/1999/xlink">
    <!-- Generator: Sketch 52.4 (67378) - http://www.bohemiancoding.com/sketch -->
    <title>undraw_connected_world_wuay</title>
    <desc>Created with Sketch.</desc>
    <g id="Elementos" stroke="none" stroke-width="1" fill="none" fill-rule="evenodd">
        <g id="Tradicional/Header" transform="translate(-403.000000, -46.000000)">
            <g id="undraw_connected_world_wuay" transform="translate(403.000000, 46.000000)">
                <path d="M631.06682,119.11206 C553.320657,14.9255535 389.085581,-27.3370097 227.565659,18.1807753 C142.174929,42.2446669 59.8425153,90.4602429 19.0405689,183.821144 C-53.8972926,350.713847 99.2449581,404.015311 199.383331,421.003131 C247.80483,429.217522 293.409663,443.015891 335.083766,461.802392 C410.05925,495.600995 542.770996,525.550139 642.844439,384.763265 C715.377793,282.720757 682.853446,188.510565 631.06682,119.11206 Z" id="Path" fill="#F2F2F2" fill-rule="nonzero" opacity="0.633812314"></path>
                <path d="M250.178398,139.583194 C249.969414,137.926316 249.546759,136.303669 248.921036,134.755956 C248.759699,134.164172 248.357712,133.667668 247.813314,133.387781 C247.453411,133.29394 247.076094,133.289703 246.714185,133.375439 L241.071088,134.241358 C240.598769,134.26299 240.146524,134.439209 239.78355,134.743052 C239.048564,135.518194 239.772306,136.766368 239.749806,137.83576 C239.724503,139.038279 238.659068,140.014369 237.503706,140.337303 C236.324354,140.576269 235.107823,140.561143 233.934741,140.292927 L226.044022,139.063227 C228.36794,138.3192 230.436445,136.934934 232.013428,135.068438 C233.051825,133.834833 233.604265,131.531725 232.103551,130.947545 C231.657658,130.824835 231.192716,130.787398 230.733011,130.837189 C227.157965,130.865066 224.344701,127.87169 220.997862,126.610978 C216.603763,125.062766 211.71519,126.524203 208.883671,130.23251 L213.08715,130.435747 C213.48261,130.41386 213.874756,130.518741 214.206826,130.735209 C215.128035,131.494227 213.982736,132.952135 214.112512,134.140674 C214.281124,135.684842 216.325639,136.014542 217.866827,136.170688 C219.408015,136.326834 221.36319,137.582565 220.621849,138.946515 C212.875664,141.622196 204.99308,133.71614 196.857948,134.689353 C194.798993,134.93567 192.854777,135.746817 190.844566,136.256865 C178.564729,139.372613 165.869556,131.059439 153.32502,132.820022 C150.536221,133.296793 147.795311,134.021718 145.134779,134.986205 C143.427447,135.548382 141.646589,136.155911 140.406054,137.459698 C139.165519,138.763485 138.693379,140.993202 139.868596,142.356496 C136.629396,142.623991 133.36856,142.313152 130.237629,141.438426 C131.962221,142.399791 133.026005,144.228514 133.011648,146.207173 C127.954025,147.03424 123.030321,148.539791 118.372976,150.683331 C119.242213,152.132898 120.257483,153.489191 121.402833,154.7309 L115,158.856006 C117.163181,159.40257 118.281599,162.360596 117.023632,164.208041 C119.266605,163.207384 120.656691,160.618761 123.055179,160.093936 C124.626508,159.750104 126.225373,160.394727 127.716017,161.000281 C129.206661,161.605836 130.845027,162.193022 132.388161,161.738542 C133.931296,161.284063 135.069495,159.277487 134.088943,157.999052 C140.684695,156.069187 147.501265,155.001191 154.369689,154.821537 C154.899581,154.75485 155.436962,154.85712 155.905651,155.113851 C156.799756,155.735916 156.564511,157.079523 156.51635,158.169739 C156.468189,159.259956 157.315497,160.692781 158.287132,160.201375 C157.143999,161.195434 158.121229,163.066818 159.217946,164.112142 C160.314664,165.157466 161.636523,166.599851 160.965087,167.95961 C160.789847,168.314499 160.492623,168.598449 160.324012,168.956553 C159.826317,170.013585 160.61653,171.245899 161.548597,171.947858 C162.480664,172.649816 163.622349,173.140408 164.269807,174.112442 C164.917266,175.084475 164.623242,176.785923 163.46548,176.92166 L160.174729,172.73165 C159.050422,173.900783 158.279639,175.365584 157.951767,176.956178 C161.441333,179.816897 161.966215,185.639619 159.044775,189.081516 C157.551844,190.840412 155.428785,191.909192 153.575817,193.28113 C151.722849,194.653069 150.008261,196.606702 150.012921,198.916475 C150.020971,202.906995 149.695832,206.614351 151.186957,210.314116 C153.936605,217.136084 157.111171,223.777967 160.691874,230.200471 C161.632181,231.886957 162.847436,233.735429 164.752307,234.025813 C162.344925,228.148594 160.177804,222.179938 158.250943,216.119845 C159.505956,216.124771 160.956265,216.224698 161.691979,217.244334 C162.301195,218.088654 162.170328,219.236598 162.359627,220.261361 C162.600396,221.254185 163.001883,222.200696 163.548107,223.063219 L175.044053,243.598887 C175.997048,245.30126 177.090191,247.128587 178.911551,247.818001 C180.076043,248.258776 181.423306,248.17574 182.495129,248.810327 C183.335254,249.307735 183.901097,250.190681 184.757558,250.659225 C187.179234,251.984039 190.546822,249.443247 192.809951,251.025003 C193.457045,251.477278 193.868711,252.195781 194.464959,252.713593 C196.555147,254.528808 199.983931,253.314474 202.396829,254.668578 C203.951902,255.541279 204.757829,257.286626 205.587275,258.868298 C207.664948,262.830207 211.026735,266.711683 215.479383,267.027161 C216.878045,267.126258 218.306727,266.860317 219.673911,267.172289 C221.041094,267.484261 222.386942,268.680811 222.167478,270.069602 C221.791236,272.450529 222.964276,275.057609 222.649235,277.447444 C222.07538,281.800601 215.918147,283.713583 215.389265,288.072462 C215.273463,289.026841 215.454718,290.011941 215.228116,290.946118 C214.950383,292.091055 214.092949,293.023246 213.788268,294.161266 C213.210878,296.317906 214.751641,298.464212 216.444255,299.91513 C218.136868,301.366047 220.155851,302.617178 221.081222,304.648236 C222.059319,306.795025 221.578883,309.298167 221.896979,311.636737 C222.591418,316.742146 226.988643,320.526932 231.513988,322.967303 C232.892769,323.710832 234.373186,324.430664 235.26559,325.720527 C236.430367,327.404067 236.314331,329.623473 236.703272,331.635098 C237.655814,336.561635 241.791412,340.620895 241.908836,345.637805 C241.992297,349.203657 240.015735,352.438581 238.835019,355.803148 C236.595043,362.326265 237.299814,369.504332 240.765406,375.464078 C241.648663,376.959731 242.705063,378.369863 243.329881,379.991288 C244.444875,382.88472 244.083088,386.173876 245.111142,389.099509 C246.47032,392.967448 250.205072,396.162254 249.84762,400.24763 C251.543188,403.77866 255.287315,405.513634 259.052226,406.564602 L265.799799,408.448193 C267.091791,408.808855 268.441867,409.172378 269.757455,408.911233 C271.073043,408.650089 272.328581,407.554582 272.294619,406.210105 C268.985703,405.461757 265.570664,404.66597 262.843009,402.643916 C260.115355,400.621863 258.246863,397.021076 259.281781,393.781642 C259.761663,392.279532 260.7826,390.54494 259.811972,389.303779 C259.256221,388.593136 258.239982,388.40747 257.613139,387.759071 C256.6354,386.747767 256.971314,385.048832 257.674217,383.829309 C258.37712,382.609785 259.393096,381.519962 259.676613,380.140366 C259.969736,378.559764 259.25236,376.962961 257.877585,376.135921 C259.128732,375.662241 260.266599,374.930073 261.217365,373.986922 C262.095665,372.981082 262.501367,371.4304 261.810464,370.286978 C263.862179,370.54792 266.284437,370.675718 267.631274,369.101788 C268.706778,367.844941 268.632906,365.965911 268.207943,364.365495 C267.782979,362.76508 267.064692,361.210616 267.042315,359.554588 C271.775254,359.77955 276.518596,359.618256 281.225468,359.072299 C280.544836,356.773518 278.998133,354.830974 276.913326,353.656567 C279.045074,353.294856 280.987136,350.735517 281.660624,348.675236 C282.334113,346.614955 282.162352,344.370786 281.746077,342.243184 C281.586202,341.695412 281.56429,341.116428 281.682302,340.558079 C281.922358,339.790892 282.673875,339.322735 283.369165,338.92232 L293.950386,332.828231 C294.581803,332.510972 295.154151,332.087244 295.642434,331.575552 C296.751034,330.269689 296.586814,328.298418 296.019175,326.680645 C295.451536,325.062872 294.542288,323.541609 294.323641,321.840683 C293.669671,316.753686 299.099817,313.103789 300.932399,308.315233 C301.651576,306.436029 301.798146,304.393369 301.93732,302.385357 C302.086799,300.228678 302.097909,297.7236 300.446637,296.333788 C298.86375,295.001546 296.390506,295.298725 294.734188,294.059521 C293.215634,292.923381 292.69172,290.716839 291.032784,289.799161 C289.526219,288.965781 287.63728,289.495806 285.961695,289.103851 C283.011478,288.413736 281.154897,285.003906 278.14189,284.688181 C276.441897,284.510043 274.517882,285.34348 273.124562,284.350627 C271.896838,283.475777 271.847636,281.717375 271.613936,280.225302 C270.775117,275.475904 267.074882,271.753251 262.341606,270.896795 C260.588815,270.61491 258.680923,270.721962 257.189792,269.755998 C255.679899,268.777866 254.987597,266.946595 253.801567,265.592031 C251.890055,263.4089 248.879493,262.633264 246.059298,261.968394 L234.587961,259.264012 C232.55158,258.783928 229.926698,258.529364 228.833919,260.318195 C228.510433,260.999302 228.281423,261.721602 228.153264,262.464989 C227.313231,265.223873 224.794931,267.124727 221.918807,267.170858 C220.957454,265.526355 219.399874,264.317759 217.571198,263.797354 C216.407987,263.472266 215.162909,263.436109 214.053521,262.957831 C212.832431,262.36013 211.910664,261.284541 211.505023,259.984049 C211.099383,258.683557 211.24567,257.272941 211.909477,256.083984 C213.269104,253.656414 212.838446,250.616366 210.858432,248.664576 C208.907603,246.908234 206.085674,246.483869 203.469877,246.659605 C202.784781,245.160508 203.930286,243.469142 205.164695,242.379728 C206.399104,241.290314 207.898056,240.219279 208.166855,238.59244 C208.589714,236.033415 205.333754,234.089774 202.861596,234.852798 C200.389437,235.615822 198.811562,238.023856 197.768533,240.397534 C197.17008,241.759458 196.661304,243.193607 195.717315,244.341995 C194.773327,245.490382 193.253145,246.312632 191.815272,245.944088 C189.779652,245.422349 188.993467,242.99703 188.542943,240.939038 C187.938482,238.177876 187.330503,235.378408 187.457157,232.554346 C187.583811,229.730283 188.533164,226.830619 190.609724,224.918832 C193.993575,221.803482 199.184622,222.108879 203.751403,222.605833 C202.672464,221.386758 202.939115,219.332239 204.093527,218.184788 C205.330739,217.082442 207.030813,216.6636 208.636544,217.06554 C210.012663,217.352802 211.252349,218.096109 212.156017,219.17579 C213.45377,220.762483 213.822807,222.904823 214.803724,224.705844 C215.78464,226.506866 217.990309,228.043007 219.795648,227.076768 C221.354983,226.242193 221.602479,224.073822 221.214388,222.344554 C220.826297,220.615285 220.002031,218.933753 220.14261,217.166847 C220.410855,213.795385 223.895873,211.766004 226.971194,210.377505 C230.046516,208.989005 233.567952,207.121655 234.055168,203.774962 C234.071827,203.119697 234.195095,202.471559 234.420105,201.856145 C234.761111,201.312588 235.235126,200.865564 235.797056,200.557598 C244.77247,194.609282 253.897156,188.588355 264.155632,185.338082 C264.689326,185.168977 264.751981,185.356915 265.295896,185.224433 C266.05713,184.783227 265.552734,183.562693 264.822889,183.071013 C264.093044,182.579333 263.117515,182.202272 262.93235,181.340325 C262.796236,180.706715 263.168501,180.084566 263.265209,179.443713 C263.502831,177.868959 261.624281,176.415011 260.165424,177.044582 C259.341388,175.950181 260.971916,174.67854 262.290346,174.314523 C266.249374,173.221867 270.313393,172.556104 274.413342,172.328548 C274.886458,172.253109 275.371184,172.335791 275.792822,172.563852 C276.481438,173.042203 276.393457,174.139364 275.905429,174.822142 C275.417402,175.504919 274.658271,175.933609 274.050112,176.511342 C272.695652,177.83455 272.189108,179.804265 272.73651,181.619338 C274.876878,182.711159 277.203826,183.835114 279.574387,183.450475 C281.944947,183.065835 284.049003,180.394794 282.934747,178.261559 C281.897122,176.275023 278.780297,175.826966 278.24431,173.649765 C277.616761,171.100648 281.215097,168.833495 280.404543,166.336844 C280.049497,165.243228 278.962681,164.599609 278.128732,163.810055 C276.112815,161.828592 275.518455,158.808417 276.632572,156.207484 C273.876199,156.693763 271.055895,155.808695 269.067642,153.833458 C267.258187,152.002181 265.81463,149.113384 263.24517,149.195325 C260.887269,149.2705 258.856337,152.029155 256.651573,151.187533 C256.109164,150.980481 255.537273,150.559062 255.011719,150.805979 C254.662751,151.033213 254.437228,151.408625 254.40003,151.824212 C253.839742,154.510546 254.80359,157.571293 253.343614,159.892607 C251.75488,162.418649 248.080077,162.76886 246.154042,165.046723 C245.108524,166.283228 244.703448,167.949416 243.742436,169.253041 C242.781425,170.556665 240.741709,171.385501 239.588417,170.249445 C240.75567,167.843035 240.110493,164.947062 238.03298,163.267631 C236.96223,162.567074 235.808025,162.004071 234.597432,161.591827 C233.244701,161.017614 231.957855,160.298386 230.759338,159.446688 C230.158954,159.083506 229.671114,158.560042 229.350342,157.9348 C229.096609,157.1519 229.130791,156.303767 229.446698,155.543955 C230.638579,152.117157 233.625408,149.63454 237.204351,149.095886 C238.739911,148.886388 240.527096,148.960206 241.543306,147.786898 C242.081005,147.166079 242.363135,146.227465 243.143614,145.975324 C243.642843,145.874739 244.161122,145.938744 244.6211,146.157787 L250.352615,148.18089 C250.992108,148.470407 251.695991,148.587154 252.394384,148.519538 C253.112702,148.422488 253.634753,147.78621 253.591362,147.060654 C253.408233,146.106146 251.943653,145.648104 252.07692,144.685338 C252.151564,144.373342 252.318825,144.091392 252.556612,143.876726 C256.74465,139.406512 262.705001,137.046134 268.808695,137.440686 C269.532106,138.632158 268.388005,140.04307 267.436034,141.060198 C266.484063,142.077326 265.719052,143.894684 266.870313,144.677618 C267.342109,144.919087 267.866912,145.037611 268.39638,145.022275 C269.807476,145.213816 271.178834,145.630946 272.458268,146.257793 C274.43883,147.122145 276.381382,148.067867 278.285925,149.09496 C278.117695,147.835656 277.957133,146.508991 278.433105,145.331504 C278.909077,144.154017 280.261833,143.230437 281.44341,143.689001 C282.582135,144.130937 283.166138,145.642999 284.379322,145.781529 C285.997638,145.96632 286.636101,143.568771 285.960117,142.082706 C285.284134,140.596641 283.945934,139.35231 283.834233,137.722778 C283.758873,136.623434 284.176043,135.260006 283.300378,134.594317 C282.988767,134.394463 282.635049,134.270082 282.267217,134.231019 L260.402643,130.196151 C259.10428,129.956549 257.22837,130.14019 257.170794,131.462833 C257.138649,132.201122 257.796273,132.931512 257.505007,133.610312 C257.194139,134.3348 256.172899,134.268561 255.429074,134.524808 C254.274942,134.922402 253.695801,136.296725 253.806646,137.515451 C254.009594,138.726441 254.477268,139.877383 255.176123,140.885724 C253.753959,140.289275 251.600562,140.179637 250.178398,139.583194 Z" id="Path" fill="#3F3D56" fill-rule="nonzero"></path>
                <path d="M233.094255,121.322129 C230.327115,120.48323 227.282665,121.318474 225.474383,123.412637 C225.121662,123.838082 224.825439,124.424572 225.120719,124.885254 C225.544078,125.545708 226.622794,125.284842 227.41809,125.048588 C228.58703,124.666004 229.85934,124.6382 231.046865,124.969286 C231.793649,125.204169 232.461754,125.619291 233.211799,125.845297 C233.955817,126.130377 234.81085,126.015914 235.434706,125.547717 C235.949465,125.066774 235.981765,124.319075 235.982674,123.645507 C236.054984,123.189056 235.898631,122.727083 235.557134,122.388165 C235.256903,122.228864 234.919531,122.13745 234.573014,122.121509 C233.796962,121.989916 233.095358,121.614373 232.589191,121.059641" id="Path" fill="#3F3D56" fill-rule="nonzero"></path>
                <path d="M240.860583,119.002867 C240.245813,118.96621 239.658042,119.283043 239.309667,119.838876 C238.961293,120.394708 238.90269,121.109166 239.155036,121.724072 C240.083426,122.001294 241.053361,122.070541 242.006769,121.927665 C242.979157,121.762369 243.765393,120.973078 244,119.926691 C242.877505,120.150354 241.71917,119.908127 240.750959,119.247263" id="Path" fill="#3F3D56" fill-rule="nonzero"></path>
                <path d="M268.582676,115.46852 C265.962512,116.035623 263.417321,116.915815 261,118.090802 C263.339598,119.006314 264.816618,121.370931 264.638718,123.916163 C264.536448,124.392115 264.54829,124.886142 264.673244,125.356448 C264.951727,126.043757 265.758711,126.301651 266.468165,126.478065 C267.742799,126.872976 269.073789,127.045924 270.404996,126.989613 C271.757834,126.91755 272.983497,126.155062 273.663671,124.962386 C273.856595,124.405199 274.082906,123.860583 274.341332,123.331605 C276.041887,120.695003 281.093789,123.883046 282.919604,121.334741 C283.562773,120.437062 283.503945,119.085814 284.342387,118.37449 C284.776121,118.06458 285.278735,117.869311 285.805005,117.806252 C289.476728,117.06361 293.185586,116.525868 296.914977,116.195432 C298.68205,116.038887 300.985297,115.392947 301,113.587302 C294.344157,112.25656 287.44291,113.201703 281.369145,116.275796 C279.180831,117.39161 276.286559,119.738755 274.178664,118.259457 C273.389422,117.70558 273.428501,116.214132 272.342238,115.591312 C271.231662,114.954554 269.761576,115.213536 268.582676,115.46852 Z" id="Path" fill="#3F3D56" fill-rule="nonzero"></path>
                <path d="M289.096767,118.728611 L292.202204,119.320206 C291.045794,119.26943 289.923333,119.714824 289.121581,120.5426 C288.319829,121.370376 287.916441,122.50036 288.014472,123.643868 C290.922587,124.607047 294.093094,123.669765 297.156469,123.797799 C300.219844,123.925832 303.784101,126.095314 303.261166,129.090615 C303.103047,129.996293 302.575333,130.901366 302.849751,131.779315 C303.04209,132.394673 303.589474,132.831307 303.898441,133.398047 C304.542274,134.579024 304.027699,136.072785 303.214732,137.146333 C302.401765,138.219881 301.309031,139.076454 300.595434,140.217337 C298.820623,143.054883 299.828985,146.723266 300.886233,149.893315 C301.191931,151.091103 301.756424,152.208757 302.540666,153.168968 C304.10702,154.820126 306.659605,154.963729 308.945647,154.996806 C310.609507,155.020888 312.51553,154.939384 313.567734,153.661282 C314.941433,151.992656 313.980866,149.389246 314.885283,147.430887 C315.706672,145.6523 317.799397,144.889268 319.695438,144.3481 C323.169008,143.356673 326.708919,142.513799 329.992816,141.016263 C334.070586,139.156709 337.881536,136.258795 342.36348,136.019429 C343.620879,135.952279 344.909438,136.099404 346.12063,135.757845 C347.331822,135.416286 348.482367,134.378088 348.390674,133.132963 C348.312324,132.069092 347.404461,131.287875 346.695072,130.48588 C345.985684,129.683884 345.428589,128.450648 346.080562,127.602124 L357.828323,125.426644 C356.99559,123.176661 356.346871,120.213389 358.260401,118.748846 C358.950815,118.220431 359.875224,118.009229 360.463065,117.370405 C361.46497,116.281607 360.961157,114.406047 359.804612,113.480084 C358.648068,112.554121 357.084284,112.339167 355.60282,112.217165 C350.451691,111.793026 345.270985,112.073293 340.109886,112.353773 C330.021032,112.90205 319.932176,113.450324 309.843319,113.998597 C307.812348,114.108967 305.467462,113.940352 303.604737,114.627307 C302.027808,115.208882 300.906586,116.276426 299.103034,116.651499 C295.773596,117.343926 292.109596,116.875369 289.096767,118.728611 Z" id="Path" fill="#3F3D56" fill-rule="nonzero"></path>
                <path d="M344.267396,143.298678 C343.950944,143.24792 343.627348,143.322313 343.363459,143.506489 C343.188969,143.70124 343.085177,143.950462 343.069202,144.213046 C342.868715,145.371929 343.10753,146.564808 343.737819,147.55279 C344.391689,148.539822 345.522496,149.089385 346.69112,148.988069 C348.089453,148.80732 349.119962,147.598045 350.405513,147.00796 C352.386863,146.099313 360.801303,144.682804 354.980644,141.495143 C352.974721,140.396602 351.678551,141.366354 350.097557,142.08982 C348.298752,143.022632 346.283066,143.440576 344.267396,143.298678 Z" id="Path" fill="#3F3D56" fill-rule="nonzero"></path>
                <path d="M395.826839,116.993902 C395.129661,117.271639 394.546426,117.766679 394.168208,118.401724 C393.806285,119.071447 394.046581,119.900262 394.714533,120.286076 C394.974934,120.378142 395.250979,120.420839 395.527816,120.411872 L398.362556,120.49445 C399.566815,120.529533 401.07107,120.779623 401.394674,121.911251 C401.634965,122.751519 401.097151,123.831272 401.746062,124.431744 C402.024553,124.642035 402.35942,124.769392 402.710383,124.798495 C403.64418,125.032398 404.619319,125.063085 405.566639,124.888379 C407.629197,124.348918 406.545429,123.121406 407.195041,122.028397 C408.188983,120.35602 408.016917,121.368388 409.768277,120.409912 C411.061666,119.702068 412.732999,118.418025 411.653461,116.613924 C409.776163,113.476635 398.597047,115.64613 395.826839,116.993902 Z" id="Path" fill="#3F3D56" fill-rule="nonzero"></path>
                <path d="M449.302069,116.287396 L447.703303,116.489036 C444.098043,116.943741 440.472354,117.402632 437,118.425873 C438.503076,118.987543 440.080039,119.353265 441.687476,119.51297 C442.572334,119.553964 443.451302,119.672052 444.313196,119.865733 C445.846886,120.297246 447.392282,121.411551 448.874008,120.840739 C449.792719,120.486811 450.092517,119.58272 450.853549,119.103574 C451.379047,118.77272 453.372174,118.237217 453.594987,117.903279 C455.396283,115.203602 450.686684,116.112768 449.302069,116.287396 Z" id="Path" fill="#3F3D56" fill-rule="nonzero"></path>
                <path d="M456.41773,123.452104 C454.263791,124.621484 452.265369,126.042447 450.467041,127.683295 C449.709404,128.374797 448.935545,129.234837 449.004264,130.242229 C449.095574,131.581153 450.564544,132.357795 451.837213,132.880957 L456.992092,135 C457.617446,134.144215 457.045087,132.962889 456.398783,132.121902 C455.752478,131.280915 454.984448,130.307914 455.269994,129.295903 C455.595854,128.141021 457.046143,127.747475 458.262292,127.54852 C460.243796,127.224357 465.589051,127.250354 464.946788,124.149822 C464.190015,120.496455 458.406802,122.372628 456.41773,123.452104 Z" id="Path" fill="#3F3D56" fill-rule="nonzero"></path>
                <path d="M455.344643,333.903035 C454.863528,335.346788 454.817883,337.047546 455.650115,338.308078 C456.58397,339.722533 458.452899,340.249787 460.069825,339.891091 C461.68,339.447035 463.115202,338.49056 464.173262,337.156401 C465.140907,336.038643 465.936955,334.773279 466.53349,333.404681 C467.366056,331.27193 467.953245,329.04491 468.282909,326.769694 L469.852032,318.23017 C470.202669,316.32164 470.189096,310.47041 466.804937,312.376806 C465.880437,312.897599 463.739906,317.009532 462.771052,318.17556 C461.02486,320.277117 460.793827,322.316249 459.874569,324.862214 C458.723149,328.051194 456.409038,330.708962 455.344643,333.903035 Z" id="Path" fill="#3F3D56" fill-rule="nonzero"></path>
                <path d="M635.852502,376.55075 C634.743601,376.112987 633.667426,375.59472 632.632387,375 C631.594487,377.886521 631.042698,380.928753 631,384 L638.58761,379.65653 C639.729027,379.003159 641.022716,378.095272 640.998174,376.768776 C641.019146,376.435087 640.858244,376.116466 640.578684,375.938092 C640.410069,375.869632 640.226473,375.847839 640.046772,375.874954 C638.92166,375.969808 637.895808,376.529858 636.834442,376.91931 C635.773076,377.308763 634.532009,377.514617 633.558194,376.936657" id="Path" fill="#3F3D56" fill-rule="nonzero"></path>
                <path d="M676.803683,377.68718 C675.936163,377.916822 675.088609,378.212605 674.268893,378.571781 C672.45501,379.469259 671.221068,381.173914 669.588782,382.355989 C668.026784,383.487161 666.146473,384.108222 664.300581,384.712077 C663.757584,385.178827 664.007096,386.118858 664.596516,386.528885 C665.230245,386.879467 665.957076,387.038337 666.684123,386.985191 C668.601813,387.026356 670.622168,387.044314 672.301882,386.143601 C673.248334,385.546582 674.133982,384.863018 674.94676,384.102221 C676.910683,382.508731 679.269153,381.457354 681.603775,380.441316 C682.453506,380.129319 683.239225,379.672489 683.924047,379.092273 C685.391083,377.686773 685.494241,375.518479 683.378874,375.040117 C681.669675,374.653562 678.431145,377.175189 676.803683,377.68718 Z" id="Path" fill="#3F3D56" fill-rule="nonzero"></path>
                <path d="M694.470289,367.150768 C694.64847,365.229632 693.959872,363.330672 692.602527,362 C692.582512,363.897036 692.526569,365.918006 691.490479,367.486702 C690.752253,368.604407 689.594786,369.359447 688.785993,370.424109 C687.977199,371.488772 687.618185,373.17636 688.566881,374.110579 C689.173273,374.585753 689.911878,374.847721 690.673807,374.85786 C692.562272,375.086778 694.748117,375.214365 696.072628,373.809408 C696.795564,373.042563 697.147215,371.906799 698.028935,371.343009 C698.357397,371.200979 698.650708,370.984832 698.887237,370.710509 C699.251304,370.114531 698.672834,369.329096 698.021679,369.114357 C697.370525,368.899618 696.652963,369.000567 695.998546,368.79662 C695.344129,368.592674 694.743742,367.834894 695.079512,367.22156" id="Path" fill="#3F3D56" fill-rule="nonzero"></path>
                <path d="M662.703477,296.695041 C661.676234,296.948917 660.612383,297.012657 659.562899,296.883205 C657.819767,296.557556 656.463072,295.222616 655.055768,294.127844 C651.710364,291.539472 647.643489,290.095574 643.439703,290.003693 C639.615617,289.930313 635.755807,290.983301 632,290.248635 C632.245382,291.635528 633.413283,292.675731 634.659394,293.294005 C635.905504,293.912279 637.280795,294.223416 638.532885,294.829102 C640.538136,295.808735 642.128628,297.490123 643.012672,299.564908 C643.415942,300.521431 643.66966,301.562358 644.280531,302.397562 C645.529088,304.104697 647.89569,304.479558 649.984312,304.33995 C652.707399,304.15793 655.551496,303.362097 658.08487,304.39303 C660.022897,305.181688 661.409973,306.905369 663.028165,308.245643 C664.646357,309.585917 666.925567,310.58065 668.783691,309.613595 C664.822291,308.310351 662.154995,304.541065 662.200231,300.310187 C664.022664,300.48048 669.271746,300.414574 668.989007,297.267936 C668.749438,294.601205 664.268336,296.407212 662.703477,296.695041 Z" id="Path" fill="#3F3D56" fill-rule="nonzero"></path>
                <path d="M638.557245,317.933983 C638.881597,316.16844 640.655682,314.609334 640.103063,312.900547 C639.720887,311.718823 638.340289,311.135392 637.090085,311.106256 C635.83988,311.077119 634.611695,311.446713 633.361641,311.481515 C632.54798,311.438647 631.732334,311.450144 630.920228,311.515929 C628.438788,311.920747 626.909286,314.502017 624.570768,315.419829 C623.148824,315.977903 621.551394,315.871217 620.072543,316.257021 C616.715567,317.132785 614.591496,320.280999 612.244846,322.819256 C608.453242,326.902149 603.513678,329.761056 598.06599,331.025658 C596.157289,331.46428 594.105453,331.7449 592.588301,332.975179 C590.579218,334.604367 590.084669,337.397345 589.637681,339.933706 C588.40273,346.93849 586.51541,353.814412 584,360.473021 L591.971083,361.483056 C593.486571,361.67509 595.056899,361.863005 596.517256,361.417509 C597.578273,361.020275 598.58328,360.488983 599.507439,359.836761 C603.057512,357.649324 607.030778,356.225948 611.170145,355.658733 C613.257534,355.374321 615.446024,355.322206 617.404896,356.092238 C619.363769,356.86227 621.044293,358.608521 621.208463,360.693194 C622.934544,360.160255 624.816077,360.614399 626.102756,361.874524 C627.350963,363.136715 628.168298,364.756033 628.439425,366.503974 C628.649393,367.586263 628.859472,368.88306 629.871412,369.337093 C630.696983,369.707513 631.644022,369.308555 632.547151,369.236832 C635.611759,368.993471 638.154793,372.539872 641.166989,371.929178 C644.397515,371.274219 645.190634,366.472603 648.342239,365.510781 C650.152324,364.958372 652.691292,365.630101 653.558052,363.959098 C654.322036,362.48626 652.797795,360.786625 652.954983,359.137442 C653.148529,357.106752 655.562085,356.244819 657.422716,355.378363 C663.837373,352.391194 666.881347,343.822838 663.772958,337.503432 C661.931247,333.759198 658.307462,330.811815 657.638219,326.698542 C657.123315,323.533864 658.380334,319.843513 656.347261,317.352503 C655.313023,316.085315 653.561918,315.385852 652.946493,313.873816 C652.559105,312.922045 652.714808,311.842173 652.506337,310.836756 C652.297866,309.831339 651.414024,308.779656 650.413625,309.040259 C647.509663,309.796731 646.583018,318.699785 645.028251,320.862982 C642.664849,324.151188 637.812979,321.985229 638.557245,317.933983 Z" id="Path" fill="#3F3D56" fill-rule="nonzero"></path>
                <path d="M584.162529,300.371235 C583.161809,300.079554 582.069079,299.792218 581.110233,300.209047 C580.151386,300.625877 579.591424,302.08927 580.36099,302.815398 C586.381469,302.571607 592.438809,302.329513 598.408116,303.179408 C605.285722,304.15862 612.092214,306.584187 619,305.870595 C615.054084,304.660495 611.043042,303.69298 606.9877,302.973072 L600.225153,301.630213 C598.411015,301.235235 596.577956,300.940806 594.73374,300.748173 C590.875744,300.416964 587.955732,301.476849 584.162529,300.371235 Z" id="Path" fill="#3F3D56" fill-rule="nonzero"></path>
                <path d="M590.631949,278.238751 C590.143804,278.197121 589.539229,278.161256 589.286693,278.589926 C589.045418,278.999498 589.321588,279.540629 589.191845,279.999911 C589.014594,280.627346 588.210064,280.787634 587.576184,280.702212 C586.942304,280.616789 586.256756,280.412208 585.695163,280.724372 C585.110129,281.132541 584.859007,281.886066 585.078744,282.574017 C585.308355,283.239001 585.679698,283.843602 586.165952,284.34415 C586.996492,285.413087 587.942824,286.382574 588.986878,287.234096 C591.007797,288.757709 593.745699,289.491941 595.018547,291.703679 C595.198107,292.13235 595.474097,292.511739 595.824117,292.811051 C596.435161,293.206374 597.232066,292.905627 597.889954,292.598599 L600.196092,291.522366 C600.611499,291.369533 600.982341,291.111933 601.274162,290.773502 C601.801031,290.043349 601.477418,289.005206 601.035198,288.218629 C600.592977,287.432052 600.026911,286.618015 600.121814,285.716185 C600.291017,284.108245 602.315203,283.493193 603.14752,282.117444 C603.986466,280.730721 603.44031,278.943979 603.537011,277.316732 C603.650167,275.413787 604.82089,272.938499 602.9373,271.516704 C601.336486,270.308356 599.806425,271.424864 598.657102,272.758905 C596.233412,275.572114 595.087385,278.618762 590.631949,278.238751 Z" id="Path" fill="#3F3D56" fill-rule="nonzero"></path>
                <path d="M604.454449,250.469662 C605.294972,251.989675 607.047209,252.896763 607.963763,254.377054 C608.95723,255.981554 608.84404,258.054635 609.921813,259.609838 C611.027571,261.20544 613.252836,262.052565 613.872969,263.867395 C614.549994,265.84874 613.013882,268.256931 614.238356,269.988146 C614.700055,270.56028 615.394558,270.923398 616.153011,270.989214 C616.911465,271.055031 617.664395,270.817518 618.228743,270.334422 C619.3023,269.230394 619.248709,267.51942 618.10793,266.477263 C617.382947,265.852944 616.341927,265.583156 615.736611,264.853921 C615.421366,264.43308 615.211365,263.950149 615.122433,263.441519 C614.792466,261.974391 614.845322,260.453471 615.27644,259.009937 C615.438415,258.643578 615.479544,258.239574 615.394445,257.850777 C615.121939,257.102639 614.049381,257.04956 613.296619,256.70249 C611.586896,255.91423 611.628388,253.635267 611.927099,251.86058 C611.728223,253.042089 607.27225,251.032559 606.805642,250.363304 C605.878704,249.033797 606.383193,246.469175 606.199692,245 C604.198522,245.910782 603.426784,248.611177 604.454449,250.469662 Z" id="Path" fill="#3F3D56" fill-rule="nonzero"></path>
                <path d="M560.945177,274.427595 C560.144193,273.546706 558.937732,272.625174 557.863878,273.15643 C557.04459,273.561737 556.819222,274.67535 557.140333,275.519485 C557.531518,276.339427 558.13382,277.044836 558.887662,277.565936 C561.125532,279.37909 563.53533,281.015537 565.487649,283.123224 C568.981443,286.895104 570.832242,291.984636 574.631905,295.459416 C575.395663,296.265015 576.406979,296.802703 577.511213,296.990265 C578.618213,297.091435 579.86132,296.395316 579.988567,295.310287 C580.093381,294.416502 579.459132,293.616509 578.839309,292.954177 C577.363324,291.376966 575.747462,289.9252 574.353944,288.277183 C573.710363,287.644153 573.305916,286.814339 573.207448,285.924895 C573.200379,285.037537 574.024064,284.108779 574.899205,284.328528 C573.834862,284.06127 573.045517,282.319298 571.483387,281.991843 C570.177895,281.718197 569.862075,282.512166 568.308409,281.857549 C565.345176,280.609006 563.020327,276.70977 560.945177,274.427595 Z" id="Path" fill="#3F3D56" fill-rule="nonzero"></path>
                <path d="M630.603367,189.013518 C629.758326,188.768083 628.92752,188.478061 628.114608,188.144731 C625.927329,187.503123 623.033328,189.074226 623.324879,191.287649 C623.518593,192.758291 624.919168,193.749804 625.692635,195.025453 C626.839688,196.917199 626.533893,199.316602 625.931122,201.435148 C625.783136,202.091114 625.501698,202.711307 625.103539,203.258857 C624.546876,203.836937 623.88141,204.304744 623.143556,204.636679 C620.189743,206.255344 617.584841,208.417962 615.472859,211.004976 C615.243244,211.243899 615.083291,211.538553 615.009623,211.85832 C614.905309,212.605647 615.67401,213.150039 616.108611,213.773344 C617.074005,215.157933 616.376234,217.021062 616.471672,218.69391 C616.441848,219.17483 616.668777,219.636593 617.07152,219.914502 C617.653389,220.203344 618.342887,219.712713 618.658269,219.154334 C619.704892,217.301324 618.916465,214.326933 620.879888,213.433496 C621.251291,213.264492 621.701551,213.193243 621.949324,212.874412 C622.34242,212.368628 621.963164,211.619729 622.162376,211.015178 C622.461473,210.107489 623.731856,210.066741 624.706792,210.107 C626.386218,210.17563 628.065012,209.957218 629.667569,209.461601 C630.296217,209.315525 630.867195,208.992416 631.309759,208.532307 C631.896694,207.816482 631.844676,206.798668 631.727397,205.888589 C631.139967,201.351435 629.669292,196.966093 627.394752,192.969259 C629.119471,193.184563 630.995895,193.371015 632.484197,192.492643 C633.317586,192.000784 634.316961,190.529903 633.903628,189.52876 C633.249976,187.945571 632.069163,189.278176 630.603367,189.013518 Z" id="Path" fill="#3F3D56" fill-rule="nonzero"></path>
                <path d="M412.115826,214.008195 C412.320028,215.103781 412.520754,216.257381 412.161847,217.312425 C411.802941,218.36747 410.673899,219.249015 409.607766,218.925744 C408.780359,218.67486 408.302413,217.84259 407.714884,217.208067 C404.447569,213.679409 397.075995,215.722383 395.057588,211.356845 C394.233831,209.575149 394.793649,207.440603 394.231778,205.559799 C393.502752,203.323999 391.354742,201.864208 389.008435,202.010009 C387.967973,202.160338 386.955231,202.462767 386.00265,202.90761 C379.621058,205.464385 372.921411,207.140705 366.088032,207.89045 C364.789387,207.969604 363.504813,208.203425 362.261529,208.58696 C359.455688,209.604575 357.538544,212.206853 356.174191,214.862323 C354.809838,217.517793 353.802604,220.392621 351.973418,222.751837 C350.051014,225.231299 347.357158,226.967552 344.844305,228.845558 C343.876292,229.469667 343.070248,230.314796 342.492497,231.311407 C341.947726,232.430251 341.978458,233.731637 342.020744,234.975437 L342.534316,250.081973 C342.600375,252.025046 342.683322,254.037575 343.552638,255.776434 C344.638185,257.947801 346.782646,259.36995 348.270336,261.288098 C349.788548,263.259329 350.579403,265.694735 350.509079,268.182215 C350.477414,269.182272 350.37808,270.365119 351.156637,270.993198 C351.630251,271.30039 352.184444,271.459836 352.74883,271.451284 L373.175613,273.12376 C376.768831,273.417959 380.75095,273.901685 383.096897,276.640313 C384.204072,277.93282 385.093483,279.791518 386.789341,279.930204 C387.516757,279.989682 388.224551,279.690964 388.952113,279.633321 C390.787712,279.487887 392.400263,280.881622 393.417944,282.416773 C394.958215,284.75661 395.657378,287.550861 395.400625,290.340689 C395.233758,292.091878 394.691019,293.794343 394.574011,295.549589 C394.128782,302.228287 399.788285,308.030786 399.897986,314.723424 C399.962515,318.6601 398.094436,322.338289 396.273159,325.828556 C399.212615,330.283308 396.805638,336.215348 397.975903,341.423179 C399.086161,346.363987 403.204157,350.23195 404.230293,355.190923 C404.700048,357.461133 404.727224,360.254862 406.728323,361.424135 C407.606391,361.85228 408.579792,362.047257 409.554949,361.990322 C415.436944,362.060023 421.251876,360.735673 426.524031,358.125617 C428.998434,356.897249 431.562826,355.063486 431.994964,352.33412 C432.343458,350.133062 431.227693,347.671068 432.363204,345.753832 C433.701488,343.494179 437.129881,343.673311 439.098954,341.935994 C442.293404,339.11756 439.802423,333.742398 441.096716,329.682906 C442.260129,326.033918 446.264975,324.095347 448.250148,320.820336 C449.031382,319.41187 449.592006,317.891844 449.912456,316.313298 C450.821885,312.540513 451.387967,308.693099 451.603768,304.818179 C451.65667,302.463855 451.830189,300.113793 452.12364,297.777244 C454.263967,284.47488 467.409695,275.567385 471.677709,262.788246 C472.085309,261.567829 472.276725,259.942248 471.191432,259.251681 C470.547697,258.944441 469.81792,258.868031 469.124545,259.035272 L459.708259,260.22288 C458.538681,260.37039 457.298948,260.50826 456.224861,260.022284 C455.150773,259.536308 454.380981,258.176996 454.950706,257.144597 C456.550009,254.24655 453.260192,250.58436 451.798649,247.614409 C447.862499,239.617324 443.175211,232.01274 437.800059,224.903311 C437.455974,224.537583 437.240503,224.069575 437.186327,223.570269 L439.858778,223.659287 C438.956659,220.42095 437.467907,216.877255 434.323017,215.692658 C432.550884,215.025141 430.588382,215.255956 428.697609,215.359313 C423.281939,215.655285 417.475917,214.837303 412.115826,214.008195 Z" id="Path" fill="#3F3D56" fill-rule="nonzero"></path>
                <path d="M428.209446,140.922128 C429.623659,142.426832 431.208406,144.022186 433.254607,144.284451 C436.868731,144.747723 439.467262,141.003211 441.121697,137.750701 C441.249043,139.47485 442.723058,140.784163 444.44677,140.704241 C445.33888,140.553855 446.190333,140.220334 446.947689,139.724612 C454.108389,135.803892 462.128934,133.726542 470.289,133.67913 C470.126673,132.396392 470.957531,131.197999 472.21395,130.902666 C473.873045,130.573115 475.36754,132.010275 476.167879,133.503173 C476.968218,134.996071 477.467263,136.726464 478.738824,137.843916 C480.010386,138.961368 482.472223,138.912688 482.974478,137.294498 C483.456665,135.740962 481.841318,134.416124 480.499281,133.500215 C479.157244,132.584305 477.742689,130.889094 478.646445,129.537444 C485.502675,128.016856 492.401435,126.490509 499.417152,126.188271 C500.611595,126.229931 501.801791,126.024508 502.913472,125.584819 C503.983388,125.058777 504.833785,123.86468 504.546075,122.705916 C501.414566,123.443458 498.148951,122.209339 496.283671,119.583444 C506.018452,118.778579 516.372428,118.092543 524.99968,122.681939 C526.034954,124.908676 520.758502,126.761306 522.170244,128.769706 C522.620494,129.410257 523.522711,129.485378 524.304531,129.499917 C530.29971,129.611439 536.329491,129.720796 542.256997,128.813937 C544.423158,128.482536 546.611112,128.014696 548.785907,128.28344 C552.4083,128.731043 555.506521,131.152641 559.070272,131.942173 C560.520755,132.263529 562.147128,132.274412 563.369833,131.429146 C564.592539,130.583881 565.118114,128.659201 564.11614,127.560372 C567.471549,124.265476 573.040494,125.082096 577.467099,126.65953 C581.893705,128.236965 586.087267,130.780839 590.772402,131.132454 C594.132066,131.384595 597.538414,130.479164 600.85817,131.054668 C602.944313,131.416323 604.885852,132.34617 606.924761,132.917444 C610.781016,133.997909 614.860283,133.76983 618.864146,133.821829 C629.079953,133.959722 639.184142,135.971338 648.676483,139.757087 C649.911305,140.159888 651.042704,140.829621 651.990648,141.718911 C652.87388,142.666554 653.324326,144.139131 652.730702,145.291263 L642.921977,143.85533 C643.846149,145.678122 646.23704,145.988746 648.17868,146.61757 C650.12032,147.246394 652.133501,149.394714 650.96663,151.071944 C648.862848,150.400807 646.956395,152.508198 645.893676,154.447169 C644.830956,156.38614 643.535906,158.708286 641.331212,158.8264 C639.356968,158.932174 636.9693,157.247908 635.682452,158.751724 C637.460284,160.99881 638.982673,163.437379 640.221438,166.022294 C641.492787,168.675997 642.398305,172.019753 640.679946,174.40734 C640.409603,174.833564 639.999549,175.152157 639.520232,175.308384 C638.116854,175.664336 637.205026,173.944225 636.198584,172.901663 C634.930374,171.587877 633.012452,171.21576 631.295013,170.599614 C629.577575,169.983467 627.768402,168.7714 627.634026,166.948648 C627.550421,165.814575 628.148037,164.760354 628.588227,163.712207 C629.32809,161.945497 629.651663,160.031729 629.533833,158.119446 C629.437473,156.581007 629.006916,154.980692 627.904165,153.905783 C626.801414,152.830875 624.897509,152.489879 623.713668,153.474385 C623.161276,153.933754 622.718582,154.668549 622.001237,154.696025 C620.73375,154.744609 619.760581,152.530595 618.74084,153.286364 C618.860487,154.091645 618.693834,154.913443 618.270016,155.608093 C615.227017,158.259693 610.552251,157.137916 606.629243,158.074602 C604.763792,158.609496 602.977768,159.39097 601.318289,160.398407 C600.697502,160.664363 600.169261,161.108607 599.800233,161.675071 C599.310541,162.628513 599.850442,163.849619 600.713588,164.483567 C601.628941,165.04604 602.657553,165.397804 603.725128,165.513451 C608.50775,166.420975 613.360135,167.825855 617.136019,170.903657 C620.911902,173.981459 623.388037,179.069241 622.193176,183.797 L612.761621,174.767651 C613.119845,178.558878 613.323133,182.360549 613.371486,186.172662 C613.432474,186.916991 613.330441,187.665683 613.072521,188.366384 C612.400147,189.854315 610.57781,190.355019 608.980916,190.683484 C608.08254,190.854492 607.299853,191.401838 606.829854,192.187759 C606.359855,192.97368 606.247307,193.923323 606.520538,194.797666 C607.087907,196.650549 608.502575,198.095144 609.797911,199.534576 C611.093247,200.974008 612.367963,202.609982 612.537538,204.54064 C612.707112,206.471298 611.253306,208.647454 609.323544,208.51322 C607.860638,208.411451 606.775301,207.099346 606.151323,205.769755 C605.527345,204.440164 605.156063,202.959032 604.218513,201.829296 C601.380803,198.409852 595.006933,199.874886 592.464786,196.229488 C591.147266,197.726873 590.697435,199.800949 591.275914,201.71112 C592.458566,200.969339 594.077596,201.658548 594.966155,202.73637 C595.854714,203.814192 596.273897,205.196034 596.971701,206.4066 C597.913316,208.040122 599.411864,209.48826 599.543298,211.370058 C599.508452,212.08163 599.520424,212.794728 599.579136,213.504723 C599.812606,214.64492 600.774491,215.463621 601.441403,216.416664 C602.993214,218.634244 602.916536,221.680667 601.916326,224.196779 C600.916115,226.712891 599.119163,228.815343 597.339311,230.853722 C594.23057,234.414027 591.058377,237.953459 587.372857,240.910104 C586.321219,241.753778 585.198882,242.583346 584.543905,243.762847 C583.888928,244.942348 583.855341,246.597952 584.861833,247.495183 C584.141664,247.53132 582.850122,247.886209 582.129953,247.922346 C581.876758,245.027804 581.821729,242.119286 581.965252,239.21721 C579.12323,237.849963 576.063188,241.511514 576.429928,244.648784 C576.796667,247.786053 579.061457,250.30365 580.673913,253.017941 C581.853072,255.002825 582.729399,257.317253 582.33573,259.593211 C581.942061,261.869168 579.914329,263.968758 577.617587,263.768025 C573.964352,263.448745 572.436254,258.194118 568.818616,257.592747 C568.499549,257.517694 568.164635,257.551008 567.866526,257.687452 C567.32951,257.982738 567.236165,258.702673 567.206014,259.31567 C567.058008,262.324296 566.929863,265.452516 568.102079,268.226404 C569.816952,272.284437 574.247122,275.692706 573.317801,280 C568.311561,277.668445 565.708673,272.043512 564.526875,266.640477 C563.345077,261.237441 563.148113,255.565285 561.029657,250.457491 C559.421041,252.523244 556.039904,250.815546 554.57015,248.648418 C553.176747,246.593863 552.318845,244.217188 550.966962,242.134972 C549.615078,240.052756 547.544109,238.188265 545.067486,238.073773 C542.470874,237.953712 540.218901,239.739022 538.238471,241.425892 C536.609965,242.813005 534.937981,244.254703 533.986065,246.172161 C532.600836,248.962405 532.963192,252.2518 532.896439,255.367438 C532.824257,258.735728 532.111784,262.289554 529.820487,264.755399 C527.52919,267.221245 523.299958,268.080122 520.77266,265.857772 C519.453235,264.697546 518.814392,262.964099 518.245355,261.300188 C515.502423,253.279484 513.218031,245.108651 511.403294,236.827447 C510.978632,238.717552 509.322102,241.153712 507.739607,240.040332 C507.384515,239.741029 507.096833,239.369659 506.895559,238.950744 C503.943682,233.938099 498.477121,230.931452 492.953844,229.12869 C487.430567,227.325927 481.619379,226.485014 476.157353,224.503736 C473.096474,223.393001 470.172951,221.933946 467.444177,220.155214 C466.027035,222.241285 465.866226,224.938102 467.025392,227.178385 C468.236994,229.327819 470.978732,230.571457 473.325689,229.820148 C474.538509,229.431895 475.562729,228.588333 476.766135,228.171699 C477.96954,227.755064 479.584753,227.959655 480.110973,229.121293 C480.614666,230.233172 479.853336,231.578236 480.231,232.73917 C480.806206,234.507337 483.467881,234.643562 484.39861,236.252584 C485.09111,237.449741 484.521316,239.03947 483.532557,240.005488 C482.543798,240.971506 481.224581,241.501334 480.017606,242.173792 C476.101345,244.355691 473.316415,248.080361 469.893838,250.978229 C466.471261,253.876098 461.642397,255.99183 457.563473,254.133008 C458.535772,249.200242 452.671102,245.578743 451.592203,240.668279 C451.237084,239.052041 451.421175,237.335158 450.914187,235.760109 C450.180158,233.479686 448.16084,231.911757 446.504277,230.183608 C442.445055,225.903003 440.284361,220.160697 440.512809,214.260553 C440.602326,212.231129 440.97446,210.168649 440.513006,208.190554 C440.051551,206.212459 438.416949,204.297881 436.3914,204.38753 C431.765081,204.592262 425.93691,204.937043 423.509682,200.985746 C422.643399,199.575511 422.266414,197.510062 423.5189,196.429619 C424.402452,195.667438 425.706674,195.739235 426.866989,195.853598 L437.290755,196.880968 C439.728722,197.121257 442.364107,197.31956 444.456178,196.042581 C446.54825,194.765601 447.454761,191.375938 445.517584,189.873574 C444.102159,188.775836 441.566232,188.83536 441.154785,187.090012 C440.812117,185.636412 442.417971,183.987124 441.55066,182.772335 C440.928776,181.901303 439.530647,182.142954 438.683427,182.795924 C437.836208,183.448894 437.221509,184.40381 436.273332,184.898203 C434.610032,185.7655 432.622629,184.940083 430.833116,184.379107 C429.043603,183.818131 426.644567,183.770491 425.776582,185.435741 C424.805855,187.298118 426.637611,189.738479 425.674227,191.604658 C424.400526,194.071983 420.087111,192.667401 418.298305,194.789691 C416.24567,197.225001 419.695064,200.856394 419.002829,203.967532 C417.205059,204.859595 415.071669,204.739507 413.384943,203.651301 C411.723331,202.518965 410.817359,200.563251 411.026815,198.56083 C411.198163,197.161287 411.926422,195.732654 411.438465,194.410088 C411.043942,193.340771 409.972359,192.704179 408.976442,192.152765 L398.846887,186.544537 C397.906429,188.292483 399.095379,190.459466 400.58234,191.772341 C402.069301,193.085216 403.931782,194.074025 404.908594,195.801841 C406.191262,198.28678 405.320712,201.342716 402.922151,202.774954 C402.629118,202.977608 402.262281,203.04172 401.918072,202.950438 C401.591561,202.758206 401.356648,202.441707 401.266879,202.073085 C399.479611,197.490595 396.796228,192.972451 392.506143,190.578632 C388.216059,188.184814 382.051648,188.676991 379.238397,192.7095 C378.570188,193.667301 378.121718,194.759066 377.539619,195.771705 C374.447011,201.151719 367.81698,203.699356 361.622598,203.532944 C361.016626,203.566523 360.413817,203.424601 359.886191,203.124134 C358.885088,202.431393 358.930171,200.96142 359.083427,199.752131 L359.733643,194.620186 C359.864213,193.589654 360.053413,192.450582 360.867494,191.807286 C362.015038,190.900483 363.670433,191.472741 365.131818,191.451655 C367.399812,191.345276 369.359594,189.829901 370.037101,187.65871 C370.638754,185.47738 369.986096,183.141581 368.341494,181.590297 C367.671691,180.959982 366.772668,180.168217 367.126446,179.318502 C367.412208,178.842709 367.893473,178.518008 368.440958,178.431626 C371.065987,177.667865 373.839689,177.467678 376.420952,176.566499 C379.002216,175.66532 381.505482,173.821538 382.116779,171.152192 C382.304115,170.33416 382.389404,169.34322 383.122788,168.937649 C383.490775,168.781983 383.885954,168.701088 384.285393,168.69966 C387.186106,168.286192 389.291758,165.722189 389.138047,162.790695 C390.375113,161.924642 392.108275,162.561711 393.305046,163.482857 C394.501816,164.404003 395.558399,165.620997 397.014603,166.018075 C399.728362,166.75809 402.350908,164.350728 405.163357,164.339569 C406.346076,164.334878 407.570426,164.753863 408.683108,164.352117 C409.811093,163.944842 410.484702,162.819836 411.350424,161.988705 C412.216147,161.157573 413.735173,160.650637 414.534569,161.545978 L413.853842,156.494058 C416.627403,157.196072 419.568439,156.663334 421.92109,155.032758 L413.123242,152.054414 C412.816908,151.977787 412.534269,151.826376 412.300544,151.61369 C411.66092,150.92362 412.296232,149.848273 412.816351,149.063842 C414.060607,147.187275 414.269478,144.096115 412.223332,143.161858 C410.826696,142.524164 409.223587,143.289624 407.883061,144.038509 L401.461737,147.625783 C401.257678,148.8487 402.750298,149.541778 403.675234,150.365519 C404.820668,151.385638 405.222467,153.006255 404.686612,154.444814 C404.150757,155.883374 402.787467,156.843983 401.25504,156.862788 C402.111582,157.978503 402.415457,159.423839 402.080916,160.790935 L397.760489,161.102256 C397.275602,161.199998 396.771814,161.101481 396.359199,160.828231 C395.897115,160.417052 395.959782,159.696521 395.852683,159.086691 C395.594193,157.614805 394.155706,156.583194 392.687624,156.31868 C391.219542,156.054166 389.71766,156.393216 388.263933,156.727997 C387.64665,156.950554 386.968776,156.934881 386.362397,156.68403 C386.014688,156.457717 385.750474,156.123591 385.610112,155.732687 C384.972778,154.184404 385.568502,152.364531 386.592111,151.040475 C387.61572,149.716418 389.016976,148.748494 390.275452,147.646211 C393.284973,145.000549 395.496112,141.564408 396.65909,137.725948 C399.037496,136.727527 401.499815,135.370972 403.878193,134.372529 C407.545029,132.51246 411.657085,131.714215 415.751953,132.06756 L423.806587,132.221705 C426.191303,132.267342 428.640525,132.32582 430.845618,133.236701 C433.05071,134.147583 434.988269,136.117691 435.140508,138.502544 C435.233854,139.051386 435.038724,139.60973 434.624044,139.980346 C434.312635,140.150618 433.959917,140.230274 433.605713,140.21032 C431.381679,140.28863 430.433429,140.843846 428.209446,140.922128 Z" id="Path" fill="#3F3D56" fill-rule="nonzero"></path>
                <path d="M363.689763,166.76233 C364.328258,166.133154 364.575174,165.185131 364.329423,164.306385 C362.77489,163.68191 361.014713,164.027904 359.785973,165.199482 C359.311057,165.699541 358.901769,166.262799 358.56876,166.8746 C357.515358,168.663657 356.583633,170.800643 357.194117,172.800484 C357.294629,173.241061 357.561412,173.620906 357.934218,173.854241 C358.207821,173.968559 358.502802,174.016658 358.796879,173.994906 C359.957338,173.993336 361.116654,173.919057 362.268539,173.772472 C362.975927,173.682437 363.797545,173.474486 364.070927,172.789381 C364.430289,171.888803 363.560492,170.869611 363.814056,169.930827 C363.980874,169.511018 364.233673,169.134152 364.554816,168.826521 C364.877833,168.512459 365.039726,168.058258 364.991678,167.600872 C364.889349,167.160384 364.241425,166.910492 364.008188,167.293196" id="Path" fill="#3F3D56" fill-rule="nonzero"></path>
                <path d="M369.577889,158.248844 C368.496585,158.009736 367.381989,157.942327 366.278121,158.049281 C366.033985,158.042278 365.792017,158.095237 365.575002,158.203168 C365.36473,158.35251 365.212241,158.56518 365.141712,158.807458 C364.658252,160.301948 365.448238,161.903373 366.956602,162.486524 C367.353038,162.574302 367.732775,162.721267 368.082041,162.922089 C369.015313,163.619447 368.420359,165.044849 368.597031,166.169661 C368.795415,167.432726 370.064907,168.492932 369.832157,169.750546 C369.648793,170.741331 368.550001,171.525865 368.726896,172.517763 C368.912183,173.556623 370.280995,173.868789 371.372075,173.95198 C372.004409,174.058619 372.655275,173.986778 373.246161,173.745125 C373.83842,173.355102 374.259651,172.7676 374.428539,172.096032 C374.875226,170.815546 375.062926,169.464473 374.98148,168.115935 C374.976672,167.502594 374.816718,166.899624 374.515465,166.359223 C374.186905,165.931108 373.822698,165.529465 373.426454,165.158275 C371.336045,162.816491 373.537115,159.323431 369.577889,158.248844 Z" id="Path" fill="#3F3D56" fill-rule="nonzero"></path>
                <path d="M633,341 C633,341 479.716936,252.86111 413.726492,269.561112 C413.726492,269.561112 273.873065,284.6375 257.664884,317.805552 C257.664884,317.805552 213.208165,178.63889 197,174" id="Path" stroke="#292E34" stroke-width="2" opacity="0.8"></path>
                <path d="M257.664896,317.933698 C283.366441,249.65746 514.911853,174 514.911853,174 C482.032411,182.303865 413.726506,269.955801 413.726506,269.955801 C413.726506,269.955801 269.242157,165.234804 197,174.92265 C197,174.92265 515.143398,185.302483 633,341" id="Path" stroke="#292E34" stroke-width="2" opacity="0.8"></path>
                <circle id="Oval" fill="#292E34" fill-rule="nonzero" cx="197" cy="174" r="7"></circle>
                <circle id="Oval" fill="#292E34" fill-rule="nonzero" cx="258" cy="317" r="7"></circle>
                <circle id="Oval" fill="#292E34" fill-rule="nonzero" cx="515" cy="174" r="7"></circle>
                <circle id="Oval" fill="#292E34" fill-rule="nonzero" cx="634" cy="341" r="7"></circle>
                <circle id="Oval" fill="#292E34" fill-rule="nonzero" cx="414" cy="270" r="7"></circle>
            </g>
        </g>
    </g>
</svg>