<?xml version="1.0" encoding="UTF-8"?>
<svg width="105px" height="132px" viewBox="0 0 105 132" version="1.1" xmlns="http://www.w3.org/2000/svg" xmlns:xlink="http://www.w3.org/1999/xlink">
    <!-- Generator: Sketch 52.4 (67378) - http://www.bohemiancoding.com/sketch -->
    <title>report</title>
    <desc>Created with Sketch.</desc>
    <g id="Elementos" stroke="none" stroke-width="1" fill="none" fill-rule="evenodd">
        <g id="Amazon/Servicios" transform="translate(-717.000000, -582.000000)" fill-rule="nonzero">
            <g id="report" transform="translate(717.000000, 582.000000)">
                <path d="M101.688665,32.9869335 L87.6200049,32.9869335 L87.6200049,111.517727 C87.6200049,112.495705 86.7986895,113.318896 85.8229389,113.318896 L30.6273399,113.318896 L30.6273399,128.706232 C30.6273399,129.684211 31.4486553,130.507401 32.4244059,130.507401 L101.688665,130.507401 C102.663413,130.507401 103.485731,129.684211 103.485731,128.706232 L103.485731,34.7881031 C103.485731,33.8101244 102.663413,32.9869335 101.688665,32.9869335 Z" id="Path" fill="#E9E9EA"></path>
                <path d="M85.8229389,15.7984285 L32.1676822,15.7984285 C30.8840636,15.7984285 29.7027335,16.3130484 28.7791296,17.1885051 L16.1475208,29.8479532 C15.2750611,30.7224051 14.7616137,31.9576938 14.7616137,33.2442435 L14.7616137,111.569993 C14.7616137,112.546967 15.5829291,113.371162 16.5586797,113.371162 L85.8229389,113.371162 C86.7986895,113.371162 87.6200049,112.546967 87.6200049,111.569993 L87.6200049,17.5995981 C87.6200049,16.6226241 86.8498338,15.8506943 85.8229389,15.7984285 Z" id="Path" fill="#E9E9EA"></path>
                <path d="M26.5197604,36.4867507 L76.6831736,36.4867507 C77.299912,36.4867507 77.8133594,37.0013705 77.8133594,37.6185125 L77.8133594,69.6284721 C77.8133594,70.245614 77.299912,70.7602339 76.6831736,70.7602339 L26.5197604,70.7602339 C25.903022,70.7602339 25.3895745,70.245614 25.3895745,69.6284721 L25.3895745,37.6697735 C25.3384303,37.0013705 25.8518777,36.4867507 26.5197604,36.4867507 Z" id="Path" fill="#60BAE2"></path>
                <polygon id="Path" fill="#FFAE2C" points="31.8076675 59.2838086 37.4555892 59.2838086 37.4555892 64.7395832 31.8076675 64.7395832"></polygon>
                <polygon id="Path" fill="#FCD770" points="37.4555892 53.8290388 43.103511 53.8290388 43.103511 64.7908442 37.4555892 64.7908442"></polygon>
                <polygon id="Path" fill="#FFAE2C" points="43.103511 48.374269 48.7514327 48.374269 48.7514327 64.7908442 43.103511 64.7908442"></polygon>
                <polygon id="Path" fill="#FCD770" points="48.7514327 42.8682382 54.3993545 42.8682382 54.3993545 64.7395832 48.7514327 64.7395832"></polygon>
                <polygon id="Path" fill="#FFAE2C" points="54.3993545 53.8290388 60.0472763 53.8290388 60.0472763 64.7908442 54.3993545 64.7908442"></polygon>
                <polygon id="Path" fill="#FCD770" points="60.0472763 48.374269 65.695198 48.374269 65.695198 64.7908442 60.0472763 64.7908442"></polygon>
                <polygon id="Path" fill="#FFAE2C" points="65.695198 42.8682382 71.3431198 42.8682382 71.3431198 64.7395832 65.695198 64.7395832"></polygon>
                <path d="M87.6200049,89.7499086 L92.292176,89.7499086 C92.907912,89.7499086 93.4213594,89.2352887 93.4213594,88.6171419 L93.4213594,56.6081871 C93.4213594,55.9910452 92.907912,55.4764253 92.292176,55.4764253 L87.6200049,55.4764253 L87.6200049,89.7499086 Z" id="Path" fill="#60BAE2"></path>
                <path d="M77.9667922,88.9779787 C77.9667922,95.4579678 72.726018,100.710709 66.2607922,100.710709 C59.7945636,100.710709 54.5537897,95.4579678 54.5537897,88.9779787 C54.5537897,82.4979899 59.7945636,77.2442435 66.2607922,77.2442435 C72.726018,77.2442435 77.9667922,82.4979899 77.9667922,88.9779787 Z" id="Path" fill="#60BAE2"></path>
                <path d="M66.2607922,77.2442435 L66.2607922,88.9779787 L77.9667922,88.9779787 C77.9667922,82.4939692 72.7300294,77.2442435 66.2607922,77.2442435 Z" id="Path" fill="#F75C64"></path>
                <path d="M66.2607922,88.9779787 L73.294621,98.3949197 C76.2730171,96.1826571 77.9667922,92.68284 77.9667922,88.9779787 L66.2607922,88.9779787 Z" id="Path" fill="#FFAE2C"></path>
                <path d="M28.3679707,31.237025 C29.3437213,31.237025 30.1650367,30.4138341 30.1650367,29.4358554 L30.1650367,16.2617873 C29.6515892,16.5190973 29.1892861,16.8276683 28.7791296,17.2397661 L22.4633252,23.5177267 L16.1475208,29.8479532 C15.7373643,30.260051 15.4294964,30.7224051 15.1727726,31.237025 L28.3679707,31.237025 Z" id="Path" fill="#FFAE2C"></path>
                <path d="M96.0407433,4.63157895 C93.7813741,4.16822009 91.9843081,2.41831153 91.5220049,0.102522058 C91.5220049,0.0512610292 91.4708606,0 91.4197164,0 C91.3675697,0 91.3675697,0.0512610292 91.3164254,0.102522058 C90.8541222,2.3670505 89.109203,4.16822009 86.7986895,4.63157895 C86.7465428,4.63157895 86.6953985,4.68283998 86.6953985,4.73410101 C86.6953985,4.78636683 86.7465428,4.78636683 86.7986895,4.83762786 C89.0570562,5.30098671 90.8541222,7.04989048 91.3164254,9.36567995 C91.3164254,9.41794578 91.3675697,9.46920681 91.4197164,9.46920681 C91.4708606,9.46920681 91.4708606,9.41794578 91.5220049,9.36567995 C91.9843081,7.1021563 93.7302299,5.30098671 96.0407433,4.83762786 C96.0918875,4.83762786 96.1430318,4.78636683 96.0918875,4.73410101 C96.0918875,4.68283998 96.0407433,4.68283998 96.0407433,4.63157895 Z" id="Path" fill="#F75C64"></path>
                <path d="M5.77628362,110.128655 L1.30969196,110.128655 C0.590665049,110.128655 0.0260733741,109.562774 0.0260733741,108.842105 C0.0260733741,108.121436 0.590665049,107.555556 1.30969196,107.555556 L5.77628362,107.555556 C6.49531053,107.555556 7.0599022,108.121436 7.0599022,108.842105 C7.0599022,109.562774 6.49531053,110.128655 5.77628362,110.128655 Z" id="Path" fill="#6DCC6D"></path>
                <path d="M3.51691441,112.341922 C2.79788751,112.341922 2.23329583,111.775037 2.23329583,111.055373 L2.23329583,106.577577 C2.23329583,105.856908 2.79788751,105.291027 3.51691441,105.291027 C4.23594132,105.291027 4.800533,105.856908 4.800533,106.577577 L4.800533,111.055373 C4.800533,111.775037 4.23594132,112.341922 3.51691441,112.341922 Z" id="Path" fill="#6DCC6D"></path>
                <path d="M100.456191,20.5335343 C100.096176,20.5335343 99.7883081,20.3787464 99.5315843,20.1726975 C99.4804401,20.1214365 99.4292959,20.0701754 99.3781516,19.9676534 C99.3260049,19.9153876 99.2748606,19.8128655 99.2748606,19.7616045 C99.2237164,19.6580776 99.2237164,19.6068166 99.2237164,19.5042945 C99.2237164,19.4007677 99.1725721,19.3495066 99.1725721,19.2469846 C99.1725721,19.1434577 99.1725721,19.0921967 99.2237164,18.9896746 C99.2237164,18.8861478 99.2748606,18.8348868 99.2748606,18.7323647 C99.3260049,18.6288378 99.3260049,18.5775768 99.3781516,18.5263158 C99.4292959,18.4750548 99.4804401,18.3715279 99.5315843,18.3202669 C99.891599,17.9604349 100.456191,17.856908 100.918494,18.0629569 C100.969638,18.114218 101.071927,18.114218 101.123071,18.1664838 C101.175218,18.2177448 101.277506,18.2690058 101.32865,18.3202669 C101.379795,18.3715279 101.431941,18.4237937 101.483086,18.5263158 C101.53423,18.5775768 101.585374,18.6811037 101.585374,18.7323647 C101.636518,18.7836257 101.636518,18.8861478 101.636518,18.9896746 C101.636518,19.0921967 101.636518,19.1434577 101.688665,19.2469846 C101.688665,19.3495066 101.688665,19.4007677 101.636518,19.5042945 C101.636518,19.6068166 101.585374,19.6580776 101.585374,19.7616045 C101.53423,19.8641265 101.53423,19.9153876 101.483086,19.9676534 C101.431941,20.0189144 101.379795,20.1214365 101.32865,20.1726975 C101.277506,20.2249633 101.226362,20.2762244 101.123071,20.3274854 C101.071927,20.3787464 100.969638,20.4300074 100.918494,20.4300074 C100.815203,20.4822733 100.764059,20.4822733 100.66177,20.4822733 C100.609623,20.5335343 100.507335,20.5335343 100.456191,20.5335343 Z" id="Path" fill="#FFAE2C"></path>
                <path d="M14.7616137,125.7733 C14.4026015,125.7733 14.093731,125.618512 13.8370073,125.412464 C13.7858631,125.361203 13.7347188,125.309942 13.6835746,125.207419 C13.6324303,125.155154 13.5802836,125.052632 13.5802836,125.001371 C13.5291394,124.897844 13.5291394,124.846583 13.5291394,124.744061 C13.5291394,124.640534 13.4779951,124.589273 13.5291394,124.486751 C13.5291394,124.383224 13.5291394,124.331963 13.5291394,124.229441 C13.5291394,124.125914 13.5802836,124.074653 13.5802836,123.972131 C13.6324303,123.868604 13.6324303,123.817343 13.6835746,123.766082 C13.7347188,123.714821 13.7858631,123.611294 13.8370073,123.560033 C14.197022,123.200201 14.7616137,123.096674 15.2239169,123.302723 C15.2750611,123.353984 15.3773496,123.353984 15.4294964,123.40625 C15.4806406,123.457511 15.5829291,123.508772 15.6340733,123.560033 C15.6862201,123.611294 15.7373643,123.66356 15.7885086,123.766082 C15.8396528,123.817343 15.890797,123.92087 15.890797,123.972131 C15.9429438,124.023392 15.9429438,124.125914 15.9429438,124.229441 L15.9429438,124.486751 L15.9429438,124.744061 C15.9429438,124.846583 15.890797,124.897844 15.890797,125.001371 C15.8396528,125.103893 15.8396528,125.155154 15.7885086,125.207419 C15.7373643,125.25868 15.6862201,125.361203 15.6340733,125.412464 C15.5829291,125.464729 15.5317848,125.51599 15.4294964,125.567251 C15.3773496,125.618512 15.2750611,125.669774 15.2239169,125.669774 C15.1206259,125.722039 15.0694817,125.722039 14.9671932,125.722039 C14.9160489,125.7733 14.8639022,125.7733 14.7616137,125.7733 Z" id="Path" fill="#60BAE2"></path>
                <g id="Group" transform="translate(13.349633, 14.409357)" fill="#231F20">
                    <path d="M82.5366748,26.862756 L78.0700832,26.862756 C77.3510562,26.862756 76.7864646,26.2968751 76.7864646,25.5762063 C76.7864646,24.8565423 77.3510562,24.2896566 78.0700832,24.2896566 L82.5878191,24.2896566 C83.306846,24.2896566 83.8714376,24.8565423 83.8714376,25.5762063 C83.8714376,26.2968751 83.2557017,26.862756 82.5366748,26.862756 Z" id="Path"></path>
                    <path d="M72.4733056,100.196089 L3.20904645,100.196089 C1.51426892,100.196089 0.128361858,98.8070175 0.128361858,97.10837 L0.128361858,18.8348868 C0.128361858,17.2397661 0.744097775,15.6959064 1.92542787,14.5641446 L14.50489,1.95595747 C15.6340733,0.823190854 17.1744156,0.154787883 18.8180489,0.154787883 L72.5244499,0.154787883 C74.2192274,0.154787883 75.6051345,1.54385965 75.6051345,3.24250718 L75.6051345,97.1606358 C75.5539902,98.8582786 74.2192274,100.196089 72.4733056,100.196089 Z M18.8180489,2.7278873 C17.8934425,2.7278873 17.0209829,3.0877193 16.3531002,3.75712706 L3.72249389,16.3653142 C3.05461122,17.0337172 2.69559902,17.9091738 2.69559902,18.8348868 L2.69559902,97.1606358 C2.69559902,97.4179458 2.9011785,97.6752557 3.20904645,97.6752557 L72.4733056,97.6752557 C72.7300294,97.6752557 72.9867531,97.4692068 72.9867531,97.1606358 L72.9867531,3.19024136 C72.9867531,2.93293142 72.7811736,2.67562147 72.4733056,2.67562147 L18.8180489,2.7278873 Z" id="Shape"></path>
                    <path d="M15.0183374,18.114218 L1.87428363,18.114218 C1.15525672,18.114218 0.590665049,17.5483371 0.590665049,16.8276683 C0.590665049,16.6226241 0.641809291,16.4678363 0.692953533,16.3130484 C1.00082149,15.6446454 1.41198044,15.0264987 1.92542787,14.5118788 L14.50489,1.90369165 C15.0183374,1.38907177 15.6340733,0.977978737 16.301956,0.669407766 C16.9698387,0.359832 17.6878631,0.669407766 17.9967335,1.28654971 C18.099022,1.44133759 18.099022,1.64638171 18.099022,1.85243062 L18.099022,15.0264987 C18.099022,16.7251462 16.7131149,18.114218 15.0183374,18.114218 Z M4.54380928,15.5411185 L15.0183374,15.5411185 C15.2750611,15.5411185 15.5317848,15.3360744 15.5317848,15.0264987 L15.5317848,4.52905689 L4.54380928,15.5411185 Z" id="Shape"></path>
                    <path d="M34.4270514,75.8551717 L12.0399413,75.8551717 C11.3219169,75.8551717 10.7563227,75.2892908 10.7563227,74.568622 C10.7563227,73.8479532 11.3219169,73.2820723 12.0399413,73.2820723 L34.4270514,73.2820723 C35.1450758,73.2820723 35.71067,73.8479532 35.71067,74.568622 C35.71067,75.2892908 35.1450758,75.8551717 34.4270514,75.8551717 Z" id="Path"></path>
                    <path d="M34.4270514,69.9883041 L12.0399413,69.9883041 C11.3219169,69.9883041 10.7563227,69.4224232 10.7563227,68.7017544 C10.7563227,67.9810856 11.3219169,67.4152047 12.0399413,67.4152047 L34.4270514,67.4152047 C35.1450758,67.4152047 35.71067,67.9810856 35.71067,68.7017544 C35.71067,69.4224232 35.1450758,69.9883041 34.4270514,69.9883041 Z" id="Path"></path>
                    <path d="M34.4270514,64.1214365 L12.0399413,64.1214365 C11.3219169,64.1214365 10.7563227,63.5555556 10.7563227,62.8348868 C10.7563227,62.114218 11.3219169,61.5483371 12.0399413,61.5483371 L34.4270514,61.5483371 C35.1450758,61.5483371 35.71067,62.114218 35.71067,62.8348868 C35.71067,63.5555556 35.1450758,64.1214365 34.4270514,64.1214365 Z" id="Path"></path>
                    <path d="M34.4270514,87.5879022 L12.0399413,87.5879022 C11.3219169,87.5879022 10.7563227,87.0220213 10.7563227,86.3013525 C10.7563227,85.5816885 11.3219169,85.0148028 12.0399413,85.0148028 L34.4270514,85.0148028 C35.1450758,85.0148028 35.71067,85.5816885 35.71067,86.3013525 C35.71067,87.0220213 35.1450758,87.5879022 34.4270514,87.5879022 Z" id="Path"></path>
                    <path d="M34.4270514,100.196089 L12.0399413,100.196089 C11.3219169,100.196089 10.7563227,99.6302084 10.7563227,98.9095396 C10.7563227,98.1898756 11.3219169,97.6229899 12.0399413,97.6229899 L34.4270514,97.6229899 C35.1450758,97.6229899 35.71067,98.1898756 35.71067,98.9095396 C35.71067,99.6302084 35.1450758,100.196089 34.4270514,100.196089 Z" id="Path"></path>
                    <path d="M34.4270514,81.7220393 L12.0399413,81.7220393 C11.3219169,81.7220393 10.7563227,81.1551536 10.7563227,80.4354896 C10.7563227,79.7148208 11.3219169,79.1489399 12.0399413,79.1489399 L34.4270514,79.1489399 C35.1450758,79.1489399 35.71067,79.7148208 35.71067,80.4354896 C35.71067,81.1551536 35.1450758,81.7220393 34.4270514,81.7220393 Z" id="Path"></path>
                    <path d="M80.1238729,94.2779607 L74.3215159,94.2779607 C73.602489,94.2779607 73.0378973,93.7120797 73.0378973,92.9914109 C73.0378973,92.2717469 73.602489,91.7048612 74.3215159,91.7048612 L80.1238729,91.7048612 C80.8418973,91.7048612 81.4074915,92.2717469 81.4074915,92.9914109 C81.4074915,93.7120797 80.8418973,94.2779607 80.1238729,94.2779607 Z" id="Path"></path>
                    <path d="M80.1238729,88.4120978 L74.3215159,88.4120978 C73.602489,88.4120978 73.0378973,87.8452121 73.0378973,87.1255481 C73.0378973,86.4048793 73.602489,85.8389984 74.3215159,85.8389984 L80.1238729,85.8389984 C80.8418973,85.8389984 81.4074915,86.4048793 81.4074915,87.1255481 C81.4074915,87.8452121 80.8418973,88.4120978 80.1238729,88.4120978 Z" id="Path"></path>
                    <path d="M80.1238729,82.5452302 L74.3215159,82.5452302 C73.602489,82.5452302 73.0378973,81.9793493 73.0378973,81.2586805 C73.0378973,80.5380117 73.602489,79.9721308 74.3215159,79.9721308 L80.1238729,79.9721308 C80.8418973,79.9721308 81.4074915,80.5380117 81.4074915,81.2586805 C81.4074915,81.9793493 80.8418973,82.5452302 80.1238729,82.5452302 Z" id="Path"></path>
                    <path d="M80.1238729,106.011696 L57.7367628,106.011696 C57.0187384,106.011696 56.4531442,105.445815 56.4531442,104.725146 C56.4531442,104.004477 57.0187384,103.438596 57.7367628,103.438596 L80.1238729,103.438596 C80.8418973,103.438596 81.4074915,104.004477 81.4074915,104.725146 C81.4074915,105.445815 80.8418973,106.011696 80.1238729,106.011696 Z" id="Path"></path>
                    <path d="M80.1238729,100.196089 L72.5244499,100.196089 C71.805423,100.196089 71.2408313,99.6302084 71.2408313,98.9095396 C71.2408313,98.1898756 71.805423,97.6229899 72.5244499,97.6229899 L80.1238729,97.6229899 C80.8418973,97.6229899 81.4074915,98.1898756 81.4074915,98.9095396 C81.4074915,99.6302084 80.8418973,100.196089 80.1238729,100.196089 Z" id="Path"></path>
                    <path d="M50.1894866,106.011696 L27.803379,106.011696 C27.0843521,106.011696 26.5197604,105.445815 26.5197604,104.725146 C26.5197604,104.004477 27.0843521,103.438596 27.803379,103.438596 L50.1894866,103.438596 C50.9085135,103.438596 51.4731051,104.004477 51.4731051,104.725146 C51.4731051,105.445815 50.9085135,106.011696 50.1894866,106.011696 Z" id="Path"></path>
                    <path d="M66.7220929,9.67525572 L62.204357,9.67525572 C61.4853301,9.67525572 60.9207384,9.10837001 60.9207384,8.38870601 C60.9207384,7.66803722 61.4853301,7.1021563 62.204357,7.1021563 L66.7220929,7.1021563 C67.4411198,7.1021563 68.0057115,7.66803722 68.0057115,8.38870601 C68.0057115,9.10837001 67.4411198,9.67525572 66.7220929,9.67525572 Z" id="Path"></path>
                    <path d="M88.3390318,117.384594 L19.0747726,117.384594 C17.3799951,117.384594 15.994088,115.995523 15.994088,114.296875 L15.994088,98.9095396 C15.994088,98.1898756 16.5586797,97.6229899 17.2777066,97.6229899 L72.5244499,97.6229899 C72.7811736,97.6229899 73.0378973,97.4179458 73.0378973,97.10837 L73.0378973,18.5775768 C73.0378973,17.856908 73.602489,17.2910271 74.3215159,17.2910271 L88.3390318,17.2910271 C90.0328068,17.2910271 91.4197164,18.6811037 91.4197164,20.3787464 L91.4197164,114.296875 C91.4197164,115.995523 90.0328068,117.384594 88.3390318,117.384594 Z M18.5613252,100.196089 L18.5613252,114.296875 C18.5613252,114.554185 18.7669047,114.811495 19.0747726,114.811495 L88.3390318,114.811495 C88.5957555,114.811495 88.8524792,114.605446 88.8524792,114.296875 L88.8524792,20.3787464 C88.8524792,20.1214365 88.6468998,19.8641265 88.3390318,19.8641265 L75.5539902,19.8641265 L75.5539902,97.10837 C75.5539902,98.8070175 74.1670807,100.196089 72.4733056,100.196089 L18.5613252,100.196089 Z" id="Shape"></path>
                    <path d="M24.105956,51.6680372 L18.4580342,51.6680372 C17.7400098,51.6680372 17.1744156,51.1021563 17.1744156,50.3814875 L17.1744156,44.9267177 C17.1744156,44.2060489 17.7400098,43.640168 18.4580342,43.640168 L24.105956,43.640168 C24.8249829,43.640168 25.3895745,44.2060489 25.3895745,44.9267177 L25.3895745,50.3814875 C25.3895745,51.0498905 24.8249829,51.6680372 24.105956,51.6680372 Z M19.7416528,49.0949378 L22.8223374,49.0949378 L22.8223374,46.2132674 L19.7416528,46.2132674 L19.7416528,49.0949378 Z" id="Shape"></path>
                    <path d="M29.7538777,51.6680372 L24.105956,51.6680372 C23.3879316,51.6680372 22.8223374,51.1021563 22.8223374,50.3814875 L22.8223374,39.4196821 C22.8223374,38.6990133 23.3879316,38.1331324 24.105956,38.1331324 L29.7538777,38.1331324 C30.4729046,38.1331324 31.0374963,38.6990133 31.0374963,39.4196821 L31.0374963,50.3814875 C31.0374963,51.0498905 30.4729046,51.6680372 29.7538777,51.6680372 Z M25.3895745,49.0949378 L28.4702591,49.0949378 L28.4702591,40.7062318 L25.3895745,40.7062318 L25.3895745,49.0949378 Z" id="Shape"></path>
                    <path d="M35.4017995,51.6680372 L29.7538777,51.6680372 C29.0358533,51.6680372 28.4702591,51.1021563 28.4702591,50.3814875 L28.4702591,33.9649123 C28.4702591,33.2442435 29.0358533,32.6783626 29.7538777,32.6783626 L35.4017995,32.6783626 C36.1208264,32.6783626 36.6854181,33.2442435 36.6854181,33.9649123 L36.6854181,50.3814875 C36.6854181,51.0498905 36.1208264,51.6680372 35.4017995,51.6680372 Z M31.0374963,49.0949378 L34.1181809,49.0949378 L34.1181809,35.251462 L31.0374963,35.251462 L31.0374963,49.0949378 Z" id="Shape"></path>
                    <path d="M41.0497212,51.6680372 L35.4017995,51.6680372 C34.6837751,51.6680372 34.1181809,51.1021563 34.1181809,50.3814875 L34.1181809,28.4588815 C34.1181809,27.7382127 34.6837751,27.1723317 35.4017995,27.1723317 L41.0497212,27.1723317 C41.7687482,27.1723317 42.3333398,27.7382127 42.3333398,28.4588815 L42.3333398,50.3302265 C42.3333398,51.0498905 41.7687482,51.6680372 41.0497212,51.6680372 Z M36.6854181,49.0949378 L39.7661027,49.0949378 L39.7661027,29.7454312 L36.6854181,29.7454312 L36.6854181,49.0949378 Z" id="Shape"></path>
                    <path d="M46.697643,51.6680372 L41.0497212,51.6680372 C40.3316968,51.6680372 39.7661027,51.1021563 39.7661027,50.3814875 L39.7661027,39.4196821 C39.7661027,38.6990133 40.3316968,38.1331324 41.0497212,38.1331324 L46.697643,38.1331324 C47.4166699,38.1331324 47.9812616,38.6990133 47.9812616,39.4196821 L47.9812616,50.3814875 C47.9812616,51.0498905 47.4166699,51.6680372 46.697643,51.6680372 Z M42.3333398,49.0949378 L45.4140244,49.0949378 L45.4140244,40.7062318 L42.3333398,40.7062318 L42.3333398,49.0949378 Z" id="Shape"></path>
                    <path d="M52.3455648,51.6680372 L46.697643,51.6680372 C45.9796186,51.6680372 45.4140244,51.1021563 45.4140244,50.3814875 L45.4140244,33.9649123 C45.4140244,33.2442435 45.9796186,32.6783626 46.697643,32.6783626 L52.3455648,32.6783626 C53.0645917,32.6783626 53.6291833,33.2442435 53.6291833,33.9649123 L53.6291833,50.3814875 C53.6291833,51.0498905 53.0645917,51.6680372 52.3455648,51.6680372 Z M47.9812616,49.0949378 L51.0619462,49.0949378 L51.0619462,35.251462 L47.9812616,35.251462 L47.9812616,49.0949378 Z" id="Shape"></path>
                    <path d="M57.9934865,51.6680372 L52.3455648,51.6680372 C51.6275404,51.6680372 51.0619462,51.1021563 51.0619462,50.3814875 L51.0619462,28.4588815 C51.0619462,27.7382127 51.6275404,27.1723317 52.3455648,27.1723317 L57.9934865,27.1723317 C58.7125134,27.1723317 59.2771051,27.7382127 59.2771051,28.4588815 L59.2771051,50.3302265 C59.2771051,51.0498905 58.7125134,51.6680372 57.9934865,51.6680372 Z M53.6291833,49.0949378 L56.7098679,49.0949378 L56.7098679,29.7454312 L53.6291833,29.7454312 L53.6291833,49.0949378 Z" id="Shape"></path>
                    <path d="M63.2823961,57.6886879 L13.1701272,57.6886879 C11.8353643,57.6886879 10.7563227,56.6081871 10.7051785,55.2191154 L10.7051785,23.2604168 C10.7051785,21.9226061 11.7832176,20.8421053 13.1701272,20.7908442 L63.3335403,20.7908442 C64.6683032,20.7908442 65.7473448,21.871345 65.798489,23.2604168 L65.798489,55.2703764 C65.7473448,56.6081871 64.6683032,57.6886879 63.2823961,57.6886879 Z M13.2724156,55.1155885 L63.1801076,55.1155885 L63.1801076,23.3639436 L13.2724156,23.3639436 L13.2724156,55.1155885 Z" id="Shape"></path>
                    <path d="M78.9425428,76.6271015 L74.2703717,76.6271015 C73.5513447,76.6271015 72.9867531,76.0612206 72.9867531,75.3405518 L72.9867531,41.0148028 C72.9867531,40.2951388 73.5513447,39.7282531 74.2703717,39.7282531 L78.9425428,39.7282531 C80.2773056,39.7282531 81.3553447,40.8097586 81.4074915,42.1988304 L81.4074915,74.2077852 C81.4074915,75.5466007 80.2773056,76.6271015 78.9425428,76.6271015 Z M75.5539902,74.0540021 L78.7881076,74.0540021 L78.7881076,42.3013525 L75.5539902,42.3013525 L75.5539902,74.0540021 Z" id="Shape"></path>
                    <path d="M52.9111589,87.5879022 C45.7228949,87.5879022 39.9205379,81.7733004 39.9205379,74.568622 C39.9205379,67.3639436 45.7228949,61.5483371 52.9111589,61.5483371 C60.099423,61.5483371 65.9007775,67.3639436 65.9007775,74.568622 C65.9007775,81.7733004 60.099423,87.5879022 52.9111589,87.5879022 Z M52.9111589,64.1214365 C47.1599462,64.1214365 42.4877751,68.8042764 42.4877751,74.568622 C42.4877751,80.3319628 47.1599462,85.0148028 52.9111589,85.0148028 C58.6613692,85.0148028 63.3335403,80.3319628 63.3335403,74.568622 C63.3335403,68.8042764 58.6613692,64.1214365 52.9111589,64.1214365 Z" id="Shape"></path>
                    <path d="M64.6171589,75.8551717 L52.9111589,75.8551717 C52.192132,75.8551717 51.6275404,75.2892908 51.6275404,74.568622 L51.6275404,62.8348868 C51.6275404,62.114218 52.192132,61.5483371 52.9111589,61.5483371 C60.099423,61.5483371 65.9007775,67.3639436 65.9007775,74.568622 C65.9007775,75.2892908 65.3361858,75.8551717 64.6171589,75.8551717 Z M54.1947775,73.2820723 L63.2823961,73.2820723 C62.6666602,68.5469665 58.9692372,64.7908442 54.1947775,64.1726975 L54.1947775,73.2820723 Z" id="Shape"></path>
                    <path d="M59.9449878,85.2721127 C59.8938435,85.2721127 59.8426993,85.2721127 59.7394083,85.2721127 C59.3803961,85.2208517 59.1236724,85.0670686 58.9180929,84.7574928 L51.8842641,75.3405518 C51.4731051,74.7746709 51.5753936,73.9504753 52.1409878,73.5393822 C52.3455648,73.3845944 52.6544352,73.2820723 52.9111589,73.2820723 L64.6171589,73.2820723 C65.3361858,73.2820723 65.9007775,73.8479532 65.9007775,74.568622 C65.9007775,78.6855811 64.001423,82.5452302 60.7151589,85.0148028 C60.4584352,85.1695906 60.2017115,85.2721127 59.9449878,85.2721127 Z M55.4783961,75.8551717 L60.1505672,82.0818713 C61.896489,80.4354896 62.9745281,78.2222222 63.2823961,75.8551717 L55.4783961,75.8551717 Z" id="Shape"></path>
                </g>
            </g>
        </g>
    </g>
</svg>