<?xml version="1.0" encoding="UTF-8"?>
<svg width="120px" height="120px" viewBox="0 0 120 120" version="1.1" xmlns="http://www.w3.org/2000/svg" xmlns:xlink="http://www.w3.org/1999/xlink">
    <!-- Generator: Sketch 52.4 (67378) - http://www.bohemiancoding.com/sketch -->
    <title>video-conference</title>
    <desc>Created with Sketch.</desc>
    <g id="Elementos" stroke="none" stroke-width="1" fill="none" fill-rule="evenodd">
        <g id="Amazon/Servicios" transform="translate(-69.000000, -289.000000)" fill-rule="nonzero">
            <g id="video-conference" transform="translate(69.000000, 289.000000)">
                <path d="M36.843567,81.9378661 C36.843567,77.297058 33.046875,73.5003661 28.406067,73.5003661 L26.015625,73.5003661 C24.375,73.5003661 22.8277589,74.3902589 22.03125,75.7965089 C21.047058,75.187683 19.8284911,75 18.703308,75.234375 C16.4996339,75.703125 14.953308,77.6715089 15,79.921875 L15,82.1246339 C15,84.656067 15.422058,87.1875 16.2652589,89.577942 L16.4996339,90.234375 C17.578125,93.234558 20.0152589,95.5316161 23.0621339,96.4215089 L23.249817,96.4691161 C25.031433,96.984558 26.8597411,96.984558 28.640442,96.4691161 L28.781433,96.4215089 C31.875,95.5316161 34.3121339,93.234558 35.343933,90.187683 L35.625,89.343567 C36.4215089,86.906433 36.843567,84.421692 36.843567,81.9378661 Z" id="Path" fill="#6D6C6B"></path>
                <path d="M70.6878661,81.9378661 C70.6878661,77.297058 66.8902589,73.5003661 62.2503661,73.5003661 L59.8590089,73.5003661 C58.2183839,73.5003661 56.672058,74.3902589 55.8746339,75.7965089 C54.890442,75.187683 53.671875,75 52.546692,75.234375 C50.343933,75.703125 48.796692,77.6715089 48.8433839,79.921875 L48.8433839,82.1246339 C48.8433839,84.656067 49.265442,87.1875 50.109558,89.577942 L50.343933,90.234375 C51.4215089,93.234558 53.859558,95.5316161 56.906433,96.4215089 L57.0941161,96.4691161 C58.874817,96.984558 60.703125,96.984558 62.4847411,96.4691161 L62.624817,96.4215089 C65.7183839,95.5316161 68.156433,93.234558 69.187317,90.187683 L69.4683839,89.343567 C70.265808,86.906433 70.6878661,84.421692 70.6878661,81.9378661 Z" id="Path" fill="#6D6C6B"></path>
                <path d="M104.484558,81.9378661 C104.484558,77.297058 100.687866,73.5003661 96.047058,73.5003661 L93.6566161,73.5003661 C92.0159911,73.5003661 90.46875,74.3902589 89.6722411,75.7965089 C88.6871339,75.187683 87.468567,75 86.3433839,75.234375 C84.140625,75.703125 82.5933839,77.6715089 82.6409911,79.921875 L82.6409911,82.1246339 C82.6409911,84.656067 83.0621339,87.1875 83.90625,89.577942 L84.140625,90.234375 C85.2191161,93.234558 87.65625,95.5316161 90.703125,96.4215089 L90.890808,96.4691161 C92.6715089,96.984558 94.499817,96.984558 96.281433,96.4691161 L96.4215089,96.4215089 C99.4683839,95.5316161 101.953125,93.234558 102.984009,90.187683 L103.265991,89.343567 C104.0625,86.906433 104.484558,84.421692 104.484558,81.9378661 Z" id="Path" fill="#6D6C6B"></path>
                <path d="M42.5152589,107.953491 C42.421875,106.547241 41.437683,105.327759 40.078125,105 L33.75,103.406067 L29.9066161,101.531067 L22.3590089,101.531067 L18.562317,103.406067 L12.234192,105 C10.8746339,105.327759 9.89044195,106.547241 9.79705805,107.953491 L9.28161609,117.562866 C9.23400891,118.218384 9.75036609,118.781433 10.4058839,118.828125 L10.4534911,118.828125 L41.906433,118.828125 C42.5628661,118.828125 43.078308,118.312683 43.078308,117.65625 L43.078308,117.609558 L42.5152589,107.953491 Z" id="Path" fill="#E9E9EA"></path>
                <path d="M76.3128661,107.953491 C76.218567,106.547241 75.234375,105.327759 73.874817,105 L67.546692,103.406067 L63.75,101.531067 L56.203308,101.531067 L52.4066161,103.406067 L46.0784911,105 C44.718933,105.327759 43.7347411,106.547241 43.640442,107.953491 L43.125,117.562866 C43.078308,118.218384 43.59375,118.781433 44.250183,118.828125 L44.296875,118.828125 L75.749817,118.828125 C76.40625,118.828125 76.921692,118.312683 76.921692,117.65625 L76.921692,117.609558 L76.3128661,107.953491 Z" id="Path" fill="#E9E9EA"></path>
                <path d="M110.15625,107.953491 C110.062866,106.547241 109.077759,105.327759 107.719116,105 L101.390991,103.406067 L97.5933839,101.531067 L90.046692,101.531067 L86.25,103.406067 L79.875183,105 C78.515625,105.327759 77.531433,106.547241 77.4371339,107.953491 L76.921692,117.562866 C76.875,118.218384 77.390442,118.781433 78.046875,118.828125 L78.093567,118.828125 L109.546509,118.828125 C110.202942,118.828125 110.718384,118.312683 110.718384,117.65625 L110.718384,117.609558 L110.15625,107.953491 Z" id="Path" fill="#E9E9EA"></path>
                <path d="M28.7347411,96.374817 L28.59375,96.4215089 C26.8121339,96.9378661 24.9847411,96.9378661 23.203125,96.4215089 L23.015442,96.374817 C21.047058,95.812683 19.3597411,94.6875 18.093567,93.093567 C18.562317,95.15625 19.8284911,96.8902589 21.609192,98.0621339 C22.1246339,98.390808 22.4066161,98.952942 22.4066161,99.562683 L22.4066161,101.577759 L29.953308,101.577759 C29.953308,101.577759 29.953308,100.405884 29.953308,99.5159911 C29.953308,98.952942 30.234375,98.390808 30.703125,98.0621339 C32.531433,96.750183 33.75,94.7808839 34.1253661,92.578125 C32.8125,94.406433 30.890808,95.7183839 28.7347411,96.374817 Z" id="Path" fill="#F9D0B4"></path>
                <path d="M36.609192,85.031433 C36.281433,87.375183 35.625,89.6246339 34.5941161,91.7340089 L35.437317,91.7340089 C37.312317,92.0159911 39.0472411,90.7965089 39.328308,88.9215089 C39.375,88.7347411 39.375,88.59375 39.375,88.406067 C39.421692,86.765442 38.249817,85.359192 36.609192,85.031433 Z" id="Path" fill="#F9D0B4"></path>
                <path d="M15.1409911,85.031433 C13.547058,85.359192 12.375183,86.765442 12.375183,88.406067 C12.421875,90.281067 13.9691161,91.7816161 15.8441161,91.7816161 C16.0308839,91.7816161 16.171875,91.7816161 16.359558,91.7340089 L17.156067,91.7340089 C16.125183,89.6246339 15.422058,87.375183 15.1409911,85.031433 Z" id="Path" fill="#F9D0B4"></path>
                <path d="M62.578125,96.374817 L62.4371339,96.4215089 C60.656433,96.9378661 58.828125,96.9378661 57.0465089,96.4215089 L56.8597411,96.374817 C54.890442,95.812683 53.203125,94.6875 51.9378661,93.093567 C52.4066161,95.15625 53.671875,96.8902589 55.4534911,98.0621339 C55.968933,98.390808 56.25,98.952942 56.25,99.562683 L56.25,101.577759 L63.703308,101.577759 C63.703308,101.577759 63.703308,100.405884 63.703308,99.5159911 C63.703308,98.952942 63.984375,98.390808 64.453125,98.0621339 C66.281433,96.750183 67.5,94.7808839 67.8753661,92.578125 C66.609192,94.406433 64.734192,95.7183839 62.578125,96.374817 Z" id="Path" fill="#F9D0B4"></path>
                <path d="M70.4534911,85.031433 C70.124817,87.375183 69.4683839,89.6246339 68.390808,91.7340089 L69.2340089,91.7340089 C71.1090089,92.0159911 72.843933,90.7965089 73.125,88.9215089 C73.171692,88.7347411 73.171692,88.59375 73.171692,88.406067 C73.2183839,86.765442 72.0465089,85.359192 70.4534911,85.031433 Z" id="Path" fill="#F9D0B4"></path>
                <path d="M48.984375,85.031433 C47.390442,85.359192 46.218567,86.765442 46.218567,88.406067 C46.2652589,90.281067 47.8125,91.7816161 49.6875,91.7816161 C49.875183,91.7816161 50.0152589,91.7816161 50.202942,91.7340089 L51.0003661,91.7340089 C49.921875,89.6246339 49.265442,87.375183 48.984375,85.031433 Z" id="Path" fill="#F9D0B4"></path>
                <path d="M96.374817,96.374817 L96.2347411,96.4215089 C94.453125,96.9378661 92.624817,96.9378661 90.8441161,96.4215089 L90.656433,96.374817 C88.6871339,95.812683 86.999817,94.6875 85.734558,93.093567 C86.203308,95.15625 87.468567,96.8902589 89.250183,98.0621339 C89.765625,98.390808 90.046692,98.952942 90.046692,99.562683 L90.046692,101.577759 L97.5933839,101.577759 C97.5933839,101.577759 97.5933839,100.405884 97.5933839,99.5159911 C97.5933839,98.952942 97.8753661,98.390808 98.3441161,98.0621339 C100.171509,96.750183 101.390991,94.7808839 101.765442,92.578125 C100.405884,94.406433 98.5308839,95.7183839 96.374817,96.374817 Z" id="Path" fill="#F9D0B4"></path>
                <path d="M104.250183,85.031433 C103.921509,87.375183 103.265991,89.6246339 102.1875,91.7340089 L103.031616,91.7340089 C104.906616,92.0159911 106.640625,90.7965089 106.921692,88.9215089 C106.968384,88.7347411 106.968384,88.59375 106.968384,88.406067 C107.015991,86.765442 105.890808,85.359192 104.250183,85.031433 Z" id="Path" fill="#F9D0B4"></path>
                <path d="M82.781067,85.031433 C81.1871339,85.359192 80.0152589,86.765442 80.0152589,88.406067 C80.0628661,90.281067 81.609192,91.7816161 83.484192,91.7816161 C83.671875,91.7816161 83.8128661,91.7816161 83.9996339,91.7340089 L84.797058,91.7340089 C83.7652589,89.6246339 83.0621339,87.375183 82.781067,85.031433 Z" id="Path" fill="#F9D0B4"></path>
                <path d="M10.031433,1.26525891 L109.921875,1.26525891 C111.469116,1.26525891 112.734375,2.53143305 112.734375,4.07775891 L112.734375,7.35900891 C112.734375,8.90625 111.469116,10.1715089 109.921875,10.1715089 L10.031433,10.1715089 C8.48419195,10.1715089 7.21893305,8.90625 7.21893305,7.35900891 L7.21893305,4.07775891 C7.21893305,2.53143305 8.48419195,1.26525891 10.031433,1.26525891 Z" id="Path" fill="#E9E9EA"></path>
                <path d="M13.7347411,77.297058 L15.703125,77.297058 C17.0159911,75.1409911 19.875183,74.4378661 22.03125,75.749817 C22.8753661,74.343567 24.375,73.4527589 26.015625,73.4527589 L28.406067,73.4527589 C31.2652589,73.4527589 33.8909911,74.9066161 35.4840089,77.297058 L49.499817,77.297058 C50.812683,75.1409911 53.671875,74.4378661 55.827942,75.749817 C56.672058,74.343567 58.171692,73.4527589 59.812317,73.4527589 L62.2027589,73.4527589 C65.0628661,73.4527589 67.687683,74.9066161 69.2816161,77.297058 L83.2965089,77.297058 C84.609375,75.1409911 87.468567,74.4378661 89.6246339,75.749817 C90.46875,74.343567 91.9683839,73.4527589 93.6090089,73.4527589 L96.0003661,73.4527589 C98.859558,73.4527589 101.484375,74.9066161 103.078308,77.297058 L106.171875,77.297058 C108.093567,77.297058 109.640808,75.749817 109.640808,73.828125 L109.640808,10.1715089 L10.265808,10.1715089 L10.265808,73.828125 C10.265808,75.749817 11.8121339,77.297058 13.7347411,77.297058 Z" id="Path" fill="#60BAE2"></path>
                <polygon id="Path" fill="#CAECFC" points="15.3277589 10.1715089 104.577942 10.1715089 104.577942 72.234192 15.3277589 72.234192"></polygon>
                <path d="M119.859009,84.0472411 C117.749634,83.625183 116.156616,82.03125 115.734558,79.921875 C115.734558,79.875183 115.687866,79.8284911 115.640259,79.8284911 C115.593567,79.8284911 115.593567,79.875183 115.546875,79.921875 C115.124817,82.03125 113.530884,83.625183 111.421509,84.0472411 C111.374817,84.0472411 111.328125,84.093933 111.328125,84.140625 C111.328125,84.187317 111.374817,84.187317 111.421509,84.2340089 C113.530884,84.656067 115.124817,86.25 115.546875,88.359375 C115.546875,88.406067 115.593567,88.4527589 115.640259,88.4527589 C115.687866,88.4527589 115.687866,88.406067 115.734558,88.359375 C116.156616,86.25 117.749634,84.656067 119.859009,84.2340089 C119.906616,84.2340089 119.953308,84.187317 119.953308,84.140625 C119.953308,84.0472411 119.906616,84.0472411 119.859009,84.0472411 Z" id="Path" fill="#F75C64"></path>
                <path d="M9.23400891,98.203125 L5.15625,98.203125 C4.49981695,98.203125 3.984375,97.687683 3.984375,97.03125 C3.984375,96.374817 4.49981695,95.859375 5.15625,95.859375 L9.23400891,95.859375 C9.89044195,95.859375 10.4058839,96.374817 10.4058839,97.03125 C10.4058839,97.687683 9.89044195,98.203125 9.23400891,98.203125 Z" id="Path" fill="#60BAE2"></path>
                <path d="M7.21893305,100.265808 C6.5625,100.265808 6.04705805,99.7503661 6.04705805,99.093933 L6.04705805,95.0152589 C6.04705805,94.3597411 6.5625,93.8433839 7.21893305,93.8433839 C7.87536609,93.8433839 8.39080805,94.3597411 8.39080805,95.0152589 L8.39080805,99.093933 C8.39080805,99.7027589 7.87536609,100.265808 7.21893305,100.265808 Z" id="Path" fill="#60BAE2"></path>
                <path d="M1.12518305,80.2496339 C1.45294195,80.2496339 1.73400891,80.390625 1.96838391,80.578308 C2.01599109,80.625 2.06268305,80.671692 2.109375,80.7659911 C2.15606695,80.812683 2.20275891,80.906067 2.20275891,80.9527589 C2.25036609,81.047058 2.25036609,81.09375 2.25036609,81.1871339 C2.25036609,81.281433 2.29705805,81.328125 2.29705805,81.4215089 C2.29705805,81.515808 2.29705805,81.5625 2.25036609,81.6558839 C2.25036609,81.750183 2.20275891,81.796875 2.20275891,81.8902589 C2.15606695,81.984558 2.15606695,82.03125 2.109375,82.077942 C2.06268305,82.1246339 2.01599109,82.218933 1.96838391,82.265625 C1.640625,82.5933839 1.12518305,82.687683 0.703125,82.5 C0.656433047,82.453308 0.562133906,82.453308 0.515441953,82.4066161 C0.46875,82.3590089 0.375366094,82.312317 0.327758906,82.265625 C0.281066953,82.218933 0.234375,82.1722411 0.187683047,82.077942 C0.140991094,82.03125 0.0933839062,81.9378661 0.0933839062,81.8902589 C0.0466919531,81.843567 0.0466919531,81.750183 0.0466919531,81.6558839 C0.0466919531,81.5625 0.0466919531,81.515808 -8.8817842e-16,81.4215089 C-8.8817842e-16,81.328125 -8.8817842e-16,81.281433 0.0466919531,81.1871339 C0.0466919531,81.09375 0.0933839062,81.047058 0.0933839062,80.9527589 C0.140991094,80.859375 0.140991094,80.812683 0.187683047,80.7659911 C0.234375,80.7183839 0.281066953,80.625 0.327758906,80.578308 C0.375366094,80.5316161 0.422058047,80.4840089 0.515441953,80.437317 C0.562133906,80.390625 0.656433047,80.343933 0.703125,80.343933 C0.796508906,80.2972411 0.844116094,80.2972411 0.9375,80.2972411 C0.984191953,80.2972411 1.03088391,80.2496339 1.12518305,80.2496339 Z" id="Path" fill="#6DCC6D"></path>
                <path d="M110.671692,95.625 C111.000366,95.625 111.281433,95.7659911 111.515808,95.9527589 C111.5625,96.0003661 111.609192,96.047058 111.655884,96.140442 C111.703491,96.1871339 111.750183,96.281433 111.750183,96.328125 C111.796875,96.4215089 111.796875,96.4691161 111.796875,96.5625 C111.796875,96.6558839 111.843567,96.7034911 111.843567,96.796875 C111.843567,96.8902589 111.843567,96.9378661 111.796875,97.03125 C111.796875,97.1246339 111.750183,97.1722411 111.750183,97.265625 C111.703491,97.3590089 111.703491,97.4066161 111.655884,97.453308 C111.609192,97.5 111.5625,97.5933839 111.515808,97.6409911 C111.187134,97.96875 110.671692,98.0621339 110.249634,97.8753661 C110.202942,97.8277589 110.109558,97.8277589 110.062866,97.781067 C110.015259,97.734375 109.921875,97.687683 109.875183,97.6409911 C109.828491,97.5933839 109.780884,97.546692 109.734192,97.453308 C109.6875,97.4066161 109.640808,97.312317 109.640808,97.265625 C109.594116,97.218933 109.594116,97.1246339 109.594116,97.03125 C109.594116,96.9378661 109.594116,96.8902589 109.546509,96.796875 C109.546509,96.7034911 109.546509,96.6558839 109.594116,96.5625 C109.594116,96.4691161 109.640808,96.4215089 109.640808,96.328125 C109.6875,96.2347411 109.6875,96.1871339 109.734192,96.140442 C109.780884,96.09375 109.828491,96.0003661 109.875183,95.9527589 C109.921875,95.906067 109.968567,95.859375 110.062866,95.812683 C110.109558,95.7659911 110.202942,95.7183839 110.249634,95.7183839 C110.343933,95.671692 110.390625,95.671692 110.484009,95.671692 C110.531616,95.625 110.578308,95.625 110.671692,95.625 Z" id="Path" fill="#FCD770"></path>
                <g id="Group" transform="translate(5.859375, 0.000000)" fill="#231F20">
                    <path d="M98.718567,73.406067 L9.46838391,73.406067 C8.81286609,73.406067 8.29650891,72.890625 8.29650891,72.234192 L8.29650891,10.1715089 C8.29650891,9.51599109 8.81286609,8.99963391 9.46838391,8.99963391 L98.718567,8.99963391 C99.375,8.99963391 99.890442,9.51599109 99.890442,10.1715089 L99.890442,72.234192 C99.890442,72.890625 99.375,73.406067 98.718567,73.406067 Z M10.6402589,71.062317 L97.546692,71.062317 L97.546692,11.3433839 L10.6402589,11.3433839 L10.6402589,71.062317 Z" id="Shape"></path>
                    <path d="M104.015808,11.3433839 L4.17205805,11.3433839 C1.96838391,11.3433839 0.187683047,9.56268305 0.187683047,7.35900891 L0.187683047,4.07775891 C0.187683047,1.875 1.96838391,0.0933839062 4.17205805,0.0933839062 L104.0625,0.0933839062 C106.265259,0.0933839062 108.046875,1.875 108.046875,4.07775891 L108.046875,7.35900891 C108.000183,9.56268305 106.218567,11.3433839 104.015808,11.3433839 Z M4.17205805,2.43713391 C3.28125,2.43713391 2.53143305,3.18786609 2.53143305,4.07775891 L2.53143305,7.35900891 C2.53143305,8.24981695 3.28125,8.99963391 4.17205805,8.99963391 L104.0625,8.99963391 C104.953308,8.99963391 105.703125,8.24981695 105.703125,7.35900891 L105.703125,4.07775891 C105.703125,3.18786609 104.953308,2.43713391 104.0625,2.43713391 L4.17205805,2.43713391 Z" id="Shape"></path>
                    <path d="M29.8590089,120 C29.2034911,120 28.6871339,119.484558 28.6871339,118.828125 L28.6871339,114.187317 C28.6871339,113.530884 29.2034911,113.015442 29.8590089,113.015442 C30.515442,113.015442 31.0308839,113.530884 31.0308839,114.187317 L31.0308839,118.828125 C31.0308839,119.484558 30.46875,120 29.8590089,120 Z" id="Path"></path>
                    <path d="M10.500183,120 C9.84375,120 9.32830805,119.484558 9.32830805,118.828125 L9.32830805,114.187317 C9.32830805,113.530884 9.84375,113.015442 10.500183,113.015442 C11.1566161,113.015442 11.672058,113.530884 11.672058,114.187317 L11.672058,118.828125 C11.672058,119.484558 11.1090089,120 10.500183,120 Z" id="Path"></path>
                    <path d="M36.0003661,120 L4.54650891,120 C3.23455805,120 2.20275891,118.969116 2.20275891,117.65625 C2.20275891,117.609558 2.20275891,117.562866 2.20275891,117.515259 L2.71911609,107.905884 C2.8125,105.984192 4.17205805,104.343567 6.04705805,103.874817 L12.2808839,102.328491 L15.984192,100.500183 C16.125183,100.405884 16.3128661,100.359192 16.4996339,100.359192 L24.0472411,100.359192 C24.2340089,100.359192 24.421692,100.405884 24.562683,100.500183 L28.2659911,102.328491 L34.499817,103.874817 C36.374817,104.343567 37.734375,105.984192 37.8277589,107.905884 L38.3441161,117.515259 C38.4375,118.828125 37.4066161,119.906616 36.140442,120 C36.09375,120 36.047058,120 36.0003661,120 Z M16.7816161,102.702942 L13.2183839,104.484558 C13.125,104.53125 13.078308,104.53125 12.9840089,104.577942 L6.65588391,106.171875 C5.76599109,106.40625 5.15625,107.156067 5.10955805,108.046875 L4.59411609,117.65625 L36.047058,117.65625 L35.5316161,108.046875 C35.4840089,107.156067 34.875183,106.40625 33.984375,106.171875 L27.65625,104.577942 C27.5628661,104.577942 27.5152589,104.53125 27.421875,104.484558 L23.859558,102.702942 L16.7816161,102.702942 Z" id="Shape"></path>
                    <path d="M24.0472411,102.702942 L16.4996339,102.702942 C15.8441161,102.702942 15.3277589,102.1875 15.3277589,101.531067 L15.3277589,99.5159911 C15.3277589,99.328308 15.234375,99.140625 15.046692,98.9996339 C13.0316161,97.687683 11.6253661,95.671692 11.062317,93.327942 C10.9222411,92.7191161 11.296692,92.062683 11.953125,91.921692 C12.375183,91.828308 12.843933,91.9683839 13.125,92.34375 C14.250183,93.75 15.749817,94.734192 17.4847411,95.2496339 L17.6715089,95.2972411 C19.21875,95.7183839 20.859375,95.7183839 22.4066161,95.2972411 L22.546692,95.2496339 C24.4683839,94.6875 26.1090089,93.515625 27.234192,91.875 C27.609558,91.359558 28.312683,91.218567 28.874817,91.593933 C29.250183,91.875 29.4378661,92.297058 29.343567,92.765808 C28.9215089,95.2972411 27.5152589,97.546692 25.4534911,98.9996339 C25.3125,99.093933 25.2191161,99.2816161 25.2191161,99.5159911 L25.2191161,101.577759 C25.2191161,102.1875 24.7027589,102.702942 24.0472411,102.702942 Z M17.6715089,100.359192 L22.8753661,100.359192 L22.8753661,99.4683839 C22.8753661,98.625183 23.249817,97.8277589 23.859558,97.265625 C23.625183,97.3590089 23.4375,97.4066161 23.203125,97.5 L23.0621339,97.546692 C21.09375,98.1097411 18.984375,98.1097411 17.0159911,97.546692 L16.875,97.5 C17.390442,98.0621339 17.7191161,98.7652589 17.7191161,99.562683 L17.6715089,100.359192 Z" id="Shape"></path>
                    <path d="M20.0152589,97.96875 C18.984375,97.96875 18.000183,97.8277589 17.0159911,97.546692 L16.828308,97.5 C13.406067,96.515808 10.6878661,93.937683 9.46838391,90.5621339 L9.23400891,89.9066161 C8.34411609,87.375183 7.87536609,84.7503661 7.87536609,82.077942 L7.87536609,79.875183 C7.87536609,77.062683 9.79705805,74.6246339 12.5152589,74.0625 C13.59375,73.828125 14.6722411,73.9215089 15.703125,74.296875 C16.828308,73.0316161 18.4222411,72.3284911 20.0628661,72.3284911 L22.453308,72.3284911 C27.7496339,72.3284911 32.062683,76.640625 32.062683,81.9378661 C32.062683,84.562683 31.640625,87.1875 30.749817,89.6722411 L30.46875,90.515442 C29.296875,93.8909911 26.531067,96.4691161 23.1097411,97.453308 L22.96875,97.5 C22.077942,97.8277589 21.047058,97.96875 20.0152589,97.96875 Z M13.781433,76.2652589 C11.8597411,76.2652589 10.265808,77.8125 10.265808,79.7808839 L10.265808,79.875183 L10.265808,82.077942 C10.265808,84.4683839 10.6878661,86.8597411 11.484375,89.1558839 L11.71875,89.812317 C12.65625,92.4371339 14.812317,94.499817 17.4847411,95.2496339 L17.6715089,95.2972411 C19.21875,95.7183839 20.859375,95.7183839 22.4066161,95.2972411 L22.546692,95.2496339 C25.265808,94.453125 27.421875,92.4371339 28.312683,89.765625 L28.59375,88.9215089 C29.3902589,86.672058 29.765625,84.328308 29.765625,81.9378661 C29.765625,77.9058839 26.531067,74.6722411 22.5,74.6722411 L20.109558,74.6722411 C18.8909911,74.6722411 17.7191161,75.3277589 17.109375,76.40625 C16.7816161,76.9683839 16.0784911,77.156067 15.515442,76.828308 C15,76.452942 14.3902589,76.2652589 13.781433,76.2652589 Z" id="Shape"></path>
                    <path d="M30.1409911,92.9534911 C29.9066161,92.9534911 29.718933,92.9534911 29.484558,92.9058839 L28.7347411,92.9058839 C28.078308,92.9058839 27.5628661,92.390442 27.5628661,91.7340089 C27.5628661,91.5472411 27.609558,91.3128661 27.702942,91.171875 C28.6871339,89.2034911 29.296875,87.0465089 29.6246339,84.890442 C29.718933,84.2340089 30.3277589,83.8128661 30.9375,83.90625 L30.984192,83.90625 C33.1402589,84.328308 34.6875,86.25 34.6875,88.4527589 C34.6875,90.9375 32.624817,92.9534911 30.1409911,92.9534911 Z M31.640625,86.765442 C31.359558,88.078308 30.984192,89.343567 30.515442,90.6097411 C30.890808,90.5621339 31.2652589,90.3753661 31.5472411,90.1409911 C32.4847411,89.343567 32.624817,87.937317 31.828308,86.999817 C31.7816161,86.906433 31.7340089,86.8121339 31.640625,86.765442 Z" id="Shape"></path>
                    <path d="M9.93713391,92.9534911 C7.40661609,92.9534911 5.34393305,90.890808 5.34393305,88.359375 C5.34393305,86.1566161 6.89025891,84.2816161 9.04724109,83.859558 C9.70275891,83.718567 10.3125,84.140625 10.4534911,84.7503661 L10.4534911,84.84375 C10.734558,87.0465089 11.3433839,89.1558839 12.3284911,91.125183 C12.65625,91.687317 12.468567,92.390442 11.906433,92.7191161 C11.71875,92.8125 11.531067,92.859192 11.3433839,92.859192 L10.6402589,92.859192 C10.359192,92.9534911 10.1715089,92.9534911 9.93713391,92.9534911 Z M8.39080805,86.765442 C7.5,87.609558 7.45330805,89.015808 8.34411609,89.9066161 C8.39080805,89.953308 8.48419195,90.046692 8.53088391,90.0933839 C8.81286609,90.3277589 9.140625,90.515442 9.51599109,90.5621339 C9.04724109,89.343567 8.671875,88.078308 8.39080805,86.765442 Z" id="Shape"></path>
                    <path d="M63.6566161,120 C63.000183,120 62.4847411,119.484558 62.4847411,118.828125 L62.4847411,114.187317 C62.4847411,113.530884 63.000183,113.015442 63.6566161,113.015442 C64.3121339,113.015442 64.8284911,113.530884 64.8284911,114.187317 L64.8284911,118.828125 C64.8284911,119.484558 64.3121339,120 63.6566161,120 Z" id="Path"></path>
                    <path d="M44.296875,120 C43.640442,120 43.125,119.484558 43.125,118.828125 L43.125,114.187317 C43.125,113.530884 43.640442,113.015442 44.296875,113.015442 C44.953308,113.015442 45.46875,113.530884 45.46875,114.187317 L45.46875,118.828125 C45.46875,119.484558 44.953308,120 44.296875,120 Z" id="Path"></path>
                    <path d="M69.797058,120 L38.390808,120 C37.077942,120 36.047058,118.969116 36.047058,117.65625 C36.047058,117.609558 36.047058,117.562866 36.047058,117.515259 L36.5625,107.905884 C36.6558839,105.984192 38.015442,104.343567 39.890442,103.874817 L46.125183,102.328491 L49.8284911,100.500183 C49.968567,100.405884 50.15625,100.359192 50.343933,100.359192 L57.843933,100.359192 C58.0316161,100.359192 58.2183839,100.405884 58.359375,100.500183 L62.062683,102.328491 L68.2965089,103.874817 C70.1715089,104.343567 71.531067,105.984192 71.6253661,107.905884 L72.140808,117.515259 C72.234192,118.828125 71.203308,119.906616 69.9371339,120 C69.890442,120 69.84375,120 69.797058,120 Z M50.578308,102.702942 L47.0159911,104.484558 C46.921692,104.53125 46.875,104.53125 46.7816161,104.577942 L40.4534911,106.171875 C39.562683,106.40625 38.952942,107.156067 38.90625,108.046875 L38.390808,117.65625 L69.84375,117.65625 L69.328308,108.046875 C69.2816161,107.156067 68.671875,106.40625 67.781067,106.171875 L61.452942,104.577942 C61.359558,104.577942 61.3128661,104.53125 61.218567,104.484558 L57.65625,102.702942 L50.578308,102.702942 Z" id="Shape"></path>
                    <path d="M57.843933,102.702942 L50.343933,102.702942 C49.6875,102.702942 49.172058,102.1875 49.172058,101.531067 L49.172058,99.5159911 C49.172058,99.328308 49.0777589,99.140625 48.8909911,98.9996339 C46.875,97.687683 45.46875,95.671692 44.9066161,93.327942 C44.765625,92.7191161 45.1409911,92.062683 45.7965089,91.921692 C46.218567,91.828308 46.687317,91.9683839 46.9683839,92.34375 C48.093567,93.75 49.5941161,94.734192 51.328125,95.2496339 L51.515808,95.2972411 C53.0621339,95.7183839 54.7027589,95.7183839 56.25,95.2972411 L56.3909911,95.2496339 C58.312683,94.6875 59.953308,93.515625 61.0784911,91.875 C61.452942,91.359558 62.156067,91.218567 62.7191161,91.593933 C63.093567,91.875 63.28125,92.297058 63.1878661,92.765808 C62.765808,95.2972411 61.359558,97.546692 59.296875,98.9996339 C59.1558839,99.093933 59.0625,99.2816161 59.0625,99.4683839 L59.0625,101.531067 C59.015808,102.1875 58.5003661,102.702942 57.843933,102.702942 Z M51.515808,100.359192 L56.71875,100.359192 L56.71875,99.4683839 C56.71875,98.625183 57.0941161,97.8277589 57.702942,97.265625 C57.468567,97.3590089 57.2808839,97.4066161 57.0465089,97.5 L56.906433,97.546692 C54.9371339,98.1097411 52.8277589,98.1097411 50.859375,97.546692 L50.7183839,97.5 C51.2347411,98.0621339 51.5625,98.7652589 51.5625,99.562683 L51.515808,100.359192 Z" id="Shape"></path>
                    <path d="M53.859558,97.96875 C52.8277589,97.96875 51.843567,97.8277589 50.859375,97.546692 L50.671692,97.5 C47.2503661,96.515808 44.53125,93.937683 43.312683,90.5621339 L43.078308,89.9066161 C42.1875,87.375183 41.71875,84.7503661 41.71875,82.077942 L41.71875,79.875183 C41.71875,77.062683 43.640442,74.6246339 46.359558,74.0625 C47.4371339,73.828125 48.515625,73.9215089 49.5465089,74.296875 C50.671692,73.0316161 52.265625,72.3284911 53.90625,72.3284911 L56.296692,72.3284911 C61.593933,72.3284911 65.906067,76.640625 65.906067,81.9378661 C65.906067,84.562683 65.4840089,87.1875 64.5941161,89.6722411 L64.3121339,90.515442 C63.1402589,93.8909911 60.3753661,96.4691161 56.953125,97.453308 L56.8121339,97.5 C55.8746339,97.8277589 54.890442,97.96875 53.859558,97.96875 Z M47.578125,76.2652589 C45.656433,76.2652589 44.0625,77.8125 44.0625,79.7808839 L44.0625,79.875183 L44.0625,82.077942 C44.0625,84.4683839 44.484558,86.8597411 45.281067,89.1558839 L45.515442,89.812317 C46.452942,92.4371339 48.6090089,94.499817 51.281433,95.2496339 L51.4691161,95.2972411 C53.015442,95.7183839 54.656067,95.7183839 56.203308,95.2972411 L56.3433839,95.2496339 C59.0625,94.453125 61.218567,92.4371339 62.109375,89.765625 L62.390442,88.9215089 C63.1878661,86.672058 63.562317,84.328308 63.562317,81.9378661 C63.562317,77.9058839 60.3277589,74.6722411 56.296692,74.6722411 L53.90625,74.6722411 C52.687683,74.6722411 51.515808,75.3277589 50.906067,76.40625 C50.578308,76.9683839 49.875183,77.156067 49.3121339,76.828308 C48.796692,76.452942 48.1878661,76.2652589 47.578125,76.2652589 Z" id="Shape"></path>
                    <path d="M63.937683,92.9534911 C63.703308,92.9534911 63.515625,92.9534911 63.28125,92.9058839 L62.531433,92.9058839 C61.875,92.9058839 61.359558,92.390442 61.359558,91.7340089 C61.359558,91.5472411 61.40625,91.3128661 61.4996339,91.171875 C62.4847411,89.2034911 63.093567,87.0465089 63.4222411,84.890442 C63.515625,84.2340089 64.1253661,83.8128661 64.734192,83.90625 L64.7808839,83.90625 C66.9378661,84.328308 68.484192,86.25 68.484192,88.4527589 C68.484192,90.9375 66.4691161,92.9534911 63.937683,92.9534911 Z M65.4840089,86.765442 C65.202942,88.078308 64.8284911,89.343567 64.3597411,90.6097411 C64.734192,90.5621339 65.109558,90.3753661 65.390625,90.1409911 C66.328125,89.343567 66.4691161,87.937317 65.671692,86.999817 C65.625,86.906433 65.5316161,86.8121339 65.4840089,86.765442 Z" id="Shape"></path>
                    <path d="M43.781433,92.9534911 C41.25,92.9534911 39.187317,90.890808 39.187317,88.359375 C39.187317,86.1566161 40.734558,84.2816161 42.890625,83.859558 C43.547058,83.718567 44.1558839,84.140625 44.296875,84.7503661 L44.296875,84.84375 C44.577942,87.0465089 45.187683,89.1558839 46.171875,91.125183 C46.4996339,91.687317 46.3128661,92.390442 45.749817,92.7191161 C45.5621339,92.8125 45.3753661,92.859192 45.187683,92.859192 L44.484558,92.859192 C44.2034911,92.9534911 43.9691161,92.9534911 43.781433,92.9534911 Z M42.1875,86.765442 C41.296692,87.609558 41.25,89.015808 42.140808,89.9066161 C42.1875,89.953308 42.2808839,90.046692 42.3284911,90.0933839 C42.609558,90.3277589 42.937317,90.515442 43.312683,90.5621339 C42.843933,89.343567 42.468567,88.078308 42.1875,86.765442 Z" id="Shape"></path>
                    <path d="M97.453308,120 C96.796875,120 96.281433,119.484558 96.281433,118.828125 L96.281433,114.187317 C96.281433,113.530884 96.796875,113.015442 97.453308,113.015442 C98.1097411,113.015442 98.625183,113.530884 98.625183,114.187317 L98.625183,118.828125 C98.625183,119.484558 98.1097411,120 97.453308,120 Z" id="Path"></path>
                    <path d="M78.093567,120 C77.4371339,120 76.921692,119.484558 76.921692,118.828125 L76.921692,114.187317 C76.921692,113.530884 77.4371339,113.015442 78.093567,113.015442 C78.75,113.015442 79.265442,113.530884 79.265442,114.187317 L79.265442,118.828125 C79.265442,119.484558 78.75,120 78.093567,120 Z" id="Path"></path>
                    <path d="M103.640442,120 L72.1875,120 C70.8746339,120 69.84375,118.969116 69.84375,117.65625 C69.84375,117.609558 69.84375,117.562866 69.84375,117.515259 L70.359192,107.905884 C70.4534911,105.984192 71.8121339,104.343567 73.6871339,103.874817 L79.921875,102.328491 L83.625183,100.500183 C83.7652589,100.405884 83.952942,100.359192 84.140625,100.359192 L91.687317,100.359192 C91.875,100.359192 92.062683,100.405884 92.2027589,100.500183 L95.906067,102.328491 L102.140808,103.874817 C104.015808,104.343567 105.375366,105.984192 105.46875,107.905884 L105.984192,117.515259 C106.078491,118.828125 105.046692,119.906616 103.781433,120 C103.734741,120 103.687134,120 103.640442,120 Z M84.421692,102.702942 L80.859375,104.484558 C80.7659911,104.53125 80.7183839,104.53125 80.625,104.577942 L74.296875,106.171875 C73.406067,106.40625 72.7972411,107.156067 72.7496339,108.046875 L72.234192,117.65625 L103.687134,117.65625 L103.171692,108.046875 C103.125,107.156067 102.515259,106.40625 101.625366,106.171875 L95.2972411,104.577942 C95.202942,104.577942 95.15625,104.53125 95.0628661,104.484558 L91.4996339,102.702942 L84.421692,102.702942 Z" id="Shape"></path>
                    <path d="M91.687317,102.702942 L84.140625,102.702942 C83.718567,102.702942 82.96875,102.515259 82.96875,101.25 L82.96875,99.562683 C82.96875,99.375 82.8753661,99.187317 82.687683,99.0472411 C80.671692,97.734375 79.265442,95.7183839 78.703308,93.3746339 C78.562317,92.765808 78.937683,92.109375 79.5941161,91.9683839 C80.0152589,91.875 80.4840089,92.0159911 80.7659911,92.390442 C81.8902589,93.796692 83.390808,94.7808839 85.124817,95.2972411 L85.3125,95.343933 C86.8597411,95.7659911 88.5003661,95.7659911 90.046692,95.343933 L90.187683,95.2972411 C92.109375,94.734192 93.75,93.562317 94.875183,91.921692 C95.2496339,91.40625 95.9527589,91.2652589 96.515808,91.640625 C96.8902589,91.921692 97.077942,92.34375 96.984558,92.8125 C96.5625,95.343933 95.15625,97.5933839 93.093567,99.0472411 C92.9534911,99.140625 92.859192,99.328308 92.859192,99.5159911 L92.859192,101.577759 C92.859192,102.1875 92.297058,102.702942 91.687317,102.702942 Z M85.3125,100.359192 L90.515442,100.359192 L90.515442,99.4683839 C90.515442,98.625183 90.890808,97.8277589 91.4996339,97.265625 C91.2652589,97.3590089 91.0784911,97.4066161 90.8441161,97.5 L90.703125,97.546692 C88.7347411,98.1097411 86.6253661,98.1097411 84.656067,97.546692 L84.5159911,97.5 C85.031433,98.0621339 85.359192,98.7652589 85.359192,99.562683 L85.3125,100.359192 Z" id="Shape"></path>
                    <path d="M87.65625,97.96875 C86.6253661,97.96875 85.6402589,97.8277589 84.656067,97.546692 L84.4683839,97.5 C81.047058,96.515808 78.327942,93.937683 77.109375,90.5621339 L76.875,89.9066161 C75.984192,87.375183 75.515442,84.7503661 75.515442,82.077942 L75.515442,79.875183 C75.515442,77.062683 77.4371339,74.6246339 80.15625,74.0625 C81.2347411,73.828125 82.312317,73.9215089 83.3441161,74.296875 C84.4683839,73.0316161 86.062317,72.3284911 87.702942,72.3284911 L90.0933839,72.3284911 C95.390625,72.3284911 99.7027589,76.640625 99.7027589,81.9378661 C99.7027589,84.562683 99.2816161,87.1875 98.390808,89.6722411 L98.1097411,90.515442 C96.9378661,93.8909911 94.172058,96.4691161 90.749817,97.453308 L90.6097411,97.5 C89.718933,97.8277589 88.6871339,97.96875 87.65625,97.96875 Z M81.374817,76.2652589 C79.453125,76.2652589 77.859192,77.8125 77.859192,79.7808839 L77.859192,79.875183 L77.859192,82.077942 C77.859192,84.4683839 78.28125,86.8597411 79.0777589,89.1558839 L79.3121339,89.812317 C80.2496339,92.4371339 82.4066161,94.499817 85.078125,95.2496339 L85.265808,95.2972411 C86.8121339,95.7183839 88.4527589,95.7183839 90,95.2972411 L90.1409911,95.2496339 C92.859192,94.453125 95.0152589,92.4371339 95.906067,89.765625 L96.1871339,88.9215089 C96.984558,86.672058 97.3590089,84.328308 97.3590089,81.9378661 C97.3590089,77.9058839 94.1253661,74.6722411 90.0933839,74.6722411 L87.702942,74.6722411 C86.484375,74.6722411 85.3125,75.3277589 84.7027589,76.40625 C84.375,76.9683839 83.671875,77.156067 83.1097411,76.828308 C82.6409911,76.452942 82.03125,76.2652589 81.374817,76.2652589 Z" id="Shape"></path>
                    <path d="M97.781067,92.9534911 C97.546692,92.9534911 97.3590089,92.9534911 97.1246339,92.9058839 L96.374817,92.9058839 C95.7183839,92.9058839 95.202942,92.390442 95.202942,91.7340089 C95.202942,91.5472411 95.2496339,91.3128661 95.343933,91.171875 C96.328125,89.2034911 96.9378661,87.0465089 97.265625,84.890442 C97.3590089,84.2340089 97.96875,83.8128661 98.5784911,83.90625 L98.625183,83.90625 C100.78125,84.328308 102.328491,86.25 102.328491,88.4527589 C102.328491,90.9375 100.265808,92.9534911 97.781067,92.9534911 Z M99.2816161,86.765442 C98.9996339,88.078308 98.625183,89.343567 98.156433,90.6097411 C98.5308839,90.5621339 98.90625,90.3753661 99.187317,90.1409911 C100.124817,89.343567 100.265808,87.937317 99.4683839,86.999817 C99.421692,86.906433 99.375,86.8121339 99.2816161,86.765442 Z" id="Shape"></path>
                    <path d="M77.578125,92.9534911 C75.046692,92.9534911 72.9840089,90.890808 72.9840089,88.359375 C72.9840089,86.1566161 74.53125,84.2816161 76.687317,83.859558 C77.34375,83.718567 77.9534911,84.140625 78.093567,84.7503661 L78.093567,84.84375 C78.3746339,87.0465089 78.984375,89.1558839 79.968567,91.125183 C80.2972411,91.687317 80.109558,92.390442 79.5465089,92.7191161 C79.3597411,92.8125 79.172058,92.859192 78.984375,92.859192 L78.28125,92.859192 C78.000183,92.9534911 77.765808,92.9534911 77.578125,92.9534911 Z M76.0308839,86.765442 C75.1409911,87.609558 75.0933839,89.015808 75.984192,89.9066161 C76.0308839,89.953308 76.125183,90.046692 76.171875,90.0933839 C76.452942,90.3277589 76.7816161,90.515442 77.156067,90.5621339 C76.640625,89.343567 76.2652589,88.078308 76.0308839,86.765442 Z" id="Shape"></path>
                    <path d="M100.3125,78.468933 L97.218933,78.468933 C96.843567,78.468933 96.4691161,78.28125 96.2347411,77.9534911 C94.875183,75.890808 92.624817,74.6722411 90.1409911,74.6722411 L87.7496339,74.6722411 C86.531067,74.6722411 85.359192,75.3277589 84.7503661,76.40625 C84.421692,76.9683839 83.718567,77.156067 83.156433,76.828308 C82.4066161,76.359558 81.515808,76.218567 80.671692,76.40625 C79.734192,76.593933 78.937683,77.156067 78.468933,78.000183 C78.234558,78.327942 77.859192,78.562317 77.4847411,78.562317 L63.468933,78.562317 C63.093567,78.562317 62.7191161,78.3746339 62.4847411,78.046875 C61.125183,75.984192 58.874817,74.765625 56.3909911,74.765625 L53.9996339,74.765625 C52.781067,74.765625 51.609192,75.422058 51.0003661,76.4996339 C50.671692,77.062683 49.968567,77.2503661 49.406433,76.921692 C48.6566161,76.452942 47.765808,76.3128661 46.921692,76.4996339 C45.984192,76.687317 45.187683,77.2503661 44.718933,78.093567 C44.484558,78.4222411 44.109192,78.6566161 43.7347411,78.6566161 L29.6246339,78.6566161 C29.250183,78.6566161 28.874817,78.468933 28.640442,78.1402589 C27.2808839,76.0784911 25.031433,74.8590089 22.546692,74.8590089 L20.15625,74.8590089 C18.937683,74.8590089 17.765808,75.515442 17.156067,76.593933 C16.828308,77.156067 16.125183,77.34375 15.5621339,77.0159911 C14.812317,76.5472411 13.9215089,76.40625 13.078308,76.593933 C12.140808,76.7816161 11.3433839,77.34375 10.8746339,78.1878661 C10.6402589,78.515625 10.265808,78.75 9.89044195,78.75 L7.92205805,78.75 C5.34393305,78.75 3.28125,76.687317 3.28125,74.109192 L3.28125,10.1715089 C3.28125,9.51599109 3.79669195,8.99963391 4.453125,8.99963391 L103.828125,8.99963391 C104.484558,8.99963391 105,9.51599109 105,10.1715089 L105,73.828125 C104.953308,76.40625 102.890625,78.468933 100.3125,78.468933 Z M97.8277589,76.125183 L100.3125,76.125183 C101.577759,76.125183 102.609558,75.0933839 102.609558,73.828125 L102.609558,11.3433839 L5.57830805,11.3433839 L5.57830805,73.828125 C5.57830805,75.0933839 6.60919195,76.125183 7.87536609,76.125183 L9.23400891,76.125183 C10.078125,75.046692 11.25,74.296875 12.609558,74.0625 C13.6871339,73.828125 14.765625,73.9215089 15.7965089,74.296875 C16.921692,73.0316161 18.515625,72.3284911 20.15625,72.3284911 L22.546692,72.3284911 C25.546875,72.3284911 28.406067,73.7347411 30.187683,76.171875 L42.9840089,76.171875 C43.828125,75.0933839 45,74.343567 46.359558,74.109192 C47.4371339,73.874817 48.515625,73.9691161 49.5465089,74.343567 C50.671692,73.078308 52.265625,72.375183 53.90625,72.375183 L56.296692,72.375183 C59.296875,72.375183 62.156067,73.781433 63.937683,76.218567 L76.7340089,76.218567 C77.578125,75.1409911 78.75,74.3902589 80.109558,74.1558839 C81.1871339,73.9215089 82.265625,74.015808 83.2965089,74.3902589 C84.421692,73.125 86.015625,72.421875 87.65625,72.421875 L90.046692,72.421875 C93.1878661,72.3284911 96.047058,73.7347411 97.8277589,76.125183 Z" id="Shape"></path>
                </g>
                <path d="M96.515808,24.2340089 L49.6875,24.2340089 C49.921875,24.797058 50.0628661,25.4534911 50.0628661,26.062317 L50.0628661,32.390442 C51.4691161,33.75 51.515808,35.9527589 50.202942,37.3590089 C49.406433,38.203125 48.234558,38.5784911 47.062683,38.390808 C46.875,41.296692 45.187683,43.874817 42.65625,45.234375 L42.65625,48.515625 L46.593933,50.4840089 L50.812683,51.5625 C52.312317,51.9378661 53.671875,52.8277589 54.7027589,54.0472411 L59.015808,59.9066161 C59.1558839,60.0933839 59.3902589,60.1409911 59.577942,60 L66.796875,53.484192 L68.952942,51.515808 C71.765442,49.172058 75.890808,51.8902589 74.8590089,55.359192 C74.6722411,56.062317 74.250183,56.672058 73.6871339,57.140808 L71.5777589,58.874817 L71.531067,58.9215089 L63.046875,66.0003661 L93.796692,66.0003661 C95.2972411,66.0003661 96.515808,64.7808839 96.515808,63.28125 L96.515808,24.2340089 Z" id="Path" fill="#E9E9EA"></path>
                <path d="M48.6090089,61.593933 L48.6090089,66.047058 L53.859558,66.047058 L49.640808,61.125183 C49.406433,60.890808 48.984375,60.9375 48.75,61.171875 C48.6566161,61.2652589 48.6090089,61.40625 48.6090089,61.593933 Z" id="Path" fill="#E9E9EA"></path>
                <path d="M89.2034911,39.5159911 C89.2034911,44.4863892 85.1733398,48.515625 80.202942,48.515625 C75.2325441,48.515625 71.203308,44.4863892 71.203308,39.5159911 C71.203308,34.5446777 75.2325441,30.515442 80.202942,30.515442 C85.1733398,30.515442 89.2034911,34.5446777 89.2034911,39.5159911 Z" id="Path" fill="#60BAE2"></path>
                <path d="M80.202942,30.515442 L80.202942,39.5159911 L89.2034911,39.5159911 C89.2034911,34.5465089 85.1715089,30.515442 80.202942,30.515442 Z" id="Path" fill="#F75C64"></path>
                <path d="M80.202942,39.5159911 L85.593567,46.7340089 C87.843933,45.046692 89.2034911,42.375183 89.2034911,39.5159911 L80.202942,39.5159911 Z" id="Path" fill="#FFAE2C"></path>
                <path d="M74.2034911,51.984558 C72.937317,50.390625 70.593567,50.15625 68.9996339,51.4215089 C68.9996339,51.4215089 68.952942,51.4691161 68.952942,51.4691161 L59.577942,59.953308 C59.3902589,60.0933839 59.1558839,60.0933839 59.015808,59.9066161 L54.7027589,54.0472411 C53.718567,52.8277589 52.3590089,51.984558 50.812683,51.5625 L46.593933,50.4840089 L42.65625,48.515625 L41.3433839,52.3590089 C41.25,52.5933839 41.062317,52.734375 40.827942,52.734375 L36.750183,52.734375 C36.515808,52.734375 36.281433,52.5933839 36.2347411,52.3590089 L34.921875,48.515625 L30.984192,50.4840089 L24.421692,52.1246339 C23.015442,52.5 21.984558,53.718567 21.8902589,55.1715089 L20.9527589,72.234192 L48.6090089,72.234192 L48.6090089,61.5472411 C48.6090089,61.218567 48.8909911,60.9375 49.21875,60.9375 C49.3597411,60.9375 49.499817,60.984192 49.640808,61.0784911 L55.827942,68.249817 C56.953125,69.421692 58.781433,69.5159911 60.046692,68.484192 L73.7347411,57.0941161 C75.234375,55.827942 75.46875,53.5308839 74.2034911,51.984558 Z" id="Path" fill="#60BAE2"></path>
                <path d="M29.6246339,31.40625 C29.812317,31.40625 30,31.40625 30.187683,31.452942 L30.187683,31.0308839 C30.187683,30.7965089 30.3753661,30.5621339 30.656433,30.5621339 L30.749817,30.5621339 C32.297058,30.890808 36.843567,31.452942 39.9371339,27.5628661 C40.078125,27.375183 40.359192,27.3284911 40.593567,27.468567 C40.593567,27.468567 40.6402589,27.468567 40.6402589,27.5152589 C41.3433839,28.2183839 43.2183839,29.6246339 46.7340089,29.718933 C46.9683839,29.718933 47.156067,29.9066161 47.156067,30.1409911 L47.156067,30.281067 L47.156067,31.452942 C48.234558,31.2652589 49.3597411,31.640625 50.15625,32.390442 L50.15625,26.062317 C50.15625,23.390808 48.000183,21.2347411 45.3277589,21.2347411 C44.4378661,21.2347411 43.59375,21.4691161 42.843933,21.9378661 C41.953125,20.4840089 40.4058839,19.5941161 38.718567,19.5941161 L36.2347411,19.5941161 C31.40625,19.5941161 27.5152589,23.484192 27.5152589,28.312683 L27.5152589,32.2027589 C28.0316161,31.687317 28.828125,31.40625 29.6246339,31.40625 Z" id="Path" fill="#6D6C6B"></path>
                <path d="M96.515808,18.1878661 L42.65625,18.1878661 C41.6253661,18.1878661 40.6878661,18.8909911 40.4058839,19.921875 C41.3909911,20.2972411 42.234192,21.047058 42.7496339,21.9378661 C43.5003661,21.4691161 44.343567,21.2347411 45.234375,21.2347411 C47.2027589,21.2347411 48.937683,22.4066161 49.6875,24.2340089 L96.515808,24.2340089 C97.781067,24.2340089 98.8128661,23.203125 98.8128661,21.9378661 L98.8128661,20.5316161 C98.8128661,19.21875 97.781067,18.1878661 96.515808,18.1878661 Z" id="Path" fill="#6D6C6B"></path>
                <path d="M47.624817,31.40625 C47.4371339,31.40625 47.2503661,31.40625 47.062683,31.452942 L47.062683,32.0159911 L47.062683,37.8277589 L47.062683,38.390808 C48.984375,38.718567 50.812683,37.4066161 51.09375,35.4840089 C51.4215089,33.562317 50.109558,31.7340089 48.1878661,31.452942 C48.000183,31.452942 47.8125,31.40625 47.624817,31.40625 Z" id="Path" fill="#F9D0B4"></path>
                <path d="M30.1409911,37.8753661 L30.1409911,32.062683 C30.1409911,31.875 30.1409911,31.687317 30.1409911,31.4996339 C28.2183839,31.171875 26.3909911,32.4847411 26.062317,34.406433 C25.734558,36.328125 27.0465089,38.156433 28.9691161,38.484192 C29.343567,38.5308839 29.765625,38.5308839 30.1409911,38.484192 C30.1409911,38.249817 30.1409911,38.0621339 30.1409911,37.8753661 Z" id="Path" fill="#F9D0B4"></path>
                <path d="M39.890442,27.609558 C36.796875,31.4996339 32.2503661,30.9375 30.703125,30.6097411 C30.46875,30.5621339 30.234375,30.703125 30.187683,30.9375 L30.187683,31.0308839 L30.187683,37.8277589 C30.187683,42.5152589 33.984375,46.2652589 38.625183,46.2652589 C43.312683,46.2652589 47.062683,42.468567 47.062683,37.8277589 L47.062683,30.3277589 C47.062683,30.281067 47.062683,30.234375 47.062683,30.187683 C47.062683,29.953308 46.875,29.765625 46.640625,29.765625 C43.125,29.6722411 41.296692,28.2659911 40.546875,27.5628661 C40.359192,27.375183 40.078125,27.375183 39.890442,27.609558 Z" id="Path" fill="#F9D0B4"></path>
                <path d="M38.625183,46.3128661 C37.312317,46.3128661 36.0003661,45.984192 34.875183,45.422058 L34.875183,48.562317 L36.1871339,52.4066161 C36.281433,52.6409911 36.4691161,52.781067 36.7034911,52.781067 L40.78125,52.781067 C41.015625,52.781067 41.25,52.6409911 41.296692,52.4066161 L42.609558,48.562317 L42.609558,45.3277589 C41.3909911,45.984192 40.031433,46.3128661 38.625183,46.3128661 Z" id="Path" fill="#F9D0B4"></path>
                <path d="M68.952942,51.4691161 L66.796875,53.4375 L71.5777589,58.9215089 L73.7347411,57.140808 C75.281067,55.827942 75.515442,53.484192 74.2034911,51.9378661 C72.843933,50.343933 70.500183,50.15625 68.952942,51.4691161 Z" id="Path" fill="#F9D0B4"></path>
                <path d="M47.624817,39.656067 C47.390442,39.656067 47.109375,39.656067 46.875,39.609375 C46.2652589,39.5159911 45.8441161,38.9996339 45.890808,38.390808 C45.890808,38.249817 45.890808,38.0621339 45.890808,37.922058 L45.890808,32.062683 C45.890808,31.875 45.890808,31.7340089 45.890808,31.593933 C45.8441161,30.984192 46.2652589,30.46875 46.875,30.3753661 C47.109375,30.3277589 47.390442,30.3277589 47.624817,30.3277589 C50.202942,30.281067 52.3590089,32.390442 52.3590089,34.968567 C52.4066161,37.546692 50.2972411,39.7027589 47.7191161,39.7027589 C47.6715089,39.656067 47.624817,39.656067 47.624817,39.656067 Z M48.234558,32.6715089 L48.234558,37.218933 C49.499817,36.8902589 50.202942,35.578308 49.875183,34.3121339 C49.640808,33.515625 49.031067,32.9058839 48.234558,32.6715089 Z" id="Shape" fill="#231F20"></path>
                <path d="M29.6246339,39.656067 C27.0465089,39.7027589 24.890442,37.5933839 24.890442,35.0152589 C24.84375,32.4371339 26.953125,30.281067 29.53125,30.281067 L29.6246339,30.281067 C29.8590089,30.281067 30.1409911,30.281067 30.3753661,30.3277589 C30.984192,30.422058 31.40625,30.9375 31.359558,31.5472411 L31.359558,32.0159911 L31.359558,37.8277589 L31.359558,38.2965089 C31.40625,38.90625 30.984192,39.421692 30.3753661,39.5159911 C30.0933839,39.656067 29.8590089,39.656067 29.6246339,39.656067 Z M28.9691161,32.6715089 C27.702942,33.000183 26.999817,34.3121339 27.3284911,35.578308 C27.5628661,36.374817 28.171692,36.984558 28.9691161,37.218933 L28.9691161,32.6715089 Z" id="Shape" fill="#231F20"></path>
                <path d="M38.625183,47.4847411 C33.327942,47.4847411 29.015808,43.171692 29.015808,37.8753661 L29.015808,31.0784911 C29.015808,30.187683 29.718933,29.4378661 30.656433,29.4378661 C30.749817,29.4378661 30.890808,29.4378661 30.984192,29.484558 C32.531433,29.812317 36.374817,30.187683 38.9996339,26.906433 C39.562683,26.203308 40.593567,26.062317 41.296692,26.6253661 C41.3433839,26.672058 41.3909911,26.71875 41.437683,26.71875 C41.953125,27.234192 43.547058,28.5003661 46.7340089,28.59375 C47.578125,28.640442 48.28125,29.296875 48.327942,30.187683 L48.327942,37.8753661 C48.234558,43.171692 43.9215089,47.4847411 38.625183,47.4847411 Z M31.3128661,31.921692 L31.3128661,37.8753661 C31.3128661,41.906433 34.5941161,45.1409911 38.5784911,45.1409911 C42.5628661,45.1409911 45.890808,41.906433 45.890808,37.8753661 L45.890808,30.890808 C43.874817,30.7965089 41.906433,30.0933839 40.3125,28.9215089 C37.312317,32.156067 33.327942,32.156067 31.3128661,31.921692 Z" id="Shape" fill="#231F20"></path>
                <path d="M50.0628661,33.6090089 C49.7808839,33.6090089 49.453125,33.468933 49.265442,33.28125 C48.75,32.765808 48.000183,32.531433 47.2503661,32.6715089 C46.593933,32.765808 46.0308839,32.34375 45.890808,31.687317 C45.890808,31.640625 45.890808,31.5472411 45.890808,31.4996339 L45.890808,30.9375 C43.874817,30.8441161 41.906433,30.1409911 40.3125,28.9691161 C37.265625,32.2503661 33.234558,32.2503661 31.2652589,31.9683839 C31.0784911,32.4847411 30.515442,32.765808 30,32.6715089 C29.343567,32.578125 28.6871339,32.7191161 28.171692,33.1402589 C27.65625,33.562317 26.906433,33.468933 26.531067,32.9534911 C26.3433839,32.765808 26.25,32.4847411 26.25,32.2027589 L26.25,28.312683 C26.25,22.8277589 30.703125,18.4222411 36.140442,18.4222411 L38.625183,18.4222411 C40.359192,18.4222411 41.999817,19.172058 43.125,20.4840089 C43.781433,20.2496339 44.484558,20.109558 45.234375,20.109558 C48.562317,20.109558 51.2347411,22.781067 51.2347411,26.1090089 L51.2347411,32.4371339 C51.2347411,33.046875 50.7183839,33.6090089 50.0628661,33.6090089 Z M48.234558,30.281067 C48.468933,30.3277589 48.6566161,30.3753661 48.8909911,30.422058 L48.8909911,26.062317 C48.8909911,24.0472411 47.2503661,22.4066161 45.281067,22.4066161 C44.6246339,22.4066161 43.9691161,22.5933839 43.406067,22.922058 C42.843933,23.249817 42.140808,23.0621339 41.8121339,22.5 C41.1566161,21.374817 39.9847411,20.7183839 38.671875,20.7183839 L36.1871339,20.7183839 C32.0159911,20.7183839 28.640442,24.093933 28.640442,28.2659911 L28.640442,30.3277589 C28.828125,30.281067 29.0625,30.234375 29.250183,30.234375 C29.577942,29.6246339 30.3277589,29.296875 30.984192,29.4378661 C32.531433,29.765625 36.374817,30.1409911 38.9996339,26.8597411 C39.562683,26.1566161 40.593567,26.015625 41.296692,26.5777589 C41.3433839,26.6253661 41.3909911,26.672058 41.437683,26.672058 C41.953125,27.1875 43.547058,28.4527589 46.7340089,28.547058 C47.578125,28.59375 48.28125,29.250183 48.327942,30.1409911 L48.234558,30.281067 Z" id="Shape" fill="#231F20"></path>
                <path d="M38.718567,58.59375 C38.390808,58.59375 38.1097411,58.4527589 37.8753661,58.2659911 C37.8277589,58.2183839 37.781067,58.171692 37.734375,58.078308 C37.687683,58.0316161 37.6409911,57.937317 37.6409911,57.890625 C37.5933839,57.7972411 37.5933839,57.7496339 37.5933839,57.65625 C37.5933839,57.5628661 37.5933839,57.5152589 37.546692,57.421875 C37.546692,57.0941161 37.687683,56.8121339 37.8753661,56.5777589 C37.922058,56.531067 37.96875,56.484375 38.0621339,56.437683 C38.203125,56.3433839 38.3441161,56.296692 38.484192,56.25 C38.625183,56.203308 38.8128661,56.203308 38.952942,56.25 C39.093933,56.296692 39.2340089,56.3433839 39.375,56.437683 C39.421692,56.484375 39.5159911,56.531067 39.562683,56.5777589 C39.797058,56.8121339 39.890442,57.0941161 39.890442,57.421875 C39.890442,57.5152589 39.890442,57.5628661 39.84375,57.65625 C39.84375,57.7496339 39.797058,57.7972411 39.797058,57.890625 C39.7503661,57.9840089 39.7503661,58.0316161 39.7027589,58.078308 C39.656067,58.125 39.609375,58.2183839 39.562683,58.2659911 C39.328308,58.4527589 39.0472411,58.59375 38.718567,58.59375 Z" id="Path" fill="#231F20"></path>
                <path d="M38.718567,63.093567 C38.390808,63.093567 38.1097411,62.9534911 37.8753661,62.765808 C37.8277589,62.7191161 37.781067,62.6715089 37.734375,62.578125 C37.687683,62.531433 37.6409911,62.4371339 37.6409911,62.390442 C37.5933839,62.297058 37.5933839,62.2503661 37.5933839,62.156067 C37.546692,62.0159911 37.546692,61.828308 37.5933839,61.687317 C37.5933839,61.593933 37.6409911,61.5472411 37.6409911,61.452942 C37.687683,61.40625 37.687683,61.3128661 37.734375,61.2652589 C37.781067,61.218567 37.8277589,61.125183 37.8753661,61.0784911 C38.203125,60.749817 38.718567,60.656433 39.140625,60.8441161 C39.2340089,60.890808 39.2816161,60.890808 39.328308,60.9375 C39.375,60.984192 39.4683839,61.0308839 39.5159911,61.0784911 C39.562683,61.125183 39.609375,61.171875 39.656067,61.2652589 C39.7027589,61.3128661 39.7503661,61.40625 39.7503661,61.452942 C39.797058,61.5472411 39.797058,61.593933 39.797058,61.687317 C39.84375,61.828308 39.84375,62.0159911 39.797058,62.156067 C39.797058,62.2503661 39.7503661,62.297058 39.7503661,62.390442 C39.7027589,62.4847411 39.7027589,62.531433 39.656067,62.578125 C39.609375,62.624817 39.562683,62.7191161 39.5159911,62.765808 C39.4683839,62.8125 39.421692,62.859192 39.328308,62.9058839 C39.2816161,62.9534911 39.187317,63.000183 39.140625,63.000183 C39.0472411,63.046875 38.9996339,63.046875 38.90625,63.046875 C38.90625,63.093567 38.8128661,63.093567 38.718567,63.093567 Z" id="Path" fill="#231F20"></path>
                <path d="M38.718567,67.6409911 C38.625183,67.6409911 38.5784911,67.6409911 38.484192,67.5933839 C38.390808,67.5933839 38.3441161,67.546692 38.249817,67.546692 C38.015442,67.453308 37.8277589,67.312317 37.734375,67.1246339 C37.687683,67.077942 37.6409911,66.984558 37.6409911,66.9378661 C37.5933839,66.8902589 37.5933839,66.796875 37.5933839,66.7034911 C37.5933839,66.609192 37.5933839,66.5625 37.546692,66.4691161 C37.546692,66.374817 37.546692,66.328125 37.5933839,66.2347411 C37.5933839,66.140442 37.6409911,66.09375 37.6409911,66.0003661 C37.687683,65.9527589 37.687683,65.859375 37.734375,65.812683 C37.781067,65.7659911 37.8277589,65.671692 37.8753661,65.625 C37.922058,65.578308 37.96875,65.5316161 38.0621339,65.4840089 C38.1097411,65.437317 38.203125,65.390625 38.249817,65.390625 C38.2965089,65.343933 38.390808,65.343933 38.484192,65.343933 C38.625183,65.2972411 38.8128661,65.2972411 38.952942,65.343933 C39.093933,65.390625 39.2340089,65.437317 39.375,65.5316161 C39.421692,65.578308 39.5159911,65.625 39.562683,65.671692 C39.609375,65.7183839 39.656067,65.7659911 39.7027589,65.859375 C39.7503661,65.906067 39.797058,66.0003661 39.797058,66.047058 C39.84375,66.140442 39.84375,66.1871339 39.84375,66.281433 C39.84375,66.374817 39.890442,66.4215089 39.890442,66.515808 C39.890442,66.609192 39.890442,66.6558839 39.84375,66.750183 C39.84375,66.843567 39.797058,66.8902589 39.797058,66.984558 C39.7503661,67.077942 39.7503661,67.1246339 39.7027589,67.1722411 C39.656067,67.218933 39.609375,67.312317 39.562683,67.3590089 C39.5159911,67.4066161 39.4683839,67.453308 39.375,67.5 C39.328308,67.546692 39.2340089,67.5933839 39.187317,67.5933839 C39.093933,67.6409911 39.0472411,67.6409911 38.952942,67.6409911 C38.90625,67.5933839 38.8128661,67.6409911 38.718567,67.6409911 Z" id="Path" fill="#231F20"></path>
                <path d="M28.59375,73.406067 C27.937317,73.406067 27.421875,72.890625 27.421875,72.234192 L27.421875,61.40625 C27.421875,60.749817 27.937317,60.234375 28.59375,60.234375 C29.250183,60.234375 29.765625,60.749817 29.765625,61.40625 L29.765625,72.234192 C29.765625,72.890625 29.250183,73.406067 28.59375,73.406067 Z" id="Path" fill="#231F20"></path>
                <path d="M40.78125,53.952942 L36.7034911,53.952942 C35.9527589,53.952942 35.2972411,53.484192 35.0628661,52.781067 L33.75,48.937683 C33.703308,48.796692 33.703308,48.703308 33.703308,48.562317 L33.703308,45.422058 C33.703308,44.765625 34.21875,44.250183 34.875183,44.250183 C35.0628661,44.250183 35.2496339,44.296875 35.390625,44.3902589 C36.374817,44.9066161 37.5,45.187683 38.625183,45.1409911 C39.84375,45.1409911 41.015625,44.8590089 42.0941161,44.250183 C42.65625,43.9215089 43.359375,44.1558839 43.6871339,44.718933 C43.781433,44.9066161 43.828125,45.0933839 43.828125,45.281067 L43.828125,48.515625 C43.828125,48.6566161 43.828125,48.796692 43.781433,48.8909911 L42.468567,52.734375 C42.1875,53.484192 41.531067,53.952942 40.78125,53.952942 Z M37.1246339,51.609192 L40.3125,51.609192 L41.437683,48.3746339 L41.437683,47.062683 C39.656067,47.624817 37.781067,47.624817 36.0003661,47.156067 L36.0003661,48.3746339 L37.1246339,51.609192 Z" id="Shape" fill="#231F20"></path>
                <path d="M96.515808,25.4058839 L49.6875,25.4058839 C49.21875,25.4058839 48.796692,25.124817 48.6090089,24.7027589 C47.859192,22.8277589 45.749817,21.9378661 43.874817,22.687683 C43.6871339,22.781067 43.547058,22.8277589 43.359375,22.922058 C42.7972411,23.249817 42.0941161,23.0621339 41.765442,22.5 C41.3433839,21.796875 40.734558,21.281433 39.9847411,20.9527589 C39.421692,20.7183839 39.140625,20.15625 39.2816161,19.5465089 C39.7027589,18.000183 41.062317,16.9683839 42.65625,16.9683839 L96.515808,16.9683839 C98.4375,16.9683839 99.9847411,18.515625 99.9847411,20.437317 L99.9847411,21.843567 C99.9847411,23.859558 98.4375,25.4058839 96.515808,25.4058839 Z M50.437317,23.0621339 L96.515808,23.0621339 C97.1246339,23.0621339 97.6409911,22.546692 97.6409911,21.9378661 L97.6409911,20.5316161 C97.6409911,19.921875 97.1246339,19.406433 96.515808,19.406433 L42.65625,19.406433 C42.468567,19.406433 42.2808839,19.453125 42.0941161,19.5465089 C42.468567,19.8284911 42.843933,20.15625 43.125,20.4840089 C45.890808,19.406433 48.937683,20.5316161 50.437317,23.0621339 Z" id="Shape" fill="#231F20"></path>
                <path d="M48.6090089,73.406067 L20.9527589,73.406067 C20.2972411,73.406067 19.7808839,72.890625 19.7808839,72.234192 L19.7808839,72.1875 L20.625,55.1715089 C20.7183839,53.203125 22.1246339,51.515808 24.0472411,51.047058 L30.515442,49.406433 L34.3597411,47.531433 C34.921875,47.2503661 35.625,47.4847411 35.906067,48.046875 C35.906067,48.093567 35.9527589,48.1402589 35.9527589,48.1878661 L37.1246339,51.609192 L40.3125,51.609192 L41.484375,48.1878661 C41.71875,47.578125 42.375183,47.2503661 42.9840089,47.4847411 C43.0316161,47.4847411 43.078308,47.531433 43.125,47.531433 L46.9683839,49.406433 L51.09375,50.437317 C52.8753661,50.906067 54.421692,51.8902589 55.593567,53.2965089 L55.6402589,53.3441161 L59.4378661,58.5003661 L68.203125,50.578308 C70.2191161,48.8433839 73.312683,49.0777589 75.046692,51.09375 C75.0933839,51.140442 75.0933839,51.1871339 75.1409911,51.1871339 C76.7816161,53.249817 76.4996339,56.25 74.484558,57.9840089 L60.7965089,69.421692 C59.0625,70.8746339 56.531067,70.6878661 54.9847411,69.093933 C54.9847411,69.093933 54.9371339,69.0472411 54.9371339,69.0472411 L49.7808839,63.093567 L49.7808839,72.234192 C49.7808839,72.890625 49.265442,73.406067 48.6090089,73.406067 Z M22.218933,71.062317 L47.4847411,71.062317 L47.4847411,61.5472411 C47.4847411,60.5621339 48.28125,59.765625 49.265442,59.765625 C49.6875,59.765625 50.109558,59.9066161 50.437317,60.187683 C50.4840089,60.234375 50.5316161,60.281067 50.578308,60.3277589 L56.71875,67.453308 C57.421875,68.156433 58.547058,68.203125 59.296875,67.5933839 L72.9840089,56.203308 C74.015808,55.3125 74.2034911,53.7652589 73.312683,52.687683 C72.421875,51.609192 70.8746339,51.4215089 69.7503661,52.312317 C69.7503661,52.312317 69.7027589,52.3590089 69.7027589,52.3590089 L60.3277589,60.8441161 C60,61.125183 59.53125,61.2652589 59.109192,61.218567 C58.6871339,61.171875 58.2659911,60.9375 58.0316161,60.6097411 L53.7652589,54.7503661 C52.922058,53.7652589 51.796875,53.015442 50.5316161,52.687683 L46.3128661,51.609192 C46.218567,51.609192 46.171875,51.5625 46.0784911,51.515808 L43.312683,50.15625 L42.421875,52.734375 C42.1875,53.4375 41.531067,53.90625 40.78125,53.90625 L36.7034911,53.90625 C35.9527589,53.90625 35.2972411,53.4375 35.0628661,52.734375 L34.172058,50.202942 L31.40625,51.5625 C31.3128661,51.609192 31.2652589,51.609192 31.171875,51.6558839 L24.609375,53.2965089 C23.671875,53.5308839 23.015442,54.328308 22.96875,55.265808 L22.218933,71.062317 Z" id="Shape" fill="#231F20"></path>
                <path d="M71.531067,60.0933839 C71.203308,60.0933839 70.8746339,59.953308 70.6402589,59.6722411 L65.859375,54.187317 C65.437317,53.718567 65.4840089,52.96875 65.9527589,52.546692 L68.1097411,50.578308 L68.156433,50.5316161 C70.2191161,48.796692 73.2659911,49.031067 75,51.09375 C75.046692,51.140442 75.046692,51.140442 75.0933839,51.1871339 C76.7340089,53.249817 76.452942,56.25 74.4378661,57.9840089 L72.2808839,59.765625 C72.0941161,60 71.8121339,60.0933839 71.531067,60.0933839 Z M68.390808,53.5308839 L71.6253661,57.2808839 L72.890625,56.203308 C73.9215089,55.3125 74.109192,53.7652589 73.2183839,52.687683 C72.3284911,51.609192 70.78125,51.4215089 69.656067,52.312317 C69.656067,52.312317 69.656067,52.312317 69.609375,52.3590089 L68.390808,53.5308839 Z" id="Shape" fill="#231F20"></path>
                <path d="M93.796692,67.1722411 L63.046875,67.1722411 C62.390442,67.1722411 61.875,66.6558839 61.875,66.0003661 C61.875,65.671692 62.0159911,65.343933 62.297058,65.109558 L72.937317,56.203308 C73.312683,55.8746339 73.59375,55.4534911 73.7347411,54.9847411 C74.109192,53.625183 73.359375,52.265625 71.999817,51.843567 C71.203308,51.609192 70.3125,51.796875 69.656067,52.312317 L60.281067,60.7965089 C59.953308,61.0784911 59.484558,61.218567 59.0625,61.171875 C58.640442,61.125183 58.2183839,60.890808 57.9840089,60.5621339 L53.718567,54.7027589 C52.8753661,53.718567 51.750183,52.96875 50.4840089,52.6409911 L46.2652589,51.5625 C46.171875,51.5625 46.125183,51.515808 46.0308839,51.4691161 L42.0941161,49.499817 C41.672058,49.3121339 41.437683,48.8909911 41.437683,48.468933 L41.437683,45.234375 C41.437683,44.812317 41.672058,44.3902589 42.0465089,44.2034911 C44.250183,43.0316161 45.703125,40.78125 45.8441161,38.2965089 C45.890808,37.6409911 46.452942,37.1722411 47.109375,37.218933 L47.2027589,37.218933 C47.34375,37.218933 47.4371339,37.265625 47.578125,37.265625 C48.8909911,37.265625 49.921875,36.1871339 49.921875,34.921875 C49.921875,34.265442 49.640808,33.6566161 49.21875,33.234558 C48.984375,33.000183 48.8433839,32.7191161 48.8433839,32.390442 L48.8433839,26.062317 C48.8433839,25.593567 48.75,25.124817 48.562317,24.656067 C48.327942,24.0472411 48.6090089,23.390808 49.21875,23.1097411 C49.3597411,23.0621339 49.499817,23.015442 49.6875,23.015442 L96.515808,23.015442 C97.1722411,23.015442 97.687683,23.5308839 97.687683,24.187317 L97.687683,63.234558 C97.687683,65.437317 95.9527589,67.1722411 93.796692,67.1722411 Z M66.281433,64.8284911 L93.796692,64.8284911 C94.640808,64.8284911 95.343933,64.1253661 95.343933,63.28125 L95.343933,25.4058839 L51.1871339,25.4058839 C51.2347411,25.6402589 51.2347411,25.827942 51.2347411,26.062317 L51.2347411,31.9683839 C51.9378661,32.8125 52.312317,33.8909911 52.312317,34.968567 C52.312317,37.4066161 50.4840089,39.421692 48.093567,39.656067 C47.624817,42.2808839 46.0784911,44.577942 43.828125,45.984192 L43.828125,47.859192 L47.0159911,49.453125 L51.140442,50.4840089 C52.922058,50.9527589 54.4683839,51.9378661 55.6402589,53.3441161 C55.6402589,53.3441161 55.6878661,53.390808 55.6878661,53.390808 L59.484558,58.547058 L68.249817,50.625 C70.3125,48.8909911 73.359375,49.1253661 75.0933839,51.140442 C76.171875,52.4066161 76.5472411,54.093933 76.0784911,55.6878661 C75.7965089,56.6253661 75.281067,57.421875 74.53125,58.0316161 L66.281433,64.8284911 Z" id="Shape" fill="#231F20"></path>
                <path d="M53.859558,67.1722411 L48.6090089,67.1722411 C47.9534911,67.1722411 47.4371339,66.6558839 47.4371339,66.0003661 L47.4371339,61.5472411 C47.4371339,60.5621339 48.234558,59.765625 49.21875,59.765625 C49.640808,59.765625 50.0628661,59.9066161 50.390625,60.187683 C50.437317,60.234375 50.4840089,60.281067 50.5316161,60.3277589 L54.7503661,65.2496339 C55.1715089,65.7183839 55.124817,66.4691161 54.609375,66.8902589 C54.421692,67.077942 54.140625,67.1722411 53.859558,67.1722411 Z M49.7808839,64.8284911 L51.281433,64.8284911 L49.7808839,63.093567 L49.7808839,64.8284911 Z" id="Shape" fill="#231F20"></path>
                <path d="M65.5316161,38.952942 L55.3125,38.952942 C54.656067,38.952942 54.140625,38.4375 54.140625,37.781067 C54.140625,37.1246339 54.656067,36.609192 55.3125,36.609192 L65.5316161,36.609192 C66.1871339,36.609192 66.7034911,37.1246339 66.7034911,37.781067 C66.7034911,38.4375 66.1871339,38.952942 65.5316161,38.952942 Z" id="Path" fill="#231F20"></path>
                <path d="M65.5316161,33.6090089 L55.3125,33.6090089 C54.656067,33.6090089 54.140625,33.093567 54.140625,32.4371339 C54.140625,31.7816161 54.656067,31.2652589 55.3125,31.2652589 L65.5316161,31.2652589 C66.1871339,31.2652589 66.7034911,31.7816161 66.7034911,32.4371339 C66.7034911,33.093567 66.1871339,33.6090089 65.5316161,33.6090089 Z" id="Path" fill="#231F20"></path>
                <path d="M65.5316161,49.640808 L55.3125,49.640808 C54.656067,49.640808 54.140625,49.1253661 54.140625,48.468933 C54.140625,47.8125 54.656067,47.297058 55.3125,47.297058 L65.5316161,47.297058 C66.1871339,47.297058 66.7034911,47.8125 66.7034911,48.468933 C66.7034911,49.1253661 66.1871339,49.640808 65.5316161,49.640808 Z" id="Path" fill="#231F20"></path>
                <path d="M65.5316161,44.296875 L55.3125,44.296875 C54.656067,44.296875 54.140625,43.781433 54.140625,43.125 C54.140625,42.468567 54.656067,41.953125 55.3125,41.953125 L65.5316161,41.953125 C66.1871339,41.953125 66.7034911,42.468567 66.7034911,43.125 C66.7034911,43.781433 66.1871339,44.296875 65.5316161,44.296875 Z" id="Path" fill="#231F20"></path>
                <path d="M80.202942,49.6875 C74.577942,49.6875 70.031433,45.1409911 70.031433,39.5159911 C70.031433,33.8909911 74.577942,29.343567 80.202942,29.343567 C85.827942,29.343567 90.3753661,33.8909911 90.3753661,39.5159911 C90.3753661,45.1409911 85.827942,49.6875 80.202942,49.6875 Z M80.202942,31.687317 C75.890808,31.687317 72.375183,35.202942 72.375183,39.5159911 C72.375183,43.828125 75.890808,47.34375 80.202942,47.34375 C84.5159911,47.34375 88.0316161,43.828125 88.0316161,39.5159911 C88.0316161,35.202942 84.5159911,31.687317 80.202942,31.687317 Z" id="Shape" fill="#231F20"></path>
                <path d="M89.2034911,40.6878661 L80.202942,40.6878661 C79.5465089,40.6878661 79.031067,40.1715089 79.031067,39.5159911 L79.031067,30.515442 C79.031067,29.8590089 79.5465089,29.343567 80.202942,29.343567 C85.827942,29.343567 90.3753661,33.8909911 90.3753661,39.5159911 C90.3753661,40.1715089 89.8590089,40.6878661 89.2034911,40.6878661 Z M81.374817,38.3441161 L87.937317,38.3441161 C87.421875,34.968567 84.7503661,32.297058 81.374817,31.7816161 L81.374817,38.3441161 Z" id="Shape" fill="#231F20"></path>
                <path d="M85.593567,47.859192 C85.546875,47.859192 85.500183,47.859192 85.4058839,47.859192 C85.078125,47.8125 84.84375,47.6715089 84.656067,47.390442 L79.265442,40.1715089 C78.8909911,39.656067 78.984375,38.90625 79.499817,38.5308839 C79.6875,38.390808 79.968567,38.2965089 80.202942,38.2965089 L89.2034911,38.2965089 C89.8590089,38.2965089 90.3753661,38.8128661 90.3753661,39.4683839 C90.3753661,42.65625 88.874817,45.703125 86.296692,47.624817 C86.1090089,47.8125 85.8746339,47.859192 85.593567,47.859192 Z M82.546692,40.6878661 L85.78125,45 C86.953125,43.828125 87.702942,42.3284911 87.937317,40.6878661 L82.546692,40.6878661 Z" id="Shape" fill="#231F20"></path>
            </g>
        </g>
    </g>
</svg>