<?xml version="1.0" encoding="UTF-8"?>
<svg width="235px" height="154px" viewBox="0 0 235 154" version="1.1" xmlns="http://www.w3.org/2000/svg" xmlns:xlink="http://www.w3.org/1999/xlink">
    <!-- Generator: Sketch 52.4 (67378) - http://www.bohemiancoding.com/sketch -->
    <title>costa-rica</title>
    <desc>Created with Sketch.</desc>
    <g id="Elementos" stroke="none" stroke-width="1" fill="none" fill-rule="evenodd">
        <g id="CostaRica/PorqueCostaRica" transform="translate(-395.000000, -81.000000)">
            <g id="costa-rica" transform="translate(395.000000, 81.081871)">
                <rect id="Rectangle" fill="#FF4B55" x="0" y="52.6940546" width="234.54191" height="48.5254386"></rect>
                <path d="M4.04401559,0.126432749 L230.498353,0.126432749 C232.73154,0.126432749 234.542368,1.93726121 234.542368,4.17044834 L234.542368,26.4116179 L0,26.4116179 L0,4.17044834 C0,1.93726121 1.81082846,0.126432749 4.04401559,0.126432749 Z" id="Path" fill="#41479B"></path>
                <rect id="Rectangle" fill="#F5F5F5" x="0" y="26.4134503" width="234.54191" height="26.2851852"></rect>
                <path d="M230.497895,153.791696 L4.04401559,153.791696 C1.81082846,153.791696 0,151.980867 0,149.74768 L0,127.506511 L234.54191,127.506511 L234.54191,149.74768 C234.54191,151.981326 232.731082,153.791696 230.497895,153.791696 Z" id="Path" fill="#41479B"></path>
                <g id="Group" transform="translate(0.000000, 56.345029)" fill="#F5F5F5">
                    <rect id="Rectangle" x="0" y="44.8744639" width="234.54191" height="26.2851852"></rect>
                    <ellipse id="Oval" cx="63.3950292" cy="20.6140351" rx="18.9145224" ry="20.220078"></ellipse>
                </g>
                <rect id="Rectangle" fill="#3CC8FF" x="53.6102339" y="69.1348928" width="19.5668421" height="9.78342105"></rect>
                <polygon id="Path" fill="#FFE15A" points="56.2222612 74.6956433 56.445809 76.8537037 57.324425 74.8706335 56.87 76.9920468 58.3193957 75.3768226 57.2309747 77.2545322 59.1086842 76.1665692 57.4939181 77.6159649 59.6153314 77.1610819 57.6318031 78.0401559 59.7903216 78.2637037 57.6318031 78.4872515 59.6153314 79.3663255 57.4939181 78.9119006 59.1086842 80.3608382 57.2309747 79.2724172 58.3193957 81.1501267 56.87 79.5353606 57.324425 81.6567739 56.445809 79.6737037 56.2222612 81.831306 55.9987135 79.6737037 55.1196394 81.6567739 55.5740643 79.5353606 54.1251267 81.1501267 55.2126316 79.2724172 53.3353801 80.3608382 54.9506043 78.9119006 52.8287329 79.3663255 54.8122612 78.4872515 52.6542008 78.2637037 54.8122612 78.0401559 52.8287329 77.1610819 54.9506043 77.6159649 53.3353801 76.1665692 55.2126316 77.2545322 54.1251267 75.3768226 55.5740643 76.9920468 55.1196394 74.8706335 55.9987135 76.8537037"></polygon>
                <polygon id="Path" fill="#41479B" points="67.3098635 92.6129045 59.4834016 92.6129045 52.3088012 86.7424854 52.3088012 78.2637037 75.1367836 78.2637037 75.1367836 86.7424854"></polygon>
                <path d="M71.2233236,75.654883 L71.2228655,75.654883 C71.2210331,75.4762281 71.0762768,75.3323879 70.8971637,75.3323879 C70.7180507,75.3323879 70.5742105,75.4762281 70.571462,75.654883 L70.5705458,75.654883 C70.5705458,76.7868226 69.9145614,78.3525731 69.1101559,79.4739766 C67.9869201,78.055731 67.5645614,76.4111891 67.4051462,75.3754483 C67.3291033,74.8816277 66.7954288,74.6076901 66.3483333,74.8312378 C66.1330312,74.9388889 65.9878168,75.149152 65.9511696,75.3869006 C65.4518519,78.5857407 63.9438207,79.9448928 62.9671735,80.5037622 C61.5054094,79.0905556 61.023499,76.8033138 60.865,75.4510331 C60.8031579,74.9251462 60.2406238,74.6237232 59.7669591,74.8600975 C59.5846394,74.9512573 59.4495029,75.1157115 59.3858285,75.3094834 C57.34,81.5454581 51.6555653,82.1776218 51.6555653,82.1776218 L51.6555653,84.1341228 L74.4835478,84.1341228 L74.4835478,83.4822612 L74.4835478,82.8303996 L74.4835478,82.178538 L74.4835478,81.5266764 L74.4835478,80.8748148 C71.8756433,80.2202047 71.2233236,75.654883 71.2233236,75.654883 Z" id="Path" fill="#73AF00"></path>
                <g id="Group" transform="translate(46.725146, 64.132554)" fill="#F0AA00">
                    <path d="M27.7593177,5.65236842 C25.1504971,4.34772904 25.1504971,3.04354776 25.1504971,3.04354776 C25.1504971,3.04354776 21.8893567,1.73890838 19.2805361,1.73890838 C19.2805361,1.73890838 19.9323977,0.434269006 18.6286745,0.434269006 C17.3240351,0.434269006 16.6721735,0.434269006 16.6721735,0.434269006 C16.6721735,0.434269006 16.0203119,0.434269006 14.7156725,0.434269006 C13.4110331,0.434269006 14.0638109,1.73890838 14.0638109,1.73890838 C11.4549903,1.73890838 8.1938499,3.04354776 8.1938499,3.04354776 C8.1938499,3.04354776 8.1938499,4.34818713 5.58502924,5.65236842 C2.97620858,6.9570078 2.97620858,9.8919883 2.97620858,9.8919883 C2.97620858,10.4325341 3.41460039,10.8700097 3.95423002,10.8700097 C4.49477583,10.8700097 4.93225146,10.4316179 4.93225146,9.8919883 C4.93225146,9.78021442 4.90934698,9.67531189 4.87499025,9.57544834 L4.93225146,9.56582846 L11.4545322,5.00050682 L16.6726316,5.00050682 L21.890731,5.00050682 L28.4130117,9.56582846 L28.4702729,9.57544834 C28.4359162,9.6748538 28.4130117,9.78067251 28.4130117,9.8919883 C28.4130117,10.4325341 28.8514035,10.8700097 29.3910331,10.8700097 C29.9306628,10.8700097 30.3690546,10.4316179 30.3690546,9.8919883 C30.3681384,9.89153021 30.3681384,6.95654971 27.7593177,5.65236842 Z" id="Path"></path>
                    <path d="M29.7162768,13.4792885 C29.0644152,13.4792885 27.1074561,13.4792885 27.1074561,11.5227875 C27.1074561,9.56628655 29.7162768,9.56628655 29.7162768,9.56628655 L25.8028168,8.26164717 C24.4981774,12.8269688 27.1074561,12.8269688 27.1074561,18.6973879 C27.1074561,23.9557992 21.2374951,27.1761696 19.2805361,27.1761696 C17.3240351,27.1761696 16.6717154,28.480809 16.6717154,28.480809 C16.6717154,28.480809 16.0198538,27.1761696 14.0628947,27.1761696 C12.1063938,27.1761696 6.23597466,23.9557992 6.23597466,18.6973879 C6.23597466,12.8274269 8.84479532,12.8274269 7.54061404,8.26164717 L3.627154,9.56628655 C3.627154,9.56628655 6.23597466,9.56628655 6.23597466,11.5227875 C6.23597466,13.4792885 4.27947368,13.4792885 3.627154,13.4792885 C2.97483431,13.4792885 0.366013645,13.4792885 0.366013645,16.7404288 C0.366013645,20.0015692 3.627154,23.9150292 8.19293372,26.5238499 C12.7582554,29.1326706 10.8017544,31.7419493 16.6717154,31.7419493 C22.5416764,31.7419493 20.5851754,29.1331287 25.1504971,26.5238499 C29.7158187,23.9150292 32.9774172,20.0015692 32.9774172,16.7404288 C32.9774172,13.4792885 30.3681384,13.4792885 29.7162768,13.4792885 Z" id="Path"></path>
                </g>
                <g id="Group" transform="translate(54.054581, 65.964912)" fill="#73AF00">
                    <path d="M8.03764133,1.43748538 L6.45998051,0.728362573 C6.19795322,0.610633528 5.90752437,0.583148148 5.62808967,0.648196881 C4.6111306,0.883196881 2.0884308,1.65599415 0.210721248,3.81955166 L2.16722222,4.47141326 L8.03764133,1.43748538 Z" id="Path"></path>
                    <path d="M10.646462,1.43748538 L12.2241228,0.728362573 C12.4861501,0.610633528 12.7765789,0.583148148 13.0560136,0.648196881 C14.0729727,0.883196881 16.5956725,1.65599415 18.4733821,3.81955166 L16.5168811,4.47141326 L10.646462,1.43748538 Z" id="Path"></path>
                    <path d="M9.57269981,1.86305068 L10.7619006,0.673849903 C10.825575,0.610175439 10.825575,0.507105263 10.7619006,0.443430799 C10.6982261,0.379756335 10.5951559,0.379756335 10.5314815,0.443430799 L9.3422807,1.63263158 L8.15307992,0.443430799 C8.08940546,0.379756335 7.98633528,0.379756335 7.92266082,0.443430799 C7.85898635,0.507105263 7.85898635,0.610175439 7.92266082,0.673849903 L9.1118616,1.86305068 L7.92266082,3.05225146 C7.85898635,3.11592593 7.85898635,3.2189961 7.92266082,3.28267057 C7.9547271,3.31473684 7.99641326,3.33076998 8.03809942,3.33076998 C8.07932749,3.33076998 8.12147173,3.31473684 8.15353801,3.28267057 L9.34273879,2.09346979 L10.5319396,3.28267057 C10.5640058,3.31473684 10.605692,3.33076998 10.6473782,3.33076998 C10.6895224,3.33076998 10.7307505,3.31473684 10.7628168,3.28267057 C10.8264912,3.2189961 10.8264912,3.11592593 10.7628168,3.05225146 L9.57269981,1.86305068 Z" id="Path"></path>
                </g>
                <path d="M76.441423,73.6983821 C76.441423,72.5888889 75.3928558,72.109269 74.484922,71.9008382 L74.484922,71.3841131 C73.2572417,71.2686745 72.5714815,70.8078363 71.3813645,69.9965595 C70.9228168,69.6836842 70.402885,69.330039 69.7748441,68.9479922 C67.4816472,67.5549415 65.7189181,67.3538402 64.701501,67.4023977 L64.701501,68.4802827 L62.0926803,68.4802827 L62.0926803,67.4023977 C61.0752632,67.3538402 59.3125341,67.5549415 57.0193372,68.9479922 C56.3917544,69.3295809 55.8713645,69.6836842 55.4128168,69.9965595 C54.2222417,70.8073782 53.5373977,71.2686745 52.3092593,71.3841131 L52.3092593,71.9008382 C51.4008674,72.1088109 50.3527583,72.5884308 50.3527583,73.6983821 L52.3092593,73.0465205 L52.3092593,73.3438207 C54.1603996,73.2073099 55.2185867,72.497271 56.5145224,71.6145322 C56.9538304,71.3153996 57.4513158,70.9759552 58.034922,70.6218519 C59.5246296,69.7166667 60.6822222,69.4363158 61.4403606,69.3703509 L61.4403606,70.4376998 L65.3538207,70.4376998 L65.3538207,69.3703509 C66.1119591,69.4367739 67.2695517,69.7166667 68.7592593,70.6218519 C69.3437817,70.9768713 69.840809,71.3153996 70.2796589,71.6145322 C71.5751365,72.497271 72.6337817,73.207768 74.484922,73.3438207 L74.484922,73.0465205 L76.441423,73.6983821 Z" id="Path" fill="#F5F5F5"></path>
                <path d="M71.2233236,63.4174756 L71.2233236,62.6103216 L69.40654,62.6103216 C69.7239961,62.3377583 69.9191423,62.0170955 69.9191423,61.6323002 C69.9191423,59.8301754 65.8192398,59.3496394 63.3968616,59.3496394 C60.9744834,59.3496394 56.8745809,59.8301754 56.8745809,61.6323002 C56.8745809,62.0170955 57.0697271,62.3377583 57.3871832,62.6103216 L55.5703996,62.6103216 L55.5703996,63.4174756 C53.973499,63.7738694 52.6684016,64.6304971 52.5996881,64.6767641 L53.3230117,65.7619786 C53.3408772,65.7500682 55.1356725,64.5668226 56.8745809,64.5668226 L56.8745809,63.914961 L69.9191423,63.914961 L69.9191423,64.5668226 C71.6585088,64.5668226 73.452846,65.7496101 73.4707115,65.7619786 L74.1940351,64.6767641 C74.1257797,64.6304971 72.8202242,63.7738694 71.2233236,63.4174756 Z M66.0056823,62.4298343 L66.0056823,61.9346394 C66.0056823,61.6153509 65.7056335,61.3812671 65.3959649,61.4586842 L63.3968616,61.95846 L61.3977583,61.4586842 C61.0880897,61.3812671 60.7880409,61.6153509 60.7880409,61.9346394 L60.7880409,62.4298343 C59.3226121,62.2145322 58.4563645,61.856306 58.2199903,61.6323002 C58.5727193,61.2969786 60.3010916,60.6542788 63.3964035,60.6542788 C66.4917154,60.6542788 68.2200877,61.2978947 68.5728168,61.6323002 C68.3373587,61.855848 67.470653,62.2140741 66.0056823,62.4298343 Z" id="Shape" fill="#3CC8FF" fill-rule="nonzero"></path>
                <g id="Group" transform="translate(54.970760, 70.545809)" fill="#F5F5F5">
                    <path d="M8.50764133,0.137426901 L8.6730117,0.632621832 L9.19523392,0.636744639 C9.26303119,0.637202729 9.29097466,0.723781676 9.23646199,0.763635478 L8.81639376,1.07422027 L8.97397661,1.57216374 C8.99413255,1.63675439 8.92083821,1.68989279 8.86586745,1.65049708 L8.44076023,1.34678363 L8.01565302,1.65049708 C7.96068226,1.68989279 7.88738791,1.6362963 7.90754386,1.57216374 L8.06512671,1.07422027 L7.64505848,0.763635478 C7.59054581,0.723781676 7.61894737,0.637202729 7.68628655,0.636744639 L8.20850877,0.632621832 L8.37387914,0.137426901 C8.39540936,0.0728362573 8.48565302,0.0728362573 8.50764133,0.137426901 Z" id="Path"></path>
                    <path d="M5.9505848,0.30462963 L6.16680312,0.780126706 L6.68673489,0.729736842 C6.75407407,0.723323587 6.79072125,0.806237817 6.74124756,0.851588694 L6.35599415,1.20431774 L6.56488304,1.68302144 C6.59236842,1.74532164 6.52457115,1.80578947 6.46593567,1.77234893 L6.01151072,1.51490253 L5.62076023,1.86167641 C5.57037037,1.9065692 5.49157895,1.86121832 5.50486355,1.79479532 L5.60930799,1.28265107 L5.15900585,1.01833333 C5.10082846,0.983976608 5.11961014,0.895565302 5.18694932,0.887777778 L5.70596491,0.8291423 L5.81819688,0.319288499 C5.83193957,0.252407407 5.92264133,0.242787524 5.9505848,0.30462963 Z" id="Path"></path>
                    <path d="M3.32481481,1.00367446 L3.63906433,1.42099415 L4.13563353,1.25883041 C4.19976608,1.23775828 4.25382066,1.31105263 4.21488304,1.36602339 L3.9152924,1.79387914 L4.22312865,2.21577973 C4.26298246,2.2702924 4.21030214,2.34404483 4.1457115,2.32434698 L3.64639376,2.17134503 L3.33993177,2.59461988 C3.30053606,2.64913255 3.21349903,2.62210526 3.21258285,2.55476608 L3.20342105,2.03254386 L2.70639376,1.87175439 C2.64226121,1.85114035 2.64134503,1.75998051 2.70547758,1.73845029 L3.19929825,1.56849903 L3.19838207,1.0462768 C3.19792398,0.978937622 3.28450292,0.949619883 3.32481481,1.00367446 Z" id="Path"></path>
                    <path d="M0.693547758,2.11316764 L1.06001949,2.48513645 L1.53047758,2.25884016 C1.5918616,2.22952242 1.65461988,2.29457115 1.62346979,2.35503899 L1.38297271,2.81862573 L1.74394737,3.19609162 C1.79067251,3.24510721 1.74852827,3.32481481 1.68164717,3.31427875 L1.16583821,3.22907407 L0.918011696,3.6889961 C0.885945419,3.74854776 0.796617934,3.73297271 0.786539961,3.66609162 L0.708664717,3.14936647 L0.194688109,3.05591618 C0.127807018,3.04400585 0.115438596,2.95376218 0.175906433,2.92352827 L0.643157895,2.68990253 L0.573528265,2.17226121 C0.564366472,2.10492203 0.645906433,2.06506823 0.693547758,2.11316764 Z" id="Path"></path>
                    <path d="M10.9309357,0.30462963 L10.7147173,0.780126706 L10.1947856,0.729736842 C10.1274464,0.723323587 10.0907992,0.806237817 10.1402729,0.851588694 L10.5255263,1.20431774 L10.3166374,1.68302144 C10.289152,1.74532164 10.3569493,1.80578947 10.4155848,1.77234893 L10.8700097,1.51490253 L11.2607602,1.86167641 C11.3111501,1.9065692 11.3899415,1.86121832 11.3766569,1.79479532 L11.2722125,1.28265107 L11.7225146,1.01833333 C11.780692,0.983976608 11.7619103,0.895565302 11.6945712,0.887777778 L11.1755556,0.8291423 L11.0633236,0.319288499 C11.0491228,0.252407407 10.9584211,0.242787524 10.9309357,0.30462963 Z" id="Path"></path>
                    <path d="M13.5562476,1.00367446 L13.2419981,1.42099415 L12.7454288,1.25883041 C12.6812963,1.23775828 12.6272417,1.31105263 12.6661793,1.36602339 L12.96577,1.79387914 L12.6579337,2.21577973 C12.6180799,2.2702924 12.6707602,2.34404483 12.7353509,2.32434698 L13.2346686,2.17134503 L13.5411306,2.59461988 C13.5805263,2.64913255 13.6675634,2.62210526 13.6684795,2.55476608 L13.6776413,2.03254386 L14.1746686,1.87175439 C14.2388012,1.85114035 14.2397173,1.75998051 14.1755848,1.73845029 L13.6817641,1.56849903 L13.6826803,1.0462768 C13.6831384,0.978937622 13.5965595,0.949619883 13.5562476,1.00367446 Z" id="Path"></path>
                    <path d="M16.1879727,2.11316764 L15.821501,2.48513645 L15.3510429,2.25884016 C15.2896589,2.22952242 15.2269006,2.29457115 15.2580507,2.35503899 L15.4985478,2.81862573 L15.1375731,3.19609162 C15.090848,3.24510721 15.1329922,3.32481481 15.1998733,3.31427875 L15.7156823,3.22907407 L15.9635088,3.6889961 C15.995575,3.74854776 16.0849025,3.73297271 16.0949805,3.66609162 L16.1728558,3.14936647 L16.6868324,3.05591618 C16.7537135,3.04400585 16.7660819,2.95376218 16.705614,2.92352827 L16.2383626,2.68990253 L16.3079922,2.17226121 C16.3166959,2.10492203 16.2351559,2.06506823 16.1879727,2.11316764 Z" id="Path"></path>
                </g>
                <polygon id="Path" fill="#8C5A28" points="58.8920078 86.3352437 62.2145322 88.5565205 66.2296881 88.5565205 68.0849513 86.9669493 66.6580019 87.537729 61.9291423 87.537729"></polygon>
                <path d="M61.1545127,83.4685185 L60.8338499,86.7026316 L59.3743762,86.1455945 C59.3743762,86.1446784 60.0459357,84.5862573 61.1545127,83.4685185 Z" id="Path" fill="#F5F5F5"></path>
                <g id="Group" transform="translate(61.842105, 81.998051)" fill="#8C5A28">
                    <rect id="Rectangle" x="2.18966862" y="0.187816764" width="1" height="5.50623782"></rect>
                    <rect id="Rectangle" x="4.18693957" y="0.655068226" width="1" height="5.04356725"></rect>
                    <rect id="Rectangle" x="0.206140351" y="0.655068226" width="1" height="5.04356725"></rect>
                </g>
                <g id="Group" transform="translate(60.925926, 81.998051)" fill="#F5F5F5">
                    <path d="M3.87635478,5.17274854 L2.5584308,5.17274854 C2.42146199,5.17274854 2.3101462,5.06143275 2.3101462,4.92446394 L2.3101462,4.25885965 C2.3101462,4.12189084 2.42146199,4.01057505 2.5584308,4.01057505 L3.87635478,4.01057505 C4.01332359,4.01057505 4.12463938,4.12189084 4.12463938,4.25885965 L4.12463938,4.92446394 C4.12463938,5.06143275 4.01332359,5.17274854 3.87635478,5.17274854 Z" id="Path"></path>
                    <path d="M3.87635478,3.62348928 L2.5584308,3.62348928 C2.42146199,3.62348928 2.3101462,3.51217349 2.3101462,3.37520468 L2.3101462,2.70960039 C2.3101462,2.57263158 2.42146199,2.46131579 2.5584308,2.46131579 L3.87635478,2.46131579 C4.01332359,2.46131579 4.12463938,2.57263158 4.12463938,2.70960039 L4.12463938,3.37520468 C4.12463938,3.51263158 4.01332359,3.62348928 3.87635478,3.62348928 Z" id="Path"></path>
                    <path d="M3.87635478,2.19699805 L2.5584308,2.19699805 C2.42146199,2.19699805 2.3101462,2.08568226 2.3101462,1.94871345 L2.3101462,1.28310916 C2.3101462,1.14614035 2.42146199,1.03482456 2.5584308,1.03482456 L3.87635478,1.03482456 C4.01332359,1.03482456 4.12463938,1.14614035 4.12463938,1.28310916 L4.12463938,1.94871345 C4.12463938,2.08568226 4.01332359,2.19699805 3.87635478,2.19699805 Z" id="Path"></path>
                    <path d="M5.74948343,5.17274854 L4.67617934,5.17274854 C4.53921053,5.17274854 4.42789474,5.06143275 4.42789474,4.92446394 L4.42789474,4.25885965 C4.42789474,4.12189084 4.53921053,4.01057505 4.67617934,4.01057505 L5.74948343,4.01057505 C5.88645224,4.01057505 5.99776803,4.12189084 5.99776803,4.25885965 L5.99776803,4.92446394 C5.99776803,5.06143275 5.88645224,5.17274854 5.74948343,5.17274854 Z" id="Path"></path>
                    <path d="M5.74948343,3.7467154 L4.67617934,3.7467154 C4.53921053,3.7467154 4.42789474,3.63539961 4.42789474,3.4984308 L4.42789474,3.0151462 C4.42789474,2.87817739 4.53921053,2.7668616 4.67617934,2.7668616 L5.74948343,2.7668616 C5.88645224,2.7668616 5.99776803,2.87817739 5.99776803,3.0151462 L5.99776803,3.4984308 C5.99776803,3.63539961 5.88645224,3.7467154 5.74948343,3.7467154 Z" id="Path"></path>
                    <path d="M5.74948343,2.33305068 L4.67617934,2.33305068 C4.53921053,2.33305068 4.42789474,2.22173489 4.42789474,2.08476608 L4.42789474,1.75860624 C4.42789474,1.62163743 4.53921053,1.51032164 4.67617934,1.51032164 L5.74948343,1.51032164 C5.88645224,1.51032164 5.99776803,1.62163743 5.99776803,1.75860624 L5.99776803,2.08476608 C5.99776803,2.22173489 5.88645224,2.33305068 5.74948343,2.33305068 Z" id="Path"></path>
                    <path d="M1.7645614,5.17274854 L0.69125731,5.17274854 C0.554288499,5.17274854 0.44297271,5.06143275 0.44297271,4.92446394 L0.44297271,4.25885965 C0.44297271,4.12189084 0.554288499,4.01057505 0.69125731,4.01057505 L1.7645614,4.01057505 C1.90153021,4.01057505 2.012846,4.12189084 2.012846,4.25885965 L2.012846,4.92446394 C2.01238791,5.06143275 1.90153021,5.17274854 1.7645614,5.17274854 Z" id="Path"></path>
                    <path d="M1.7645614,3.7467154 L0.69125731,3.7467154 C0.554288499,3.7467154 0.44297271,3.63539961 0.44297271,3.4984308 L0.44297271,3.0151462 C0.44297271,2.87817739 0.554288499,2.7668616 0.69125731,2.7668616 L1.7645614,2.7668616 C1.90153021,2.7668616 2.012846,2.87817739 2.012846,3.0151462 L2.012846,3.4984308 C2.01238791,3.63539961 1.90153021,3.7467154 1.7645614,3.7467154 Z" id="Path"></path>
                    <path d="M1.7645614,2.33305068 L0.69125731,2.33305068 C0.554288499,2.33305068 0.44297271,2.22173489 0.44297271,2.08476608 L0.44297271,1.75860624 C0.44297271,1.62163743 0.554288499,1.51032164 0.69125731,1.51032164 L1.7645614,1.51032164 C1.90153021,1.51032164 2.012846,1.62163743 2.012846,1.75860624 L2.012846,2.08476608 C2.01238791,2.22173489 1.90153021,2.33305068 1.7645614,2.33305068 Z" id="Path"></path>
                    <polygon id="Path" points="1.33533138 0.655068226 1.33533138 1.30692982 2.29411306 0.974814815"></polygon>
                    <polygon id="Path" points="5.31796296 0.655068226 5.31796296 1.30692982 6.27674464 0.974814815"></polygon>
                    <polygon id="Path" points="3.32252437 0.187358674 3.32252437 0.838762183 4.28176413 0.506647173"></polygon>
                </g>
                <polygon id="Path" fill="#8C5A28" points="61.7014717 77.7840838 62.8553996 78.5559649 64.2507407 78.5559649 64.8952729 78.0035088 64.3991618 78.2014035 62.7564522 78.2014035"></polygon>
                <path d="M62.4875536,76.7877388 L62.3762378,77.9114327 L61.8691326,77.7176608 C61.8686745,77.7176608 62.1023002,77.1761988 62.4875536,76.7877388 Z" id="Path" fill="#F5F5F5"></path>
                <g id="Group" transform="translate(62.758285, 76.042885)" fill="#8C5A28">
                    <rect id="Rectangle" x="0.728362573" y="0.297758285" width="1" height="1.91344055"></rect>
                    <rect id="Rectangle" x="1.42007797" y="0.462670565" width="1" height="1.7512768"></rect>
                    <rect id="Rectangle" x="0.0366471735" y="0.462670565" width="1" height="1.7512768"></rect>
                </g>
                <g id="Group" transform="translate(59.093567, 72.836257)" fill="#F5F5F5">
                    <path d="M4.66060429,5.23779727 L4.20251462,5.23779727 C4.15487329,5.23779727 4.11593567,5.19931774 4.11593567,5.15121832 L4.11593567,4.92034113 C4.11593567,4.87269981 4.1544152,4.83376218 4.20251462,4.83376218 L4.66060429,4.83376218 C4.70824561,4.83376218 4.74718324,4.87224172 4.74718324,4.92034113 L4.74718324,5.15121832 C4.74718324,5.19931774 4.7087037,5.23779727 4.66060429,5.23779727 Z" id="Path"></path>
                    <path d="M4.66060429,4.7 L4.20251462,4.7 C4.15487329,4.7 4.11593567,4.66152047 4.11593567,4.61342105 L4.11593567,4.38254386 C4.11593567,4.33490253 4.1544152,4.29596491 4.20251462,4.29596491 L4.66060429,4.29596491 C4.70824561,4.29596491 4.74718324,4.33444444 4.74718324,4.38254386 L4.74718324,4.61342105 C4.74718324,4.66106238 4.7087037,4.7 4.66060429,4.7 Z" id="Path"></path>
                    <path d="M4.66060429,4.20434698 L4.20251462,4.20434698 C4.15487329,4.20434698 4.11593567,4.16586745 4.11593567,4.11776803 L4.11593567,3.88689084 C4.11593567,3.83924951 4.1544152,3.80031189 4.20251462,3.80031189 L4.66060429,3.80031189 C4.70824561,3.80031189 4.74718324,3.83879142 4.74718324,3.88689084 L4.74718324,4.11776803 C4.74718324,4.16586745 4.7087037,4.20434698 4.66060429,4.20434698 Z" id="Path"></path>
                    <path d="M5.3120078,5.23779727 L4.93912281,5.23779727 C4.89148148,5.23779727 4.85254386,5.19931774 4.85254386,5.15121832 L4.85254386,4.92034113 C4.85254386,4.87269981 4.89102339,4.83376218 4.93912281,4.83376218 L5.3120078,4.83376218 C5.35964912,4.83376218 5.39858674,4.87224172 5.39858674,4.92034113 L5.39858674,5.15121832 C5.39812865,5.19931774 5.35919103,5.23779727 5.3120078,5.23779727 Z" id="Path"></path>
                    <path d="M5.3120078,4.74260234 L4.93912281,4.74260234 C4.89148148,4.74260234 4.85254386,4.70412281 4.85254386,4.65602339 L4.85254386,4.48836257 C4.85254386,4.44072125 4.89102339,4.40178363 4.93912281,4.40178363 L5.3120078,4.40178363 C5.35964912,4.40178363 5.39858674,4.44026316 5.39858674,4.48836257 L5.39858674,4.65602339 C5.39812865,4.7045809 5.35919103,4.74260234 5.3120078,4.74260234 Z" id="Path"></path>
                    <path d="M5.3120078,4.25107212 L4.93912281,4.25107212 C4.89148148,4.25107212 4.85254386,4.21259259 4.85254386,4.16449318 L4.85254386,4.05134503 C4.85254386,4.0037037 4.89102339,3.96476608 4.93912281,3.96476608 L5.3120078,3.96476608 C5.35964912,3.96476608 5.39858674,4.00324561 5.39858674,4.05134503 L5.39858674,4.16449318 C5.39812865,4.21305068 5.35919103,4.25107212 5.3120078,4.25107212 Z" id="Path"></path>
                    <path d="M3.92720273,5.23779727 L3.55431774,5.23779727 C3.50667641,5.23779727 3.46773879,5.19931774 3.46773879,5.15121832 L3.46773879,4.92034113 C3.46773879,4.87269981 3.50621832,4.83376218 3.55431774,4.83376218 L3.92720273,4.83376218 C3.97484405,4.83376218 4.01378168,4.87224172 4.01378168,4.92034113 L4.01378168,5.15121832 C4.01332359,5.19931774 3.97484405,5.23779727 3.92720273,5.23779727 Z" id="Path"></path>
                    <path d="M3.92720273,4.74260234 L3.55431774,4.74260234 C3.50667641,4.74260234 3.46773879,4.70412281 3.46773879,4.65602339 L3.46773879,4.48836257 C3.46773879,4.44072125 3.50621832,4.40178363 3.55431774,4.40178363 L3.92720273,4.40178363 C3.97484405,4.40178363 4.01378168,4.44026316 4.01378168,4.48836257 L4.01378168,4.65602339 C4.01332359,4.7045809 3.97484405,4.74260234 3.92720273,4.74260234 Z" id="Path"></path>
                    <path d="M3.92720273,4.25107212 L3.55431774,4.25107212 C3.50667641,4.25107212 3.46773879,4.21259259 3.46773879,4.16449318 L3.46773879,4.05134503 C3.46773879,4.0037037 3.50621832,3.96476608 3.55431774,3.96476608 L3.92720273,3.96476608 C3.97484405,3.96476608 4.01378168,4.00324561 4.01378168,4.05134503 L4.01378168,4.16449318 C4.01332359,4.21305068 3.97484405,4.25107212 3.92720273,4.25107212 Z" id="Path"></path>
                    <polygon id="Path" points="3.77832359 3.66838207 3.77832359 3.89467836 4.11135478 3.77969786"></polygon>
                    <polygon id="Path" points="5.16175439 3.66838207 5.16175439 3.89467836 5.49478558 3.77969786"></polygon>
                    <polygon id="Path" points="4.46866472 3.50621832 4.46866472 3.73205653 4.80169591 3.61661793"></polygon>
                    <path d="M1.7911306,1.51398635 L0.944580897,1.51398635 C0.639493177,1.51398635 0.389376218,1.26432749 0.389376218,0.958781676 C0.389376218,0.653693957 0.639035088,0.403576998 0.944580897,0.403576998 L1.7911306,0.403576998 C2.09621832,0.403576998 2.34633528,0.653235867 2.34633528,0.958781676 C2.34679337,1.26432749 2.09667641,1.51398635 1.7911306,1.51398635 Z" id="Path"></path>
                    <path d="M8.2295809,1.51398635 L7.67116959,1.51398635 C7.3647076,1.51398635 7.11596491,1.26524366 7.11596491,0.958781676 C7.11596491,0.652319688 7.3647076,0.403576998 7.67116959,0.403576998 L8.2295809,0.403576998 C8.53604288,0.403576998 8.78478558,0.652319688 8.78478558,0.958781676 C8.78432749,1.26524366 8.5355848,1.51398635 8.2295809,1.51398635 Z" id="Path"></path>
                    <path d="M12.1948051,2.34954191 L11.7028168,2.34954191 C11.5273684,2.34954191 11.3853606,2.20753411 11.3853606,2.03208577 L11.3853606,1.97940546 C11.3853606,1.80395712 11.5273684,1.66194932 11.7028168,1.66194932 L12.1948051,1.66194932 C12.3702534,1.66194932 12.5122612,1.80395712 12.5122612,1.97940546 L12.5122612,2.03208577 C12.5122612,2.20753411 12.3702534,2.34954191 12.1948051,2.34954191 Z" id="Path"></path>
                </g>
            </g>
        </g>
    </g>
</svg>