<?xml version="1.0" encoding="UTF-8"?>
<svg width="75px" height="86px" viewBox="0 0 75 86" version="1.1" xmlns="http://www.w3.org/2000/svg" xmlns:xlink="http://www.w3.org/1999/xlink">
    <!-- Generator: Sketch 52.4 (67378) - http://www.bohemiancoding.com/sketch -->
    <title>online-support</title>
    <desc>Created with Sketch.</desc>
    <g id="Elementos" stroke="none" stroke-width="1" fill="none" fill-rule="evenodd">
        <g id="Home/Beneficios" transform="translate(-493.000000, -105.000000)" fill-rule="nonzero">
            <g id="online-support" transform="translate(493.000000, 105.000000)">
                <path d="M70.6313317,19.1798561 L57.8688261,19.1798561 C58.4132266,24.7383228 54.261424,29.6604338 48.6459216,30.1967252 C46.4676544,30.3975076 44.2554867,29.9285795 42.3836526,28.8232956 C42.2134858,28.7232313 41.9755182,28.6898765 41.7707863,28.7899408 L37.9932176,30.5315805 C37.6528841,30.6649996 37.2786503,30.5315805 37.1423839,30.23008 C37.0745831,30.0626524 37.0745831,29.86187 37.1423839,29.6944423 L38.9125169,25.9770258 C39.014218,25.7762434 38.9803178,25.575461 38.8779517,25.3746786 C37.7552501,23.5329746 37.2447499,21.3564154 37.4488171,19.2132109 L4.3341032,19.2132109 C2.2921023,19.2132109 0.625,20.8541325 0.625,22.8632641 L0.625,68.738436 C0.625,70.7475676 2.2921023,72.3884892 4.3341032,72.3884892 L70.665232,72.3884892 C72.7072329,72.3884892 74.375,70.7475676 74.375,68.738436 L74.375,22.8632641 C74.3410996,20.8207777 72.7072329,19.1798561 70.6313317,19.1798561 Z" id="Path" fill="#6D6C6B"></path>
                <path d="M70.2865003,22.2733813 L57.3560743,22.2733813 C56.0695109,27.6708064 50.5517005,31.0027109 45.0682692,29.703138 C44.0527699,29.4701649 43.1047061,29.0699461 42.1910213,28.5701604 C42.0217715,28.4705936 41.785086,28.4374047 41.5814573,28.5369715 L37.8242423,30.2699521 C37.4857425,30.4027079 37.1135251,30.2699521 36.9779929,29.9699506 C36.9105575,29.8033554 36.9105575,29.6035712 36.9779929,29.436976 L38.7385883,25.7380416 C38.8397415,25.5382574 38.8060239,25.3384732 38.7042094,25.1386891 C38.162742,24.272524 37.7568068,23.3061416 37.5194603,22.3065702 L27.5,22.3065702 C27.7029677,22.5063544 27.9065964,22.7393275 28.0414674,23.0061401 C28.5835959,22.6729496 29.2262165,22.5063544 29.8694982,22.5063544 C31.8330613,22.5063544 33.4237456,24.0720893 33.4574633,26.0380431 L33.4574633,30.6695205 C34.5073415,31.6359029 34.5410593,33.2686662 33.5592778,34.3014265 C32.9497137,34.9346185 32.1034644,35.2007805 31.2234972,35.0673742 C31.0879651,37.1667343 29.8357806,39.0656596 27.9403142,40.065231 L27.9403142,42.4314036 L30.8512798,43.8637323 L35.7258084,45.0630878 C36.7750254,45.3299004 37.5194603,46.2292544 37.587557,47.2958541 L38.4338063,62.4892086 L70.625,62.4892086 L70.625,22.6065717 C70.625,22.4399765 70.4894677,22.2733813 70.2865003,22.2733813 Z" id="Path" fill="#ACDEF9"></path>
                <path d="M17.8833433,30.2108798 C18.0195659,30.2108798 18.1551241,30.2108798 18.2913467,30.2443023 L18.2913467,29.9479975 C18.2913467,29.7834552 18.4614589,29.6189128 18.6315712,29.6189128 L18.7000148,29.6189128 C19.8562463,29.8490151 23.2246013,30.2443023 25.5383934,27.4470819 C25.640062,27.3153195 25.8786179,27.2825396 26.0148405,27.3808795 C26.0148405,27.3808795 26.0487301,27.3808795 26.0487301,27.4136594 C26.5929564,27.9072866 27.9538542,28.9279633 30.5733166,28.9935233 C30.7434288,28.9935233 30.8796515,29.1252857 30.9135411,29.322608 L30.9135411,29.4215904 L30.9135411,30.2443023 C31.7302126,30.1125399 32.5468843,30.3754222 33.125,30.9352518 L33.125,26.3608452 C33.125,24.4518967 31.526211,22.9054553 29.5187537,22.8726754 C28.8721943,22.8726754 28.2262995,23.0372177 27.6814088,23.3663025 C27.0355139,22.3128458 25.8786179,21.6546763 24.5854991,21.6546763 L22.7481542,21.6546763 C19.1757974,21.6546763 16.25,24.4853192 16.25,27.9407091 L16.25,30.7707094 C16.7264473,30.4088447 17.3045629,30.2108798 17.8833433,30.2108798 Z" id="Path" fill="#6D6C6B"></path>
                <path d="M31.6668641,30.3485517 C31.5279095,30.3485517 31.3889548,30.3485517 31.25,30.3811839 L31.25,30.7664976 L31.25,34.846805 L31.25,35.2327459 C32.7080075,35.4574077 34.0961987,34.5255012 34.3388611,33.1762761 C34.5815233,31.8270511 33.575627,30.5418358 32.1176195,30.3165468 C31.9440956,30.3485517 31.805141,30.3485517 31.6668641,30.3485517 Z" id="Path" fill="#F9D0B4"></path>
                <path d="M18.75,34.8562463 L18.75,30.7370417 C18.75,30.6081987 18.75,30.4793558 18.75,30.3511411 C17.293128,30.1255089 15.9053726,31.0267812 15.6621088,32.3780614 C15.4195227,33.72997 16.3912224,35.0171429 17.8480946,35.2421468 C18.1604751,35.2742005 18.4376196,35.2742005 18.75,35.2421468 C18.75,35.1133039 18.75,34.9844609 18.75,34.8562463 Z" id="Path" fill="#F9D0B4"></path>
                <path d="M25.94621,27.3313044 C23.6486486,30.2590223 20.3039221,29.8452939 19.1558014,29.6044567 C18.9868824,29.5701475 18.7836519,29.6730752 18.75,29.8796031 L18.75,29.9488941 L18.75,35.0811457 C18.75,38.5941381 21.5543181,41.4532374 25,41.4532374 C28.4463419,41.4532374 31.25,38.5941381 31.25,35.0811457 L31.25,29.3979288 C31.25,29.362947 31.25,29.3286378 31.25,29.2943286 C31.25,29.1221099 31.1147329,28.9498912 30.9121622,28.9498912 C28.3110748,28.8812727 26.9597235,27.8129788 26.4193149,27.2963227 C26.3176997,27.193395 26.1151289,27.193395 25.94621,27.3313044 Z" id="Path" fill="#F9D0B4"></path>
                <path d="M24.944377,40.9144465 C23.8716482,40.9144465 22.8364829,40.7015397 21.875,40.3071578 L21.875,42.3715838 L22.9470065,44.922315 C23.0214113,45.0741372 23.1694984,45.1654676 23.3544267,45.1654676 L26.6455733,45.1654676 C26.8305016,45.1654676 27.01543,45.0741372 27.0529935,44.922315 L28.125,42.3715838 L28.125,40.2158273 C27.2003583,40.6712939 26.0907883,40.9144465 24.944377,40.9144465 Z" id="Path" fill="#F9D0B4"></path>
                <path d="M38.75,62.4892086 L37.9005963,47.4927121 C37.8329094,46.4399321 37.0850359,45.5522309 36.0319082,45.2888754 L31.1392101,44.1050598 L28.2173943,42.6906475 L27.2319531,45.4533121 C27.1642664,45.6177488 27.0282291,45.7166676 26.8583484,45.7166676 L23.8343384,45.7166676 C23.6644577,45.7166676 23.4945769,45.6177488 23.4607336,45.4533121 L22.4752925,42.6906475 L19.5534767,44.1050598 L14.5930918,45.2561165 C13.5399639,45.519472 12.7920905,46.4071732 12.7244037,47.4593111 L11.875,62.4564497 L38.75,62.4892086 Z" id="Path" fill="#E9E9EA"></path>
                <path d="M14.737134,45.0342777 L19.597495,43.8329393 L22.5,42.3975911 L22.5,40.1285412 C20.5085243,39.160561 19.2257001,37.191357 19.0569421,35.0220385 C17.6396391,35.2553968 16.2895754,34.2880683 16.0871977,32.8859638 C15.9520595,31.985123 16.2895754,31.0503867 17.0318467,30.4832871 L17.0318467,27.6132422 C17.0318467,25.4439237 18.1459129,23.4414759 19.9686307,22.2733813 L4.71251591,22.2733813 C4.54375796,22.2733813 4.375,22.4063565 4.375,22.6071226 L4.375,62.4892086 L12.0370068,62.4892086 L12.8807965,47.2700838 C12.9144163,46.2023723 13.6909665,45.3015314 14.737134,45.0342777 Z" id="Path" fill="#ACDEF9"></path>
                <path d="M43.8793096,34.028777 L64.8706902,34.028777 C65.2820102,34.028777 65.625,34.3662525 65.625,34.7709595 L65.625,57.415432 C65.625,57.8207979 65.2820102,58.1582734 64.8706902,58.1582734 L43.8793096,58.1582734 C43.4679898,58.1582734 43.125,57.8207979 43.125,57.415432 L43.125,34.7709595 C43.125,34.3319778 43.4679898,34.028777 43.8793096,34.028777 Z" id="Path" fill="#FCD770"></path>
                <path d="M54.7970466,12.5169927 C50.6540917,8.78052144 44.2212627,9.08027339 40.4486608,13.1842662 C37.4174229,16.4874005 36.9464232,21.3251336 39.2698461,25.128723 C39.3711505,25.2955414 39.3711505,25.5288266 39.3040527,25.7288784 L37.5522761,29.4321162 C37.4174229,29.765753 37.5522761,30.1332745 37.8555316,30.2662081 C38.0239337,30.3333263 38.2258845,30.3333263 38.3942866,30.2662081 L42.1326819,28.5315575 C42.3352907,28.4312059 42.5707906,28.4650907 42.7391927,28.5647909 C47.555756,31.4339368 53.786634,29.8661046 56.6830187,25.0948382 C59.1755014,21.0247302 58.3670398,15.7197753 54.7970466,12.5169927 Z" id="Path" fill="#F75C64"></path>
                <polygon id="Path" fill="#D3D3DD" points="28.75 72.3884892 45 72.3884892 45 81.6690647 28.75 81.6690647"></polygon>
                <path d="M0.625,62.4892086 L0.625,68.1956512 C0.625,70.1633458 2.29275194,71.7697842 4.33473443,71.7697842 L70.6652656,71.7697842 C72.7072481,71.7697842 74.375,70.1633458 74.375,68.1956512 L74.375,62.4892086 L0.625,62.4892086 Z" id="Path" fill="#E9E9EA"></path>
                <path d="M38.75,67.7482014 C38.75,68.6026505 38.0506427,69.294964 37.1874999,69.294964 C36.3249801,69.294964 35.625,68.6026505 35.625,67.7482014 C35.625,66.8937523 36.3249801,66.2014388 37.1874999,66.2014388 C38.0506427,66.2014388 38.75,66.8937523 38.75,67.7482014 Z" id="Path" fill="#E9E9EA"></path>
                <path d="M25.4075976,81.6690647 L49.5930631,81.6690647 C50.5060962,81.6690647 51.25,82.363366 51.25,83.2155191 C51.25,84.0682886 50.5060962,84.7625899 49.5930631,84.7625899 L25.4075976,84.7625899 C24.4939038,84.7625899 23.75,84.0682886 23.75,83.2155191 C23.7836937,82.363366 24.5275976,81.6690647 25.4075976,81.6690647 Z" id="Path" fill="#E9E9EA"></path>
                <path d="M20,22.2733813 L4.71392561,22.2733813 C4.5444628,22.2733813 4.375,22.4228083 4.375,22.6484132 L4.375,25.9856115 L17.3898756,25.9856115 C17.864504,24.4854838 18.7793382,23.1728721 20,22.2733813 Z" id="Path" fill="#60BAE2"></path>
                <path d="M38.6618382,25.4611526 C38.1207904,24.4854838 37.7151695,23.3984771 37.4780069,22.2733813 L27.5,22.2733813 C27.7028104,22.498254 27.9062814,22.7604834 28.041048,23.0608019 C28.5827565,22.68577 29.2248793,22.498254 29.8676626,22.498254 C31.6942775,22.498254 33.2163464,23.9983817 33.4191566,25.9856115 L38.7298821,25.9856115 C38.7635738,25.8361845 38.7635738,25.6486686 38.6618382,25.4611526 Z" id="Path" fill="#60BAE2"></path>
                <path d="M70.2809602,22.2733813 L57.1389094,22.2733813 C56.8634089,23.585993 56.3473492,24.8605157 55.625,25.9856115 L70.625,25.9856115 L70.625,22.6484132 C70.625,22.4608973 70.4872496,22.2733813 70.2809602,22.2733813 Z" id="Path" fill="#60BAE2"></path>
                <path d="M17.9457489,3.09352518 L15.1792511,3.09352518 C14.7287447,3.09352518 14.375,2.8209084 14.375,2.47482014 C14.375,2.12824868 14.7287447,1.85611511 15.1792511,1.85611511 L17.9457489,1.85611511 C18.3962553,1.85611511 18.75,2.12824868 18.75,2.47482014 C18.75,2.8209084 18.3962553,3.09352518 17.9457489,3.09352518 Z" id="Path" fill="#55ACD5"></path>
                <path d="M16.25,4.33093525 C15.8999024,4.33093525 15.625,3.98075332 15.625,3.53478459 L15.625,0.796150664 C15.625,0.350181933 15.8999024,0 16.25,0 C16.5996094,0 16.875,0.350181933 16.875,0.796150664 L16.875,3.53478459 C16.875,3.98075332 16.5996094,4.33093525 16.25,4.33093525 Z" id="Path" fill="#55ACD5"></path>
                <path d="M59.195749,79.1942446 L56.429251,79.1942446 C55.9787448,79.1942446 55.625,78.922111 55.625,78.5755396 C55.625,78.2289681 55.9787448,77.9568345 56.429251,77.9568345 L59.195749,77.9568345 C59.6462552,77.9568345 60,78.2289681 60,78.5755396 C60,78.922111 59.6462552,79.1942446 59.195749,79.1942446 Z" id="Path" fill="#F75C64"></path>
                <path d="M58.125,81.0503597 C57.7753906,81.0503597 57.5,80.7001778 57.5,80.254209 L57.5,77.5155751 C57.5,77.0696064 57.7753906,76.7194245 58.125,76.7194245 C58.4750976,76.7194245 58.75,77.0696064 58.75,77.5155751 L58.75,80.254209 C58.75,80.6678343 58.4750976,81.0503597 58.125,81.0503597 Z" id="Path" fill="#F75C64"></path>
                <path d="M32.4968716,3.09352518 C32.4468177,3.09352518 32.4217907,3.09352518 32.3712459,3.06899359 C32.321192,3.06899359 32.296165,3.04398113 32.2456203,3.04398113 C32.1955664,3.01944954 32.1705393,3.01944954 32.1450216,2.99491794 C32.1199946,2.97038635 32.0699407,2.94585475 32.0449137,2.9208423 C32.0193959,2.89631071 31.9943689,2.87177911 31.969342,2.82271592 C31.944315,2.79770347 31.919288,2.74864028 31.919288,2.72410869 C31.8937703,2.67456464 31.8937703,2.65003304 31.8937703,2.60096985 C31.8687432,2.52689421 31.8687432,2.42828698 31.8937703,2.35469219 C31.8937703,2.30514814 31.919288,2.28061655 31.919288,2.23155336 C31.944315,2.18200931 31.944315,2.15747772 31.969342,2.13294612 C31.9943689,2.10841453 32.0193959,2.05887048 32.0449137,2.03433889 C32.1955664,1.88666846 32.396273,1.83760527 32.6224973,1.86213687 C32.673042,1.86213687 32.6980691,1.88666846 32.748123,1.88666846 C32.7986677,1.91120006 32.8236947,1.91120006 32.8487218,1.93573165 C32.8737486,1.9607441 32.9242934,1.9852757 32.9493204,2.00980729 C32.9743474,2.03433889 32.9993743,2.05887048 33.0244013,2.10841453 C33.0499191,2.13294612 33.0749461,2.18200931 33.0749461,2.20702177 C33.0999731,2.25608496 33.0999731,2.28061655 33.0999731,2.3301606 C33.0999731,2.37922379 33.0999731,2.40375538 33.125,2.45329943 C33.125,2.50236262 33.125,2.52689421 33.0999731,2.57643826 C33.0999731,2.62550145 33.0749461,2.65003304 33.0749461,2.69957709 C33.0499191,2.74864028 33.0499191,2.77317188 33.0244013,2.79770347 C32.9993743,2.82271592 32.9743474,2.87177911 32.9493204,2.89631071 C32.9242934,2.9208423 32.8987757,2.94585475 32.8487218,2.97038635 C32.8236947,2.99491794 32.77315,3.01944954 32.748123,3.01944954 C32.6980691,3.04398113 32.673042,3.04398113 32.6224973,3.04398113 C32.5724434,3.06899359 32.5218986,3.09352518 32.4968716,3.09352518 Z" id="Path" fill="#FFCD29"></path>
                <path d="M65.6252394,83.5251799 C65.5759288,83.5251799 65.5515128,83.5251799 65.502681,83.4998962 C65.4533704,83.4998962 65.4289544,83.4746126 65.3801226,83.4746126 C65.330812,83.4493289 65.306396,83.4493289 65.2819802,83.4235497 C65.2575642,83.398266 65.2082536,83.3729824 65.1838376,83.3476987 C64.9387208,83.093871 64.9387208,82.6878458 65.1838376,82.4593017 C65.2082536,82.4340181 65.2331482,82.4082388 65.2819802,82.3829552 C65.306396,82.3576715 65.3557066,82.3323879 65.3801226,82.3323879 C65.4289544,82.3071042 65.4533704,82.3071042 65.502681,82.3071042 C65.5759288,82.281325 65.6740712,82.281325 65.7477978,82.3071042 C65.7966296,82.3071042 65.8210456,82.3323879 65.8703562,82.3323879 C65.919188,82.3576715 65.943604,82.3576715 65.9684987,82.3829552 C65.9929146,82.4082388 66.0417464,82.4340181 66.0661624,82.4593017 C66.3112792,82.7131294 66.3112792,83.093871 66.0661624,83.3476987 C66.0417464,83.3729824 66.0173306,83.398266 65.9684987,83.4235497 C65.943604,83.4493289 65.8947722,83.4746126 65.8703562,83.4746126 C65.8459403,83.4998962 65.7966296,83.4998962 65.7477978,83.4998962 C65.6984872,83.5251799 65.6740712,83.5251799 65.6252394,83.5251799 Z" id="Path" fill="#FFCD29"></path>
                <g id="Group" transform="translate(0.000000, 8.661871)" fill="#231F20">
                    <path d="M70.3382338,64.4313288 L4.52715895,64.4313288 C2.02768682,64.4313288 0.000659839527,62.4094169 0.000659839527,59.916252 L0.000659839527,54.0525759 C0.000659839527,53.5806649 0.372149493,53.2101126 0.845254392,53.2101126 L74.05445,53.2101126 C74.5275549,53.2101126 74.8990446,53.5806649 74.8990446,54.0525759 L74.8990446,59.916252 C74.8653927,62.4094169 72.8383657,64.4313288 70.3382338,64.4313288 Z M1.65553733,54.8950392 L1.65553733,59.916252 C1.65553733,61.4662528 2.93958514,62.7464022 4.49350709,62.7464022 L70.3382338,62.7464022 C71.8921557,62.7464022 73.1762035,61.4662528 73.1762035,59.916252 L73.1762035,54.8950392 L1.65553733,54.8950392 Z" id="Shape"></path>
                    <path d="M49.5275549,77.1696368 L25.3384976,77.1696368 C23.9528346,77.2032038 22.8383657,76.125114 22.8047139,74.7436058 C22.7704022,73.3614396 23.8518792,72.2497829 25.2368824,72.2162159 L25.3384976,72.2162159 L49.493903,72.2162159 C50.8789063,72.181991 51.9933752,73.2607388 52.0276868,74.642247 C52.0613387,76.0237552 50.9798617,77.1360699 49.5948584,77.1696368 C49.5948584,77.1696368 49.5612068,77.1696368 49.5275549,77.1696368 Z M25.3384976,73.9011425 C24.8990446,73.8669176 24.5275549,74.2381278 24.5275549,74.6758139 C24.493903,75.114158 24.8653927,75.4847103 25.304186,75.4847103 L25.3721495,75.4847103 L49.5275549,75.4847103 C49.9663481,75.5182772 50.3384976,75.147725 50.3384976,74.7093809 C50.3721495,74.2716947 50.0006598,73.9011425 49.5612068,73.9011425 C49.5275549,73.9011425 49.5275549,73.9011425 49.493903,73.9011425 L25.3384976,73.9011425 Z" id="Shape"></path>
                    <path d="M45.5744562,73.9011425 L29.2909365,73.9011425 C28.8178314,73.9011425 28.4463419,73.5299323 28.4463419,73.0586792 L28.4463419,63.5888655 C28.4463419,63.1176124 28.8178314,62.7464022 29.2909365,62.7464022 L45.5744562,62.7464022 C46.0475611,62.7464022 46.4190508,63.1176124 46.4190508,63.5888655 L46.4190508,73.0586792 C46.4190508,73.5299323 46.0475611,73.9011425 45.5744562,73.9011425 Z M30.1355311,72.2162159 L44.7298617,72.2162159 L44.7298617,64.4313288 L30.1355311,64.4313288 L30.1355311,72.2162159 Z" id="Shape"></path>
                    <path d="M37.4326963,61.1292675 C36.0476932,61.1292675 34.9325644,60.0169528 34.9325644,58.6354446 C34.9325644,57.2539364 36.0476932,56.1416217 37.4326963,56.1416217 C38.8176995,56.1416217 39.9328284,57.2539364 39.9328284,58.6354446 C39.8991765,60.0169528 38.8176995,61.1292675 37.4326963,61.1292675 Z M37.4326963,57.8601152 C36.993903,57.8601152 36.6217535,58.2313254 36.6217535,58.6690115 C36.6217535,59.1073556 36.993903,59.4779079 37.4326963,59.4779079 C37.8721495,59.4779079 38.2436392,59.1073556 38.2436392,58.6690115 C38.2436392,58.1971005 37.8721495,57.8601152 37.4326963,57.8601152 Z" id="Shape"></path>
                    <path d="M17.162426,17.5903702 L4.18932111,17.5903702 C3.71687601,17.5903702 3.34472652,17.2198179 3.34472652,16.7479069 L3.34472652,13.749264 C3.34472652,13.1088603 3.88579493,12.5698154 4.52715895,12.5698154 L19.7978252,12.5698154 C20.2709301,12.5698154 20.6424198,12.9403676 20.6424198,13.4122787 C20.6424198,13.6814721 20.5071527,13.9513236 20.2709301,14.1198162 C19.2231049,14.7937869 18.412822,15.8383097 18.0070206,17.0177583 C17.8717535,17.3883106 17.5339157,17.5903702 17.162426,17.5903702 Z M5.03391571,15.9054436 L16.6220176,15.9054436 C16.8925517,15.2992648 17.2303895,14.7602199 17.6355311,14.254742 L5.03391571,14.254742 L5.03391571,15.9054436 Z" id="Shape"></path>
                    <path d="M11.8249841,54.8950392 L4.18932111,54.8950392 C3.71687601,54.8950392 3.34472652,54.5244869 3.34472652,54.0525759 L3.34472652,13.749264 C3.34472652,13.1088603 3.88579493,12.5698154 4.52715895,12.5698154 L19.7978252,12.5698154 C20.2709301,12.5698154 20.6424198,12.9403676 20.6424198,13.4122787 C20.6424198,13.6814721 20.5071527,13.9513236 20.2709301,14.1198162 C18.6826963,15.1307722 17.7028346,16.9163996 17.7028346,18.8040437 L17.7028346,21.7019858 C17.7028346,21.9711793 17.6018792,22.2074638 17.3993084,22.3759564 C16.6220176,22.9821352 16.4867503,24.060883 17.0951225,24.8355544 C17.5002639,25.3410324 18.1422878,25.6108838 18.7843117,25.4759581 C19.2574166,25.4088242 19.6625581,25.7122426 19.7641733,26.1834957 L19.7641733,26.2512875 C19.8987806,28.1718406 21.0475611,29.8567672 22.7367503,30.6992305 C23.0072846,30.8341562 23.2098554,31.1375746 23.2098554,31.440993 L23.2098554,33.7320983 C23.2098554,34.0690836 23.0409365,34.3389351 22.7367503,34.4738608 L19.831477,35.9225028 C19.7641733,35.9560698 19.7298617,35.9560698 19.6625581,35.9902947 L14.7975611,37.2033102 C14.1218855,37.3718029 13.6151287,37.9779817 13.581477,38.6861772 L12.7368824,54.0525759 C12.6352671,54.5244869 12.2637774,54.8950392 11.8249841,54.8950392 Z M5.03391571,53.2101126 L11.0476932,53.2101126 L11.858636,38.6183854 C11.9259395,37.1697433 12.939453,35.9560698 14.3587679,35.5855175 L19.1221495,34.372502 L21.4870144,33.1930534 L21.4870144,31.912246 C19.7298617,30.8677231 18.5137774,29.1156627 18.1422878,27.1273178 C16.2505279,26.9588251 14.8655247,25.2738985 15.0344436,23.3869124 C15.1017473,22.611583 15.4395851,21.8704785 16.0136454,21.2972086 L16.0136454,18.7698188 C16.0136454,17.1191171 16.5883657,15.5013244 17.6355311,14.2205171 L5.03391571,14.2205171 L5.03391571,53.2101126 Z" id="Shape"></path>
                    <path d="M64.831213,49.7724676 L44.189453,49.7724676 C43.3112068,49.7724676 42.6355311,49.0649301 42.6018792,48.1888999 L42.6018792,25.5773169 C42.6018792,24.7012867 43.3112068,24.0273161 44.189453,23.9930912 L64.8655247,23.9930912 C65.7437711,23.9930912 66.4194468,24.7012867 66.4530986,25.5773169 L66.4530986,48.1888999 C66.4194468,49.0649301 65.7101193,49.7724676 64.831213,49.7724676 Z M44.2910684,48.0875411 L64.7302576,48.0875411 L64.7302576,25.7122426 L44.2910684,25.7122426 L44.2910684,48.0875411 Z" id="Shape"></path>
                    <path d="M54.527159,29.6547076 L47.2979571,29.6547076 C46.8248522,29.6547076 46.4533625,29.2841554 46.4533625,28.8122443 C46.4533625,28.3403333 46.8248522,27.969781 47.2979571,27.969781 L54.527159,27.969781 C55.0002639,27.969781 55.3717535,28.3403333 55.3717535,28.8122443 C55.3717535,29.2841554 54.9666122,29.6547076 54.527159,29.6547076 Z" id="Path"></path>
                    <path d="M61.7570206,32.889635 L47.2979571,32.889635 C46.8248522,32.889635 46.4533625,32.5190828 46.4533625,32.0471717 C46.4533625,31.5752607 46.8248522,31.2047085 47.2979571,31.2047085 L61.7570206,31.2047085 C62.2301257,31.2047085 62.6016152,31.5752607 62.6016152,32.0471717 C62.6016152,32.5190828 62.1964738,32.889635 61.7570206,32.889635 Z" id="Path"></path>
                    <path d="M61.7570206,36.1245624 L47.2979571,36.1245624 C46.8248522,36.1245624 46.4533625,35.7540102 46.4533625,35.2820992 C46.4533625,34.8108461 46.8248522,34.4396359 47.2979571,34.4396359 L61.7570206,34.4396359 C62.2301257,34.4396359 62.6016152,34.8108461 62.6016152,35.2820992 C62.6016152,35.7540102 62.1964738,36.1245624 61.7570206,36.1245624 Z" id="Path"></path>
                    <path d="M61.7570206,39.3601478 L47.2979571,39.3601478 C46.8248522,39.3601478 46.4533625,38.9889376 46.4533625,38.5176845 C46.4533625,38.0457735 46.8248522,37.6752213 47.2979571,37.6752213 L61.7570206,37.6752213 C62.2301257,37.6752213 62.6016152,38.0457735 62.6016152,38.5176845 C62.6016152,38.9889376 62.1964738,39.3601478 61.7570206,39.3601478 Z" id="Path"></path>
                    <path d="M61.7570206,42.5950752 L47.2979571,42.5950752 C46.8248522,42.5950752 46.4533625,42.224523 46.4533625,41.752612 C46.4533625,41.2807009 46.8248522,40.9101487 47.2979571,40.9101487 L61.7570206,40.9101487 C62.2301257,40.9101487 62.6016152,41.2807009 62.6016152,41.752612 C62.6016152,42.224523 62.1964738,42.5950752 61.7570206,42.5950752 Z" id="Path"></path>
                    <path d="M61.7570206,45.8635696 L47.2979571,45.8635696 C46.8248522,45.8635696 46.4533625,45.4930174 46.4533625,45.0211063 C46.4533625,44.5491953 46.8248522,44.178643 47.2979571,44.178643 L61.7570206,44.178643 C62.2301257,44.178643 62.6016152,44.5491953 62.6016152,45.0211063 C62.6016152,45.4930174 62.1964738,45.8635696 61.7570206,45.8635696 Z" id="Path"></path>
                    <path d="M38.8520111,17.5903702 L33.5475611,17.5903702 C33.1087679,17.5903702 32.7709301,17.2533849 32.7029666,16.8492657 C32.5340476,15.3663987 31.1826963,14.2883089 29.6960779,14.4568016 C29.3245882,14.4903685 28.9194468,14.6252942 28.6152608,14.8273538 C28.2101193,15.0629803 27.7033625,14.9287126 27.4664801,14.5239354 C27.331213,14.3218758 27.1966057,14.1533832 27.0276868,13.9848905 C26.689849,13.6479052 26.689849,13.1088603 27.0276868,12.8054419 C27.1966057,12.6369493 27.3991765,12.5698154 27.635399,12.5698154 L37.6352671,12.5698154 C38.0410684,12.5698154 38.3789062,12.8390089 38.4462098,13.2095611 C38.6830922,14.1198162 39.0209301,15.0294134 39.5276868,15.8383097 C39.7302576,16.1752951 39.7975611,16.5794142 39.6966057,16.9506245 C39.5613387,17.3547437 39.2571527,17.5903702 38.8520111,17.5903702 Z M34.2232368,15.9054436 L37.6352671,15.9054436 C37.3653927,15.3663987 37.162822,14.8273538 36.993903,14.254742 L33.3449905,14.254742 C33.7164801,14.725995 34.0543179,15.2992648 34.2232368,15.9054436 Z" id="Shape"></path>
                    <path d="M70.6760716,17.5903702 L55.9464738,17.5903702 C55.4733689,17.5903702 55.1018792,17.2198179 55.1018792,16.7479069 C55.1018792,16.5794142 55.1691828,16.4109216 55.2371463,16.2766538 C55.8785103,15.3328318 56.3179635,14.3218758 56.5884976,13.2095611 C56.689453,12.8390089 57.0272909,12.5698154 57.3987806,12.5698154 L70.3045819,12.5698154 C70.9466057,12.5698154 71.4870144,13.1088603 71.4870144,13.749264 L71.4870144,16.7479069 C71.5206662,17.2198179 71.1491765,17.5903702 70.6760716,17.5903702 Z M57.4330922,15.9054436 L69.831477,15.9054436 L69.831477,14.254742 L58.0744562,14.254742 C57.9055373,14.8273538 57.7029666,15.3999657 57.4330922,15.9054436 Z" id="Shape"></path>
                    <path d="M70.6760716,54.8950392 L38.5478252,54.8950392 C38.108372,54.8950392 37.7368824,54.5580539 37.7032306,54.0861429 L36.858636,38.7197441 C36.8249841,38.0122066 36.3182274,37.4053698 35.6425517,37.2368772 L30.7775549,36.0238616 C30.7095914,36.0238616 30.6759395,35.9902947 30.608636,35.9560698 L27.7033625,34.5074277 C27.3991765,34.372502 27.2302576,34.0690836 27.2302576,33.7656652 L27.2302576,31.3396342 C27.2302576,31.0362158 27.3991765,30.7327974 27.6690508,30.5985297 C29.2909365,29.7218415 30.3717535,28.0711398 30.5070206,26.2177206 C30.5406725,25.7458096 30.9464738,25.4088242 31.4195787,25.4423912 L31.4868824,25.4423912 C31.5884976,25.4423912 31.689453,25.4759581 31.7574166,25.4759581 C32.7366184,25.4759581 33.5139095,24.7012867 33.5139095,23.7238977 C33.5139095,23.2519866 33.3113387,22.7800756 32.9735008,22.4430903 C32.8045819,22.2745976 32.7029666,22.072538 32.7029666,21.8369115 L32.7029666,17.186251 C32.7029666,15.703384 31.4868824,14.4903685 30.0002639,14.4568016 C29.4935071,14.4568016 29.0204022,14.5917273 28.581609,14.8609207 C28.1758076,15.0972052 27.6690508,14.9622795 27.4328284,14.5575024 C27.331213,14.3554428 27.1622941,14.1869501 27.0276868,14.0184575 C26.689849,13.6814721 26.689849,13.1424272 27.0276868,12.8390089 C27.1966057,12.6705162 27.3991765,12.6033823 27.635399,12.6033823 L37.6352671,12.6033823 C38.0410684,12.6033823 38.3789062,12.8725758 38.4462098,13.243786 C38.6830922,14.1533832 39.0209301,15.0629803 39.5276868,15.8718767 C39.7639095,16.2766538 39.7975611,16.8156987 39.5949905,17.2533849 L38.0747203,20.5225372 L41.3514833,19.0061033 C41.7909365,18.8040437 42.3313449,18.8376106 42.7707981,19.0732372 C47.1963419,21.7019858 52.9395851,20.2862527 55.608636,15.8383097 C56.0817409,15.0294134 56.4532306,14.1533832 56.689453,13.2095611 C56.7910684,12.8390089 57.1289062,12.5698154 57.5003959,12.5698154 L70.4055373,12.5698154 C71.0475611,12.5698154 71.5879698,13.1088603 71.5879698,13.749264 L71.5879698,54.019009 C71.5206662,54.490262 71.1491765,54.8614723 70.6760716,54.8950392 Z M39.3587679,53.2101126 L69.831477,53.2101126 L69.831477,14.254742 L58.0744562,14.254742 C56.2843117,20.0841931 50.1352671,23.3533454 44.2910684,21.5670601 C43.4801257,21.3314335 42.6691828,20.9602233 41.9262035,20.5225372 L38.2772909,22.2410307 C37.5343117,22.578016 36.6560652,22.2745976 36.2839157,21.5334931 C36.1149968,21.128716 36.1149968,20.6910299 36.2839157,20.2862527 L38.0074166,16.6136392 C37.5679635,15.8718767 37.2301257,15.0629803 36.9595914,14.254742 L33.2776868,14.254742 C33.9870144,15.0629803 34.3921557,16.1081612 34.3921557,17.1526841 L34.3921557,21.4999262 C34.8989125,22.106105 35.2030986,22.8814344 35.2030986,23.6903307 C35.2030986,25.4759581 33.8517473,26.9588251 32.0609427,27.1273178 C31.7231049,29.0478709 30.5749841,30.7670223 28.8857949,31.8115452 L28.8857949,33.1930534 L31.2506598,34.372502 L36.0140414,35.5855175 C37.4326963,35.9225028 38.4462098,37.1697433 38.5141733,38.6183854 L39.3587679,53.2101126 Z" id="Shape"></path>
                    <path d="M37.6352671,22.4095234 C36.8249841,22.4095234 36.1493084,21.7355527 36.1493084,20.9266564 C36.1493084,20.7245968 36.1829603,20.4889703 36.2839157,20.3204776 L38.0074166,16.6472061 C34.9325644,11.3903668 36.6897171,4.65066051 41.9598554,1.58356779 C46.1155247,-0.842463284 51.385663,-0.303418375 54.9666122,2.93150904 C59.4937711,7.00955771 59.7979571,13.9848905 55.7095914,18.5006253 C52.1966057,22.3423895 46.4533625,23.2184197 41.9598554,20.5896711 L38.2772909,22.2410307 C38.0747203,22.3423895 37.8721495,22.4095234 37.6352671,22.4095234 Z M47.5341797,1.71849351 C42.3649968,1.71849351 38.1763355,5.86367605 38.1763355,11.0191566 C38.1763355,12.7040831 38.6487806,14.3890097 39.5276868,15.8383097 C39.7639095,16.2424289 39.7975611,16.7821318 39.5949905,17.2198179 L38.0747203,20.4889703 L41.3514833,18.9725363 C41.7909365,18.7698188 42.3313449,18.8040437 42.7707981,19.0396702 C47.1963419,21.6684189 52.9395851,20.2526858 55.608636,15.8047428 C57.9055373,11.9965456 57.1625581,7.11025853 53.8857949,4.11095764 C52.0949905,2.59452373 49.8653927,1.71849351 47.5341797,1.71849351 Z" id="Shape"></path>
                    <path d="M70.3382338,64.4313288 L4.52715895,64.4313288 C2.02768682,64.4313288 0.000659839527,62.4094169 0.000659839527,59.916252 L0.000659839527,13.749264 C0.000659839527,11.2554411 2.02768682,9.23352919 4.52715895,9.23352919 L37.3990446,9.23352919 C37.8721495,9.23352919 38.2436392,9.60408144 38.2436392,10.0759925 L38.2436392,10.1431263 C38.0410684,12.1314713 38.5141733,14.1198162 39.5276868,15.8383097 C39.7639095,16.2424289 39.7975611,16.7821318 39.5949905,17.2198179 L38.0747203,20.4889703 L41.3514833,18.9725363 C41.7909365,18.7698188 42.3313449,18.8040437 42.7707981,19.0396702 C47.1963419,21.6684189 52.9395851,20.2526858 55.608636,15.8047428 C56.6221495,14.0862493 57.0952544,12.0979044 56.8920238,10.1095594 C56.858372,9.63764838 57.1962098,9.23352919 57.6693149,9.19996225 L57.7366184,9.19996225 L70.4055373,9.19996225 C72.9056693,9.19996225 74.9326963,11.2218741 74.9326963,13.7150391 L74.9326963,59.8820271 C74.8653927,62.4094169 72.8383657,64.4313288 70.3382338,64.4313288 Z M4.52715895,10.9184558 C2.97323682,10.9184558 1.68984899,12.1986052 1.68984899,13.749264 L1.68984899,59.916252 C1.68984899,61.4662528 2.97323682,62.7464022 4.52715895,62.7464022 L70.3718855,62.7464022 C71.9258076,62.7464022 73.2098554,61.4662528 73.2098554,59.916252 L73.2098554,13.749264 C73.2098554,12.1986052 71.9258076,10.9184558 70.3718855,10.9184558 L58.581213,10.9184558 C58.6491765,16.9841914 53.7841797,21.9711793 47.6694468,22.072538 C45.6760716,22.106105 43.6826963,21.5670601 41.9598554,20.5561041 L38.2772909,22.2410307 C37.5343117,22.578016 36.6560652,22.2745976 36.2839157,21.5334931 C36.1149968,21.128716 36.1149968,20.6910299 36.2839157,20.2862527 L38.0074166,16.6136392 C36.993903,14.8944877 36.4871463,12.9068007 36.4871463,10.9184558 L4.52715895,10.9184558 Z" id="Shape"></path>
                    <path d="M31.7574166,27.1608847 C31.5884976,27.1608847 31.3852671,27.1608847 31.2163481,27.1273178 C30.7775549,27.0601839 30.4733689,26.6889737 30.5070206,26.2512875 C30.5070206,26.1163618 30.5070206,26.015003 30.5070206,25.8807353 L30.5070206,21.5670601 C30.5070206,21.4321344 30.5070206,21.3314335 30.5070206,21.1965078 C30.4733689,20.7581637 30.7775549,20.3876115 31.2163481,20.3204776 C33.1087679,20.0170592 34.8652608,21.2972086 35.1694468,23.1848528 C35.4736328,25.0718389 34.1895851,26.8238994 32.2978252,27.1273178 C32.1289062,27.1608847 31.9263355,27.1608847 31.7574166,27.1608847 Z M32.1962098,22.0389711 L32.1962098,25.4423912 C33.1424198,25.2067647 33.7164801,24.2293756 33.4466057,23.2855536 C33.3113387,22.6793748 32.8045819,22.1738968 32.1962098,22.0389711 Z" id="Shape"></path>
                    <path d="M18.4464738,27.1608847 C16.5547139,27.1608847 15.0001319,25.6108838 15.0001319,23.7238977 C15.0001319,21.8369115 16.5547139,20.2862527 18.4464738,20.2862527 C18.6153927,20.2862527 18.8179635,20.2862527 18.9868824,20.3204776 C19.4263355,20.3876115 19.7298617,20.7581637 19.6962098,21.1965078 L19.6962098,21.5670601 L19.6962098,25.8465104 L19.6962098,26.2177206 C19.7298617,26.6554067 19.4263355,27.025959 18.9868824,27.0937508 C18.8179635,27.1608847 18.6490446,27.1608847 18.4464738,27.1608847 Z M18.0070206,22.0389711 C17.0614706,22.2745976 16.4867503,23.2519866 16.7572846,24.1958087 C16.9262035,24.8019875 17.3993084,25.3074655 18.0070206,25.4423912 L18.0070206,22.0389711 Z" id="Shape"></path>
                    <path d="M25.1016152,32.9574269 C21.1828284,32.9574269 18.0070206,29.7896333 18.0070206,25.8807353 L18.0070206,20.8595225 C18.0070206,20.2191188 18.5474292,19.6800739 19.189453,19.6800739 C19.2574166,19.6800739 19.358372,19.6800739 19.4263355,19.7136409 C20.5744562,19.9492674 23.412426,20.2526858 25.3721495,17.7930877 C25.7772909,17.2876098 26.5209301,17.186251 27.0276868,17.5903702 C27.0613387,17.6245951 27.0949905,17.658162 27.1286422,17.658162 C27.5344436,18.0622812 28.716876,18.9725363 31.0474292,19.0396702 C31.689453,19.0732372 32.1625581,19.5787151 32.1962098,20.1855519 L32.1962098,25.8465104 C32.1962098,29.7896333 29.0204022,32.9574269 25.1016152,32.9574269 Z M19.6962098,21.4657013 L19.6962098,25.8807353 C19.7641733,28.8458113 22.2299936,31.2047085 25.2368824,31.1375746 C28.1421557,31.0697827 30.4397171,28.7451104 30.5070206,25.8807353 L30.5070206,20.7245968 C29.0204022,20.6574629 27.5680954,20.1519849 26.3520111,19.2417298 C24.1560652,21.6684189 21.1828284,21.6684189 19.6962098,21.4657013 Z" id="Shape"></path>
                    <path d="M33.581213,22.7129417 C33.3786422,22.7129417 33.1424198,22.611583 33.0071527,22.4766572 C32.6693149,22.1738968 32.2298617,21.9711793 31.7910684,21.9711793 C31.689453,21.9711793 31.6221495,21.9711793 31.5205341,22.0054042 C31.0474292,22.072538 30.6422878,21.7691197 30.5406725,21.2972086 C30.5406725,21.2636417 30.5406725,21.1965078 30.5406725,21.1629409 L30.5406725,20.7245968 C29.0547139,20.6574629 27.6017473,20.1519849 26.385663,19.2417298 C24.1560652,21.7019858 21.1491765,21.6684189 19.6625581,21.4657013 C19.5272909,21.8369115 19.1221495,22.072538 18.7506598,22.0054042 C18.2775549,21.9376123 17.7707981,22.0389711 17.3649968,22.3759564 C16.9935071,22.6793748 16.4530986,22.611583 16.1825644,22.2410307 C16.0479571,22.106105 16.0136454,21.9040454 16.0136454,21.7019858 L16.0136454,18.8040437 C16.0136454,14.7937869 19.2910684,11.5246345 23.3114706,11.5246345 L25.1352671,11.5246345 C26.4193149,11.5246345 27.635399,12.0979044 28.4463419,13.0410685 C28.9530986,12.8390089 29.4598554,12.738308 30.0002639,12.738308 C32.4330922,12.738308 34.4258076,14.725995 34.4258076,17.1526841 L34.4258076,21.8369115 C34.4258076,22.3081646 34.0206662,22.7129417 33.581213,22.7129417 Z M32.1962098,20.3204776 L32.7029666,20.4211784 L32.7029666,17.186251 C32.7029666,15.703384 31.4868824,14.4903685 30.0002639,14.4568016 C29.4935071,14.4568016 29.0204022,14.5917273 28.581609,14.8609207 C28.1758076,15.0972052 27.6690508,14.9622795 27.4328284,14.5575024 C26.9260716,13.749264 26.0478252,13.243786 25.1016152,13.2095611 L23.277159,13.2095611 C20.1693149,13.2095611 17.6691828,15.703384 17.6691828,18.8040437 L17.6691828,20.3540445 C17.8381017,20.3204776 18.0070206,20.2862527 18.1422878,20.2862527 C18.3785103,19.8485666 18.9195787,19.6122821 19.4263355,19.7136409 C20.5744562,19.9492674 23.412426,20.2526858 25.3721495,17.7930877 C25.7772909,17.2876098 26.5209301,17.186251 27.0276868,17.5903702 C27.0613387,17.6245951 27.0949905,17.658162 27.1286422,17.658162 C27.5344436,18.0622812 28.716876,18.9725363 31.0474292,19.0396702 C31.689453,19.0732372 32.1625581,19.5787151 32.1962098,20.1855519 L32.1962098,20.3204776 Z" id="Shape"></path>
                    <path d="M25.2032306,41.1122083 C25.1352671,41.1122083 25.1016152,41.1122083 25.0343117,41.0786413 C24.9326963,41.0450744 24.8317409,41.0108495 24.7301257,40.9437156 C24.6964738,40.9101487 24.6285103,40.8765817 24.5948584,40.8423568 C24.2570206,40.5053715 24.2570206,39.9663266 24.5948584,39.6629082 C24.6285103,39.6293413 24.662822,39.5957744 24.7301257,39.5622074 C24.7637774,39.5286405 24.8317409,39.4944156 24.8653927,39.4944156 C24.9326963,39.4608486 24.9663481,39.4608486 25.0343117,39.4608486 C25.5074166,39.3601478 25.9462098,39.6629082 26.0141733,40.1348193 L26.0141733,40.3033119 C26.0478252,40.741656 25.6763355,41.1122083 25.2032306,41.1122083 Z" id="Path"></path>
                    <path d="M25.2032306,44.4484945 C25.1352671,44.4484945 25.1016152,44.4484945 25.0343117,44.4149275 C24.9663481,44.4149275 24.9326963,44.3807026 24.8653927,44.3807026 C24.7974292,44.3471357 24.7637774,44.3471357 24.7301257,44.3135688 C24.6964738,44.2800018 24.6285103,44.2464349 24.5948584,44.21221 C24.2570206,43.8752247 24.2570206,43.3361798 24.5948584,43.0327614 C24.6285103,42.9991944 24.662822,42.9656275 24.7301257,42.9320606 C24.7637774,42.8984936 24.8317409,42.8642687 24.8653927,42.8642687 C24.9326963,42.8307018 24.9663481,42.8307018 25.0343117,42.8307018 C25.304186,42.7635679 25.608372,42.8642687 25.8109427,43.0669863 C26.1487806,43.4039716 26.1487806,43.9430165 25.8109427,44.2464349 C25.6420238,44.3471357 25.439453,44.4484945 25.2032306,44.4484945 Z" id="Path"></path>
                    <path d="M25.2032306,47.7847807 C25.1352671,47.7847807 25.1016152,47.7847807 25.0343117,47.7505558 C24.9663481,47.7505558 24.9326963,47.7169888 24.8653927,47.7169888 C24.7974292,47.6834219 24.7637774,47.6834219 24.7301257,47.649855 C24.6964738,47.616288 24.6285103,47.5820631 24.5948584,47.5484962 C24.2570206,47.2115109 24.2570206,46.6724659 24.5948584,46.3690476 C24.6285103,46.3354806 24.662822,46.3019137 24.7301257,46.2683468 C24.7637774,46.2341219 24.8317409,46.2005549 24.8653927,46.2005549 C25.304186,46.0320623 25.7772909,46.2341219 25.9798617,46.6724659 C26.1487806,47.11081 25.9462098,47.5820631 25.5074166,47.7847807 C25.4058014,47.7505558 25.304186,47.7847807 25.2032306,47.7847807 Z" id="Path"></path>
                    <path d="M25.2032306,51.1204089 C25.1352671,51.1204089 25.1016152,51.1204089 25.0343117,51.086842 C24.9663481,51.086842 24.9326963,51.053275 24.8653927,51.053275 C24.7974292,51.0197081 24.7637774,51.0197081 24.7301257,50.9861411 C24.6964738,50.9519162 24.6285103,50.9183493 24.5948584,50.8847824 C24.4259395,50.7162897 24.358636,50.5142301 24.358636,50.2779456 C24.358636,50.0423191 24.4595914,49.8402595 24.5948584,49.6717668 C24.6285103,49.6381999 24.662822,49.603975 24.7301257,49.5704081 C24.7637774,49.5368411 24.8317409,49.5032742 24.8653927,49.5032742 C25.1695787,49.3683485 25.5410684,49.4354823 25.7772909,49.6717668 C25.8452544,49.7389007 25.9125581,49.8402595 25.9462098,49.9409603 C25.9798617,50.0423191 26.0141733,50.1436779 26.0141733,50.2443787 C26.0478252,50.7162897 25.6763355,51.1204089 25.2032306,51.1204089 Z" id="Path"></path>
                    <path d="M32.5003959,54.8950392 C32.0272909,54.8950392 31.6558014,54.5244869 31.6558014,54.0525759 L31.6558014,43.6060312 C31.6558014,43.1341202 32.0272909,42.7635679 32.5003959,42.7635679 C32.9735008,42.7635679 33.3449905,43.1341202 33.3449905,43.6060312 L33.3449905,54.019009 C33.3449905,54.490262 32.9735008,54.8614723 32.5003959,54.8950392 Z" id="Path"></path>
                    <path d="M17.7028346,54.8950392 C17.2303895,54.8950392 16.85824,54.5244869 16.85824,54.0525759 L16.85824,43.6060312 C16.85824,43.1341202 17.2303895,42.7635679 17.7028346,42.7635679 C18.1759395,42.7635679 18.5474292,43.1341202 18.5474292,43.6060312 L18.5474292,54.019009 C18.5474292,54.490262 18.1759395,54.8614723 17.7028346,54.8950392 Z" id="Path"></path>
                    <path d="M26.7235008,37.7087882 L23.7166122,37.7087882 C23.1762035,37.7087882 22.7030986,37.3718029 22.5341797,36.8663249 L21.5543179,34.0355167 C21.5206662,33.9341579 21.5206662,33.867024 21.5206662,33.7656652 L21.5206662,31.4745599 C21.5206662,31.0026489 21.8921557,30.6320966 22.3652608,30.6320966 C22.5005279,30.6320966 22.6357949,30.6656635 22.7367503,30.7327974 C23.4803895,31.1040076 24.3249841,31.3060672 25.1352671,31.3060672 C26.0478252,31.3060672 26.9260716,31.0697827 27.7033625,30.6656635 C28.1085041,30.430037 28.6152608,30.5985297 28.8514833,31.0026489 C28.9194468,31.1375746 28.9530986,31.2725003 28.9530986,31.4067681 L28.9530986,33.7998902 C28.9530986,33.900591 28.9530986,34.0019497 28.9194468,34.0690836 L27.9395851,36.8998919 C27.7033625,37.3718029 27.2302576,37.7087882 26.7235008,37.7087882 Z M23.9871463,36.0238616 L26.385663,36.0238616 L27.2302576,33.6313975 L27.2302576,32.6540085 C25.9125581,33.0581277 24.493903,33.0916946 23.1762035,32.7211424 L23.1762035,33.6649644 L23.9871463,36.0238616 Z" id="Shape"></path>
                    <path d="M38.581477,54.8950392 L11.8249841,54.8950392 C11.3518792,54.8950392 10.9803895,54.5244869 10.9803895,54.0525759 L10.9803895,54.019009 L11.8249841,38.6519523 C11.8922878,37.2033102 12.9058014,35.9902947 14.3244563,35.6190845 L19.0884976,34.4060689 L21.9258076,33.0245607 C22.331609,32.8225011 22.8383657,32.9909938 23.0409365,33.395113 C23.0409365,33.4286799 23.0745882,33.4629048 23.0745882,33.4964718 L23.9528346,36.0238616 L26.3520111,36.0238616 L27.2302576,33.4964718 C27.3991765,33.0581277 27.8722814,32.8225011 28.3110747,32.9909938 C28.3447265,32.9909938 28.3790382,33.0245607 28.41269,33.0245607 L31.2506598,34.4060689 L36.0140414,35.6190845 C37.4326963,35.9560698 38.4462098,37.2033102 38.5141733,38.6519523 L39.3587679,54.019009 C39.3924198,54.490262 39.0209301,54.8950392 38.5478252,54.8950392 C38.6151287,54.8614723 38.581477,54.8950392 38.581477,54.8950392 Z M12.7368824,53.2101126 L37.7032306,53.2101126 L36.8922878,38.7197441 C36.858636,38.0122066 36.3518792,37.4053698 35.6762035,37.2368772 L30.8112068,36.0238616 C30.743903,36.0238616 30.7095914,35.9902947 30.6422878,35.9560698 L28.581609,34.9451138 L27.9059333,36.8663249 C27.7370144,37.3718029 27.2639095,37.7087882 26.7235008,37.7087882 L23.7166122,37.7087882 C23.1762035,37.7087882 22.7030986,37.3718029 22.5341797,36.8663249 L21.8585041,34.9451138 L19.7978252,35.9560698 C19.7298617,35.9902947 19.6962098,35.9902947 19.6289063,36.0238616 L14.7639095,37.2368772 C14.0882338,37.4053698 13.581477,38.0122066 13.5478252,38.7197441 L12.7368824,53.2101126 Z" id="Shape"></path>
                    <path d="M42.3649968,12.0643374 C42.2976932,12.0643374 42.2640414,12.0643374 42.1960779,12.0643374 C42.1287743,12.0643374 42.0951225,12.0301125 42.027159,12.0301125 C41.9935071,11.9965456 41.9262035,11.9965456 41.8925517,11.9629786 C41.85824,11.9294117 41.7909365,11.8958448 41.7572846,11.8616199 C41.7236328,11.8280529 41.6893211,11.794486 41.6556693,11.7273521 C41.6220176,11.6931272 41.5883657,11.6259933 41.5883657,11.5924264 C41.5547139,11.5588594 41.5547139,11.4910676 41.5547139,11.4239337 C41.5204022,11.3225749 41.5204022,11.1876492 41.5547139,11.0869484 C41.5547139,11.0191566 41.5883657,10.9855896 41.5883657,10.9184558 C41.6220176,10.8506639 41.6220176,10.817097 41.6556693,10.78353 C41.6893211,10.7499631 41.7236328,10.6821713 41.7572846,10.6486043 C41.7909365,10.6150374 41.8245882,10.5814704 41.8925517,10.5479035 C41.9262035,10.5136786 41.9935071,10.4801117 42.027159,10.4801117 C42.0951225,10.4465447 42.1287743,10.4465447 42.1960779,10.4465447 C42.2976932,10.4129778 42.4329603,10.4129778 42.5339157,10.4465447 C42.6018792,10.4465447 42.6355311,10.4801117 42.7028346,10.4801117 C42.7707981,10.5136786 42.80445,10.5136786 42.8381017,10.5479035 C42.8717535,10.5814704 42.9397171,10.6150374 42.9733689,10.6486043 C43.0070206,10.6821713 43.0406725,10.7163962 43.0749841,10.78353 C43.108636,10.817097 43.1422878,10.8848888 43.1422878,10.9184558 C43.1759395,10.9855896 43.1759395,11.0191566 43.1759395,11.0869484 L43.1759395,11.2554411 C43.1759395,11.4910676 43.0749841,11.6931272 42.9397171,11.8616199 C42.9060652,11.8958448 42.8717535,11.9294117 42.80445,11.9629786 C42.7707981,11.9965456 42.7028346,12.0301125 42.6691828,12.0301125 C42.6018792,12.0643374 42.5682274,12.0643374 42.5002639,12.0643374 C42.4666122,12.0643374 42.3993084,12.0643374 42.3649968,12.0643374 Z" id="Path"></path>
                    <path d="M45.7097233,12.0643374 C45.4735008,12.0643374 45.2709301,11.9629786 45.1020111,11.8280529 C44.9330922,11.6595603 44.8651287,11.4575007 44.8651287,11.2218741 C44.8651287,11.1540823 44.8651287,11.1205154 44.8987806,11.0533815 C44.9330922,10.9520227 44.9667441,10.8506639 45.0340476,10.7499631 C45.0676995,10.7163962 45.1020111,10.6486043 45.135663,10.6150374 C45.1693149,10.5814704 45.2029666,10.5479035 45.2709301,10.5136786 C45.3045819,10.4801117 45.3718855,10.4465447 45.4055373,10.4465447 C45.4735008,10.4129778 45.5071527,10.4129778 45.5744562,10.4129778 C45.8449905,10.3451859 46.1491765,10.4465447 46.3180954,10.6486043 C46.3517473,10.6821713 46.385399,10.7163962 46.4190508,10.78353 C46.4870144,10.8848888 46.5206662,10.9855896 46.5543179,11.0869484 C46.5543179,11.1540823 46.5543179,11.1876492 46.5879698,11.2554411 C46.5543179,11.6931272 46.1491765,12.0643374 45.7097233,12.0643374 Z" id="Path"></path>
                    <path d="M49.0207981,12.0643374 C48.7839157,12.0643374 48.5813449,11.9629786 48.412426,11.8280529 C48.0745882,11.4910676 48.0745882,10.9520227 48.412426,10.6486043 C48.4460779,10.6150374 48.4803895,10.5814704 48.5476932,10.5479035 C48.8855311,10.311619 49.3249841,10.3794108 49.6285103,10.6486043 C49.662822,10.6821713 49.6964738,10.7163962 49.7301257,10.78353 C49.7974292,10.8848888 49.8317409,10.9855896 49.8653927,11.0869484 C49.8653927,11.1540823 49.8653927,11.1876492 49.8990446,11.2554411 C49.8653927,11.6931272 49.493903,12.0643374 49.0207981,12.0643374 Z" id="Path"></path>
                    <path d="M52.3655247,12.0643374 C52.2975611,12.0643374 52.2639095,12.0643374 52.1966057,12.0643374 C52.1286422,12.0643374 52.0949905,12.0301125 52.0276868,12.0301125 C51.9933752,11.9965456 51.9260716,11.9965456 51.8924198,11.9629786 C51.8587679,11.9294117 51.7908044,11.8958448 51.7571527,11.8616199 C51.7235008,11.8280529 51.689849,11.794486 51.6555373,11.7273521 C51.6218855,11.6931272 51.5882338,11.6259933 51.5882338,11.5924264 C51.5545819,11.5246345 51.5545819,11.4910676 51.5545819,11.4239337 C51.5545819,11.3561419 51.5545819,11.3225749 51.5209301,11.2554411 C51.5209301,11.0191566 51.6218855,10.817097 51.7571527,10.6486043 C51.9933752,10.4129778 52.3655247,10.3451859 52.6690508,10.4801117 C52.7370144,10.5136786 52.7706662,10.5136786 52.8043179,10.5479035 C52.8379698,10.5814704 52.9059333,10.6150374 52.9395851,10.6486043 C52.9732368,10.6821713 53.0068887,10.7163962 53.0412003,10.78353 C53.1085041,10.8848888 53.1421557,10.9855896 53.1758076,11.0869484 C53.2101193,11.1876492 53.2101193,11.3225749 53.1758076,11.4239337 C53.1758076,11.4910676 53.1421557,11.5246345 53.1421557,11.5924264 C53.1085041,11.6595603 53.1085041,11.6931272 53.0748522,11.7273521 C53.0412003,11.760919 53.0068887,11.8280529 52.9732368,11.8616199 C52.8043179,11.9629786 52.6017473,12.0643374 52.3655247,12.0643374 Z" id="Path"></path>
                </g>
                <path d="M26.821191,8.60575879 C25.3136529,8.30698197 24.1079169,7.15049665 23.8061147,5.62090454 C23.8061147,5.58373956 23.7685735,5.54657458 23.7310324,5.58373956 C23.6934911,5.58373956 23.6934911,5.62090454 23.6934911,5.62090454 C23.3916889,7.11333167 22.2234942,8.30698197 20.6784148,8.60575879 C20.6408735,8.60575879 20.6025962,8.64292377 20.6408735,8.68008875 C20.6408735,8.71798222 20.6784148,8.71798222 20.6784148,8.71798222 C22.185953,9.01603055 23.3916889,10.1725159 23.6934911,11.7028365 C23.6934911,11.7400014 23.7310324,11.7771664 23.7685735,11.7400014 C23.8061147,11.7400014 23.8061147,11.7028365 23.8061147,11.7028365 C24.1079169,10.2104093 25.2761116,9.01603055 26.821191,8.71798222 C26.8594683,8.71798222 26.8970096,8.68008875 26.8594683,8.64292377 C26.8594683,8.64292377 26.821191,8.60575879 26.821191,8.60575879 Z" id="Path" fill="#6DCC6D"></path>
            </g>
        </g>
    </g>
</svg>