<?xml version="1.0" encoding="UTF-8"?>
<svg width="149px" height="172px" viewBox="0 0 149 172" version="1.1" xmlns="http://www.w3.org/2000/svg" xmlns:xlink="http://www.w3.org/1999/xlink">
    <!-- Generator: Sketch 52.4 (67378) - http://www.bohemiancoding.com/sketch -->
    <title>online-support</title>
    <desc>Created with Sketch.</desc>
    <g id="Elementos" stroke="none" stroke-width="1" fill="none" fill-rule="evenodd">
        <g id="Home/Servicios" transform="translate(-591.000000, -319.000000)" fill-rule="nonzero">
            <g id="Group-4" transform="translate(44.000000, 73.000000)">
                <g id="online-support" transform="translate(547.000000, 246.000000)">
                    <path d="M140.538044,39 L115.099558,39 C116.184669,50.0733435 107.909211,59.8789658 96.7162776,60.9473431 C92.3745111,61.3473334 87.9651736,60.4131545 84.2341957,58.2112544 C83.8950158,58.0119105 83.4206939,57.9454625 83.0126182,58.1448064 L75.4830913,61.6144277 C74.8047317,61.8802195 74.0588013,61.6144277 73.7871923,61.0137911 C73.6520505,60.6802488 73.6520505,60.2802585 73.7871923,59.9467163 L77.3154573,52.5410355 C77.5181702,52.1410452 77.4505995,51.741055 77.2465614,51.3410647 C75.0087697,47.6720995 73.9912303,43.3360498 74.3979812,39.066448 L8.39305993,39.066448 C4.3229022,39.066448 1,42.3354229 1,46.3379304 L1,137.728518 C1,141.731025 4.3229022,145 8.39305993,145 L140.605615,145 C144.675773,145 148,141.731025 148,137.728518 L148,46.3379304 C147.932429,42.2689749 144.675773,39 140.538044,39 Z" id="Path" fill="#6D6C6B"></path>
                    <path d="M139.324963,45 L113.53907,45 C110.973401,55.7369172 99.969768,62.3649634 89.0346933,59.7797666 C87.0095818,59.316321 85.1189502,58.5201789 83.2968773,57.525972 C82.9593587,57.3279071 82.4873599,57.2618855 82.0812829,57.4599504 L74.5886338,60.9073109 C73.9135967,61.1713974 73.1713197,60.9073109 72.9010409,60.3105279 C72.766561,59.9791256 72.766561,59.5817016 72.9010409,59.2502993 L76.4120253,51.8921327 C76.6137454,51.4947088 76.5465056,51.0972849 76.3434669,50.6998609 C75.263671,48.9768277 74.4541539,47.0544355 73.9808368,45.0660216 L54,45.0660216 C54.4047587,45.4634456 54.8108358,45.9268912 55.0797959,46.4576525 C56.1609101,45.7948479 57.442426,45.4634456 58.7252602,45.4634456 C62.6410034,45.4634456 65.8131506,48.5781096 65.8803907,52.4889157 L65.8803907,61.7021588 C67.9740607,63.624551 68.0413008,66.8725525 66.0834294,68.926988 C64.8678349,70.1865756 63.180242,70.7160428 61.4254089,70.4506621 C61.1551305,74.6268489 58.6580204,78.4043176 54.8780759,80.3927314 L54.8780759,85.0996795 L60.683132,87.9489629 L70.4039309,90.3348007 C72.4962825,90.8655621 73.9808368,92.6546169 74.1166353,94.7763681 L75.8042283,125 L140,125 L140,45.6628046 C140,45.3314023 139.729721,45 139.324963,45 Z" id="Path" fill="#ACDEF9"></path>
                    <path d="M35.2908842,60.5170028 C35.5653476,60.5170028 35.8384722,60.5170028 36.1129356,60.5854283 L36.1129356,59.9788074 C36.1129356,59.6419419 36.4556802,59.3050765 36.7984249,59.3050765 L36.9363261,59.3050765 C39.2659186,59.7761619 46.05253,60.5854283 50.7143927,54.8587158 C50.9192361,54.5889604 51.399882,54.5218504 51.6743454,54.7231803 C51.6743454,54.7231803 51.7426266,54.7231803 51.7426266,54.7902903 C52.8391418,55.8008867 55.5810988,57.8905047 60.8588305,58.0247247 C61.2015751,58.0247247 61.4760385,58.2944802 61.5443198,58.6984556 L61.5443198,58.9011011 L61.5443198,60.5854283 C63.1897617,60.3156728 64.835204,60.8538682 66,62 L66,52.6348777 C66,48.7267125 62.7787362,45.5607035 58.7340814,45.4935935 C57.4313842,45.4935935 56.1300256,45.830459 55.0321717,46.5041898 C53.7308132,44.3474618 51.399882,43 48.7944871,43 L45.0925773,43 C37.89494,43 32,48.7951379 32,55.8693121 L32,61.6631346 C32.959953,60.9222937 34.124749,60.5170028 35.2908842,60.5170028 Z" id="Path" fill="#6D6C6B"></path>
                    <path d="M62.8003791,61.0646611 C62.5335862,61.0646611 62.2667932,61.0646611 62,61.1305896 L62,61.9090576 L62,70.1527019 L62,70.9324373 C64.7993744,71.3863324 67.4647015,69.5035561 67.9306133,66.7776509 C68.3965248,64.0517456 66.4652038,61.4551625 63.6658294,61 C63.3326635,61.0646611 63.0658706,61.0646611 62.8003791,61.0646611 Z" id="Path" fill="#F9D0B4"></path>
                    <path d="M37,70.1717766 L37,61.8495464 C37,61.5892387 37,61.328931 37,61.0698927 C34.2028057,60.6140368 31.5383153,62.4349214 31.0712488,65.1649788 C30.6054836,67.8963056 32.4711471,70.4968439 35.2683417,70.9514303 C35.8681122,71.0161899 36.4002295,71.0161899 37,70.9514303 C37,70.6911226 37,70.4308149 37,70.1717766 Z" id="Path" fill="#F9D0B4"></path>
                    <path d="M51.3924199,55.2130621 C46.7972973,60.9737688 40.1078443,60.1596986 37.8116027,59.6858167 C37.4737649,59.6183084 37.0673037,59.8208335 37,60.2272069 L37,60.3635469 L37,70.4619914 C37,77.3743101 42.6086361,83 49.5,83 C56.3926838,83 62,77.3743101 62,70.4619914 L62,59.2794433 C62,59.2106116 62,59.1431033 62,59.0755949 C62,58.7367298 61.7294659,58.3978647 61.3243243,58.3978647 C56.1221497,58.262848 53.419447,56.1608258 52.3386297,55.1442305 C52.1353993,54.9417054 51.7302578,54.9417054 51.3924199,55.2130621 Z" id="Path" fill="#F9D0B4"></path>
                    <path d="M49.8932038,81.4114545 C47.8335645,81.4114545 45.8460472,80.9813085 44,80.1845194 L44,84.35538 L46.0582524,89.5087469 C46.2011097,89.8154806 46.4854369,90 46.8404993,90 L53.1595007,90 C53.5145631,90 53.8696255,89.8154806 53.9417476,89.5087469 L56,84.35538 L56,80 C54.2246879,80.9202013 52.0943135,81.4114545 49.8932038,81.4114545 Z" id="Path" fill="#F9D0B4"></path>
                    <path d="M77,125 L75.3248969,94.7018458 C75.191412,92.5748629 73.716536,90.7813968 71.6396701,90.2493268 L61.9908144,87.8576062 L56.2287217,85 L54.2853402,90.5815462 C54.1518556,90.9137656 53.8835774,91.1136162 53.5485568,91.1136162 L47.5849278,91.1136162 C47.2499072,91.1136162 46.9148866,90.9137656 46.8481444,90.5815462 L44.9047629,85 L39.1426702,87.8576062 L29.3603299,90.1831423 C27.2834637,90.7152124 25.8085877,92.5086785 25.6751031,94.634364 L24,124.933816 L77,125 Z" id="Path" fill="#E9E9EA"></path>
                    <path d="M29.5813421,90.2774898 L39.2350245,87.8877076 L45,85.0324173 L45,80.5186722 C41.0445173,78.5931017 38.4965629,74.67583 38.1613747,70.3604773 C35.3463176,70.8246891 32.6648119,68.9004149 32.2628478,66.1112554 C31.9944355,64.3192428 32.6648119,62.4598032 34.1391161,61.331691 L34.1391161,55.6224066 C34.1391161,51.3070539 36.3518823,47.3236515 39.9721768,45 L9.67037643,45 C9.33518822,45 9,45.2645232 9,45.6639004 L9,125 L24.2183307,125 L25.8942717,94.7251041 C25.9610476,92.6011412 27.5034369,90.8091286 29.5813421,90.2774898 Z" id="Path" fill="#ACDEF9"></path>
                    <path d="M87.5086192,68 L129.49138,68 C130.31402,68 131,68.6713287 131,69.4763988 L131,114.52229 C131,115.328671 130.31402,116 129.49138,116 L87.5086192,116 C86.6859797,116 86,115.328671 86,114.52229 L86,69.4763988 C86,68.6031472 86.6859797,68 87.5086192,68 Z" id="Path" fill="#FCD770"></path>
                    <path d="M108.384432,25.2566389 C100.14874,17.753415 87.3610556,18.3553482 79.8615803,26.5965937 C73.8358467,33.2296319 72.8995565,42.9443046 77.5182394,50.5823089 C77.7196204,50.9172976 77.7196204,51.3857585 77.5862382,51.7874834 L74.1039185,59.2239712 C73.8358467,59.8939486 74.1039185,60.6319703 74.7067537,60.8989147 C75.0415166,61.0336951 75.4429704,61.0336951 75.7777334,60.8989147 L83.20921,57.4155554 C83.6119717,57.2140389 84.080117,57.2820831 84.41488,57.4822915 C93.989624,63.2438357 106.375854,60.0954651 112.133516,50.5142646 C117.088269,42.3410633 115.481146,31.6881606 108.384432,25.2566389 Z" id="Path" fill="#F75C64"></path>
                    <polygon id="Path" fill="#D3D3DD" points="57 145 89 145 89 164 57 164"></polygon>
                    <path d="M1,125 L1,136.682725 C1,140.71116 4.32419708,144 8.39431812,144 L140.605682,144 C144.675803,144 148,140.71116 148,136.682725 L148,125 L1,125 Z" id="Path" fill="#E9E9EA"></path>
                    <path d="M77,135 C77,136.657234 75.6572339,138 73.9999998,138 C72.3439617,138 71,136.657234 71,135 C71,133.342766 72.3439617,132 73.9999998,132 C75.6572339,132 77,133.342766 77,135 Z" id="Path" fill="#E9E9EA"></path>
                    <path d="M50.3151951,163 L98.6861261,163 C100.512192,163 102,164.346622 102,165.999402 C102,167.653378 100.512192,169 98.6861261,169 L50.3151951,169 C48.4878076,169 47,167.653378 47,165.999402 C47.0673875,164.346622 48.5551951,163 50.3151951,163 Z" id="Path" fill="#E9E9EA"></path>
                    <path d="M40,45 L9.6724284,45 C9.3362142,45 9,45.2817683 9,45.7071823 L9,52 L34.8215132,52 C35.7631759,49.1712709 37.5782071,46.6961329 40,45 Z" id="Path" fill="#60BAE2"></path>
                    <path d="M76.8275947,51.0110494 C75.7695457,49.1712709 74.9763316,47.1215469 74.5125468,45 L55,45 C55.3966071,45.4240332 55.7945059,45.9185085 56.0580493,46.4848066 C57.1173905,45.7776244 58.3730972,45.4240332 59.6300958,45.4240332 C63.2021427,45.4240332 66.1786329,48.2527624 66.5752396,52 L76.9606583,52 C77.0265443,51.7182317 77.0265443,51.3646406 76.8275947,51.0110494 Z" id="Path" fill="#60BAE2"></path>
                    <path d="M139.31192,45 L113.027819,45 C112.476818,47.475138 111.444698,49.8784531 110,52 L140,52 L140,45.7071823 C140,45.3535911 139.724499,45 139.31192,45 Z" id="Path" fill="#60BAE2"></path>
                    <path d="M35.3455407,6 L29.6544593,6 C28.7277033,6 28,5.5593752 28,5 C28,4.4398438 28.7277033,4 29.6544593,4 L35.3455407,4 C36.2722967,4 37,4.4398438 37,5 C37,5.5593752 36.2722967,6 35.3455407,6 Z" id="Path" fill="#55ACD5"></path>
                    <path d="M32,9 C31.4398438,9 31,8.27229635 31,7.34554073 L31,1.65445927 C31,0.727703652 31.4398438,-2.27373675e-13 32,-2.27373675e-13 C32.559375,-2.27373675e-13 33,0.727703652 33,1.65445927 L33,7.34554073 C33,8.27229635 32.559375,9 32,9 Z" id="Path" fill="#55ACD5"></path>
                    <path d="M117.345541,158 L111.654459,158 C110.727704,158 110,157.560156 110,157 C110,156.439844 110.727704,156 111.654459,156 L117.345541,156 C118.272296,156 119,156.439844 119,157 C119,157.560156 118.272296,158 117.345541,158 Z" id="Path" fill="#F75C64"></path>
                    <path d="M115,162 C114.440625,162 114,161.272296 114,160.345541 L114,154.654459 C114,153.727704 114.440625,153 115,153 C115.560156,153 116,153.727704 116,154.654459 L116,160.345541 C116,161.205084 115.560156,162 115,162 Z" id="Path" fill="#F75C64"></path>
                    <path d="M64.9949946,6 C64.9149083,6 64.8748651,6 64.7939935,5.9603501 C64.7139072,5.9603501 64.673864,5.91992299 64.5929924,5.91992299 C64.5129062,5.88027309 64.4728629,5.88027309 64.4320346,5.84062319 C64.3919914,5.80097328 64.3119051,5.76132338 64.2718619,5.72089628 C64.2310335,5.68124637 64.1909903,5.64159647 64.1509472,5.56229667 C64.110904,5.52186956 64.0708608,5.44256976 64.0708608,5.40291985 C64.0300324,5.32284285 64.0300324,5.28319294 64.0300324,5.20389314 C63.9899892,5.08416623 63.9899892,4.92478942 64.0300324,4.80583971 C64.0300324,4.7257627 64.0708608,4.6861128 64.0708608,4.60681299 C64.110904,4.52673598 64.110904,4.48708608 64.1509472,4.44743618 C64.1909903,4.40778627 64.2310335,4.32770927 64.2718619,4.28805936 C64.5129062,4.04938275 64.8340367,3.97008294 65.1959957,4.00973284 C65.2768673,4.00973284 65.3169105,4.04938275 65.3969968,4.04938275 C65.4778683,4.08903265 65.5179116,4.08903265 65.5579548,4.12868255 C65.5979978,4.16910965 65.6788694,4.20875956 65.7189127,4.24840946 C65.7589559,4.28805936 65.7989989,4.32770927 65.8390422,4.40778627 C65.8798705,4.44743618 65.9199137,4.52673598 65.9199137,4.56716309 C65.959957,4.64646289 65.959957,4.6861128 65.959957,4.7661898 C65.959957,4.84548961 65.959957,4.88513951 66,4.96521652 C66,5.04451632 66,5.08416623 65.959957,5.16424323 C65.959957,5.24354304 65.9199137,5.28319294 65.9199137,5.36326995 C65.8798705,5.44256976 65.8798705,5.48221966 65.8390422,5.52186956 C65.7989989,5.56229667 65.7589559,5.64159647 65.7189127,5.68124637 C65.6788694,5.72089628 65.6380411,5.76132338 65.5579548,5.80097328 C65.5179116,5.84062319 65.43704,5.88027309 65.3969968,5.88027309 C65.3169105,5.91992299 65.2768673,5.91992299 65.1959957,5.91992299 C65.1159094,5.9603501 65.0350378,6 64.9949946,6 Z" id="Path" fill="#FFCD29"></path>
                    <path d="M130.000383,167 C129.921486,167 129.882421,167 129.80429,166.959135 C129.725393,166.959135 129.686327,166.918269 129.608196,166.918269 C129.529299,166.877404 129.490234,166.877404 129.451168,166.835737 C129.412103,166.794872 129.333206,166.754006 129.29414,166.713141 C128.901953,166.302885 128.901953,165.646634 129.29414,165.277243 C129.333206,165.236378 129.373037,165.194712 129.451168,165.153846 C129.490234,165.112981 129.569131,165.072115 129.608196,165.072115 C129.686327,165.03125 129.725393,165.03125 129.80429,165.03125 C129.921486,164.989583 130.078514,164.989583 130.196477,165.03125 C130.274607,165.03125 130.313673,165.072115 130.39257,165.072115 C130.470701,165.112981 130.509766,165.112981 130.549598,165.153846 C130.588663,165.194712 130.666794,165.236378 130.70586,165.277243 C131.098047,165.6875 131.098047,166.302885 130.70586,166.713141 C130.666794,166.754006 130.627729,166.794872 130.549598,166.835737 C130.509766,166.877404 130.431636,166.918269 130.39257,166.918269 C130.353504,166.959135 130.274607,166.959135 130.196477,166.959135 C130.117579,167 130.078514,167 130.000383,167 Z" id="Path" fill="#FFCD29"></path>
                    <g id="Group" transform="translate(0.000000, 17.000000)" fill="#231F20">
                        <path d="M139.738624,129.13237 L8.99395579,129.13237 C4.02833782,129.13237 0.00131088119,125.080083 0.00131088119,120.083316 L0.00131088119,108.331418 C0.00131088119,107.385621 0.739336993,106.642965 1.67923873,106.642965 L147.121507,106.642965 C148.061409,106.642965 148.799435,107.385621 148.799435,108.331418 L148.799435,120.083316 C148.73258,125.080083 144.705553,129.13237 139.738624,129.13237 Z M3.28900083,110.019872 L3.28900083,120.083316 C3.28900083,123.189806 5.8399758,125.755464 8.92710076,125.755464 L139.738624,125.755464 C142.825749,125.755464 145.376724,123.189806 145.376724,120.083316 L145.376724,110.019872 L3.28900083,110.019872 Z" id="Shape"></path>
                        <path d="M98.3947424,154.662309 L50.3391486,154.662309 C47.5862981,154.729584 45.3722199,152.568891 45.3053649,149.800092 C45.237199,147.029974 47.3857334,144.802007 50.1372731,144.734732 L50.3391486,144.734732 L98.3278874,144.734732 C101.079427,144.666139 103.293505,146.82815 103.361671,149.59695 C103.428526,152.365749 101.279992,154.595035 98.5284521,154.662309 C98.5284521,154.662309 98.4615974,154.662309 98.3947424,154.662309 Z M50.3391486,148.111639 C49.4661019,148.043046 48.7280757,148.78702 48.7280757,149.664224 C48.6612207,150.542747 49.3992469,151.285403 50.2709828,151.285403 L50.4060037,151.285403 L98.3947424,151.285403 C99.2664783,151.352677 100.005815,150.610022 100.005815,149.731499 C100.07267,148.854294 99.3346441,148.111639 98.4615974,148.111639 C98.3947424,148.111639 98.3947424,148.111639 98.3278874,148.111639 L50.3391486,148.111639 Z" id="Shape"></path>
                        <path d="M90.5412531,148.111639 L58.1913272,148.111639 C57.2514251,148.111639 56.5133992,147.367664 56.5133992,146.423185 L56.5133992,127.443917 C56.5133992,126.499438 57.2514251,125.755464 58.1913272,125.755464 L90.5412531,125.755464 C91.4811548,125.755464 92.219181,126.499438 92.219181,127.443917 L92.219181,146.423185 C92.219181,147.367664 91.4811548,148.111639 90.5412531,148.111639 Z M59.8692551,144.734732 L88.8633252,144.734732 L88.8633252,129.13237 L59.8692551,129.13237 L59.8692551,144.734732 Z" id="Shape"></path>
                        <path d="M74.36629,122.514425 C71.6147506,122.514425 69.3993612,120.285139 69.3993612,117.51634 C69.3993612,114.74754 71.6147506,112.518255 74.36629,112.518255 C77.1178297,112.518255 79.333219,114.74754 79.333219,117.51634 C79.266364,120.285139 77.1178297,122.514425 74.36629,122.514425 Z M74.36629,115.962435 C73.494554,115.962435 72.755217,116.70641 72.755217,117.583614 C72.755217,118.462137 73.494554,119.204793 74.36629,119.204793 C75.239337,119.204793 75.9773632,118.462137 75.9773632,117.583614 C75.9773632,116.637817 75.239337,115.962435 74.36629,115.962435 Z" id="Shape"></path>
                        <path d="M34.0960197,35.2543745 L8.32278461,35.2543745 C7.38419368,35.2543745 6.64485669,34.5117188 6.64485669,33.5659213 L6.64485669,27.556083 C6.64485669,26.2725949 7.71977927,25.1922486 8.99395579,25.1922486 L39.3316793,25.1922486 C40.2715811,25.1922486 41.0096073,25.9349043 41.0096073,26.8807018 C41.0096073,27.4202156 40.7408767,27.9610481 40.2715811,28.2987387 C38.1899017,29.6495012 36.5801396,31.7429194 35.7739476,34.1067538 C35.505217,34.8494095 34.8340459,35.2543745 34.0960197,35.2543745 Z M10.0007125,31.8774682 L33.0224082,31.8774682 C33.5598694,30.6625731 34.2310405,29.5822268 35.0359217,28.5691549 L10.0007125,28.5691549 L10.0007125,31.8774682 Z" id="Shape"></path>
                        <path d="M23.4923018,110.019872 L8.32278461,110.019872 C7.38419368,110.019872 6.64485669,109.277216 6.64485669,108.331418 L6.64485669,27.556083 C6.64485669,26.2725949 7.71977927,25.1922486 8.99395579,25.1922486 L39.3316793,25.1922486 C40.2715811,25.1922486 41.0096073,25.9349043 41.0096073,26.8807018 C41.0096073,27.4202156 40.7408767,27.9610481 40.2715811,28.2987387 C37.11629,30.3248825 35.1696315,33.903612 35.1696315,37.686802 L35.1696315,43.4948171 C35.1696315,44.0343309 34.9690667,44.507889 34.5666261,44.8455796 C33.0224082,46.0604747 32.7536773,48.222486 33.96231,49.7750717 C34.7671909,50.7881436 36.0426785,51.328976 37.3181658,51.0585598 C38.2580676,50.924011 39.0629488,51.5321179 39.2648243,52.4765967 L39.2648243,52.6124642 C39.5322441,56.4616099 41.8144881,59.8385162 45.170344,61.5269694 C45.7078055,61.7973856 46.1102461,62.4054925 46.1102461,63.0135994 L46.1102461,67.6054008 C46.1102461,68.280782 45.7746605,68.8216145 45.170344,69.0920307 L39.3985344,71.995379 C39.2648243,72.0626534 39.1966585,72.0626534 39.0629488,72.1312464 L29.3978215,74.5623552 C28.0554791,74.9000459 27.0487224,76.1149409 26.9818677,77.5342965 L25.3039398,108.331418 C25.1020639,109.277216 24.3640377,110.019872 23.4923018,110.019872 Z M10.0007125,106.642965 L21.9480839,106.642965 L23.5591568,77.3984291 C23.6928665,74.4950808 25.70638,72.0626534 28.5260856,71.3199977 L37.989337,68.8888889 L42.6875352,66.5250545 L42.6875352,63.9580782 C39.1966585,61.86466 36.7807044,58.3532049 36.0426785,54.3681917 C32.284382,54.0305011 29.5328423,50.6535948 29.8684279,46.8717234 C30.002138,45.3178191 30.6733091,43.8325077 31.8137756,42.6835684 L31.8137756,37.6182089 C31.8137756,34.3098957 32.9555532,31.0675381 35.0359217,28.5005619 L10.0007125,28.5005619 L10.0007125,106.642965 Z" id="Shape"></path>
                        <path d="M128.79801,99.7532852 L87.7897134,99.7532852 C86.0449308,99.7532852 84.7025884,98.3352482 84.6357334,96.5795207 L84.6357334,51.2617016 C84.6357334,49.5059741 86.0449308,48.1552116 87.7897134,48.0866185 L128.866176,48.0866185 C130.610959,48.0866185 131.953301,49.5059741 132.020156,51.2617016 L132.020156,96.5795207 C131.953301,98.3352482 130.544104,99.7532852 128.79801,99.7532852 Z M87.9915892,96.3763788 L128.597445,96.3763788 L128.597445,51.5321179 L87.9915892,51.5321179 L87.9915892,96.3763788 Z" id="Shape"></path>
                        <path d="M108.327289,59.4335512 L93.9652748,59.4335512 C93.025373,59.4335512 92.2873468,58.6908955 92.2873468,57.745098 C92.2873468,56.7993005 93.025373,56.0566449 93.9652748,56.0566449 L108.327289,56.0566449 C109.267191,56.0566449 110.005217,56.7993005 110.005217,57.745098 C110.005217,58.6908955 109.200336,59.4335512 108.327289,59.4335512 Z" id="Path"></path>
                        <path d="M122.690614,65.9169476 L93.9652748,65.9169476 C93.025373,65.9169476 92.2873468,65.1742919 92.2873468,64.2284944 C92.2873468,63.2826969 93.025373,62.5400413 93.9652748,62.5400413 L122.690614,62.5400413 C123.630516,62.5400413 124.368542,63.2826969 124.368542,64.2284944 C124.368542,65.1742919 123.563661,65.9169476 122.690614,65.9169476 Z" id="Path"></path>
                        <path d="M122.690614,72.400344 L93.9652748,72.400344 C93.025373,72.400344 92.2873468,71.6576883 92.2873468,70.7118908 C92.2873468,69.767412 93.025373,69.0234377 93.9652748,69.0234377 L122.690614,69.0234377 C123.630516,69.0234377 124.368542,69.767412 124.368542,70.7118908 C124.368542,71.6576883 123.563661,72.400344 122.690614,72.400344 Z" id="Path"></path>
                        <path d="M122.690614,78.8850591 L93.9652748,78.8850591 C93.025373,78.8850591 92.2873468,78.1410847 92.2873468,77.1966059 C92.2873468,76.2508084 93.025373,75.5081527 93.9652748,75.5081527 L122.690614,75.5081527 C123.630516,75.5081527 124.368542,76.2508084 124.368542,77.1966059 C124.368542,78.1410847 123.563661,78.8850591 122.690614,78.8850591 Z" id="Path"></path>
                        <path d="M122.690614,85.3684555 L93.9652748,85.3684555 C93.025373,85.3684555 92.2873468,84.6257998 92.2873468,83.6800023 C92.2873468,82.7342048 93.025373,81.9915491 93.9652748,81.9915491 L122.690614,81.9915491 C123.630516,81.9915491 124.368542,82.7342048 124.368542,83.6800023 C124.368542,84.6257998 123.563661,85.3684555 122.690614,85.3684555 Z" id="Path"></path>
                        <path d="M122.690614,91.9191262 L93.9652748,91.9191262 C93.025373,91.9191262 92.2873468,91.1764706 92.2873468,90.2306731 C92.2873468,89.2848756 93.025373,88.5422199 93.9652748,88.5422199 L122.690614,88.5422199 C123.630516,88.5422199 124.368542,89.2848756 124.368542,90.2306731 C124.368542,91.1764706 123.563661,91.9191262 122.690614,91.9191262 Z" id="Path"></path>
                        <path d="M77.1859955,35.2543745 L66.6478215,35.2543745 C65.7760856,35.2543745 65.1049144,34.5789932 64.9698936,33.7690632 C64.634308,30.7971219 61.9496233,28.6364293 58.996208,28.9741199 C58.2581818,29.0413943 57.453301,29.3118106 56.8489848,29.7167756 C56.0441036,30.189015 55.0373468,29.9199175 54.5667404,29.1086687 C54.2980098,28.7037037 54.0305901,28.3660131 53.6950045,28.0283224 C53.0238333,27.3529412 53.0238333,26.2725949 53.6950045,25.664488 C54.0305901,25.3267974 54.4330307,25.1922486 54.902326,25.1922486 L74.7687306,25.1922486 C75.5749226,25.1922486 76.2460937,25.7317624 76.3798035,26.4744181 C76.8504099,28.2987387 77.5215811,30.1217406 78.5283378,31.7429194 C78.9307784,32.4183007 79.0644881,33.2282307 78.8639234,33.972205 C78.5951928,34.7821351 77.9908767,35.2543745 77.1859955,35.2543745 Z M67.9901638,31.8774682 L74.7687306,31.8774682 C74.2325802,30.7971219 73.8301396,29.7167756 73.494554,28.5691549 L66.2453812,28.5691549 C66.9834071,29.5136337 67.6545782,30.6625731 67.9901638,31.8774682 Z" id="Shape"></path>
                        <path d="M140.409796,35.2543745 L111.146995,35.2543745 C110.207093,35.2543745 109.469067,34.5117188 109.469067,33.5659213 C109.469067,33.2282307 109.602776,32.8905401 109.737797,32.6214425 C111.011974,30.7298475 111.885021,28.7037037 112.422482,26.4744181 C112.623047,25.7317624 113.294218,25.1922486 114.032244,25.1922486 L139.671769,25.1922486 C140.947257,25.1922486 142.020869,26.2725949 142.020869,27.556083 L142.020869,33.5659213 C142.087724,34.5117188 141.349697,35.2543745 140.409796,35.2543745 Z M114.10041,31.8774682 L138.731868,31.8774682 L138.731868,28.5691549 L115.374586,28.5691549 C115.039001,29.7167756 114.63656,30.8643963 114.10041,31.8774682 Z" id="Shape"></path>
                        <path d="M140.409796,110.019872 L76.5816793,110.019872 C75.7086323,110.019872 74.9706064,109.34449 74.9037514,108.398693 L73.2258235,77.6015709 C73.1589685,76.183534 72.1522117,74.9673203 70.8098694,74.6296296 L61.1447424,72.1985208 C61.0097216,72.1985208 60.9428665,72.1312464 60.8091568,72.0626534 L55.0373468,69.1593051 C54.4330307,68.8888889 54.0974451,68.280782 54.0974451,67.6726751 L54.0974451,62.8104575 C54.0974451,62.2023506 54.4330307,61.5942438 54.969181,61.3251462 C58.1913272,59.5681 60.3385504,56.2597867 60.6072809,52.5451898 C60.674136,51.5993923 61.480328,50.924011 62.4202297,50.9912854 L62.5539398,50.9912854 C62.7558153,50.9912854 62.95638,51.0585598 63.0914009,51.0585598 C65.0367486,51.0585598 66.5809668,49.5059741 66.5809668,47.5471047 C66.5809668,46.6013072 66.1785262,45.6555097 65.507355,44.9801284 C65.1717694,44.6424378 64.9698936,44.2374728 64.9698936,43.7652334 L64.9698936,34.4444444 C64.9698936,31.4725031 62.5539398,29.0413943 59.6005242,28.9741199 C58.5937674,28.9741199 57.6538657,29.2445362 56.7821298,29.78405 C55.9759378,30.2576081 54.969181,29.9871918 54.4998857,29.1759431 C54.2980098,28.7709781 53.9624243,28.4332875 53.6950045,28.0955968 C53.0238333,27.4202156 53.0238333,26.3398693 53.6950045,25.7317624 C54.0305901,25.3940718 54.4330307,25.259523 54.902326,25.259523 L74.7687306,25.259523 C75.5749226,25.259523 76.2460938,25.7990368 76.3798035,26.5430111 C76.8504099,28.3660131 77.5215811,30.189015 78.5283378,31.8101938 C78.9976335,32.6214425 79.0644881,33.7017888 78.6620479,34.5789932 L75.6417776,41.1309827 L82.1516134,38.091767 C83.0246605,37.686802 84.0982719,37.7540764 84.971319,38.2263158 C93.7633992,43.4948171 105.173309,40.6574246 110.475823,31.7429194 C111.415725,30.1217406 112.153751,28.3660131 112.623047,26.4744181 C112.824923,25.7317624 113.496094,25.1922486 114.23412,25.1922486 L139.872334,25.1922486 C141.147821,25.1922486 142.221433,26.2725949 142.221433,27.556083 L142.221433,108.264144 C142.087724,109.208623 141.349697,109.952597 140.409796,110.019872 Z M78.1927522,106.642965 L138.731868,106.642965 L138.731868,28.5691549 L115.374586,28.5691549 C111.818166,40.2524596 99.6020639,46.804449 87.9915892,43.2244009 C86.3805163,42.7521615 84.7694431,42.0081871 83.293391,41.1309827 L76.0442179,44.5751634 C74.5681658,45.2505447 72.8233829,44.6424378 72.0840459,43.1571265 C71.7484603,42.3458778 71.7484603,41.4686733 72.0840459,40.6574246 L75.5080676,33.2968238 C74.6350208,31.8101938 73.9638497,30.189015 73.4263882,28.5691549 L66.1116712,28.5691549 C67.5208685,30.189015 68.3257494,32.2837519 68.3257494,34.3771701 L68.3257494,43.0898521 C69.3325062,44.3047472 69.9368226,45.8586515 69.9368226,47.4798303 C69.9368226,51.0585598 67.252138,54.0305011 63.6944062,54.3681917 C63.0232351,58.2173375 60.7423018,61.6628368 57.3864459,63.756255 L57.3864459,66.5250545 L62.0846441,68.8888889 L71.5478956,71.3199977 C74.36629,71.995379 76.3798035,74.4950808 76.5148243,77.3984291 L78.1927522,106.642965 Z" id="Shape"></path>
                        <path d="M74.7687306,44.912854 C73.1589685,44.912854 71.8166261,43.5620915 71.8166261,41.9409127 C71.8166261,41.5359477 71.8834811,41.0637083 72.0840459,40.7260177 L75.5080676,33.3640982 C69.3993612,22.8284142 72.8902379,9.32078891 83.3602461,3.17376447 C91.6161757,-1.68845316 102.086184,-0.608106874 109.200336,5.87528952 C118.194292,14.0484578 118.798608,28.0283224 110.676388,37.0786951 C103.697257,44.7783053 92.2873468,46.5340328 83.3602461,41.2655315 L76.0442179,44.5751634 C75.6417776,44.7783053 75.239337,44.912854 74.7687306,44.912854 Z M94.4345704,3.44418071 C84.165127,3.44418071 75.8436531,11.7518977 75.8436531,22.0844398 C75.8436531,25.4613462 76.7822441,28.8382525 78.5283378,31.7429194 C78.9976335,32.5528494 79.0644881,33.6345144 78.6620479,34.5117188 L75.6417776,41.0637083 L82.1516134,38.0244926 C83.0246605,37.6182089 84.0982719,37.686802 84.971319,38.1590414 C93.7633992,43.4275427 105.173309,40.5901502 110.475823,31.675645 C115.039001,24.0433092 113.562949,14.2502809 107.053113,8.23912394 C103.495381,5.19990826 99.0659136,3.44418071 94.4345704,3.44418071 Z" id="Shape"></path>
                        <path d="M139.738624,129.13237 L8.99395579,129.13237 C4.02833782,129.13237 0.00131088119,125.080083 0.00131088119,120.083316 L0.00131088119,27.556083 C0.00131088119,22.5579979 4.02833782,18.5057104 8.99395579,18.5057104 L74.2994353,18.5057104 C75.239337,18.5057104 75.9773632,19.248366 75.9773632,20.1941635 L75.9773632,20.3287123 C75.5749226,24.3137255 76.5148243,28.2987387 78.5283378,31.7429194 C78.9976335,32.5528494 79.0644881,33.6345144 78.6620479,34.5117188 L75.6417776,41.0637083 L82.1516134,38.0244926 C83.0246605,37.6182089 84.0982719,37.686802 84.971319,38.1590414 C93.7633992,43.4275427 105.173309,40.5901502 110.475823,31.675645 C112.489337,28.2314643 113.429239,24.2464511 113.025487,20.2614379 C112.958632,19.3156404 113.629803,18.5057104 114.569706,18.438436 L114.703415,18.438436 L139.872334,18.438436 C144.839263,18.438436 148.86629,22.4907236 148.86629,27.48749 L148.86629,120.014723 C148.73258,125.080083 144.705553,129.13237 139.738624,129.13237 Z M8.99395579,21.8826167 C5.90683049,21.8826167 3.35716665,24.4482743 3.35716665,27.556083 L3.35716665,120.083316 C3.35716665,123.189806 5.90683049,125.755464 8.99395579,125.755464 L139.805479,125.755464 C142.892604,125.755464 145.443579,123.189806 145.443579,120.083316 L145.443579,27.556083 C145.443579,24.4482743 142.892604,21.8826167 139.805479,21.8826167 L116.381343,21.8826167 C116.516364,34.0394794 106.851237,44.0343309 94.703301,44.2374728 C90.743129,44.3047472 86.7829566,43.2244009 83.3602461,41.1982571 L76.0442179,44.5751634 C74.5681658,45.2505447 72.8233829,44.6424378 72.0840459,43.1571265 C71.7484603,42.3458778 71.7484603,41.4686733 72.0840459,40.6574246 L75.5080676,33.2968238 C73.494554,29.8513244 72.4877973,25.8676299 72.4877973,21.8826167 L8.99395579,21.8826167 Z" id="Shape"></path>
                        <path d="M63.0914009,54.4354661 C62.7558153,54.4354661 62.3520639,54.4354661 62.0164783,54.3681917 C61.1447424,54.2336429 60.5404263,53.4896686 60.6072809,52.6124642 C60.6072809,52.3420479 60.6072809,52.1389061 60.6072809,51.8698085 L60.6072809,43.2244009 C60.6072809,42.9539846 60.6072809,42.7521615 60.6072809,42.4817452 C60.5404263,41.6032221 61.1447424,40.8605664 62.0164783,40.7260177 C65.7760856,40.1179108 69.2656515,42.6835684 69.8699676,46.4667584 C70.4742838,50.2486297 67.9233091,53.7600848 64.1650127,54.3681917 C63.8294271,54.4354661 63.4269865,54.4354661 63.0914009,54.4354661 Z M63.9631368,44.1701984 L63.9631368,50.9912854 C65.8429406,50.519046 66.9834071,48.5601766 66.4472567,46.6685816 C66.1785262,45.4536865 65.1717694,44.4406146 63.9631368,44.1701984 Z" id="Shape"></path>
                        <path d="M36.6469947,54.4354661 C32.8886982,54.4354661 29.8002621,51.328976 29.8002621,47.5471047 C29.8002621,43.7652334 32.8886982,40.6574246 36.6469947,40.6574246 C36.9825802,40.6574246 37.3850208,40.6574246 37.7206064,40.7260177 C38.5936531,40.8605664 39.1966585,41.6032221 39.1298035,42.4817452 L39.1298035,43.2244009 L39.1298035,51.8012154 L39.1298035,52.5451898 C39.1966585,53.4223942 38.5936531,54.1650499 37.7206064,54.3009173 C37.3850208,54.4354661 37.0494353,54.4354661 36.6469947,54.4354661 Z M35.7739476,44.1701984 C33.8954549,44.6424378 32.7536773,46.6013072 33.2911388,48.4929022 C33.6267244,49.7077973 34.5666261,50.7208692 35.7739476,50.9912854 L35.7739476,44.1701984 Z" id="Shape"></path>
                        <path d="M49.8685422,66.0528151 C42.083219,66.0528151 35.7739476,59.7039674 35.7739476,51.8698085 L35.7739476,41.806364 C35.7739476,40.5228758 36.8475594,39.4425295 38.1230467,39.4425295 C38.2580676,39.4425295 38.4586323,39.4425295 38.5936531,39.5098039 C40.8745864,39.9820433 46.5126863,40.5901502 50.4060037,35.6606582 C51.2108845,34.6475863 52.6882477,34.4444444 53.6950045,35.2543745 C53.7618595,35.3229676 53.8287145,35.3902419 53.8955692,35.3902419 C54.7017612,36.200172 57.0508603,38.0244926 61.6808927,38.1590414 C62.95638,38.2263158 63.8962821,39.2393877 63.9631368,40.4556014 L63.9631368,51.8012154 C63.9631368,59.7039674 57.6538657,66.0528151 49.8685422,66.0528151 Z M39.1298035,43.021259 L39.1298035,51.8698085 C39.2648243,57.8123724 44.1635872,62.5400413 50.1372731,62.4054925 C55.9090827,62.269625 60.4735712,57.6105493 60.6072809,51.8698085 L60.6072809,41.5359477 C57.6538657,41.4013989 54.7686163,40.388327 52.3526621,38.5640064 C47.9900495,43.4275427 42.083219,43.4275427 39.1298035,43.021259 Z" id="Shape"></path>
                        <path d="M66.7146765,45.5209609 C66.3122359,45.5209609 65.8429406,45.3178191 65.57421,45.0474028 C64.9030389,44.4406146 64.0299918,44.0343309 63.1582559,44.0343309 C62.95638,44.0343309 62.8226703,44.0343309 62.6207945,44.102924 C61.6808927,44.2374728 60.8760118,43.6293659 60.674136,42.6835684 C60.674136,42.616294 60.674136,42.4817452 60.674136,42.4144708 L60.674136,41.5359477 C57.7220315,41.4013989 54.8354713,40.388327 52.4195172,38.5640064 C47.9900495,43.4948171 42.016364,43.4275427 39.0629488,43.021259 C38.7942179,43.7652334 37.989337,44.2374728 37.2513108,44.102924 C36.3114091,43.9670565 35.3046523,44.1701984 34.4984603,44.8455796 C33.7604341,45.4536865 32.6868226,45.3178191 32.1493612,44.5751634 C31.8819414,44.3047472 31.8137756,43.8997821 31.8137756,43.4948171 L31.8137756,37.686802 C31.8137756,29.6495012 38.3249226,23.0975117 46.3121216,23.0975117 L49.9353972,23.0975117 C52.4863722,23.0975117 54.902326,24.2464511 56.5133992,26.1367274 C57.520156,25.7317624 58.5269127,25.5299392 59.6005242,25.5299392 C64.4337432,25.5299392 68.3926044,29.5136337 68.3926044,34.3771701 L68.3926044,43.7652334 C68.3926044,44.7097122 67.5877235,45.5209609 66.7146765,45.5209609 Z M63.9631368,40.7260177 L64.9698936,40.9278408 L64.9698936,34.4444444 C64.9698936,31.4725031 62.5539398,29.0413943 59.6005242,28.9741199 C58.5937674,28.9741199 57.6538657,29.2445362 56.7821298,29.78405 C55.9759378,30.2576081 54.969181,29.9871918 54.4998857,29.1759431 C53.493129,27.556083 51.748346,26.5430111 49.8685422,26.4744181 L46.2439558,26.4744181 C40.0697055,26.4744181 35.1027764,31.4725031 35.1027764,37.686802 L35.1027764,40.7932921 C35.438362,40.7260177 35.7739476,40.6574246 36.0426785,40.6574246 C36.5119738,39.7802202 37.5868964,39.3066621 38.5936531,39.5098039 C40.8745864,39.9820433 46.5126863,40.5901502 50.4060037,35.6606582 C51.2108845,34.6475863 52.6882477,34.4444444 53.6950045,35.2543745 C53.7618595,35.3229676 53.8287145,35.3902419 53.8955692,35.3902419 C54.7017612,36.200172 57.0508603,38.0244926 61.6808927,38.1590414 C62.95638,38.2263158 63.8962821,39.2393877 63.9631368,40.4556014 L63.9631368,40.7260177 Z" id="Shape"></path>
                        <path d="M50.0704181,82.3965142 C49.9353972,82.3965142 49.8685422,82.3965142 49.7348325,82.3292398 C49.5329566,82.2619654 49.3323919,82.1933723 49.1305163,82.0588235 C49.0636613,81.9915491 48.9286405,81.9242747 48.8617854,81.8556817 C48.1906143,81.1803004 48.1906143,80.0999541 48.8617854,79.4918473 C48.9286405,79.4245729 48.9968063,79.3572985 49.1305163,79.2900241 C49.197371,79.2227497 49.3323919,79.1541566 49.3992469,79.1541566 C49.5329566,79.0868822 49.5998116,79.0868822 49.7348325,79.0868822 C50.6747342,78.8850591 51.5464701,79.4918473 51.681491,80.4376448 L51.681491,80.7753354 C51.748346,81.6538585 51.0103198,82.3965142 50.0704181,82.3965142 Z" id="Path"></path>
                        <path d="M50.0704181,89.0830524 C49.9353972,89.0830524 49.8685422,89.0830524 49.7348325,89.015778 C49.5998116,89.015778 49.5329566,88.9471849 49.3992469,88.9471849 C49.2642261,88.8799106 49.197371,88.8799106 49.1305163,88.8126362 C49.0636613,88.7453618 48.9286405,88.6780874 48.8617854,88.6094943 C48.1906143,87.9341131 48.1906143,86.8537668 48.8617854,86.2456599 C48.9286405,86.1783855 48.9968063,86.1111111 49.1305163,86.0438367 C49.197371,85.9765623 49.3323919,85.9079693 49.3992469,85.9079693 C49.5329566,85.8406949 49.5998116,85.8406949 49.7348325,85.8406949 C50.2709828,85.7061461 50.875299,85.9079693 51.2777396,86.314253 C51.9489107,86.9896342 51.9489107,88.0699805 51.2777396,88.6780874 C50.942154,88.8799106 50.5397134,89.0830524 50.0704181,89.0830524 Z" id="Path"></path>
                        <path d="M50.0704181,95.7695907 C49.9353972,95.7695907 49.8685422,95.7695907 49.7348325,95.7009976 C49.5998116,95.7009976 49.5329566,95.6337232 49.3992469,95.6337232 C49.2642261,95.5664488 49.197371,95.5664488 49.1305163,95.4991744 C49.0636613,95.4319 48.9286405,95.3633069 48.8617854,95.2960326 C48.1906143,94.6206513 48.1906143,93.540305 48.8617854,92.9321981 C48.9286405,92.8649237 48.9968063,92.7976494 49.1305163,92.730375 C49.197371,92.6617819 49.3323919,92.5945075 49.3992469,92.5945075 C50.2709828,92.2568169 51.2108845,92.6617819 51.6133252,93.540305 C51.9489107,94.4188281 51.5464701,95.3633069 50.6747342,95.7695907 C50.4728587,95.7009976 50.2709828,95.7695907 50.0704181,95.7695907 Z" id="Path"></path>
                        <path d="M50.0704181,102.45481 C49.9353972,102.45481 49.8685422,102.45481 49.7348325,102.387536 C49.5998116,102.387536 49.5329566,102.320261 49.3992469,102.320261 C49.2642261,102.252987 49.197371,102.252987 49.1305163,102.185713 C49.0636613,102.11712 48.9286405,102.049845 48.8617854,101.982571 C48.5261999,101.64488 48.3924901,101.239915 48.3924901,100.766357 C48.3924901,100.294118 48.5930549,99.8891526 48.8617854,99.551462 C48.9286405,99.4841876 48.9968063,99.4155945 49.1305163,99.3483201 C49.197371,99.2810458 49.3323919,99.2137714 49.3992469,99.2137714 C50.003563,98.9433551 50.7415892,99.0779039 51.2108845,99.551462 C51.3459054,99.6860108 51.4796154,99.8891526 51.5464701,100.090976 C51.6133252,100.294118 51.681491,100.497259 51.681491,100.699083 C51.748346,101.64488 51.0103198,102.45481 50.0704181,102.45481 Z" id="Path"></path>
                        <path d="M64.5674533,110.019872 C63.6275512,110.019872 62.8895254,109.277216 62.8895254,108.331418 L62.8895254,87.3945992 C62.8895254,86.4488017 63.6275512,85.7061461 64.5674533,85.7061461 C65.507355,85.7061461 66.2453812,86.4488017 66.2453812,87.3945992 L66.2453812,108.264144 C66.2453812,109.208623 65.507355,109.952597 64.5674533,110.019872 Z" id="Path"></path>
                        <path d="M35.1696315,110.019872 C34.2310405,110.019872 33.4917035,109.277216 33.4917035,108.331418 L33.4917035,87.3945992 C33.4917035,86.4488017 34.2310405,85.7061461 35.1696315,85.7061461 C36.1095332,85.7061461 36.8475594,86.4488017 36.8475594,87.3945992 L36.8475594,108.264144 C36.8475594,109.208623 36.1095332,109.952597 35.1696315,110.019872 Z" id="Path"></path>
                        <path d="M53.0906883,75.5754271 L47.1170028,75.5754271 C46.043391,75.5754271 45.1034893,74.9000459 44.7679037,73.886974 L42.8212449,68.2135076 C42.7543902,68.0103658 42.7543902,67.875817 42.7543902,67.6726751 L42.7543902,63.0808738 C42.7543902,62.1350763 43.4924161,61.3924206 44.4323181,61.3924206 C44.7010487,61.3924206 44.9697793,61.459695 45.170344,61.5942438 C46.6477072,62.3382181 48.3256351,62.7431831 49.9353972,62.7431831 C51.748346,62.7431831 53.493129,62.269625 55.0373468,61.459695 C55.8422281,60.9874556 56.8489848,61.3251462 57.3182801,62.1350763 C57.453301,62.4054925 57.520156,62.6759087 57.520156,62.9450063 L57.520156,67.7412682 C57.520156,67.9430914 57.520156,68.1462332 57.453301,68.280782 L55.5066425,73.9542484 C55.0373468,74.9000459 54.0974451,75.5754271 53.0906883,75.5754271 Z M47.654464,72.1985208 L52.4195172,72.1985208 L54.0974451,67.4035776 L54.0974451,65.4447082 C51.4796154,66.2546382 48.6612207,66.3219126 46.043391,65.579257 L46.043391,67.470852 L47.654464,72.1985208 Z" id="Shape"></path>
                        <path d="M76.6485344,110.019872 L23.4923018,110.019872 C22.5524001,110.019872 21.8143739,109.277216 21.8143739,108.331418 L21.8143739,108.264144 L23.4923018,77.4657035 C23.6260118,74.5623552 25.6395254,72.1312464 28.4579198,71.3872721 L37.922482,68.9561633 L43.5592711,66.1873638 C44.3654631,65.7823988 45.3722199,66.1200894 45.7746605,66.9300195 C45.7746605,66.9972939 45.8415152,67.0658869 45.8415152,67.1331613 L47.5862981,72.1985208 L52.3526621,72.1985208 L54.0974451,67.1331613 C54.4330307,66.2546382 55.3729324,65.7823988 56.2446683,66.1200894 C56.3115234,66.1200894 56.3796892,66.1873638 56.4465442,66.1873638 L62.0846441,68.9561633 L71.5478956,71.3872721 C74.36629,72.0626534 76.3798035,74.5623552 76.5148243,77.4657035 L78.1927522,108.264144 C78.2596073,109.208623 77.5215811,110.019872 76.5816793,110.019872 C76.715389,109.952597 76.6485344,110.019872 76.6485344,110.019872 Z M25.3039398,106.642965 L74.9037514,106.642965 L73.2926785,77.6015709 C73.2258235,76.183534 72.2190667,74.9673203 70.8767244,74.6296296 L61.2115974,72.1985208 C61.0778874,72.1985208 61.0097216,72.1312464 60.8760118,72.0626534 L56.7821298,70.0365096 L55.4397874,73.886974 C55.1042019,74.9000459 54.1643001,75.5754271 53.0906883,75.5754271 L47.1170028,75.5754271 C46.043391,75.5754271 45.1034893,74.9000459 44.7679037,73.886974 L43.4255614,70.0365096 L39.3316793,72.0626534 C39.1966585,72.1312464 39.1298035,72.1312464 38.9960938,72.1985208 L29.3309668,74.6296296 C27.9886245,74.9673203 26.9818677,76.183534 26.9150127,77.6015709 L25.3039398,106.642965 Z" id="Shape"></path>
                        <path d="M84.165127,24.1791767 C84.0314172,24.1791767 83.9645622,24.1791767 83.8295414,24.1791767 C83.6958317,24.1791767 83.6289766,24.1105836 83.4939558,24.1105836 C83.4271008,24.0433092 83.293391,24.0433092 83.226536,23.9760349 C83.1583702,23.9087605 83.0246605,23.8414861 82.9578055,23.772893 C82.8909504,23.7056186 82.8227846,23.6383442 82.7559296,23.5037954 C82.6890749,23.4352024 82.6222199,23.3006536 82.6222199,23.2333792 C82.5553649,23.1661048 82.5553649,23.0302374 82.5553649,22.8956886 C82.487199,22.6925467 82.487199,22.4221305 82.5553649,22.2203073 C82.5553649,22.0844398 82.6222199,22.0171655 82.6222199,21.8826167 C82.6890749,21.7467492 82.6890749,21.6794748 82.7559296,21.6122004 C82.8227846,21.544926 82.8909504,21.4090586 82.9578055,21.3417842 C83.0246605,21.2745098 83.0915152,21.2072354 83.226536,21.139961 C83.293391,21.071368 83.4271008,21.0040936 83.4939558,21.0040936 C83.6289766,20.9368192 83.6958317,20.9368192 83.8295414,20.9368192 C84.0314172,20.8695448 84.3001478,20.8695448 84.5007125,20.9368192 C84.6357334,20.9368192 84.7025884,21.0040936 84.8362981,21.0040936 C84.971319,21.071368 85.038174,21.071368 85.1050287,21.139961 C85.1718837,21.2072354 85.3069046,21.2745098 85.3737596,21.3417842 C85.4406143,21.4090586 85.5074693,21.4776517 85.5756351,21.6122004 C85.6424901,21.6794748 85.7093452,21.8153423 85.7093452,21.8826167 C85.7761999,22.0171655 85.7761999,22.0844398 85.7761999,22.2203073 L85.7761999,22.5579979 C85.7761999,23.0302374 85.5756351,23.4352024 85.3069046,23.772893 C85.2400495,23.8414861 85.1718837,23.9087605 85.038174,23.9760349 C84.971319,24.0433092 84.8362981,24.1105836 84.7694431,24.1105836 C84.6357334,24.1791767 84.5688784,24.1791767 84.4338575,24.1791767 C84.3670028,24.1791767 84.2332928,24.1791767 84.165127,24.1791767 Z" id="Path"></path>
                        <path d="M90.8099836,24.1791767 C90.3406883,24.1791767 89.9382477,23.9760349 89.6026621,23.7056186 C89.2670766,23.367928 89.1320557,22.962963 89.1320557,22.4907236 C89.1320557,22.3548561 89.1320557,22.2875817 89.1989107,22.1530329 C89.2670766,21.9498911 89.3339316,21.7467492 89.4676413,21.544926 C89.5344963,21.4776517 89.6026621,21.3417842 89.6695172,21.2745098 C89.7363722,21.2072354 89.8032269,21.139961 89.9382477,21.071368 C90.0051028,21.0040936 90.1388125,20.9368192 90.2056675,20.9368192 C90.3406883,20.8695448 90.4075434,20.8695448 90.5412531,20.8695448 C91.0787145,20.7336773 91.6830307,20.9368192 92.0186163,21.3417842 C92.0854713,21.4090586 92.152326,21.4776517 92.219181,21.6122004 C92.3542019,21.8153423 92.4210569,22.0171655 92.4879116,22.2203073 C92.4879116,22.3548561 92.4879116,22.4221305 92.5547666,22.5579979 C92.4879116,23.4352024 91.6830307,24.1791767 90.8099836,24.1791767 Z" id="Path"></path>
                        <path d="M97.3879856,24.1791767 C96.9173792,24.1791767 96.5149386,23.9760349 96.179353,23.7056186 C95.5081818,23.0302374 95.5081818,21.9498911 96.179353,21.3417842 C96.246208,21.2745098 96.3143739,21.2072354 96.4480839,21.139961 C97.1192551,20.6664029 97.9923018,20.8022704 98.5953071,21.3417842 C98.663473,21.4090586 98.730328,21.4776517 98.797183,21.6122004 C98.9308927,21.8153423 98.9990585,22.0171655 99.0659136,22.2203073 C99.0659136,22.3548561 99.0659136,22.4221305 99.1327686,22.5579979 C99.0659136,23.4352024 98.3278874,24.1791767 97.3879856,24.1791767 Z" id="Path"></path>
                        <path d="M104.032842,24.1791767 C103.897821,24.1791767 103.830967,24.1791767 103.697257,24.1791767 C103.562236,24.1791767 103.495381,24.1105836 103.361671,24.1105836 C103.293505,24.0433092 103.159796,24.0433092 103.092941,23.9760349 C103.026086,23.9087605 102.891065,23.8414861 102.82421,23.772893 C102.757355,23.7056186 102.6905,23.6383442 102.622334,23.5037954 C102.555479,23.4352024 102.488624,23.3006536 102.488624,23.2333792 C102.421769,23.0975117 102.421769,23.0302374 102.421769,22.8956886 C102.421769,22.7598211 102.421769,22.6925467 102.354914,22.5579979 C102.354914,22.0844398 102.555479,21.6794748 102.82421,21.3417842 C103.293505,20.8695448 104.032842,20.7336773 104.635848,21.0040936 C104.770869,21.071368 104.837724,21.071368 104.904578,21.139961 C104.971433,21.2072354 105.106454,21.2745098 105.173309,21.3417842 C105.240164,21.4090586 105.307019,21.4776517 105.375185,21.6122004 C105.508895,21.8153423 105.575749,22.0171655 105.642604,22.2203073 C105.71077,22.4221305 105.71077,22.6925467 105.642604,22.8956886 C105.642604,23.0302374 105.575749,23.0975117 105.575749,23.2333792 C105.508895,23.367928 105.508895,23.4352024 105.44204,23.5037954 C105.375185,23.5710698 105.307019,23.7056186 105.240164,23.772893 C104.904578,23.9760349 104.502138,24.1791767 104.032842,24.1791767 Z" id="Path"></path>
                    </g>
                    <path d="M52.8966867,16.8911694 C50.0022135,16.3116813 47.6872004,14.0686377 47.1077403,11.1019404 C47.1077403,11.0298577 47.035661,10.9577749 46.9635821,11.0298577 C46.8915029,11.0298577 46.8915029,11.1019404 46.8915029,11.1019404 C46.3120427,13.9965549 44.0691089,16.3116813 41.1025565,16.8911694 C41.0304772,16.8911694 40.9569847,16.9632521 41.0304772,17.0353349 C41.0304772,17.1088306 41.1025565,17.1088306 41.1025565,17.1088306 C43.9970297,17.6869058 46.3120427,19.9299494 46.8915029,22.8980596 C46.8915029,22.9701423 46.9635821,23.0422251 47.035661,22.9701423 C47.1077403,22.9701423 47.1077403,22.8980596 47.1077403,22.8980596 C47.6872004,20.0034451 49.9301342,17.6869058 52.8966867,17.1088306 C52.9701792,17.1088306 53.0422585,17.0353349 52.9701792,16.9632521 C52.9701792,16.9632521 52.8966867,16.8911694 52.8966867,16.8911694 Z" id="Path" fill="#6DCC6D"></path>
                </g>
            </g>
        </g>
    </g>
</svg>