<?xml version="1.0" encoding="UTF-8"?>
<svg width="459px" height="412px" viewBox="0 0 459 412" version="1.1" xmlns="http://www.w3.org/2000/svg" xmlns:xlink="http://www.w3.org/1999/xlink">
    <!-- Generator: Sketch 52.4 (67378) - http://www.bohemiancoding.com/sketch -->
    <title>undraw_visual_data_b1wx</title>
    <desc>Created with Sketch.</desc>
    <defs>
        <linearGradient x1="99.982811%" y1="50.0000413%" x2="0.0187255522%" y2="50.0000413%" id="linearGradient-1">
            <stop stop-color="#808080" stop-opacity="0.25" offset="0%"></stop>
            <stop stop-color="#808080" stop-opacity="0.12" offset="54%"></stop>
            <stop stop-color="#808080" stop-opacity="0.1" offset="100%"></stop>
        </linearGradient>
    </defs>
    <g id="Elementos" stroke="none" stroke-width="1" fill="none" fill-rule="evenodd">
        <g id="Oportunidad" transform="translate(-565.000000, -20.000000)">
            <g id="undraw_visual_data_b1wx" transform="translate(565.000000, 20.000000)">
                <ellipse id="Oval" fill="#FFFFFF" opacity="0.1" cx="381.5" cy="403" rx="33.5" ry="9"></ellipse>
                <g id="Group" opacity="0.1" transform="translate(114.000000, 0.000000)">
                    <path d="M51.7237443,288.085895 C51.7447489,288.578843 51.7815068,289.061302 51.8340183,289.533273 C55.9194064,287.907595 59.9295282,286.159554 63.8643836,284.28915 C65.9642771,284.010898 67.9163365,283.057343 69.4253425,281.572694 C70.5753425,280.995841 71.7200913,280.392767 72.8543379,279.789693 C72.5976715,279.24725 72.3065136,278.721764 71.9826484,278.216456 C69.7719178,274.729114 66.4111872,272.547559 62.7091324,272.668174 C59.0070776,272.788788 55.8038813,275.185353 53.8242009,278.798553 C52.3053186,281.651162 51.5799899,284.858263 51.7237443,288.085895 Z" id="Path" fill="#3F3D56"></path>
                    <path d="M51.119863,269.747197 C51.1990441,272.960697 52.1323737,276.095388 53.8242009,278.830018 C56.0401826,282.306872 59.4009132,284.488427 63.102968,284.367812 C63.360274,284.367812 63.6280822,284.331103 63.8643836,284.310127 C65.9642771,284.031875 67.9163365,283.078319 69.4253425,281.593671 C70.4494842,280.620406 71.3126343,279.491138 71.9826484,278.24792 C74.9954322,272.442707 74.7686893,265.490608 71.3840183,259.89349 C69.1680365,256.406148 65.8073059,254.224593 62.1052511,254.345208 C58.4031963,254.465823 55.2052511,256.862387 53.2255708,260.475588 C51.7078622,263.32313 50.9808132,266.524388 51.119863,269.747197 Z" id="Path" fill="#3F3D56"></path>
                    <ellipse id="Oval" fill="#3F3D56" transform="translate(62.003968, 251.024497) rotate(-1.880000) translate(-62.003968, -251.024497) " cx="62.0039685" cy="251.024497" rx="11.4842301" ry="15.0139457"></ellipse>
                    <ellipse id="Oval" fill="#3F3D56" transform="translate(61.401863, 232.689234) rotate(-1.880000) translate(-61.401863, -232.689234) " cx="61.4018635" cy="232.689234" rx="11.4842301" ry="15.0139457"></ellipse>
                    <ellipse id="Oval" fill="#3F3D56" transform="translate(60.799756, 214.348555) rotate(-1.880000) translate(-60.799756, -214.348555) " cx="60.7997556" cy="214.348555" rx="11.4842301" ry="15.0139457"></ellipse>
                    <path d="M99.6614155,87.4562387 C101.164008,85.4117866 102.522093,83.2652355 103.725799,81.0321881 L73.4057078,77.0781193 L106.025799,76.2495479 C111.897979,62.3060754 111.76123,46.5629666 105.647717,32.7233273 L62.6356164,56.8200723 L102.019178,25.8797468 C91.0915884,8.51840094 71.390663,-1.31901687 50.9264271,0.367202172 C30.4621912,2.05342121 12.642212,14.9824992 4.71175731,33.8977166 C-3.21869736,52.812934 0.0608986149,74.5646558 13.2171233,90.3090416 C10.8769166,93.4920536 8.88581681,96.9168796 7.27808219,100.524593 L47.0869863,119.550271 L4.88881279,106.932911 C-0.486578711,124.70447 3.48529448,143.985011 15.4488584,158.194213 C-1.53027075,181.285759 2.11363487,213.531723 23.8189412,232.263471 C45.5242475,250.99522 78.0005239,249.921088 98.4172291,229.796181 C118.833934,209.671274 120.333456,177.255195 101.861644,155.336166 C116.896056,134.911897 115.987014,106.866735 99.6614155,87.4562387 Z" id="Path" fill="#FFFFFF"></path>
                    <path d="M2.56780822,124.616094 C2.95136267,136.933572 7.49044055,148.760425 15.4488584,158.178481 C-1.53472178,181.266896 2.10315559,213.513686 23.8050795,232.249507 C45.5070035,250.985328 77.9836219,249.917098 98.404022,229.795777 C118.824422,209.674456 120.329696,177.258495 101.861644,155.336166 C108.924429,145.760398 2.36826484,118.45425 2.56780822,124.616094 Z" id="Path" fill="#000000"></path>
                </g>
                <g id="Group" opacity="0.1" transform="translate(0.000000, 180.000000)">
                    <path d="M45.2997436,205.718071 C45.2997436,206.064822 45.2629487,206.411574 45.2208974,206.768832 C42.3123504,205.612995 39.4546154,204.374848 36.6476923,203.054391 C35.1521276,202.858971 33.7608907,202.182139 32.684359,201.126244 C31.864359,200.709442 31.0496154,200.285635 30.2401282,199.854822 C30.4227998,199.470659 30.6299788,199.098623 30.8603846,198.741015 C32.4373077,196.250711 34.8237179,194.695584 37.4624359,194.779645 C40.1011538,194.863706 42.3824359,196.565939 43.7701282,199.140305 C44.856616,201.157751 45.3846614,203.428492 45.2997436,205.718071 Z" id="Path" fill="#3F3D56"></path>
                    <path d="M45.7097436,192.641345 C45.6579854,194.93204 44.9976386,197.167767 43.7964103,199.119289 C42.2194872,201.599086 39.8278205,203.159467 37.194359,203.075406 L36.6687179,203.033376 C35.1731532,202.837956 33.7819163,202.161124 32.7053846,201.105228 C31.9742023,200.412298 31.3584536,199.607077 30.8814103,198.72 C28.7376892,194.585492 28.8928881,189.635508 31.2914103,185.643274 C32.8683333,183.15297 35.26,181.597843 37.8934615,181.681904 C40.5269231,181.765964 42.8134615,183.468198 44.2274359,186.042563 C45.3011776,188.070777 45.8129455,190.349012 45.7097436,192.641345 Z" id="Path" fill="#3F3D56"></path>
                    <ellipse id="Oval" fill="#3F3D56" transform="translate(37.959498, 179.330555) rotate(-88.190000) translate(-37.959498, -179.330555) " cx="37.9594977" cy="179.330555" rx="10.7020104" ry="8.17897032"></ellipse>
                    <ellipse id="Oval" fill="#3F3D56" transform="translate(38.367950, 166.256053) rotate(-88.190000) translate(-38.367950, -166.256053) " cx="38.3679497" cy="166.256053" rx="10.7020104" ry="8.17897032"></ellipse>
                    <ellipse id="Oval" fill="#3F3D56" transform="translate(38.781824, 153.176300) rotate(-88.190000) translate(-38.781824, -153.176300) " cx="38.7818241" cy="153.1763" rx="10.7020104" ry="8.17897032"></ellipse>
                    <path d="M10.9911538,62.7199492 C9.91937935,61.26234 8.94819928,59.733445 8.08435897,58.1438832 L29.6776923,55.2753046 L6.43910256,54.7499239 C2.24159295,44.812025 2.3252499,33.5847402 6.67038462,23.7104315 L37.3310256,40.8536041 L9.25128205,18.8138832 C16.9965137,6.37781055 31.0381515,-0.698058343 45.6472081,0.473230654 C60.2562647,1.64451965 72.9898697,10.8671081 78.652713,24.3781804 C84.3155562,37.8892528 81.9607189,53.4295393 72.5489744,64.6586041 C74.2212283,66.9260668 75.6434573,69.3674959 76.7908974,71.9403807 L48.4483333,85.5372335 L78.4992308,76.5006853 C82.3415925,89.1692401 79.5307172,102.920297 71.0246154,113.067183 C83.1447792,129.51266 80.5836773,152.506975 65.1417085,165.885627 C49.6997396,179.264279 26.5634559,178.533731 11.997159,164.207541 C-2.56913785,149.881351 -3.67301091,126.771311 9.46153846,111.123274 C-1.26404145,96.5708413 -0.631980616,76.5720068 10.9911538,62.725203 L10.9911538,62.7199492 Z" id="Path" fill="#FFFFFF"></path>
                    <path d="M80.1655128,89.1255838 C79.9020216,97.9070886 76.6812864,106.342754 71.0246154,113.067183 C83.1447792,129.51266 80.5836773,152.506975 65.1417085,165.885627 C49.6997396,179.264279 26.5634559,178.533731 11.997159,164.207541 C-2.56913785,149.881351 -3.67301091,126.771311 9.46153846,111.123274 C4.42064103,104.293325 80.3126923,84.7281472 80.1655128,89.1255838 Z" id="Path" fill="#000000"></path>
                </g>
                <g id="Group" opacity="0.1" transform="translate(274.000000, 111.000000)">
                    <path d="M45.1788462,205.691802 C45.1788462,206.043807 45.1420513,206.385305 45.1052564,206.742563 C42.1932051,205.586726 39.3354701,204.348579 36.5320513,203.028122 C35.0351781,202.831948 33.6424956,202.15531 32.5634615,201.099975 C31.7487179,200.684924 30.9287179,200.259365 30.1192308,199.828553 C30.3039418,199.445443 30.5110521,199.073531 30.7394872,198.714746 C32.3164103,196.224442 34.7028205,194.669315 37.3415385,194.753376 C39.9802564,194.837437 42.2615385,196.53967 43.6492308,199.114036 C44.7357186,201.131482 45.263764,203.402223 45.1788462,205.691802 Z" id="Path" fill="#3F3D56"></path>
                    <path d="M45.6203846,192.615076 C45.5670418,194.906259 44.9048705,197.14202 43.7017949,199.09302 C42.1248718,201.572817 39.7384615,203.133198 37.0997436,203.049137 L36.5741026,203.007107 C35.0772293,202.810933 33.6845469,202.134295 32.6055128,201.078959 C31.8764418,200.384134 31.2609651,199.579269 30.7815385,198.693731 C28.6378174,194.559223 28.7930163,189.609239 31.1915385,185.617005 C32.7684615,183.131954 35.1601282,181.571574 37.7935897,181.655635 C40.4270513,181.739695 42.7188462,183.441929 44.1275641,186.016294 C45.2049494,188.043497 45.7203595,190.321787 45.6203846,192.615076 Z" id="Path" fill="#3F3D56"></path>
                    <ellipse id="Oval" fill="#3F3D56" transform="translate(37.856217, 179.300175) rotate(-88.190000) translate(-37.856217, -179.300175) " cx="37.8562167" cy="179.300175" rx="10.7020104" ry="8.17897032"></ellipse>
                    <ellipse id="Oval" fill="#3F3D56" transform="translate(38.270091, 166.225676) rotate(-88.190000) translate(-38.270091, -166.225676) " cx="38.2700911" cy="166.225676" rx="10.7020104" ry="8.17897032"></ellipse>
                    <ellipse id="Oval" fill="#3F3D56" transform="translate(38.683797, 153.151340) rotate(-88.190000) translate(-38.683797, -153.151340) " cx="38.6837969" cy="153.15134" rx="10.7020104" ry="8.17897032"></ellipse>
                    <path d="M10.8702564,62.6936802 C9.79718289,61.2380341 8.82762241,59.7089237 7.96871795,58.1176142 L29.5620513,55.2753046 L6.32346154,54.7131472 C2.12802118,44.7752271 2.20976561,33.5494846 6.54948718,23.6736548 L37.2101282,40.8168274 L9.13038462,18.7876142 C16.8625476,6.32032568 30.9162333,-0.783716105 45.5455933,0.379975915 C60.1749532,1.54366794 72.9275548,10.7800151 78.5894977,24.3127374 C84.2514405,37.8454597 81.8735695,53.4059624 72.4280769,64.632335 C74.0986411,66.8999495 75.5191114,69.3413849 76.6647436,71.9141117 L48.3221795,85.5109645 L78.3730769,76.4744162 C82.2214532,89.141011 79.4098987,102.893415 70.8984615,113.03566 C83.0203343,129.478404 80.4615295,152.471981 65.0210406,165.850527 C49.5805516,179.229073 26.4452612,178.498369 11.8806664,164.172143 C-2.68392837,149.845917 -3.78518159,126.73674 9.35115385,111.091751 C-1.37442606,96.5393185 -0.742365232,76.5404839 10.8807692,62.6936802 L10.8702564,62.6936802 Z" id="Path" fill="#FFFFFF"></path>
                    <path d="M80.0498718,89.0993147 C79.7865931,97.8802109 76.563702,106.31482 70.9037179,113.03566 C83.0232052,129.478809 80.4629634,152.470734 65.0228492,165.848051 C49.5827351,179.225368 26.4489257,178.494773 11.88455,164.169876 C-2.67982559,149.844978 -3.78274205,126.737366 9.35115385,111.091751 C4.305,104.267056 80.1865385,84.6966244 80.0498718,89.0993147 Z" id="Path" fill="#000000"></path>
                </g>
                <path d="M57,270.657525 L57,390 C48.3122807,389.574028 39.6298246,389.061806 30.9526316,388.463334 L27,388.18346 L27,270.657525 C27,269.422273 27.4890775,268.237613 28.3596412,267.364157 C29.2302048,266.490702 30.4109424,266 31.6421053,266 L52.3578947,266 C53.5890576,266 54.7697952,266.490702 55.6403588,267.364157 C56.5109225,268.237613 57,269.422273 57,270.657525 Z" id="Path" fill="#FFFFFF"></path>
                <path d="M94,391.481649 L94,192.618038 C94,190.067566 96.0783413,188 98.6421053,188 L119.357895,188 C120.589058,188 121.769795,188.486542 122.640359,189.352592 C123.510922,190.218642 124,191.393258 124,192.618038 L124,392 L94,391.481649 Z" id="Path" fill="#FFFFFF"></path>
                <path d="M162,392 L162,232.653755 C162,230.083557 164.078341,228 166.642105,228 L187.357895,228 C189.921659,228 192,230.083557 192,232.653755 L192,391.657036 L162,392 Z" id="Path" fill="#FFFFFF"></path>
                <path d="M261,116.619535 L261,390.20389 C251,390.486718 241,390.752088 231,391 L231,116.619535 C231,114.068236 233.078341,112 235.642105,112 L256.357895,112 C258.921659,112 261,114.068236 261,116.619535 Z" id="Path" fill="#FFFFFF"></path>
                <path d="M329,171.618346 L329,387.874213 C319,388.355945 309,388.696299 299,389 L299,171.618346 C299,169.067704 301.078341,167 303.642105,167 L324.357895,167 C326.921659,167 329,169.067704 329,171.618346 Z" id="Path" fill="#FFFFFF"></path>
                <polyline id="Path" stroke-opacity="0.687896286" stroke="#292E34" stroke-width="7" stroke-linecap="round" points="40 203 108.5 126.581081 177 165.054054 245.5 47 314 103.391892"></polyline>
                <circle id="Oval" fill="#FFFFFF" cx="42" cy="203" r="15"></circle>
                <circle id="Oval" fill="#FFFFFF" cx="109" cy="126" r="15"></circle>
                <circle id="Oval" fill="#FFFFFF" cx="177" cy="164" r="15"></circle>
                <circle id="Oval" fill="#FFFFFF" cx="246" cy="47" r="15"></circle>
                <circle id="Oval" fill="#FFFFFF" cx="377" cy="172" r="15"></circle>
                <path d="M454.680534,391.647377 C442.843626,391.749733 427.182486,389.691253 424.027762,387.666892 C421.628244,386.114503 420.669508,380.541824 420.348144,378 L420,378 C420,378 420.664152,386.978837 423.81352,389.014571 C426.962887,391.050305 442.634739,393.114471 454.466291,392.995056 C457.883462,392.995056 459.061796,391.675809 458.997524,389.765177 C458.520834,390.902458 457.219309,391.624632 454.680534,391.647377 Z" id="Path" fill="#000000" opacity="0.2"></path>
                <path d="M321.083424,181.210225 C321.180592,182.129905 321.544702,183.000781 322.130636,183.714944 C322.889865,184.576105 324.026091,184.969929 325.047123,185.484525 C327.689497,186.840836 329.70779,189.167735 330.681125,191.979992 C332.424734,197.083947 332.649885,202.481958 334.869975,207.407381 C337.090065,212.332803 339.697624,217.063939 341.614023,222.110134 C342.703124,224.97192 343.57231,227.949227 345.169309,230.553715 C345.942454,231.834626 346.928913,232.973085 348.085795,233.919595 C347.965366,235.767942 347.918241,237.595284 347.928713,239.44363 C348.647863,239.429414 349.323977,239.786278 349.719447,240.388807 C350.106925,240.987465 350.373749,241.656427 350.504856,242.357926 C351.222196,245.335233 350.337302,248.506827 350.981338,251.499888 C352.75072,259.825459 352.207375,268.478367 349.410519,276.515572 C348.693179,278.552954 347.792576,285.295216 348.557041,287.316845 C351.405459,287.028041 353.92924,288.781869 356.594396,289.942337 C356.809886,291.526468 356.681282,293.138595 356.2174,294.668222 C355.2592,297.43549 355.264436,300.444303 355.280144,303.369101 L355.411046,325.034658 C355.411046,327.780923 355.447698,330.563944 356.133623,333.226192 C356.913796,336.224504 358.552683,339.280576 358.500323,342.378656 C358.358949,349.047405 361.500586,355.401095 361.249255,362.017334 C361.202131,363.288072 361.02934,364.548308 360.908911,365.808544 C360.599688,369.16573 360.684041,372.547697 361.160242,375.885181 C362.113205,382.532926 364.631751,389.0704 364.003424,395.754902 C363.961535,396.206486 363.809689,396.805099 363.385568,396.978381 C363.909175,397.571742 364.464197,398.159852 365.029692,398.721707 C364.915264,398.91305 364.759621,399.076313 364.574154,399.199547 C363.955438,399.523584 363.271656,399.703095 362.573979,399.724645 C361.755428,399.746182 360.960645,400.005176 360.28582,400.470285 C359.795294,400.942257 359.462415,401.554886 359.332856,402.224113 C358.955885,403.562301 359.185727,404.999069 359.961184,406.151849 C360.428704,406.742051 361.040051,407.201416 361.736209,407.485599 C364.155269,408.535795 366.930382,407.774403 369.454164,407.007759 L379.339849,404.004197 C379.942831,403.878593 380.49927,403.587765 380.94732,403.164039 C381.152314,402.921185 381.288005,402.627257 381.340025,402.31338 C383.523463,402.838478 385.921579,402.192607 388.146905,401.525733 L398.03259,398.516919 C398.636418,398.393702 399.193478,398.102551 399.640061,397.676762 C400.000297,397.237375 400.147934,396.660526 400.043238,396.101467 C400.116543,396.069961 400.189848,396.048957 400.263153,396.0122 C401.017146,395.670886 401.833971,395.004011 401.650709,394.200611 C401.519808,393.675512 400.996201,393.370955 400.771051,392.887865 C400.555533,392.248618 400.695125,391.542668 401.137575,391.034268 C401.525044,390.509169 402.04865,390.073338 402.404702,389.521985 C403.546164,387.768156 402.771226,385.462975 402.341869,383.40984 C401.415086,379.025269 402.273801,374.446411 401.687362,370.00408 C401.488391,368.507549 401.127103,367.037274 400.83912,365.551246 C400.228879,362.038902 399.825006,358.493627 399.629589,354.933757 C399.252593,349.850806 397.844092,344.841367 398.650446,339.800423 C399.042015,336.841848 399.208305,333.857659 399.147872,330.873752 C399.204841,328.972914 399.122588,327.070446 398.901777,325.181686 C398.69757,323.774422 398.336282,322.393414 398.1792,320.980899 C398.051757,319.393174 398.023777,317.798995 398.095423,316.207755 C398.167621,312.660586 397.840923,309.116557 397.121516,305.642777 C396.074303,300.869633 394.105544,296.301277 393.267774,291.517632 C393.550521,291.580643 393.833269,291.643655 394.105544,291.717169 C394.13696,288.041481 390.927254,280.049484 389.738668,276.562831 C389.564682,276.135747 389.458669,275.683907 389.424505,275.22383 C389.496368,274.617076 389.606546,274.015505 389.754376,273.422743 C389.906222,272.152005 389.23077,270.944279 389.047508,269.673541 C388.976113,268.779669 389.041446,267.880105 389.241242,267.006041 C390.084248,262.306411 391.131461,257.643538 392.178673,252.985916 C392.635261,251.299006 392.792991,249.544806 392.644683,247.803195 C392.398456,245.935703 392.971445,244.052858 394.215501,242.641479 C394.675571,242.215786 395.067622,241.721669 395.377907,241.176454 C395.552041,240.708588 395.630396,240.210333 395.608294,239.71143 C395.587498,237.551489 395.270358,235.404697 394.665803,233.331485 C395.587349,231.656422 395.927694,229.598036 396.194733,227.655172 C396.781172,223.365119 397.367611,219.054062 397.346666,214.722 C397.393319,212.410975 397.075226,210.10709 396.404175,207.895722 C395.913997,206.529995 395.315158,205.205985 394.613442,203.936481 C391.859273,198.617235 389.225534,193.019686 385.748789,188.146774 C384.701577,186.665996 385.36132,184.623364 385.434625,182.796022 C385.513166,180.590609 384.64398,178.474462 383.790502,176.447583 C383.355081,175.200135 382.686946,174.047168 381.821743,173.050197 C381.230359,172.397458 380.397122,172.017635 379.517875,172 C378.520384,172.122222 377.624647,172.671921 377.062162,173.507032 C375.783142,175.254212 375.253417,177.441539 375.590829,179.58242 C375.938679,181.704091 376.860551,183.689314 378.255984,185.321745 C378.930023,186.143152 379.701999,186.878532 380.554616,187.511405 C381.420311,190.269921 382.292988,193.026688 383.172647,195.781704 C384.554967,200.166275 385.937287,204.57185 387.885102,208.720126 C388.455833,209.922602 389.084161,211.146081 389.152229,212.47458 C389.225534,213.908098 388.628623,215.273354 388.152141,216.622856 C387.148328,219.435547 386.57974,222.385757 386.46613,225.370995 C386.313055,225.43906 386.165932,225.519857 386.0263,225.61254 C384.376941,226.694242 383.858571,229.051934 382.141142,230.018115 C381.141055,230.57997 379.926288,230.543213 378.805771,230.800511 C378.706286,230.800511 378.606801,230.853021 378.502079,230.884527 C378.460191,230.674488 378.418302,230.469699 378.392122,230.254409 C378.376046,230.120116 378.376046,229.984376 378.392122,229.850083 C381.061944,228.378008 383.304659,226.235657 384.900547,223.632919 C385.236816,223.150905 385.496471,222.619486 385.670248,222.057624 C385.811573,221.384344 385.838129,220.691918 385.748789,220.009741 C385.661329,217.732855 385.336673,215.471385 384.780118,213.262227 C384.221498,211.042391 382.999176,209.047022 381.277192,207.543906 C380.418478,206.850776 379.428862,206.330929 378.575384,205.632548 C376.910316,204.283046 375.768855,202.287672 373.862928,201.284734 C371.357333,200.060977 368.336421,200.844512 366.736648,203.13308 C366.483117,203.645385 366.126562,204.0995 365.689436,204.46683 C365.356041,204.625008 365.030976,204.800272 364.715528,204.991928 C364.139561,205.454015 364.108145,206.341431 364.296643,207.060816 C364.653933,208.538981 364.854021,210.050955 364.893554,211.57141 C361.403538,215.678724 361.390245,221.715601 364.862138,225.838332 C364.862138,226.815015 364.862138,227.791698 364.825485,228.768381 C364.825485,228.952165 364.825485,229.141201 364.788833,229.324985 C364.184987,229.113983 363.644481,228.752618 363.218014,228.274788 C362.631575,227.539651 362.526854,226.457948 361.809514,225.854085 C361.293665,225.513015 360.705622,225.297264 360.092085,225.223967 C358.567212,224.876554 357.137165,224.197138 355.903236,223.233844 C354.934564,222.482954 353.92924,221.522024 352.798251,221.301483 C350.846694,217.630387 348.568479,214.143571 345.991371,210.883532 C345.337785,210.111807 344.742703,209.292116 344.211109,208.431322 C343.085356,206.462204 342.750248,204.14652 342.038144,201.988366 C340.04844,195.939233 335.084653,191.087324 333.875123,184.828152 C333.435294,182.559727 332.000613,180.585358 331.016233,178.495466 C330.351253,177.082952 329.618205,175.591673 328.288245,174.783021 C326.576053,173.732825 324.209353,174.215915 322.785144,175.628429 C321.388074,177.125226 320.759848,179.185862 321.083424,181.210225 Z M383.251187,393.712269 C382.632471,394.036307 381.948689,394.215817 381.251012,394.237368 C380.899134,394.274085 380.549535,394.330181 380.203799,394.405399 C380.072898,393.302693 379.999593,392.184233 379.915816,391.09728 C379.638305,387.531862 379.083282,383.992699 378.533496,380.458787 C377.957529,376.783099 377.685254,372.760846 376.439071,369.232185 C374.433659,363.487609 372.402067,357.569751 372.658634,351.483861 C372.716231,350.102853 372.889021,348.732346 372.962326,347.356588 C373.12988,343.9487 372.653398,340.467298 373.485932,337.153928 C373.857692,335.646896 374.491256,334.208126 374.732115,332.674839 C374.885742,331.290156 374.90328,329.893682 374.784475,328.505558 C374.555634,323.686935 374.955207,318.858973 375.973061,314.144119 C376.946969,315.420108 377.266369,317.068917 377.54388,318.649463 L379.507403,329.329963 C380.675045,335.6679 381.706549,342.389158 384.801062,348.028714 C384.366469,350.060845 383.937112,352.229501 384.654452,354.172365 C384.96338,355.012522 385.471278,355.74766 385.785441,356.598319 C386.309048,358.010834 386.235743,359.565125 386.392825,361.061655 C386.733169,364.212245 388.031712,367.310325 387.078749,370.350644 C386.098523,373.485636 385.461212,376.718246 385.178058,379.99145 C385.125992,380.901719 385.021093,381.808174 384.863895,382.706208 C384.696341,383.51486 384.424065,384.281503 384.27222,385.111159 C384.062857,386.27545 384.114729,387.47189 384.424065,388.613565 C384.659161,389.246319 384.803715,389.909275 384.853422,390.582683 C384.853422,391.254809 384.031361,391.7379 383.371617,391.842919 C383.565351,392.094966 383.774794,392.336512 383.989472,392.572806 C383.863435,393.01853 383.606106,393.41569 383.251187,393.712269 Z" id="Shape" fill="url(#linearGradient-1)" fill-rule="nonzero"></path>
                <path d="M361.383868,399.7633 C360.573481,399.784862 359.786626,400.044168 359.118532,400.509834 C358.631172,400.976767 358.30109,401.587425 358.175074,402.25525 C357.802824,403.584829 358.030624,405.013348 358.797134,406.156152 C359.260302,406.745479 359.865591,407.203614 360.554454,407.486243 C362.949386,408.537699 365.696818,407.770136 368.195427,407.007831 L377.982508,404.021696 C378.579101,403.897963 379.130067,403.608566 379.573945,403.185789 C380.126374,402.431175 380.143056,401.403396 379.615416,400.630751 C379.089636,399.888809 378.372103,399.308469 377.541882,398.953679 C374.498971,397.450097 371.067272,397.108374 367.723698,397.045287 C366.479578,397.045287 365.251009,396.740365 364.406044,397.712961 C363.960234,398.238689 364.043175,398.801218 363.369277,399.248087 C362.753305,399.566937 362.075143,399.74292 361.383868,399.7633 Z" id="Path" fill="#3F3D56"></path>
                <path d="M380.383671,393.761634 C379.573651,393.785569 378.787404,394.044668 378.118231,394.508184 C377.631967,394.976002 377.302081,395.586284 377.174729,396.253638 C376.803036,397.58499 377.030753,399.014882 377.796818,400.15988 C378.26178,400.746101 378.866706,401.202141 379.554219,401.484742 C381.954446,402.536221 384.696821,401.773899 387.195545,401.011577 L396.983077,398.020121 C397.579698,397.896385 398.13069,397.606982 398.574588,397.184196 C399.126157,396.431215 399.142842,395.405381 398.616061,394.634361 C398.089669,393.89297 397.372276,393.312757 396.542431,392.957253 C393.494195,391.453639 390.062338,391.106651 386.71861,391.043562 C385.474432,391.043562 384.250991,390.743891 383.400803,391.716509 C382.954972,392.242248 383.037917,392.799531 382.363988,393.24641 C381.751473,393.569616 381.073963,393.745886 380.383671,393.761634 Z" id="Path" fill="#3F3D56"></path>
                <path d="M373.151457,286.874502 C378.885559,286.290755 384.653747,286.126724 390.411141,286.383685 C390.791052,286.379744 391.168974,286.439736 391.52949,286.561214 C392.797296,287.08336 392.993136,288.764667 393.11167,290.13791 C393.627039,295.714421 396.028655,300.909767 397.234617,306.371406 C397.942818,309.80446 398.264402,313.30782 398.193202,316.814312 C398.123541,318.380952 398.151082,319.950478 398.275661,321.513619 C398.430271,322.907747 398.791029,324.275768 398.986869,325.664674 C399.204298,327.530565 399.28526,329.410191 399.229092,331.288179 C399.288052,334.232733 399.124373,337.177538 398.739492,340.096769 C397.945825,345.072814 399.332166,350.01753 399.703231,355.05101 C399.888158,358.571461 400.278804,362.077719 400.873117,365.551352 C401.156569,367.01858 401.512173,368.470144 401.708013,369.947815 C402.285226,374.339057 401.440022,378.860835 402.352224,383.194641 C402.774826,385.220564 403.537571,387.497118 402.414068,389.23064 C402.063618,389.752785 401.548249,390.196609 401.166877,390.723975 C400.731219,391.225281 400.593596,391.924433 400.806119,392.556705 C401.027727,393.031857 401.543096,393.345145 401.671938,393.851626 C401.872931,394.650508 401.048342,395.303189 400.306212,395.642584 C394.714466,398.201096 387.504463,396.399695 383.731968,391.49675 C384.381332,391.392321 385.174999,390.917169 385.19046,390.248823 C385.140915,389.584381 384.998632,388.930412 384.767858,388.306443 C384.464328,387.179937 384.413263,385.998923 384.618401,384.849841 C384.767858,384.045737 385.035849,383.283405 385.200767,382.47408 C385.355487,381.586357 385.458738,380.690213 385.509988,379.790253 C385.788744,376.555965 386.416075,373.362305 387.380775,370.266323 C388.318745,367.263988 387.040632,364.225103 386.705643,361.092231 C386.551032,359.609338 386.61803,358.079453 386.107815,356.680103 C385.798594,355.855114 385.298687,355.113668 384.99462,354.288678 C384.288565,352.361962 384.711167,350.221166 385.138923,348.216129 C382.093096,342.644838 381.077821,336.003151 379.92855,329.742629 L377.995919,319.195294 C377.707312,317.628858 377.392938,316.004986 376.449814,314.741395 C375.448018,319.397932 375.054688,324.16768 375.279928,328.928082 C375.396806,330.299689 375.379543,331.679643 375.228391,333.047808 C374.991321,334.56203 374.367726,335.987486 374.001814,337.470379 C373.202993,340.74423 373.671979,344.179946 373.486446,347.547783 C373.414294,348.910582 373.244223,350.262938 373.187532,351.625737 C372.935002,357.640851 374.934631,363.488878 376.908491,369.164597 C378.119607,372.647306 378.387598,376.605167 378.969965,380.249741 C379.485333,383.742893 380.057392,387.236045 380.330537,390.760526 C380.583067,393.997826 380.696448,397.501421 382.68577,400.044269 C380.86652,401.239981 378.990579,402.45658 376.862108,402.869074 C374.381679,403.262245 371.843653,402.763482 369.688182,401.459282 C367.544915,400.160906 365.629202,398.511138 364.019131,396.577224 C364.436579,396.431023 364.586036,395.814892 364.627265,395.371068 C365.245707,388.760709 362.766786,382.317436 361.828815,375.738406 C361.359942,372.442477 361.276908,369.101979 361.581439,365.786317 C361.699973,364.53839 361.870045,363.290463 361.916428,362.037314 C362.163805,355.505277 359.056134,349.213426 359.169515,342.676167 C359.221052,339.611174 357.62341,336.593175 356.84005,333.632611 C356.164918,331.021885 356.144303,328.254515 356.128842,325.539359 L356,304.131403 C356,301.238718 356,298.272933 356.922509,295.542113 C358.056319,292.252598 356.757591,288.477488 356.561751,285 C361.917109,286.719607 367.553751,287.356502 373.151457,286.874502 Z" id="Path" fill="#696791"></path>
                <path d="M353.646062,224.162656 C351.468413,219.738297 348.808466,215.564978 345.714047,211.71774 C345.06749,210.966348 344.478659,210.167735 343.952529,209.328645 C342.838627,207.408102 342.507047,205.152879 341.80244,203.052124 C339.833684,197.161771 334.922155,192.429922 333.725359,186.338762 C333.29016,184.12473 331.870583,182.219634 330.896567,180.16007 C330.238588,178.78531 329.513257,177.333318 328.197299,176.555832 C326.503133,175.52605 324.161349,175.99975 322.752134,177.379658 C321.378062,178.835018 320.761728,180.841891 321.083872,182.811758 C321.180886,183.70869 321.541238,184.557447 322.12006,185.252342 C322.871296,186.091614 323.995559,186.472633 325.005842,186.977227 C327.616371,188.292276 329.61395,190.559794 330.58053,193.305237 C332.305782,198.273935 332.528562,203.536122 334.72528,208.334906 C336.921997,213.13369 339.502104,217.736816 341.398327,222.643727 C342.475961,225.429287 343.335997,228.307528 344.916183,230.881983 C346.496369,233.456438 348.962495,235.613832 351.941534,236 C351.92135,234.133621 352.206567,232.27639 352.786026,230.500964 C353.433643,228.472293 354.583811,226.083199 353.646062,224.162656 Z" id="Path" fill="#A0616A"></path>
                <path d="M386.029139,228.545378 C385.89371,224.812336 386.475113,221.087971 387.741761,217.574625 C388.226565,216.228358 388.795683,214.860974 388.748256,213.430235 C388.679752,212.099807 388.047399,210.880248 387.473011,209.676527 C385.491639,205.532138 384.100462,201.139613 382.730364,196.757647 L380.09556,188.495265 C379.236513,187.864143 378.459395,187.128134 377.782202,186.304282 C376.377696,184.677358 375.449433,182.693111 375.099971,180.57077 C374.760318,178.433208 375.294038,176.248661 376.580731,174.50993 C377.148866,173.673315 378.049669,173.12297 379.052177,173 C379.936635,173.019586 380.774514,173.401154 381.370805,174.055895 C382.240042,175.04944 382.912477,176.199737 383.352178,177.44532 C384.211124,179.472639 385.085879,181.58443 385.006835,183.780692 C384.93306,185.607391 384.253281,187.645269 385.323011,189.128802 C388.822031,193.99648 391.472644,199.587447 394.244458,204.90388 C394.951501,206.170708 395.554234,207.493202 396.046664,208.858208 C396.723589,211.070365 397.043793,213.376582 396.995193,215.689852 C396.995193,220.013743 396.426076,224.321797 395.83588,228.608732 C395.461737,231.295986 394.971664,234.220816 392.942865,236 C390.835021,233.296908 388.716639,230.657169 386.029139,228.545378 Z" id="Path" fill="#A0616A"></path>
                <circle id="Oval" fill="#A0616A" cx="373" cy="220" r="11"></circle>
                <path d="M377.03148,230.875182 C377.293809,232.819077 378.348374,234.560806 379.376705,236.240332 C379.995803,237.277075 380.788038,238.381208 382,238.49525 C378.845758,240.130776 375.532321,241.447216 372.110178,242.424509 C370.947046,242.810618 369.72754,243.005012 368.500525,242.999902 C367.46075,242.923259 366.442933,242.665273 365.494229,242.237895 C361.290118,240.429028 358.158944,236.813714 357,232.430298 C358.355429,232.465973 359.710968,232.363485 361.045121,232.124458 C361.806988,232.066646 362.517125,231.721401 363.028332,231.160286 C363.332348,230.634803 363.474572,230.033093 363.437566,229.428924 C363.490031,227.635357 363.495278,225.836606 363.437566,224.043039 C366.112618,223.874583 368.795973,224.201588 371.349423,225.007211 C372.398741,225.344153 373.448059,225.748483 374.497377,226.012853 C375.158447,226.178732 376.979014,226.012853 377.466946,226.391264 C378.269675,226.925187 376.847849,229.553333 377.03148,230.875182 Z" id="Path" fill="#A0616A"></path>
                <path d="M373.321768,236.605668 C373.562341,233.662824 375.627796,231.207584 378.447788,230.512285 C379.551378,230.260362 380.747793,230.291852 381.732773,229.735523 C383.424256,228.775067 383.934795,226.434284 385.559238,225.358364 C387.183681,224.282444 389.488843,224.88076 390.901851,226.240094 C392.314858,227.599427 393.031676,229.536084 393.609256,231.430753 C394.471529,233.992596 394.939463,236.674709 394.996478,239.382067 C395.017987,239.877285 394.940803,240.371811 394.769572,240.835871 C394.463778,241.37757 394.077611,241.867952 393.624727,242.289676 C392.400229,243.688231 391.835363,245.560424 392.077638,247.417355 C392.224188,249.145961 392.068799,250.887322 391.618668,252.560779 C390.587276,257.18986 389.555884,261.813693 388.725613,266.484762 C388.530796,267.344458 388.466448,268.229442 388.534805,269.108958 C388.694671,270.37382 389.380547,271.570454 389.230995,272.835316 C389.084948,273.424142 388.976426,274.021953 388.906106,274.625018 C388.939804,275.081468 389.044233,275.52962 389.215524,275.952861 C390.386155,279.411551 393.547372,287.336623 393.51643,291 C388.024266,289.567189 379.927836,289.247037 374.255178,289.220795 C372.695182,289.20418 371.135458,289.274263 369.582971,289.430731 C365.854487,289.840105 362.038336,290.947516 358.423305,289.92408 C355.066123,288.974121 352.095713,286.250205 348.625078,286.591351 C347.872162,284.586465 348.759159,277.894766 349.465663,275.868886 C352.22,267.891825 352.75539,259.295403 351.012751,251.028248 C350.378445,248.057658 351.249972,244.903375 350.543468,241.953779 C350.414341,241.255891 350.151497,240.590696 349.769924,239.996129 C349.379218,239.395896 348.713532,239.041305 348.006243,239.056666 C347.94197,234.312148 348.374152,229.574147 349.295483,224.922747 C349.635843,223.269504 350.326875,221.317102 351.992574,221.033689 C353.467465,220.776518 354.705136,222.046629 355.891237,222.975594 C357.107389,223.933677 358.515936,224.607431 360.016807,224.948989 C360.621074,225.02225 361.200234,225.237894 361.70829,225.578796 C362.414794,226.177113 362.517933,227.253033 363.095513,227.98256 C364.126905,229.289409 366.432067,229.179193 367.164356,230.685482 C367.324456,231.134158 367.453692,231.593627 367.551128,232.06056 C367.897526,232.95561 368.487959,233.731318 369.252925,234.296375 C370.401621,235.39545 371.799303,236.188711 373.321768,236.605668 Z" id="Path" fill="#F86D70"></path>
                <path d="M364.105175,208.242313 C363.913157,207.529465 363.94516,206.681333 364.531883,206.202632 C364.825245,205.978891 365.209283,205.895639 365.52398,205.682305 C365.967492,205.318691 366.330456,204.870782 366.59075,204.365878 C368.234291,202.122244 371.29789,201.36355 373.839456,202.570751 C375.764976,203.554169 376.927756,205.521004 378.639923,206.847837 C379.509341,207.534669 380.517439,208.044589 381.392191,208.73142 C383.144116,210.207699 384.389599,212.172751 384.960538,214.361356 C385.527445,216.534555 385.85819,218.759949 385.947301,221.000725 C386.038335,221.673231 386.011279,222.355951 385.867293,223.019593 C385.69003,223.576256 385.425543,224.102812 385.083217,224.580574 C383.323045,227.182208 381.00282,229.544491 378.09587,230.886934 C375.18892,232.229377 371.652576,232.447915 368.782964,231.043032 C368.494264,230.92924 368.24587,230.735751 368.068228,230.486283 C367.905116,230.10639 367.866004,229.686686 367.956217,229.284328 C368.111765,227.694015 367.789277,226.093928 367.028126,224.679436 C366.494741,223.638782 365.694663,222.74382 365.267955,221.666744 C364.871168,220.461131 364.701304,219.195422 364.766573,217.930797 C364.718568,214.657942 364.947924,211.395493 364.105175,208.242313 Z" id="Path" fill="#2D293D"></path>
            </g>
        </g>
    </g>
</svg>